<?xml version="1.0" ?><svg id="icons" viewBox="0 0 340 340" xmlns="http://www.w3.org/2000/svg" xmlns:xlink="http://www.w3.org/1999/xlink"><defs><linearGradient gradientUnits="userSpaceOnUse" id="linear-gradient" x1="246.93" x2="246.93" y1="82.741" y2="283.257"><stop offset="0" stop-color="#9dd7ff"/><stop offset="1" stop-color="#8aa9f5"/></linearGradient></defs><title/><path d="M231.657,299.279c-.124,0-.248,0-.371-.006V243.7h-9.037v56.181a79.345,79.345,0,0,0-15.931,4.925h0a5.266,5.266,0,0,0,6.176,3.481,57.373,57.373,0,0,1,10.9-1.573,37.546,37.546,0,0,1,9.341.881,5.97,5.97,0,0,0,6.979-4.2l.808-2.99A55.43,55.43,0,0,0,231.657,299.279Z" style="fill:#464965"/><path d="M262.394,299.279c.123,0,.247,0,.371-.006V243.7H271.8v56.181a79.356,79.356,0,0,1,15.93,4.925h0a5.265,5.265,0,0,1-6.176,3.481,57.351,57.351,0,0,0-10.9-1.573,37.538,37.538,0,0,0-9.34.881,5.97,5.97,0,0,1-6.979-4.2l-.808-2.99A55.43,55.43,0,0,1,262.394,299.279Z" style="fill:#464965"/><path d="M268.4,129.975s3.334-30,28.316-55.954a8.541,8.541,0,0,1,12.483.225h0a8.54,8.54,0,0,1,1.114,9.885l-2,3.589,3.494-.867a7.725,7.725,0,0,1,8.911,4.333h0a7.726,7.726,0,0,1-1.456,8.5l-5.31,5.571h4.576a10.483,10.483,0,0,1,10.036,7.455h0a10.425,10.425,0,0,1-2.367,10.174c-6.739,7.129-19.126,23.946-18.968,51.122Z" style="fill:#718fcc"/><path d="M188.534,97.654s18.062,18.062,43.539-3.232L221.807,75.409Z" style="fill:#e87b31"/><path d="M181.88,107.639s-7.035-35.652,20.914-51.052l9.886,25.526Z" style="fill:#ffb655"/><path d="M227.825,107.639s-46.8,26.676-51.629,84.065c3.121,18.348,30.626,30.509,40.627,22.4Z" style="fill:#bddeff"/><path d="M213.184,249.308l3.639-35.2c-21.429-3.992-33.832-14.154-40.619-22.4-.036.428-.078.851-.109,1.282C176.1,192.986,172.842,236.945,213.184,249.308Z" style="fill:#718fcc"/><path d="M265.289,107.639s46.8,26.676,51.629,84.065c-3.121,18.348-30.627,30.509-40.627,22.4Z" style="fill:#bddeff"/><path d="M279.929,249.308l-3.638-35.2c21.429-3.992,33.832-14.154,40.619-22.4.036.428.077.851.108,1.282C317.018,192.986,320.272,236.945,279.929,249.308Z" style="fill:#718fcc"/><path d="M276.048,123.8a40.093,40.093,0,0,1-7.126-22.922C269.8,31.7,226.383,35.1,226.383,35.1a28.158,28.158,0,0,0-1.444,56.278v9.5a40.093,40.093,0,0,1-7.126,22.922c-9.386,13.476-24.484,42-22.475,84.073,2.888,60.5,51.592,61.152,51.592,61.152s48.7-.65,51.593-61.152C300.531,165.8,285.433,137.277,276.048,123.8Z" style="fill:url(#linear-gradient)"/><circle cx="220.468" cy="63.847" r="4.245" style="fill:#5774bc"/><path d="M230.01,150.545A3.228,3.228,0,0,1,234,152.209c.093.2.19.4.289.6a19.1,19.1,0,0,0,1.961,3.117,13.627,13.627,0,0,0,4.083,3.584,2.1,2.1,0,0,1,1.055,2.362l-.166.638a2.086,2.086,0,0,1-2.744,1.417,18.806,18.806,0,0,1-6.449-4.1,25.146,25.146,0,0,1-3.17-3.682q-.244-.35-.479-.7a3.261,3.261,0,0,1,1.633-4.9Z" style="fill:#5774bc"/><path d="M245.138,152.9a3.224,3.224,0,0,1,4.006,1.522c.1.185.2.369.31.549a19.278,19.278,0,0,0,2.209,3.059,14.558,14.558,0,0,0,4.6,3.518,2.087,2.087,0,0,1,1.182,2.288l-.029.144a2.085,2.085,0,0,1-2.606,1.59,19.428,19.428,0,0,1-6.842-3.508,25.042,25.042,0,0,1-3.558-3.425c-.222-.263-.439-.527-.651-.8a3.2,3.2,0,0,1,1.377-4.94Z" style="fill:#5774bc"/><path d="M259.689,151.6a3.168,3.168,0,0,1,4.187,1.023q.207.323.425.635a20.6,20.6,0,0,0,2.462,2.937,14.068,14.068,0,0,0,4.813,3.192,2.111,2.111,0,0,1,1.4,2.143h0a2.087,2.087,0,0,1-2.456,1.86,18.756,18.756,0,0,1-7.117-2.977,26.21,26.21,0,0,1-3.8-3.107q-.378-.374-.742-.758a3.177,3.177,0,0,1,.819-4.948Z" style="fill:#5774bc"/><path d="M134.2,134.791a10.342,10.342,0,0,0-9.108,9.011,10.208,10.208,0,0,0,.45,4.434,12.662,12.662,0,0,1,.523,6.125c-1.383,8.191-12.144,10.807-16.256,10.807a32.663,32.663,0,0,1-8.586-1.17,4,4,0,0,1,2.291-7.665c2.546.748,9.943,1.971,13.615-1.291l.022-.019a2.612,2.612,0,0,0,.07-3.9q-1.759-1.669-3.717-3.277a14.689,14.689,0,0,1-4.742-7.31,52.173,52.173,0,0,1-2.016-9.127,2.9,2.9,0,0,0-5.042-1.786,41.712,41.712,0,0,1-4.862,4.01c-5.776,4.763-20.9,7.421-28.288-5.1-2.852-4.831-2.367-12.042-2.367-12.393a11.707,11.707,0,1,0-18.65,9.416,16.418,16.418,0,0,1,6.436,9.047c1.182,4.72.451,11.1-7.2,17.722-5.965,5.167-11.3,1.074-16.375,12.105-2.642,5.737.637,12.8-.921,20.148-.565,2.66,2.591,4.7,5.191,3.9A17.954,17.954,0,0,0,44.749,180.7a4.157,4.157,0,0,1,5.245-1.668,4,4,0,0,1,1.656,5.724,25.843,25.843,0,0,1-12.98,10.772A9.73,9.73,0,0,0,32.8,207.45l.044.139a9.28,9.28,0,0,1-2.745,9.937c-5.394,4.53-14.089,3.81-15.636,4.384A10.4,10.4,0,0,0,7.5,231.842a10.284,10.284,0,0,0,19.975,3.182,17.292,17.292,0,0,1,3.748-6.3,11.275,11.275,0,0,1,5.06-3.457c7.883-2.125,17.746-.514,21.356,12.439.588,2.111,1.621,4.3,2.123,6.851a4.051,4.051,0,0,0,3,3.239,3.921,3.921,0,0,0,4.744-3.158c.37-2.239,1.676-5.277,2.47-9.049,1.5-7.147,7.255-14.082,16.987-17.419a4.149,4.149,0,0,1,4.942,1.682,4,4,0,0,1-1.958,5.732A29.424,29.424,0,0,0,82.6,229.8c-4.177,3.311-.352,9.927,4.542,7.816a35.879,35.879,0,0,1,21.586-2.737c5.44.931,6.81,5.762,6.33,12a15.162,15.162,0,0,0-.019,5.038,10.283,10.283,0,0,0,20.262-2.489c0-4.79-2.145-9.219-8.2-10.057a8.808,8.808,0,0,1-7.391-6.8l-.022-.1a7.77,7.77,0,0,1,.344-4.315c3.155-8.51,12.076-10.317,17.76-10.61a3.086,3.086,0,0,0,2.051-5.228q-.48-.487-.954-1.01a16.875,16.875,0,0,1-4.218-13.618,68.652,68.652,0,0,0,.618-10.581,42.965,42.965,0,0,0-2.091-12.477h0a45.846,45.846,0,0,1-.559-11.17,11.13,11.13,0,0,1,6.809-9.039,10.281,10.281,0,0,0-5.256-19.629Zm-73.633,33.77a7.988,7.988,0,1,1,7.987,7.988A7.987,7.987,0,0,1,60.565,168.561Zm9,39.313a7.988,7.988,0,1,1,7.988-7.988A7.988,7.988,0,0,1,69.563,207.874Zm20.326-28.2a4.557,4.557,0,1,1,4.557,4.557A4.556,4.556,0,0,1,89.889,179.676Zm9.6,29.344a3.5,3.5,0,1,1,2.983-3.95A3.5,3.5,0,0,1,99.486,209.02Zm16.054-11.251a7.988,7.988,0,1,1,7.987-7.988A7.988,7.988,0,0,1,115.54,197.769Z" style="fill:#464965"/><path d="M321.764,102.125l.026-.028a11.228,11.228,0,0,0-7.32-18.946,12.049,12.049,0,0,0-11.432-15.229l-.194,0a12.039,12.039,0,0,0-8.649,3.673,110.743,110.743,0,0,0-17.554,24.04,3.5,3.5,0,0,0,6.154,3.336,103.784,103.784,0,0,1,16.443-22.521,5.04,5.04,0,0,1,7.362.142,5.038,5.038,0,0,1,.657,5.834l-1.642,2.941a35.5,35.5,0,0,0-10.758,12.44,3.5,3.5,0,0,0,6.375,2.892,29.117,29.117,0,0,1,8.6-9.75l2.81-.7a4.227,4.227,0,0,1,4.078,7.019l-5.161,5.415a37.4,37.4,0,0,0-8.814,10.891,3.5,3.5,0,1,0,6.233,3.187,30.106,30.106,0,0,1,6.274-8.008h3.267a6.983,6.983,0,0,1,5.125,11.725,73.226,73.226,0,0,0-16.077,27.713,121.429,121.429,0,0,0-34.152-39.3c-.046-.034-.1-.055-.144-.086a37.083,37.083,0,0,1-.854-7.878c.343-27.006-5.838-46.651-18.371-58.39A39.446,39.446,0,0,0,226.268,31.6a31.706,31.706,0,0,0-30.977,25.73c-23.076,17.819-17.111,49.634-16.844,50.983a3.5,3.5,0,0,0,5.667,2.017l7.479-6.2a31.953,31.953,0,0,0,15.739,4.192,35.149,35.149,0,0,0,13.815-2.956q-.169,1.406-.441,2.783c-45.993,29.733-48.1,84.574-48.1,84.574-.031.411-2.638,41.249,32.06,57.093a3.5,3.5,0,0,0,.409.136,54.329,54.329,0,0,0,15.307,14.161,56.567,56.567,0,0,0,26.6,8.407,56.614,56.614,0,0,0,26.5-8.407,54.369,54.369,0,0,0,15.645-14.631,1.361,1.361,0,0,0,.152-.052C337,222.308,316.3,167.614,312.182,157.829a3.546,3.546,0,0,0,.223-.671,66.936,66.936,0,0,1,16.33-31.871,13.992,13.992,0,0,0-6.971-23.162Zm-8.482,88.426a55.377,55.377,0,0,1-11.08,9.709c-.014-36.952-12.9-62.831-21.85-76.345C293.48,136.56,310.152,158.568,313.282,190.551ZM194.967,67.13a31.565,31.565,0,0,0,8.548,18.033l-18.829,15.605C184.311,92.573,185.256,77.916,194.967,67.13Zm2.519,32.121,11.5-9.531a31.43,31.43,0,0,0,12.453,4.815v2.94C211.188,102.936,202.865,101.563,197.486,99.251ZM214.872,121.9c-8.972,12.913-23.313,39.713-23.209,78.853a55.56,55.56,0,0,1-11.831-10.2C183.123,156.876,201.239,134.339,214.872,121.9Zm-35.158,78.52a65.5,65.5,0,0,0,12.188,8.62,84.841,84.841,0,0,0,6.266,28.726C183.932,226.633,180.473,209.9,179.714,200.42Zm67.219,65.1a50.1,50.1,0,0,1-22.88-7.366c-15.595-9.61-24.08-26.584-25.22-50.452-1.964-41.147,12.848-68.979,21.852-81.906a43.374,43.374,0,0,0,7.754-24.922v-9.5a3.5,3.5,0,0,0-3.324-3.5A24.658,24.658,0,0,1,226.383,38.6c.081,0,.178,0,.258-.009s.359-.023.834-.023a32.708,32.708,0,0,1,21.9,9.178c10.961,10.358,16.359,28.218,16.042,53.13a43.373,43.373,0,0,0,7.755,24.922h0c9,12.929,23.815,40.762,21.851,81.906C292.361,263.575,249.473,265.464,246.933,265.525Zm49.144-28.681a85.914,85.914,0,0,0,5.907-28.227,65.375,65.375,0,0,0,11.416-8.2C312.661,209.642,309.363,225.725,296.077,236.844Z" style="fill:#464965"/></svg>