<?xml version="1.0" ?><svg id="icons" viewBox="0 0 340 340" xmlns="http://www.w3.org/2000/svg" xmlns:xlink="http://www.w3.org/1999/xlink"><defs><radialGradient cx="48.566" cy="182.613" gradientUnits="userSpaceOnUse" id="radial-gradient" r="160.248"><stop offset="0" stop-color="#f97d7d"/><stop offset="1" stop-color="#fcd0be"/></radialGradient><linearGradient gradientUnits="userSpaceOnUse" id="New_Gradient_Swatch_6" x1="222.514" x2="222.514" y1="28.378" y2="355.57"><stop offset="0" stop-color="#fcd0be"/><stop offset="1" stop-color="#efa69a"/></linearGradient></defs><title/><path d="M210.133,183.979l-3.672,41.971s-62.284,2.753-114.132-1.845a13.448,13.448,0,0,1-12.175-11.981c-1.739-16.291-4.583-47.957-3.78-74.6a15.552,15.552,0,0,1,4.62-10.6c4.035-3.984,9.372-12.753,8.7-31.033a15.525,15.525,0,0,0-8.37-13.137l-4.973-2.6L75.193,64.263A12.245,12.245,0,0,0,62.981,52.909h-37a12.238,12.238,0,0,0-12.208,11.3C11.321,96.18,5.211,189.938,11.194,266.76a36.81,36.81,0,0,0,35.455,33.888l104.291,3.6V331.75h180.4s.506-31.31-2.262-60.343a43.2,43.2,0,0,0-25.061-35.2l-27.786-12.691a12.405,12.405,0,0,1-7.252-11.47l.349-23.506Z" style="fill:url(#radial-gradient)"/><polygon points="269.326 188.543 210.133 183.979 206.461 225.95 269.189 197.803 269.326 188.543" style="fill:#464965"/><path d="M159.705,11.75S199.436,41.5,278.162,51.285a14.105,14.105,0,0,1,12.325,13.664c.6,23.9,1.574,78.1-.349,123.594H183.922s-5.523-66.279-5.948-107.916c0,0-19.969-5.948-24.217-21.668l19.119-2.124S154.606,42.291,159.705,11.75Z" style="fill:url(#New_Gradient_Swatch_6)"/><path d="M272.216,99.211c-5.031-13.745-8.624-25.481-8.624-25.481S260,85.466,254.969,99.211c-2.684,7.333-.528,11.547,2.3,13.928a9.684,9.684,0,0,0,12.649,0C272.744,110.758,274.9,106.544,272.216,99.211Z" style="fill:#fff"/><path d="M205.205,171.75l21.31-1.243,23.42-26.5a28.482,28.482,0,0,0-5.061-4.489,25.129,25.129,0,0,0-39.014,14.467A48.631,48.631,0,0,0,205.205,171.75Z" style="fill:#464965"/><path d="M249.928,144.014c-6.257-.545-18.436.021-22.669,11.764a26.72,26.72,0,0,0-.744,14.729l32.537-1.9S259.044,154.258,249.928,144.014Z" style="fill:#fc6b98"/><path d="M43.747,133.7s-.128-.165-.372-.433c-6.024-6.619-17.261-3.5-18.838,5.31-.868,4.849.943,11.246,11.761,17.342L35.759,188.1l9.221-9.488a13.956,13.956,0,0,0,3.948-9.727V155.915S67.163,149.021,60.9,136.5C54.483,123.661,43.747,133.7,43.747,133.7Z" style="fill:#fff"/><path d="M39.4,209.2,49.923,195.6s-.9,29.017,6.748,46.563c0,0,8.937-5.447,17.57-2.8A10.343,10.343,0,0,1,81.5,250.889c-.778,4.531-4.078,9.648-14.707,10.615,0,0,4.158,12.176-3.332,17.587a10.293,10.293,0,0,1-12.818-.938c-3.535-3.155-7.169-8.92-5.589-18.886a13.873,13.873,0,0,0-1.075-7.774c-2.81-6.348-7.717-19.633-7.384-34.387A13.415,13.415,0,0,1,39.4,209.2Z" style="fill:#fff"/><path d="M94.664,259.883a14.081,14.081,0,0,1-5.347,3.6c-3.072,1.238-9.045,4.878-7.673,14.2,0,0,.858,8.929,10.176,7.959,5.68-.592,11.071-4.56,14.415-7.569a13.353,13.353,0,0,1,8.924-3.46h53.233a21.342,21.342,0,0,1,11.389,3.148c2.5,1.574,6.479,3.148,12.4,3.148,10.361,0,16.264-4.7,17.578-11.6a14.835,14.835,0,0,0-.322-6.6c-1.244-4.635-5.029-12.207-16.48-12.207,0,0-6.95-.347-11.991,3.969a21.829,21.829,0,0,1-14.209,5.155H119.021a11.342,11.342,0,0,1-9.7-5.448,29.5,29.5,0,0,0-4.078-5.325,4.4,4.4,0,0,0-7.494,3.06A11.714,11.714,0,0,1,94.664,259.883Z" style="fill:#fff"/><path d="M240.11,249.208h0a9.61,9.61,0,0,1,9.616,9.67,463.455,463.455,0,0,0,5.461,72.872H232.848s-5.9-37.815-2.31-73.907A9.61,9.61,0,0,1,240.11,249.208Z" style="fill:#fff"/><path d="M277.023,264.171c4.994.974,13,1.684,20.967-1.183a5.633,5.633,0,0,1,7.423,4.2h0a5.657,5.657,0,0,1-2.623,5.942,32.078,32.078,0,0,1-28.705,2.606,5.511,5.511,0,0,1-3.282-3.5,12.529,12.529,0,0,1-.4-1.747A5.616,5.616,0,0,1,277.023,264.171Z" style="fill:#fff"/><path d="M277.023,297.392c4.994.973,13,1.683,20.967-1.183a5.632,5.632,0,0,1,7.423,4.2h0a5.658,5.658,0,0,1-2.623,5.943,32.081,32.081,0,0,1-28.705,2.606,5.515,5.515,0,0,1-3.282-3.5,12.5,12.5,0,0,1-.4-1.747A5.615,5.615,0,0,1,277.023,297.392Z" style="fill:#fff"/><path d="M203.3,300.88c-4.993.973-13,1.683-20.966-1.183a5.632,5.632,0,0,0-7.423,4.2h0a5.657,5.657,0,0,0,2.623,5.943,32.08,32.08,0,0,0,28.7,2.606,5.515,5.515,0,0,0,3.282-3.5,12.5,12.5,0,0,0,.4-1.747A5.615,5.615,0,0,0,203.3,300.88Z" style="fill:#fff"/><circle cx="158.171" cy="175.909" r="3.577" style="fill:#8b9ac9"/><path d="M94.928,144.527a3.5,3.5,0,0,1-2.506-5.943,137.954,137.954,0,0,1,24.389-19.246,3.5,3.5,0,0,1,5.229,2.2l2.343,10.15L148,125.272a3.5,3.5,0,0,1,1.836,6.755L122.708,139.4a3.5,3.5,0,0,1-4.328-2.591l-2.044-8.854a135.516,135.516,0,0,0-18.9,15.515A3.489,3.489,0,0,1,94.928,144.527Z" style="fill:#8b9ac9"/><path d="M141.083,176.968a3.537,3.537,0,0,1-.468-.031L122.43,174.51a3.5,3.5,0,0,1-2.987-4.065l1.549-8.955a135.523,135.523,0,0,0-23.439,6.975,3.5,3.5,0,0,1-2.725-6.448,138,138,0,0,1,29.943-8.286,3.5,3.5,0,0,1,3.966,4.058l-1.775,10.264L141.541,170a3.5,3.5,0,0,1-.458,6.97Z" style="fill:#8b9ac9"/><path d="M252.55,141.682a31.981,31.981,0,0,0-5.684-5.04,29.093,29.093,0,0,0-26.84-3.411,28.182,28.182,0,0,0-17.563,19.915,52.451,52.451,0,0,0-.731,19.041,3.5,3.5,0,0,0,3.47,3.063c.068,0,.138,0,.207-.006L226.719,174l32.538-1.9a3.5,3.5,0,0,0,3.3-3.5c0-.639-.125-15.732-9.937-26.834C252.591,141.744,252.575,141.71,252.55,141.682Zm-43.292,13.143A21.277,21.277,0,0,1,222.5,139.778a21.662,21.662,0,0,1,18.02,1.18c-8.048,1.561-13.9,6.264-16.555,13.633a28.858,28.858,0,0,0-1.483,12.645l-14.131.825A42.553,42.553,0,0,1,209.258,154.825Zm20.211,12a22.034,22.034,0,0,1,1.084-9.864c2.766-7.678,9.772-9.6,16.088-9.6.529,0,1.053.014,1.571.038,4.9,6.126,6.528,13.679,7.07,17.918Z" style="fill:#464965"/><path d="M151.061,300.746l-104.293-3.6a33.275,33.275,0,0,1-32.084-30.662C8.805,191,14.532,100.068,17.267,64.478a8.782,8.782,0,0,1,8.719-8.069H62.98A8.777,8.777,0,0,1,71.7,64.517l1.16,15.894a3.5,3.5,0,0,0,1.868,2.847l4.973,2.6A12.034,12.034,0,0,1,86.2,96.023c.643,17.5-4.524,25.316-7.662,28.414a18.975,18.975,0,0,0-5.659,12.985c-.808,26.789,2.032,58.534,3.8,75.073a16.99,16.99,0,0,0,15.346,15.1c51.486,4.565,114.333,2.109,115.858,1.557l.016,0,57.714-25.9-.13,8.749a15.909,15.909,0,0,0,9.3,14.707l27.787,12.691a39.81,39.81,0,0,1,23.031,32.345c2.717,28.5,2.252,59.644,2.246,59.955,0,.019,0,.037,0,.056h7c.017-1.21.435-32.209-2.279-60.675a46.826,46.826,0,0,0-27.09-38.048l-27.787-12.691a8.908,8.908,0,0,1-5.206-8.235l.3-20.058h17.364a3.5,3.5,0,0,0,3.5-3.352c1.952-46.227.895-102,.35-123.829a17.709,17.709,0,0,0-15.392-17.05C201.858,38.271,162.191,9.238,161.8,8.946a3.5,3.5,0,0,0-5.547,2.228c-3.623,21.7,3.827,35.839,9.32,42.951l-12.2,1.356a3.5,3.5,0,0,0-2.992,4.391c3.8,14.071,18.258,20.975,24.126,23.243.6,41.4,5.876,105.067,5.93,105.718a3.5,3.5,0,0,0,3.488,3.21h21.992l-2.671,30.528c-13.145.472-66.073,2-110.6-1.952a9.974,9.974,0,0,1-9-8.867c-1.746-16.361-4.556-47.746-3.762-74.119a12.013,12.013,0,0,1,3.581-8.215c4.832-4.771,10.443-14.483,9.74-33.652A19.053,19.053,0,0,0,82.947,79.655l-3.246-1.7L78.685,64.009a15.806,15.806,0,0,0-15.705-14.6H25.986a15.815,15.815,0,0,0-15.7,14.532c-2.748,35.752-8.5,127.111-2.583,203.09a40.27,40.27,0,0,0,38.822,37.115l100.913,3.479V331.75h7V304.244A3.5,3.5,0,0,0,151.061,300.746Zm114.66-105.223-55.254,24.794,2.473-28.274h52.833Zm-78.571-10.48c-1.1-13.761-5.311-68.618-5.676-104.451a3.508,3.508,0,0,0-2.5-3.317c-.163-.05-14.705-4.549-20.318-15.339l14.6-1.623a3.5,3.5,0,0,0,1.8-6.207c-.632-.513-14.486-12.06-12.589-36.274,12.892,8.131,51.139,28.954,115.252,36.927a10.665,10.665,0,0,1,9.258,10.278c.53,21.235,1.547,74.677-.211,120.006Z" style="fill:#464965"/></svg>