<?xml version="1.0" ?><svg id="icons" viewBox="0 0 340 340" xmlns="http://www.w3.org/2000/svg" xmlns:xlink="http://www.w3.org/1999/xlink"><defs><linearGradient gradientUnits="userSpaceOnUse" id="linear-gradient" x1="71.012" x2="286.583" y1="156.457" y2="231.153"><stop offset="0" stop-color="#f3f8ff"/><stop offset="1" stop-color="#c9d4e5"/></linearGradient><radialGradient cx="174.82" cy="149.451" gradientUnits="userSpaceOnUse" id="radial-gradient" r="183.387"><stop offset="0" stop-color="#f97d7d"/><stop offset="1" stop-color="#fcd0be"/></radialGradient><radialGradient cx="175.138" cy="151.926" id="radial-gradient-2" r="177.457" xlink:href="#radial-gradient"/></defs><title/><path d="M14.015,188.659l4.4-10.633L65.41,117.882,133.3,167.206s15.107-1.031,34.144-13.326a113.629,113.629,0,0,1,33.644-14.866c19.111-4.847,49.316-15.412,75.994-37.456l25.675,40.895a54.207,54.207,0,0,0-2.412,7.346c-1.105,7.023-7.55,24.9-35.6,38.712-18.941,9.325-34.955,22.258-45.894,32.086A56.064,56.064,0,0,0,202.2,250.855c-2.009,11.429-16.716,40.812-16.716,40.812a62.607,62.607,0,0,1-15.1,11.885s-45,23.578-70.181-39.575c-3.815-9.569-9.028-18.5-17.341-24.588Z" style="fill:url(#linear-gradient)"/><path d="M137.336,225.961l-40.3,39.525c12.183,39.447,39,55.614,73.349,38.066a62.563,62.563,0,0,0,14.811-11.59Z" style="fill:url(#radial-gradient)"/><path d="M324.755,112.271c14.85-17.809,0-26.109,0-26.109-20.684-9.975-40.307,8.915-40.307,8.915q-3.628,3.4-7.375,6.475l24.05,44.091s1.874-3.77,1.981-4.066q.633-1.754,1.346-3.4A64.8,64.8,0,0,1,324.755,112.271Z" style="fill:url(#radial-gradient-2)"/><path d="M303.1,141.577c-10.679,18.7-19.024,28.038-58.551,47.4-17.626,8.633-28.916,18.228-36.016,26.211a47.445,47.445,0,0,0-11.781,27.159,205.6,205.6,0,0,1-11.276,49.321c12.073-12.956,17-29.082,19.013-40.511A49.7,49.7,0,0,1,220.128,222.7c10.939-9.829,27.347-22.836,46.288-32.161,28.047-13.808,33.626-33.935,34.732-40.959A43.367,43.367,0,0,1,303.1,141.577Z" style="fill:#464965"/><circle cx="148.404" cy="28.428" r="3.5" style="fill:#8b9ac9"/><path d="M125.378,115.773a3.5,3.5,0,0,1-3.324-2.409L117.7,100.108a10.662,10.662,0,0,0-6.192-6.588l-3.413-1.363a17.638,17.638,0,0,1-8.647-7.378,88.748,88.748,0,0,1-9.427-24.007,3.5,3.5,0,0,1,6.851-1.439h0a83.066,83.066,0,0,0,8.61,21.9,10.606,10.606,0,0,0,5.207,4.424l3.414,1.363a17.651,17.651,0,0,1,10.247,10.905l4.357,13.256a3.5,3.5,0,0,1-3.326,4.594Z" style="fill:#8b9ac9"/><path d="M153.823,112.527c-.08,0-.16,0-.241-.007a3.5,3.5,0,0,1-3.254-3.731l.948-13.921a10.66,10.66,0,0,0-3.26-8.432l-2.65-2.546a17.644,17.644,0,0,1-5.238-10.09,88.762,88.762,0,0,1,.294-25.789,3.5,3.5,0,0,1,6.889,1.243h0a83.061,83.061,0,0,0-.257,23.528,10.612,10.612,0,0,0,3.161,6.059l2.651,2.546a17.644,17.644,0,0,1,5.393,13.957l-.948,13.922A3.5,3.5,0,0,1,153.823,112.527Z" style="fill:#8b9ac9"/><path d="M181.812,113.508A3.5,3.5,0,0,1,179,107.932L187.275,96.7a10.658,10.658,0,0,0,1.781-8.863l-.868-3.572a17.641,17.641,0,0,1,1-11.323,88.747,88.747,0,0,1,14.1-21.6,3.5,3.5,0,1,1,5.141,4.752,83,83,0,0,0-12.854,19.7,10.6,10.6,0,0,0-.589,6.808l.868,3.573a17.641,17.641,0,0,1-2.948,14.669l-8.278,11.232A3.492,3.492,0,0,1,181.812,113.508Z" style="fill:#8b9ac9"/><path d="M109.218,253.538a28.823,28.823,0,0,0-12-19.737l-78.8-55.775L8.638,190.541l71.755,52.5a47.118,47.118,0,0,1,16.642,22.442Z" style="fill:#464965"/><path d="M281.026,98.175q-1.962,1.728-3.953,3.377l24.05,44.091s1.874-3.77,1.981-4.066q.633-1.754,1.346-3.4c.475-1.1.975-2.17,1.492-3.205C301.87,128.894,285.576,104.605,281.026,98.175Z" style="fill:#c46262"/><path d="M97.035,265.486c4.282,13.863,10.377,24.836,17.966,32.5a78.023,78.023,0,0,1-3.907-20.153,32.208,32.208,0,0,1,11.38-26.667l14.011-11.884,41.2,59.447a62.73,62.73,0,0,0,7.513-6.763l-47.859-66Z" style="fill:#c46262"/><path d="M109.218,246.411,97.035,265.486s3.364,50.223,58.515,44.228l15.415-6.162s-34.8,7.607-51.382-19.482C106.651,262.948,109.218,246.411,109.218,246.411Z" style="fill:#464965"/><path d="M326.462,83.107c-.061-.035-.124-.067-.187-.1-22.614-10.909-43.381,8.7-44.219,9.513-27.058,25.33-59.436,37.418-81.832,43.1a116.984,116.984,0,0,0-34.683,15.319c-14.973,9.67-27.484,12.089-31.293,12.63L67.467,115.05a3.5,3.5,0,0,0-4.114,5.663l7.516,5.461L42.648,190.888,20.439,175.169a3.5,3.5,0,0,0-4.78.7L5.88,188.386a3.5,3.5,0,0,0,.691,4.979l71.755,52.5a43.873,43.873,0,0,1,16.057,22.771c1.157,3.89,2.381,7.911,3.639,11.95a49.45,49.45,0,0,0,9.319,17.208c6.177,7.354,17.746,17.277,35.2,17.276a57.611,57.611,0,0,0,22.9-5.17,69.053,69.053,0,0,0,6.394-3.169c.01-.006.018-.013.027-.019.08-.037.16-.07.238-.114a66.3,66.3,0,0,0,15.675-12.276h0c.086-.091.176-.178.261-.27l.015-.019c12.688-13.626,17.816-30.508,19.884-42.273a46.446,46.446,0,0,1,14.526-26.456c10.365-9.312,26.672-22.357,45.5-31.624,29.146-14.348,35.335-35.239,36.644-43.555a39.392,39.392,0,0,1,1.791-7.36c.389-1.077.815-2.157,1.269-3.209a62.489,62.489,0,0,1,19.066-24.4c6.685-8.245,8.994-14.4,7.851-20.574A17.676,17.676,0,0,0,326.462,83.107Zm-76.177,99.1-21.112-48.629c4.28-1.708,8.67-3.622,13.118-5.767l37.065,37.033C272.6,170.041,263.518,175.472,250.285,182.2Zm34.445-21.888-35.866-35.835a180.634,180.634,0,0,0,27.147-17.566L296.892,145.2A69.366,69.366,0,0,1,284.73,160.316Zm-82.785-17.91c6.242-1.583,13.24-3.655,20.677-6.343l21.392,49.274c-.337.166-.659.327-1,.494a131.963,131.963,0,0,0-27.067,17.32l-17.045-59.9C199.914,142.958,200.927,142.665,201.945,142.406Zm-90.77,104.31a32.339,32.339,0,0,0-8.995-13.424l15.686-29.84L132.8,225.506Zm-14.657-17.7L76.006,214.5l26.332-65.46,26.212,19.045Zm-19.85-98.63L96.5,144.8c0,.009-.01.016-.013.024l-26.356,65.52-21.65-15.323ZM112.7,293.294a42.454,42.454,0,0,1-7.995-14.788c-1.25-4.01-2.465-8-3.613-11.862a50.9,50.9,0,0,0-18.634-26.425L13.62,189.85l5.5-7.039L95.2,236.657a25.241,25.241,0,0,1,10.659,18.206,67.454,67.454,0,0,0,16.921,39.049c7.534,8.38,17.217,12.2,26.828,13.548C131.876,310.458,119.973,301.953,112.7,293.294Zm15.281-4.061a60.388,60.388,0,0,1-15.09-34.4l24-23.532,43.727,60.3a59.393,59.393,0,0,1-11.608,8.695C156.278,302.1,139.055,301.55,127.982,289.233Zm56.208-4.62-43.985-60.659-18.644-27.531,13.621-25.909c4.556-.625,17.99-3.252,34.157-13.694a113.164,113.164,0,0,1,22.9-11.41l17.928,63c-1.479,1.456-2.9,2.936-4.245,4.448a50.609,50.609,0,0,0-5.994,8.322L155.77,173.931a3.5,3.5,0,1,0-5.114,4.779l46.006,49.23a51.024,51.024,0,0,0-3.392,14.083A198.784,198.784,0,0,1,184.19,284.613ZM264.87,187.4c-19.541,9.621-36.389,23.09-47.081,32.7-8.725,7.838-12.815,4.361-6.637-2.585,8.659-9.737,20.414-18.28,34.94-25.4,25.755-12.615,38.6-21.159,47.33-30.6C289.147,169.656,280.874,179.522,264.87,187.4Zm57.479-77.712a68.556,68.556,0,0,0-21.113,27.1c-.142.329-.275.665-.412,1L281.519,102.4q2.706-2.318,5.356-4.8c.178-.172,18-17.022,36.233-8.345a10.541,10.541,0,0,1,4.591,6.6C328.429,99.8,326.629,104.452,322.349,109.689Z" style="fill:#464965"/></svg>