<?xml version="1.0" ?><svg id="icons" viewBox="0 0 340 340" xmlns="http://www.w3.org/2000/svg" xmlns:xlink="http://www.w3.org/1999/xlink"><defs><radialGradient cx="215.888" cy="112.882" gradientUnits="userSpaceOnUse" id="radial-gradient" r="163.057"><stop offset="0" stop-color="#f97d7d"/><stop offset="1" stop-color="#fcd0be"/></radialGradient><linearGradient gradientUnits="userSpaceOnUse" id="linear-gradient" x1="93.173" x2="242.616" y1="155.751" y2="155.751"><stop offset="0" stop-color="#f3f8ff"/><stop offset="1" stop-color="#c9d4e5"/></linearGradient></defs><title/><path d="M39.183,24.547s46.4,16.176,97.755,38.082L242.616,240.683c3.258,28.219,5.812,58.645,7.583,89.5H192.961s-9.6-54.094-41.573-99.834a82.887,82.887,0,0,1-14.863-38.676,77.531,77.531,0,0,1,.617-21.49L18.271,157.472S8.4,97.869,39.183,24.547Z" style="fill:url(#radial-gradient)"/><path d="M93.172,139.574h0c-33.217-6.254-64.554-10.6-76.347-12.163-.423,18.78,1.445,30.062,1.445,30.062l73.977,7.911A173.021,173.021,0,0,1,93.172,139.574Z" style="fill:#464965"/><path d="M174.994,250.659l-7.191,7.274a291.166,291.166,0,0,1,25.158,72.251h11.927c-.157-18-2.19-40.468-9.187-61.818a146.892,146.892,0,0,0-9.471-21.993C182.548,247.588,178.8,249,174.994,250.659Z" style="fill:#464965"/><path d="M242.616,240.683c-6.217-53.846-13.838-99.159-17.889-121.695A32.6,32.6,0,0,0,207.915,95.98c-21.945-11.663-47.009-23.133-70.977-33.351-29.868,25.147-40.522,54.944-43.765,76.944l47.187,28.846c-1.324,7.529-.982,16.3-.283,22.941,1.468,13.957,5.554,26.07,13.6,37.572,6.47,9.255,33.937,19.94,33.937,19.94C209.831,240.256,231.076,240.414,242.616,240.683Z" style="fill:url(#linear-gradient)"/><path d="M187.609,248.872a106.031,106.031,0,0,0-9.338-14.971c-37.415-49.828-20.386-79.227-20.386-79.227-18.754-5.73-42.166-10.855-64.712-15.1h0a173.021,173.021,0,0,0-.924,25.809l44.894,4.8a77.531,77.531,0,0,0-.617,21.49,82.887,82.887,0,0,0,14.863,38.676A228.878,228.878,0,0,1,167.8,257.933,106.661,106.661,0,0,1,187.609,248.872Z" style="fill:#464965"/><circle cx="311.617" cy="45.133" r="3.717" style="fill:#8b9ac9"/><path d="M231.053,72.743a3.5,3.5,0,0,1-2.521-5.927l10.275-10.678a11.543,11.543,0,0,0,3.166-9.26L241.554,43a18.527,18.527,0,0,1,2.6-11.647,93.988,93.988,0,0,1,17.8-20.727A3.5,3.5,0,0,1,266.428,16h0a88.451,88.451,0,0,0-16.317,19.019,11.487,11.487,0,0,0-1.6,7.225l.419,3.88a18.53,18.53,0,0,1-5.082,14.864L233.576,71.67A3.494,3.494,0,0,1,231.053,72.743Z" style="fill:#8b9ac9"/><path d="M248.688,97.262a3.5,3.5,0,0,1-1.554-6.638l13.283-6.569a11.536,11.536,0,0,0,6.115-7.64l.92-3.794a18.517,18.517,0,0,1,6.387-10.078,91.805,91.805,0,0,1,16.03-10.062,3.5,3.5,0,1,1,3.114,6.27,84.669,84.669,0,0,0-14.78,9.264,11.491,11.491,0,0,0-3.948,6.258l-.921,3.793a18.522,18.522,0,0,1-9.815,12.265L250.237,96.9A3.5,3.5,0,0,1,248.688,97.262Z" style="fill:#8b9ac9"/><path d="M275.465,121.922a18.763,18.763,0,0,1-3.027-.247l-14.622-2.4a3.5,3.5,0,0,1,1.135-6.908l14.623,2.4A11.53,11.53,0,0,0,283,112.121l2.958-2.545a18.5,18.5,0,0,1,11.064-4.471,94.09,94.09,0,0,1,27.167,2.9,3.5,3.5,0,0,1-1.891,6.74h0a88.636,88.636,0,0,0-24.919-2.649,11.492,11.492,0,0,0-6.855,2.785l-2.958,2.546A18.516,18.516,0,0,1,275.465,121.922Z" style="fill:#8b9ac9"/><path d="M208.367,328.445c-.335-22.3-3.621-51.853-15.89-77.616,18.058-6.251,34.966-6.977,46.687-6.836,3.1,27.251,5.825,56.6,7.529,86.191h6.992c0-.067.012-.132.008-.2-5.176-90.179-19.8-178.124-25.84-211.75a35.9,35.9,0,0,0-18.614-25.48c-68.291-36.3-167.906-71.164-168.9-71.511a3.5,3.5,0,1,0-2.3,6.609c.651.228,43.521,15.233,92.081,35.7-26.6,24.269-36.42,52.055-39.867,72.1-27.336-4.972-54.323-8.892-72.961-11.4a3.364,3.364,0,0,0-3.965,3.394c-.4,18.705,1.421,29.928,1.5,30.4a3.5,3.5,0,0,0,3.081,2.908l115.244,12.323a82.656,82.656,0,0,0-.1,18.765,86.67,86.67,0,0,0,15.474,40.314c29.138,41.681,39.65,91.581,40.882,97.829h18.966C208.367,329.89,208.372,328.754,208.367,328.445Zm29.986-91.462c-12.428-.1-30.139.82-49.1,7.558a108.091,108.091,0,0,0-7.737-12.122c2.486-3.458,19.635-25.672,52.295-31.142C235.354,212.572,236.888,224.533,238.353,236.983Zm-5.5-42.643a90.043,90.043,0,0,0-55.627,32.131,123.577,123.577,0,0,1-14.838-27.863c5.767-4.224,35.318-24.44,68.04-21.109Q231.632,185.594,232.857,194.34Zm-3.491-23.95c-32.077-2.542-60.035,14.754-69.212,21.193-5.432-19.965-.654-32.132.516-34.659,3.96-3.123,30.877-23,64.169-15.019C226.229,150.265,227.765,159.836,229.366,170.39Zm-16.34-66.2a28.88,28.88,0,0,1,7.938,15.281c.752,4.183,1.637,9.21,2.62,14.98-33.533-6.694-59.943,11.361-66.449,16.346-.393-.117-.784-.235-1.182-.352C161.841,141.547,183.244,112.073,213.026,104.191ZM181.2,86.455c8.54,4.108,16.862,8.285,24.757,12.481.039.021.076.045.115.065-32.136,11.139-53.3,43.227-57.17,49.453-4.6-1.251-9.419-2.472-14.4-3.66,2.031-10.15,11.24-43.485,46.293-58.12A3.347,3.347,0,0,0,181.2,86.455ZM137.249,66.587c11.854,5.073,23.935,10.439,35.73,15.966-34.056,16.857-43.164,49.471-45.334,60.651-9.83-2.225-20.135-4.322-30.492-6.272C101.856,109.276,115.333,85.624,137.249,66.587Zm58.594,260.1c-2.471-11.947-13.364-57.969-41.586-98.34a79.651,79.651,0,0,1-14.25-37.036,73.876,73.876,0,0,1,.583-20.517,3.5,3.5,0,0,0-3.076-4.087L21.377,154.285a190.647,190.647,0,0,1-1.109-22.563c34.759,4.75,93.818,13.817,132.849,25.183-3.512,9.946-8.585,37.893,22.355,79.1,20.2,26.9,25.259,63.791,25.859,90.681Z" style="fill:#464965"/></svg>