<?xml version="1.0" ?><svg id="icons" viewBox="0 0 340 340" xmlns="http://www.w3.org/2000/svg" xmlns:xlink="http://www.w3.org/1999/xlink"><defs><linearGradient gradientUnits="userSpaceOnUse" id="New_Gradient_Swatch_6" x1="221.598" x2="221.598" y1="37.458" y2="350.156"><stop offset="0" stop-color="#fcd0be"/><stop offset="1" stop-color="#efa69a"/></linearGradient><linearGradient id="New_Gradient_Swatch_6-2" x1="201.647" x2="201.647" xlink:href="#New_Gradient_Swatch_6" y1="33.581" y2="346.279"/><linearGradient id="New_Gradient_Swatch_6-3" x1="139.795" x2="139.795" xlink:href="#New_Gradient_Swatch_6" y1="227.407" y2="317.061"/></defs><title/><path d="M196.052,125.659V154.2s-31.64.93-40.291,31.235a139.048,139.048,0,0,1-4.484,13.529c-2.891,7.22-5.781,20.216,2.89,33.212L124.937,270.8a47.881,47.881,0,0,0-9.395,14.1c-10.289,23.1,6.8,49.124,32.087,49.124h138.4a44.639,44.639,0,0,0,43.173-56.01c-4.767-18.084-11.893-38.435-22.513-57.671a40.488,40.488,0,0,1-5.068-18.1c-.507-14.277-7.613-42.131-53.6-51.117l1.734-47Z" style="fill:url(#New_Gradient_Swatch_6)"/><path d="M196.052,154.2c19.571-.963,36.8-8.855,52.622-20.924l1.075-29.141-53.7,21.524Z" style="fill:#464965"/><path d="M160.937,7.1s17.186,17.716,68.247,18.8a17.977,17.977,0,0,1,17.262,14.884,251.7,251.7,0,0,1,3,67.907,19.158,19.158,0,0,1-17.659,17.256L185.777,129.4a29,29,0,0,1-30.444-35.436,72.6,72.6,0,0,1,11.918-26.049l-1.891-18.54s-11.532-3.317-12.585-15.849l12.585.737S152.091,24.9,160.937,7.1Z" style="fill:url(#New_Gradient_Swatch_6-2)"/><path d="M132.076,231.06c6.166-1.981,15.74-3.753,25.3-.353a6.807,6.807,0,0,1,3.983,8.992l-2.608,6.321a32.193,32.193,0,0,1,11.862,9.832L159.7,279.146a13.624,13.624,0,0,1-16.4,7.221c-8.05-2.512-18.809-6.577-27.221-12.314a15.97,15.97,0,0,1-6.461-17.642c1.479-5.033,4.555-11.321,10.79-17.92A27.815,27.815,0,0,1,132.076,231.06Z" style="fill:url(#New_Gradient_Swatch_6-3)"/><path d="M134.1,137.472c-23.941-30.8-60.723-29.038-60.723-29.038s-36.782-1.763-60.723,29.038a16.087,16.087,0,0,0-2.171,15.893l16.565,40.984H119.7l16.565-40.984A16.085,16.085,0,0,0,134.1,137.472Z" style="fill:#fff"/><circle cx="73.373" cy="168.208" r="10.128" style="fill:#464965"/><rect height="7" rx="3.5" style="fill:#cc6262" width="12.473" x="182.167" y="64.648"/><rect height="7" rx="3.5" style="fill:#cc6262" width="12.473" x="208.653" y="64.648"/><path d="M217.892,90.133a3.5,3.5,0,0,0-4.8-1.2,17.13,17.13,0,0,0-5.821,5.608c-9.769-2.976-19.926-1.027-20.392-.934a3.5,3.5,0,1,0,1.362,6.866c.094-.019,8.665-1.668,16.656.66a17.014,17.014,0,0,0,.4,6.882,3.5,3.5,0,1,0,6.713-1.984,9.816,9.816,0,0,1,4.679-11.094A3.5,3.5,0,0,0,217.892,90.133Z" style="fill:#cc6262"/><path d="M27.043,197.849H119.7a3.5,3.5,0,0,0,3.245-2.188l16.565-40.985a19.634,19.634,0,0,0-2.653-19.352C112.667,104.2,76.514,104.81,73.374,104.932c-3.151-.118-39.294-.733-63.488,30.392a19.639,19.639,0,0,0-2.653,19.352L23.8,195.661A3.5,3.5,0,0,0,27.043,197.849ZM15.414,139.62c22.484-28.928,57.443-27.708,57.792-27.689.108.005.221.005.33,0,.356-.009,35.311-1.24,57.8,27.689a12.611,12.611,0,0,1,1.69,12.433l-15.681,38.8H29.4l-15.681-38.8A12.612,12.612,0,0,1,15.414,139.62Z" style="fill:#464965"/><path d="M73.374,156.03a12.222,12.222,0,1,0,8.261,3.257l11.1-21.511a50.973,50.973,0,0,1,20.7,14.019,3.5,3.5,0,1,0,5.236-4.645,57.77,57.77,0,0,0-22.7-15.641l1.686-3.268a3.5,3.5,0,0,0-6.221-3.21L75.348,156.205A12.124,12.124,0,0,0,73.374,156.03Zm0,17.355a5.178,5.178,0,1,1,5.176-5.177A5.183,5.183,0,0,1,73.374,173.385Z" style="fill:#464965"/><path d="M33.355,151.752c16.3-18.338,39.632-17.539,39.851-17.527.109,0,.224,0,.33,0,.056,0,.483-.019,1.219,0a3.5,3.5,0,0,0,.125-7c-.743-.012-1.254,0-1.5.006-2.468-.083-27.23-.4-45.254,19.875a3.5,3.5,0,1,0,5.232,4.65Z" style="fill:#464965"/><path d="M254.1,286.127a46.937,46.937,0,0,0-4.737,1.049,39.946,39.946,0,0,1-5.306.337c-3.907,0-6.856-1.881-9.014-5.75a17.3,17.3,0,0,0-15.1-8.919A10.952,10.952,0,0,0,209,283.784v3.729H197.048a15.775,15.775,0,0,0-15.757,15.757v30.755a3.5,3.5,0,0,0,3.5,3.5H286.025a48.14,48.14,0,0,0,46.558-60.4c-5.728-21.729-13.411-41.4-22.834-58.471a37.1,37.1,0,0,1-4.633-16.529,51.286,51.286,0,0,0-10.469-29.551c-9.091-11.824-23.557-19.981-43.025-24.267l1.624-44.014a253.364,253.364,0,0,0-3.354-65.247,21.529,21.529,0,0,0-20.634-17.771c-48.55-1.028-65.6-17.528-65.823-17.751a3.5,3.5,0,0,0-5.633.9c-5.2,10.472-3.64,18.993-.416,24.747l-4.406-.258a3.5,3.5,0,0,0-3.692,3.787,21.387,21.387,0,0,0,12.806,18.03l1.543,15.12a76.012,76.012,0,0,0-11.713,26.2,32.5,32.5,0,0,0,31.6,39.812q1.251,0,2.517-.094l6.513-.49v19.778c-8.89,1.282-32.656,7.146-40.156,33.421a138.04,138.04,0,0,1-4.368,13.19c-2.275,5.68-5.078,16.2-1.16,27.64a48.7,48.7,0,0,0-15.862,2.423h0a31.416,31.416,0,0,0-13.149,8.36,48.111,48.111,0,0,0-11.605,19.337,19.416,19.416,0,0,0,7.848,21.521c.4.273.812.539,1.223.805a55.153,55.153,0,0,0-2.978,5.727,38.509,38.509,0,0,0,35.284,54.048h21.492a3.5,3.5,0,0,0,0-7H147.629a31.511,31.511,0,0,1-26.518-14.414,31.2,31.2,0,0,1-2.371-29.786,47.906,47.906,0,0,1,2.631-5.054,128.577,128.577,0,0,0,20.879,8.437,16.962,16.962,0,0,0,5.063.772,17.2,17.2,0,0,0,15.552-9.849l10.914-23.294a3.5,3.5,0,0,0-.339-3.543,36.019,36.019,0,0,0-10.255-9.352l1.41-3.418a10.294,10.294,0,0,0,.744-3.489,34.54,34.54,0,0,0,7.823.923,30.092,30.092,0,0,0,14.87-3.862,3.5,3.5,0,0,0-3.42-6.108c-11.469,6.421-22.92.535-23.87.024a10.308,10.308,0,0,0-2.2-1.1,35.6,35.6,0,0,0-3.688-1.086c-4.839-10.014-2.9-19.648-.332-26.059a144.147,144.147,0,0,0,4.6-13.87c7.823-27.4,35.847-28.657,37.029-28.7l.01,0c22.315,0,48.594-18.1,48.777-18.221L244.517,151a3.5,3.5,0,0,0,2.827,3.564c43,8.4,50.269,33.558,50.776,47.806a44.129,44.129,0,0,0,5.5,19.663c9.145,16.566,16.612,35.7,22.192,56.873a41.137,41.137,0,0,1-39.788,51.617H188.291v-7.333h18.167a3.5,3.5,0,0,0,0-7H188.291v-5.619h18.167a3.5,3.5,0,0,0,0-7H188.291v-.3a8.766,8.766,0,0,1,8.757-8.757H212.5a3.5,3.5,0,0,0,3.5-3.5v-7.229a3.956,3.956,0,0,1,3.991-3.94,10.277,10.277,0,0,1,8.931,5.328c3.409,6.111,8.64,9.341,15.128,9.341a40.321,40.321,0,0,0,11.719-1.582c5.893-.938,14.375-1.064,18.39,3.636a3.59,3.59,0,0,0,4.934.388,3.45,3.45,0,0,0,.388-4.934c-3.2-3.749-7.668-5.521-12.193-6.22a24.12,24.12,0,0,0,2.225-2.882c11.323-17.225.457-48-2.762-56.176a45.492,45.492,0,0,0,6.828-13.035,3.5,3.5,0,0,0-6.618-2.284c-3.232,9.363-8.5,15.746-15.658,18.972-12.924,5.823-28.119-.286-28.364-.385a3.5,3.5,0,0,0-2.69,6.462,52.255,52.255,0,0,0,18.392,3.453,37.713,37.713,0,0,0,15.486-3.124,32.136,32.136,0,0,0,7.229-4.48c3.642,10.167,10.7,33.984,2.308,46.752A17.353,17.353,0,0,1,254.1,286.127Zm-87.571-29.8-2.125,4.534a69.874,69.874,0,0,0-17.433-7.331,3.5,3.5,0,0,0-1.7,6.79,63.175,63.175,0,0,1,16.141,6.927l-2.678,5.716a75.4,75.4,0,0,0-18.038-7.69,3.5,3.5,0,0,0-1.793,6.767,68.516,68.516,0,0,1,16.693,7.219,10.181,10.181,0,0,1-11.255,3.77c-7.48-2.334-18.114-6.287-26.293-11.864a12.435,12.435,0,0,1-5.074-13.764,41.212,41.212,0,0,1,9.976-16.5,24.39,24.39,0,0,1,10.2-6.5h0c5.787-1.86,14.485-3.435,23.054-.387a3.22,3.22,0,0,1,1.873,1.741,3.31,3.31,0,0,1,.047,2.618l-1.228,2.976a43.852,43.852,0,0,0-9.337-2.59,3.5,3.5,0,0,0-.955,6.935,37.447,37.447,0,0,1,10.545,3.447c.03.015.063.02.093.035s.072.045.111.062A29.115,29.115,0,0,1,166.524,256.324Zm18.991-131.54a25.5,25.5,0,0,1-26.772-31.156,69.3,69.3,0,0,1,11.353-24.8,3.5,3.5,0,0,0,.637-2.394l-1.892-18.54a3.5,3.5,0,0,0-2.513-3.008,15.175,15.175,0,0,1-9.176-8.723l8,.469a3.5,3.5,0,0,0,2.242-6.34c-.4-.289-8.774-6.569-4.99-18.663,7.765,5.421,27.647,15.815,66.7,16.642a14.51,14.51,0,0,1,13.89,12,245.7,245.7,0,0,1,2.967,66.964,15.609,15.609,0,0,1-14.436,14.1Zm55.136,9.123c-14.4,9.1-25.08,15.841-41.1,16.7V130.75l32.5-2.441a22.661,22.661,0,0,0,13.513-5.78l-.313,8.481Q242.9,132.483,240.651,133.907Z" style="fill:#464965"/></svg>