<?xml version="1.0" ?><svg id="icons" viewBox="0 0 340 340" xmlns="http://www.w3.org/2000/svg" xmlns:xlink="http://www.w3.org/1999/xlink"><defs><linearGradient gradientUnits="userSpaceOnUse" id="linear-gradient" x1="98.214" x2="98.214" y1="60.969" y2="347.822"><stop offset="0" stop-color="#ff6185"/><stop offset="1" stop-color="#e2407a"/></linearGradient><linearGradient id="linear-gradient-2" x1="127.454" x2="127.454" xlink:href="#linear-gradient" y1="60.969" y2="347.822"/></defs><title/><path d="M71.357,45.284s36.336-6.965,82.954,0l-8.857,43.95a47.712,47.712,0,0,0-32.62-12.64,51.856,51.856,0,0,0-33.623,12.64S70.76,62.9,71.357,45.284Z" style="fill:#464965"/><path d="M177.858,78.989s-11.542-24.471-23.547-33.705c0,0-25.393,119.12-135.74,225.773a130.331,130.331,0,0,0,28.945,3.9s3.829,7.626,7.067,22.876C54.583,297.836,153.85,199.031,177.858,78.989Z" style="fill:url(#linear-gradient)"/><path d="M103.089,239.237c6.874-9.557,14-20.084,21.044-31.43L97.758,173.33q-7.666,12.232-16.646,24.931A342.053,342.053,0,0,0,103.089,239.237Z" style="fill:#464965"/><path d="M47.81,78.989S59.353,54.518,71.357,45.284c0,0,25.394,119.12,135.741,225.773a130.344,130.344,0,0,1-28.945,3.9s-3.83,7.626-7.068,22.876C171.085,297.836,71.819,199.031,47.81,78.989Z" style="fill:url(#linear-gradient-2)"/><path d="M313.235,108.3a10.341,10.341,0,0,0-9.108,9.011,10.208,10.208,0,0,0,.45,4.434,12.662,12.662,0,0,1,.523,6.125c-1.383,8.191-12.145,10.807-16.257,10.807a32.681,32.681,0,0,1-8.586-1.17,4,4,0,0,1,2.292-7.665c2.546.748,9.942,1.971,13.615-1.291l.022-.019a2.61,2.61,0,0,0,.069-3.9c-1.172-1.113-2.412-2.21-3.716-3.278a14.685,14.685,0,0,1-4.742-7.31,52.134,52.134,0,0,1-2.016-9.127,2.9,2.9,0,0,0-5.042-1.786,41.712,41.712,0,0,1-4.862,4.01c-5.777,4.763-20.9,7.421-28.288-5.1-2.852-4.831-2.367-12.042-2.367-12.393a11.707,11.707,0,1,0-18.65,9.416,16.418,16.418,0,0,1,6.436,9.047c1.182,4.72.451,11.1-7.2,17.722-5.966,5.167-11.3,1.074-16.375,12.105-2.642,5.737.637,12.8-.922,20.148-.564,2.661,2.591,4.7,5.192,3.9a17.944,17.944,0,0,0,10.08-7.782,4.158,4.158,0,0,1,5.246-1.668,4,4,0,0,1,1.655,5.724,25.836,25.836,0,0,1-12.979,10.772,9.73,9.73,0,0,0-5.875,11.924l.044.139a9.281,9.281,0,0,1-2.746,9.937c-5.394,4.53-14.089,3.81-15.635,4.384a10.4,10.4,0,0,0-6.962,9.932,10.285,10.285,0,0,0,19.975,3.183,17.259,17.259,0,0,1,3.747-6.3,11.278,11.278,0,0,1,5.061-3.458c7.882-2.124,17.746-.514,21.356,12.44.588,2.11,1.62,4.3,2.123,6.851a4.051,4.051,0,0,0,3,3.238,3.921,3.921,0,0,0,4.744-3.158c.369-2.239,1.675-5.277,2.469-9.049,1.5-7.146,7.255-14.082,16.987-17.419a4.148,4.148,0,0,1,4.942,1.683,4,4,0,0,1-1.958,5.731,29.435,29.435,0,0,0-7.339,4.215c-4.177,3.311-.353,9.927,4.542,7.816a35.876,35.876,0,0,1,21.585-2.737c5.441.931,6.81,5.762,6.331,12a15.135,15.135,0,0,0-.019,5.038,10.283,10.283,0,0,0,20.261-2.489c0-4.79-2.144-9.219-8.2-10.056a8.809,8.809,0,0,1-7.391-6.8l-.022-.1a7.752,7.752,0,0,1,.344-4.315c3.154-8.51,12.076-10.317,17.759-10.609a3.087,3.087,0,0,0,2.052-5.229q-.48-.487-.954-1.01a16.875,16.875,0,0,1-4.218-13.618,68.519,68.519,0,0,0,.617-10.581,42.93,42.93,0,0,0-2.09-12.477h0a45.745,45.745,0,0,1-.559-11.17,11.128,11.128,0,0,1,6.809-9.039,10.281,10.281,0,0,0-5.256-19.629ZM239.6,142.074a7.988,7.988,0,1,1,7.988,7.987A7.988,7.988,0,0,1,239.6,142.074Zm9,39.312a7.988,7.988,0,1,1,7.987-7.988A7.988,7.988,0,0,1,248.6,181.386Zm20.326-28.2a4.557,4.557,0,1,1,4.557,4.557A4.556,4.556,0,0,1,268.926,153.188Zm9.6,29.344a3.5,3.5,0,1,1,2.983-3.95A3.5,3.5,0,0,1,278.523,182.532Zm16.053-11.251a7.988,7.988,0,1,1,7.988-7.988A7.987,7.987,0,0,1,294.576,171.281Z" style="fill:#464965"/><path d="M16.444,268.541a3.5,3.5,0,0,0,1.5,5.888,132.127,132.127,0,0,0,27.574,3.963,117.778,117.778,0,0,1,5.952,20.171,3.5,3.5,0,0,0,5.894,1.753c.252-.25,47.916-54.984,55.782-68.845.924,1.345,1.843,2.671,2.75,3.966,27.675,39.5,52.781,64.63,53.031,64.879a3.5,3.5,0,0,0,5.893-1.753,117.846,117.846,0,0,1,5.952-20.171,132.144,132.144,0,0,0,27.575-3.963,3.5,3.5,0,0,0,1.495-5.888,516.911,516.911,0,0,1-68.844-82.095c20.06-36.472,33.726-72.387,40.6-106.771a3.5,3.5,0,0,0-.266-2.179c-.486-1.031-12.048-25.347-24.579-34.986a4.57,4.57,0,0,0-1.617-.687c-46.67-6.975-82.622-.265-84.13.024a3.715,3.715,0,0,0-1.475.663C57,52.149,45.437,76.465,44.951,77.5a3.5,3.5,0,0,0-.267,2.179c7.813,39.064,23.643,75.809,40.655,106.788A517.166,517.166,0,0,1,16.444,268.541ZM174.5,79.456c-6.6,32.322-19.352,66.069-37.887,100.4-7.35-11.232-13.813-22.043-19.462-32.212,24.616-45.213,35.777-82.024,39.442-95.8C164.94,60.708,172.519,75.455,174.5,79.456Zm-73.073,37.455C96.313,105.981,92.1,95.9,88.639,86.936a48.176,48.176,0,0,1,24.5-6.842,44.93,44.93,0,0,1,24.376,7.13,485.524,485.524,0,0,1-24.366,53.084C108.689,131.958,104.793,124.11,101.426,116.911Zm48.882-68.7c-1.4,5.481-4.578,16.858-10.274,32.34a51.851,51.851,0,0,0-26.894-7.456,55.027,55.027,0,0,0-27,7.2C80.485,64.882,77.335,53.56,75.953,48.14A279.584,279.584,0,0,1,150.308,48.21ZM69.67,51.861C72.5,62.6,79.86,87.289,94.983,119.657a526.235,526.235,0,0,0,105.378,149.4,131.766,131.766,0,0,1-21.976,2.4,3.5,3.5,0,0,0-3.053,1.928c-.141.28-3,6.053-5.885,17.368a554.061,554.061,0,0,1-47.823-59.337C96.594,195.693,64.24,140.414,51.782,79.456,53.76,75.458,61.329,60.729,69.67,51.861Zm39.25,173.381q-2.677,3.933-5.332,7.7a345.18,345.18,0,0,1-18.147-34.3q1.876-2.664,3.72-5.351C95.779,204.9,102.494,215.619,108.92,225.242ZM80.771,205.166a338.061,338.061,0,0,0,18.4,33.939,549.561,549.561,0,0,1-42.34,51.651c-2.882-11.315-5.743-17.087-5.884-17.367a3.5,3.5,0,0,0-3.053-1.928,131.965,131.965,0,0,1-21.973-2.4A524.422,524.422,0,0,0,80.771,205.166Z" style="fill:#464965"/></svg>