<?xml version="1.0" ?><svg id="icons" viewBox="0 0 340 340" xmlns="http://www.w3.org/2000/svg" xmlns:xlink="http://www.w3.org/1999/xlink"><defs><linearGradient gradientUnits="userSpaceOnUse" id="New_Gradient_Swatch_6" x1="139.876" x2="139.876" y1="78.823" y2="353.66"><stop offset="0" stop-color="#fcd0be"/><stop offset="1" stop-color="#efa69a"/></linearGradient><radialGradient cx="223.227" cy="238.884" gradientUnits="userSpaceOnUse" id="radial-gradient" r="110.751"><stop offset="0" stop-color="#f97d7d"/><stop offset="1" stop-color="#fcd0be"/></radialGradient><linearGradient gradientUnits="userSpaceOnUse" id="linear-gradient" x1="126.508" x2="244.858" y1="262.738" y2="219.389"><stop offset="0" stop-color="#f3f8ff"/><stop offset="1" stop-color="#c9d4e5"/></linearGradient></defs><title/><path d="M109.146,40.548c18.581-3.912,52.023-12.716,74.35-28.8,0,0,10.607,21.778-10.607,39.81h13.259s1.061,12.729-9.016,19.093l-2.942,73.353H95.457s-3.364-45.953-1.106-86.225A18.676,18.676,0,0,1,109.146,40.548Z" style="fill:url(#New_Gradient_Swatch_6)"/><path d="M116.53,144.006v32.835L78.442,198.422a23.87,23.87,0,0,0-9.881,13.137A782.006,782.006,0,0,0,43.174,331.75H239.848s-2.55-21.507-7.688-49.226L182.753,182.069,159.581,171.75V144.006Z" style="fill:url(#radial-gradient)"/><polygon points="95.024 306.009 84.544 306.542 81.771 331.75 95.024 331.75 95.024 306.009" style="fill:#cc6262"/><path d="M232.159,282.524s-53.183,42.623-141.382,32.757V302.724Z" style="fill:#cc6262"/><path d="M211.579,202.7a23.914,23.914,0,0,0-12.657-13.427l-16.169-7.2c-8.995,13.748-36.456,48.309-91.1,59.854L89.7,259.7l5.353,47.549c24.68,1.144,87.977,1.093,137.109-24.722C227.468,257.213,220.619,226.726,211.579,202.7Z" style="fill:url(#linear-gradient)"/><polygon points="159.581 144.006 116.53 144.006 116.53 176.841 159.581 155.608 159.581 144.006" style="fill:#464965"/><circle cx="285.193" cy="126.1" r="3.717" style="fill:#8b9ac9"/><path d="M203.517,157.029a3.5,3.5,0,0,1-2.764-5.644l9.078-11.712a11.538,11.538,0,0,0,2.162-9.544l-.83-3.815a18.521,18.521,0,0,1,1.339-11.856,93.993,93.993,0,0,1,15.491-22.507,3.5,3.5,0,1,1,5.023,4.875,88.448,88.448,0,0,0-14.2,20.647,11.478,11.478,0,0,0-.817,7.354l.829,3.814a18.524,18.524,0,0,1-3.467,15.321l-9.079,11.712A3.5,3.5,0,0,1,203.517,157.029Z" style="fill:#8b9ac9"/><path d="M225.59,176.1a3.5,3.5,0,0,1-1.554-6.638L237.32,162.9a11.538,11.538,0,0,0,6.114-7.64l.921-3.793a18.514,18.514,0,0,1,6.386-10.079,91.855,91.855,0,0,1,16.031-10.062,3.5,3.5,0,0,1,3.113,6.27,84.729,84.729,0,0,0-14.78,9.264,11.483,11.483,0,0,0-3.947,6.258l-.921,3.794a18.528,18.528,0,0,1-9.815,12.264l-13.283,6.568A3.5,3.5,0,0,1,225.59,176.1Z" style="fill:#8b9ac9"/><path d="M256.93,206.607a18.754,18.754,0,0,1-3.027-.247l-14.623-2.4a3.5,3.5,0,1,1,1.134-6.908l14.623,2.4a11.534,11.534,0,0,0,9.421-2.646l2.959-2.546a18.508,18.508,0,0,1,11.064-4.47,92.033,92.033,0,0,1,18.89,1.164,3.5,3.5,0,1,1-1.123,6.91,84.9,84.9,0,0,0-17.41-1.084,11.478,11.478,0,0,0-6.854,2.785l-2.959,2.547A18.521,18.521,0,0,1,256.93,206.607Z" style="fill:#8b9ac9"/><path d="M141.54,124.267a14.1,14.1,0,0,1-6.936-1.816l-.353-.2a7.086,7.086,0,0,0-5.925-.488l-5.677,2.076a3.5,3.5,0,0,1-2.4-6.575l5.678-2.075a14.072,14.072,0,0,1,11.775.969l.352.2a7.122,7.122,0,0,0,7.035-.031,14.025,14.025,0,0,1,12.239-.895l2.27.9a3.5,3.5,0,0,1-2.58,6.508l-2.27-.9a7.064,7.064,0,0,0-6.161.449A14.093,14.093,0,0,1,141.54,124.267Z" style="fill:#cc6262"/><path d="M95.05,307.245c-.091-16.014-1.052-31.084-2.486-45.636A2.206,2.206,0,0,0,89.7,259.7l-5.153,46.845S88.4,306.937,95.05,307.245Z" style="fill:#78859e"/><path d="M243.323,331.338c-.094-.791-9.6-79.713-28.468-129.873a27.594,27.594,0,0,0-14.509-15.393l-37.265-16.595v-21.97H174.19a3.5,3.5,0,0,0,3.5-3.36l2.873-71.614c10.082-7.639,9.124-20.686,9.076-21.264a3.5,3.5,0,0,0-3.488-3.209h-4.922c14.714-18.133,5.522-37.626,5.417-37.842a3.5,3.5,0,0,0-5.192-1.308c-21.914,15.783-55.159,24.451-73.026,28.213A22.21,22.21,0,0,0,90.857,57.585c-2.246,40.034,1.075,86.216,1.109,86.677a3.5,3.5,0,0,0,3.491,3.245H113.03V174.8L76.716,195.377c-.06.034-.119.07-.178.107A27.406,27.406,0,0,0,65.21,210.55,788.809,788.809,0,0,0,39.7,331.3a3.6,3.6,0,0,0-.013.452h7.015A781.539,781.539,0,0,1,71.912,212.57a20.4,20.4,0,0,1,8.349-11.156l37.908-21.48,37.912-18.7V171.75a3.5,3.5,0,0,0,2.077,3.2l19.335,8.611c-10.449,14.661-37.126,44.5-86.565,54.94a3.5,3.5,0,0,0-2.755,3.042l-9.881,89.827a3.5,3.5,0,0,0,0,.383h7l2.357-21.426c4.466.342,12.879.844,23.909.844,29.477,0,77.5-3.6,117.979-23.4,4.164,23.156,6.43,41.1,6.784,43.986h7.013A4.041,4.041,0,0,0,243.323,331.338ZM156.081,153.432l-36.051,17.78v-23.7h36.051ZM98.733,140.507c-.7-11.155-2.765-49.05-.887-82.531a15.2,15.2,0,0,1,12.021-14c17.408-3.665,49.038-11.887,71.838-26.754,1.686,6.5,2.8,19.872-11.083,31.675a3.5,3.5,0,0,0,2.267,6.167h9.661c-.4,3.565-1.913,9.24-7.287,12.634a3.5,3.5,0,0,0-1.628,2.818l-2.807,70Zm109.644,63.622c2.13,5.679,4.138,11.736,6.027,18.008-18.129,16.579-41.424,27.112-62.728,33.774A149.069,149.069,0,0,0,208.377,204.129ZM94.856,244.8c51.493-11.694,78.916-43.6,89.157-58.342l13.485,6.006a20.42,20.42,0,0,1,6.8,4.954c-20.63,34.209-50.764,51.449-72.523,59.892a162.792,162.792,0,0,1-39.387,9.926ZM91.6,274.372c.685-.066,1.484-.151,2.38-.257,5.509-.3,76.826-4.932,122.578-44.534,1.747,6.25,3.379,12.644,4.895,19.037C172.506,283.645,102.2,286.655,90.224,286.91Zm-3.187,28.971,1.035-9.412c9.833-.084,81.363-1.961,133.7-37.953,1.891,8.431,3.579,16.755,5.064,24.633C174.862,307.516,104.781,304.491,88.417,303.343Z" style="fill:#464965"/></svg>