<?xml version="1.0" ?><svg id="icons" viewBox="0 0 340 340" xmlns="http://www.w3.org/2000/svg" xmlns:xlink="http://www.w3.org/1999/xlink"><defs><linearGradient gradientUnits="userSpaceOnUse" id="linear-gradient" x1="214.421" x2="287.368" y1="123.687" y2="4.875"><stop offset="0" stop-color="#e7effc"/><stop offset="1" stop-color="#c9d4e5"/></linearGradient><linearGradient id="linear-gradient-2" x1="203.857" x2="380.328" xlink:href="#linear-gradient" y1="137.135" y2="114.421"/><linearGradient gradientUnits="userSpaceOnUse" id="linear-gradient-3" x1="185.542" x2="313.976" y1="125.024" y2="314.768"><stop offset="0" stop-color="#7e82a3"/><stop offset="1" stop-color="#55586a"/></linearGradient><linearGradient id="linear-gradient-4" x1="162.701" x2="291.136" xlink:href="#linear-gradient-3" y1="140.484" y2="330.229"/><linearGradient id="linear-gradient-5" x1="174.689" x2="303.123" xlink:href="#linear-gradient-3" y1="132.37" y2="322.115"/><linearGradient gradientUnits="userSpaceOnUse" id="linear-gradient-6" x1="52.631" x2="52.631" y1="143.033" y2="316.854"><stop offset="0" stop-color="#ff6185"/><stop offset="1" stop-color="#e2407a"/></linearGradient></defs><title/><path d="M191.19,147.909s4.439-55.132,46.532-101.53c9.661-10.649,25.325-11.895,34.25-2.755h0c7.417,7.6,7.827,20.088.976,29.844a338.354,338.354,0,0,1-67.678,70.826Z" style="fill:url(#linear-gradient)"/><path d="M198.8,143.654s39.81-36.04,100.442-40.859c13.916-1.106,25.824,8.432,26.056,20.832h0c.193,10.308-7.825,19.414-19.16,21.758a328.55,328.55,0,0,1-94.975,5.077Z" style="fill:url(#linear-gradient-2)"/><path d="M211.831,171.934a106.641,106.641,0,0,0,.652,22.152c3.53,5.391,4.685,10.575,2.942,15.506a109.878,109.878,0,0,0,5.868,16.951c5.26,3.779,8.121,9.637,9.48,16.8A92.182,92.182,0,0,0,243.084,257.5c7,3.011,12.147,6.616,14.451,11.136a110.4,110.4,0,0,0,20.679,10.107,10.952,10.952,0,0,0,14.6-11.641c-.68-5.516-1.718-12.115-3.3-19.3-3.563-4.757-5.569-10.067-4.417-16.5a154.434,154.434,0,0,0-7.314-18.77c-6.253-2.653-9.33-7.976-9.063-16.11a97.614,97.614,0,0,0-12.766-15.456c-6.373-.693-10.927-4.824-14.274-11.235a82,82,0,0,0-23.649-9.931Z" style="fill:url(#linear-gradient-3)"/><circle cx="159.133" cy="135.212" r="17.236" style="fill:url(#linear-gradient-4)"/><path d="M170.725,146.581a32.8,32.8,0,0,0-2.368,7.288,23.216,23.216,0,0,0,.973,12.784c2.924,7.744,10.715,19.6,30.824,17.75a18.69,18.69,0,0,0,15.635-11.209q.174-.414.339-.847a29.234,29.234,0,0,0-11.635-35.3q-.225-.141-.454-.281C192.174,129.539,176.546,133.964,170.725,146.581Z" style="fill:url(#linear-gradient-5)"/><path d="M255.949,180.966a83.4,83.4,0,0,0-14.27-11.237,32.009,32.009,0,0,1-10.52,16.688,35.832,35.832,0,0,1-18.673,7.669,121.831,121.831,0,0,0,2.944,15.5c6.125.118,15.747-.881,24.512-6.862C248.8,196.685,253.534,187.555,255.949,180.966Z" style="fill:#fff"/><path d="M268.715,196.421a52.615,52.615,0,0,1-47.417,30.12,97.769,97.769,0,0,0,9.481,16.794,64.539,64.539,0,0,0,26.476-9.091,57.364,57.364,0,0,0,20.524-21.714A122.234,122.234,0,0,0,268.715,196.421Z" style="fill:#fff"/><path d="M289.512,247.8c-1.157-5.249-2.6-10.811-4.417-16.5a49.237,49.237,0,0,1-42,26.192,95.493,95.493,0,0,0,14.45,11.133,56.391,56.391,0,0,0,31.97-20.826Z" style="fill:#fff"/><path d="M81.62,200.507a457.332,457.332,0,0,1-23.466-68.529,5.7,5.7,0,0,0-11.045,0,457.446,457.446,0,0,1-23.466,68.529s-16.278,35.232-4.906,56.638c.115.216.23.429.347.64,14.569,26.387,52.525,26.387,67.1,0q.175-.317.346-.64C97.9,235.739,81.62,200.507,81.62,200.507Z" style="fill:url(#linear-gradient-6)"/><ellipse cx="37.265" cy="238.719" rx="10.249" ry="12.811" style="fill:#fff" transform="translate(-82.764 29.032) rotate(-20.915)"/><path d="M320.831,106.472a29.11,29.11,0,0,0-21.865-7.165c-43.8,3.48-76.744,22.677-93.166,34.438a27.274,27.274,0,0,0-7.985-3.243c4.557-19.173,15.8-52.339,42.5-81.772a22.884,22.884,0,0,1,16.328-7.722,17.278,17.278,0,0,1,12.825,5.061c6.215,6.367,6.474,17.045.616,25.388a315.147,315.147,0,0,1-21.12,26.76,3.5,3.5,0,1,0,5.26,4.62A322.816,322.816,0,0,0,275.813,75.48c7.793-11.1,7.231-25.525-1.337-34.3a24.156,24.156,0,0,0-17.962-7.17,29.9,29.9,0,0,0-21.383,10.018c-28.171,31.052-39.761,66.057-44.342,85.788a26.989,26.989,0,0,0-6.976,1.154,26.456,26.456,0,0,0-4.124,1.65,20.754,20.754,0,0,0-20.556-18.143c-8.979,0-20.527,7.626-20.736,20.736a19.146,19.146,0,0,0,.4,4.028,16.217,16.217,0,0,1-2.115,8.646c-1.216,2.129-2.67,4.593-4.32,7.252l-.108.168c-.006.009-.009.02-.015.029-6.889,11.076-17.177,25.472-28.2,33.374a3.5,3.5,0,1,0,4.078,5.69c11.948-8.564,22.865-23.8,30.1-35.414l3.747-5.825a3.787,3.787,0,0,1,2.456-1.675,3.873,3.873,0,0,1,2.169.195,20.72,20.72,0,0,0,4.979,2.817l.265.121a3.479,3.479,0,0,0,.5.16,20.607,20.607,0,0,0,6.805,1.171,20.825,20.825,0,0,0,5.465-.731,26.847,26.847,0,0,0,.319,8.667v.008l0,.009c.09.441.2.878.307,1.313a191.848,191.848,0,0,1-14.335,40.922,33.111,33.111,0,0,0-3.21,17.208c1.282,14.759,3.635,50.6-2.173,64.606a3.5,3.5,0,1,0,6.467,2.681c6.169-14.878,4.327-48.923,2.68-67.893a26.124,26.124,0,0,1,2.542-13.566,206.23,206.23,0,0,0,12.366-32.5,92.259,92.259,0,0,0,10.775,17.908,17.2,17.2,0,0,1,3.5,12.162c-1.769,18.793-5.219,65.809.93,96.437a3.5,3.5,0,0,0,6.863-1.378c-5.966-29.717-2.564-75.918-.824-94.4a24.184,24.184,0,0,0-4.929-17.094c-1.212-1.571-2.326-3.142-3.357-4.7A34.823,34.823,0,0,0,196,188.1q2.14,0,4.478-.211a22.957,22.957,0,0,0,7.749-2.123c1.365,25.46,11.658,75.15,68.777,96.258a14.451,14.451,0,0,0,19.289-15.353c-1.94-15.736-6.586-38.99-17.7-60.409-13.412-25.849-32.717-42.406-57.379-49.241-.116-.783-.263-1.56-.434-2.331,7.109.435,13.992.642,20.59.642a326.143,326.143,0,0,0,65.481-6.52c12.942-2.676,22.174-13.3,21.95-25.25A23.546,23.546,0,0,0,320.831,106.472Zm-170.6,39.184c-2.212-1.888-6.183-8.443-4.142-14.731a13.731,13.731,0,0,1,26.778,4.287,13.886,13.886,0,0,1-.218,2.455c0,.028,0,.055-.006.083a26.15,26.15,0,0,0-5.1,7.364c-.245.53-.469,1.071-.688,1.615C166.6,146.808,159.719,151.533,150.233,145.656Zm49.6,35.262c-16.453,1.516-23.692-6.906-26.88-14.622-.748-2.176-1.119-3.592-1.2-3.924a20.065,20.065,0,0,1,.035-7.812,29.5,29.5,0,0,1,2.116-6.513,19.111,19.111,0,0,1,11.949-10.382,13.546,13.546,0,0,1,5.831-.867c19.917,2.969,27.209,23.569,21.175,34.3C209.421,177.21,205.565,180.391,199.834,180.918Zm52.035.874c-2.342,5.652-6.587,13.056-13.9,18.046a37.865,37.865,0,0,1-19.841,6.223c-.728-3.137-1.293-6.17-1.728-9.056a38.364,38.364,0,0,0,16.991-7.892,34.716,34.716,0,0,0,10.173-14A80.421,80.421,0,0,1,251.869,181.792Zm-22.942,1.93a31.233,31.233,0,0,1-13.373,6.313c-.32-3.474-.46-6.608-.5-9.294,5.175-5.625,6.17-13.261,6.409-16.357a78.887,78.887,0,0,1,16.056,6.908A27.965,27.965,0,0,1,228.927,183.722Zm45,28.533A54.2,54.2,0,0,1,255.4,231.279a60.054,60.054,0,0,1-23,8.285,93.349,93.349,0,0,1-5.733-9.78,56.813,56.813,0,0,0,25.513-9.1A54.588,54.588,0,0,0,269,203.136C270.786,206.114,272.425,209.163,273.929,212.255Zm-36.9,33.6a65.831,65.831,0,0,0,22.089-8.642A61.763,61.763,0,0,0,277.353,219.9c1.336,3.243,2.541,6.506,3.627,9.755a44.7,44.7,0,0,1-14.04,14.894,45.753,45.753,0,0,1-22.947,7.62,3.467,3.467,0,0,0-1.11.255Q239.724,249.214,237.025,245.85Zm48.749,1.067a52.951,52.951,0,0,1-27.64,17.944,93.154,93.154,0,0,1-8.485-6.241,53.354,53.354,0,0,0,21.109-8.207A50.427,50.427,0,0,0,283.612,238.3C284.417,241.216,285.137,244.1,285.774,246.917Zm.778,27.388a7.219,7.219,0,0,1-7.125,1.152,111.146,111.146,0,0,1-13.213-5.865,58.194,58.194,0,0,0,9.976-4.988,61.08,61.08,0,0,0,11.326-9.1c.77,4.254,1.367,8.3,1.827,12.025A7.432,7.432,0,0,1,286.552,274.305Zm-21.835-77.773a48.578,48.578,0,0,1-16.361,18.288,49.421,49.421,0,0,1-24.819,8.173,104.889,104.889,0,0,1-3.57-10.026,44.363,44.363,0,0,0,21.948-7.346c7.6-5.184,12.354-12.408,15.253-18.522A94.708,94.708,0,0,1,264.717,196.532Zm40.713-54.575a323.666,323.666,0,0,1-87.126,5.565,32.611,32.611,0,0,0-6.7-9.3c16.324-11.383,47.277-28.7,87.921-31.933a22.126,22.126,0,0,1,16.609,5.374,16.626,16.626,0,0,1,5.67,12.035C321.96,132.282,315.075,139.963,305.43,141.957Z" style="fill:#464965"/><path d="M174.113,202.748a3.5,3.5,0,0,0-4.27,2.5c-.268,1.02-6.515,25.276-4.528,49.8a3.5,3.5,0,0,0,3.485,3.217c.095,0,.19,0,.286-.011a3.5,3.5,0,0,0,3.206-3.772c-1.889-23.306,4.261-47.225,4.323-47.464A3.5,3.5,0,0,0,174.113,202.748Z" style="fill:#464965"/><path d="M203.952,229.934c.043,12.561,1.068,43.64,9.643,60.914a3.5,3.5,0,0,0,6.269-3.113c-7.921-15.957-8.871-45.754-8.912-57.824a32.745,32.745,0,0,0-1.878-10.876,166.127,166.127,0,0,1-5.94-21.125,3.5,3.5,0,1,0-6.871,1.335,169.82,169.82,0,0,0,6.214,22.132A25.774,25.774,0,0,1,203.952,229.934Z" style="fill:#464965"/><path d="M15.646,258.786c.125.235.251.468.374.691a41.288,41.288,0,0,0,36.612,21.6,41.284,41.284,0,0,0,36.606-21.59c.128-.231.254-.464.378-.7,11.971-22.535-3.918-57.791-4.8-59.716a456.142,456.142,0,0,1-23.27-67.966,9.2,9.2,0,0,0-17.823,0,456.006,456.006,0,0,1-23.255,67.933C19.771,200.542,3.6,236.108,15.646,258.786Zm11.2-56.874A463,463,0,0,0,50.5,132.849a2.2,2.2,0,0,1,4.265,0,463.03,463.03,0,0,0,23.651,69.062c.008.02.018.042.027.061.156.337,15.409,33.923,4.992,53.532-.1.195-.208.389-.319.588a34.376,34.376,0,0,1-30.483,17.982,34.379,34.379,0,0,1-30.488-17.99c-.107-.191-.211-.385-.316-.582C11.411,235.9,26.665,202.31,26.848,201.912Z" style="fill:#464965"/></svg>