<?xml version="1.0" ?><svg id="icons" viewBox="0 0 340 340" xmlns="http://www.w3.org/2000/svg" xmlns:xlink="http://www.w3.org/1999/xlink"><defs><linearGradient gradientUnits="userSpaceOnUse" id="linear-gradient" x1="169.467" x2="169.467" y1="81.903" y2="266.836"><stop offset="0" stop-color="#ff7094"/><stop offset="1" stop-color="#f14f89"/></linearGradient></defs><title/><path d="M122.131,250.633l-9.3,15.741a13.108,13.108,0,0,1-8.681,6.181l-8.539,1.733a13.109,13.109,0,0,1-14.263-6.849l-7.622-14.808-17.374,6.6,10.055,15.832a16.826,16.826,0,0,1-.807,19.2L52.879,311.009,69.211,319,84.8,296.821a10.835,10.835,0,0,1,6.716-4.391l16.138-3.269a10.84,10.84,0,0,1,11.129,4.55l11.94,17.646,18.413-6.6-15.391-21.29a14.48,14.48,0,0,1-.848-15.647l6.1-10.713a50.477,50.477,0,0,1,2.954-4.594C136.586,250.591,129.853,250.1,122.131,250.633Z" style="fill:#ffa9cc"/><path d="M155.04,211.627l-27.1,6.255s2.541,5.278,1.173,14.87a42.249,42.249,0,0,1-5.553,15.468l-1.425,2.413,19.821,1.88a46.305,46.305,0,0,1,10.918-10.846c3.788-2.656,8.152-4.884,12.247-5.02Z" style="fill:#464965"/><path d="M229.029,208.047s12.057,18.349-2.872,33.488-39.655,9.8-48.285-3.5Z" style="fill:#464965"/><path d="M90.568,147.113s-16.759-16.231-4.146-36.132,41.2-8.409,41.2-8.409Z" style="fill:#464965"/><path d="M283.624,267.255l-21.707-2.342a26.361,26.361,0,0,1-20.4-13.747l-4.313-8.042c-3.4,5.35-6.435,12.835-9.221,21.819l.342.632a26.362,26.362,0,0,1,2.553,18.246l-6.385,28.829,17.624,4.471,4.729-20.133a18.331,18.331,0,0,1,19.429-14.07l15.454,1.341Z" style="fill:#ffa9cc"/><path d="M253.08,67.4l12.807-10.558a19.817,19.817,0,0,0,7.148-13.711L274.806,21h15.861V37.516a13.215,13.215,0,0,0,11.711,13.129l20.247,2.319V72.241l-29.241-5.849a19.814,19.814,0,0,0-17.195,4.748l-17.44,15.8q-1.272,1.152-2.421,2.407A85.792,85.792,0,0,1,253.08,67.4Z" style="fill:#ffa9cc"/><path d="M21.684,106.919l21.11-5.573a26.361,26.361,0,0,1,23.966,5.545l9.628,8.324a72.147,72.147,0,0,0,.921-23.6l-3.38-2.9a26.356,26.356,0,0,1-8.907-16.127L60.679,43.385,42.621,45.509,45.4,66A18.332,18.332,0,0,1,32.287,86.089L17.375,90.361Z" style="fill:#ffa9cc"/><polygon points="76.388 115.215 99.088 134.84 111.251 120.741 77.309 91.618 76.388 115.215" style="fill:#464965"/><path d="M247.423,120.159a35.528,35.528,0,0,1,8.918-30.795L253.08,67.4,222.343,92.738l4.148,22.45,21.229,6.344Q247.558,120.84,247.423,120.159Z" style="fill:#464965"/><polygon points="227.983 264.943 237.204 243.124 221.317 213.508 204.918 222.326 227.983 264.943" style="fill:#464965"/><path d="M305.274,160.88v18.789H279.113a80.32,80.32,0,0,0-19.62,2.385c-5.33,1.341-11.317,3.239-15.222,5.667v-35.87S256.715,165.028,305.274,160.88Z" style="fill:#ffa9cc"/><path d="M167.2,21h18.79V47.159a80.368,80.368,0,0,0,2.384,19.62c1.342,5.33,3.239,11.317,5.668,15.223h-35.87S171.344,69.557,167.2,21Z" style="fill:#ffa9cc"/><path d="M89.412,174.647s-1.693,6.941-10.112,12.344a22.024,22.024,0,0,1-14.611,3.23l-34.158-4.24-1.659,14.928,51.122,5.735a95.134,95.134,0,0,1,13.112,2.41c6.735,1.734,16.153,4.548,20.357,7.612l-1.936-32.62Z" style="fill:#ffa9cc"/><path d="M258.632,137.058a32.158,32.158,0,0,0-23.443-30.948L233.8,98.973A32.182,32.182,0,0,0,208.111,76.9l-12.975.626a29.463,29.463,0,0,0-46.85,5.213,27.572,27.572,0,0,0-36.314,31.773q-.59-.03-1.188-.031a22.578,22.578,0,0,0-20.216,32.634,22.572,22.572,0,0,0,11.97,41.492l-1.71,8.5q-.017.456-.016.916a26.527,26.527,0,0,0,39.529,23.126l2.911,6.633a32.084,32.084,0,0,0,48.229,8.57A29.054,29.054,0,0,0,227.5,217.957s1.529-9.723,1.525-9.91a29.026,29.026,0,0,0,17.534-45.889A32.087,32.087,0,0,0,258.632,137.058Z" style="fill:url(#linear-gradient)"/><path d="M222.106,141.3c-3.307-8.14-14.674-8.757-18.536-.865a15.371,15.371,0,0,0-1.61,6.535,13.12,13.12,0,0,0,3.308,8.618c5.6,6.8,16.6,4.015,17.977-4.687A17.752,17.752,0,0,0,222.106,141.3Z" style="fill:#464965"/><path d="M148.6,186.248a7.269,7.269,0,0,0-8.795-9.94,11.022,11.022,0,0,0-4.156,2.431,9.391,9.391,0,0,0-2.772,5.993,7.277,7.277,0,0,0,11.365,6.887A12.7,12.7,0,0,0,148.6,186.248Z" style="fill:#464965"/><circle cx="150.037" cy="120.895" r="4.535" style="fill:#464965"/><circle cx="176.102" cy="189.324" r="4.535" style="fill:#464965"/><path d="M282.031,280.771l-15.453-1.34a21.946,21.946,0,0,0-23.139,16.757l-4.73,20.132a3.5,3.5,0,1,0,6.815,1.6l4.729-20.133a14.9,14.9,0,0,1,15.72-11.384l15.453,1.341a3.5,3.5,0,1,0,.605-6.975Z" style="fill:#464965"/><path d="M323.312,68.81,294.07,62.96a23.4,23.4,0,0,0-20.231,5.586l-15.028,13.62-1.979-13.325,11.281-9.3a23.442,23.442,0,0,0,8.412-16.132l1.77-22.132a3.5,3.5,0,1,0-6.978-.558l-1.771,22.132a16.406,16.406,0,0,1-5.886,11.29L228.184,83.387a35.513,35.513,0,0,0-31.94-9.7,32.54,32.54,0,0,0-3-2.485c-.511-1.631-1.009-3.4-1.48-5.277a76.911,76.911,0,0,1-2.279-18.766V21a3.5,3.5,0,1,0-7,0V47.159a84.166,84.166,0,0,0,2.266,19.519,32.217,32.217,0,0,0-15.707-1.6c2.593-11.846,3.146-26.742,1.639-44.382a3.5,3.5,0,0,0-6.975.6c1.984,23.22-.138,37.656-2.39,45.881A33.19,33.19,0,0,0,146.8,78.612,31.081,31.081,0,0,0,110.647,95.8c-6.984-.123-13.036,1.322-18.042,4.327l-16.4-14.068a22.855,22.855,0,0,1-7.724-13.985L64.141,42.87A3.5,3.5,0,0,0,57.217,43.9L61.56,73.106A29.855,29.855,0,0,0,71.65,91.374l2.1,1.8-.572,14.638-4.126-3.567A29.844,29.844,0,0,0,41.9,97.963l-21.11,5.572a3.5,3.5,0,0,0,1.787,6.768l21.11-5.573a22.854,22.854,0,0,1,20.783,4.809l14.1,12.188c-1.776,11.354,3.532,20.4,6.944,24.868a25.957,25.957,0,0,0-4.064,34.218,24.52,24.52,0,0,1-4.04,3.232,18.54,18.54,0,0,1-12.289,2.7l-34.158-4.24a3.5,3.5,0,1,0-.863,6.947l34.159,4.24a26.318,26.318,0,0,0,3.238.2,25.36,25.36,0,0,0,13.694-3.96,31.548,31.548,0,0,0,4.972-3.955,26.033,26.033,0,0,0,11.832,5.664,30.131,30.131,0,0,0,.67,15.3c-1.5-.43-3.044-.857-4.685-1.28a99.121,99.121,0,0,0-13.594-2.5l-51.122-5.735a3.5,3.5,0,0,0-.781,6.957l51.123,5.735a91.9,91.9,0,0,1,12.628,2.32c4.117,1.06,7.758,2.142,10.824,3.215a30.013,30.013,0,0,0,22.936,12.361,36.111,36.111,0,0,1-.349,4.239,38.573,38.573,0,0,1-5.1,14.182L109.819,264.6a9.624,9.624,0,0,1-6.364,4.53l-8.537,1.732a9.632,9.632,0,0,1-10.456-5.019L76.84,251.029a3.5,3.5,0,0,0-6.225,3.2l7.622,14.809a16.688,16.688,0,0,0,14.8,9.006,16.5,16.5,0,0,0,3.273-.329l8.537-1.733a16.627,16.627,0,0,0,11-7.831L126.569,250a45.509,45.509,0,0,0,6-16.753,42.588,42.588,0,0,0,.428-5.736,29.976,29.976,0,0,0,9.058-3.313c.017-.01.031-.024.048-.034s.056-.027.084-.044a34.613,34.613,0,0,0,6.411-5.657,29.08,29.08,0,0,0,9.986,1.757q.945,0,1.92-.061a3.5,3.5,0,1,0-.438-6.986c-14.259.9-22.182-11.569-22.542-12.146a3.5,3.5,0,0,0-5.964,3.664,36.98,36.98,0,0,0,10.49,10.469,27.015,27.015,0,0,1-3.5,2.977,23,23,0,0,1-33.237-26.779c3.7-1.47,11.807-5.868,18.333-17.748a35.594,35.594,0,0,1,10.2-11.906,38.646,38.646,0,0,1,29.705-6.86,54.778,54.778,0,0,0,1.686,19.574A3.5,3.5,0,1,0,172,172.594c-6.527-24.182,8.357-42.539,8.56-42.785a3.5,3.5,0,0,0-5.369-4.492,57.257,57.257,0,0,0-10.53,22.615,45.488,45.488,0,0,0-34.914,8.1,42.551,42.551,0,0,0-12.234,14.207c-6.171,11.233-13.544,14.243-15.364,14.837a19.061,19.061,0,0,1-9.667-35.032,3.5,3.5,0,0,0,1.22-4.492,18.879,18.879,0,0,1-2-8.494,19.108,19.108,0,0,1,15.347-18.708,42.486,42.486,0,0,0-2.313,15.749,3.5,3.5,0,0,0,3.5,3.416h.086a3.5,3.5,0,0,0,3.415-3.583c-.478-20.038,11.427-24.327,12.007-24.524a3.5,3.5,0,0,0-2.118-6.672,20.832,20.832,0,0,0-6.7,3.994,24.076,24.076,0,0,1,32.165-20.7,3.5,3.5,0,0,0,4.2-1.51,26.111,26.111,0,0,1,22.373-12.781A25.683,25.683,0,0,1,189.11,76.83a26.9,26.9,0,0,0-9.291,10.176,19.889,19.889,0,0,1-5.931,7.356,13.53,13.53,0,0,1-7.429,2.943,3.5,3.5,0,0,0,.1,7h.1A20.322,20.322,0,0,0,178,100.025a26.783,26.783,0,0,0,8.076-9.886c2.969-5.932,9.012-8.784,10.13-9.27a28.647,28.647,0,0,1,34.819,21.246c-3.569-.212-8.393-.059-12.049,1.694a29.557,29.557,0,0,0-8.725-5.064,3.5,3.5,0,1,0-2.18,6.652,23.061,23.061,0,0,1,13.774,14.989c.432,1.546,2.889,2.918,4.313,2.427a3.578,3.578,0,0,0,2.427-4.314,28.746,28.746,0,0,0-4.349-9.087,31.428,31.428,0,0,1,10.136.11,28.64,28.64,0,0,1,10,49.9,3.5,3.5,0,0,0-.608,4.835,25.291,25.291,0,0,1,5.109,15.32,25.565,25.565,0,0,1-20.374,25c-6.429.63-11.549-.6-15.219-3.681-5.6-4.7-6.245-12.357-6.257-12.524a3.5,3.5,0,0,0-6.986.454c.028.433.76,10.675,8.672,17.371,4.358,3.689,9.931,5.548,16.606,5.548h.026a25.535,25.535,0,0,1-32.833,21.262,3.5,3.5,0,0,0-3.265.653,28.579,28.579,0,0,1-39.4-2.767,3.5,3.5,0,1,0-5.178,4.711,35.415,35.415,0,0,0,4.706,4.3,51.59,51.59,0,0,0-13.425,15.467l-6.1,10.713a18.022,18.022,0,0,0,1.053,19.43L146.3,306.806a3.5,3.5,0,0,0,5.674-4.1l-15.392-21.291a11.006,11.006,0,0,1-.643-11.864l6.1-10.713a44.145,44.145,0,0,1,12.84-14.3c.335-.234.67-.462,1-.681a35.352,35.352,0,0,0,24.468,2.131,37.5,37.5,0,0,0,23.539,8.234,35.321,35.321,0,0,0,12.983-2.453l8.376,15.476a22.859,22.859,0,0,1,2.215,15.822l-6.385,28.83a3.5,3.5,0,1,0,6.834,1.513l6.385-28.829a29.864,29.864,0,0,0-2.445-19.8l5.729-13.555.855,1.593a29.834,29.834,0,0,0,23.107,15.572l21.706,2.342a3.5,3.5,0,1,0,.752-6.959l-21.707-2.342a22.843,22.843,0,0,1-17.69-11.921l-8.927-16.642c3.12-9.145.584-17.742-1.56-22.619a32.615,32.615,0,0,0,20.894-23.3c1.644-.516,3.43-1.019,5.339-1.5a76.958,76.958,0,0,1,18.765-2.279h26.162a3.5,3.5,0,0,0,0-7H279.113a83.985,83.985,0,0,0-20.474,2.49c-.953.24-1.871.488-2.77.738a32.21,32.21,0,0,0-4.681-16.645c.739-.709,1.437-1.452,2.107-2.215,6.951,2.4,17.815,4.648,34.166,4.648,5.417,0,11.437-.247,18.111-.818a3.5,3.5,0,1,0-.6-6.974c-23.813,2.034-38.6-.148-47.433-2.831a35.6,35.6,0,0,0-7.128-43.88A32.547,32.547,0,0,1,261.1,89.539l17.44-15.807A16.4,16.4,0,0,1,292.7,69.823l29.242,5.85a3.5,3.5,0,1,0,1.373-6.863ZM108.406,102.818a31.086,31.086,0,0,0-.56,5.851c0,.82.033,1.643.1,2.463-.721.078-1.432.191-2.135.328l-7.5-6.439A26.839,26.839,0,0,1,108.406,102.818ZM89.54,121.958l-9.589-8.289.573-14.68L98.252,114.2A26.265,26.265,0,0,0,89.54,121.958Zm98.529,120.913a35.344,35.344,0,0,0,4.187-2.677,32.519,32.519,0,0,0,17.967-.712l3.278,6.058A30.779,30.779,0,0,1,188.069,242.871Zm39.525,14-10.989-20.305a32.742,32.742,0,0,0,8.92-7.811l7.8,14.547Zm10.816-153.41a35.3,35.3,0,0,0-5.742-14.7l17.859-14.723,2.11,14.209a39.4,39.4,0,0,0-8.61,17.8A35.291,35.291,0,0,0,238.41,103.462Z" style="fill:#464965"/><path d="M290.667,17.906a3.5,3.5,0,0,0-3.5,3.5v16.11A16.707,16.707,0,0,0,301.98,54.122l20.247,2.319a3.411,3.411,0,0,0,.4.023,3.5,3.5,0,0,0,.395-6.978l-20.247-2.319a9.71,9.71,0,0,1-8.61-9.651V21.406A3.5,3.5,0,0,0,290.667,17.906Z" style="fill:#464965"/><path d="M33.25,89.453A21.946,21.946,0,0,0,48.869,65.532l-2.78-20.493a3.5,3.5,0,0,0-6.936.941l2.781,20.494A14.911,14.911,0,0,1,31.322,82.725L16.411,87a3.5,3.5,0,1,0,1.928,6.729Z" style="fill:#464965"/><path d="M121.679,291.75a14.311,14.311,0,0,0-14.722-6.02L90.819,289a14.276,14.276,0,0,0-8.885,5.81l-15.586,22.18a3.5,3.5,0,1,0,5.726,4.026l15.587-22.182a7.3,7.3,0,0,1,4.547-2.973l16.138-3.268a7.315,7.315,0,0,1,7.536,3.08l11.939,17.645a3.5,3.5,0,1,0,5.8-3.921Z" style="fill:#464965"/><path d="M69.363,273.188,59.308,257.356A3.5,3.5,0,0,0,53.4,261.11l10.055,15.831a13.383,13.383,0,0,1-.639,15.209L50.093,308.891a3.5,3.5,0,1,0,5.572,4.236l12.723-16.74A20.411,20.411,0,0,0,69.363,273.188Z" style="fill:#464965"/></svg>