<?xml version="1.0" ?><svg id="icons" viewBox="0 0 340 340" xmlns="http://www.w3.org/2000/svg" xmlns:xlink="http://www.w3.org/1999/xlink"><defs><linearGradient gradientUnits="userSpaceOnUse" id="linear-gradient" x1="165.755" x2="281.058" y1="121.902" y2="270.698"><stop offset="0" stop-color="#ff8585"/><stop offset="1" stop-color="#db6363"/></linearGradient><linearGradient gradientUnits="userSpaceOnUse" id="linear-gradient-2" x1="44.862" x2="44.862" y1="129.23" y2="261.044"><stop offset="0" stop-color="#7eb8f2"/><stop offset="1" stop-color="#6b8ad6"/></linearGradient></defs><title/><path d="M116.347,218.6a58.288,58.288,0,0,1-2.295-12.668,1.125,1.125,0,0,1,1.88-.911c3.068,2.834,9.162,7.975,14.237,9.246Z" style="fill:#464965"/><path d="M137.715,210.379a41.061,41.061,0,0,1-4.46-10.367,1.122,1.122,0,0,1,1.65-1.276c3.351,2.02,9.684,5.442,14.436,5.656Z" style="fill:#464965"/><path d="M154.553,202.268a41.04,41.04,0,0,1-4.46-10.367,1.122,1.122,0,0,1,1.649-1.276c3.351,2.02,9.685,5.443,14.436,5.656Z" style="fill:#464965"/><path d="M94.815,175.949s.482,5.359,5.428,12.3a1.123,1.123,0,0,0,2.027-.455c.682-4.094,2.357-11.978,5.618-16.12Z" style="fill:#464965"/><path d="M112.319,172.257s.482,5.36,5.428,12.3a1.123,1.123,0,0,0,2.027-.456c.682-4.093,2.357-11.978,5.618-16.12Z" style="fill:#464965"/><path d="M129.457,166.671s.483,5.36,5.428,12.3a1.123,1.123,0,0,0,2.027-.456c.683-4.093,2.357-11.978,5.618-16.12Z" style="fill:#464965"/><path d="M119.845,217.673V239.3a12.426,12.426,0,0,0,7.789,11.528h0a12.426,12.426,0,0,1,7.789,11.528v3.19a10.628,10.628,0,0,0,10.629,10.629h0a10.628,10.628,0,0,0,10.628-10.629V222.411Z" style="fill:#fff"/><path d="M191.055,114.45s-.48-23.983,11.032-46.766a61.474,61.474,0,0,1,22.543,27.58V114.45Z" style="fill:#464965"/><path d="M301.7,145.893a140.724,140.724,0,0,1-34.967-28.455,42.42,42.42,0,0,1-8.564-15.209c-11.8-37.635-29.938-44.689-29.938-44.689-19.126,25.5-17.251,48.752-17.251,48.752L187.224,110.1A17.6,17.6,0,0,0,175.8,117.03c-3.267,4.458-6.544,9.713-9.061,13.957a17.526,17.526,0,0,1-13.966,8.534L120.071,141.6h0l-24.366,15.38a39.945,39.945,0,0,0,.889,17.87l43.739-9.269A29.082,29.082,0,0,1,172.277,180.5c.046.09.091.179.135.268a6.92,6.92,0,0,1-1.284,7.995c-17.957,17.911-51.283,28.908-51.283,28.908,12.376,21.376,41.627,9,41.627,9,21.751-10.126,40.127-9.751,40.127-9.751l44.628,59.253c57.778-24.978,70.064-71.684,71.918-99.575A33.049,33.049,0,0,0,301.7,145.893Z" style="fill:url(#linear-gradient)"/><path d="M120.071,141.6s-.2,15.883-24.366,15.38a34.636,34.636,0,0,1,2.965-9.133,11.131,11.131,0,0,1,10.053-6.247Z" style="fill:#464965"/><path d="M222.654,221.851a5.063,5.063,0,0,0-5.694-7.3,87.806,87.806,0,0,1-15.361,2.375l12.879,17.1A66.284,66.284,0,0,0,222.654,221.851Z" style="fill:#464965"/><rect height="114.911" style="fill:url(#linear-gradient-2)" width="46.161" x="21.782" y="127.188"/><rect height="28.098" style="fill:#464965" width="17.426" x="36.149" y="242.099"/><path d="M35.26,111.854h19.2a6,6,0,0,1,6,6v9.334a0,0,0,0,1,0,0H29.26a0,0,0,0,1,0,0v-9.334A6,6,0,0,1,35.26,111.854Z" style="fill:#464965"/><path d="M24.815,266.392H64.91a3.033,3.033,0,0,1,3.033,3.033v8.758a7.777,7.777,0,0,1-7.777,7.777H29.559a7.777,7.777,0,0,1-7.777-7.777v-8.758A3.033,3.033,0,0,1,24.815,266.392Z" style="fill:#464965"/><path d="M183.784,143.832a1.954,1.954,0,0,1-1.879-2.324c.588-2.949,2.6-8.188,9.44-11.717a23.222,23.222,0,0,1,16.091-1.967,2.5,2.5,0,0,1,1.623,3.636C206.624,135.911,199.91,144.2,183.784,143.832Z" style="fill:#fff"/><rect height="7" style="fill:#fff" width="19.371" x="21.782" y="148.56"/><rect height="7" style="fill:#fff" width="19.371" x="21.782" y="169.511"/><rect height="7" style="fill:#fff" width="19.371" x="21.782" y="211.413"/><rect height="7" style="fill:#fff" width="19.371" x="21.782" y="190.462"/><path d="M303.458,142.87a137.09,137.09,0,0,1-34.1-27.737,38.651,38.651,0,0,1-7.859-13.951c-12.162-38.794-31.205-46.591-32.01-46.9a3.5,3.5,0,0,0-4.068,1.162,95.7,95.7,0,0,0-10.809,18.231,57.959,57.959,0,0,0-10.726-8.986,3.5,3.5,0,0,0-4.928,1.42c-7.748,15.334-10.24,31.145-11.037,40.342l-1.257.2a20.962,20.962,0,0,0-13.689,8.313c-2.8,3.817-5.908,8.608-9.248,14.241a14.011,14.011,0,0,1-11.179,6.825l-32.6,2.077H108.723a14.688,14.688,0,0,0-13.208,8.232A38.112,38.112,0,0,0,92.239,156.5v.006a43.378,43.378,0,0,0,1.035,19.457,3.5,3.5,0,0,0,4.047,2.32l43.739-9.27a25.582,25.582,0,0,1,28.1,13.086l.123.242a3.41,3.41,0,0,1-.626,3.951c-17.148,17.1-49.91,28.063-49.91,28.063a4.42,4.42,0,0,0-2.4,3.323V239.3a15.852,15.852,0,0,0,9.983,14.775,8.885,8.885,0,0,1,5.595,8.281v3.19a14.129,14.129,0,1,0,28.257,0V242.1a3.5,3.5,0,0,0-7,0v23.448a7.129,7.129,0,1,1-14.257,0v-3.19a15.854,15.854,0,0,0-9.983-14.775,8.885,8.885,0,0,1-5.595-8.281v-12.13c12.163,9.946,30.255,6.633,39.491,2.726l.113-.05a100.789,100.789,0,0,1,36.931-9.39l43.55,57.825a3.2,3.2,0,0,0,4.185,1.107c60.2-26.027,72.219-75.427,74.021-102.556A36.355,36.355,0,0,0,303.458,142.87Zm-100-69.912a60.213,60.213,0,0,1,8.283,7.952,74.858,74.858,0,0,0-4.305,22.406L195.066,105.3A107.7,107.7,0,0,1,203.454,72.958ZM101.825,149.366a7.655,7.655,0,0,1,6.9-4.262h6.913c-1.5,3.217-5.371,7.483-15.418,8.266A33.471,33.471,0,0,1,101.825,149.366Zm106.314,70.422a84.14,84.14,0,0,0,9.7-1.851,1.446,1.446,0,0,1,1.568.535,1.549,1.549,0,0,1,.159,1.739,67.309,67.309,0,0,1-5.019,8.08Zm106.513-43.419c-1.672,25.156-12.683,70.661-67.3,95.481L218.914,234.1a72.1,72.1,0,0,0,6.832-10.6,8.564,8.564,0,0,0-9.66-12.332,84.946,84.946,0,0,1-14.562,2.262c-1.914-.02-20.019.084-41.46,10.048-1.15.469-23.147,9.176-34.7-4.052,9.837-3.69,33.653-13.63,48.235-28.175a10.4,10.4,0,0,0,1.933-12.058l-.143-.281a32.593,32.593,0,0,0-35.782-16.742l-40.4,8.561a38.457,38.457,0,0,1-.434-10.289c8.316-.312,14.776-2.595,19.182-6.856a18.669,18.669,0,0,0,5.089-8.655L153,143.014a21.007,21.007,0,0,0,16.754-10.242c3.18-5.362,6.249-10.09,8.875-13.673a14.185,14.185,0,0,1,9.151-5.539l23.752-3.812a3.51,3.51,0,0,0,2.935-3.728c-.016-.213-1.359-20.858,14.766-43.9,4.985,3.319,17,13.766,25.593,41.159a45.582,45.582,0,0,0,9.27,16.466,144.131,144.131,0,0,0,35.838,29.176A29.4,29.4,0,0,1,314.652,176.369Z" style="fill:#464965"/><path d="M18.282,127.188V242.1a3.5,3.5,0,0,0,3.5,3.5H67.943a3.5,3.5,0,0,0,3.5-3.5V127.188a3.5,3.5,0,0,0-3.5-3.5H21.782A3.5,3.5,0,0,0,18.282,127.188Zm7,3.5H64.443V238.6H25.282Z" style="fill:#464965"/><path d="M48.363,115.484V74.1a3.5,3.5,0,0,0-7,0v41.384a3.5,3.5,0,0,0,7,0Z" style="fill:#464965"/></svg>