<?xml version="1.0" ?><svg id="icons" viewBox="0 0 340 340" xmlns="http://www.w3.org/2000/svg" xmlns:xlink="http://www.w3.org/1999/xlink"><defs><linearGradient gradientUnits="userSpaceOnUse" id="New_Gradient_Swatch_6" x1="49.769" x2="68.212" y1="86.106" y2="297.17"><stop offset="0" stop-color="#fcd0be"/><stop offset="1" stop-color="#efa69a"/></linearGradient><linearGradient gradientUnits="userSpaceOnUse" id="linear-gradient" x1="106.747" x2="264.869" y1="231.817" y2="399.241"><stop offset="0" stop-color="#7eb8f2"/><stop offset="1" stop-color="#6b8ad6"/></linearGradient><linearGradient gradientUnits="userSpaceOnUse" id="linear-gradient-2" x1="217.16" x2="246.117" y1="66.02" y2="188.017"><stop offset="0" stop-color="#ffcc71"/><stop offset="1" stop-color="#f9a138"/></linearGradient></defs><title/><path d="M27.577,56.305c14.79-6.132,40.49-18.052,56.149-32.483,0,0,8.111,18.927-4.958,31.545l12.168.9s-2.253,9.013-8.562,13.068l4.957,53.628L67.5,129.274v13.487l4.252,1.448A16.2,16.2,0,0,1,81.9,154.4l24.362,72.667L33.7,287.118S17.972,235.37,13.634,177.727a31.317,31.317,0,0,1,4.79-19.164l10.322-16.22S17.682,109.863,16.2,74.127A18.458,18.458,0,0,1,27.577,56.305Z" style="fill:url(#New_Gradient_Swatch_6)"/><path d="M106.258,227.064l-4.233-12.625c-19.078,6.375-52.4,27.063-74.791,48.037,5.111,24.467,6.47,24.642,6.47,24.642Z" style="fill:#cc6262"/><path d="M67.5,129.274l-9.981,3.176a4.332,4.332,0,0,0,.451,8.374l9.53,1.937Z" style="fill:#464965"/><path d="M29.818,319.649a13.952,13.952,0,0,1-12.95-18.99c3.93-10.222,12.232-23.591,29.581-37.566a707.1,707.1,0,0,1,63.712-45.523,11.815,11.815,0,0,1,15.106,2.047,21.373,21.373,0,0,1,4.907,9.1c4.462,1.719,10.926.547,17.885-1.336,43.023-2.072,150.653-.11,176.528,68.386a18.321,18.321,0,0,1-17.131,24.881Z" style="fill:url(#linear-gradient)"/><path d="M216.106,49.323a55.459,55.459,0,0,0-24.8,5.827,51.152,51.152,0,0,1,0,99.757,55.705,55.705,0,1,0,24.8-105.584Z" style="fill:url(#linear-gradient-2)"/><circle cx="49.622" cy="89.325" r="4.535" style="fill:#cc6262"/><circle cx="67.394" cy="86.324" r="4.535" style="fill:#cc6262"/><circle cx="126.394" cy="153.645" r="5.57" style="fill:#ffd3a4"/><circle cx="177.95" cy="101.756" r="4.57" style="fill:#ffd3a4"/><circle cx="148.839" cy="20.423" r="4.57" style="fill:#ffd3a4"/><circle cx="292.49" cy="27.102" r="4.57" style="fill:#ffd3a4"/><circle cx="325.381" cy="97.488" r="4.57" style="fill:#ffd3a4"/><circle cx="301.166" cy="166.938" r="4.57" style="fill:#ffd3a4"/><rect height="7" rx="3.272" style="fill:#464965" transform="translate(-181.639 177.596) rotate(-52.151)" width="10.078" x="85.596" y="270.883"/><path d="M307.528,324.149a21.447,21.447,0,0,0,17.852-9.338,21.955,21.955,0,0,0,2.481-20.281c-7.735-20.477-23.131-36.857-45.759-48.684-17.837-9.323-40.2-15.843-66.459-19.377-37.692-5.072-72.91-2.459-83-1.519a25.255,25.255,0,0,0-4.762-7.667,15.266,15.266,0,0,0-19.583-2.673c-.656.414-1.354.856-2.077,1.317l-21-62.643A19.816,19.816,0,0,0,72.88,140.9L71,140.256v-8.423L88.392,126.3a3.5,3.5,0,0,0,2.424-3.657L86.04,70.972c6.034-5.064,8.195-13.467,8.292-13.855A3.5,3.5,0,0,0,91.2,52.778l-5.548-.411c8.2-13.4,1.619-29.169,1.295-29.924a3.5,3.5,0,0,0-5.589-1.2c-15.4,14.191-41.141,26.03-55.117,31.823A22.043,22.043,0,0,0,12.7,74.273c1.317,31.753,9.938,60.517,12.2,67.588l-9.434,14.823a35.037,35.037,0,0,0-5.327,21.305c3.111,41.344,11.96,79.45,17.076,98.874A79.983,79.983,0,0,0,13.6,299.4a17.453,17.453,0,0,0,16.2,23.747l277.639,1ZM58.233,137.306a.718.718,0,0,1-.075-1.387L64,134.06v4.419ZM17.125,177.464a27.97,27.97,0,0,1,4.253-17.022L31.7,144.222a3.5,3.5,0,0,0,.36-3.007c-.109-.32-10.921-32.448-12.363-67.233a15.017,15.017,0,0,1,9.221-14.444c13.228-5.484,36.728-16.262,53.02-29.545,1.261,5.783,1.888,15.626-5.6,22.857a3.5,3.5,0,0,0,2.171,6.008l7.529.557a16.734,16.734,0,0,1-5.557,6.978,3.5,3.5,0,0,0-1.593,3.266l4.7,50.825-17.146,5.455-10.406,3.31a7.717,7.717,0,0,0,.8,14.916l9.747,1.982,4.04,1.375a12.778,12.778,0,0,1,7.952,7.988l21.568,64.333c-13.625,8.9-34.188,23.039-55.892,40.524a130.92,130.92,0,0,0-11.4,10.311C27.711,250.482,19.974,215.333,17.125,177.464Zm4.136,134.149a10.367,10.367,0,0,1-1.127-9.7c4.854-12.621,14.447-24.765,28.51-36.095a700.309,700.309,0,0,1,63.384-45.29,8.437,8.437,0,0,1,4.5-1.31,8.2,8.2,0,0,1,6.128,2.732,18.315,18.315,0,0,1,3.46,5.556,175.184,175.184,0,0,0-26.91,29.252,3.5,3.5,0,1,0,5.63,4.158,167.317,167.317,0,0,1,26.727-28.829c6.424-.661,43.448-4.042,83.272,1.335,39.638,5.353,90.286,20.729,106.473,63.582a14.759,14.759,0,0,1-1.683,13.815,14.538,14.538,0,0,1-12.1,6.329h-.057l-277.638-1A10.292,10.292,0,0,1,21.261,311.613Z" style="fill:#464965"/><path d="M190.531,151.494a3.5,3.5,0,0,0-.787,6.546,58.6,58.6,0,0,0,26.362,6.194,59.206,59.206,0,1,0,0-118.411,58.6,58.6,0,0,0-26.362,6.194,3.5,3.5,0,0,0,.787,6.546,47.653,47.653,0,0,1,0,92.931Zm44.082-46.466a54.311,54.311,0,0,0-32.941-50.184,52.206,52.206,0,1,1,0,100.369A54.311,54.311,0,0,0,234.613,105.028Z" style="fill:#464965"/></svg>