<?xml version="1.0" ?><svg id="icons" viewBox="0 0 340 340" xmlns="http://www.w3.org/2000/svg" xmlns:xlink="http://www.w3.org/1999/xlink"><defs><linearGradient gradientUnits="userSpaceOnUse" id="linear-gradient" x1="111.571" x2="111.571" y1="60.969" y2="347.822"><stop offset="0" stop-color="#ff6185"/><stop offset="1" stop-color="#e2407a"/></linearGradient><linearGradient id="linear-gradient-2" x1="140.81" x2="140.81" xlink:href="#linear-gradient" y1="60.969" y2="347.822"/><linearGradient id="linear-gradient-3" x1="270.141" x2="270.141" xlink:href="#linear-gradient" y1="109.192" y2="283.013"/></defs><title/><path d="M84.714,45.284s36.335-6.965,82.954,0l-8.858,43.95a47.708,47.708,0,0,0-32.619-12.64,51.857,51.857,0,0,0-33.624,12.64S84.116,62.9,84.714,45.284Z" style="fill:#464965"/><path d="M191.214,78.989s-11.542-24.471-23.546-33.705c0,0-25.394,119.12-135.741,225.773a130.331,130.331,0,0,0,28.945,3.9s3.83,7.626,7.068,22.876C67.94,297.836,167.206,199.031,191.214,78.989Z" style="fill:url(#linear-gradient)"/><path d="M116.445,239.237c6.874-9.557,14-20.084,21.044-31.43L111.114,173.33q-7.667,12.232-16.646,24.931A342.053,342.053,0,0,0,116.445,239.237Z" style="fill:#464965"/><path d="M61.167,78.989S72.709,54.518,84.714,45.284c0,0,25.393,119.12,135.74,225.773a130.331,130.331,0,0,1-28.945,3.9s-3.83,7.626-7.068,22.876C184.441,297.836,85.175,199.031,61.167,78.989Z" style="fill:url(#linear-gradient-2)"/><path d="M299.129,166.665a457.592,457.592,0,0,1-23.466-68.528,5.7,5.7,0,0,0-11.044,0,457.5,457.5,0,0,1-23.467,68.528s-16.278,35.232-4.9,56.639c.114.215.23.429.346.64,14.57,26.387,52.526,26.387,67.1,0,.116-.211.232-.425.346-.64C315.407,201.9,299.129,166.665,299.129,166.665Z" style="fill:url(#linear-gradient-3)"/><ellipse cx="254.774" cy="204.878" rx="10.249" ry="12.811" style="fill:#fff" transform="translate(-56.351 104.45) rotate(-20.915)"/><path d="M29.494,268.541a3.5,3.5,0,0,0,1.5,5.888,132.144,132.144,0,0,0,27.575,3.963,117.873,117.873,0,0,1,5.952,20.171,3.5,3.5,0,0,0,5.893,1.753c.252-.25,47.916-54.984,55.782-68.845.925,1.345,1.843,2.671,2.75,3.966,27.675,39.5,52.781,64.63,53.031,64.879a3.5,3.5,0,0,0,5.893-1.753,117.816,117.816,0,0,1,5.953-20.171,132.127,132.127,0,0,0,27.574-3.963,3.5,3.5,0,0,0,1.5-5.888,516.848,516.848,0,0,1-68.843-82.095c20.059-36.472,33.726-72.387,40.6-106.771a3.5,3.5,0,0,0-.267-2.179c-.486-1.031-12.047-25.347-24.579-34.986a4.573,4.573,0,0,0-1.616-.687c-46.671-6.975-82.622-.265-84.131.024a3.705,3.705,0,0,0-1.474.663C70.048,52.149,58.487,76.465,58,77.5a3.5,3.5,0,0,0-.266,2.179c7.812,39.064,23.642,75.809,40.655,106.788A517.225,517.225,0,0,1,29.494,268.541ZM187.549,79.456c-6.6,32.322-19.351,66.069-37.887,100.4-7.35-11.232-13.813-22.043-19.462-32.212,24.616-45.213,35.777-82.024,39.443-95.8C177.99,60.708,185.569,75.455,187.549,79.456Zm-73.073,37.455c-5.113-10.93-9.331-21.012-12.787-29.975a48.177,48.177,0,0,1,24.5-6.842,44.929,44.929,0,0,1,24.375,7.13A485.5,485.5,0,0,1,126.2,140.308C121.739,131.958,117.844,124.11,114.476,116.911Zm48.883-68.7c-1.4,5.481-4.578,16.858-10.275,32.34a51.844,51.844,0,0,0-26.893-7.456,55.035,55.035,0,0,0-27,7.2C93.535,64.882,90.385,53.56,89,48.14A279.592,279.592,0,0,1,163.359,48.21ZM82.72,51.861c2.827,10.743,10.19,35.428,25.313,67.8a526.235,526.235,0,0,0,105.378,149.4,131.766,131.766,0,0,1-21.976,2.4,3.5,3.5,0,0,0-3.053,1.928c-.141.28-3,6.053-5.885,17.368a554.061,554.061,0,0,1-47.823-59.337c-25.03-35.727-57.383-91.006-69.842-151.964C66.811,75.458,74.38,60.729,82.72,51.861Zm39.25,173.381q-2.677,3.933-5.331,7.7a345.213,345.213,0,0,1-18.148-34.3q1.877-2.664,3.72-5.351C108.829,204.9,115.544,215.619,121.97,225.242ZM93.821,205.166a338.061,338.061,0,0,0,18.4,33.939,549.561,549.561,0,0,1-42.34,51.651C67,279.441,64.14,273.669,64,273.389a3.5,3.5,0,0,0-3.053-1.928,131.965,131.965,0,0,1-21.973-2.4A524.334,524.334,0,0,0,93.821,205.166Z" style="fill:#464965"/><path d="M270.14,90.348a9.09,9.09,0,0,0-8.911,6.916A455.752,455.752,0,0,1,237.975,165.2c-.694,1.5-16.868,37.07-4.82,59.748.122.23.246.458.374.691a41.83,41.83,0,0,0,73.224,0q.189-.342.373-.689c11.973-22.537-3.922-57.8-4.8-59.716a455.963,455.963,0,0,1-23.269-67.966A9.091,9.091,0,0,0,270.14,90.348Zm25.784,77.722.028.061c.155.337,15.408,33.924,4.991,53.533q-.157.3-.318.588a34.83,34.83,0,0,1-60.965.006l-.322-.6c-10.417-19.607,4.837-53.194,5.02-53.592a463.085,463.085,0,0,0,23.65-69.062,2.2,2.2,0,0,1,4.266,0A462.929,462.929,0,0,0,295.924,168.07Z" style="fill:#464965"/></svg>