<?xml version="1.0" ?><svg id="icons" viewBox="0 0 340 340" xmlns="http://www.w3.org/2000/svg" xmlns:xlink="http://www.w3.org/1999/xlink"><defs><radialGradient cx="182.135" cy="89.651" gradientUnits="userSpaceOnUse" id="radial-gradient" r="126.613"><stop offset="0" stop-color="#f97d7d"/><stop offset="1" stop-color="#fcd0be"/></radialGradient><linearGradient gradientUnits="userSpaceOnUse" id="linear-gradient" x1="44.527" x2="44.527" y1="283.765" y2="112.569"><stop offset="0" stop-color="#ff6185"/><stop offset="1" stop-color="#e2407a"/></linearGradient></defs><title/><path d="M67.7,260.94v-107.3a23.171,23.171,0,0,0-23.171-23.171h0a23.171,23.171,0,0,0-23.17,23.171v107.3a34.383,34.383,0,1,0,46.341,0Z" style="fill:#fff"/><path d="M128.369,19.278s55.37,23.925,131.714,24.96a20.944,20.944,0,0,1,20.35,17.03c4.647,24.67,13.473,71.991,21.153,115.873,0,0,38.838,58.043,25.521,143.581H174.822s15.747-79.8,65.744-124.291l-.394-21.258-37,14.96L195.294,170s11.81-6.244,23.226-12.542c0,0-8.267-27.164-42.517-20.078,0,0-6.77-23.227-8.9-42.517,0,0-19.448.394-26.141-17.715l18.5-5.118S126.007,59.039,128.369,19.278Z" style="fill:url(#radial-gradient)"/><path d="M256.046,108.739c-5.031-13.744-8.624-25.48-8.624-25.48S243.83,95,238.8,108.739c-2.684,7.333-.529,11.547,2.3,13.928a9.683,9.683,0,0,0,12.65,0C256.574,120.286,258.73,116.072,256.046,108.739Z" style="fill:#fff"/><path d="M240.173,175.173l.393,21.258,22.42-20.782a4.8,4.8,0,0,0-5.136-7.948Z" style="fill:#464965"/><path d="M51.783,269.634V167.593A7.421,7.421,0,0,0,45.01,160.1a7.257,7.257,0,0,0-7.738,7.24V269.632a11.04,11.04,0,0,1-2.8,7.264,13.3,13.3,0,0,0-3.268,9.777,13.363,13.363,0,0,0,26.689-.991,13.289,13.289,0,0,0-3.4-8.894A10.718,10.718,0,0,1,51.783,269.634Z" style="fill:url(#linear-gradient)"/><circle cx="97.435" cy="199.588" r="3.5" style="fill:#8b9ac9"/><path d="M97.432,154.758a3.5,3.5,0,0,1-.161-7l19.9-.936-1.546-10.408a3.5,3.5,0,0,1,3.347-4.012c.858-.028,21.181-.606,39.311,6.88a3.5,3.5,0,1,1-2.672,6.469c-12.222-5.047-25.89-6.114-32.462-6.32l1.514,10.191a3.5,3.5,0,0,1-3.3,4.011L97.6,154.754C97.543,154.757,97.487,154.758,97.432,154.758Z" style="fill:#8b9ac9"/><path d="M113.463,196.309a3.5,3.5,0,0,1-1.342-6.734l18.407-7.631-4.983-9.266a3.5,3.5,0,0,1,1.787-4.91c.8-.316,19.732-7.744,39.315-6.86a3.5,3.5,0,0,1-.319,6.993c-13.22-.609-26.43,3.027-32.681,5.062l4.88,9.074a3.5,3.5,0,0,1-1.742,4.892L114.8,196.042A3.508,3.508,0,0,1,113.463,196.309Z" style="fill:#8b9ac9"/><path d="M139.066,239.92a3.5,3.5,0,0,1-2.689-5.739l12.741-15.319-8.722-5.884a3.5,3.5,0,0,1-.7-5.177c.556-.651,13.844-16.039,31.607-24.366a3.5,3.5,0,0,1,2.971,6.338c-11.944,5.6-21.974,14.976-26.57,19.69l8.539,5.76a3.5,3.5,0,0,1,.734,5.14l-15.217,18.295A3.492,3.492,0,0,1,139.066,239.92Z" style="fill:#8b9ac9"/><path d="M44.527,324.222A37.881,37.881,0,0,0,71.2,259.44v-105.8a26.671,26.671,0,1,0-53.341,0v105.8a37.88,37.88,0,0,0,26.67,64.782Zm-20.811-60.7a3.5,3.5,0,0,0,1.141-2.585v-107.3a19.671,19.671,0,1,1,39.341,0v107.3a3.5,3.5,0,0,0,1.141,2.585,30.883,30.883,0,1,1-41.623,0Z" style="fill:#464965"/><path d="M304.91,175.836c-7.663-43.759-16.461-90.921-21.038-115.216a24.533,24.533,0,0,0-23.741-19.881C185.439,39.726,130.305,16.3,129.757,16.064a3.5,3.5,0,0,0-4.882,3.006c-1.734,29.2,15.022,44.963,25.417,51.867l-10.259,2.837a3.5,3.5,0,0,0-2.35,4.587c5.232,14.156,18.089,18.973,26.3,19.851,2.429,18.657,8.392,39.236,8.658,40.148a3.5,3.5,0,0,0,4.069,2.447c24.767-5.121,34.448,9.017,37.393,15.085-10.358,5.677-20.339,10.956-20.448,11.014a3.5,3.5,0,0,0-1.624,4.369l7.874,20.133a3.5,3.5,0,0,0,4.572,1.969l32.288-13.052.27,14.574c-49.351,44.919-65,121.866-65.648,125.145a3.488,3.488,0,0,0-.064.678H178.4c1.671-7.775,18.378-80.643,64.494-121.676.009-.008.015-.018.024-.027s.019-.013.027-.021l23.047-21.363a8.153,8.153,0,0,0-8.715-13.49l-18.418,7.784-33.721,13.632-5.448-13.933c4.18-2.226,12.487-6.673,20.522-11.106a3.5,3.5,0,0,0,1.658-4.083c-.09-.294-9.057-28.383-43.35-23.07-1.869-6.872-6.311-24.168-7.934-38.889a3.5,3.5,0,0,0-3.477-3.116h-.073c-.108.021-14.4.14-21.179-11.937L160.4,75.4a3.5,3.5,0,0,0,.333-6.637c-.3-.115-28.31-11.385-28.971-44.386,15.152,5.721,64.832,22.5,128.271,23.357a17.512,17.512,0,0,1,16.958,14.178c4.6,24.408,13.46,71.912,21.146,115.829a3.507,3.507,0,0,0,.538,1.343c.381.569,37.929,57.87,24.972,141.1a3.508,3.508,0,0,0-.03.539h7.024a231.26,231.26,0,0,0-7.968-104.931C315.416,193.05,306.9,178.96,304.91,175.836ZM260,170.592a1.154,1.154,0,0,1,1.233,1.909L243.921,188.55l-.206-11.074Z" style="fill:#464965"/></svg>