<?xml version="1.0" ?><svg id="icons" viewBox="0 0 340 340" xmlns="http://www.w3.org/2000/svg" xmlns:xlink="http://www.w3.org/1999/xlink"><defs><linearGradient gradientUnits="userSpaceOnUse" id="New_Gradient_Swatch_6" x1="140.734" x2="146.755" y1="-3.076" y2="129.389"><stop offset="0" stop-color="#fcd0be"/><stop offset="1" stop-color="#efa69a"/></linearGradient><radialGradient cx="85.302" cy="291.058" gradientUnits="userSpaceOnUse" id="radial-gradient" r="82.013"><stop offset="0" stop-color="#f97d7d"/><stop offset="1" stop-color="#fcd0be"/></radialGradient><linearGradient gradientUnits="userSpaceOnUse" id="linear-gradient" x1="109.191" x2="181.716" y1="268.262" y2="341.276"><stop offset="0" stop-color="#f3f8ff"/><stop offset="1" stop-color="#c9d4e5"/></linearGradient></defs><title/><path d="M98.7,10s23.831,16.987,78.017,23.063a14.9,14.9,0,0,1,13.193,14.822v83.04H116.847l-3.63-70.336S99.6,56.5,95.973,43.345l12.706-3.631S95.973,32.47,98.7,10Z" style="fill:url(#New_Gradient_Swatch_6)"/><path d="M142.94,130.925v31.794L96.8,183.786A21.47,21.47,0,0,0,85.053,197.45C79.2,218.056,66.6,268.842,67.662,321.259L183.213,330h93.669a988.872,988.872,0,0,0-23.974-132.351,21.463,21.463,0,0,0-11.192-13.826l-51.81-25.918v-26.98Z" style="fill:url(#radial-gradient)"/><polygon points="189.906 130.925 142.94 130.925 142.94 162.719 189.906 141.276 189.906 130.925" style="fill:#464965"/><path d="M228.752,282.568a46.168,46.168,0,0,0-14.129-24.5,7.055,7.055,0,0,1-2.173-6.888c9.113-39.147,9.113-77.44,9.113-77.442h-6.571l-26.749,81.214H121.984l-4.525-80.6-9.347,74.88a13.556,13.556,0,0,1-6.746,10.1l-.056.032A56.148,56.148,0,0,0,77,286.317h100.91L163.526,330h45.191c9.439-2.654,14.761-10.5,17.724-17.679A49.4,49.4,0,0,0,228.752,282.568Z" style="fill:#cc6262"/><polygon points="117.459 174.353 142.94 162.719 139.17 270.234 117.459 270.234 117.459 174.353" style="fill:#464965"/><path d="M121.331,263.377a51.406,51.406,0,0,0-8.342.678l-12.4,3.739A47.939,47.939,0,0,0,95,270.777c-10.76,6.706-24.183,18.5-29.623,37.45,0,0,137.773,10.656,141.108-4.221a33.419,33.419,0,0,0,.806-7.318h0a33.311,33.311,0,0,0-33.311-33.311H135.718a18.569,18.569,0,0,1-8.292,0Z" style="fill:url(#linear-gradient)"/><path d="M206.479,304a32.467,32.467,0,0,1-16.573,4.225H65.389a63.272,63.272,0,0,0-2.228,12.234A8.943,8.943,0,0,0,72.215,330H173.983A33.317,33.317,0,0,0,206.479,304Z" style="fill:#464965"/><path d="M154.326,110.2a13.231,13.231,0,0,1-6.514-1.706l-.322-.182a6.228,6.228,0,0,0-5.211-.43l-5.219,1.907a3.5,3.5,0,0,1-2.4-6.574l5.219-1.907a13.223,13.223,0,0,1,11.057.91l.323.182a6.262,6.262,0,0,0,6.187-.027,13.152,13.152,0,0,1,11.494-.838l2.088.828a3.5,3.5,0,1,1-2.582,6.506l-2.087-.828a6.209,6.209,0,0,0-5.415.4A13.244,13.244,0,0,1,154.326,110.2Z" style="fill:#cc6262"/><path d="M202.385,164.147S173.425,282.5,142.94,330h25.4s38.959-73.03,53.228-156.259Z" style="fill:#464965"/><path d="M243.281,180.693,223.13,170.612h0l-6.931-3.467-22.792-11.4V47.885a18.37,18.37,0,0,0-16.3-18.3C124.666,23.705,100.955,7.31,100.721,7.145a3.5,3.5,0,0,0-5.5,2.434c-1.789,14.768,2.621,23.662,6.537,28.473l-6.747,1.927a3.5,3.5,0,0,0-2.412,4.3c3.16,11.456,12.734,16.825,17.24,18.771l3.513,68.059a3.5,3.5,0,0,0,3.495,3.32H139.44V160.47L95.343,180.6a24.94,24.94,0,0,0-13.657,15.891c-5.6,19.706-15.285,59.33-17.242,103.3a3.387,3.387,0,0,0,.025.452,65.4,65.4,0,0,0-4.8,19.927,12.045,12.045,0,0,0,3.2,9.248,12.724,12.724,0,0,0,9.347,4.08H173.983a36.8,36.8,0,0,0,25.54-63.309A541.419,541.419,0,0,0,224.2,178.972l15.955,7.981a17.948,17.948,0,0,1,9.368,11.568c16.758,65.1,23.321,126.4,23.846,131.479h7a3.288,3.288,0,0,0,0-.344c-.063-.639-6.518-64.7-24.068-132.879A24.94,24.94,0,0,0,243.281,180.693ZM188.34,161.035l10.092,5.049c-2.2,10.9-11.421,54.255-25.945,93.793H143.036L146.362,165l40.044-18.282v11.183A3.5,3.5,0,0,0,188.34,161.035Zm-18.5,105.842a268.927,268.927,0,0,1-13.008,28.837c-3.325-11.839-2.027-24.56-1.434-28.837Zm-23.4-109.6V134.425h39.966v4.6Zm-26.269-29.849-3.459-67.017a3.5,3.5,0,0,0-2.49-3.172c-.1-.031-9.481-2.939-13.651-11.565l9.069-2.591a3.512,3.512,0,0,0,.8-6.387c-.392-.235-8.694-5.412-8.633-20.733,9.74,5.321,33.574,15.991,74.511,20.581a11.374,11.374,0,0,1,10.083,11.344v79.54ZM148.33,266.877c-.829,6.452-2.089,22.857,3.919,36.894-.2.322-.395.64-.593.958H124.265c.107-26.751,9.747-36.024,12.256-37.852Zm-31.067,37.852H94.137c2.026-23.333,14.2-34.5,16.96-36.736a47.731,47.731,0,0,1,10.234-1.116h6.032C123.175,272.858,117.328,284.779,117.263,304.729Zm3.7-128.127,18.284-8.347-3.212,91.622h-14.7c-.124,0-.248,0-.372.006Zm-32.539,21.8a17.951,17.951,0,0,1,9.831-11.436l15.708-7.172v80.573c-1.727.233-3.433.552-5.116.946l-.045.01a52.155,52.155,0,0,0-15.646,6.48,76.678,76.678,0,0,0-20.863,18.8A472.4,472.4,0,0,1,88.42,198.406Zm8.434,75.342c.1-.064.21-.117.313-.18-4.482,6.942-8.948,17.163-10.058,31.161H70.239C75.994,289.578,87.245,279.736,96.854,273.748ZM203.8,296.681a29.91,29.91,0,0,1-.429,5.031,29.652,29.652,0,0,1-13.263,3.026c-.063,0-5.1,0-5.1,0,2.568-5.3,6.81-14.549,11.741-27.265A29.83,29.83,0,0,1,203.8,296.681Zm-27.558,9.873c-1.2,2.651-.138,5.175,3.073,5.175l11.278.014a37.575,37.575,0,0,0,9.888-1.42,29.836,29.836,0,0,1-26.5,16.177H72.215a5.706,5.706,0,0,1-4.2-1.82,5.12,5.12,0,0,1-1.37-3.926,60.415,60.415,0,0,1,1.436-9.025h85.507a3.335,3.335,0,0,0,2.925-1.585c.006-.009.014-.015.02-.024q1.355-2.112,2.676-4.344l0,0c25.539-43.04,41.79-117.208,45.709-136.439l12.744,6.375C203.546,255.831,176.515,306.05,176.241,306.554Z" style="fill:#464965"/></svg>