<?xml version="1.0" ?><svg id="icons" viewBox="0 0 340 340" xmlns="http://www.w3.org/2000/svg" xmlns:xlink="http://www.w3.org/1999/xlink"><defs><linearGradient gradientUnits="userSpaceOnUse" id="New_Gradient_Swatch_6" x1="227.299" x2="219.352" y1="329.096" y2="164.646"><stop offset="0" stop-color="#fcd0be"/><stop offset="1" stop-color="#efa69a"/></linearGradient><radialGradient cx="98.945" cy="107.89" gradientUnits="userSpaceOnUse" id="radial-gradient" r="89.342"><stop offset="0" stop-color="#f97d7d"/><stop offset="1" stop-color="#fcd0be"/></radialGradient><linearGradient id="New_Gradient_Swatch_6-2" x1="155.664" x2="19.25" xlink:href="#New_Gradient_Swatch_6" y1="108.813" y2="-42.612"/></defs><title/><path d="M161.877,223.755l55.278,35.958-10.013-56.824,30.465-47.09s26.814,56.024,48.329,145.038a18.039,18.039,0,0,1-17.516,22.3H186.145Z" style="fill:url(#New_Gradient_Swatch_6)"/><path d="M197.389,246.855l-35.512-23.1,24.268,99.377h19.018C203.723,293.007,199.436,260.959,197.389,246.855Z" style="fill:#464965"/><path d="M149.142,49.816s12.593,1.368,21.779,8.6l-16.145,20.32Z" style="fill:#464965"/><path d="M218.581,27.006c22.644,14.219,70.44,41.455,105.876,42.553,0,0-9.684,23.836-37.988,23.836l12.662,9.311s-6.7,11.545-26.814,11.917c0,0-37.988,58.1-65.175,88.266L181.816,184.64l-17.131,24.58s20.141,48.183,30.539,113.912H22.789s4.571-85.211,90.869-201.8l49.255-59.5q14.587-15.893,31.24-32.237A19.839,19.839,0,0,1,218.581,27.006Z" style="fill:url(#radial-gradient)"/><path d="M181.816,184.64l-26.5-21.554a4.9,4.9,0,0,0-7.515,5.9,419.694,419.694,0,0,1,16.884,40.231Z" style="fill:#464965"/><path d="M203.336,174.908,174.76,152.744s8.015-12.412,19.337-13.681c0,0,7.735.894,12.728,6.316C220.39,160.109,203.336,174.908,203.336,174.908Z" style="fill:#fc6b98"/><path d="M209.488,144.854c16.859,15.21-3.844,32-3.844,32l-7.651-5.974c2.535-2.516,9.844-10.84,6.014-19.923a26.685,26.685,0,0,0-9.908-11.882C198.776,138.554,204.013,139.915,209.488,144.854Z" style="fill:#464965"/><circle cx="25.332" cy="48.488" r="3.5" style="fill:#8b9ac9"/><path d="M75.588,109.247a3.5,3.5,0,0,1-1.447-.314l-12.7-5.773a10.666,10.666,0,0,0-9.041.093l-3.314,1.589A17.641,17.641,0,0,1,37.8,106.206a88.754,88.754,0,0,1-24.047-9.325,3.5,3.5,0,0,1,3.581-6.015h0a83.016,83.016,0,0,0,21.942,8.5,10.6,10.6,0,0,0,6.783-.834l3.314-1.588a17.649,17.649,0,0,1,14.963-.154l12.7,5.773a3.5,3.5,0,0,1-1.45,6.687Z" style="fill:#8b9ac9"/><path d="M89.965,84.407a3.487,3.487,0,0,1-2.165-.752L76.844,75.013a10.66,10.66,0,0,0-8.8-2.071l-3.6.75a17.644,17.644,0,0,1-11.285-1.373,86.758,86.758,0,0,1-15.073-9.588,3.5,3.5,0,0,1,4.326-5.5,79.614,79.614,0,0,0,13.817,8.8,10.613,10.613,0,0,0,6.785.811l3.6-.75A17.641,17.641,0,0,1,81.18,69.517l10.954,8.641a3.5,3.5,0,0,1-2.169,6.249Z" style="fill:#8b9ac9"/><path d="M109.753,62.435a3.5,3.5,0,0,1-2.928-1.577L99.158,49.2a10.662,10.662,0,0,0-7.7-4.744l-3.651-.423a17.648,17.648,0,0,1-10.274-4.865A88.772,88.772,0,0,1,62.168,18.455a3.5,3.5,0,0,1,6.237-3.177h0a83.063,83.063,0,0,0,14.03,18.889,10.6,10.6,0,0,0,6.182,2.912l3.651.424a17.651,17.651,0,0,1,12.739,7.85l7.667,11.658a3.5,3.5,0,0,1-2.921,5.424Z" style="fill:#8b9ac9"/><path d="M221.992,111.342a3.486,3.486,0,0,1-.367-.02c-12.155-1.266-16.763-9.728-17.5-14.025a3.5,3.5,0,0,1,6.892-1.222c.156.775,1.745,7.286,11.334,8.285a3.5,3.5,0,0,1-.358,6.982Z" style="fill:#cc6262"/><path d="M250.775,131.63a19.013,19.013,0,0,1-17.25-10,3.5,3.5,0,0,1,6.315-3.02,12.088,12.088,0,0,0,10.935,6.021,3.5,3.5,0,0,1,0,7Z" style="fill:#cc6262"/><path d="M114.8,109.436l7.112,13.228a10.379,10.379,0,0,0,12.734,4.822h0a10.6,10.6,0,0,0,6.768-11.784l-.273-1.546,16.1-17.638a16.389,16.389,0,0,0,3.22-16.868L149.142,49.816s-22.584,16.764-35.021,48.8A12.965,12.965,0,0,0,114.8,109.436Z" style="fill:url(#New_Gradient_Swatch_6-2)"/><path d="M195.282,173.091a3.5,3.5,0,0,0,.557.551l7.651,5.973a3.5,3.5,0,0,0,4.359-.04c.467-.379,11.437-9.408,11.744-21.066.157-6-2.454-11.465-7.761-16.253-5.619-5.07-11.639-7.31-17.907-6.674-.073,0-.144,0-.217,0-12.825,1.437-21.524,14.7-21.888,15.261a3.5,3.5,0,0,0,.8,4.664Zm11.861-25.638c3.764,3.4,5.548,6.944,5.453,10.848-.141,5.823-4.423,11.129-7.081,13.874-.012-.01-.021-.022-.034-.032l-2.34-1.816c3.438-4.416,7.69-12.193,4.091-20.727a30.215,30.215,0,0,0-1.782-3.558Q206.3,146.689,207.143,147.453Zm-13.934-4.706a22.925,22.925,0,0,1,7.573,9.574c2.246,5.324-.707,10.586-3.165,13.722L179.635,152.1C182.223,148.985,187.19,143.991,193.209,142.747Z" style="fill:#464965"/><path d="M326.427,66.66a3.605,3.605,0,0,0-1.958-.6c-35.316-1.144-84.5-29.758-104.027-42.016a23.264,23.264,0,0,0-28.737,3.051c-8.354,8.179-16.508,16.5-24.377,24.856A56.582,56.582,0,0,0,149.7,46.577a3.1,3.1,0,0,0-2.368.653c-4.848,3.88-25.361,21.5-36.471,50.116a16.429,16.429,0,0,0,.864,13.747h0l2.185,4.063c-46.31,61.59-69.548,114.6-80.888,148.266-12.383,36.76-13.675,58.61-13.724,59.523,0,.063.009.124.009.187H26.3c.149-2.135,1.894-23.563,13.472-57.821,11.026-32.628,33.456-83.773,77.795-143.35l1.269,2.36a13.949,13.949,0,0,0,12.271,7.3,13.73,13.73,0,0,0,4.758-.849,14.088,14.088,0,0,0,9.029-15.526l14.943-16.366a19.79,19.79,0,0,0,3.906-20.47l-3.289-8.664c11.379-12.636,23.54-25.3,36.151-37.649a16.285,16.285,0,0,1,20.117-2.125c23.6,14.816,67.162,39.306,102.055,42.723-4.117,6.335-13.824,17.141-32.151,17.2a3.644,3.644,0,0,0-3.052,1.532,3.506,3.506,0,0,0,.825,4.789l9.7,7.129c-3,2.951-9.616,7.554-21.841,7.78a3.5,3.5,0,0,0-2.865,1.584c-.368.564-36.232,55.289-62.762,85.5l-22.678-16.342L157.524,160.37a8.253,8.253,0,0,0-10.441-.126,8.638,8.638,0,0,0-2.3,10.551,409.246,409.246,0,0,1,16.6,39.59c.014.042.036.078.052.118.008.022.009.045.018.067.2.479,20.106,48.6,30.312,113.109a3.5,3.5,0,0,0,3.452,2.954h72.665a22.13,22.13,0,0,0,17-7.663,21.436,21.436,0,0,0,4.459-18.939c-16.913-69.978-36.95-119.394-45.266-138.4,14.425-19.907,26.67-38.276,30.17-43.569,20.405-1.065,27.607-13.069,27.912-13.594a3.5,3.5,0,0,0-.953-4.577l-5.258-3.867c23.064-4.428,31.369-24.2,31.752-25.142A3.511,3.511,0,0,0,326.427,66.66Zm-171.762,27.5-16.1,17.638a3.5,3.5,0,0,0-.863,2.968l.273,1.546a7.093,7.093,0,0,1-4.532,7.893,6.911,6.911,0,0,1-8.441-3.2l-7.111-13.228h0a9.444,9.444,0,0,1-.5-7.9,119.241,119.241,0,0,1,30.24-44.2L157.2,80.893A12.827,12.827,0,0,1,154.665,94.158Zm3-31.758-3-7.89a47.079,47.079,0,0,1,7.681,2.778Q159.987,59.843,157.663,62.4Zm-6.705,105.08a1.28,1.28,0,0,1,.4-1.691,1.308,1.308,0,0,1,1.752.012l23.979,19.5-11.428,16.4C161.6,190.921,156.68,179.447,150.958,167.48ZM198.2,319.632A587.193,587.193,0,0,0,178.9,239l15.251,9.921c2.135,14.893,5.816,43.21,7.327,70.707Zm84.34-17.957a14.536,14.536,0,0,1-14.119,17.957H208.488c-1.329-24.5-4.374-49.674-6.56-65.648l13.318,8.663a3.5,3.5,0,0,0,5.355-3.542l-7.809-44.316A3.5,3.5,0,1,0,205.9,216l6.41,36.381-36.778-23.923c-.028-.019-.059-.028-.087-.045-3.149-9.311-5.638-15.8-6.806-18.748l14.017-20.111,22.44,16.17a3.5,3.5,0,0,0,4.646-.5c9.212-10.221,19.7-23.7,29.544-37.048C248.294,189.269,266.77,236.433,282.538,301.675Z" style="fill:#464965"/></svg>