<?xml version="1.0" ?><svg id="icons" viewBox="0 0 340 340" xmlns="http://www.w3.org/2000/svg" xmlns:xlink="http://www.w3.org/1999/xlink"><defs><radialGradient cx="349.637" cy="136.4" gradientUnits="userSpaceOnUse" id="radial-gradient" r="76.206"><stop offset="0" stop-color="#f97d7d"/><stop offset="1" stop-color="#fcd0be"/></radialGradient><radialGradient cx="300.763" cy="39.806" id="radial-gradient-2" r="124.806" xlink:href="#radial-gradient"/><linearGradient gradientUnits="userSpaceOnUse" id="linear-gradient" x1="109.677" x2="235.477" y1="111.192" y2="197.082"><stop offset="0" stop-color="#f3f8ff"/><stop offset="1" stop-color="#c9d4e5"/></linearGradient><radialGradient cx="155.838" cy="58.226" id="radial-gradient-3" r="63.585" xlink:href="#radial-gradient"/><linearGradient id="linear-gradient-2" x1="66.872" x2="192.672" xlink:href="#linear-gradient" y1="173.886" y2="259.777"/></defs><title/><path d="M320.627,143.467s4.029,9.819,3.93,26.513a17.72,17.72,0,0,1-3.533,10.574,150.859,150.859,0,0,1-30.568,29.882L251.583,187.9S294.191,167.415,320.627,143.467Z" style="fill:url(#radial-gradient)"/><path d="M183.906,111.812s36.576-43.3,51.193-82.486c0,0,47.734,33.329,73.488,67.149a11.4,11.4,0,0,1,1.689,10.756C305,121.965,288.969,161.874,261.54,189.8,261.54,189.8,204.868,151.379,183.906,111.812Z" style="fill:url(#radial-gradient-2)"/><path d="M140.749,153.033s27.235-22.365,43.157-41.221c0,0,38.375,46.407,86.857,85.635,0,0-53.336,16.681-122.053-9.546Z" style="fill:url(#linear-gradient)"/><path d="M148.045,165.064s-1.575.729-4.084,2.036l4.749,20.8c68.717,26.227,122.053,9.546,122.053,9.546q-3.358-2.716-6.649-5.475C199.766,189.681,148.045,165.064,148.045,165.064Z" style="fill:#78859e"/><path d="M90.172,153.033l2.233-20.8a16.638,16.638,0,0,1,5.411-10.591L150.836,73.9s27.5,20.751-7,56.752l6.841,35.6S104.51,177.666,90.172,153.033Z" style="fill:url(#radial-gradient-3)"/><path d="M150.676,166.25s-37.6-14.084-59.1-26.272l-1.4,13.055c14.338,24.633,64.664,34.868,64.664,34.868Z" style="fill:#c46262"/><path d="M90.172,153.033s72.907,49.442,180.591,44.414l19.693,12.989s-46.509,41.482-128.215,63.689c0,0-24.722,29.606-46.091,48.605,0,0-41.9-19.275-70.392-80.03l35.615-38.549A410.9,410.9,0,0,0,90.172,153.033Z" style="fill:url(#linear-gradient-2)"/><circle cx="32.087" cy="55.601" r="3.717" style="fill:#8b9ac9"/><path d="M79.686,122.014a3.47,3.47,0,0,1-1.312-.257L64.637,116.2a11.551,11.551,0,0,0-9.772.513l-3.447,1.833a18.512,18.512,0,0,1-11.775,1.93,93.976,93.976,0,0,1-25.865-8.8,3.5,3.5,0,1,1,3.327-6.158,88.429,88.429,0,0,0,23.726,8.056,11.467,11.467,0,0,0,7.3-1.211l3.448-1.833a18.515,18.515,0,0,1,15.685-.821L81,115.269a3.5,3.5,0,0,1-1.313,6.745Z" style="fill:#8b9ac9"/><path d="M95.871,96.516a3.486,3.486,0,0,1-2.333-.892L82.494,85.743a11.555,11.555,0,0,0-9.369-2.827l-3.863.559A18.507,18.507,0,0,1,57.529,81.3a91.859,91.859,0,0,1-15.31-11.129,3.5,3.5,0,0,1,4.659-5.225,84.616,84.616,0,0,0,14.1,10.264,11.465,11.465,0,0,0,7.278,1.333l3.863-.559a18.533,18.533,0,0,1,15.038,4.538l11.044,9.881a3.5,3.5,0,0,1-2.334,6.109Z" style="fill:#8b9ac9"/><path d="M112.724,79.3a3.5,3.5,0,0,1-3.413-2.741l-3.217-14.465a11.544,11.544,0,0,0-5.966-7.758l-3.465-1.8a18.509,18.509,0,0,1-8.27-8.6,94,94,0,0,1-7.431-26.29,3.5,3.5,0,1,1,6.958-.754A88.417,88.417,0,0,0,94.748,41a11.465,11.465,0,0,0,5.137,5.324l3.465,1.8a18.527,18.527,0,0,1,9.577,12.452l3.217,14.465a3.5,3.5,0,0,1-3.42,4.261Z" style="fill:#8b9ac9"/><path d="M156.441,258.029a28.738,28.738,0,0,0-16.116,10.84c-13.292,18.148-32.175,36.017-40.379,43.468,9.665,7.382,16.2,10.393,16.2,10.393,21.369-19,46.091-48.605,46.091-48.605,81.706-22.207,128.215-63.689,128.215-63.689l-19.693-12.989C245.23,232.485,181.556,251.634,156.441,258.029Z" style="fill:#464965"/><path d="M321.4,140.054a3.493,3.493,0,0,0-3.123.819c-9.659,8.751-21.586,17.047-32.385,23.837a273.263,273.263,0,0,0,29.683-62.2,3.5,3.5,0,0,0-.468-3.024c-24.645-35.563-75.837-71.517-78-73.031A3.5,3.5,0,0,0,231.82,28.1c-14.231,38.151-50.226,81.023-50.587,81.451l0,0c-4.041,4.784-8.844,9.817-13.726,14.634l-.006,0c-6.418,6.332-12.967,12.287-18.106,16.819l-1.781-9.27c12.262-13.225,17.983-26.089,17.006-38.251a32.731,32.731,0,0,0-11.673-22.391,3.5,3.5,0,0,0-4.449.193l-53.02,47.74a20.114,20.114,0,0,0-6.55,12.82l-2.232,20.8h0v0a415.949,415.949,0,0,1-8.5,49.778L62.2,219.75v0L43.187,240.324a3.5,3.5,0,1,0,5.141,4.75l15.478-16.752c6.083,11.985,24.228,43.414,54.765,60.855-8.584,9.1-20.978,20.569-20.978,20.569-1.8,1.652-1.97,3.924.227,5.373,9.863,7.533,16.586,10.66,16.868,10.79a3.5,3.5,0,0,0,3.788-.564c19.294-17.153,41.511-43.133,45.739-48.131,79.03-21.723,125.88-61.82,128.454-64.063a154.881,154.881,0,0,0,31.151-30.492A21.073,21.073,0,0,0,328.057,170c.1-17.2-4.016-27.434-4.191-27.861A3.5,3.5,0,0,0,321.4,140.054Zm-60.1,44.934c-7.833-6.732-15.326-13.554-22.336-20.205,31-37.414,45.7-71.841,50.557-84.82a193.984,193.984,0,0,1,18.841,22.1C305.387,110.945,289.809,154.547,261.3,184.988ZM85.168,203.344c.594-2.51,1.786-7.739,3.152-14.776,14.577,9.8,62.858,39.186,126.053,45.677-24.977,12.476-58.8,20.392-58.8,20.392C131.852,249.773,90.273,209.863,85.168,203.344Zm141.475,24.843c-72.059-3.875-126.736-39.978-136.928-47.148,1.156-6.55,2.332-14.073,3.307-22.094a281.735,281.735,0,0,0,45.849,21.463c16.324,6.045,59.788,24.085,124.324,20.8C253.7,211.788,240.645,220.745,226.643,228.187Zm-20.792-37.712a426.1,426.1,0,0,1-31.838-62.891c3.429-3.429,6.794-6.943,9.863-10.394,3.694,4.305,11.071,12.733,21.083,23.354a3.571,3.571,0,0,0,.319.357c.021.019.045.032.066.05,7.473,7.916,16.388,17.023,26.338,26.557.075.076.138.159.221.229.02.017.043.028.064.045,9.064,8.676,18.972,17.69,29.417,26.465A325.331,325.331,0,0,1,205.851,190.475ZM284.043,74.49c-3.144,8.874-17.439,45.8-50.151,85.435-7.949-7.7-15.181-15.063-21.469-21.675,28.32-31.872,44.67-70.152,49.81-83.4C269.213,60.708,276.754,67.387,284.043,74.49ZM236.716,34.8C240.8,37.792,248,43.188,256.529,50.13c-3.767,9.958-20.128,50.36-48.928,83-9.359-10.022-16.068-17.751-19.133-21.344C195.928,102.653,223.105,68.178,236.716,34.8Zm-68.107,98.072A440.037,440.037,0,0,0,196.7,188.928,333.238,333.238,0,0,1,156.69,179l-5.769-30.024C155.534,144.975,161.965,139.246,168.609,132.876ZM95.884,132.6a13.134,13.134,0,0,1,4.273-8.365l50.637-45.592a25.827,25.827,0,0,1,6.844,15.41c.843,10.488-4.651,21.985-16.329,34.171a3.5,3.5,0,0,0-.91,3.082l8.684,45.2c-29.89-10.214-49.477-21.694-55.2-25.256ZM68.9,222.805l12.242-13.249c7.454,9.287,30.287,35.694,60.957,52.209a31.8,31.8,0,0,0-4.6,5.036c-4.267,5.826-9.145,11.642-14.05,17.085C91.7,266.445,73.185,231.587,68.9,222.805Zm92.42,47.942a3.505,3.505,0,0,0-1.769,1.135c-.238.285-23.435,27.993-43.946,46.629a102.793,102.793,0,0,1-10.168-6.471c5.3-4.925,13.186-12.538,21.236-21.3.07-.07.135-.143.2-.219a236.094,236.094,0,0,0,16.273-19.583,25.307,25.307,0,0,1,14.156-9.518c25.616-6.522,87.007-25.157,114.241-59.263l13.038,8.6C272.328,220.533,228.785,252.412,161.323,270.747Zm156.905-92.3a147.231,147.231,0,0,1-27.908,27.706L272.834,194.62q-3.123-2.528-6.189-5.1c3.178-3.405,38.457-28.252,52.2-39.853a83.979,83.979,0,0,1,2.212,20.288A14.122,14.122,0,0,1,318.228,178.448Z" style="fill:#464965"/></svg>