<?xml version="1.0" ?><svg id="_x31_-outline-expand" style="enable-background:new 0 0 64 64;" version="1.1" viewBox="0 0 64 64" xml:space="preserve" xmlns="http://www.w3.org/2000/svg" xmlns:xlink="http://www.w3.org/1999/xlink"><rect height="42" style="fill:#AA494A;" width="62" x="1" y="11"/><polygon points="12,21.686 14.163,26.069 19,26.772 15.5,30.183 16.326,35 12,32.726 7.674,35 8.5,30.183   5,26.772 9.837,26.069 " style="fill:#EFBC2E;"/><polygon points="23,14.884 23.831,16.568 25.69,16.838 24.345,18.149 24.663,20 23,19.126 21.337,20   21.655,18.149 20.31,16.838 22.169,16.568 " style="fill:#EFBC2E;"/><polygon points="23,38 23.831,39.685 25.69,39.954 24.345,41.266 24.663,43.116 23,42.242 21.337,43.116   21.655,41.266 20.31,39.954 22.169,39.685 " style="fill:#EFBC2E;"/><polygon points="27.69,22 28.522,23.685 30.38,23.954 29.035,25.266 29.353,27.116 27.69,26.242   26.027,27.116 26.345,25.266 25,23.954 26.859,23.685 " style="fill:#EFBC2E;"/><polygon points="27.69,30.116 28.522,31.801 30.38,32.071 29.035,33.382 29.353,35.233 27.69,34.359   26.027,35.233 26.345,33.382 25,32.071 26.859,31.801 " style="fill:#EFBC2E;"/></svg>