<?xml version="1.0" ?><svg id="_x31_-outline-expand" style="enable-background:new 0 0 64 64;" version="1.1" viewBox="0 0 64 64" xml:space="preserve" xmlns="http://www.w3.org/2000/svg" xmlns:xlink="http://www.w3.org/1999/xlink"><rect height="4" style="fill:#EFBC2E;" width="2" x="31" y="2"/><rect height="2" style="fill:#EFBC2E;" width="4" x="30" y="1"/><rect height="4" style="fill:#EFBC2E;" transform="matrix(0.5 -0.866 0.866 0.5 6.4733 26.2124)" width="2" x="24.938" y="5.5"/><rect height="2" style="fill:#EFBC2E;" transform="matrix(0.4999 -0.8661 0.8661 0.4999 6.4755 24.2147)" width="4" x="22.206" y="5.5"/><rect height="2" style="fill:#EFBC2E;" transform="matrix(0.8661 -0.4999 0.4999 0.8661 -3.775 14.9089)" width="4" x="23.938" y="13.5"/><rect height="4" style="fill:#EFBC2E;" transform="matrix(0.866 -0.5 0.5 0.866 -4.507 14.1805)" width="2" x="23.206" y="13.5"/><rect height="4" style="fill:#EFBC2E;" width="2" x="31" y="16"/><rect height="2" style="fill:#EFBC2E;" width="4" x="30" y="19"/><rect height="4" style="fill:#EFBC2E;" transform="matrix(0.5 -0.866 0.866 0.5 6.4729 40.2117)" width="2" x="37.062" y="12.5"/><rect height="2" style="fill:#EFBC2E;" transform="matrix(0.4999 -0.8661 0.8661 0.4999 6.4761 42.2157)" width="4" x="37.794" y="14.5"/><rect height="2" style="fill:#EFBC2E;" transform="matrix(0.8661 -0.4999 0.4999 0.8661 1.3482 20.0324)" width="4" x="36.062" y="6.5"/><rect height="4" style="fill:#EFBC2E;" transform="matrix(0.866 -0.5 0.5 0.866 2.0818 20.7689)" width="2" x="38.794" y="4.5"/><circle cx="32" cy="11" r="6" style="fill:#AA494A;"/><circle cx="32" cy="11" r="4" style="fill:#D36767;"/><path d="M30,35L30,35c0-2.209-1.791-4-4-4v11c0,0-5,1-10-2s-6-8-6-8s-7,4-7,16c0,0,5-1,8,1  c2.631,1.754,4,5,4,8c2-3,4-4,8-4c6,0,9,5,9,9c0-4,3-9,9-9c4,0,6,1,8,4c0-3,1.369-6.246,4-8c3-2,8-1,8-1c0-12-7-16-7-16s-1,5-6,8  s-10,2-10,2V31c-2.209,0-4,1.791-4,4H30z" style="fill:#3A4249;"/><rect height="2" style="fill:#D36767;" width="2" x="40" y="10"/><rect height="2" style="fill:#D36767;" width="2" x="44" y="10"/><rect height="2" style="fill:#D36767;" width="2" x="48" y="10"/><rect height="2" style="fill:#D36767;" width="2" x="48" y="14"/><rect height="2" style="fill:#D36767;" width="2" x="48" y="18"/><rect height="2" style="fill:#D36767;" width="2" x="48" y="22"/><rect height="2" style="fill:#D36767;" width="2" x="48" y="26"/><rect height="2" style="fill:#D36767;" width="2" x="48" y="30"/><rect height="2" style="fill:#D36767;" width="2" x="48" y="34"/><rect height="2" style="fill:#D36767;" width="2" x="22" y="10"/><rect height="2" style="fill:#D36767;" width="2" x="18" y="10"/><rect height="2" style="fill:#D36767;" width="2" x="14" y="10"/><rect height="2" style="fill:#D36767;" width="2" x="14" y="14"/><rect height="2" style="fill:#D36767;" width="2" x="14" y="18"/><rect height="2" style="fill:#D36767;" width="2" x="14" y="22"/><rect height="2" style="fill:#D36767;" width="2" x="14" y="26"/><rect height="2" style="fill:#D36767;" width="2" x="14" y="30"/><rect height="2" style="fill:#D36767;" width="2" x="14" y="34"/></svg>