<?xml version="1.0" ?><svg id="_x31_-outline-expand" style="enable-background:new 0 0 64 64;" version="1.1" viewBox="0 0 64 64" xml:space="preserve" xmlns="http://www.w3.org/2000/svg" xmlns:xlink="http://www.w3.org/1999/xlink"><circle cx="32" cy="16" r="6" style="fill:#62C4C3;"/><path d="M48,31h-9v-5c0-2.209-1.791-4-4-4h-6c-2.209,0-4,1.791-4,4v14c0,2.209,1.791,4,4,4h11v18h6V41  c0-2.209-1.791-4-4-4h6V31z" style="fill:#62C4C3;"/><path d="M5,44v2c0,1.104,0.896,2,2,2h8c1.104,0,2,0.896,2,2v12h14l-3-8h2c5.523,0,10-4.477,10-10H5z" style="fill:#F2DAAE;"/><rect height="20" style="fill:#F2DAAE;" width="12" x="5" y="24"/><rect height="2" style="fill:#E0C494;" width="12" x="5" y="42"/><rect height="4" style="fill:#EFBC2E;" width="14" x="3" y="20"/><path d="M19,18c-1.104,0-2,0.896-2,2v24h4V20C21,18.896,20.104,18,19,18z" style="fill:#EF941D;"/><path d="M35.593,20.499C35.062,19.574,34.068,19,33,19v-2c1.782,0,3.44,0.958,4.327,2.501L35.593,20.499z" style="fill:#3A4249;"/><polygon points="47,24 43,24 43,22 45,22 45,19 48,19 48,16 51,16 51,14 53,14 53,18 50,18 50,21 47,21 " style="fill:#3A4249;"/><polygon points="56,27 52,27 52,25 54,25 54,22 57,22 57,19 60,19 60,17 62,17 62,21 59,21 59,24 56,24 " style="fill:#3A4249;"/><polygon points="46,12 42,12 42,10 44,10 44,7 47,7 47,4 50,4 50,2 52,2 52,6 49,6 49,9 46,9 " style="fill:#3A4249;"/><path d="M17,56c-4.411,0-8-3.589-8-8h2c0,3.309,2.691,6,6,6V56z" style="fill:#3A4249;"/><path d="M42,37h-9V27h-2v12h14.445C44.752,37.81,43.477,37,42,37z" style="fill:#42A5B2;"/></svg>