<?xml version="1.0" ?><svg id="_x31_-outline-expand" style="enable-background:new 0 0 64 64;" version="1.1" viewBox="0 0 64 64" xml:space="preserve" xmlns="http://www.w3.org/2000/svg" xmlns:xlink="http://www.w3.org/1999/xlink"><path d="M32,48c0-4-2-6-3-7s-5-3-8-1c0-3-2-6-5-7s-7,0-7,0c0-12,7-16,7-16s0.148,4.766,5,8c3,2,5,2,5,2V16  c2.209,0,4,1.791,4,4h4c0-2.209,1.791-4,4-4v11c0,0,2,0,5-2c4.852-3.234,5-8,5-8s7,4,7,16c0,0-4-1-7,0s-5,4-5,7c-3-2-7,0-8,1  S32,44,32,48L32,48z" style="fill:#3A4249;"/><path d="M32,1C14.879,1,1,14.879,1,32s13.879,31,31,31s31-13.879,31-31S49.121,1,32,1L32,1z M5,32  c0-6.736,2.472-12.891,6.552-17.62L49.62,52.448C44.89,56.527,38.736,59,32,59C17.088,59,5,46.912,5,32L5,32z M52.448,49.62  L14.38,11.552C19.109,7.473,25.263,5,32,5c14.912,0,27,12.088,27,27C59,38.736,56.527,44.891,52.448,49.62L52.448,49.62z" style="fill:#AA494A;"/></svg>