<?xml version="1.0" ?><svg id="_x31_-outline-expand" style="enable-background:new 0 0 64 64;" version="1.1" viewBox="0 0 64 64" xml:space="preserve" xmlns="http://www.w3.org/2000/svg" xmlns:xlink="http://www.w3.org/1999/xlink"><path d="M3,62V48L1,34V21C1,11.059,9.059,3,19,3c9.941,0,18,8.059,18,18l5,13h-6v4h-4c-1.657,0-3,1.343-3,3  c0,1.657,1.343,3,3,3h4v6H22v12H3z" style="fill:#F2DAAE;"/><path d="M57.081,24.007c-0.602-1.118-1.984-1.555-3.12-0.987c-1.104,0.551-1.592,1.864-1.118,3.004L57,36v8  c0-1.657-1.343-3-3-3s-3,1.343-3,3v8l4,4v6h8V35L57.081,24.007z" style="fill:#F2DAAE;"/><polygon points="27.447,25.895 26.553,24.105 30.764,22 26.553,19.895 27.447,18.105 35.236,22 " style="fill:#3A4249;"/><rect height="2" style="fill:#D36767;" width="2" x="38" y="40"/><rect height="2" style="fill:#D36767;" width="2" x="42" y="40"/><rect height="2" style="fill:#D36767;" width="2" x="42" y="44"/><rect height="2" style="fill:#D36767;" width="2" x="42" y="36"/><rect height="2" style="fill:#D36767;" width="2" x="46" y="36"/><rect height="2" style="fill:#D36767;" width="2" x="46" y="32"/><rect height="2" style="fill:#D36767;" width="2" x="46" y="40"/><rect height="2" style="fill:#D36767;" width="2" x="46" y="44"/><rect height="2" style="fill:#D36767;" width="2" x="46" y="48"/><path d="M19,3C9.059,3,1,11.059,1,21v13h2c4.418,0,8-3.582,8-8c-2.209,0-4-1.791-4-4s1.791-4,4-4v-5h20  c5.523,0,10-4.477,10-10H19z" style="fill:#EFBC2E;"/><rect height="6" style="fill:#E0C485;" width="2" x="57" y="44"/><polygon points="22,50 17,50 22,52 " style="fill:#E0C494;"/></svg>