<?xml version="1.0" ?><svg id="_x31_-outline-expand" style="enable-background:new 0 0 64 64;" version="1.1" viewBox="0 0 64 64" xml:space="preserve" xmlns="http://www.w3.org/2000/svg" xmlns:xlink="http://www.w3.org/1999/xlink"><path d="M21,14H3v-1c0-4.971,4.029-9,9-9s9,4.029,9,9V14z" style="fill:#62C4C3;"/><polygon points="21,14 21,25 20,27 4,27 3,25 3,14 " style="fill:#F2DAAE;"/><polygon points="3,14 3,20 10,21 12,20 14,21 21,20 21,14 " style="fill:#DEF9F9;"/><polygon points="17,29 12,31 7,29 7,23 12,20 17,23 " style="fill:#EFBC2E;"/><path d="M10,27c0,1.104-1.343,2-3,2s-3-0.896-3-2c0-1.104,1.343-2,3-2S10,25.896,10,27L10,27z" style="fill:#EF941D;"/><path d="M20,27c0,1.104-1.343,2-3,2s-3-0.896-3-2c0-1.104,1.343-2,3-2S20,25.896,20,27L20,27z" style="fill:#EF941D;"/><rect height="3" style="fill:#42A5B2;" width="2" x="11" y="2"/><path d="M13.5,55c1.933,0,3.5-1.567,3.5-3.5V43h-7v8.5c0,1.933-1.567,3.5-3.5,3.5S3,56.567,3,58.5V61h7v-2.5  C10,56.567,11.567,55,13.5,55L13.5,55z" style="fill:#EF941D;"/><path d="M17,43v8.5c0,1.933-1.567,3.5-3.5,3.5S10,56.567,10,58.5V61h15V43H17z" style="fill:#EFBC2E;"/><path d="M20,61h-2c0-3.86,3.141-7,7-7v2C22.243,56,20,58.243,20,61z" style="fill:#3A4249;"/><path d="M55,17h-2V9c0-3.313-2.687-6-6-6s-6,2.687-6,6v8h-2c-3.313,0-6,2.687-6,6v13l2,2h4v22l2,1h4l2-1l2,1  h4l2-1V38h4l2-2V23C61,19.687,58.313,17,55,17z" style="fill:#CAEAE9;"/><rect height="22" style="fill:#B6D8D6;" width="2" x="46" y="38"/><path d="M50,14h-6V9c0-1.657,1.343-3,3-3c1.657,0,3,1.343,3,3V14z" style="fill:#E0C494;"/><rect height="23" style="fill:#62C4C3;" width="2" x="46" y="17"/><rect height="2" style="fill:#62C4C3;" width="16" x="39" y="30"/><rect height="2" style="fill:#62C4C3;" width="16" x="39" y="37"/><path d="M10.849,38.069c-0.232-0.811-0.42-1.647-0.558-2.486l1.975-0.322  c0.124,0.762,0.294,1.521,0.505,2.257L10.849,38.069z" style="fill:#3A4249;"/><path d="M32.88,53.982l-0.076-1.999c0.668-0.025,1.344-0.086,2.01-0.18l0.279,1.98  C34.359,53.887,33.615,53.954,32.88,53.982z M30.66,53.96c-0.737-0.044-1.48-0.127-2.207-0.245l0.32-1.975  c0.661,0.107,1.337,0.183,2.008,0.223L30.66,53.96z" style="fill:#3A4249;"/><path d="M26.282,12.829l-0.57-1.917c0.737-0.219,1.495-0.402,2.254-0.543l0.365,1.967  C27.642,12.464,26.952,12.63,26.282,12.829z M36.704,12.556c-0.682-0.164-1.379-0.293-2.073-0.384l0.262-1.982  c0.762,0.1,1.529,0.242,2.278,0.422L36.704,12.556z M30.42,12.062l-0.156-1.994c0.768-0.06,1.549-0.081,2.317-0.06l-0.053,1.999  C31.821,11.989,31.114,12.007,30.42,12.062z" style="fill:#3A4249;"/><path d="M18,17H6c-1.657,0-3-1.343-3-3h18C21,15.657,19.657,17,18,17L18,17z" style="fill:#42A5B2;"/><rect height="14" style="fill:#B6D8D6;" width="2" x="37" y="24"/><rect height="14" style="fill:#B6D8D6;" width="2" x="55" y="24"/></svg>