<?xml version="1.0" ?><svg id="_x31_-outline-expand" style="enable-background:new 0 0 64 64;" version="1.1" viewBox="0 0 64 64" xml:space="preserve" xmlns="http://www.w3.org/2000/svg" xmlns:xlink="http://www.w3.org/1999/xlink"><path d="M56,58c0,2.209-1.791,4-4,4H34c-2.209,0-4-1.791-4-4V6c0-2.209,1.791-4,4-4h18c2.209,0,4,1.791,4,4  V58z" style="fill:#62C4C3;"/><path d="M41,26h20c0.552,0,1,0.447,1,1v2c0,0.553-0.448,1-1,1H41V26z" style="fill:#3A4249;"/><rect height="2" style="fill:#3A4249;" width="2" x="38" y="6"/><rect height="2" style="fill:#3A4249;" width="2" x="42" y="6"/><rect height="2" style="fill:#3A4249;" width="2" x="46" y="6"/><path d="M44,28c0,2.762-2.239,5-5,5c-2.761,0-5-2.238-5-5c0-2.762,2.239-5,5-5C41.761,23,44,25.238,44,28  L44,28z" style="fill:#3A4249;"/><path d="M42,41c0-1.657-1.343-3-3-3c-1.657,0-3,1.343-3,3c0,0.885,0.391,1.672,1,2.222V47  c0,1.104,0.896,2,2,2c1.104,0,2-0.896,2-2v-3.778C41.609,42.672,42,41.885,42,41L42,41z" style="fill:#3A4249;"/><path d="M15.687,38.082l-0.175-0.245C13.869,35.535,13,32.826,13,30h2c0,2.406,0.739,4.715,2.139,6.674  l0.175,0.244L15.687,38.082z" style="fill:#3A4249;"/><path d="M18,26v4h-4l-3,3H3c0-3.866,3.134-7,7-7H18z" style="fill:#F2DAAE;"/><rect height="4" style="fill:#EFBC2E;" width="4" x="7" y="33"/><path d="M11,37v1.465c0,2.264,0.899,4.434,2.5,6.035s2.5,3.771,2.5,6.035V62H2V50.535  c0-2.264,0.899-4.434,2.5-6.035S7,40.729,7,38.465V37H11z" style="fill:#EF941D;"/><rect height="2" style="fill:#62C4C3;" width="2" x="21" y="27"/><rect height="2" style="fill:#62C4C3;" width="2" x="25" y="31"/><rect height="2" style="fill:#62C4C3;" width="2" x="25" y="27"/><rect height="2" style="fill:#62C4C3;" width="2" x="25" y="23"/><rect height="2.001" style="fill:#F2DAAE;" transform="matrix(0.9899 -0.1416 0.1416 0.9899 -7.2704 1.7977)" width="14.142" x="1.929" y="51"/><rect height="2.001" style="fill:#F2DAAE;" transform="matrix(0.9899 -0.1416 0.1416 0.9899 -7.8366 1.838)" width="14.142" x="1.929" y="55"/></svg>