<?xml version="1.0" ?><svg data-name="Слой 1" id="Слой_1" viewBox="0 0 128 128" xmlns="http://www.w3.org/2000/svg"><title/><path d="M124.5,21.74c-4-3.26-24.22-19.59-28-21C92.81-.55,90.7,0,87.29,1.12c-1.32.43-5.5,2-9.93,3.57-4.83,1.77-9.84,3.59-11.52,4.14A10.62,10.62,0,0,0,59,15.68l-1.91,7.8a6.41,6.41,0,0,0-4,5,6.92,6.92,0,0,0,2.19,6.69l-.87,5.78C53.82,45,57.27,48.06,60,48.47a4.56,4.56,0,0,0,.75.06,6.93,6.93,0,0,0,6.79-5.63l.28-1.9a5.77,5.77,0,0,0,4.89,3.8,25.51,25.51,0,0,0,3.25.14h0a6,6,0,0,0,.08,2.14,5.5,5.5,0,0,0,5.47,4.47h.3c1,0,10.85-1.33,13-2.93,1.2-.89,2.7-3.32,3.69-5.09a21.45,21.45,0,0,0,7.69,1.59,19.34,19.34,0,0,0,2-.11,18.52,18.52,0,0,0,7.12-2.42,2,2,0,0,0-2.12-3.39A14.76,14.76,0,0,1,107.79,41a16.81,16.81,0,0,1-8.4-1.46,20.9,20.9,0,0,1-3.61-2.09c-2.14-1.42-4.35-2.89-6.64-3.1-1.24-.11-5.38-.29-10.63-.52l-7.14-.31c-2.46-.11-9.94-.45-11.48-.68s-3.27-.88-2.82-3.82c.07-.5.3-2,4-2.51l26.33-3.45A2,2,0,0,0,88.9,22a2,2,0,0,0-.06-1.89l-2.14-3.7a2,2,0,1,0-3.46,2l.63,1.1L61.48,22.45l1.41-5.77a6.65,6.65,0,0,1,4.19-4c1.75-.57,6.78-2.4,11.65-4.18,4.39-1.6,8.54-3.11,9.8-3.52,3.07-1,4.15-1.28,6.56-.4,2.2.79,15.5,11.06,26.89,20.31a2,2,0,1,0,2.52-3.1Zm-32,23.63c-1.22.73-9,2.09-10.88,2.18A1.51,1.51,0,0,1,80,46.21a1.73,1.73,0,0,1,.2-1.34l1.94,0c1.61,0,3.13-.08,3.63-.06h.1c2.31,0,5.46-3,6.91-4.48l.8.53c.47.31.94.62,1.42.92A18.22,18.22,0,0,1,92.53,45.37Zm-3.75-7,.22,0a13.51,13.51,0,0,1-3.2,2.36c-.63,0-1.82,0-3.78.07l-2.43.06a1.88,1.88,0,0,0-.58,0,52.93,52.93,0,0,1-5.7-.06c-1.15-.17-1.74-.67-1.76-1.48A2.67,2.67,0,0,1,72,37.58l6.34.28C83.12,38.07,87.63,38.26,88.78,38.36ZM64.36,37.21l-.77,5.1c-.28,1.89-2.55,2.27-3,2.21s-2.49-1.1-2.21-3l.71-4.73.19,0C60,36.94,61.64,37.06,64.36,37.21Z"/><path d="M88.27,73.67c-.71-3.13-6-25.75-13.49-33.19-5.15-5.16-9.56-5.77-12.33-5.39a8.68,8.68,0,0,0-6.38,4.22c-2.3,4.16-.66,9.86.54,12.9a1.63,1.63,0,0,1-.19.09c-2.26,1.26-5,2.45-7.82,3.71-6,2.64-12.83,5.64-17.41,10.22-5,5-8.57,13.14-11.4,19.65C18.88,88,18,90,17.23,91.53l0,.07c-3-1.19-8.74-2.83-12.89-.53A8.68,8.68,0,0,0,.09,97.45c-.38,2.78.23,7.18,5.39,12.33C13.31,117.61,38,123.11,39,123.34h.08C44.48,126,49.39,128,51,128h.12c8.91,0,22.14-7,28.49-13.38S93.07,94.88,93,86C92.94,84.2,90.91,79.11,88.27,73.67ZM59.57,41.26A4.6,4.6,0,0,1,63,39.06c2.64-.38,5.83,1.13,8.94,4.25s6,9.9,8.2,16.34A18.24,18.24,0,0,0,78.79,58c-4.14-4.32-12.15-7.59-18.32-6.92C59.41,48.46,58.1,43.9,59.57,41.26ZM8.31,107c-3.12-3.11-4.63-6.29-4.25-8.94a4.62,4.62,0,0,1,2.19-3.44c2.66-1.48,7.26-.15,9.89.92A23.22,23.22,0,0,0,22.4,113a22.72,22.72,0,0,0,2.82,2.32C18.62,113.15,11.58,110.22,8.31,107Zm68.45,4.84C70.46,118.09,58,124,51.12,124H51c-2.32-.18-20.89-8.89-25.8-13.8-4.33-4.33-6.52-12.69-4.43-16.88.84-1.67,1.72-3.7,2.66-5.85,2.69-6.19,6.05-13.9,10.56-18.41,4-4,10.22-6.77,16.19-9.39,2.94-1.3,5.73-2.52,8.15-3.87a6.08,6.08,0,0,1,1.28-.49,2.14,2.14,0,0,0,.34-.09c4.46-1,12.05,1.52,15.92,5.56C80.6,65.7,88.82,83.84,89,86.05,89,92.93,83.11,105.44,76.76,111.79Z"/><path d="M73.23,81.86a2,2,0,0,0-2.78.51c-.07.09-6.57,9.47-10.09,13s-12.9,10-13,10.09a2,2,0,0,0,1.14,3.64,2,2,0,0,0,1.13-.35c.4-.28,9.78-6.78,13.55-10.55S73.46,85,73.74,84.64A2,2,0,0,0,73.23,81.86Z"/><path d="M66.77,77.67a2,2,0,0,0-3.29-2.27c-.07.09-6.57,9.48-10.09,13s-12.9,10-13,10.09a2,2,0,0,0,1.14,3.64,2,2,0,0,0,1.13-.35c.4-.28,9.78-6.78,13.55-10.55S66.49,78.07,66.77,77.67Z"/><path d="M59.8,70.71a2,2,0,1,0-3.29-2.28c-.06.09-6.57,9.47-10.09,13s-12.9,10-13,10.09a2,2,0,0,0,2.28,3.29c.39-.28,9.77-6.78,13.54-10.55S59.52,71.1,59.8,70.71Z"/></svg>