<?xml version="1.0" ?><svg data-name="Слой 1" id="Слой_1" viewBox="0 0 128 128" xmlns="http://www.w3.org/2000/svg"><title/><path d="M128,36.65c0-9.36-3.38-13.87-6.22-16a10.76,10.76,0,0,0-9.33-1.92c-6,1.71-9.77,9-11.34,12.71-.27-.1-.53-.19-.81-.27-3.3-.94-6.94-2.36-10.8-3.86-8-3.12-17.11-6.65-25.53-6.65-9.3,0-20.08,4.24-28.74,7.64-2.81,1.11-5.47,2.16-7.69,2.9-.21.07-.43.17-.64.26-1.57-3.69-5.36-11-11.35-12.73a10.75,10.75,0,0,0-9.33,1.92C3.38,22.78,0,27.29,0,36.65,0,51.06,17.76,79,18.52,80.22l0,0c2.53,7.47,5.25,13.88,6.7,15.36,8.14,8.26,26.93,14,38.71,14s30.64-5.76,38.71-14c1.45-1.48,4.29-8.05,6.91-15.57C111.26,77.41,128,50.64,128,36.65ZM113.55,22.57a6.72,6.72,0,0,1,5.82,1.26c3,2.25,4.63,6.8,4.63,12.82,0,7-4.94,18.07-9.63,27a38.56,38.56,0,0,0,1-6.93c.17-7.82-4.47-18.44-10.78-23.3C106,29.91,109.29,23.79,113.55,22.57ZM4,36.65c0-6,1.64-10.57,4.63-12.82a6.71,6.71,0,0,1,5.82-1.26c4.25,1.21,7.53,7.36,9,10.88-5.94,4.51-10.65,13.74-10.65,22a45.91,45.91,0,0,0,1.29,9C9.23,55.38,4,43.85,4,36.65ZM99.82,92.83C93.38,99.42,76,105.65,64,105.65c-12.15,0-29.24-6.12-35.86-12.83-2-2.11-11.36-28-11.36-37.37,0-8.3,6-18.44,12.06-20.47,2.31-.77,5-1.83,7.89-3C45,28.73,55.43,24.65,64,24.65c7.67,0,16,3.24,24.08,6.38,4,1.53,7.67,3,11.16,4a8.24,8.24,0,0,1,1.86.84,2.26,2.26,0,0,0,.26.16c5.28,3.36,10.22,13.05,10,20.63C111.18,65.77,101.74,90.82,99.82,92.83Z"/><path d="M85.64,72.3c-.15,0-15,2.72-21.64,2.72S42.51,72.33,42.36,72.3a2,2,0,0,0-.72,3.94C42.27,76.35,57,79,64,79s21.73-2.67,22.36-2.78a2,2,0,0,0-.72-3.94Z"/><path d="M85.64,59.3c-.15,0-15,2.72-21.64,2.72S42.51,59.33,42.36,59.3a2,2,0,1,0-.72,3.94C42.27,63.35,57,66,64,66s21.73-2.67,22.36-2.78a2,2,0,0,0-.72-3.94Z"/><path d="M85.64,46.3c-.15,0-15,2.72-21.64,2.72S42.51,46.33,42.36,46.3a2,2,0,1,0-.72,3.94C42.27,50.35,57,53,64,53s21.73-2.67,22.36-2.78a2,2,0,0,0-.72-3.94Z"/></svg>