<?xml version="1.0" ?><svg data-name="Слой 1" id="Слой_1" viewBox="0 0 128 128" xmlns="http://www.w3.org/2000/svg"><title/><path d="M96.46,76.57C95.94,74.27,91.82,56.71,86,50.9c-4.08-4.09-7.6-4.57-9.83-4.26a7.07,7.07,0,0,0-5.23,3.47c-1.76,3.17-.69,7.39.23,9.88-1.67.91-3.64,1.78-5.74,2.7-4.64,2-9.9,4.36-13.47,7.93C48,74.55,45.31,80.8,43.13,85.82c-.64,1.46-1.24,2.84-1.8,4-2.49-.92-6.7-2-9.85-.23A7.06,7.06,0,0,0,28,94.8c-.31,2.24.17,5.75,4.25,9.84,6,6,24.47,10.19,25.85,10.5,4.13,2,7.94,3.58,9.33,3.59h.09c6.94,0,17.23-5.45,22.16-10.38S100.15,93,100.07,86.09C100.05,84.7,98.5,80.77,96.46,76.57Zm-22-24.52a3.11,3.11,0,0,1,2.29-1.45c1.88-.26,4.18.85,6.46,3.13,1.94,1.94,3.8,5.87,5.36,10.09A19.81,19.81,0,0,0,75,58.88C74.29,56.94,73.45,53.82,74.43,52.05ZM35.09,101.81c-2.27-2.28-3.38-4.57-3.12-6.45a3.09,3.09,0,0,1,1.45-2.29c1.76-1,4.89-.14,6.84.6a18.67,18.67,0,0,0,5,13.45,1.14,1.14,0,0,1,.11.11C41.06,105.66,37.06,103.78,35.09,101.81Zm51.77,3.71c-4.76,4.75-14.13,9.21-19.27,9.21h-.06c-1.86-.21-15.8-6.75-19.48-10.43-3.13-3.14-4.8-9.39-3.3-12.39.65-1.29,1.32-2.85,2-4.5,2.05-4.71,4.61-10.57,8-14,3-3,7.72-5.1,12.25-7.1,2.27-1,4.41-1.93,6.28-3a3.82,3.82,0,0,1,.86-.32,1.38,1.38,0,0,0,.27-.08c3.24-.69,8.93,1.2,11.74,4.14,3.32,3.47,9.66,17,9.88,19C96.13,91.31,91.65,100.72,86.86,105.52Z"/><path d="M84.75,82.54a2,2,0,0,0-2.78.51c0,.07-5,7.22-7.67,9.88s-9.82,7.63-9.89,7.67a2,2,0,0,0-.5,2.79,2,2,0,0,0,1.64.86,2,2,0,0,0,1.14-.36c.3-.21,7.52-5.21,10.44-8.13s7.92-10.13,8.13-10.44A2,2,0,0,0,84.75,82.54Z"/><path d="M79.92,80a2,2,0,1,0-3.29-2.27c0,.07-5,7.22-7.67,9.88s-9.81,7.63-9.89,7.68a2,2,0,0,0,2.28,3.29c.31-.22,7.52-5.22,10.44-8.14S79.71,80.29,79.92,80Z"/><path d="M74.58,74.65a2,2,0,1,0-3.28-2.28c0,.07-5,7.22-7.68,9.89s-9.81,7.62-9.88,7.67a2,2,0,0,0,1.14,3.64A2,2,0,0,0,56,93.22c.31-.21,7.52-5.22,10.44-8.14S74.37,75,74.58,74.65Z"/><path d="M117,14H89.86A16,16,0,0,0,74,0H54A16,16,0,0,0,38.14,14H11a2,2,0,0,0,0,4h7V126a2,2,0,0,0,2,2h88a2,2,0,0,0,2-2V18h7a2,2,0,0,0,0-4ZM54,4H74A12,12,0,0,1,85.83,14H42.17A12,12,0,0,1,54,4Zm52,120H22V18h84Z"/></svg>