<?xml version="1.0" ?><svg data-name="Слой 1" id="Слой_1" viewBox="0 0 128 128" xmlns="http://www.w3.org/2000/svg"><title/><path d="M125,3A10.38,10.38,0,0,0,110.3,3L75.91,37.39,74,35.48a2,2,0,0,0-2.83,0L57.38,49.26h0a32.37,32.37,0,0,0-32.43,8C15.61,66.6,12.31,79.38,9.4,90.66c-.29,1.1-.57,2.19-.85,3.28l-7.8,6.23A2,2,0,0,0,0,101.66c0,1.47.86,4.09,4.3,5.21a33.19,33.19,0,0,1-2.36,4.38,2,2,0,0,0,1.32,3.06A141.9,141.9,0,0,0,28,116.64c14.89,0,31.82-2.87,42.63-13.67a32.33,32.33,0,0,0,8-32.4h0L92.49,56.78a2,2,0,0,0,.59-1.41A2,2,0,0,0,92.49,54L90.58,52,125,17.69A10.36,10.36,0,0,0,125,3ZM27.77,60.11a28.41,28.41,0,0,1,35-4,123.27,123.27,0,0,0-17.14,4.4c-12.31,4.43-24,16.8-30.79,25.18C17.43,76.34,20.72,67.15,27.77,60.11ZM67.1,59.4c.25.23.5.46.74.71a28.36,28.36,0,0,1,4,4.94c-6.59.69-24.9,3.15-42.1,10.63C35,70.84,41,66.44,47,64.27A130.74,130.74,0,0,1,67.1,59.4Zm.74,40.74c-15.66,15.65-46.05,13.15-61,10.72.59-1.12,1.15-2.31,1.69-3.59,4.79-.39,22-1.93,32.41-4.52,12.29-3.07,24.18-16.3,24.68-16.86a2,2,0,1,0-3-2.66C62.47,83.36,51,96.1,39.93,98.87s-30.87,4.34-32.82,4.49a4.5,4.5,0,0,1-2.77-.94L11.1,97c2.52-.25,12.29-1.32,19.06-3.31,8-2.32,11.64-5.8,11.79-5.95A2,2,0,0,0,42,84.94a2,2,0,0,0-2.83-.07s-3.22,3-10.14,5a103.49,103.49,0,0,1-14.5,2.71c1.57-2.07,3.79-4.89,6.49-8C41.31,72.33,68.9,69.33,73.8,68.88A28.32,28.32,0,0,1,67.84,100.14Zm9.28-33.66A32.43,32.43,0,0,0,61.46,50.83L72.59,39.72l11.2,11.19,2.54,2.54h0l1.91,1.91Zm45-51.62L87.75,49.21l-9-9L113.13,5.86a6.36,6.36,0,1,1,9,9Z"/><path d="M101,102H78a2,2,0,0,0,0,4h23a3.5,3.5,0,0,1,0,7H89a2,2,0,0,0-2,2,9,9,0,0,1-9,9H2a2,2,0,0,0,0,4H78a13,13,0,0,0,12.85-11H101a7.5,7.5,0,0,0,0-15Z"/><path d="M116,75h-3V70a2,2,0,0,0-4,0v5h-3a2,2,0,0,0,0,4h3v5a2,2,0,0,0,4,0V79h3a2,2,0,0,0,0-4Z"/><path d="M13,36h4v5a2,2,0,0,0,4,0V36h4a2,2,0,0,0,0-4H21V27a2,2,0,0,0-4,0v5H13a2,2,0,0,0,0,4Z"/><path d="M66,11h4v5a2,2,0,0,0,4,0V11h4a2,2,0,0,0,0-4H74V2a2,2,0,0,0-4,0V7H66a2,2,0,0,0,0,4Z"/></svg>