<?xml version="1.0" ?><svg data-name="Слой 1" id="Слой_1" viewBox="0 0 128 128" xmlns="http://www.w3.org/2000/svg"><title/><path d="M69.41,9.59a2,2,0,0,0-2.82,0c-.85.84-8.26,8.44-8.26,14.74a9.67,9.67,0,0,0,19.34,0C77.67,18,70.26,10.43,69.41,9.59ZM68,30a5.67,5.67,0,0,1-5.67-5.67c0-3.19,3.34-7.73,5.67-10.39,2.28,2.64,5.67,7.22,5.67,10.39A5.67,5.67,0,0,1,68,30Z"/><path d="M54,30H44V21a2,2,0,0,0-2-2H38V4H68a2,2,0,0,0,0-4H2A2,2,0,0,0,0,2,11,11,0,0,0,11,13h7v6H14a2,2,0,0,0-2,2v9H2a2,2,0,0,0-2,2v94a2,2,0,0,0,2,2H54a2,2,0,0,0,2-2V79a2,2,0,0,0-4,0v45H4V34H52V50a2,2,0,0,0,4,0V32A2,2,0,0,0,54,30ZM4.29,4H34V9H11A7,7,0,0,1,4.29,4ZM22,13H34v6H22ZM16,30V23H40v7Z"/><path d="M127.78,64.57a2,2,0,0,0-2.69-.87C113.55,69.61,82,84.93,74.4,84.93,70.63,84.93,62.68,81,54,75.79c2.44-.48,5.08-1.23,7.68-2a40.26,40.26,0,0,1,6.67-1.59A99.39,99.39,0,0,1,90,73.82a2,2,0,0,0,2.36-1.57,2,2,0,0,0-1.56-2.35,102.37,102.37,0,0,0-22.63-1.67A39.28,39.28,0,0,0,60.59,70c-3.33,1-9.7,2.78-12.33,2.24l-1.19-.77a5.37,5.37,0,0,1-.61-4.94c.71-1.87,3.22-5.32,12-7.3a76.72,76.72,0,0,1,11.24-1.68c2.32-.21,4.94-.46,8.48-.93,1.3-.18,2.68-1,4.76-2.15a67.37,67.37,0,0,1,24-8.67c12.46-2.14,17.73.13,17.76.15a2,2,0,1,0,1.72-3.61c-.25-.12-6.25-2.88-20.16-.48A70.91,70.91,0,0,0,80.93,51a17,17,0,0,1-3.3,1.65c-3.46.46-6,.71-8.32.92-1.48.14-2.84.27-4.22.44a67.74,67.74,0,0,1-6.2-3.24C52.13,47,47.13,44.3,44.38,44.3c-2.25,0-3.82.63-4.66,1.88l-.07.11c-2.31-1.42-4.79-2.89-7.26-4.12-6.16-3.09-12.55-1.64-15.34.08a4.08,4.08,0,0,0-2,2.9,5.71,5.71,0,0,0,1.05,3.91,7.2,7.2,0,0,0,.66,2.84c1.6,3.72,14.3,13.91,27.69,22.67a5.11,5.11,0,0,0,1.88,1.21C57.59,83,69,88.93,74.4,88.93c9.9,0,48.18-19.45,52.51-21.67A2,2,0,0,0,127.78,64.57ZM44.38,48.3c1.93,0,8.58,3.72,12.56,5.93l1.55.86-.93.2-.61.16c-2-.91-8.17-3.76-10-4.78-1.08-.58-2.34-1.34-3.69-2.17v-.08A4.41,4.41,0,0,1,44.38,48.3ZM30.6,45.74c3.07,1.54,6.25,3.51,9,5.25,2,1.21,3.78,2.35,5.35,3.2,1.19.65,3.92,1.94,6.34,3.07a25.42,25.42,0,0,0-2.45,1.22c-6.16-3.35-9.55-5.56-12-7.19a40.14,40.14,0,0,0-8.61-4.62A19.41,19.41,0,0,0,20.5,45,13.25,13.25,0,0,1,30.6,45.74ZM20.43,50.32a3.52,3.52,0,0,1-.33-1.22c.51-.21,2.48-.32,6.72,1.31a35.86,35.86,0,0,1,7.85,4.23c2.32,1.52,5.4,3.53,10.7,6.47a11.16,11.16,0,0,0-2.65,4,9.08,9.08,0,0,0-.59,3.06C31.16,60.65,21.56,52.93,20.43,50.32Z"/></svg>