<?xml version="1.0" ?><svg data-name="Слой 1" id="Слой_1" viewBox="0 0 128 128" xmlns="http://www.w3.org/2000/svg"><title/><path d="M108,54.91s0-.09,0-.14a1.81,1.81,0,0,0,0-.52l-6-42.53a2,2,0,0,0-.92-1.42C100.39,9.88,84.34,0,64,0S27.61,9.88,26.94,10.3A2,2,0,0,0,26,11.72l-6,43s0,.08,0,.12,0,0,0,.08c-.49,11.61,5.43,29.59,9,40.33.65,2,1.22,3.71,1.63,5,2,7.61,5.26,16.4,7,18.12,5,5,17.6,9.59,26.41,9.59,8,0,20.77-3.94,26.41-9.59,2.64-2.64,6.16-12.58,7.81-20.16.34-1.34,1-3.52,1.88-6.19C103.23,82.21,108.46,65.71,108,54.91ZM92.17,76.13a98,98,0,0,0,10-5.83c-1.16,5.17-2.69,10.44-4.1,15A21.23,21.23,0,0,0,92.17,76.13ZM40.08,73.86C33.35,71,25.93,67,25.16,65.43a2.21,2.21,0,0,0-.37-.61,50,50,0,0,1-.8-9.19C25.69,53.34,35.53,42,64,42c28.19,0,38.24,10.94,40,13.18a46.08,46.08,0,0,1-.64,8.67,1.69,1.69,0,0,0-.21.4c-.78,1.57-8.41,6.14-15.33,9.6-2-.61-4.16-1.45-6.46-2.34C75.93,69.4,69.77,67,64,67c-6.36,0-13.65,2.87-19.51,5.18C42.9,72.8,41.39,73.39,40.08,73.86ZM29.85,13.24C33.25,11.31,47.28,4,64,4s30.75,7.31,34.15,9.24l5,35.51C97.5,44.19,85.79,38,64,38S30.52,44.37,24.85,49.07Zm-3.78,58a79.91,79.91,0,0,0,9.63,5.07A20.8,20.8,0,0,0,30,85.36C28.6,80.9,27.18,76,26.07,71.22Zm61.52,44.37C83.18,120,71.94,124,64,124c-7.66,0-19.34-4.17-23.57-8.4-1-1.07-3.47-7.59-5.31-13.94-.13-.63-.38-1.53-.73-2.65A37,37,0,0,1,33,91c0-5.23,3.85-11.84,7.63-13.1,1.57-.52,3.39-1.24,5.33-2C51.5,73.72,58.4,71,64,71c5,0,10.56,2.15,15.91,4.24,2.66,1,5.17,2,7.54,2.68,3.71,1.06,7.81,8.45,7.69,13.86a31.6,31.6,0,0,1-.81,5.52c-.08.33-.15.63-.2.88a.2.2,0,0,0,0,.07C92.53,105.09,89.44,113.73,87.59,115.59Z"/><path d="M73.11,65.79a2,2,0,0,0,2.68-.9A5.9,5.9,0,0,1,81,62a8.88,8.88,0,0,1,6.4,3.2,2,2,0,1,0,3.2-2.4A12.8,12.8,0,0,0,81,58a9.94,9.94,0,0,0-8.79,5.11A2,2,0,0,0,73.11,65.79Z"/><path d="M52.22,64.91a2,2,0,0,0,3.57-1.8A9.94,9.94,0,0,0,47,58a12.8,12.8,0,0,0-9.6,4.8,2,2,0,0,0,3.19,2.41A8.89,8.89,0,0,1,47,62,6,6,0,0,1,52.22,64.91Z"/><circle cx="47" cy="67" r="2"/><circle cx="81" cy="67" r="2"/><path d="M70.36,86.41A49.23,49.23,0,0,0,64,85.63a49.23,49.23,0,0,0-6.36.78,2,2,0,1,0,.72,3.93A45.89,45.89,0,0,1,64,89.63a45.89,45.89,0,0,1,5.64.71,2.2,2.2,0,0,0,.36,0,2,2,0,0,0,.36-4Z"/></svg>