<?xml version="1.0" ?><svg data-name="Слой 1" id="Слой_1" viewBox="0 0 128 128" xmlns="http://www.w3.org/2000/svg"><title/><path d="M64,128a10.18,10.18,0,0,1-7.22-3h0L3,71.22A10.21,10.21,0,0,1,3,56.78L56.78,3A10.22,10.22,0,0,1,71.22,3L125,56.78a10.21,10.21,0,0,1,0,14.44L71.22,125A10.18,10.18,0,0,1,64,128Zm-4.39-5.82a6.2,6.2,0,0,0,8.78,0l53.79-53.79a6.2,6.2,0,0,0,0-8.78L68.39,5.82a6.2,6.2,0,0,0-8.78,0L5.82,59.61a6.2,6.2,0,0,0,0,8.78l53.79,53.79Z"/><path d="M64,82a8.24,8.24,0,0,1-8.25-7.91L54.27,38.6A8.25,8.25,0,0,1,62.52,30h3a8.25,8.25,0,0,1,8.25,8.6L72.25,74.09A8.24,8.24,0,0,1,64,82ZM62.52,34a4.25,4.25,0,0,0-4.25,4.43l1.48,35.49a4.25,4.25,0,0,0,8.5,0l1.48-35.49A4.25,4.25,0,0,0,65.48,34Z"/><path d="M64,102a8,8,0,1,1,8-8A8,8,0,0,1,64,102Zm0-12a4,4,0,1,0,4,4A4,4,0,0,0,64,90Z"/></svg>