<?xml version="1.0" ?><svg data-name="Слой 1" id="Слой_1" viewBox="0 0 128 128" xmlns="http://www.w3.org/2000/svg"><title/><path d="M2,56H89a2,2,0,0,0,1.13-.35l37-25.35a2,2,0,0,0,.49-2.82l-7-9.65a2,2,0,0,0-2.75-.48L84.65,40H78V38.38A10.4,10.4,0,0,0,67.62,28H42.38A10.4,10.4,0,0,0,32,38.38V40H2a2,2,0,0,0-2,2V54A2,2,0,0,0,2,56Zm34-4V44H74v8Zm49.27-8a2,2,0,0,0,1.12-.35l32.13-21.9,4.65,6.41L88.38,52H78V44ZM36,38.38A6.38,6.38,0,0,1,42.38,32H67.62A6.38,6.38,0,0,1,74,38.38V40H36ZM4,44H32v8H4Z"/><path d="M126,60H2a2,2,0,0,0,0,4H40.16L60.55,78.5,40.16,93H37a2,2,0,0,0-2,2v8a10,10,0,1,0,4,8V97H91v6a10,10,0,1,0,4,8V95a2,2,0,0,0-2-2H87.84L67.45,78.5,87.84,64H126a2,2,0,0,0,0-4ZM85,117a6,6,0,1,1,6-6A6,6,0,0,1,85,117Zm-56,0a6,6,0,1,1,6-6A6,6,0,0,1,29,117ZM80.94,93H47.06L64,81ZM64,76.05,47.06,64H80.94Z"/></svg>