<?xml version="1.0" ?><svg data-name="Слой 1" id="Слой_1" viewBox="0 0 128 128" xmlns="http://www.w3.org/2000/svg"><title/><path d="M127.41,124.59,91,88.17A52.47,52.47,0,1,0,88.17,91l36.42,36.41a2,2,0,0,0,2.82-2.82ZM18.21,86.79a48.49,48.49,0,1,1,68.58,0A48.54,48.54,0,0,1,18.21,86.79Z"/><path d="M82,46.13a2,2,0,0,0-2,2V50H72.31c-.91-1.19-2.59-1.93-4.12-2.61a14.7,14.7,0,0,1-2.29-1.16,14,14,0,0,1,.81-2.56,10.66,10.66,0,0,0,1.05-4.6l5.45-5.46,1.33,1.33a2,2,0,1,0,2.82-2.83l-2.73-2.73h0l-2.73-2.73a2,2,0,1,0-2.83,2.82l1.33,1.33-5.46,5.45a10.66,10.66,0,0,0-4.6,1,14,14,0,0,1-2.56.81,14.7,14.7,0,0,1-1.16-2.29c-.68-1.53-1.42-3.21-2.61-4.12V24h1.87a2,2,0,1,0,0-4H48.13a2,2,0,1,0,0,4H50v7.69c-1.19.91-1.93,2.59-2.61,4.12a14.7,14.7,0,0,1-1.16,2.29,14,14,0,0,1-2.56-.81,10.66,10.66,0,0,0-4.6-1l-5.46-5.45,1.33-1.33a2,2,0,0,0-2.83-2.82l-2.73,2.73h0l-2.73,2.73a2,2,0,0,0,2.82,2.83l1.33-1.33,5.45,5.46a10.66,10.66,0,0,0,1,4.6,14,14,0,0,1,.81,2.56,14.7,14.7,0,0,1-2.29,1.16c-1.53.68-3.21,1.42-4.12,2.61H24V48.13a2,2,0,1,0-4,0v7.74a2,2,0,1,0,4,0V54h7.69c.91,1.19,2.59,1.93,4.12,2.61a14.7,14.7,0,0,1,2.29,1.16,14,14,0,0,1-.81,2.56,10.66,10.66,0,0,0-1,4.6l-5.45,5.46-1.33-1.33a2,2,0,1,0-2.82,2.83l2.73,2.73h0l2.73,2.73a2,2,0,0,0,2.83-2.82l-1.33-1.33,5.46-5.45a10.66,10.66,0,0,0,4.6-1.05,14,14,0,0,1,2.56-.81,14.7,14.7,0,0,1,1.16,2.29c.68,1.53,1.42,3.21,2.61,4.12V80H48.13a2,2,0,1,0,0,4h7.74a2,2,0,1,0,0-4H54V72.31c1.19-.91,1.93-2.59,2.61-4.12a14.7,14.7,0,0,1,1.16-2.29,14,14,0,0,1,2.56.81,10.66,10.66,0,0,0,4.6,1.05l5.46,5.45-1.33,1.33a2,2,0,1,0,2.83,2.82l2.73-2.73h0l2.73-2.73a2,2,0,1,0-2.82-2.83l-1.33,1.33-5.45-5.46a10.66,10.66,0,0,0-1.05-4.6,14,14,0,0,1-.81-2.56,14.7,14.7,0,0,1,2.29-1.16c1.53-.68,3.21-1.42,4.12-2.61H80v1.87a2,2,0,1,0,4,0V48.13A2,2,0,0,0,82,46.13ZM66.57,53c-1.92.85-3.74,1.66-4.4,3.26s0,3.54.81,5.55c.19.51.46,1.22.63,1.8,0,0,0,0,0,0l0,0c-.58-.17-1.29-.44-1.8-.63-2-.77-3.9-1.5-5.55-.81S53.8,64.65,53,66.57c-.25.57-.62,1.41-1,2-.33-.57-.7-1.41-1-2-.85-1.92-1.66-3.74-3.26-4.4a3.77,3.77,0,0,0-1.44-.28A12.11,12.11,0,0,0,42.24,63c-.51.19-1.22.46-1.8.63l0,0s0,0,0,0c.17-.58.44-1.29.63-1.8.77-2,1.5-3.9.81-5.55S39.35,53.8,37.43,53c-.57-.25-1.41-.62-2-1,.57-.33,1.41-.7,2-1,1.92-.85,3.74-1.66,4.4-3.26s0-3.54-.81-5.55c-.19-.51-.46-1.22-.63-1.8,0,0,0,0,0,0l0,0c.58.17,1.29.44,1.8.63,2,.77,3.9,1.5,5.55.81s2.41-2.48,3.26-4.4c.25-.57.62-1.41,1-2,.33.57.7,1.41,1,2,.85,1.92,1.66,3.74,3.26,4.4s3.54,0,5.55-.81c.51-.19,1.22-.46,1.8-.63l0,0s0,0,0,0c-.17.58-.44,1.29-.63,1.8-.77,2-1.5,3.9-.81,5.55s2.48,2.41,4.4,3.26c.57.25,1.41.62,2,1C68,52.33,67.14,52.7,66.57,53Z"/></svg>