<?xml version="1.0" ?><svg data-name="Слой 1" id="Слой_1" viewBox="0 0 128 128" xmlns="http://www.w3.org/2000/svg"><title/><path d="M64,0a64,64,0,1,0,64,64A64.07,64.07,0,0,0,64,0Zm0,4a59.79,59.79,0,0,1,41,16.21L20.21,105A60,60,0,0,1,64,4Zm0,120a59.79,59.79,0,0,1-41-16.21L107.79,23A60,60,0,0,1,64,124Z"/><path d="M110,63.57c0-6.88-2.53-10.23-4.65-11.83a8.23,8.23,0,0,0-7.14-1.46c-4.27,1.22-7,6-8.22,8.87l-.08,0c-2.33-.67-4.9-1.67-7.63-2.73C76.58,54.16,70.07,51.63,64,51.63c-6.71,0-14.43,3-20.63,5.47-2,.78-3.84,1.51-5.39,2-1.26-2.85-4-7.63-8.21-8.85a8.23,8.23,0,0,0-7.14,1.46C20.49,53.34,18,56.69,18,63.57,18,74,30.67,94,31.21,94.83l0,.06c1.83,5.34,3.78,9.92,4.82,11C42,111.84,55.5,116,64,116s22.07-4.16,27.91-10.14c1.18-1.21,3.22-5.93,5.07-11.29C98.54,92.06,110,73.47,110,63.57ZM99.35,54.13a4.23,4.23,0,0,1,3.63.8c2,1.49,3.06,4.56,3.06,8.64s-2.37,10-5.06,15.54q.08-.69.09-1.26c.13-5.6-3-13.06-7.52-16.75C94.59,58.7,96.72,54.88,99.35,54.13ZM22,63.57c0-4.08,1.09-7.15,3.06-8.64a4.23,4.23,0,0,1,3.63-.8c2.65.76,4.76,4.54,5.81,7C30,64.68,27,71.56,27,76.93a20.2,20.2,0,0,0,.21,2.58C24.4,73.71,22,67.54,22,63.57ZM89,103.07C84.54,107.66,72.37,112,64,112s-20.53-4.34-25-8.91C37.5,101.37,31,83.58,31,76.93c0-5.58,4.12-12.64,8.17-14,1.66-.55,3.59-1.31,5.63-2.12C50.7,58.51,58,55.63,64,55.63c5.34,0,11.21,2.28,16.89,4.49,2.82,1.1,5.48,2.13,8,2.84a5.34,5.34,0,0,1,1.13.51,1.57,1.57,0,0,0,.31.18c3.57,2.29,6.9,8.92,6.78,14.11C97,81,95.21,87.37,93.29,92.93a2.42,2.42,0,0,0-.12.35C91.5,98.08,89.77,102.2,89,103.07Z"/><path d="M79.27,88.33c-.11,0-10.62,1.92-15.27,1.92s-15.16-1.9-15.27-1.92A2,2,0,1,0,48,92.26c.44.08,11,2,16,2s15.54-1.91,16-2a2,2,0,1,0-.71-3.93Z"/><path d="M79.27,79.09C79.16,79.11,68.65,81,64,81s-15.16-1.9-15.27-1.92A2,2,0,0,0,48,83c.44.08,11,2,16,2s15.54-1.9,16-2a2,2,0,0,0-.71-3.94Z"/><path d="M79.27,69.86c-.11,0-10.62,1.92-15.27,1.92s-15.16-1.9-15.27-1.92A2,2,0,0,0,48,73.8c.44.08,11,2,16,2s15.54-1.9,16-2a2,2,0,0,0-.71-3.94Z"/><path d="M37.66,45.61a7.35,7.35,0,0,1-7.33-7.34c0-4.63,5.31-10.08,5.92-10.68a2.05,2.05,0,0,1,2.83,0c.6.6,5.92,6.05,5.92,10.68A7.35,7.35,0,0,1,37.66,45.61Zm0-13.63c-1.62,1.95-3.33,4.56-3.33,6.29a3.34,3.34,0,1,0,6.67,0C41,36.54,39.29,33.93,37.66,32Z"/><path d="M63,36a9.68,9.68,0,0,1-9.67-9.67c0-6.3,7.41-13.9,8.26-14.74a2,2,0,0,1,2.82,0c.85.84,8.26,8.44,8.26,14.74A9.68,9.68,0,0,1,63,36Zm0-20.06c-2.33,2.66-5.67,7.2-5.67,10.39a5.67,5.67,0,0,0,11.34,0C68.67,23.16,65.28,18.58,63,15.94Z"/></svg>