<?xml version="1.0" ?><svg id="_x31_-outline-expand" style="enable-background:new 0 0 64 64;" version="1.1" viewBox="0 0 64 64" xml:space="preserve" xmlns="http://www.w3.org/2000/svg" xmlns:xlink="http://www.w3.org/1999/xlink"><path d="M3,62v-5c0-3.313,2.687-6,6-6h46c3.313,0,6,2.687,6,6v5H3z" style="fill:#62C4C3;"/><polygon points="24,43 24,51 32,56 40,51 40,43 " style="fill:#E0C494;"/><path d="M44,16v-1H16.211c-0.382,0-0.759-0.036-1.128-0.102C14.395,16.806,14,18.854,14,21v8  c0,9.941,8.059,18,18,18s18-8.059,18-18v-7C46.687,22,44,19.313,44,16z" style="fill:#F2DAAE;"/><path d="M12,22c-2.209,0-4,1.791-4,4s1.791,4,4,4h2v-8H12z" style="fill:#E0C494;"/><path d="M52,22h-2v8h2c2.209,0,4-1.791,4-4S54.209,22,52,22z" style="fill:#E0C494;"/><path d="M18,5c-1.282,0-2.369-0.809-2.798-1.941c-3.212,0.428-5.623,3.389-5.14,6.813  c0.42,2.989,3.13,5.128,6.149,5.128H44v1c0,3.313,2.687,6,6,6v-1c0-8.836-7.163-16-16-16H18z" style="fill:#3A4249;"/><path d="M27,40c0-2.761,2.238-5,5-5s5,2.239,5,5H27z" style="fill:#D36767;"/><polygon points="38,2 49,2 47,8 50,8 42,19 42,9 39,9 " style="fill:#D36767;"/><polygon points="22.447,29.895 21.553,28.105 25.764,26 21.553,23.895 22.447,22.105 30.236,26 " style="fill:#3A4249;"/><polygon points="41.553,29.895 33.764,26 41.553,22.105 42.447,23.895 38.236,26 42.447,28.105 " style="fill:#3A4249;"/></svg>