<?xml version="1.0" ?><svg id="_x31_-outline-expand" style="enable-background:new 0 0 64 64;" version="1.1" viewBox="0 0 64 64" xml:space="preserve" xmlns="http://www.w3.org/2000/svg" xmlns:xlink="http://www.w3.org/1999/xlink"><circle cx="50" cy="9" r="6" style="fill:#62C4C3;"/><polygon points="46,36 43,49 37,58 42,62 50,51 53,41 " style="fill:#42A5B2;"/><polygon points="44,22 37,31 41,35 48,26 " style="fill:#42A5B2;"/><path d="M57,36V19c0-2.209-1.791-4-4-4h-6c-2.209,0-4,1.791-4,4v12.029c0,3.183,1.264,6.235,3.515,8.485  L55,48v14h6V46L57,36z" style="fill:#62C4C3;"/><polygon points="57,36 57,32.264 51.536,29.532 47.828,21.187 44.172,22.812 48.464,32.468 57.368,36.92 " style="fill:#42A5B2;"/><rect height="2" style="fill:#3A4249;" transform="matrix(0.7071 -0.7071 0.7071 0.7071 -16.3583 34.5427)" width="16.263" x="25.386" y="36.018"/><path d="M13.972,59.392l-9.899-9.899l15.556-15.557c0.781-0.781,2.048-0.781,2.828,0l7.072,7.071  c0.78,0.781,0.78,2.048,0,2.829L13.972,59.392z" style="fill:#EF941D;"/><path d="M4.072,49.493l-1.768,1.768c-0.586,0.586-0.586,1.535,0,2.121c0.586,0.586,1.536,0.586,2.122,0  l1.768-1.768L4.072,49.493z" style="fill:#E0C494;"/><path d="M11.851,57.271l-1.768,1.768c-0.586,0.586-0.586,1.535,0,2.121s1.536,0.586,2.122,0l1.767-1.768  L11.851,57.271z" style="fill:#E0C494;"/><rect height="2" style="fill:#3A4249;" transform="matrix(0.7071 -0.7071 0.7071 0.7071 -27.7548 25.9939)" width="7.071" x="13.964" y="45.5"/><rect height="4" style="fill:#EFBC2E;" width="2" x="11" y="3"/><rect height="2" style="fill:#EFBC2E;" width="4" x="10" y="2"/><rect height="4" style="fill:#EFBC2E;" transform="matrix(0.5 -0.866 0.866 0.5 -4.3925 9.3917)" width="2" x="4.937" y="6.5"/><rect height="2" style="fill:#EFBC2E;" transform="matrix(0.4999 -0.8661 0.8661 0.4999 -4.3924 7.3929)" width="4" x="2.206" y="6.5"/><rect height="2" style="fill:#EFBC2E;" transform="matrix(0.8661 -0.4999 0.4999 0.8661 -6.9536 5.0442)" width="4" x="3.938" y="14.5"/><rect height="4" style="fill:#EFBC2E;" transform="matrix(0.866 -0.5 0.5 0.866 -7.6869 4.3137)" width="2" x="3.205" y="14.5"/><rect height="4" style="fill:#EFBC2E;" width="2" x="11" y="17"/><rect height="2" style="fill:#EFBC2E;" width="4" x="10" y="20"/><rect height="4" style="fill:#EFBC2E;" transform="matrix(0.5 -0.866 0.866 0.5 -4.3924 23.3919)" width="2" x="17.062" y="13.5"/><rect height="2" style="fill:#EFBC2E;" transform="matrix(0.4999 -0.8661 0.8661 0.4999 -4.3914 25.3947)" width="4" x="17.795" y="15.5"/><rect height="2" style="fill:#EFBC2E;" transform="matrix(0.8661 -0.4999 0.4999 0.8661 -1.8302 10.1682)" width="4" x="16.063" y="7.5"/><rect height="4" style="fill:#EFBC2E;" transform="matrix(0.866 -0.5 0.5 0.866 -1.0979 10.9026)" width="2" x="18.794" y="5.5"/><polygon points="36.707,16.707 35.293,15.293 38.586,12 35.293,8.707 36.707,7.293 41.414,12 " style="fill:#3A4249;"/><rect height="2" style="fill:#3A4249;" width="10" x="30" y="11"/><rect height="2" style="fill:#3A4249;" width="2" x="26" y="11"/><rect height="2" style="fill:#3A4249;" width="2" x="22" y="11"/><rect height="2" style="fill:#3A4249;" transform="matrix(0.7071 -0.7071 0.7071 0.7071 -22.2548 28.2721)" width="2.828" x="21.586" y="40"/><circle cx="12" cy="12" r="6" style="fill:#AA494A;"/><circle cx="12" cy="12" r="4" style="fill:#D36767;"/><polygon points="46,22 50,31 58,35 61,30 54,26 52,20 48,19 " style="fill:#62C4C3;"/></svg>