<?xml version="1.0" ?><svg id="_x31_-outline-expand" style="enable-background:new 0 0 64 64;" version="1.1" viewBox="0 0 64 64" xml:space="preserve" xmlns="http://www.w3.org/2000/svg" xmlns:xlink="http://www.w3.org/1999/xlink"><path d="M24,29v-5H12v5c-4.971,0-9,4.029-9,9v24h30V38C33,33.029,28.971,29,24,29L24,29z" style="fill:#F2DAAE;"/><rect height="4" style="fill:#EFBC2E;" width="2" x="17" y="37"/><rect height="2" style="fill:#EFBC2E;" width="4" x="16" y="36"/><rect height="4" style="fill:#EFBC2E;" transform="matrix(0.5 -0.866 0.866 0.5 -30.8368 31.5873)" width="2" x="10.938" y="40.5"/><rect height="2" style="fill:#EFBC2E;" transform="matrix(0.4999 -0.8661 0.8661 0.4999 -30.8381 29.5925)" width="4" x="8.206" y="40.5"/><rect height="2" style="fill:#EFBC2E;" transform="matrix(0.8661 -0.4999 0.4999 0.8661 -23.1472 12.5975)" width="4" x="9.938" y="48.5"/><rect height="4" style="fill:#EFBC2E;" transform="matrix(0.866 -0.5 0.5 0.866 -23.8838 11.8697)" width="2" x="9.206" y="48.5"/><rect height="4" style="fill:#EFBC2E;" width="2" x="17" y="51"/><rect height="2" style="fill:#EFBC2E;" width="4" x="16" y="54"/><rect height="4" style="fill:#EFBC2E;" transform="matrix(0.5 -0.866 0.866 0.5 -30.8371 45.5867)" width="2" x="23.062" y="47.5"/><rect height="2" style="fill:#EFBC2E;" transform="matrix(0.4999 -0.8661 0.8661 0.4999 -30.8376 47.5935)" width="4" x="23.794" y="49.5"/><rect height="2" style="fill:#EFBC2E;" transform="matrix(0.8661 -0.4999 0.4999 0.8661 -18.024 17.721)" width="4" x="22.062" y="41.5"/><rect height="4" style="fill:#EFBC2E;" transform="matrix(0.866 -0.5 0.5 0.866 -17.2949 18.4582)" width="2" x="24.794" y="39.5"/><path d="M24,46c0,3.313-2.687,6-6,6c-3.313,0-6-2.687-6-6s2.687-6,6-6C21.313,40,24,42.687,24,46L24,46z" style="fill:#AA494A;"/><path d="M22,46c0,2.209-1.791,4-4,4c-2.209,0-4-1.791-4-4s1.791-4,4-4C20.209,42,22,43.791,22,46L22,46z" style="fill:#D36767;"/><rect height="7" style="fill:#3A4249;" width="18" x="9" y="17"/><rect height="8" style="fill:#42A5B2;" width="4" x="53" y="15"/><rect height="31" style="fill:#62C4C3;" width="10" x="50" y="23"/><rect height="7" style="fill:#3A4249;" width="6" x="52" y="54"/><rect height="2" style="fill:#3A4249;" width="14" x="48" y="60"/><rect height="13" style="fill:#3A4249;" width="2" x="54" y="2"/><rect height="2" style="fill:#3A4249;" width="3" x="57" y="28"/><rect height="2" style="fill:#3A4249;" width="3" x="57" y="32"/><rect height="2" style="fill:#3A4249;" width="5" x="55" y="36"/><rect height="2" style="fill:#3A4249;" width="3" x="57" y="40"/><rect height="2" style="fill:#3A4249;" width="3" x="57" y="44"/><rect height="2" style="fill:#3A4249;" width="5" x="55" y="48"/><path d="M49.507,18.342c-0.392-0.531-0.814-1.054-1.258-1.556l1.5-1.324c0.481,0.546,0.941,1.116,1.367,1.693  L49.507,18.342z M46.86,15.343c-0.477-0.455-0.983-0.898-1.507-1.316l1.248-1.562c0.569,0.455,1.121,0.937,1.64,1.433L46.86,15.343z   M15.847,14.698l-1.318-1.504c0.541-0.474,1.111-0.933,1.696-1.362l1.184,1.611C16.87,13.839,16.345,14.261,15.847,14.698z   M43.735,12.844c-0.554-0.369-1.13-0.717-1.712-1.036l0.959-1.755c0.634,0.347,1.261,0.726,1.862,1.127L43.735,12.844z   M19.073,12.33l-1.039-1.709c0.619-0.376,1.26-0.729,1.906-1.048l0.887,1.793C20.232,11.66,19.643,11.984,19.073,12.33z   M40.226,10.925c-0.609-0.267-1.237-0.51-1.867-0.723l0.639-1.896c0.686,0.231,1.369,0.496,2.031,0.786L40.226,10.925z   M22.658,10.56l-0.725-1.864c0.675-0.263,1.368-0.498,2.062-0.7l0.56,1.92C23.917,10.101,23.279,10.318,22.658,10.56z M36.435,9.646  c-0.646-0.156-1.308-0.286-1.966-0.386l0.299-1.978c0.717,0.108,1.436,0.25,2.138,0.42L36.435,9.646z M26.497,9.44l-0.389-1.962  c0.709-0.141,1.434-0.252,2.152-0.33l0.215,1.988C27.815,9.209,27.149,9.311,26.497,9.44z M32.477,9.047C31.989,9.016,31.496,9,31,9  l-0.526,0.006l-0.043-2c0.724-0.016,1.457-0.001,2.173,0.044L32.477,9.047z" style="fill:#3A4249;"/><path d="M35.216,56.646l-0.334-1.972c0.645-0.109,1.291-0.248,1.923-0.413l0.504,1.936  C36.621,56.376,35.917,56.528,35.216,56.646z M39.354,55.57l-0.668-1.885c0.612-0.217,1.226-0.465,1.823-0.737l0.828,1.821  C40.688,55.064,40.021,55.334,39.354,55.57z M43.245,53.801l-0.98-1.743c0.569-0.32,1.132-0.668,1.672-1.037l1.127,1.652  C44.476,53.074,43.863,53.454,43.245,53.801z M46.776,51.395l-1.264-1.551c0.507-0.413,1.003-0.853,1.473-1.307l1.391,1.438  C47.864,50.469,47.326,50.946,46.776,51.395z" style="fill:#3A4249;"/><path d="M31.493,18.813c2.115-0.541,3.779-2.205,4.32-4.32c0.051-0.201,0.323-0.201,0.373,0  c0.541,2.115,2.205,3.779,4.321,4.32c0.201,0.051,0.201,0.323,0,0.374c-2.116,0.541-3.78,2.205-4.321,4.32  c-0.05,0.201-0.322,0.201-0.373,0c-0.541-2.115-2.205-3.779-4.32-4.32C31.292,19.136,31.292,18.864,31.493,18.813L31.493,18.813z" style="fill:#EFBC2E;"/></svg>