<?xml version="1.0" ?><svg id="_x31_-outline-expand" style="enable-background:new 0 0 64 64;" version="1.1" viewBox="0 0 64 64" xml:space="preserve" xmlns="http://www.w3.org/2000/svg" xmlns:xlink="http://www.w3.org/1999/xlink"><path d="M55,17H39.479c-3.103,0-5.694,2.366-5.975,5.457L33,28l-8,6l4,5l10-7v-8h16v14h6V23  C61,19.687,58.313,17,55,17z" style="fill:#62C4C3;"/><polygon points="39,24 39,38 35,62 43,62 47,38 47,62 55,62 55,24 " style="fill:#62C4C3;"/><circle cx="47" cy="10" r="7" style="fill:#62C4C3;"/><rect height="4" style="fill:#EFBC2E;" width="2" x="10" y="3"/><rect height="2" style="fill:#EFBC2E;" width="4" x="9" y="2"/><rect height="4" style="fill:#EFBC2E;" transform="matrix(0.5 -0.866 0.866 0.5 -4.8925 8.5257)" width="2" x="3.937" y="6.5"/><rect height="2" style="fill:#EFBC2E;" transform="matrix(0.4999 -0.8661 0.8661 0.4999 -4.8925 6.5269)" width="4" x="1.206" y="6.5"/><rect height="2" style="fill:#EFBC2E;" transform="matrix(0.8661 -0.4999 0.4999 0.8661 -7.0875 4.5442)" width="4" x="2.938" y="14.5"/><rect height="4" style="fill:#EFBC2E;" transform="matrix(0.866 -0.5 0.5 0.866 -7.8209 3.8137)" width="2" x="2.205" y="14.5"/><rect height="4" style="fill:#EFBC2E;" width="2" x="10" y="17"/><rect height="2" style="fill:#EFBC2E;" width="4" x="9" y="20"/><rect height="4" style="fill:#EFBC2E;" transform="matrix(0.5 -0.866 0.866 0.5 -4.8923 22.5259)" width="2" x="16.062" y="13.5"/><rect height="2" style="fill:#EFBC2E;" transform="matrix(0.4999 -0.8661 0.8661 0.4999 -4.8915 24.5287)" width="4" x="16.795" y="15.5"/><rect height="2" style="fill:#EFBC2E;" transform="matrix(0.8661 -0.4999 0.4999 0.8661 -1.9642 9.6683)" width="4" x="15.063" y="7.5"/><rect height="4" style="fill:#EFBC2E;" transform="matrix(0.866 -0.5 0.5 0.866 -1.2319 10.4026)" width="2" x="17.794" y="5.5"/><circle cx="11" cy="12" r="6" style="fill:#AA494A;"/><circle cx="11" cy="12" r="4" style="fill:#D36767;"/><polygon points="31.707,16.707 30.293,15.293 33.586,12 30.293,8.707 31.707,7.293 36.414,12 " style="fill:#3A4249;"/><rect height="2" style="fill:#3A4249;" width="10" x="25" y="11"/><rect height="2" style="fill:#3A4249;" width="2" x="21" y="11"/><path d="M45.335,13.709c-1.217-1.21-3.063-1.517-4.594-0.762l-0.883-1.795  c2.298-1.13,5.065-0.672,6.887,1.138L45.335,13.709z" style="fill:#3A4249;"/><rect height="8" style="fill:#3A4249;" width="2" x="46" y="21"/><rect height="2" style="fill:#3A4249;" width="2" x="46" y="31"/><rect height="14" style="fill:#42A5B2;" width="2" x="55" y="24"/><rect height="8" style="fill:#42A5B2;" width="2" x="39" y="24"/></svg>