<?xml version="1.0" ?><svg id="_x31_-outline-expand" style="enable-background:new 0 0 64 64;" version="1.1" viewBox="0 0 64 64" xml:space="preserve" xmlns="http://www.w3.org/2000/svg" xmlns:xlink="http://www.w3.org/1999/xlink"><path d="M23,44v8.5c0,1.381,1.119,2.5,2.5,2.5c1.381,0,2.5-1.119,2.5-2.5V44H23z" style="fill:#EFBC2E;"/><path d="M24.913,49.255L28,51.018v-4.607l-1.099-0.627c-0.818-0.47-1.711-0.776-2.65-0.911L23,44.694v4.041  l0.686,0.098C24.121,48.895,24.533,49.036,24.913,49.255z" style="fill:#EF941D;"/><path d="M44.4,37.4l-2.084-2.083c-0.853-0.854-1.4-1.966-1.554-3.164L37.64,7.959C37.274,5.123,34.859,3,32,3  s-5.274,2.123-5.64,4.959l-3.122,24.194c-0.154,1.198-0.701,2.31-1.554,3.164L19.6,37.4c-1.025,1.024-1.6,2.414-1.6,3.863  c0,2.718,1.999,5.023,4.689,5.407l1.279,0.183c0.681,0.097,1.34,0.322,1.937,0.665l3.385,1.933c1.679,0.96,3.741,0.96,5.42,0  l3.385-1.933c0.597-0.343,1.256-0.568,1.937-0.665l1.279-0.183C44.001,46.286,46,43.981,46,41.263  C46,39.814,45.425,38.424,44.4,37.4z" style="fill:#F2DAAE;"/><path d="M39,51c0,0-3,4.239-3,7s1.343,4,3,4s3-1.239,3-4S39,51,39,51z" style="fill:#62C4C3;"/><path d="M34.71,49.451l3.385-1.933c0.597-0.343,1.256-0.568,1.937-0.665l1.279-0.183  C44.001,46.286,46,43.981,46,41.263c0-1.449-0.575-2.839-1.6-3.863l-2.084-2.083c-0.853-0.854-1.4-1.966-1.554-3.164L37.64,7.959  C37.274,5.123,34.859,3,32,3v47.171C32.935,50.171,33.871,49.931,34.71,49.451z" style="fill:#E0C494;"/><path d="M36.609,60.626C37.157,61.553,38.019,62,39,62c1.657,0,3-1.239,3-4c0-1.234-0.599-2.761-1.262-4.074  C40.143,57.177,38.581,59.714,36.609,60.626z" style="fill:#42A5B2;"/></svg>