<?xml version="1.0" ?><svg id="_x31_-outline-expand" style="enable-background:new 0 0 64 64;" version="1.1" viewBox="0 0 64 64" xml:space="preserve" xmlns="http://www.w3.org/2000/svg" xmlns:xlink="http://www.w3.org/1999/xlink"><path d="M61,19.971C61,10.598,53.402,3,44.03,3c-4.501,0-8.818,1.788-12,4.971L20,20l24,24l12.03-12.029  C59.212,28.788,61,24.472,61,19.971z" style="fill:#62C4C3;"/><path d="M7.971,32.029C4.788,35.212,3,39.528,3,44.029C3,53.402,10.598,61,19.971,61  c4.501,0,8.817-1.788,12-4.971L44,44L20,20L7.971,32.029z" style="fill:#42A5B2;"/><path d="M32.364,14.707l-1.414-1.414l3.201-3.201c1.003-1.003,2.142-1.844,3.382-2.498l0.933,1.77  c-1.063,0.561-2.039,1.281-2.901,2.143L32.364,14.707z" style="fill:#F2DAAE;"/><path d="M41.232,8.326l-0.464-1.945C41.83,6.128,42.927,6,44.029,6v2C43.083,8,42.141,8.109,41.232,8.326z" style="fill:#F2DAAE;"/><rect height="5.657" style="fill:#3A4249;" transform="matrix(0.7071 -0.7071 0.7071 0.7071 -9.1126 22.0003)" width="2" x="21.001" y="19.172"/><rect height="5.657" style="fill:#3A4249;" transform="matrix(0.7071 -0.7071 0.7071 0.7071 -17.3968 42.0003)" width="2" x="41.001" y="39.172"/><rect height="4" style="fill:#EFBC2E;" width="2" x="31" y="23"/><rect height="2" style="fill:#EFBC2E;" width="4" x="30" y="22"/><rect height="4" style="fill:#EFBC2E;" transform="matrix(0.5 -0.866 0.866 0.5 -11.713 36.7119)" width="2" x="24.938" y="26.5"/><rect height="2" style="fill:#EFBC2E;" transform="matrix(0.4999 -0.8661 0.8661 0.4999 -11.712 34.7164)" width="4.001" x="22.206" y="26.5"/><rect height="2" style="fill:#EFBC2E;" transform="matrix(0.8661 -0.4999 0.4999 0.8661 -14.2733 17.7214)" width="4" x="23.938" y="34.5"/><rect height="4.001" style="fill:#EFBC2E;" transform="matrix(0.8661 -0.4999 0.4999 0.8661 -15.0052 16.9895)" width="2" x="23.206" y="34.5"/><rect height="4" style="fill:#EFBC2E;" width="2" x="31" y="37"/><rect height="2" style="fill:#EFBC2E;" width="4" x="30" y="40"/><rect height="4" style="fill:#EFBC2E;" transform="matrix(0.5 -0.866 0.866 0.5 -11.7129 50.7121)" width="2" x="37.063" y="33.5"/><rect height="2" style="fill:#EFBC2E;" transform="matrix(0.4999 -0.8661 0.8661 0.4999 -11.711 52.7182)" width="4.001" x="37.795" y="35.5"/><rect height="2" style="fill:#EFBC2E;" transform="matrix(0.8661 -0.4999 0.4999 0.8661 -9.15 22.8454)" width="4" x="36.063" y="27.5"/><rect height="4.001" style="fill:#EFBC2E;" transform="matrix(0.8661 -0.4999 0.4999 0.8661 -8.4181 23.5773)" width="2" x="38.795" y="25.5"/><path d="M38,32c0,3.313-2.687,6-6,6c-3.313,0-6-2.687-6-6c0-3.313,2.687-6,6-6C35.313,26,38,28.687,38,32  L38,32z" style="fill:#AA494A;"/><path d="M36,32c0,2.208-1.791,4-4,4c-2.208,0-4-1.791-4-4c0-2.208,1.791-4,4-4C34.209,28,36,29.792,36,32  L36,32z" style="fill:#D36767;"/></svg>