<?xml version="1.0" ?><svg id="_x31_-outline-expand" style="enable-background:new 0 0 64 64;" version="1.1" viewBox="0 0 64 64" xml:space="preserve" xmlns="http://www.w3.org/2000/svg" xmlns:xlink="http://www.w3.org/1999/xlink"><path d="M10.452,20.62l-1.57-1.239c3.049-3.86,6.636-7.246,10.662-10.065l1.146,1.639  C16.824,13.661,13.379,16.913,10.452,20.62z" style="fill:#3A4249;"/><path d="M26,32c2.39,0,4.54-1.05,6-2.71c1.46,1.66,3.61,2.71,6,2.71v-4c-2.209,0-4-1.791-4-4V2h-4v22  c0,2.209-1.791,4-4,4V32z" style="fill:#EFBC2E;"/><path d="M26,35.7V15.28c0-1.26-1.02-2.28-2.28-2.28c-0.47,0-0.93,0.14-1.31,0.41  c-6.32,4.43-11.32,10.32-14.66,17.04c-1.43,2.87-2.55,5.9-3.34,9.03C3.48,43.1,3,46.86,3,50.69v9.03C3,60.98,4.02,62,5.28,62h0.13  c0.39,0,0.77-0.1,1.1-0.28l7.98-4.39l9.44-5.19c1.28-0.7,2.07-2.05,2.07-3.51V35.7z" style="fill:#F2DAAE;"/><path d="M40.46,52.36l-0.39-0.22c-1.28-0.7-2.07-2.05-2.07-3.51V15.28c0-1.26,1.02-2.28,2.28-2.28  c0.47,0,0.93,0.14,1.31,0.41c7.42,5.2,13.01,12.4,16.24,20.61C59.9,39.25,61,44.9,61,50.69v9.03c0,1.26-1.019,2.28-2.28,2.28h-0.13  c-0.39,0-0.77-0.1-1.1-0.28L40.46,52.36z" style="fill:#F2DAAE;"/><path d="M23.72,13c-0.47,0-0.93,0.14-1.31,0.41c-6.32,4.43-11.32,10.32-14.66,17.04  C10.47,34.41,14.94,37,20,37c2.13,0,4.16-0.46,6-1.3V15.28C26,14.02,24.98,13,23.72,13z" style="fill:#AA494A;"/><path d="M20,37c-5.06,0-9.53-2.59-12.25-6.55c-1.43,2.87-2.55,5.9-3.34,9.03  c1.88,8.01,5.52,14.44,10.08,17.85l9.44-5.19c1.28-0.7,2.07-2.05,2.07-3.51V35.7C24.16,36.54,22.13,37,20,37z" style="fill:#D36767;"/><path d="M4.41,39.48C3.48,43.1,3,46.86,3,50.69v9.03C3,60.98,4.019,62,5.28,62h0.13  c0.39,0,0.769-0.1,1.1-0.28l7.98-4.39C9.929,53.92,6.29,47.49,4.41,39.48z" style="fill:#AA494A;"/><path d="M57.83,34.02c-2.54,8.54-9.03,15.36-17.37,18.34l17.03,9.36C57.82,61.9,58.2,62,58.59,62h0.13  c1.26,0,2.28-1.02,2.28-2.28v-9.03C61,44.9,59.9,39.25,57.83,34.02z" style="fill:#D36767;"/><path d="M41.59,13.41C41.21,13.14,40.75,13,40.28,13C39.02,13,38,14.02,38,15.28v33.35  c0,1.46,0.79,2.81,2.07,3.51l0.39,0.22c8.34-2.98,14.83-9.8,17.37-18.34C54.6,25.81,49.01,18.61,41.59,13.41z" style="fill:#AA494A;"/><polygon points="48,2 61,2 56,11 59,11 48,22 50,12 47,12 " style="fill:#EF941D;"/></svg>