<?xml version="1.0" ?><svg id="icons" viewBox="0 0 340 340" xmlns="http://www.w3.org/2000/svg" xmlns:xlink="http://www.w3.org/1999/xlink"><defs><radialGradient cx="187.285" cy="195.473" gradientUnits="userSpaceOnUse" id="radial-gradient" r="86.553"><stop offset="0" stop-color="#f97d7d"/><stop offset="1" stop-color="#fcd0be"/></radialGradient><linearGradient gradientUnits="userSpaceOnUse" id="New_Gradient_Swatch_6" x1="164.845" x2="164.845" y1="-0.767" y2="370.242"><stop offset="0" stop-color="#fcd0be"/><stop offset="1" stop-color="#efa69a"/></linearGradient><linearGradient id="New_Gradient_Swatch_6-2" x1="298.263" x2="92.883" xlink:href="#New_Gradient_Swatch_6" y1="250.795" y2="316.729"/><linearGradient gradientUnits="userSpaceOnUse" id="linear-gradient" x1="81.758" x2="81.758" y1="25.139" y2="138.493"><stop offset="0" stop-color="#c6bab9"/><stop offset="1" stop-color="#af9594"/></linearGradient><linearGradient id="linear-gradient-2" x1="271.506" x2="271.506" xlink:href="#linear-gradient" y1="25.139" y2="138.493"/><linearGradient id="linear-gradient-3" x1="259.065" x2="259.065" xlink:href="#linear-gradient" y1="25.139" y2="138.493"/><linearGradient gradientUnits="userSpaceOnUse" id="linear-gradient-4" x1="11.398" x2="56.153" y1="110.921" y2="272.249"><stop offset="0" stop-color="#f3f8ff"/><stop offset="1" stop-color="#c9d4e5"/></linearGradient></defs><title/><path d="M64.151,234.181H91.876a13.806,13.806,0,0,1,13.634,11.573c1.109,6.777,2.415,16.182,3.334,27.269h-30.6Z" style="fill:#464965"/><path d="M48.092,171.86l-3.618-22.524a4.856,4.856,0,0,0-5.22-3.933c-6.459.472-26.277,7.683-26.277,7.683l7.284,39.592,10.813-8.151-.107-.486Z" style="fill:#464965"/><path d="M193.122,167.162l-36.747,33.021s-10.468,50.758-17.631,125.382H327.655s-6.536-99.21-28.851-149.35l-58.382-21.06-9.158-24.265Z" style="fill:url(#radial-gradient)"/><path d="M173.471,211.644s2.6,73.712,74.329,113.921h65.872Z" style="fill:#cc6262"/><polygon points="228.401 123.305 182.547 137.922 193.122 167.162 231.666 131.954 228.401 123.305" style="fill:#464965"/><path d="M101.315,18.526s-1.352,18.928,14.872,28.392l-13.52,5.746s6.084,14.534,24,20.279c0,0,16.9,49.348,33.461,75.711L228.4,123.305,204,46.5a13.394,13.394,0,0,0-12.489-9.347C174.166,36.791,135.968,34.1,101.315,18.526Z" style="fill:url(#New_Gradient_Swatch_6)"/><path d="M175.137,126.864l30.081-12.231s-3.919-12.674-13.4-16.518c0,0-6.9-1.1-12.536,2.373C163.983,109.933,175.137,126.864,175.137,126.864Z" style="fill:#fc6b98"/><path d="M177.109,99.388c-18.265,9.061-4.44,28.6-4.44,28.6l8.064-3.309c-1.582-2.79-5.882-11.759-.367-18.682a23.949,23.949,0,0,1,11.447-7.869C187.9,96.54,183.039,96.446,177.109,99.388Z" style="fill:#464965"/><path d="M291.186,281.182s-28.949-7.176-47.258-27.712l1.042-1.481a16.037,16.037,0,0,0,2.76-11.494l-3.8-26.614-1.136-.32a10.183,10.183,0,0,0-12.84,8.291L228.4,232.191a187.825,187.825,0,0,1-15.6-29.9,8.4,8.4,0,0,0-11.723-4.373l-24.7,12.99a210.417,210.417,0,0,0,12.991,35.05A122.054,122.054,0,0,0,227.2,291.6c21.282,15.69,57.677,36.193,100.452,33.969Z" style="fill:url(#New_Gradient_Swatch_6-2)"/><path d="M103.272,89.92c-3.157-9.216-8.75-13.334-13.749-15.1a21.728,21.728,0,0,0-15.707.742C56.954,82.726,59.246,98.7,59.246,98.7s.662,15.713,16.447,15.713a16.418,16.418,0,0,0,12.474-5.736,13.611,13.611,0,0,0,16.208-13.387A27.192,27.192,0,0,0,103.272,89.92Z" style="fill:url(#linear-gradient)"/><path d="M285.334,15.765c-7.048-5.344-13.348-5.613-18.01-4.412a19.731,19.731,0,0,0-11.458,8.516c-9.075,13.942.746,24.817.746,24.817s8.46,11.5,20.353,3.506a14.862,14.862,0,0,0,6.088-8.538,5.718,5.718,0,0,1,2.447-3.2l.02-.014a12.382,12.382,0,0,0,3.366-17.184A24.767,24.767,0,0,0,285.334,15.765Z" style="fill:url(#linear-gradient-2)"/><circle cx="259.065" cy="100.792" r="10.718" style="fill:url(#linear-gradient-3)"/><circle cx="115.092" cy="166.351" r="13.265" style="fill:#e8dada"/><path d="M18.679,178.961l31.475-16.545a2.824,2.824,0,0,1,4.072,1.891L78.239,273.023H28.346L12.57,191.683A11.829,11.829,0,0,1,18.679,178.961Z" style="fill:url(#linear-gradient-4)"/><circle cx="120.887" cy="123.305" r="7.47" style="fill:#e8dada"/><circle cx="295.807" cy="71.557" r="6.22" style="fill:#e8dada"/><path d="M28.346,276.523h80.5a3.5,3.5,0,0,0,3.488-3.789c-.775-9.353-1.908-18.621-3.368-27.545a17.245,17.245,0,0,0-17.088-14.508h-19.4L56.847,159.94a3.394,3.394,0,0,0-1.945-2.419c-2.055-.868-5.459,1.315-5.459,1.315l-1.281-8.449a9.817,9.817,0,0,0-10.765-8.3,77.237,77.237,0,0,0-15.3,3.319l-.019.008a77.255,77.255,0,0,0-11.348,4.574,3.5,3.5,0,0,0-1.8,3.783l4.871,24.388a15.215,15.215,0,0,0-4.657,14.19L24.91,273.69C25.246,275.388,26.42,276.307,28.346,276.523Zm63.53-38.842a10.272,10.272,0,0,1,10.18,8.638c1.232,7.536,2.227,15.324,2.965,23.2H81.051l-7.033-31.842Zm-25.645-2.8v.006l7.65,34.633H31.836c.386-7.042,3.551-23.439,24.335-27.363a3.5,3.5,0,0,0-1.3-6.879c-15.2,2.871-22.752,11.362-26.48,19.6l-12.385-63.86a8.278,8.278,0,0,1,4.3-8.958h0L51,165.926Zm-42-82.811.011,0a70.324,70.324,0,0,1,13.9-3.021,2.824,2.824,0,0,1,3.1,2.389l1.644,10.847L20.147,174.235,16.32,155.077A79.5,79.5,0,0,1,24.23,152.073Z" style="fill:#464965"/><path d="M172.67,131.489a3.5,3.5,0,0,0,1.328-.263l8.063-3.309a3.438,3.438,0,0,0,.662-.36l23.813-9.682a3.5,3.5,0,0,0,2.025-4.276c-.179-.582-4.534-14.311-15.427-18.728-.06-.024-.12-.032-.18-.052-5.364-2.114-11.216-1.635-17.4,1.434-5.847,2.9-9.494,7.073-10.839,12.4-2.6,10.31,4.782,20.908,5.1,21.354A3.5,3.5,0,0,0,172.67,131.489ZM183.1,108.177a20.207,20.207,0,0,1,8.556-6.269c4.573,2.432,7.524,7.527,9.023,10.79l-18.25,7.421C181.152,116.877,180.084,111.969,183.1,108.177Zm-11.6,2.168c.838-3.29,3.179-5.848,7.157-7.821l.106-.053q-.588.651-1.141,1.345c-5.172,6.492-3.554,14.178-1.676,18.937l-1.876.763C172.477,120.486,170.283,115.146,171.507,110.345Z" style="fill:#464965"/><path d="M299.991,172.923,243.127,152.41l-11.416-30.248L207.339,45.437A16.893,16.893,0,0,0,191.587,33.65c-18.816-.388-55.377-3.283-88.837-18.316a3.5,3.5,0,0,0-4.926,2.943c-.055.765-1.04,16.923,11.3,27.841L101.3,49.443a3.5,3.5,0,0,0-1.86,4.572c.266.635,6.539,15.191,24.48,21.689,3.117,8.9,18.156,50.793,33.244,74.812a3.5,3.5,0,0,0,4.182,1.42l19.88-7.382,7.8,21.581L154.035,197.58a3.5,3.5,0,0,0-1.088,1.9c-.1.51-10.588,51.8-17.687,125.755-.011.113,0,.222,0,.334h7c6.481-67.366,15.761-115.7,17.317-123.555l70.636-63.99,6.933,18.371a3.506,3.506,0,0,0,2.087,2.057L296.2,179c18.985,43.986,26.274,125.187,27.693,143.2-39.412.879-73.072-17.536-94.615-33.42a119.02,119.02,0,0,1-36.75-44.324A214.206,214.206,0,0,1,180.5,212.7l4.41-2.319c1.817,5.2,5.153,14.409,7.916,20.12a3.5,3.5,0,1,0,6.3-3.049c-2.765-5.712-6.282-15.557-7.95-20.367L196.1,204.5c1.966,4.852,5.664,13.609,9.483,20.7a3.5,3.5,0,0,0,6.164-3.318c-3.8-7.05-7.582-16.106-9.418-20.659l.384-.2a4.895,4.895,0,0,1,6.836,2.554,189.337,189.337,0,0,0,15.933,30.541,3.5,3.5,0,0,0,6.385-1.405l1.55-10.339a6.692,6.692,0,0,1,7.386-5.652l3.467,24.272a12.481,12.481,0,0,1-2.158,8.984l-1.043,1.481a3.5,3.5,0,0,0,.251,4.343c18.814,21.1,47.8,28.476,49.03,28.779a3.5,3.5,0,0,0,1.686-6.793c-.27-.067-26.225-6.7-43.628-24.641A19.446,19.446,0,0,0,251.194,240l-3.8-26.614a3.5,3.5,0,0,0-2.514-2.873l-1.135-.32a13.685,13.685,0,0,0-17.254,11.14l-.114.757a167.626,167.626,0,0,1-10.316-21.074,11.9,11.9,0,0,0-16.61-6.192l-24.7,12.991a3.5,3.5,0,0,0-1.766,3.951,212.065,212.065,0,0,0,13.227,35.7,126.055,126.055,0,0,0,38.914,46.945c21.908,16.151,55.91,34.822,96.031,34.82,2.206,0,4.438-.057,6.68-.174,2.1-.062,3.4-1.3,3.31-3.725,0,0-6.833-100.409-29.146-150.543A3.5,3.5,0,0,0,299.991,172.923ZM161.606,144.371c-15.68-26.229-31.467-72.087-31.629-72.562a3.5,3.5,0,0,0-2.243-2.2,37.183,37.183,0,0,1-20.15-15.234l9.973-4.238a3.5,3.5,0,0,0,.394-6.245c-9.275-5.41-12.054-14.3-12.856-19.935,33.1,13.593,67.968,16.31,86.347,16.689a9.9,9.9,0,0,1,9.225,6.907l23.389,73.63Zm33.025,16.673-6.845-18.926,38.57-14.32,1.2,3.172Z" style="fill:#464965"/></svg>