<?xml version="1.0" ?><svg id="icons" viewBox="0 0 340 340" xmlns="http://www.w3.org/2000/svg" xmlns:xlink="http://www.w3.org/1999/xlink"><defs><linearGradient gradientUnits="userSpaceOnUse" id="New_Gradient_Swatch_6" x1="224.64" x2="224.64" y1="73.335" y2="360.97"><stop offset="0" stop-color="#fcd0be"/><stop offset="1" stop-color="#efa69a"/></linearGradient><linearGradient id="New_Gradient_Swatch_6-2" x1="170" x2="170" xlink:href="#New_Gradient_Swatch_6" y1="73.335" y2="360.97"/></defs><title/><path d="M165.849,11.75s36.427,17.719,106.5,28.626a18.616,18.616,0,0,1,15.656,19.953l-8.61,103.2H186.163a632.18,632.18,0,0,1,1.16-88.218s-18.572,1.16-26.117-17.412l21.474-4.643S160.626,41.634,165.849,11.75Z" style="fill:url(#New_Gradient_Swatch_6)"/><path d="M226.405,163.526l-2.224,24.987a18.019,18.019,0,0,1-16.764,16.381l-1.68.111a114.589,114.589,0,0,0-25.155,4.518c-16.741,4.98-48.32,13.82-76.107,18.478a9.977,9.977,0,0,1-11.392-7.846c-3.644-17.63-11.055-56.943-11.579-87.42a15.919,15.919,0,0,1,7.171-13.627,24.557,24.557,0,0,1,3.073-1.706,16.406,16.406,0,0,0,9.717-14.815V80.44a8.286,8.286,0,0,0-8.291-8.285h-.89V61.521A15.187,15.187,0,0,0,76.352,46.335c-9.859.5-22.858,1.916-34.731,5.611A15.174,15.174,0,0,0,30.98,67.061a213.087,213.087,0,0,0,4.367,35.47,18.617,18.617,0,0,0,10.49,13.013,34.77,34.77,0,0,1,8.727,5.505,15.692,15.692,0,0,1,5.165,11.168c.571,14.727,2.654,59,7.972,90.084a39.76,39.76,0,0,1-.462,15.6,19.328,19.328,0,0,0,3.49,16.676c6.753,8.681,18.685,8.816,25.366,4.158a39.92,39.92,0,0,1,16.274-6.38c19.925-3.36,59.1-9.2,83.3-7.758,0,0,4.391,44.178,6.387,87.154H309.034s0-53.512-2.078-89.1a20.8,20.8,0,0,0-9.149-16.056c-9.231-6.212-24.265-16.474-35.876-25.106,0,0-4.39-22.432-4.39-37.96Z" style="fill:url(#New_Gradient_Swatch_6-2)"/><path d="M222.169,195.293l36.043-19.441c-.4-4.235-.671-8.491-.671-12.326H226.405l-2.224,24.987A17.931,17.931,0,0,1,222.169,195.293Z" style="fill:#464965"/><path d="M235.46,139.14a13.228,13.228,0,0,1-6.513-1.707l-.323-.182a6.231,6.231,0,0,0-5.211-.43l-5.218,1.907a3.5,3.5,0,1,1-2.4-6.574l5.219-1.907a13.226,13.226,0,0,1,11.057.91l.323.183a6.262,6.262,0,0,0,6.187-.028,13.158,13.158,0,0,1,11.494-.838l2.088.829a3.5,3.5,0,1,1-2.582,6.5l-2.087-.828a6.209,6.209,0,0,0-5.415.4A13.235,13.235,0,0,1,235.46,139.14Z" style="fill:#cc6262"/><path d="M288.56,331.75c-.6-16.576-3.775-48.734-6.2-71.618a1.991,1.991,0,0,0-3.969.125,631.113,631.113,0,0,0-4.31,71.493Z" style="fill:#cc6262"/><path d="M67.3,82.815s3.144,7.212,14.055,8.877a22.4,22.4,0,0,0-13.222,10.345S59.515,87.638,42.5,85.666Z" style="fill:#464965"/><path d="M308.5,229.554c-1.058-.9-25.405-21.481-43.457-30.452-.912-4.993-3.482-19.953-3.937-32.077H279.4a3.5,3.5,0,0,0,3.487-3.209l8.61-103.2a22.183,22.183,0,0,0-18.6-23.7C204.257,26.236,167.739,8.777,167.379,8.6a3.5,3.5,0,0,0-4.977,2.546c-3.681,21.053,5.432,33.906,12.176,40.277l-14.111,3.051a3.5,3.5,0,0,0-2.5,4.739,30.884,30.884,0,0,0,25.571,19.47,642.452,642.452,0,0,0-.863,85.09,3.5,3.5,0,0,0,3.491,3.251H222.58L220.7,188.2c-2.119,12.345-15.188,13.311-15.188,13.311a118.243,118.243,0,0,0-25.923,4.655c-16.377,4.872-47.987,13.738-75.686,18.381a6.45,6.45,0,0,1-7.387-5.1C93.226,203.558,85.53,163.3,85,132.678a12.345,12.345,0,0,1,5.582-10.639,21.045,21.045,0,0,1,2.634-1.461,20.031,20.031,0,0,0,11.745-17.994V80.446a11.812,11.812,0,0,0-9.181-11.5V61.521A18.686,18.686,0,0,0,76.174,42.84c-9.308.472-23.038,1.856-35.593,5.764a18.682,18.682,0,0,0-13.1,18.6,216.946,216.946,0,0,0,4.444,36.068A22.2,22.2,0,0,0,44.4,118.735a31.035,31.035,0,0,1,7.839,4.929,12.248,12.248,0,0,1,3.993,8.7c.66,16.98,2.761,59.791,8.02,90.532a36.113,36.113,0,0,1-.423,14.226,22.779,22.779,0,0,0,4.139,19.606c7.809,10.041,21.884,10.63,30.129,4.88a36.292,36.292,0,0,1,14.855-5.8c19.821-3.341,55.764-8.66,79.525-7.853,1.01,10.653,4.4,47.836,6.076,83.8h6.991c0-.055.012-.107.009-.162-1.977-42.575-6.356-86.9-6.4-87.337a3.5,3.5,0,0,0-3.275-3.149c-24.327-1.439-63.127,4.266-84.09,7.8a43.211,43.211,0,0,0-17.694,6.96c-4.873,3.4-14.744,4.095-20.6-3.434a15.7,15.7,0,0,1-2.841-13.747,43.074,43.074,0,0,0,.5-16.969c-5.335-31.185-7.414-76.483-7.925-89.623a19.279,19.279,0,0,0-6.346-13.665,38.027,38.027,0,0,0-9.6-6.07,15.166,15.166,0,0,1-8.513-10.571c-1.018-4.664-1.8-9.3-2.411-13.72a13.742,13.742,0,0,0,5.438,1.126c.17,0,.342-.011.514-.017,14.877,1.837,22.747,14.542,22.82,14.662a3.5,3.5,0,0,0,3,1.7h.056a3.5,3.5,0,0,0,3-1.8A19.1,19.1,0,0,1,82.155,95.1a3.5,3.5,0,0,0-.274-6.867c-7.563-1.154-10.51-5.321-11.219-6.534a5.017,5.017,0,0,1,4.863-5.658l16.8-.385h.853a4.8,4.8,0,0,1,4.79,4.791v22.138a12.843,12.843,0,0,1-7.688,11.642,28.054,28.054,0,0,0-3.51,1.947A19.3,19.3,0,0,0,78.005,132.8c.517,30.09,7.522,68.09,11.65,88.064a13.43,13.43,0,0,0,15.4,10.59c28.069-4.705,59.994-13.658,76.525-18.576a111.318,111.318,0,0,1,24.386-4.38s13.563-.924,18.824-10.641l30.494-16.449c1.279,10.793,3.1,20.166,3.213,20.751a3.5,3.5,0,0,0,1.954,2.5c15.28,7.131,37.261,25.029,42.415,29.307,2.636,34.162,2.667,97.143,2.667,97.785h7c0-.653-.032-65.735-2.805-99.812A3.5,3.5,0,0,0,308.5,229.554ZM72.22,92.328A25.358,25.358,0,0,0,68.06,96.1a42.815,42.815,0,0,0-10.122-8.686l7.567-.869A20.549,20.549,0,0,0,72.22,92.328ZM88.784,68.734l-13.42.308A12.017,12.017,0,0,0,63.7,79.706L42.222,82.174a6.8,6.8,0,0,1-7.174-6.087L35.039,76c-.274-3.369-.451-6.442-.562-9.091a11.675,11.675,0,0,1,8.184-11.625c11.859-3.69,24.963-5,33.869-5.458A11.687,11.687,0,0,1,88.784,61.521ZM227.711,188.328l1.9-21.3h24.5c.077,2.225.22,4.527.411,6.842Zm-38.251-28.3a644.689,644.689,0,0,1,1.351-84.42,3.512,3.512,0,0,0-3.691-3.792c-.6.028-13.611.577-20.792-11.443l17.092-3.7a3.5,3.5,0,0,0,.9-6.511c-.76-.409-17.591-9.753-15.614-33.3,11.658,4.962,46.222,18.118,103.1,26.971a15.161,15.161,0,0,1,12.706,16.2l-8.343,99.987Z" style="fill:#464965"/><path d="M281.323,254.606a3.5,3.5,0,0,0-3.067,3.885c.053.453,5.343,45.647,6.32,72.646a3.534,3.534,0,0,0,.083.613h6.824a3.5,3.5,0,0,0,.089-.867c-.988-27.283-6.311-72.754-6.364-73.21A3.494,3.494,0,0,0,281.323,254.606Z" style="fill:#464965"/></svg>