<?xml version="1.0" ?><svg id="icons" viewBox="0 0 340 340" xmlns="http://www.w3.org/2000/svg" xmlns:xlink="http://www.w3.org/1999/xlink"><defs><radialGradient cx="277.161" cy="326.92" gradientUnits="userSpaceOnUse" id="radial-gradient" r="196.331"><stop offset="0" stop-color="#f97d7d"/><stop offset="1" stop-color="#fcd0be"/></radialGradient><radialGradient cx="197.37" cy="65.538" id="radial-gradient-2" r="89.664" xlink:href="#radial-gradient"/><linearGradient gradientUnits="userSpaceOnUse" id="linear-gradient" x1="150.987" x2="150.987" y1="143.194" y2="346.696"><stop offset="0" stop-color="#ff6185"/><stop offset="1" stop-color="#e2407a"/></linearGradient><linearGradient id="linear-gradient-2" x1="164.244" x2="164.244" xlink:href="#linear-gradient" y1="143.194" y2="346.696"/><linearGradient id="linear-gradient-3" x1="161.591" x2="161.591" xlink:href="#linear-gradient" y1="143.194" y2="346.696"/><linearGradient id="linear-gradient-4" x1="155.083" x2="155.083" xlink:href="#linear-gradient" y1="143.194" y2="346.696"/><linearGradient id="linear-gradient-5" x1="210.687" x2="210.687" xlink:href="#linear-gradient" y1="143.194" y2="346.696"/><linearGradient id="linear-gradient-6" x1="188.123" x2="188.123" xlink:href="#linear-gradient" y1="143.194" y2="346.696"/><linearGradient id="linear-gradient-7" x1="176.841" x2="176.841" xlink:href="#linear-gradient" y1="143.194" y2="346.696"/><linearGradient id="linear-gradient-8" x1="174.741" x2="174.741" xlink:href="#linear-gradient" y1="143.194" y2="346.696"/><linearGradient id="linear-gradient-9" x1="223.425" x2="223.425" xlink:href="#linear-gradient" y1="143.194" y2="346.696"/><linearGradient id="linear-gradient-10" x1="209.911" x2="209.911" xlink:href="#linear-gradient" y1="143.194" y2="346.696"/><linearGradient id="linear-gradient-11" x1="182.652" x2="182.652" xlink:href="#linear-gradient" y1="143.194" y2="346.696"/></defs><title/><path d="M113.479,193.932s-25.471,15.962-60.288,44.042c0,0-18.411,63.031-22.382,89.817H261.128S236.58,249.526,222.862,225.7l-57.4-32.49-1.219-17.41C144.575,177.878,126.755,182.627,113.479,193.932Z" style="fill:url(#radial-gradient)"/><path d="M113.479,193.932h0C128.8,186.133,146,180.4,164.244,175.8l-1.308-18.69H113.479Z" style="fill:#464965"/><path d="M71.924,15.708s35.751,28.151,94.934,41.6a13.043,13.043,0,0,1,10.131,11.649c1.488,18.246,4.1,59.1,1.3,95.417L94.628,159.4l-6.22-76.511A34.079,34.079,0,0,1,71.924,61.117l14.306-.311S69.435,41.212,71.924,15.708Z" style="fill:url(#radial-gradient-2)"/><path d="M118.938,137.977l35.356,1.464s1.841-14.339-5.824-22.434c0,0-6.347-4.214-13.5-3.311C115.527,116.148,118.938,137.977,118.938,137.977Z" style="fill:#fc6b98"/><path d="M133.592,111.623c-22.206.732-17.326,26.354-17.326,26.354l9.492.363c-.307-3.482-.519-14.319,8.078-18.692a26.1,26.1,0,0,1,14.907-2.631C145.577,113.673,140.8,111.385,133.592,111.623Z" style="fill:#464965"/><circle cx="150.987" cy="92.159" r="3.5" style="fill:url(#linear-gradient)"/><circle cx="164.244" cy="81.15" r="3.5" style="fill:url(#linear-gradient-2)"/><circle cx="161.591" cy="104.722" r="3.5" style="fill:url(#linear-gradient-3)"/><path d="M151.553,264.369a6.024,6.024,0,0,1-5.545-5.22,12.209,12.209,0,0,1,2.859-9.249,13.689,13.689,0,0,1,7.438-5.243,6.136,6.136,0,0,1,7.3,4.041c.742,2.209,1.039,5.43-.241,9.911a5.78,5.78,0,0,1-1.07,2.06C160.967,262.305,157.866,264.826,151.553,264.369Z" style="fill:url(#linear-gradient-4)"/><circle cx="210.687" cy="243.513" r="3.5" style="fill:url(#linear-gradient-5)"/><circle cx="188.123" cy="250.513" r="3.5" style="fill:url(#linear-gradient-6)"/><circle cx="176.841" cy="228.216" r="3.5" style="fill:url(#linear-gradient-7)"/><circle cx="174.741" cy="280.311" r="3.5" style="fill:url(#linear-gradient-8)"/><circle cx="223.425" cy="306.424" r="3.5" style="fill:url(#linear-gradient-9)"/><path d="M199.577,278.2a19.738,19.738,0,0,1,4.759-10.364,5.4,5.4,0,0,1,3.909-1.8c3.018-.035,8.239,1.176,11.635,9.006a5.142,5.142,0,0,1-.032,4.167,13.954,13.954,0,0,1-7.576,6.983,5.235,5.235,0,0,1-3.141.3,22.626,22.626,0,0,1-7.012-2.881A5.4,5.4,0,0,1,199.577,278.2Z" style="fill:url(#linear-gradient-10)"/><path d="M180.557,297.306a18.091,18.091,0,0,0-7.976,5.942,6.189,6.189,0,0,0-.468,7c1.091,1.767,3.153,3.739,7.024,5.284a5.811,5.811,0,0,0,1.874.4,22.009,22.009,0,0,0,9.234-1.727,6.182,6.182,0,0,0,3.3-8.192,18.036,18.036,0,0,0-7.521-8.2A6.258,6.258,0,0,0,180.557,297.306Z" style="fill:url(#linear-gradient-11)"/><circle cx="256.031" cy="121.678" r="3.5" style="fill:#8b9ac9"/><path d="M219.922,194.137a3.5,3.5,0,0,1-2.861-5.513l8.022-11.416a10.661,10.661,0,0,0,1.581-8.9l-.949-3.551a17.642,17.642,0,0,1,.747-11.343,88.747,88.747,0,0,1,13.61-21.907,3.5,3.5,0,0,1,5.249,4.632h0a83.009,83.009,0,0,0-12.408,19.992,10.607,10.607,0,0,0-.435,6.82l.948,3.551a17.639,17.639,0,0,1-2.616,14.732l-8.022,11.417A3.5,3.5,0,0,1,219.922,194.137Z" style="fill:#8b9ac9"/><path d="M241.679,212.86a3.5,3.5,0,0,1-2.3-6.139l10.518-9.168a10.663,10.663,0,0,0,3.663-8.267l-.072-3.673a17.644,17.644,0,0,1,3.436-10.836,88.726,88.726,0,0,1,18.453-18.019,3.5,3.5,0,0,1,3.989,5.752h0a83.049,83.049,0,0,0-16.827,16.446,10.611,10.611,0,0,0-2.052,6.519l.072,3.674A17.646,17.646,0,0,1,254.5,202.83L243.977,212A3.488,3.488,0,0,1,241.679,212.86Z" style="fill:#8b9ac9"/><path d="M259.614,236.365a3.5,3.5,0,0,1-1.351-6.73l12.875-5.38a10.662,10.662,0,0,0,6.085-6.687l1.091-3.509a17.637,17.637,0,0,1,6.681-9.2,88.715,88.715,0,0,1,23.2-11.273,3.5,3.5,0,0,1,1.969,6.717h0A83.078,83.078,0,0,0,289,210.6a10.6,10.6,0,0,0-4,5.538l-1.092,3.509a17.645,17.645,0,0,1-10.071,11.067l-12.874,5.38A3.493,3.493,0,0,1,259.614,236.365Z" style="fill:#8b9ac9"/><path d="M150.859,114.469c-4.3-4.452-10.243-6.594-17.666-6.344-7.014.231-12.437,2.681-16.118,7.283-7.151,8.936-4.641,22.645-4.53,23.224a3.5,3.5,0,0,0,3.3,2.843l9.492.362c.044,0,.089,0,.133,0a3.56,3.56,0,0,0,.619-.063l28.056,1.161q.074,0,.147,0a3.5,3.5,0,0,0,3.469-3.054c.084-.653,1.952-16.092-6.754-25.286C150.964,114.551,150.908,114.516,150.859,114.469Zm-28.318,5.312c2.378-2.973,5.938-4.5,10.882-4.66q.911-.03,1.767,0a29.745,29.745,0,0,0-3.225,1.409c-8.075,4.108-9.831,12.577-10.061,18.069l-2.109-.087a3.615,3.615,0,0,0-.678.038C118.873,130.824,119.029,124.169,122.541,119.781Zm6.349,15.1c.151-3.877,1.274-9.587,6.249-12.119a22.342,22.342,0,0,1,11.629-2.373c3.661,4.681,4.236,11.456,4.216,15.407Z" style="fill:#464965"/><path d="M225.9,223.953a3.5,3.5,0,0,0-1.309-1.3l-55.763-31.563-1.671-23.872,10.932.65c.071,0,.141.006.211.006a3.5,3.5,0,0,0,3.487-3.231c2.755-35.818.365-75.5-1.305-95.971A16.485,16.485,0,0,0,167.634,53.9C109.994,40.8,74.44,13.234,74.087,12.957a3.5,3.5,0,0,0-5.647,2.411C66.618,34.049,74.41,49.547,79.5,57.451l-7.649.167a3.5,3.5,0,0,0-3.315,4.364A38.113,38.113,0,0,0,85.069,85.02l6.071,74.662a3.5,3.5,0,0,0,3.28,3.21l15.559.926v28.2c-6.2,4.014-29.372,19.35-58.985,43.233a3.5,3.5,0,0,0-1.162,1.743c-.755,2.583-18.524,63.568-22.485,90.285a3.545,3.545,0,0,0-.024.513H34.35c3.754-24.615,19.5-79.49,21.9-87.782,32.543-26.175,86.755-55,104.8-59.768l.925,13.214a3.5,3.5,0,0,0,1.768,2.8l56.555,32.012c12.6,22.614,34.236,90.287,37.164,99.523H264.6a3.156,3.156,0,0,0-.129-1.047C263.461,323.533,239.647,247.838,225.9,223.953ZM116.979,188.33v-24.1L160.1,166.8l.444,6.339C143.731,177.514,129.4,182.508,116.979,188.33ZM97.87,156.085,91.9,82.605a3.5,3.5,0,0,0-1.986-2.878,30.071,30.071,0,0,1-13.2-15.213l9.6-.209a3.5,3.5,0,0,0,2.584-5.773c-.143-.168-13.068-15.591-13.693-36.151,12.189,8.322,44.177,27.726,90.884,38.341a9.512,9.512,0,0,1,7.418,8.52c1.29,15.806,3.95,55.631,1.549,91.434Z" style="fill:#464965"/></svg>