<?xml version="1.0" ?><svg id="icons" viewBox="0 0 340 340" xmlns="http://www.w3.org/2000/svg" xmlns:xlink="http://www.w3.org/1999/xlink"><defs><linearGradient gradientUnits="userSpaceOnUse" id="New_Gradient_Swatch_6" x1="210.027" x2="210.027" y1="59.431" y2="315.046"><stop offset="0" stop-color="#fcd0be"/><stop offset="1" stop-color="#efa69a"/></linearGradient><linearGradient id="New_Gradient_Swatch_6-2" x1="152.375" x2="152.375" xlink:href="#New_Gradient_Swatch_6" y1="59.431" y2="315.046"/><linearGradient id="New_Gradient_Swatch_6-3" x1="118.509" x2="118.509" xlink:href="#New_Gradient_Swatch_6" y1="59.431" y2="315.046"/></defs><title/><polygon points="242.901 267.18 180.479 267.18 180.479 246.541 238.232 246.541 242.901 267.18" style="fill:#464965"/><path d="M122.683,87.749h26.389v22.578l3.27,2.5a27.668,27.668,0,0,1,9.4,13.111l24.273,75.432,63.2,16.372a16.806,16.806,0,0,1,12.262,12.96L273.1,288.6l17.959,6.11a15.463,15.463,0,0,1,10.483,14.639v5.641H264.354a12.232,12.232,0,0,1-11.615-8.4l-19.807-60.051h-56.3s-4.173-56.427-58.125-59.652Z" style="fill:url(#New_Gradient_Swatch_6)"/><path d="M135.57,148.427c0-9.448-9.466-12.255-14.7-5.869h0l-2.364,44.825a83.588,83.588,0,0,1,14.691,1.956C132.144,182.23,135.57,150.968,135.57,148.427Z" style="fill:#cc6262"/><path d="M69.057,80.694l8.506-.81A11.493,11.493,0,0,1,90.094,90.2c2.124,21.616,7.623,68.909,17.308,97.427l-22.864,5.954S67.152,133.805,69.057,80.694Z" style="fill:#464965"/><path d="M112.813,181.286a74.357,74.357,0,1,0,74.358,74.357A74.357,74.357,0,0,0,112.813,181.286Zm0,130.9a56.547,56.547,0,1,1,56.547-56.547A56.547,56.547,0,0,1,112.813,312.19Z" style="fill:#464965"/><circle cx="112.813" cy="255.643" r="24.816" style="fill:#464965"/><polygon points="149.072 110.327 149.072 87.749 122.683 87.749 122.068 102.344 149.072 110.327" style="fill:#464965"/><path d="M122.683,87.749h48.1V43.972a18.022,18.022,0,0,0,9.7-12.072H169.36s8.507-5.221,12.706-21.9a128.314,128.314,0,0,0-53.288,13.821,11.267,11.267,0,0,0-6.095,10.038Z" style="fill:url(#New_Gradient_Swatch_6-2)"/><path d="M123.976,105.722h0a9.963,9.963,0,0,0-11.941,6.716c-3.741,12.094-10.2,34.4-13.557,54.3a86.488,86.488,0,0,0,.47,31.08c2.8,14.231,8.133,36.476,16.871,55.22h7.341a9.506,9.506,0,0,0,9.506-9.507l-.04-11.49,1.431-.5a8.447,8.447,0,0,0,5.667-7.977h0a5.17,5.17,0,0,0-4.655-5.144l-6.728-.673a198.019,198.019,0,0,1-7.209-27.675,40.672,40.672,0,0,1,.168-14.412,249.152,249.152,0,0,1,10.228-35.549s5.978-13.451,2.508-25.005A13.95,13.95,0,0,0,123.976,105.722Z" style="fill:url(#New_Gradient_Swatch_6-3)"/><path d="M292.19,291.4l-16.052-5.461-11.231-55.923a20.418,20.418,0,0,0-14.815-15.66l-61.332-15.89-23.7-73.648a31.074,31.074,0,0,0-10.591-14.77l-1.9-1.45V91.249h18.209a3.5,3.5,0,0,0,3.5-3.5v-41.7a21.562,21.562,0,0,0,9.6-13.338A3.5,3.5,0,0,0,180.48,28.4h-2.875a50.17,50.17,0,0,0,7.856-17.545A3.5,3.5,0,0,0,182.083,6.5c-1.052-.016-27.208.032-54.9,14.206a14.692,14.692,0,0,0-8,13.153l-.5,65.683c-7,2.253-8.915,8.383-9.991,11.862-2.176,7.035-5.418,18.007-8.4,30.024C96.9,121.157,94.7,101.239,93.577,89.86A15.012,15.012,0,0,0,77.231,76.4l-8.506.81a3.5,3.5,0,0,0-3.165,3.359C64.084,121.7,74,166.608,78.8,185.626A77.849,77.849,0,1,0,189.2,270.68h48.009l12.207,37.009a15.7,15.7,0,0,0,14.939,10.8h37.19a3.5,3.5,0,0,0,3.5-3.5v-5.641A18.958,18.958,0,0,0,292.19,291.4ZM145.572,104.388c-7.08-3.605-13.27-5.336-19.852-5.565l.319-7.574h19.533ZM126.183,33.859a7.722,7.722,0,0,1,4.19-6.922,128.557,128.557,0,0,1,46.933-13.2c-3.92,11.287-9.739,15.153-9.776,15.177a3.5,3.5,0,0,0,1.831,6.484H175.3a14.335,14.335,0,0,1-5.857,5.34,3.5,3.5,0,0,0-2.159,3.232V84.249h-41.1Zm2.27,221.539c0,.082.009.163.009.245a15.649,15.649,0,1,1-21.355-14.564c1.678,4.57,3.515,9.092,5.539,13.435a3.5,3.5,0,0,0,3.173,2.022h7.341A12.913,12.913,0,0,0,128.453,255.4Zm-38.289.245a22.649,22.649,0,1,0,44.474-6.015,12.939,12.939,0,0,0,1.528-6.111l-.031-9.038a11.961,11.961,0,0,0,7.089-10.916,8.639,8.639,0,0,0-7.807-8.626l-4.472-.447c-.673-2.076-1.754-5.539-2.885-9.67a53.06,53.06,0,1,1-31.19.222,291.7,291.7,0,0,0,7.934,29.427A22.6,22.6,0,0,0,90.164,255.643ZM72.467,83.885l5.428-.517a8.015,8.015,0,0,1,8.716,7.177c1.412,14.368,4.537,42.24,9.6,67.48a3.5,3.5,0,0,0,.2.643c-.5,2.516-.964,5.019-1.38,7.485a88.512,88.512,0,0,0-1.211,13.985,76.911,76.911,0,0,0-8.507,2.672C80.622,164.022,71.619,122.517,72.467,83.885ZM112.813,326.5A70.864,70.864,0,0,1,94.034,187.307a91.835,91.835,0,0,0,1.42,10.84,60.074,60.074,0,1,0,30.655-1.059c-.57-2.492-1.1-5.061-1.525-7.6a36.884,36.884,0,0,1-.433-3.8A70.862,70.862,0,0,1,112.813,326.5Zm77.443-62.82a78.186,78.186,0,0,0,.414-8.037c0-1.884-.088-3.749-.22-5.6H230.4l4.5,13.639Zm107.788,47.812h-33.69a8.711,8.711,0,0,1-8.29-6l-19.808-60.052a3.5,3.5,0,0,0-3.324-2.4h-43.3a77.739,77.739,0,0,0-65.26-64.386c.1-.78.214-1.56.363-2.338,1.57-8.211,4.954-23.646,9.99-34.787,0,0,2.09-4.569-1.472-5.878-3.657-1.344-4.91,3-4.916,3.016-5.324,11.777-8.849,27.82-10.477,36.334a44.041,44.041,0,0,0-.181,15.653,199.428,199.428,0,0,0,7.354,28.243,3.5,3.5,0,0,0,2.957,2.331l6.729.673a1.664,1.664,0,0,1,1.5,1.661,4.952,4.952,0,0,1-3.318,4.672s-3.718.851-3.78,3.815l.04,11.479a6.013,6.013,0,0,1-6.006,6.007h-5.092c-7.91-17.68-12.879-38.121-15.685-52.394a82.72,82.72,0,0,1-.454-29.823c3.352-19.854,9.866-42.259,13.45-53.847,1.288-4.164,2.484-6.952,7.035-7.637,8.193-.376,15.151,1.719,24.7,7.4l3.1,2.37a24.06,24.06,0,0,1,8.2,11.4l24.273,75.432a3.5,3.5,0,0,0,2.454,2.315l63.2,16.372a13.384,13.384,0,0,1,9.708,10.263l11.627,57.9a3.5,3.5,0,0,0,2.305,2.625l17.959,6.11C298.044,300.24,298.044,311.492,298.044,311.492Z" style="fill:#464965"/></svg>