<?xml version="1.0" ?><svg id="icons" viewBox="0 0 340 340" xmlns="http://www.w3.org/2000/svg" xmlns:xlink="http://www.w3.org/1999/xlink"><defs><radialGradient cx="95.855" cy="117.54" gradientUnits="userSpaceOnUse" id="radial-gradient" r="70.082"><stop offset="0" stop-color="#f97d7d"/><stop offset="1" stop-color="#fcd0be"/></radialGradient><linearGradient gradientUnits="userSpaceOnUse" id="linear-gradient" x1="173.314" x2="294.733" y1="142.386" y2="15.301"><stop offset="0" stop-color="#ff6185"/><stop offset="1" stop-color="#e2407a"/></linearGradient><linearGradient gradientUnits="userSpaceOnUse" id="New_Gradient_Swatch_6" x1="161.262" x2="192.654" y1="168.848" y2="394.57"><stop offset="0" stop-color="#fcd0be"/><stop offset="1" stop-color="#efa69a"/></linearGradient></defs><title/><path d="M66.705,131.584S79.394,96.446,100.216,74l4.23,14.966S113.881,78.877,125.594,74l.624,21.263,32.236-4.671,39.667,85.351-39.92,17-31.153,13.267L92.408,151.43Z" style="fill:url(#radial-gradient)"/><polygon points="151.51 118.674 207.602 59.157 221.85 77.381 267.65 31.161 283.884 73.997 222.086 113.885 204.885 93.347 151.51 118.674" style="fill:url(#linear-gradient)"/><polygon points="158.201 198.983 209.562 200.558 198.121 175.94 158.201 192.942 158.201 198.983" style="fill:#464965"/><path d="M119.6,157.386a3.5,3.5,0,0,1,.066-6.993,19.233,19.233,0,0,0,10.679-4.481,3.5,3.5,0,1,1,4.6,5.279,26.082,26.082,0,0,1-15.055,6.2C119.794,157.393,119.7,157.391,119.6,157.386Z" style="fill:#cc6262"/><path d="M148.682,144.092l-.113.008a3.5,3.5,0,0,1-.361-6.991h0c.257-.019,4.724-.409,9.281-4.809a3.5,3.5,0,1,1,4.863,5.035C156.144,143.329,149.646,144.021,148.682,144.092Z" style="fill:#cc6262"/><path d="M158.2,198.983V212L103.47,248.06V162.322a19.245,19.245,0,0,0-6.831-14.706L78.418,132.235,85.567,114.9a10.971,10.971,0,0,0-4.461-13.569l-4.315-2.612-8.134,11.388-12.363-7.158s-13.388,18.794-19.322,38.061a10.633,10.633,0,0,0,3.549,11.442L61.929,169.5a17.51,17.51,0,0,1,6.6,13.956L66.992,287.824a16.88,16.88,0,0,0,23.243,15.883l63.986-36.137-4.551,60.739H304.863s-24.855-65.266-51.475-115.465a20.556,20.556,0,0,0-17.105-10.92l-26.721-1.365Z" style="fill:url(#New_Gradient_Swatch_6)"/><rect height="7" rx="3.5" style="fill:#8b9ac9" transform="translate(52.735 -71.338) rotate(15.46)" width="11.647" x="283.326" y="155.084"/><path d="M154.9,70.662h-.074a3.5,3.5,0,0,1-3.426-3.572,56.032,56.032,0,0,1,6.962-25.525,3.5,3.5,0,0,1,5.656-.743l6.973,7.5A166.049,166.049,0,0,1,186.54,13.4a3.5,3.5,0,0,1,6.01,3.59,161.668,161.668,0,0,0-16.591,39.145,3.5,3.5,0,0,1-5.932,1.435l-7.642-8.219A47.312,47.312,0,0,0,158.4,67.235,3.5,3.5,0,0,1,154.9,70.662Z" style="fill:#8b9ac9"/><path d="M267.683,155.994a3.557,3.557,0,0,1-.762-.084c-13.783-3.061-25.736-4.663-36.539-4.9a3.5,3.5,0,0,1-3.11-4.947l4.648-10.227a72.672,72.672,0,0,0-22.907,8.359,3.5,3.5,0,1,1-3.551-6.033c8.839-5.2,19.269-8.583,31.887-10.336a3.5,3.5,0,0,1,3.667,4.916L235.8,144.227a206.261,206.261,0,0,1,32.641,4.849,3.5,3.5,0,0,1-.755,6.918Z" style="fill:#8b9ac9"/><path d="M308.134,327.064c-.249-.655-25.238-66.046-51.654-115.86a24.175,24.175,0,0,0-20.018-12.775l-24.735-1.265L200,174.949l-27.808-62.212L203.94,97.67,219.4,116.132a3.5,3.5,0,0,0,4.581.693l61.8-39.888a3.5,3.5,0,0,0,1.375-4.181L270.923,29.92a3.5,3.5,0,0,0-5.759-1.223l-43,43.4L210.359,57a3.5,3.5,0,0,0-2.6-1.34,3.545,3.545,0,0,0-2.708,1.1l-56.092,59.517a3.5,3.5,0,0,0,4.048,5.562l12.851-6.1,26.335,58.92-63.782,27.165L106.97,167.911v-5.589a22.7,22.7,0,0,0-8.073-17.38l-16.27-13.734L88.8,116.239a14.37,14.37,0,0,0-3.305-15.9A149.5,149.5,0,0,1,98.608,81.177l2.47,8.738A3.5,3.5,0,0,0,107,91.356a72.128,72.128,0,0,1,15.254-11.833l.466,15.839a3.5,3.5,0,0,0,4,3.362l32.236-4.671a3.5,3.5,0,0,0-1-6.928L129.6,91.233l-.509-17.339a3.5,3.5,0,0,0-4.845-3.128,68.759,68.759,0,0,0-18.008,11.67l-2.655-9.392a3.5,3.5,0,0,0-5.934-1.428A143.355,143.355,0,0,0,79.7,96.394l-1.1-.665a3.5,3.5,0,0,0-4.66.96l-6.285,8.8-9.611-5.564a3.5,3.5,0,0,0-4.6,1c-.709,1-17.4,24.617-21.731,46.578a3.5,3.5,0,0,0,1.254,3.415l32.166,25.608-1.64,111.249a20.381,20.381,0,0,0,28.063,19.177,3.531,3.531,0,0,0,.4-.195l58.286-32.917-4.062,54.211c-.007.089.006.174.006.261h6.994l4.531-60.478a3.5,3.5,0,0,0-5.211-3.309L88.719,300.543a13.38,13.38,0,0,1-18.228-12.668l1.666-112.967a3.5,3.5,0,0,0-1.32-2.79L39.025,146.791c3.708-15.847,14.142-32.789,18.34-39.174l6.392,3.7A137.583,137.583,0,0,0,55.2,127.154a3.44,3.44,0,0,0,1.759,4.626,4.01,4.01,0,0,0,4.626-1.759,138.53,138.53,0,0,1,9.979-17.953l6.194-8.671,1.54.932a7.43,7.43,0,0,1,3.037,9.24L75.183,130.9a3.5,3.5,0,0,0,.977,4.009L94.381,150.29a15.716,15.716,0,0,1,5.589,12.032V248.06a3.5,3.5,0,0,0,5.426,2.922l54.73-36.064A3.5,3.5,0,0,0,161.7,212v-7.938l74.4,1.362a17.14,17.14,0,0,1,14.19,9.063c24.207,45.648,47.243,104.571,50.818,113.826h7.241A3.481,3.481,0,0,0,308.134,327.064ZM207.354,64.523l11.739,15.014a3.5,3.5,0,0,0,5.243.307l41.97-42.354,13.3,35.1-56.823,36.677L207.568,91.1a3.5,3.5,0,0,0-4.183-.915l-36.57,17.353ZM154.7,210.111,106.97,241.562V181.007l17.12,27.073a3.5,3.5,0,0,0,4.33,1.35L154.7,198.236Zm7-13.053v-1.521l33.564-14.554,8.49,16.075Z" style="fill:#464965"/></svg>