<?xml version="1.0" ?><svg id="icons" viewBox="0 0 340 340" xmlns="http://www.w3.org/2000/svg" xmlns:xlink="http://www.w3.org/1999/xlink"><defs><radialGradient cx="137.206" cy="118.029" gradientUnits="userSpaceOnUse" id="radial-gradient" r="131.151"><stop offset="0" stop-color="#f9a0a0"/><stop offset="1" stop-color="#fcd0be"/></radialGradient><linearGradient gradientUnits="userSpaceOnUse" id="linear-gradient" x1="136.417" x2="136.417" y1="12.172" y2="159.183"><stop offset="0" stop-color="#ff6185"/><stop offset="1" stop-color="#e2407a"/></linearGradient></defs><title/><path d="M31.571,19.923s36.811,42.8,166.259,54.469a22.3,22.3,0,0,1,20.228,20.553c2.81,37.609,8.3,126.983,6.82,235.055H111.133l.892-46.454L52.263,283.1s-4.014-86.522-4.46-151.636c0,0-23.191-8.032-24.083-40.364H47.8S21.137,67.153,31.571,19.923Z" style="fill:url(#radial-gradient)"/><path d="M112.025,283.546h47.739a5.791,5.791,0,0,1,3.293,10.555L111.133,330Z" style="fill:#464965"/><path d="M188.118,144.025a4.328,4.328,0,0,1-2.737-8.212,33.146,33.146,0,0,1,9.418-1.427,3.717,3.717,0,0,0,3.557-4.715,74.435,74.435,0,0,0-3.306-9.32,8.359,8.359,0,0,0-8.333-5.024,29.689,29.689,0,0,0-12.748,4.113,4.328,4.328,0,0,1-4.837-7.179,37.07,37.07,0,0,1,10.832-4.561,3.916,3.916,0,0,0,1.757-6.66,51.952,51.952,0,0,0-4.351-3.668,32.467,32.467,0,0,0-26.279-5.754l-.307.066a11.593,11.593,0,0,0-8.644,14.661,64.648,64.648,0,0,1,1.536,6.552,3.63,3.63,0,0,0,2.659,2.836,26.228,26.228,0,0,1,7.849,3.52,4.508,4.508,0,0,1,1.5,6.058,4.326,4.326,0,0,1-6.136,1.259c-8.486-5.888-21.2-2.17-21.324-2.132a4.328,4.328,0,0,1-2.521-8.281,38.156,38.156,0,0,1,5.5-1.137,3.668,3.668,0,0,0,3.078-4.519,50.692,50.692,0,0,0-3.846-10.336,11.708,11.708,0,0,0-9.59-6.375q-.42-.03-.853-.047a26.059,26.059,0,0,0-17.127,5.311,19.349,19.349,0,0,0-7.714,12.986s-20.447-2.557-24.1,17.192c0,0-2.2,14.7,12.114,18.444L97.6,150.839a4.553,4.553,0,0,0,5.477-3.739,24.91,24.91,0,0,0-1.121-10.734,4.328,4.328,0,0,1,8.118-3.005,33.272,33.272,0,0,1,1.454,15.967,4.565,4.565,0,0,0,3.485,5.329l24.264,5.32a4.81,4.81,0,0,0,5.754-5.6l-.465-2.43a4.328,4.328,0,1,1,8.5-1.628L155,160.442a4.809,4.809,0,0,0,3.694,3.794l24.643,5.4A15.3,15.3,0,0,0,201.9,154.3c-.06-2.421-.2-4.994-.449-7.667a3.688,3.688,0,0,0-3.024-3.327A24.73,24.73,0,0,0,188.118,144.025Z" style="fill:url(#linear-gradient)"/><path d="M144.244,248.42a4.5,4.5,0,0,1-4.137-2.728c-.17-.36-4.982-10.246-23.432-10.246-18.9,0-25.526,10.357-25.8,10.8a4.5,4.5,0,0,1-7.729-4.61c.365-.62,9.229-15.188,33.529-15.188,24.691,0,31.429,15.059,31.7,15.7a4.5,4.5,0,0,1-4.134,6.274Z" style="fill:#cc6262"/><circle cx="300.26" cy="13.501" r="3.5" style="fill:#8b9ac9"/><path d="M238.222,64.01a3.5,3.5,0,0,1-1.736-6.541l12.121-6.911a10.663,10.663,0,0,0,5.221-7.381l.655-3.616a17.639,17.639,0,0,1,5.508-9.945,88.736,88.736,0,0,1,21.645-14.023,3.5,3.5,0,1,1,2.774,6.427,83.09,83.09,0,0,0-19.74,12.8,10.6,10.6,0,0,0-3.3,5.985l-.654,3.616a17.652,17.652,0,0,1-8.642,12.216L239.952,63.55A3.478,3.478,0,0,1,238.222,64.01Z" style="fill:#8b9ac9"/><path d="M249.923,90.216a3.5,3.5,0,0,1-.955-6.867l13.421-3.815a10.663,10.663,0,0,0,6.836-5.919l1.5-3.354a17.639,17.639,0,0,1,7.725-8.341,88.7,88.7,0,0,1,24.37-8.441,3.5,3.5,0,1,1,1.156,6.9,83.078,83.078,0,0,0-22.228,7.712,10.6,10.6,0,0,0-4.632,5.023l-1.5,3.356a17.651,17.651,0,0,1-11.313,9.8l-13.421,3.814A3.5,3.5,0,0,1,249.923,90.216Z" style="fill:#8b9ac9"/><path d="M270.713,119.752q-.393,0-.789-.018l-13.94-.617a3.5,3.5,0,0,1,.31-6.993l13.94.617a10.684,10.684,0,0,0,8.353-3.458l2.483-2.71a17.629,17.629,0,0,1,9.963-5.475,88.677,88.677,0,0,1,25.788-.318,3.5,3.5,0,0,1-1.08,6.916h0a82.994,82.994,0,0,0-23.527.3,10.6,10.6,0,0,0-5.982,3.3l-2.483,2.71A17.648,17.648,0,0,1,270.713,119.752Z" style="fill:#8b9ac9"/><path d="M198.145,70.906C132.237,64.964,91.154,50.778,68.3,39.923,43.589,28.191,34.307,17.736,34.224,17.641a3.5,3.5,0,0,0-6.071,1.527C20.321,54.625,32.479,77.431,40.1,87.6H23.72a3.5,3.5,0,0,0-3.5,3.6c.786,28.5,17.749,39.456,24.1,42.566.517,64.179,4.407,148.643,4.447,149.5a3.5,3.5,0,0,0,3.47,3.338l56.221.42-.824,42.913c0,.023.009.044.009.067h9.644l47.76-33.02a9.291,9.291,0,0,0-5.284-16.934L55.61,279.625C54.878,263.142,51.7,188.587,51.3,131.44a3.521,3.521,0,0,0-2.339-3.278c-.818-.292-19.276-7.189-21.543-33.562H47.8a3.5,3.5,0,0,0,2.346-6.1c-.977-.887-22.766-21.237-16.34-61.625,13.671,11.654,58.2,41.488,163.707,51a18.737,18.737,0,0,1,17.052,17.328c2.549,34.114,8.313,125.278,6.809,234.746,0,.017,0,.032,0,.048h7c1.5-109.726-4.275-201.114-6.83-235.316A25.713,25.713,0,0,0,198.145,70.906Zm-82.686,216.14h44.3a2.291,2.291,0,0,1,1.3,4.176l-46.3,32.013Z" style="fill:#464965"/></svg>