<?xml version="1.0" ?><svg id="icons" viewBox="0 0 340 340" xmlns="http://www.w3.org/2000/svg" xmlns:xlink="http://www.w3.org/1999/xlink"><defs><radialGradient cx="185.662" cy="263.172" gradientUnits="userSpaceOnUse" id="radial-gradient" r="106.735"><stop offset="0" stop-color="#f9a0a0"/><stop offset="1" stop-color="#fcd0be"/></radialGradient><linearGradient gradientUnits="userSpaceOnUse" id="New_Gradient_Swatch_6" x1="147.061" x2="147.061" y1="82.082" y2="342.105"><stop offset="0" stop-color="#fcd0be"/><stop offset="1" stop-color="#efa69a"/></linearGradient><linearGradient id="New_Gradient_Swatch_6-2" x1="80.689" x2="157.407" xlink:href="#New_Gradient_Swatch_6" y1="253.376" y2="214.019"/><linearGradient gradientUnits="userSpaceOnUse" id="linear-gradient" x1="194.439" x2="194.439" y1="236.905" y2="314.402"><stop offset="0" stop-color="#ff6185"/><stop offset="1" stop-color="#e2407a"/></linearGradient><linearGradient id="New_Gradient_Swatch_6-3" x1="94.308" x2="171.026" xlink:href="#New_Gradient_Swatch_6" y1="279.923" y2="240.566"/></defs><title/><path d="M215.286,205.271c-15.386-10.7-50.173-25.591-50.173-25.591V150.606H119.672v28.5S84.885,194.567,69.5,205.271c0,0-30.773,64.819-43.483,124.729H258.77C240.617,263.787,215.286,205.271,215.286,205.271Z" style="fill:url(#radial-gradient)"/><polygon points="165.113 179.68 165.113 150.606 119.672 150.606 119.672 161.96 165.113 179.68" style="fill:#464965"/><path d="M105.661,43.466C121.382,38.2,156.8,26,197.1,10c0,0-6.031,18.536-13.4,29.069L197.1,40s0,8.954-12.64,19.488v91.118H97.025V55.476A12.659,12.659,0,0,1,105.661,43.466Z" style="fill:url(#New_Gradient_Swatch_6)"/><path d="M104.378,238.732l25.649-19.92,2.672,4.611a10.62,10.62,0,0,1-.02,10.686l-1.544,2.641Z" style="fill:url(#New_Gradient_Swatch_6-2)"/><path d="M158.485,134.677l-32.107,1.329s-1.672-13.021,5.289-20.372c0,0,5.763-3.827,12.262-3.007C161.582,114.853,158.485,134.677,158.485,134.677Z" style="fill:#fc6b98"/><path d="M145.435,110.744c20.166.665,15.734,23.933,15.734,23.933l-8.62.329c.279-3.162.471-13-7.335-16.974a23.706,23.706,0,0,0-13.537-2.389C134.551,112.606,138.888,110.529,145.435,110.744Z" style="fill:#464965"/><path d="M125.65,96.506a3,3,0,0,1-1.587-5.548l2.852-1.773a76.862,76.862,0,0,0-7.06-4.014,3,3,0,0,1,2.586-5.415,87.926,87.926,0,0,1,11.738,7.076,3,3,0,0,1-.151,5l-6.8,4.226A2.989,2.989,0,0,1,125.65,96.506Z" style="fill:#cc6262"/><path d="M159.246,96.506a2.989,2.989,0,0,1-1.581-.452l-6.8-4.226a3,3,0,0,1-.151-5,87.97,87.97,0,0,1,11.739-7.076,3,3,0,0,1,2.586,5.415,76.862,76.862,0,0,0-7.06,4.014l2.852,1.773a3,3,0,0,1-1.587,5.548Z" style="fill:#cc6262"/><path d="M156.483,270.853s2.07,18.475-20.787,20.744h-2.2a22.114,22.114,0,0,0-20.134,12.97L101.815,330h-44.7l53.936-47.418,36.561-3.5Z" style="fill:#cc6262"/><path d="M220.728,262.923q-.078-.69-.208-1.369c-2.049-10.79-16.738-14.579-24.413-6.281a13.5,13.5,0,0,0-1.668,2.175,13.568,13.568,0,0,0-1.669-2.175c-7.675-8.3-22.364-4.509-24.413,6.281q-.129.678-.208,1.369c-1.067,9.456,6.806,15.056,6.806,15.056,10.809,5.848,19.484,17.419,19.484,17.419s8.674-11.571,19.483-17.419C213.922,277.979,221.8,272.379,220.728,262.923Z" style="fill:url(#linear-gradient)"/><path d="M26.015,330s43.281-66.889,78.363-91.268l48.165-3.568s1.12,16.137.443,35.567a9.686,9.686,0,0,1-9.312,9.356l-25.144.924a14.45,14.45,0,0,0-10.659,5.287c-4.746,5.805-12.879,16.181-21.282,28.846A33.259,33.259,0,0,1,58.876,330Z" style="fill:url(#New_Gradient_Swatch_6-3)"/><circle cx="260.84" cy="104.028" r="3.5" style="fill:#8b9ac9"/><path d="M224.731,176.487a3.5,3.5,0,0,1-2.861-5.513l8.022-11.416a10.667,10.667,0,0,0,1.581-8.9l-.949-3.551a17.64,17.64,0,0,1,.747-11.342,88.787,88.787,0,0,1,13.61-21.908,3.5,3.5,0,0,1,5.248,4.632h0a83.083,83.083,0,0,0-12.407,19.992,10.608,10.608,0,0,0-.435,6.82l.948,3.552a17.643,17.643,0,0,1-2.616,14.732L227.6,175A3.494,3.494,0,0,1,224.731,176.487Z" style="fill:#8b9ac9"/><path d="M246.488,195.209a3.5,3.5,0,0,1-2.3-6.138l10.518-9.168a10.662,10.662,0,0,0,3.663-8.266l-.073-3.675a17.64,17.64,0,0,1,3.437-10.835,88.754,88.754,0,0,1,18.452-18.02,3.5,3.5,0,0,1,3.989,5.753h0a83.058,83.058,0,0,0-16.826,16.446,10.6,10.6,0,0,0-2.052,6.519l.072,3.674A17.645,17.645,0,0,1,259.3,185.18l-10.518,9.168A3.485,3.485,0,0,1,246.488,195.209Z" style="fill:#8b9ac9"/><path d="M264.422,218.715a3.5,3.5,0,0,1-1.351-6.731l12.875-5.379a10.659,10.659,0,0,0,6.085-6.687l1.092-3.509a17.64,17.64,0,0,1,6.681-9.2A88.753,88.753,0,0,1,313,175.938a3.5,3.5,0,0,1,1.967,6.718,83.059,83.059,0,0,0-21.155,10.294,10.605,10.605,0,0,0-4.006,5.538L288.716,202a17.647,17.647,0,0,1-10.071,11.067l-12.874,5.379A3.5,3.5,0,0,1,264.422,218.715Z" style="fill:#8b9ac9"/><path d="M126.377,139.506l.147,0,34.778-1.329a3.5,3.5,0,0,0,3.305-2.843c.1-.531,2.405-13.121-4.179-21.35-3.405-4.255-8.41-6.522-14.877-6.734-6.789-.226-12.232,1.729-16.194,5.78-.077.068-.16.125-.232.2-8.009,8.459-6.3,22.626-6.218,23.225A3.5,3.5,0,0,0,126.377,139.506Zm28.57-21.171c3.055,3.8,3.278,9.476,3.085,12.857l-1.935.08c-.268-5.065-1.978-12.637-9.3-16.36q-.7-.354-1.407-.667C149.736,114.4,152.861,115.741,154.947,118.335Zm-5.838,13.227-19.394.8c.024-3.556.6-9.325,3.671-13.346a19.965,19.965,0,0,1,10.241,2.132C147.871,123.31,148.927,128.128,149.109,131.562Z" style="fill:#464965"/><path d="M215.95,280.831c.39-.278,9.54-6.925,8.256-18.3q-.093-.82-.247-1.629A16.84,16.84,0,0,0,211.793,248a17.989,17.989,0,0,0-17.354,3.99A18,18,0,0,0,177.084,248a16.837,16.837,0,0,0-12.165,12.9q-.155.808-.248,1.629c-1.284,11.376,7.866,18.023,8.256,18.3a3.386,3.386,0,0,0,.363.226c9.981,5.4,18.267,16.333,18.348,16.44a3.5,3.5,0,0,0,2.8,1.4h0a3.5,3.5,0,0,0,2.8-1.4c.082-.109,8.368-11.042,18.349-16.442A3.386,3.386,0,0,0,215.95,280.831Zm-3.926-5.8c-7.6,4.176-14.076,10.835-17.585,14.861-3.509-4.026-9.982-10.682-17.582-14.859-.949-.743-6.014-5.032-5.229-11.715a10.6,10.6,0,0,1,7.386-8.584c3.244-.93,10.382-1.594,12.425,4.521a3.039,3.039,0,0,0,3,1.7c1.228,0,2.685-.509,3-1.7,1.357-5.121,9.183-5.451,12.424-4.521,3.84,1.1,7.463,4.718,7.387,8.584h0C218.007,270.024,212.934,274.316,212.024,275.027Z" style="fill:#464965"/><path d="M218.5,203.881a3.493,3.493,0,0,0-1.214-1.483c-13.468-9.369-40.795-21.573-48.672-25.016V154.106h15.844a3.5,3.5,0,0,0,3.5-3.5V61.1C200.233,50.3,200.6,41.049,200.6,40a3.5,3.5,0,0,0-3.258-3.492l-7.6-.528c6.028-10.686,10.47-24.233,10.686-24.9a3.5,3.5,0,0,0-4.619-4.336c-39.552,15.7-74.153,27.667-91.258,33.4A16.149,16.149,0,0,0,93.525,55.476v95.13a3.5,3.5,0,0,0,3.5,3.5h19.147v22.741c-7.815,3.538-35.2,16.176-48.672,25.551a3.489,3.489,0,0,0-1.163,1.372c-.31.652-31.1,65.881-43.746,125.5a3.5,3.5,0,0,0,3.424,4.227H58.876a36.667,36.667,0,0,0,30.629-16.421c8.105-12.214,15.935-22.276,21.076-28.565a10.946,10.946,0,0,1,8.078-4l25.144-.925a13.232,13.232,0,0,0,12.68-12.731c.677-19.388-.438-35.768-.449-35.931a3.5,3.5,0,0,0-3.75-3.248l-15.257,1.13a14.148,14.148,0,0,0-1.3-11.136l-2.673-4.61a3.5,3.5,0,0,0-5.175-1.01l-25.609,19.889c-12.6,8.783-27.51,23.731-44.32,44.439a3.5,3.5,0,0,0,5.434,4.412c16.094-19.826,30.291-34.164,42.215-42.637l43.648-3.233c.091,1.846.2,4.36.284,7.367l-22.475,1.07a3.5,3.5,0,0,0,.163,7c.056,0,.113,0,.17,0l22.283-1.061c.026,2.235.036,4.612.02,7.1l-22.148.968a3.5,3.5,0,0,0,.15,7c.052,0,.1,0,.156,0l21.731-.95c-.027,1.06-.057,2.126-.095,3.207a6.207,6.207,0,0,1-5.941,5.98l-25.144.925a17.953,17.953,0,0,0-13.241,6.569c-5.242,6.413-13.225,16.671-21.489,29.126a29.684,29.684,0,0,1-24.8,13.291H30.363c12.161-53.948,38.364-111.273,41.9-118.883,15.309-10.371,48.489-25.157,48.828-25.307a3.5,3.5,0,0,0,2.079-3.2v-12.03s74.154,30.279,89.3,40.5c3.265,7.681,26.038,62.045,42.67,122.417h7.117a3.457,3.457,0,0,0-.11-.925C244.135,263.383,218.753,204.468,218.5,203.881Zm-88.842,28.462-.615,1.052-13.36.99,13.326-10.35.663,1.143A7.133,7.133,0,0,1,129.657,232.343Zm31.956-57.785-38.441-14.99v-5.462h38.441Zm3.5-27.453H100.525V55.476a9.156,9.156,0,0,1,6.248-8.692c16.124-5.405,47.733-16.324,84.4-30.685-2.384,6.174-6.172,15-10.346,20.963a3.5,3.5,0,0,0,2.625,5.5l9.328.647c-1.154,3.088-3.925,8.06-10.562,13.591a3.5,3.5,0,0,0-1.259,2.689v87.618H165.113Z" style="fill:#464965"/></svg>