<?xml version="1.0" ?><svg id="icons" viewBox="0 0 340 340" xmlns="http://www.w3.org/2000/svg" xmlns:xlink="http://www.w3.org/1999/xlink"><defs><linearGradient gradientUnits="userSpaceOnUse" id="linear-gradient" x1="135.257" x2="135.257" y1="114.919" y2="320.002"><stop offset="0" stop-color="#ff6185"/><stop offset="1" stop-color="#e2407a"/></linearGradient><linearGradient id="linear-gradient-2" x1="288.542" x2="288.542" xlink:href="#linear-gradient" y1="194.81" y2="325.098"/></defs><title/><path d="M220.453,118.782a59.991,59.991,0,0,0-12.2-4.67c-29.895-7.765-64.062,8.93-72.992,33-8.929-24.072-43.1-40.767-72.991-33a59.991,59.991,0,0,0-12.2,4.67C7.107,140.713,2.667,200.606,41.27,229.518a104.224,104.224,0,0,0,10.513,6.894c56.66,32.614,83.474,67.556,83.474,67.556s26.815-34.942,83.475-67.556a104.224,104.224,0,0,0,10.513-6.894C267.847,200.606,263.408,140.713,220.453,118.782Z" style="fill:url(#linear-gradient)"/><circle cx="266.546" cy="95.279" r="58.576" style="fill:#fff"/><circle cx="266.546" cy="95.279" r="10.302" style="fill:#464965"/><circle cx="214.609" cy="202.873" r="3.717" style="fill:#fff"/><path d="M134.043,229.958q-.508,0-1.025-.041a11.927,11.927,0,0,1-10.9-9.488l-8.071-36.6a5.141,5.141,0,0,0-9.446-1.507l-9.866,16.7A16.3,16.3,0,0,1,80.751,207H57.245a3.5,3.5,0,1,1,0-7H80.751a9.275,9.275,0,0,0,7.955-4.54l9.866-16.7a12.141,12.141,0,0,1,22.309,3.561l8.071,36.6a5.141,5.141,0,0,0,9.805.773l8.376-21.314a11.949,11.949,0,0,1,20.88-2.525,9.254,9.254,0,0,0,7.545,3.907h19.818a3.5,3.5,0,1,1,0,7H175.558a16.259,16.259,0,0,1-13.262-6.868,4.949,4.949,0,0,0-8.648,1.047l-8.377,21.313A11.9,11.9,0,0,1,134.043,229.958Z" style="fill:#fff"/><path d="M310.27,237.889a342.928,342.928,0,0,1-17.589-51.366,4.272,4.272,0,0,0-8.278,0,342.834,342.834,0,0,1-17.59,51.366s-12.2,26.409-3.677,42.455q.129.242.26.479c10.921,19.778,39.371,19.778,50.292,0,.087-.158.174-.318.259-.479C322.472,264.3,310.27,237.889,310.27,237.889Z" style="fill:url(#linear-gradient-2)"/><ellipse cx="277.024" cy="266.532" rx="7.682" ry="9.603" style="fill:#fff" transform="translate(-76.895 116.455) rotate(-20.915)"/><path d="M266.546,33.2a62.075,62.075,0,0,0-18.131,121.444c3.8,7.194,3.6,17.172,3.6,17.273s0,.205,0,.307a62.348,62.348,0,0,1-24.873,53.82,100.845,100.845,0,0,1-10.16,6.662c-47.06,27.088-73.5,55.444-81.729,65.076-8.224-9.632-34.668-37.988-81.729-65.076a100.963,100.963,0,0,1-10.16-6.662,62.172,62.172,0,0,1-24.755-55.421,60.877,60.877,0,0,1,33.039-49.4,56.777,56.777,0,0,1,11.494-4.4c27.4-7.119,60.205,7.579,68.83,30.832a3.5,3.5,0,0,0,6.563,0c6.568-17.705,30.9-32.027,54.332-32.027h.306a3.5,3.5,0,0,0,.017-7h-.313c-23.126,0-47.153,12.823-57.569,29.8-13.046-22.348-46.049-35.62-73.927-28.376A63.82,63.82,0,0,0,48.47,115a67.834,67.834,0,0,0-36.832,55.033,69.137,69.137,0,0,0,27.534,61.622,108.438,108.438,0,0,0,10.865,7.125c55.309,31.837,82.18,66.311,82.445,66.655a3.5,3.5,0,0,0,5.551,0c.265-.344,27.136-34.818,82.445-66.654a108.265,108.265,0,0,0,10.865-7.126,69.331,69.331,0,0,0,27.672-59.7,52.091,52.091,0,0,0-2.255-15.372A62.075,62.075,0,1,0,266.546,33.2Zm0,117.152a55.076,55.076,0,1,1,55.077-55.076A55.138,55.138,0,0,1,266.546,150.355Z" style="fill:#464965"/><path d="M286.71,60.112l2.532-5.461a3.5,3.5,0,1,0-6.35-2.945l-13.91,30a13.794,13.794,0,1,0,6.353,2.94l8.421-18.162a33.862,33.862,0,0,1,14.55,17.209,3.5,3.5,0,0,0,6.542-2.49A40.824,40.824,0,0,0,286.71,60.112ZM273.349,95.279a6.8,6.8,0,1,1-7.525-6.763l-.157.339a3.5,3.5,0,1,0,6.351,2.945l.156-.337A6.76,6.76,0,0,1,273.349,95.279Z" style="fill:#464965"/><path d="M268.632,61.863a3.5,3.5,0,1,0,.42-6.988c-.834-.05-1.681-.076-2.516-.076a40.934,40.934,0,0,0-38.887,28.009,3.5,3.5,0,1,0,6.641,2.215A33.942,33.942,0,0,1,266.536,61.8C267.231,61.8,267.937,61.821,268.632,61.863Z" style="fill:#464965"/><path d="M296.071,185.651a7.678,7.678,0,0,0-7.529-5.842h0a7.679,7.679,0,0,0-7.529,5.842,340.7,340.7,0,0,1-17.377,50.77c-.528,1.143-12.823,28.186-3.592,45.562.1.18.191.356.288.531a32.229,32.229,0,0,0,56.419,0c.1-.178.2-.357.287-.529,9.156-17.236-2.86-43.974-3.575-45.531A340.883,340.883,0,0,1,296.071,185.651Zm14.78,93.06-.227.42a25.23,25.23,0,0,1-44.165,0l-.232-.429c-7.6-14.307,3.65-39.1,3.792-39.407a348.036,348.036,0,0,0,17.773-51.9.773.773,0,0,1,1.5,0,347.766,347.766,0,0,0,17.773,51.9l.028.063C307.208,239.605,318.478,264.356,310.851,278.711Z" style="fill:#464965"/></svg>