<?xml version="1.0" ?><svg id="icons" viewBox="0 0 340 340" xmlns="http://www.w3.org/2000/svg" xmlns:xlink="http://www.w3.org/1999/xlink"><defs><linearGradient gradientUnits="userSpaceOnUse" id="New_Gradient_Swatch_6" x1="160.777" x2="163.011" y1="147.334" y2="300.03"><stop offset="0" stop-color="#fcd0be"/><stop offset="1" stop-color="#efa69a"/></linearGradient><radialGradient cx="149.333" cy="119.663" gradientUnits="userSpaceOnUse" id="radial-gradient" r="59.235"><stop offset="0" stop-color="#f97d7d"/><stop offset="1" stop-color="#fcd0be"/></radialGradient></defs><title/><path d="M143.415,178.032v31.694H82.133l29.973-47.21V92.439h-4.738a15.5,15.5,0,0,0-15.43,14.029l-2.994,31.42L24.287,221.46a22.277,22.277,0,0,0,15.1,35.766l67.08,7.624-4.691,61.226h123.9l-4.265-58.293,72.706-27.93a15.978,15.978,0,0,0,5.341-26.436l-79.513-76.409-5.576-31.388A15.975,15.975,0,0,0,198.64,92.439h-7.53l1.267,65,43.988,47.6-41.93,2.932-1.308-29.934Z" style="fill:url(#New_Gradient_Swatch_6)"/><polygon points="193.127 178.032 143.415 178.032 143.415 209.726 193.799 193.411 193.127 178.032" style="fill:#464965"/><path d="M96.685,33.647S85.807,59.558,107.512,74.932L88.944,77.209s-.123,15.51,20.98,21.539l2.713,79.284h80.49l-1.11-95.4a10.128,10.128,0,0,0-8.057-9.8C165.669,69.006,124.62,61.345,96.685,33.647Z" style="fill:url(#radial-gradient)"/><path d="M151.494,134.029h0a23.415,23.415,0,0,0-23.415,23.415v7.779h46.829v-7.779A23.414,23.414,0,0,0,151.494,134.029Z" style="fill:#fff"/><rect height="7" rx="3.5" style="fill:#8b9ac9" transform="translate(50.734 175.655) rotate(-39.897)" width="8.599" x="263.051" y="14.437"/><path d="M283.048,110.147a48.747,48.747,0,0,1-19.428-4.237c-12.593-5.474-21.392-15.1-24.775-27.114-4.1-14.562-.237-31.309,10.881-47.158a3.5,3.5,0,1,1,5.73,4.019c-9.887,14.1-13.393,28.742-9.874,41.241,2.843,10.093,10.045,17.906,20.829,22.592,20.21,8.786,39.507,1.526,48.018-18.057a30.015,30.015,0,0,0-15.546-39.447,22.644,22.644,0,0,0-29.756,11.728,16.87,16.87,0,0,0,8.748,22.2,12.4,12.4,0,0,0,16.3-6.425,8.895,8.895,0,0,0-4.611-11.7,6.133,6.133,0,0,0-3.776-.37,3.5,3.5,0,1,1-1.5-6.836,13.069,13.069,0,0,1,8.071.787,15.892,15.892,0,0,1,8.24,20.91,19.41,19.41,0,0,1-25.51,10.054,23.871,23.871,0,0,1-12.378-31.407,29.65,29.65,0,0,1,38.967-15.357,37.024,37.024,0,0,1,19.175,48.658C313.615,100.87,299.336,110.146,283.048,110.147Z" style="fill:#8b9ac9"/><path d="M133.811,122.883a3,3,0,0,1-1.587-5.549l2.852-1.773a76.862,76.862,0,0,0-7.06-4.014,3,3,0,0,1,2.586-5.414,87.642,87.642,0,0,1,11.739,7.076,3,3,0,0,1-.151,4.995l-6.8,4.226A2.99,2.99,0,0,1,133.811,122.883Z" style="fill:#cc6262"/><path d="M167.407,122.883a2.981,2.981,0,0,1-1.581-.453l-6.8-4.226a3,3,0,0,1-.151-4.995,87.67,87.67,0,0,1,11.738-7.076,3,3,0,0,1,2.586,5.414,77.02,77.02,0,0,0-7.06,4.014l2.852,1.773a3,3,0,0,1-1.587,5.549Z" style="fill:#cc6262"/><path d="M128.079,168.723h46.829a3.5,3.5,0,0,0,3.5-3.5v-7.779a26.915,26.915,0,1,0-53.83,0v7.779A3.5,3.5,0,0,0,128.079,168.723Zm23.415-31.194a19.937,19.937,0,0,1,19.914,19.915v4.279H131.579v-4.279c0-.485.039-.961.073-1.438h3.879a11.393,11.393,0,0,0,8.17-3.477,1.373,1.373,0,0,1,2.077.129l.968,1.294a8.122,8.122,0,0,0,5.473,3.211,8.284,8.284,0,0,0,1.1.073,8.187,8.187,0,0,0,5.079-1.78,5.891,5.891,0,0,1,3.615-1.245h.771a3.5,3.5,0,0,0,0-7h-.771a12.971,12.971,0,0,0-7.979,2.771,1.114,1.114,0,0,1-1.68-.222l-.968-1.294a8.365,8.365,0,0,0-12.725-.79,4.363,4.363,0,0,1-3.127,1.33h-2.05A19.924,19.924,0,0,1,151.494,137.529Z" style="fill:#464965"/><path d="M223.192,135.273l-5.376-30.265A19.453,19.453,0,0,0,198.64,88.939h-3.049l-.074-6.344c0-10.912-13.022-13.637-13.022-13.637-18.569-3.856-57.207-11.879-83.346-37.8a3.5,3.5,0,0,0-5.692,1.131c-.107.256-9.478,23.263,5.9,40.113L88.519,73.735a3.5,3.5,0,0,0-3.075,3.446c0,.53.07,9.616,8.638,17.2a18.947,18.947,0,0,0-4.827,7.812l0,.01a19.019,19.019,0,0,0-.8,3.934l-2.9,30.41L21.519,219.318A25.778,25.778,0,0,0,38.995,260.7l63.728,7.243-4.434,57.861c-.007.091.006.178.006.268h6.994l4.671-60.958a3.5,3.5,0,0,0-3.095-3.745l-67.079-7.624A18.778,18.778,0,0,1,27.055,223.6l64.657-83.572a3.49,3.49,0,0,0,.717-1.809l2.994-31.42a12.036,12.036,0,0,1,.5-2.49v0a11.97,11.97,0,0,1,4.057-5.815,41.438,41.438,0,0,0,6.525,2.855l1.85,54.084,0,.008a44.767,44.767,0,0,1-6.082,16.03l-23.1,36.381a3.5,3.5,0,0,0,2.954,5.376s58.452.5,63.806-.637L190.5,198.157l.435,9.963a3.5,3.5,0,0,0,3.741,3.338l41.93-2.933a3.5,3.5,0,0,0,2.326-5.867L204.621,165.53a30.814,30.814,0,0,1-8.193-20.478l-.743-49.113h2.955a12.46,12.46,0,0,1,12.283,10.293L216.5,137.62a3.507,3.507,0,0,0,1.022,1.911l79.513,76.409a12.478,12.478,0,0,1-4.171,20.645l-72.706,27.93a3.5,3.5,0,0,0-2.236,3.524l4.246,58.037h6.993c0-.085.013-.168.006-.255l-4.074-55.7,70.281-27a19.478,19.478,0,0,0,6.511-32.227Zm-83.277,70.952H88.5l19.685-31c.278-.438.54-.9.806-1.351l.147,4.283a3.5,3.5,0,0,0,3.5,3.38h27.278Zm3.5-31.693h-27.4l-2.6-75.9a3.5,3.5,0,0,0-2.537-3.245c-12.822-3.663-16.729-11-17.919-15.141l14.972-1.836a3.5,3.5,0,0,0,1.6-6.33c-13.853-9.812-12.879-24.4-11.148-32.034,27.337,24.277,64.4,31.973,82.685,35.769,0,0,7.445.742,7.445,6.865l1.068,91.856Zm3.5,30.381V181.532h42.861l.409,9.37Zm52.565-34.632,29.362,31.771-31.067,2.172-1.149-26.295-.132-11.325A37.946,37.946,0,0,0,199.48,170.281Z" style="fill:#464965"/></svg>