<?xml version="1.0" ?><svg id="icons" viewBox="0 0 340 340" xmlns="http://www.w3.org/2000/svg" xmlns:xlink="http://www.w3.org/1999/xlink"><defs><radialGradient cx="152.498" cy="210.183" gradientUnits="userSpaceOnUse" id="radial-gradient" r="99.474"><stop offset="0" stop-color="#f97d7d"/><stop offset="1" stop-color="#fcd0be"/></radialGradient><linearGradient gradientUnits="userSpaceOnUse" id="linear-gradient" x1="150.228" x2="169.654" y1="168.032" y2="262.287"><stop offset="0" stop-color="#f3f8ff"/><stop offset="1" stop-color="#c9d4e5"/></linearGradient></defs><title/><path d="M103.867,168.22,100.82,74.4a19.148,19.148,0,0,1,7.911-16.153c8.982-6.487,25.607-16.35,51.24-23.681a143.6,143.6,0,0,0,14.5-4.927c8.779-3.56,21.929-9.479,29.514-15.685,0,0,4.89,25.712-8.375,38.85l18.407,1.187s-1.3,12.736-16.359,21.184l1.3,93.05S141.747,178.138,103.867,168.22Z" style="fill:url(#radial-gradient)"/><path d="M272.758,301.471a33.323,33.323,0,0,0-10.845-22.07c-27.688-25.346-60.03-49.84-60.03-49.84H98.58S66.238,254.055,38.551,279.4a33.32,33.32,0,0,0-10.846,22.07l-2.111,28.08H274.869Z" style="fill:url(#radial-gradient)"/><path d="M200.925,229.561H98.58s-5.406,4.095-13.685,10.664c8.206,8.358,27.614,26.153,54.182,37.815A20.328,20.328,0,0,0,157.7,276.8C169.272,269.852,188.86,255.081,200.925,229.561Z" style="fill:#464965"/><path d="M214.3,175.013a21.284,21.284,0,0,0-.831-3.195,12,12,0,0,0-14.57-7.548c-7.382,2.052-23.065,5.281-48.665,5.281-18.347,0-31.6-1.658-40.354-3.353-13.181,6.43-15.285,60.677-5.827,72.156,10.713,8.71,23.708,15.509,33.181,19.844a31.225,31.225,0,0,0,26,0c12.741-5.832,31.857-16.12,43.219-29.523a12.55,12.55,0,0,0,.659-15.592,12.047,12.047,0,0,0-4.524-3.7V193.635S216.584,187.59,214.3,175.013Z" style="fill:url(#linear-gradient)"/><path d="M105.731,171.818a11.8,11.8,0,0,1,4.147-5.621c-3.461-.67-6.221-1.346-8.312-1.927A12,12,0,0,0,87,171.818a21.168,21.168,0,0,0-.83,3.195c-2.287,12.577,11.712,18.622,11.712,18.622v15.753a11.909,11.909,0,0,0-3.511,2.511,12.59,12.59,0,0,0-.319,16.819,76.157,76.157,0,0,0,10,9.633c-2.777-9.45.564-15.906,6.365-18.61a5.775,5.775,0,0,0,3.2-4.653l2.044-19.012a7.113,7.113,0,0,0-3.691-7.008c-3.778-2.053-8.495-6.244-7.074-14.055A21.287,21.287,0,0,1,105.731,171.818Z" style="fill:#464965"/><circle cx="314.397" cy="177.487" r="3.5" style="fill:#8b9ac9"/><path d="M236.2,166.114a3.5,3.5,0,0,1-1.315-6.746l12.932-5.239a10.657,10.657,0,0,0,6.157-6.62l1.131-3.5a17.626,17.626,0,0,1,6.78-9.123,87.793,87.793,0,0,1,18.613-9.444,3.5,3.5,0,0,1,2.43,6.564,80.713,80.713,0,0,0-17.1,8.661,10.6,10.6,0,0,0-4.065,5.493l-1.131,3.5a17.638,17.638,0,0,1-10.19,10.957l-12.931,5.24A3.523,3.523,0,0,1,236.2,166.114Z" style="fill:#8b9ac9"/><path d="M255.308,194.28H255.3l-13.953-.009a3.5,3.5,0,0,1,0-7h0l13.953.009h.008a10.658,10.658,0,0,0,8.187-3.82l2.362-2.816a17.65,17.65,0,0,1,9.714-5.905,87.269,87.269,0,0,1,19.784-1.775,3.5,3.5,0,0,1-.069,7h-.071a80.7,80.7,0,0,0-18.161,1.619,10.609,10.609,0,0,0-5.833,3.562l-2.363,2.816A17.64,17.64,0,0,1,255.308,194.28Z" style="fill:#8b9ac9"/><path d="M295.282,239.078a3.482,3.482,0,0,1-1.93-.582,80.459,80.459,0,0,0-16.046-8.3,10.612,10.612,0,0,0-6.834-.128l-3.5,1.106a17.657,17.657,0,0,1-14.835-1.954l-11.764-7.5a3.5,3.5,0,0,1,3.764-5.9l11.764,7.5a10.652,10.652,0,0,0,8.963,1.18l3.5-1.106a17.647,17.647,0,0,1,11.366.238,87.61,87.61,0,0,1,17.489,9.027,3.5,3.5,0,0,1-1.937,6.418Z" style="fill:#8b9ac9"/><path d="M151.9,144.772a14.087,14.087,0,0,1-6.936-1.817l-.346-.194a7.078,7.078,0,0,0-5.931-.492L133,144.343a3.5,3.5,0,0,1-2.4-6.574l5.677-2.074a14.068,14.068,0,0,1,11.775.968l.344.195a7.129,7.129,0,0,0,7.044-.027,14.022,14.022,0,0,1,12.238-.893l2.27.9a3.5,3.5,0,0,1-2.58,6.508l-2.27-.9a7.061,7.061,0,0,0-6.161.449A14.1,14.1,0,0,1,151.9,144.772Z" style="fill:#cc6262"/><circle cx="144.806" cy="224.516" r="3.5" style="fill:#464965"/><path d="M264.275,276.819c-20.858-19.1-44.032-37.474-55.045-46.021a16.088,16.088,0,0,0,.671-19.824,15.658,15.658,0,0,0-3.816-3.619V195.792c5.79-3.269,13.607-10.676,11.656-21.4a24.833,24.833,0,0,0-.969-3.721,15.492,15.492,0,0,0-14.427-10.337l-1.162-83.18c14.758-9.208,16.256-22.236,16.313-22.807a3.5,3.5,0,0,0-3.256-3.849l-11.8-.76c8.966-14.693,5.172-35.447,4.984-36.438a3.5,3.5,0,0,0-5.655-2.055c-5.54,4.534-15.7,9.915-28.614,15.151A139.465,139.465,0,0,1,159.01,31.2c-25.738,7.36-42.662,17.228-52.327,24.209a22.614,22.614,0,0,0-9.361,19.1l2.791,85.937a15.477,15.477,0,0,0-16.414,10.2c-4.521,13.074,4.889,21.88,10.679,25.149v11.564a15.686,15.686,0,0,0-3.715,3.485,16.057,16.057,0,0,0,.571,19.957c-10.78,8.367-34.122,26.867-55.046,46.021a36.745,36.745,0,0,0-11.973,24.389l-2.11,28.08c-.007.09.006.175.006.263h6.994l2.09-27.817a29.778,29.778,0,0,1,9.719-19.751c15.228-13.941,31.765-27.543,43.716-37.078,9.552,9.357,28.213,25.442,53.041,36.34a23.559,23.559,0,0,0,9.478,1.982A24.013,24.013,0,0,0,159.5,279.8c11.615-6.971,28.025-20.865,39.493-39.037,1.89-1.553,3.712-3.161,5.432-4.828,9.329,7.235,33.781,26.515,55.121,46.05a29.774,29.774,0,0,1,9.719,19.751l2.091,27.817h6.994c0-.088.013-.173.006-.263l-2.111-28.08A36.741,36.741,0,0,0,264.275,276.819ZM110.781,61.079c9.212-6.653,25.391-16.071,50.154-23.153a146.35,146.35,0,0,0,14.848-5.049c7.741-3.138,17.748-7.637,25.409-12.605.538,7.831.167,21.9-8.048,30.04a3.5,3.5,0,0,0,2.237,5.98l14.181.914c-1.461,3.868-5.035,10.095-13.621,14.911a3.5,3.5,0,0,0-1.787,3.1l1.207,86.355c-18.681,3.152-55.757,5.752-88.192.484l-2.851-87.776A15.627,15.627,0,0,1,110.781,61.079ZM90.307,172.953a8.262,8.262,0,0,1,8.014-5.627,8.59,8.59,0,0,1,2.307.316c.828.23,1.776.478,2.835.737a15.338,15.338,0,0,0-1.037,2.288,24.909,24.909,0,0,0-.969,3.72c-1.372,7.545,1.721,13.814,8.7,17.672l.012.01c.036.021.084.049.14.08a3.607,3.607,0,0,1,1.875,3.552l-2.044,19.012a2.281,2.281,0,0,1-1.2,1.856,15.933,15.933,0,0,0-9.22,13.135c-1.058-1.078-2.085-2.171-3.037-3.3a9.035,9.035,0,0,1-.476-11.292,8.483,8.483,0,0,1,3.163-2.562,3.5,3.5,0,0,0,2.01-3.167V193.635a3.5,3.5,0,0,0-2.112-3.213C99.151,190.372,86.636,185.209,90.307,172.953ZM155.9,273.8a16.843,16.843,0,0,1-15.416,1.039C117.2,264.613,99.525,249.6,90.161,240.522c2.246-1.768,4.222-3.309,5.874-4.589,11.568,11.212,27.6,19.891,39.739,25.448a34.71,34.71,0,0,0,28.914,0c4.844-2.217,10.311-4.943,15.865-8.117A117.255,117.255,0,0,1,155.9,273.8Zm47.88-47.384a72.478,72.478,0,0,1-9.423,9.113c-.017.012-.033.027-.05.039-10.179,8.315-22.682,14.943-32.534,19.452a27.715,27.715,0,0,1-23.084,0c-9.551-4.372-21.584-10.741-31.583-18.7-.012-.07-.011-.139-.028-.208-1.478-6.27.277-11.08,4.818-13.2a8.757,8.757,0,0,0,2.342-1.627c2.358.918,5.5,2.03,9.253,3.1a3.5,3.5,0,0,0,1.914-6.732c-3.314-.943-6.1-1.917-8.244-2.741l1.985-18.46a10.616,10.616,0,0,0,.05-1.611c5.821,1.126,15,2.158,29.116,2.158,5.716,0,12.244-.17,19.682-.57a3.5,3.5,0,1,0-.377-6.99c-42.3,2.283-53.561-3.23-53.9-3.406l-.012,0-.053-.032c-6.54-3.553-5.609-8.672-5.3-10.354a17.984,17.984,0,0,1,.693-2.67,8.236,8.236,0,0,1,1.862-3.027c39.333,6.16,81.67-.28,88.936-2.3a8.507,8.507,0,0,1,10.326,5.326,18.03,18.03,0,0,1,.694,2.671c1.753,9.644-9.2,14.582-9.658,14.783a3.5,3.5,0,0,0-2.112,3.213v13.9a82.056,82.056,0,0,1-31.869,12.75,3.5,3.5,0,0,0,.587,6.952,3.539,3.539,0,0,0,.594-.051,89.011,89.011,0,0,0,34.294-13.64,8.817,8.817,0,0,1,1.626,1.652A9.048,9.048,0,0,1,203.78,226.412Z" style="fill:#464965"/></svg>