<?xml version="1.0" ?><svg id="icons" viewBox="0 0 340 340" xmlns="http://www.w3.org/2000/svg" xmlns:xlink="http://www.w3.org/1999/xlink"><defs><radialGradient cx="132.149" cy="89.555" gradientUnits="userSpaceOnUse" id="radial-gradient" r="76.647"><stop offset="0" stop-color="#f97d7d"/><stop offset="1" stop-color="#fcd0be"/></radialGradient><linearGradient gradientUnits="userSpaceOnUse" id="linear-gradient" x1="123.794" x2="186.45" y1="87.708" y2="118.382"><stop offset="0" stop-color="#f3f8ff"/><stop offset="1" stop-color="#c9d4e5"/></linearGradient><linearGradient id="linear-gradient-2" x1="107.448" x2="182.757" xlink:href="#linear-gradient" y1="87.652" y2="124.521"/><linearGradient gradientUnits="userSpaceOnUse" id="New_Gradient_Swatch_6" x1="163.924" x2="183.419" y1="281.823" y2="78.343"><stop offset="0" stop-color="#fcd0be"/><stop offset="1" stop-color="#efa69a"/></linearGradient></defs><title/><path d="M88.393,74.753l-4.741-9.68V55.826A13.744,13.744,0,0,1,95.929,42.155c21.792-2.341,67.664-9.251,96.654-27.68,0,0,7.542,26.536-11.732,40.5l17.6.279s1.115,16.941-15.644,23L176.94,81.92Z" style="fill:url(#radial-gradient)"/><path d="M90.907,101.905l-7.255,20.389V187.1h99.153V132.777S133.086,99.95,90.907,101.905Z" style="fill:url(#radial-gradient)"/><path d="M126.066,111.735c13.536,3.66,37.054,12.476,56.739,21.042V93.683Z" style="fill:url(#linear-gradient)"/><path d="M83.652,65.073s41.5,8.014,99.153,13.18v27.879s-54.189,3.315-99.153,16.162Z" style="fill:url(#linear-gradient-2)"/><path d="M107.549,187.1v36.913L42.317,276.048A44.6,44.6,0,0,0,26.4,302.166l-5.37,26.86H216.153V310.085h61.582a24.011,24.011,0,0,0,20.329-36.793c-19.51-31.011-42.725-62.617-80.227-112.084a61.368,61.368,0,0,1-11.931-28.991l-3.066-23.094a13.518,13.518,0,0,0-13.4-11.739h-6.635V154.04a55.461,55.461,0,0,0,7.547,27.932l43.417,74.487-73.946-31.094V187.1Z" style="fill:url(#New_Gradient_Swatch_6)"/><polygon points="107.549 187.1 107.549 204.389 159.823 225.365 159.823 187.1 107.549 187.1" style="fill:#464965"/><circle cx="318.971" cy="78.253" r="3.5" style="fill:#8b9ac9"/><path d="M233.77,64.422a3.5,3.5,0,0,1-1.315-6.745l12.931-5.239a10.663,10.663,0,0,0,6.158-6.621l1.13-3.5a17.633,17.633,0,0,1,6.781-9.124,88.712,88.712,0,0,1,23.318-11.02,3.5,3.5,0,0,1,1.894,6.738A83.044,83.044,0,0,0,263.4,38.977a10.6,10.6,0,0,0-4.064,5.494l-1.131,3.5a17.649,17.649,0,0,1-10.19,10.957l-12.931,5.239A3.5,3.5,0,0,1,233.77,64.422Z" style="fill:#8b9ac9"/><path d="M252.878,92.588h-.008l-13.954-.01a3.5,3.5,0,0,1,0-7h0l13.954.01h0a10.663,10.663,0,0,0,8.19-3.819l2.362-2.817a17.638,17.638,0,0,1,9.715-5.9,88.712,88.712,0,0,1,25.75-1.442,3.5,3.5,0,1,1-.779,6.957,82.981,82.981,0,0,0-23.489,1.327,10.592,10.592,0,0,0-5.833,3.561l-2.363,2.817A17.65,17.65,0,0,1,252.878,92.588Z" style="fill:#8b9ac9"/><path d="M297.6,140.782a3.485,3.485,0,0,1-2.195-.775,83.043,83.043,0,0,0-20.526-11.5,10.608,10.608,0,0,0-6.833-.129l-3.5,1.107a17.647,17.647,0,0,1-14.837-1.956l-11.763-7.5a3.5,3.5,0,0,1,3.764-5.9l11.763,7.5a10.657,10.657,0,0,0,8.965,1.182l3.5-1.107a17.653,17.653,0,0,1,11.366.239A88.739,88.739,0,0,1,299.8,134.558a3.5,3.5,0,0,1-2.2,6.224Z" style="fill:#8b9ac9"/><path d="M137.2,167.022a14.087,14.087,0,0,1-6.936-1.817l-.345-.194a7.072,7.072,0,0,0-5.932-.492l-5.679,2.074a3.5,3.5,0,1,1-2.4-6.574l5.678-2.074a14.072,14.072,0,0,1,11.773.968l.346.195a7.129,7.129,0,0,0,7.044-.027,14.016,14.016,0,0,1,12.238-.892l2.27.9a3.5,3.5,0,0,1-2.581,6.508l-2.27-.9a7.055,7.055,0,0,0-6.16.449A14.1,14.1,0,0,1,137.2,167.022Z" style="fill:#cc6262"/><path d="M277.735,313.584a27.511,27.511,0,0,0,23.292-42.156c-19.637-31.21-42.482-62.316-80.4-112.334a57.942,57.942,0,0,1-11.251-27.338l-3.066-23.095a17.07,17.07,0,0,0-16.87-14.777h-3.135V80.6c13.224-6.041,16.059-19.158,15.636-25.567a3.5,3.5,0,0,0-3.437-3.271l-9.015-.143c12.642-15.557,6.754-37.063,6.46-38.1a3.5,3.5,0,0,0-5.244-2c-28.928,18.39-76.178,25.116-95.15,27.154a17.217,17.217,0,0,0-15.4,17.15V187.1a3.5,3.5,0,0,0,3.5,3.5h20.4v31.727L40.134,273.312A48.159,48.159,0,0,0,22.965,301.48L17.6,328.339a3.585,3.585,0,0,0-.067.687H24.6l5.233-26.173A41.149,41.149,0,0,1,44.5,278.784l65.232-52.035a3.5,3.5,0,0,0,1.317-2.736V209.564l121.364,50.122a3.5,3.5,0,0,0,4.38-4.989L193.376,180.21a52.027,52.027,0,0,1-7.071-26.17V100.884h3.135a10.049,10.049,0,0,1,9.931,8.7l3.065,23.094a64.977,64.977,0,0,0,12.612,30.645c37.8,49.857,60.555,80.841,80.054,111.834a20.51,20.51,0,0,1-17.367,31.428H216.153a3.5,3.5,0,0,0-3.5,3.5v18.942h7V313.584ZM87.152,69.273c11.684,2.084,46.879,8,92.153,12.176V88.1c-39.644-1.885-82.071,6.031-92.153,8.06Zm0,34.027c6.233-1.3,50.867-10.223,92.153-8.2v7.77c-8.1.623-30.18,2.572-55.2,6.868a3.294,3.294,0,0,0-.444.076c-11.916,2.056-24.478,4.642-36.509,7.874Zm92.153,6.595V127.08c-11.486-5.471-25.261-9.875-37.065-13.086C159.12,111.618,172.973,110.389,179.305,109.9ZM87.152,183.6V124.948c12.218-3.368,25.08-6.049,37.278-8.165,11.191,2.523,37.154,8.984,54.875,18.107V183.6Zm69.171,36.589-45.274-18.168V190.6h45.274Zm31.006-36.453,38.142,65.437-62.148-26.134V190.6h19.482a3.5,3.5,0,0,0,3.5-3.5v-5.2Q186.8,182.827,187.329,183.736ZM182.28,74.691c-47.943-4.331-84.9-10.68-95.128-12.53V55.825A10.23,10.23,0,0,1,96.3,45.635c22.994-2.471,64.738-9.03,93.791-25.58,1.029,7.654,1.23,23.012-11.3,32.089a3.5,3.5,0,0,0,2,6.334l13.979.221A19.443,19.443,0,0,1,182.28,74.691Z" style="fill:#464965"/></svg>