<?xml version="1.0" ?><svg id="icons" viewBox="0 0 340 340" xmlns="http://www.w3.org/2000/svg" xmlns:xlink="http://www.w3.org/1999/xlink"><defs><linearGradient gradientUnits="userSpaceOnUse" id="linear-gradient" x1="136.196" x2="323.587" y1="73.382" y2="128.953"><stop offset="0" stop-color="#7eb8f2"/><stop offset="1" stop-color="#6b8ad6"/></linearGradient><linearGradient gradientUnits="userSpaceOnUse" id="linear-gradient-2" x1="95.49" x2="34.121" y1="126.116" y2="309.672"><stop offset="0" stop-color="#ff6185"/><stop offset="1" stop-color="#e2407a"/></linearGradient><linearGradient id="linear-gradient-3" x1="120.571" x2="307.962" xlink:href="#linear-gradient" y1="126.07" y2="181.642"/></defs><title/><path d="M271.177,35.147,252.613,53.711l23.212,23.213H198.49a62.506,62.506,0,1,0-101.14,63.2l15.923-20.962a36.249,36.249,0,1,1,54.423-5.748l7.582,29.381a62.485,62.485,0,0,0,24.313-39.62h76.234l-23.212,23.213,18.564,18.564,54.9-54.9Z" style="fill:url(#linear-gradient)"/><path d="M102.125,97.9c-7.634-1.246-17.451-1.841-26.341.692A62.035,62.035,0,0,0,84.759,125.4c5.6-3.568,16.346-8.783,28.514-6.233A36.169,36.169,0,0,1,102.125,97.9Z" style="fill:#464965"/><path d="M88.863,208.441a62.483,62.483,0,1,0-29.974-7.648L46.912,234.664l-24.29-8.589-8.753,24.752,24.291,8.589L27.137,290.591l24.752,8.752,11.023-31.175L87.2,276.757l8.752-24.752-24.291-8.589L84.1,208.242C85.675,208.361,87.259,208.441,88.863,208.441Zm0-98.751a36.249,36.249,0,1,1-36.249,36.249A36.248,36.248,0,0,1,88.863,109.69Z" style="fill:url(#linear-gradient-2)"/><path d="M124.927,142.274a36.679,36.679,0,0,1,.184,3.665,36.068,36.068,0,0,1-6.649,20.911A89.922,89.922,0,0,0,143.44,176.4a62.2,62.2,0,0,0,7.926-30.457c0-1.389-.062-2.762-.151-4.128C141.428,144.764,131.824,143.825,124.927,142.274Z" style="fill:#464965"/><path d="M137.988,155.162a62.174,62.174,0,0,0,37.29-12.364L167.7,113.417a36.226,36.226,0,0,1-54.423,5.748L97.35,140.127A62.239,62.239,0,0,0,137.988,155.162Z" style="fill:url(#linear-gradient-3)"/><path d="M284.041,188.422a10.345,10.345,0,0,0-9.108,9.011,10.214,10.214,0,0,0,.45,4.435,12.657,12.657,0,0,1,.523,6.124c-1.383,8.192-12.144,10.807-16.256,10.807a32.681,32.681,0,0,1-8.586-1.17,4,4,0,0,1,2.292-7.665c2.545.748,9.942,1.971,13.614-1.291l.022-.019a2.611,2.611,0,0,0,.07-3.9c-1.172-1.113-2.412-2.21-3.716-3.277a14.7,14.7,0,0,1-4.743-7.311,52.134,52.134,0,0,1-2.016-9.127,2.9,2.9,0,0,0-5.041-1.785,41.6,41.6,0,0,1-4.863,4.009c-5.776,4.763-20.895,7.421-28.287-5.1-2.852-4.831-2.368-12.042-2.368-12.393a11.707,11.707,0,1,0-18.65,9.416,16.423,16.423,0,0,1,6.437,9.047c1.181,4.72.45,11.1-7.2,17.722-5.965,5.167-11.3,1.074-16.375,12.106-2.642,5.736.637,12.8-.921,20.148-.565,2.66,2.591,4.7,5.191,3.9a17.958,17.958,0,0,0,10.081-7.782,4.156,4.156,0,0,1,5.245-1.669,4,4,0,0,1,1.656,5.724,25.838,25.838,0,0,1-12.98,10.772,9.731,9.731,0,0,0-5.875,11.925l.044.138a9.278,9.278,0,0,1-2.745,9.937c-5.394,4.53-14.089,3.811-15.636,4.384a10.4,10.4,0,0,0-6.962,9.933,10.284,10.284,0,0,0,19.975,3.182,17.275,17.275,0,0,1,3.748-6.3,11.269,11.269,0,0,1,5.06-3.458c7.883-2.124,17.746-.514,21.356,12.44.589,2.11,1.621,4.3,2.123,6.851a4.051,4.051,0,0,0,3,3.238,3.921,3.921,0,0,0,4.744-3.158c.37-2.239,1.676-5.276,2.47-9.049,1.5-7.146,7.255-14.082,16.987-17.419a4.148,4.148,0,0,1,4.942,1.683,4,4,0,0,1-1.958,5.731,29.424,29.424,0,0,0-7.34,4.215c-4.177,3.311-.352,9.927,4.542,7.817a35.888,35.888,0,0,1,21.586-2.738c5.44.932,6.81,5.763,6.33,12a15.162,15.162,0,0,0-.019,5.038,10.283,10.283,0,0,0,20.262-2.488c0-4.79-2.145-9.219-8.2-10.057a8.81,8.81,0,0,1-7.391-6.8l-.022-.1a7.77,7.77,0,0,1,.344-4.315c3.155-8.51,12.076-10.317,17.76-10.609a3.087,3.087,0,0,0,2.052-5.228q-.481-.489-.955-1.011a16.879,16.879,0,0,1-4.218-13.618,68.652,68.652,0,0,0,.618-10.581,42.931,42.931,0,0,0-2.091-12.477h0a45.786,45.786,0,0,1-.558-11.17,11.125,11.125,0,0,1,6.808-9.038,10.282,10.282,0,0,0-5.256-19.63Zm-73.633,33.771a7.988,7.988,0,1,1,7.988,7.988A7.988,7.988,0,0,1,210.408,222.193Zm9,39.312a7.988,7.988,0,1,1,7.988-7.987A7.988,7.988,0,0,1,219.406,261.505Zm20.327-28.2a4.557,4.557,0,1,1,4.556,4.557A4.556,4.556,0,0,1,239.733,233.307Zm9.6,29.344a3.5,3.5,0,1,1,2.983-3.95A3.5,3.5,0,0,1,249.329,262.651ZM265.383,251.4a7.988,7.988,0,1,1,7.987-7.988A7.988,7.988,0,0,1,265.383,251.4Z" style="fill:#464965"/><path d="M273.652,32.672a3.5,3.5,0,0,0-4.95,0L250.138,51.236c-.656.656-1.977,3.093,0,4.95l17.237,17.238H201.14A66.007,66.007,0,0,0,72.875,81.905,66,66,0,0,0,54.619,202.369L44.779,230.2l-20.991-7.422a3.5,3.5,0,0,0-4.466,2.133L10.569,249.66a3.5,3.5,0,0,0,2.133,4.467l20.991,7.422-9.856,27.875a3.5,3.5,0,0,0,2.133,4.466l24.752,8.753c2.315.953,4.157-1.258,4.467-2.133l9.856-27.875,20.991,7.422a3.5,3.5,0,0,0,4.466-2.132l8.753-24.753a3.5,3.5,0,0,0-2.133-4.467l-20.991-7.421,10.392-29.392c.812.033,1.583.049,2.34.049a66.205,66.205,0,0,0,65.109-55.227,66.173,66.173,0,0,0,48.509-50.036h64.894l-17.237,17.237c-1.977,1.858-.656,4.294,0,4.951L268.7,147.43a3.668,3.668,0,0,0,4.95,0l54.9-54.9c1.827-2.2.978-3.864,0-4.95ZM88.863,204.941c-1.36,0-2.79-.06-4.5-.189a3.516,3.516,0,0,0-3.563,2.324L68.365,242.249a3.5,3.5,0,0,0,2.132,4.467l20.991,7.422L85.07,272.291l-20.991-7.422A3.5,3.5,0,0,0,59.612,267l-9.856,27.875L31.6,288.458l9.857-27.875a3.5,3.5,0,0,0-2.133-4.466l-20.991-7.423,6.418-18.152,20.991,7.422a3.5,3.5,0,0,0,4.467-2.133L62.188,201.96a3.5,3.5,0,0,0-1.618-4.237,59.008,59.008,0,1,1,83.407-72.872,32.644,32.644,0,0,1-27.857-7.836,39.712,39.712,0,1,0,3.342,54.374,91.681,91.681,0,0,0,18.5,7.234A59.216,59.216,0,0,1,88.863,204.941Zm75.968-93.533,0,0A32.828,32.828,0,0,1,150.7,122.817a65.73,65.73,0,0,0-43.826-40.4,32.753,32.753,0,1,1,57.961,28.994ZM95.073,142.785A66,66,0,0,0,120,156.144a32.754,32.754,0,1,1-43.841-40.386A66.111,66.111,0,0,0,95.073,142.785ZM82.88,113.748a32.684,32.684,0,0,1,17.936,1.694A46.062,46.062,0,0,0,86.022,120.6,58.648,58.648,0,0,1,82.88,113.748Zm58.734,58.6a86.324,86.324,0,0,1-18.163-6.761,39.717,39.717,0,0,0,3.384-7.883,65.823,65.823,0,0,0,11.153.961,66.783,66.783,0,0,0,8.607-.563A58.253,58.253,0,0,1,141.614,172.345Zm129.563-32.34L257.563,126.39,278.3,105.653a3.5,3.5,0,0,0-2.474-5.975H199.591a3.5,3.5,0,0,0-3.451,2.915,58.976,58.976,0,0,1-96.513,34.876,59.425,59.425,0,0,1-9.914-10.908c5.572-2.971,13.388-5.645,21.976-4.122a39.708,39.708,0,0,0,58.875-7.015v0A39.747,39.747,0,1,0,100.019,80.88a65.426,65.426,0,0,0-19.767-.364A59.008,59.008,0,0,1,195.1,77.8a3.5,3.5,0,0,0,3.388,2.622h77.336a3.5,3.5,0,0,0,2.474-5.975L257.563,53.711,271.177,40.1l49.954,49.954Z" style="fill:#464965"/></svg>