<?xml version="1.0" ?><svg id="icons" viewBox="0 0 340 340" xmlns="http://www.w3.org/2000/svg" xmlns:xlink="http://www.w3.org/1999/xlink"><defs><linearGradient gradientUnits="userSpaceOnUse" id="linear-gradient" x1="118.622" x2="119.955" y1="162.326" y2="318.326"><stop offset="0" stop-color="#ff6185"/><stop offset="1" stop-color="#e2407a"/></linearGradient><linearGradient id="linear-gradient-2" x1="52.783" x2="56.077" xlink:href="#linear-gradient" y1="103.557" y2="304.513"/><linearGradient id="linear-gradient-3" x1="26.349" x2="27.682" xlink:href="#linear-gradient" y1="163.114" y2="319.114"/><linearGradient id="linear-gradient-4" x1="163.794" x2="165.127" xlink:href="#linear-gradient" y1="161.94" y2="317.94"/><linearGradient id="linear-gradient-5" x1="269.038" x2="272.333" xlink:href="#linear-gradient" y1="100.012" y2="300.968"/><linearGradient id="linear-gradient-6" x1="119.247" x2="119.247" xlink:href="#linear-gradient" y1="80.055" y2="153.294"/><linearGradient id="linear-gradient-7" x1="300.753" x2="300.753" xlink:href="#linear-gradient" y1="186.259" y2="305.561"/><linearGradient id="linear-gradient-8" x1="310.905" x2="310.905" xlink:href="#linear-gradient" y1="186.259" y2="305.561"/><linearGradient id="linear-gradient-9" x1="200.989" x2="202.323" xlink:href="#linear-gradient" y1="161.659" y2="317.659"/><linearGradient id="linear-gradient-10" x1="206.648" x2="206.648" xlink:href="#linear-gradient" y1="186.259" y2="305.561"/></defs><title/><path d="M102.369,181.044a40.518,40.518,0,0,0-17.822,4.545,23.084,23.084,0,0,0-12.464,21.594c0,.1.01.205.016.308a27.2,27.2,0,0,1-3.545,14.98c-3.106,5.431-6.159,13.665-3.971,23.014,0,0,2.838,20.223,25.19,19.868,0,0,6.031,16.675,27.319,16.675s24.48-19.513,24.48-19.513,30.867-1.065,33-28.738c0,0,1.538-12.561-8.46-21.776a34.707,34.707,0,0,1-10.979-19.356c-.173-.983-.318-1.979-.426-2.977a15.731,15.731,0,0,0-8.823-12.581c-7.434-3.543-18.73-6.325-30.582.334A27.442,27.442,0,0,1,102.369,181.044Z" style="fill:url(#linear-gradient)"/><circle cx="52.649" cy="95.374" r="13.707" style="fill:url(#linear-gradient-2)"/><circle cx="26.452" cy="175.182" r="14.012" style="fill:url(#linear-gradient-3)"/><circle cx="165.05" cy="308.906" r="14.926" style="fill:url(#linear-gradient-4)"/><circle cx="271.359" cy="241.587" r="15.606" style="fill:url(#linear-gradient-5)"/><circle cx="106.551" cy="216.311" r="11.259" style="fill:#fff"/><circle cx="117.811" cy="250.284" r="8.697" style="fill:#fff"/><circle cx="119.247" cy="95.374" r="18.083" style="fill:url(#linear-gradient-6)"/><circle cx="63.841" cy="145.583" r="8.217" style="fill:#464965"/><circle cx="30.321" cy="261.335" r="8.621" style="fill:#464965"/><ellipse cx="300.753" cy="302.077" rx="5.618" ry="5.523" style="fill:url(#linear-gradient-7)"/><ellipse cx="310.905" cy="194.891" rx="7.867" ry="7.734" style="fill:url(#linear-gradient-8)"/><path d="M49.018,295.022a15.287,15.287,0,0,0-3.953,4.863,13.727,13.727,0,0,0-1.1,9.013c1.112,5.435,4.781,14.1,16.888,11.959,8.531-1.51,10.9-8.006,11.188-13.985a14.223,14.223,0,0,0-9.131-13.917h0A14.01,14.01,0,0,0,49.018,295.022Z" style="fill:#464965"/><path d="M148.136,226.558a5.589,5.589,0,0,1-7.428,3.777c-2.6-1.191-4-4.992-3.11-8.489s3.718-5.367,6.323-4.175S149.023,223.061,148.136,226.558Z" style="fill:#fff"/><path d="M110.918,179.427a29.4,29.4,0,0,0,4.38-2.006,30.46,30.46,0,0,1,15.251-4.038,39.591,39.591,0,0,1-4.042-13.691c-1.45-13.47,0-35.29,0-35.29s0-10.035,6.269-17.035l-.024,0a17.97,17.97,0,0,1-19.439,5.069c1.638,2.41,3.687,7.207,3.687,16.143v36.795S117.5,173.73,110.918,179.427Z" style="fill:#464965"/><path d="M223.256,177.355c-2.634-4.9-9.634-8.536-15.165-7.939a16.142,16.142,0,0,0-2.764.545,14.786,14.786,0,0,0-7.877,5.8S190,185.954,180.1,191.535a5.2,5.2,0,0,0-1.2,8.245c.048.045.1.09.146.135a5.2,5.2,0,0,0,6.1.6c3.51-2.043,10.335-4.868,17.353-1.429.325.183.65.364.972.517l.052.028,0-.006c6.32,2.968,12.027.284,16.27-3.352A15.34,15.34,0,0,0,223.256,177.355Z" style="fill:url(#linear-gradient-9)"/><path d="M89.773,265.353a26.544,26.544,0,0,1-13.561-3.069,39.263,39.263,0,0,1-3.278,11.453A91.745,91.745,0,0,1,61.569,292.52c.452.125.9.265,1.343.435A14.3,14.3,0,0,1,69.2,297.7c3.028-7.844,10.716-22.774,25.82-24.458A25.277,25.277,0,0,1,89.773,265.353Z" style="fill:#464965"/><path d="M72.083,207.183a23.077,23.077,0,0,1,5.9-16.527c-4.217.448-10.07-.1-17.959-3.125-10.3-3.942-16.223-8.553-19.571-12.147a13.951,13.951,0,0,1-4.349,9.937c3.72.714,10.466,2.914,19.431,9.638,8.559,6.419,13.282,15.145,15.673,21a27.133,27.133,0,0,0,.89-8.472C72.093,207.388,72.088,207.286,72.083,207.183Z" style="fill:#464965"/><path d="M319.671,43.026a10.344,10.344,0,0,0-9.109,9.011,10.223,10.223,0,0,0,.451,4.434,12.65,12.65,0,0,1,.522,6.125C310.153,70.787,299.391,73.4,295.279,73.4a32.681,32.681,0,0,1-8.586-1.17,4,4,0,0,1,2.292-7.665c2.546.748,9.942,1.971,13.615-1.291l.021-.019a2.61,2.61,0,0,0,.07-3.9c-1.172-1.113-2.412-2.21-3.716-3.278a14.685,14.685,0,0,1-4.742-7.31,52.134,52.134,0,0,1-2.016-9.127,2.9,2.9,0,0,0-5.042-1.786,41.712,41.712,0,0,1-4.862,4.01c-5.777,4.763-20.9,7.421-28.288-5.1-2.852-4.831-2.367-12.042-2.367-12.393a11.707,11.707,0,1,0-18.65,9.416,16.418,16.418,0,0,1,6.436,9.047c1.182,4.72.451,11.1-7.2,17.722-5.965,5.167-11.294,1.074-16.374,12.105-2.642,5.737.636,12.8-.922,20.148-.564,2.661,2.591,4.7,5.192,3.9a17.947,17.947,0,0,0,10.08-7.782,4.158,4.158,0,0,1,5.246-1.668,4,4,0,0,1,1.655,5.724,25.836,25.836,0,0,1-12.979,10.772,9.73,9.73,0,0,0-5.875,11.924l.044.139a9.281,9.281,0,0,1-2.746,9.937c-5.394,4.53-14.089,3.81-15.635,4.384a10.4,10.4,0,0,0-6.962,9.932,10.285,10.285,0,0,0,19.975,3.183,17.259,17.259,0,0,1,3.747-6.3,11.278,11.278,0,0,1,5.061-3.458c7.882-2.124,17.746-.514,21.356,12.44.588,2.11,1.62,4.3,2.123,6.851a4.05,4.05,0,0,0,3,3.238,3.921,3.921,0,0,0,4.744-3.158c.369-2.239,1.675-5.277,2.469-9.049,1.5-7.146,7.255-14.082,16.987-17.419a4.148,4.148,0,0,1,4.942,1.683,4,4,0,0,1-1.958,5.731,29.435,29.435,0,0,0-7.339,4.215c-4.178,3.311-.353,9.927,4.542,7.816a35.876,35.876,0,0,1,21.585-2.737c5.441.931,6.81,5.763,6.331,12a15.135,15.135,0,0,0-.019,5.038,10.283,10.283,0,0,0,20.261-2.489c0-4.789-2.144-9.218-8.2-10.056a8.809,8.809,0,0,1-7.391-6.805l-.022-.1a7.752,7.752,0,0,1,.344-4.315c3.154-8.51,12.076-10.317,17.759-10.609a3.087,3.087,0,0,0,2.052-5.229q-.48-.488-.955-1.01a16.878,16.878,0,0,1-4.217-13.618,68.519,68.519,0,0,0,.617-10.581,42.93,42.93,0,0,0-2.09-12.477h0a45.786,45.786,0,0,1-.558-11.17,11.125,11.125,0,0,1,6.809-9.038,10.282,10.282,0,0,0-5.256-19.63ZM246.037,76.8a7.988,7.988,0,1,1,7.988,7.987A7.988,7.988,0,0,1,246.037,76.8Zm9,39.312a7.988,7.988,0,1,1,7.987-7.988A7.988,7.988,0,0,1,255.036,116.109Zm20.326-28.2a4.557,4.557,0,1,1,4.557,4.557A4.556,4.556,0,0,1,275.362,87.911Zm9.6,29.344a3.5,3.5,0,1,1,2.982-3.95A3.5,3.5,0,0,1,284.959,117.255ZM301.012,106A7.988,7.988,0,1,1,309,98.016,7.987,7.987,0,0,1,301.012,106Z" style="fill:#464965"/><path d="M78.74,19.783a12.013,12.013,0,0,0-3.11,3.827,10.8,10.8,0,0,0-.865,7.092c.875,4.277,3.763,11.1,13.29,9.411,6.712-1.189,8.579-6.3,8.8-11a11.19,11.19,0,0,0-7.185-10.951h0A11.022,11.022,0,0,0,78.74,19.783Z" style="fill:#464965"/><path d="M201.417,263.2a8.908,8.908,0,0,0-2.338,2.828,7.851,7.851,0,0,0-.65,5.241c.658,3.162,2.829,8.2,9.991,6.956,5.047-.879,6.45-4.656,6.619-8.134a8.271,8.271,0,0,0-5.4-8.094h0A8.4,8.4,0,0,0,201.417,263.2Z" style="fill:url(#linear-gradient-10)"/><path d="M161.191,294.5c-4.1-4.686-10.126-12.777-11.067-20.765a30.835,30.835,0,0,1,1.132-12.964,43.78,43.78,0,0,1-9.684,1.742,25.919,25.919,0,0,1-7.287,13.248,21.841,21.841,0,0,1,13.908,10.093,134.124,134.124,0,0,1,6.619,12.208A14.876,14.876,0,0,1,161.191,294.5Z" style="fill:#464965"/><path d="M87.522,268.82c2.652,5.061,10.8,16.708,29.57,16.708,17.113,0,24.909-11.678,27.3-19.712,12.214-1.333,31.893-9.15,33.664-31.709.146-1.366,1.262-14.692-9.572-24.68a31.044,31.044,0,0,1-9.905-17.387c-.167-.95-.3-1.873-.393-2.747a19.139,19.139,0,0,0-10.8-15.367c-8.149-3.882-20.628-6.959-33.8.444a24.08,24.08,0,0,1-11.277,3.174,44.247,44.247,0,0,0-19.363,4.934,26.612,26.612,0,0,0-14.356,24.871l.017.335a23.609,23.609,0,0,1-3.088,13.05c-3.325,5.814-6.773,14.929-4.375,25.4C62.3,253.906,69.253,268,87.522,268.82Zm-15.93-44.611a30.589,30.589,0,0,0,4-16.917l-.014-.277A19.592,19.592,0,0,1,86.151,188.7a37.217,37.217,0,0,1,16.282-4.159,31.066,31.066,0,0,0,14.579-4.07c10.56-5.932,20.707-3.4,27.362-.226a12.186,12.186,0,0,1,6.85,9.8c.11,1.028.264,2.107.458,3.207a37.979,37.979,0,0,0,12.054,21.324,23.54,23.54,0,0,1,7.358,18.777c-.007.053-.012.1-.016.157-1.859,24.166-28.5,25.466-29.627,25.509a3.517,3.517,0,0,0-3.33,2.918c-.117.678-3.073,16.593-21.029,16.593-18.438,0-23.815-13.8-24.028-14.365a3.5,3.5,0,0,0-3.291-2.31h-.056c-.171,0-.339,0-.507,0-18.426,0-21.059-16.18-21.161-16.859-.015-.1-.034-.209-.058-.312C66.044,236.371,68.875,228.96,71.592,224.209Z" style="fill:#464965"/><path d="M52.649,78.167A17.208,17.208,0,1,0,69.857,95.374,17.225,17.225,0,0,0,52.649,78.167Zm0,27.415A10.208,10.208,0,1,1,62.857,95.374,10.22,10.22,0,0,1,52.649,105.582Z" style="fill:#464965"/><path d="M43.964,175.182a17.512,17.512,0,1,0-17.512,17.512A17.532,17.532,0,0,0,43.964,175.182Zm-28.023,0a10.512,10.512,0,1,1,10.511,10.512A10.524,10.524,0,0,1,15.941,175.182Z" style="fill:#464965"/><path d="M165.05,327.332a18.426,18.426,0,1,0-18.426-18.426A18.447,18.447,0,0,0,165.05,327.332Zm0-29.852a11.426,11.426,0,1,1-11.426,11.426A11.439,11.439,0,0,1,165.05,297.48Z" style="fill:#464965"/><path d="M252.253,241.586a19.106,19.106,0,1,0,19.106-19.105A19.128,19.128,0,0,0,252.253,241.586Zm31.212,0a12.106,12.106,0,1,1-12.106-12.105A12.12,12.12,0,0,1,283.465,241.586Z" style="fill:#464965"/><path d="M119.247,116.958A21.584,21.584,0,1,0,97.663,95.374,21.608,21.608,0,0,0,119.247,116.958Zm0-36.167a14.584,14.584,0,1,1-14.584,14.583A14.6,14.6,0,0,1,119.247,80.791Z" style="fill:#464965"/><path d="M200.877,202.192c.334.186.668.369,1,.53a3.581,3.581,0,0,0,.362.167c6.5,2.961,13.354,1.594,19.83-3.957a18.948,18.948,0,0,0,4.271-23.234h0c-3.3-6.135-11.639-10.516-18.625-9.763a19.751,19.751,0,0,0-3.361.664,18.278,18.278,0,0,0-9.727,7.094c-.071.1-7.152,9.665-16.247,14.793a8.9,8.9,0,0,0-4.448,6.638,8.4,8.4,0,0,0,2.576,7.207l.188.174a8.594,8.594,0,0,0,5.79,2.238,8.779,8.779,0,0,0,4.421-1.2C189.748,201.888,195.329,199.521,200.877,202.192Zm-19.485-4.876-.082-.077a1.431,1.431,0,0,1-.432-1.259,1.875,1.875,0,0,1,.939-1.4c10.44-5.886,18.135-16.315,18.5-16.808a10.766,10.766,0,0,1,5.99-4.453,12.16,12.16,0,0,1,13.871,5.688h0a11.91,11.91,0,0,1-2.659,14.606c-6.569,5.629-11.533,3.317-13.475,2.328-8.432-4.3-16.588-.82-20.654,1.546A1.705,1.705,0,0,1,181.392,197.316Z" style="fill:#464965"/></svg>