<?xml version="1.0" ?><svg id="_x31_-outline-expand" style="enable-background:new 0 0 64 64;" version="1.1" viewBox="0 0 64 64" xml:space="preserve" xmlns="http://www.w3.org/2000/svg" xmlns:xlink="http://www.w3.org/1999/xlink"><path d="M57,21h-2v8h2c2.209,0,4-1.791,4-4v0C61,22.791,59.209,21,57,21z" style="fill:#3A4249;"/><path d="M45,44.12c-2.41,1.2-5.12,1.88-8,1.88s-5.59-0.68-8-1.88c-5.36-2.66-9.2-7.91-9.89-14.12h35.78  C54.2,36.21,50.36,41.46,45,44.12z" style="fill:#3A4249;"/><path d="M55,20v1c-3.31,0-6-2.69-6-6v-1H21.21c-0.33,0-0.67-0.03-0.99-0.08c-0.05-0.01-0.1-0.01-0.14-0.02  c-2.54-0.46-4.65-2.42-5.02-5.03c-0.48-3.42,1.93-6.38,5.14-6.81C20.63,3.19,21.72,4,23,4h16C47.84,4,55,11.16,55,20z" style="fill:#3A4249;"/><circle cx="30" cy="25" r="2" style="fill:#3A4249;"/><circle cx="44" cy="25" r="2" style="fill:#3A4249;"/><path d="M37,54.861l9.363-5.107C45.523,49.011,45,47.936,45,46.75v-0.425C42.549,47.396,39.846,48,37,48  s-5.549-0.604-8-1.675v0.425c0,1.186-0.523,2.261-1.363,3.004L37,54.861z" style="fill:#3A4249;"/><polygon points="25.329,50.773 23.714,51.114 19,55.828 19,61 36,61 36,56.593 " style="fill:#3A4249;"/><path d="M3,35c1.105,0,2,0.895,2,2c0-1.105,0.895-2,2-2s2,0.895,2,2c0-1.105,0.895-2,2-2s2,0.895,2,2V27  c0-1.105,0.895-2,2-2s2,0.895,2,2v19h1v-2c0-2.209,1.791-4,4-4v10l-5,5v6H1V37C1,35.895,1.895,35,3,35z" style="fill:#3A4249;"/><path d="M63,55.382c-0.042-0.039-0.078-0.084-0.12-0.122c-1.42-1.26-3.16-2.16-5.07-2.56l-9.139-1.927  L38,56.593V61h25V55.382z M56,59H43v-3h13V59z" style="fill:#3A4249;"/></svg>