<?xml version="1.0" ?><svg id="_x31_-outline-expand" style="enable-background:new 0 0 64 64;" version="1.1" viewBox="0 0 64 64" xml:space="preserve" xmlns="http://www.w3.org/2000/svg" xmlns:xlink="http://www.w3.org/1999/xlink"><path d="M3,33h8l2.037-2.037c0.175,2.476,1.019,4.835,2.474,6.874l0.175,0.245l1.627-1.164l-0.175-0.244  C15.74,34.715,15,32.406,15,30h3v-4h-8C6.134,26,3,29.134,3,33z" style="fill:#3A4249;"/><rect height="2" style="fill:#3A4249;" width="2" x="21" y="27"/><rect height="2" style="fill:#3A4249;" width="2" x="25" y="31"/><rect height="2" style="fill:#3A4249;" width="2" x="25" y="27"/><rect height="2" style="fill:#3A4249;" width="2" x="25" y="23"/><path d="M61,26H43.578c-0.772-1.765-2.529-3-4.578-3c-2.761,0-5,2.238-5,5c0,2.762,2.239,5,5,5  c2.049,0,3.806-1.235,4.578-3H61c0.552,0,1-0.447,1-1v-2C62,26.447,61.552,26,61,26z" style="fill:#3A4249;"/><path d="M39,35L39,35L39,35c-3.86,0-7-3.141-7-7c0-3.859,3.14-7,7-7c2.373,0,4.47,1.189,5.736,3H56V6  c0-2.209-1.791-4-4-4H33c-2.209,0-4,1.791-4,4v52c0,2.209,1.791,4,4,4h19c2.209,0,4-1.791,4-4V32H44.737  C43.47,33.811,41.373,35,39,35z M41,43.222V47c0,1.104-0.896,2-2,2s-2-0.896-2-2v-3.778c-0.609-0.55-1-1.337-1-2.222  c0-1.657,1.343-3,3-3c1.657,0,3,1.343,3,3C42,41.885,41.609,42.672,41,43.222z" style="fill:#3A4249;"/><polygon points="2,54.969 16,52.969 16,50.99 2,52.99 " style="fill:#3A4249;"/><polygon points="2,62 16,62 16,54.99 2,56.99 " style="fill:#3A4249;"/><path d="M13.5,44.5c-1.601-1.601-2.5-3.771-2.5-6.035L11,35H7l0,3.465c0,2.264-0.899,4.434-2.5,6.035  C2.899,46.101,2,48.271,2,50.535v0.434l13.854-1.979C15.543,47.301,14.732,45.732,13.5,44.5z" style="fill:#3A4249;"/></svg>