<?xml version="1.0" ?><svg id="_x31_-outline-expand" style="enable-background:new 0 0 64 64;" version="1.1" viewBox="0 0 64 64" xml:space="preserve" xmlns="http://www.w3.org/2000/svg" xmlns:xlink="http://www.w3.org/1999/xlink"><polygon points="35.466,14.965 25.893,1.422 20.255,3.474 25.727,18.509 " style="fill:#3A4249;"/><polygon points="10.881,23.912 5.138,17.489 1.379,18.857 4.115,26.375 " style="fill:#3A4249;"/><path d="M62.379,16.874c-0.726-1.997-2.878-3.046-4.889-2.451l-5.875,2.113l-0.684-1.88l4.153-1.493  l-1.657-1.009c-1.038-0.632-2.307-0.758-3.449-0.342L4.799,28.254l2.052,5.638l21.188-0.263l2.819-1.026l5.814,15.975l5.639-2.052  l-1.458-17.56l19.135-6.964C62.065,21.245,63.135,18.95,62.379,16.874z M38.714,19.103l0.684,1.879l-1.879,0.684l-0.684-1.879  L38.714,19.103z M34.955,20.471l0.684,1.879l-1.879,0.684l-0.684-1.879L34.955,20.471z M31.196,21.839l0.684,1.879l-1.879,0.684  l-0.684-1.879L31.196,21.839z M14.967,29.875l-0.685-1.879l1.879-0.685l0.685,1.879L14.967,29.875z M18.726,28.506l-0.685-1.879  l1.879-0.685l0.685,1.879L18.726,28.506z M22.483,27.138L21.8,25.259l1.879-0.684l0.684,1.879L22.483,27.138z M26.242,25.77  l-0.684-1.879l1.879-0.684l0.684,1.879L26.242,25.77z M41.277,20.297l-0.684-1.879l1.879-0.684l0.684,1.879L41.277,20.297z   M45.036,18.929l-0.684-1.879l1.879-0.684l0.684,1.879L45.036,18.929z" style="fill:#3A4249;"/><path d="M19,54h17v-2H19c-2.206,0-4-1.794-4-4s1.794-4,4-4h6.184c0.414,1.162,1.513,2,2.816,2  c1.656,0,3-1.344,3-3s-1.344-3-3-3c-1.304,0-2.403,0.838-2.816,2H19c-3.309,0-6,2.691-6,6S15.691,54,19,54z" style="fill:#3A4249;"/><rect height="2" style="fill:#3A4249;" width="2" x="38" y="52"/><path d="M50.5,52H42v2h8.5c1.379,0,2.5,1.122,2.5,2.5S51.879,59,50.5,59H19v2h31.5c2.481,0,4.5-2.019,4.5-4.5  S52.981,52,50.5,52z" style="fill:#3A4249;"/><path d="M5,57c-1.656,0-3,1.344-3,3s1.344,3,3,3c1.304,0,2.403-0.838,2.816-2H17v-2H7.816  C7.403,57.838,6.304,57,5,57z" style="fill:#3A4249;"/></svg>