<?xml version="1.0" ?><svg id="_x31_-outline-expand" style="enable-background:new 0 0 64 64;" version="1.1" viewBox="0 0 64 64" xml:space="preserve" xmlns="http://www.w3.org/2000/svg" xmlns:xlink="http://www.w3.org/1999/xlink"><circle cx="25" cy="25" r="2" style="fill:#3A4249;"/><circle cx="39" cy="25" r="2" style="fill:#3A4249;"/><path d="M61,46V22c0-6.08-4.92-11-11-11h-2.42c-0.78-1.37-1.74-2.62-2.85-3.73C41.47,4.02,36.97,2,32,2  c-9.94,0-18,8.06-18,18h-2c-2.209,0-4,1.791-4,4s1.791,4,4,4h2v-3.463l4.59,5.355C18.949,30.311,19.581,30.36,20,30  c0.42-0.359,0.468-0.99,0.109-1.41l-4.699-5.481c-0.359-0.42-0.99-0.468-1.41-0.109V21c7.19,0,13-4.92,13-11c0,6.08,10.29,11,23,11  v-1h2c2.21,0,4,1.79,4,4c0,2.21-1.79,4-4,4h-2v1h0c-0.501-0.231-1.095-0.013-1.327,0.489L44,39.612V38  c0.108,0.542-0.243,1.068-0.784,1.177l-3.039,0.607C39.635,39.893,39.108,39.542,39,39s0.243-1.068,0.784-1.177l3.039-0.607  C43.365,37.107,43.892,37.458,44,38v-3.999c-0.109,0.541-0.635,0.892-1.177,0.784l-3.039-0.607C39.242,34.068,38.891,33.541,39,33  c0.108-0.542,0.635-0.893,1.177-0.784l3.039,0.607c0.512,0.102,0.84,0.581,0.784,1.092V30l-12-2l-12,2v4  c-0.108-0.542,0.243-1.068,0.784-1.177l3.039-0.607C24.365,32.107,24.892,32.458,25,33s-0.243,1.068-0.784,1.177l-3.039,0.607  C20.635,34.893,20.108,34.542,20,34v5.614l-4.673-10.125c-0.231-0.502-0.825-0.721-1.326-0.489H14  c-0.501,0.231-0.721,0.825-0.489,1.327l5.162,11.184C18.904,42.012,19.498,42.231,20,42c0,0,0,0,0,0  c1.259,0.944,2.604,1.712,4,2.322v2.428c0,1.9-1.33,3.53-3.18,3.92l-7.43,1.57l-2.2,0.46c-1.91,0.4-3.65,1.3-5.07,2.56  C4.71,56.52,3.62,58.14,3,60v2h58v-2c-0.62-1.86-1.71-3.48-3.12-4.74c-1.42-1.26-3.16-2.16-5.07-2.56l-2.2-0.46l-7.43-1.57  C41.33,50.28,40,48.65,40,46.75v-2.428c1.396-0.61,2.741-1.378,4-2.322v0c0,0,0,0,0,0c0.501,0.231,1.095,0.013,1.327-0.489  L50,31.388V35C50,41.08,54.92,46,61,46z M20.784,39.177C20.242,39.068,19.891,38.541,20,38c0.108-0.542,0.635-0.893,1.177-0.784  l3.039,0.607C24.757,37.931,25.108,38.458,25,39c-0.109,0.541-0.635,0.892-1.177,0.784L20.784,39.177z M42.77,52.52l3.3,0.69  c-3.73,2.32-8.79,3.68-14.07,3.68s-10.34-1.36-14.07-3.68l3.3-0.69C24,51.93,26,49.46,26,46.64v-1.569c3.903,1.227,8.097,1.227,12,0  v1.569C38,49.46,40,51.93,42.77,52.52z" style="fill:#3A4249;"/><path d="M45.4,29.8l4.8-6.4c0.331-0.442,0.242-1.068-0.2-1.4c-0.441-0.332-1.068-0.242-1.4,0.2l-4.8,6.4  c-0.331,0.442-0.242,1.068,0.2,1.4C44.441,30.332,45.068,30.242,45.4,29.8z" style="fill:#3A4249;"/></svg>