<?xml version="1.0" ?><svg id="_x31_-outline-expand" style="enable-background:new 0 0 64 64;" version="1.1" viewBox="0 0 64 64" xml:space="preserve" xmlns="http://www.w3.org/2000/svg" xmlns:xlink="http://www.w3.org/1999/xlink"><path d="M39.428,14.134l-1.809-1.045C37.861,12.438,38,11.736,38,11s-0.139-1.438-0.382-2.089l1.809-1.045  l0.5,0.866l1.732-1l-2-3.464l-1.732,1l0.5,0.866l-1.805,1.042C35.724,6.091,34.449,5.334,33,5.09V3h1V1h-4v2h1v2.09  c-1.449,0.244-2.724,1.001-3.623,2.086l-1.805-1.042l0.5-0.866l-1.732-1l-2,3.464l1.732,1l0.5-0.866l1.809,1.045  C26.139,9.562,26,10.264,26,11s0.139,1.438,0.382,2.089l-1.809,1.045l-0.5-0.866l-1.732,1l2,3.464l1.732-1l-0.5-0.866l1.805-1.042  c0.899,1.085,2.174,1.842,3.623,2.086V19h-1v2h4v-2h-1v-2.09c1.449-0.244,2.724-1.001,3.623-2.086l1.805,1.042l-0.5,0.866l1.732,1  l2-3.464l-1.732-1L39.428,14.134z M32,15c-2.209,0-4-1.791-4-4s1.791-4,4-4s4,1.791,4,4S34.209,15,32,15z" style="fill:#3A4249;"/><path d="M30,35L30,35c0-2.209-1.791-4-4-4v11c0,0-5,1-10-2s-6-8-6-8s-7,4-7,16c0,0,5-1,8,1  c2.631,1.754,4,5,4,8c2-3,4-4,8-4c6,0,9,5,9,9c0-4,3-9,9-9c4,0,6,1,8,4c0-3,1.369-6.246,4-8c3-2,8-1,8-1c0-12-7-16-7-16s-1,5-6,8  s-10,2-10,2V31c-2.209,0-4,1.791-4,4H30z" style="fill:#3A4249;"/><rect height="2" style="fill:#3A4249;" width="2" x="40" y="10"/><rect height="2" style="fill:#3A4249;" width="2" x="44" y="10"/><rect height="2" style="fill:#3A4249;" width="2" x="48" y="10"/><rect height="2" style="fill:#3A4249;" width="2" x="48" y="14"/><rect height="2" style="fill:#3A4249;" width="2" x="48" y="18"/><rect height="2" style="fill:#3A4249;" width="2" x="48" y="22"/><rect height="2" style="fill:#3A4249;" width="2" x="48" y="26"/><rect height="2" style="fill:#3A4249;" width="2" x="48" y="30"/><rect height="2" style="fill:#3A4249;" width="2" x="48" y="34"/><rect height="2" style="fill:#3A4249;" width="2" x="22" y="10"/><rect height="2" style="fill:#3A4249;" width="2" x="18" y="10"/><rect height="2" style="fill:#3A4249;" width="2" x="14" y="10"/><rect height="2" style="fill:#3A4249;" width="2" x="14" y="14"/><rect height="2" style="fill:#3A4249;" width="2" x="14" y="18"/><rect height="2" style="fill:#3A4249;" width="2" x="14" y="22"/><rect height="2" style="fill:#3A4249;" width="2" x="14" y="26"/><rect height="2" style="fill:#3A4249;" width="2" x="14" y="30"/><rect height="2" style="fill:#3A4249;" width="2" x="14" y="34"/></svg>