<?xml version="1.0" ?><svg id="_x31_-outline-expand" style="enable-background:new 0 0 64 64;" version="1.1" viewBox="0 0 64 64" xml:space="preserve" xmlns="http://www.w3.org/2000/svg" xmlns:xlink="http://www.w3.org/1999/xlink"><path d="M32,1C14.879,1,1,14.879,1,32c0,17.121,13.879,31,31,31s31-13.879,31-31C63,14.879,49.121,1,32,1z   M32,59C17.088,59,5,46.912,5,32c0-6.736,2.472-12.891,6.552-17.62L49.62,52.448C44.89,56.527,38.736,59,32,59z M52.448,49.62  L47.828,45H52v-3c0-2.209-1.791-4-4-4h-1h-1c-1.405,0-2.635,0.727-3.349,1.823l-3.166-3.166C39.805,36.182,40,35.617,40,35  c0-1.657-1.343-3-3-3c-0.617,0-1.183,0.195-1.657,0.515L34.828,32H37h5h5h5v-3c0-2.209-1.791-4-4-4h-1h-1c-2.209,0-4,1.791-4,4  c0-2.209-1.791-4-4-4h-1h-1c-2.209,0-4,1.791-4,4c0-2.209-1.791-4-4-4h-0.172L27.728,24.9C29.031,24.573,30,23.404,30,22  c0-1.657-1.343-3-3-3c-1.404,0-2.574,0.969-2.901,2.271l-9.719-9.719C19.109,7.473,25.263,5,32,5c14.912,0,27,12.088,27,27  C59,38.736,56.527,44.891,52.448,49.62z" style="fill:#3A4249;"/><path d="M26.343,32l-4.154-4.154C22.078,28.213,22,28.596,22,29c0-0.641-0.165-1.239-0.433-1.776l-1.79-1.79  C19.239,25.164,18.641,25,18,25h-1h-1c-2.209,0-4,1.791-4,4v3h5h5H26.343z" style="fill:#3A4249;"/><path d="M14.581,20.238C14.22,20.734,14,21.339,14,22c0,1.657,1.343,3,3,3c0.661,0,1.266-0.22,1.761-0.582  L14.581,20.238z" style="fill:#3A4249;"/><circle cx="17" cy="35" r="3" style="fill:#3A4249;"/><path d="M32,45h7.343l-5.983-5.983C32.532,39.749,32,40.807,32,42c0-2.209-1.791-4-4-4h-1h-1  c-2.209,0-4,1.791-4,4c0-2.209-1.791-4-4-4h-1h-1c-2.209,0-4,1.791-4,4v3h10H32z" style="fill:#3A4249;"/><path d="M29.94,35.596l-3.537-3.537C25.032,32.336,24,33.547,24,35c0,1.657,1.343,3,3,3  C28.452,38,29.663,36.967,29.94,35.596z" style="fill:#3A4249;"/><circle cx="37" cy="22" r="3" style="fill:#3A4249;"/><circle cx="47" cy="22" r="3" style="fill:#3A4249;"/><circle cx="47" cy="35" r="3" style="fill:#3A4249;"/></svg>