<?xml version="1.0" ?><svg id="_x31_-outline-expand" style="enable-background:new 0 0 64 64;" version="1.1" viewBox="0 0 64 64" xml:space="preserve" xmlns="http://www.w3.org/2000/svg" xmlns:xlink="http://www.w3.org/1999/xlink"><path d="M44,49h18V25H50V14c-3.313,0-6,2.687-6,6V49z" style="fill:#3A4249;"/><path d="M8,28c0,1.657-1.343,3-3,3s-3-1.343-3-3c0-1.657,1.343-3,3-3S8,26.343,8,28L8,28z" style="fill:#3A4249;"/><path d="M8,34c0,1.657-1.343,3-3,3s-3-1.343-3-3s1.343-3,3-3S8,32.342,8,34L8,34z" style="fill:#3A4249;"/><path d="M8,40c0,1.657-1.343,3-3,3s-3-1.343-3-3s1.343-3,3-3S8,38.342,8,40L8,40z" style="fill:#3A4249;"/><path d="M8,46c0,1.657-1.343,3-3,3s-3-1.343-3-3s1.343-3,3-3S8,44.342,8,46L8,46z" style="fill:#3A4249;"/><path d="M42,8H8V6c0-2.209,1.791-4,4-4h26c2.209,0,4,1.791,4,4V8z" style="fill:#3A4249;"/><path d="M8,56h34v2c0,2.209-1.791,4-4,4H12c-2.209,0-4-1.791-4-4V56z" style="fill:#3A4249;"/><path d="M8,10v44h34V10H8z M25,21.999h10v2H25V21.999z M38,28v8H28v-8H38z M12,15h10v8H12V15z M11,26.999h14  v2H11V26.999z M11,30.999h14v2H11V30.999z M11,34.999h14v2H11V34.999z M22,49H12v-8h10V49z M27,49.999h-2v-2h2V49.999z M31,49.999  h-2v-2h2V49.999z M35,49.999h-2v-2h2V49.999z M39,49.999h-2v-2h2V49.999z M39,45.999H25v-2h14V45.999z M39,41.999H25v-2h14V41.999z   M39,23.999h-2v-2h2V23.999z M39,19.999H25v-2h14V19.999z M39,15.999H25v-2h14V15.999z" style="fill:#3A4249;"/></svg>