<?xml version="1.0" ?><svg id="_x31_-outline-expand" style="enable-background:new 0 0 64 64;" version="1.1" viewBox="0 0 64 64" xml:space="preserve" xmlns="http://www.w3.org/2000/svg" xmlns:xlink="http://www.w3.org/1999/xlink"><path d="M17,20c0-2.762-2.238-5-5-5c-2.762,0-5,2.238-5,5c0,2.762,2.238,5,5,5C14.762,25,17,22.762,17,20  L17,20z" style="fill:#3A4249;"/><path d="M17,25H7c-2.209,0-4,1.791-4,4v7h4v13h10V36h4v-7C21,26.791,19.209,25,17,25L17,25z" style="fill:#3A4249;"/><path d="M57,20c0-2.762-2.238-5-5-5c-2.762,0-5,2.238-5,5c0,2.762,2.238,5,5,5C54.762,25,57,22.762,57,20  L57,20z" style="fill:#3A4249;"/><path d="M57,25H47c-2.209,0-4,1.791-4,4v7h4v13h10V36h4v-7C61,26.791,59.209,25,57,25L57,25z" style="fill:#3A4249;"/><path d="M11,6.999v5h2v-5c0-1.654,1.346-3,3-3h7v-2h-7C13.243,1.999,11,4.242,11,6.999z" style="fill:#3A4249;"/><path d="M55.293,6.292L53,8.585V6.999c0-2.757-2.243-5-5-5H25v2h23c1.654,0,3,1.346,3,3v1.586l-2.293-2.293  l-1.414,1.414L52,12.413l4.707-4.707L55.293,6.292z" style="fill:#3A4249;"/><path d="M13,56.999v-1.586l2.293,2.293l1.414-1.414L12,51.585l-4.707,4.707l1.414,1.414L11,55.413v1.586  c0,2.757,2.243,5,5,5h19v-2H16C14.346,59.999,13,58.653,13,56.999z" style="fill:#3A4249;"/><rect height="2" style="fill:#3A4249;" width="2" x="37" y="59.999"/><path d="M51,51.999v5c0,1.654-1.346,3-3,3h-7v2h7c2.757,0,5-2.243,5-5v-5H51z" style="fill:#3A4249;"/></svg>