<?xml version="1.0" ?><svg id="_x31_-outline-expand" style="enable-background:new 0 0 64 64;" version="1.1" viewBox="0 0 64 64" xml:space="preserve" xmlns="http://www.w3.org/2000/svg" xmlns:xlink="http://www.w3.org/1999/xlink"><circle cx="8" cy="17" r="3" style="fill:#3A4249;"/><circle cx="5" cy="8" r="2" style="fill:#3A4249;"/><path d="M17,12c1.657,0,3-0.791,3-3s-3-6-3-6s-3,3.791-3,6S15.343,12,17,12z" style="fill:#3A4249;"/><path d="M26,16c1.657,0,3-0.791,3-3s-3-6-3-6s-3,3.791-3,6S24.343,16,26,16z" style="fill:#3A4249;"/><path d="M45,19v-1l-5.38-5.38c-0.4-0.4-0.94-0.62-1.5-0.62c-0.58,0-1.12,0.24-1.5,0.62S36,13.54,36,14.12  c0,0.56,0.22,1.1,0.62,1.5L39,18v1H25c-1.1,0-2,0.9-2,2c0,0.55,0.22,1.05,0.59,1.41C23.95,22.78,24.45,23,25,23h-2c-1.1,0-2,0.9-2,2  c0,0.55,0.22,1.05,0.59,1.41C21.95,26.78,22.45,27,23,27h2c-0.735,0-1.373,0.406-1.721,1h2.892C25.417,27.227,25,26.206,25,25.12  c0-1.087,0.44-2.149,1.207-2.915c0.465-0.465,1.045-0.792,1.668-0.99l0,0c0.192-0.061,0.388-0.111,0.586-0.149  C28.679,21.03,28.899,21,29.121,21c1.102,0,2.137,0.429,2.914,1.206L37.829,28H62v-9H45z" style="fill:#3A4249;"/><path d="M36,29l-5.38-5.38c-0.4-0.4-0.94-0.62-1.5-0.62c-0.58,0-1.12,0.24-1.5,0.62S27,24.54,27,25.12  c0,0.56,0.22,1.1,0.62,1.5L30,29v1H16c-1.1,0-2,0.9-2,2c0,0.55,0.22,1.05,0.59,1.41C14.95,33.78,15.45,34,16,34c0-0.552,0.448-1,1-1  h11c0.552,0,1,0.448,1,1c0,0.552-0.448,1-1,1H17c-0.552,0-1-0.448-1-1h-2c-1.1,0-2,0.9-2,2c0,0.55,0.22,1.05,0.59,1.41  C12.95,37.78,13.45,38,14,38h2c0-0.552,0.448-1,1-1h11c0.552,0,1,0.448,1,1c0,0.552-0.448,1-1,1H17c-0.552,0-1-0.448-1-1  c-1.1,0-2,0.9-2,2c0,0.55,0.22,1.05,0.59,1.41C14.95,41.78,15.45,42,16,42h2c0-0.552,0.448-1,1-1h9c0.552,0,1,0.448,1,1  c0,0.552-0.448,1-1,1h-9c-0.552,0-1-0.448-1-1c-1.1,0-2,0.9-2,2c0,0.55,0.22,1.05,0.59,1.41C16.95,45.78,17.45,46,18,46h44V30H36V29  z" style="fill:#3A4249;"/><path d="M15.156,46.805C14.425,46.093,14,45.083,14,44c0-0.175,0.011-0.347,0.033-0.516  c-0.319-0.182-0.614-0.409-0.877-0.68C12.425,42.093,12,41.083,12,40c0-0.175,0.011-0.347,0.033-0.516  c-0.319-0.182-0.614-0.409-0.877-0.68C10.425,38.093,10,37.083,10,36c0-1.491,0.82-2.794,2.033-3.482C12.012,32.348,12,32.175,12,32  c0-2.206,1.794-4,4-4h4.389c-0.076-0.067-0.161-0.122-0.233-0.195C19.425,27.093,19,26.083,19,25c0-1.491,0.82-2.794,2.033-3.482  C21.012,21.348,21,21.175,21,21c0-0.637,0.163-1.231,0.429-1.767c-2.329,0.635-4.102,2.616-4.386,5.072  C16.397,24.107,15.711,24,15,24c-3.866,0-7,3.134-7,7c0,1.494,0.472,2.877,1.27,4.014C9.18,35.01,9.091,35,9,35  c-3.313,0-6,2.687-6,6s2.687,6,6,6c0.715,0,1.398-0.132,2.035-0.361C11.354,49.652,13.902,52,17,52c1.539,0,2.938-0.584,4-1.537V55  c0,1.104,0.896,2,2,2s2-0.896,2-2v-3c0-1.104,0.896-2,2-2s2,0.896,2,2v7c0,1.104,0.896,2,2,2s2-0.896,2-2v-9.022  C33.838,50.61,34.869,51,36,51c2.049,0,3.806-1.235,4.578-3H18C16.916,48,15.906,47.575,15.156,46.805z" style="fill:#3A4249;"/></svg>