<?xml version="1.0" ?><svg id="_x31_-outline-expand" style="enable-background:new 0 0 64 64;" version="1.1" viewBox="0 0 64 64" xml:space="preserve" xmlns="http://www.w3.org/2000/svg" xmlns:xlink="http://www.w3.org/1999/xlink"><path d="M60,2c-1.104,0-2,0.896-2,2v0.999H48v2h10v2H48v2h10v2H48v2h9.936c-0.047,0.672-0.118,1.339-0.222,2  H47v2h10.305c-0.167,0.676-0.362,1.344-0.588,2H46v2h9.928c-0.308,0.683-0.653,1.349-1.025,2H43v2h10.618  c-0.496,0.693-1.03,1.361-1.603,2H40v2h10c0,0,0,0-0.001,0c-0.717,0.627-1.386,1.298-2.015,2H36v2h10.382  c-0.462,0.646-0.892,1.313-1.285,2H34v2h10.072c-0.295,0.653-0.555,1.322-0.789,2H32v2h10.695c-0.163,0.659-0.303,1.326-0.409,2H32  v2h10.064C42.026,47.54,42,48.083,42,48.63v0.37H32v2h10v2H32v2h10v2H32v2h10V60c0,1.104,0.896,2,2,2s2-0.896,2-2v-9.37  c0-6.755,2.916-13.182,8-17.63s8-10.875,8-17.63V4C62,2.896,61.104,2,60,2z" style="fill:#3A4249;"/><path d="M20,2c-1.104,0-2,0.896-2,2v2.999H6V4c0-1.104-0.896-2-2-2S2,2.896,2,4v11.37  C2,21.635,4.512,27.616,8.933,32C4.512,36.383,2,42.364,2,48.63V60c0,1.104,0.896,2,2,2s2-0.896,2-2v-3.001h12V60  c0,1.104,0.896,2,2,2s2-0.896,2-2V48.63c0-6.266-2.512-12.246-6.933-16.63C19.488,27.616,22,21.635,22,15.37V4  C22,2.896,21.104,2,20,2z M7.283,42.999c0.234-0.678,0.494-1.347,0.789-2h7.855c0.295,0.653,0.555,1.322,0.789,2H7.283z   M17.305,44.999c0.163,0.659,0.303,1.326,0.409,2H6.286c0.106-0.674,0.246-1.341,0.409-2H17.305z M9.098,38.999  c0.819-1.431,1.79-2.778,2.902-4.017c1.113,1.239,2.084,2.586,2.902,4.017H9.098z M12,29.017c-1.113-1.239-2.084-2.587-2.903-4.018  h5.806C14.084,26.43,13.113,27.777,12,29.017z M8.072,22.999c-0.295-0.653-0.555-1.322-0.789-2h9.434  c-0.234,0.678-0.494,1.347-0.789,2H8.072z M6.695,18.999c-0.163-0.659-0.303-1.326-0.409-2h11.428c-0.106,0.674-0.246,1.341-0.409,2  H6.695z M18,54.999H6v-2h12V54.999z M18,50.999H6v-0.37c0-0.546,0.026-1.089,0.064-1.63h11.872C17.974,49.54,18,50.083,18,50.63  V50.999z M18,13.37c0,0.546-0.026,1.089-0.064,1.63H6.064C6.026,14.458,6,13.915,6,13.37v-0.37h12V13.37z M18,10.999H6v-2h12V10.999  z" style="fill:#3A4249;"/></svg>