<?xml version="1.0" ?><svg id="_x31_-outline-expand" style="enable-background:new 0 0 64 64;" version="1.1" viewBox="0 0 64 64" xml:space="preserve" xmlns="http://www.w3.org/2000/svg" xmlns:xlink="http://www.w3.org/1999/xlink"><path d="M9.452,20.62l-1.57-1.239c3.049-3.86,6.636-7.246,10.662-10.065l1.146,1.639  C15.824,13.661,12.379,16.913,9.452,20.62z" style="fill:#3A4249;"/><polygon points="49,2 62,2 57,11 60,11 49,22 51,12 48,12 " style="fill:#3A4249;"/><path d="M40.59,13.41C40.21,13.14,39.75,13,39.28,13C38.02,13,37,14.02,37,15.28V28c-2.209,0-4-1.791-4-4V2  h-4v22c0,2.209-1.791,4-4,4V15.28c0-1.26-1.02-2.28-2.28-2.28c-0.47,0-0.93,0.14-1.31,0.41c-5.546,3.887-10.074,8.9-13.357,14.61  C10.513,32.197,14.941,35,20,35c1.763,0,3.445-0.354,5-0.973V32c2.39,0,4.54-1.05,6-2.71c1.46,1.66,3.61,2.71,6,2.71v16.63  c0,0.916,0.312,1.788,0.859,2.484c8.822-2.319,15.888-9.002,18.754-17.591C53.355,25.523,47.858,18.503,40.59,13.41z" style="fill:#3A4249;"/><path d="M39.895,52.599L56.49,61.72C56.82,61.9,57.2,62,57.59,62h0.13c1.261,0,2.28-1.02,2.28-2.28v-9.03  c0-4.935-0.806-9.765-2.323-14.323C54.396,44.037,47.901,50.012,39.895,52.599z" style="fill:#3A4249;"/><path d="M3.533,39.043c-0.039,0.146-0.086,0.29-0.123,0.437C2.48,43.1,2,46.86,2,50.69v9.03  C2,60.98,3.02,62,4.28,62h0.13c0.39,0,0.77-0.1,1.1-0.28l7.98-4.39l0.432-0.238C9.245,53.567,5.505,47.085,3.533,39.043z" style="fill:#3A4249;"/><path d="M20,37c-5.374,0-10.127-2.756-13.03-6.959c-0.07,0.138-0.151,0.271-0.22,0.41  c-0.756,1.518-1.419,3.082-1.999,4.681c1.625,9.684,5.761,17.462,11.063,20.922l7.116-3.912c1.28-0.7,2.07-2.05,2.07-3.51V36.163  C23.425,36.7,21.747,37,20,37z" style="fill:#3A4249;"/></svg>