<?xml version="1.0" ?><svg id="_x31_-outline-expand" style="enable-background:new 0 0 64 64;" version="1.1" viewBox="0 0 64 64" xml:space="preserve" xmlns="http://www.w3.org/2000/svg" xmlns:xlink="http://www.w3.org/1999/xlink"><path d="M55,51H41v-5.171c5.699-3.079,9.632-8.989,9.955-15.829H52c2.209,0,4-1.791,4-4s-1.791-4-4-4h-2v-1  c0-8.836-7.163-16-16-16H18c-1.282,0-2.369-0.809-2.798-1.941c-3.212,0.428-5.623,3.389-5.14,6.813  c0.302,2.15,1.798,3.846,3.733,4.636C13.248,16.501,13,19.151,13,21.102V22h-1c-2.209,0-4,1.791-4,4s1.791,4,4,4h1.045  c0.322,6.841,4.256,12.751,9.955,15.829V51H9c-3.313,0-6,2.687-6,6v5h58v-5C61,53.687,58.313,51,55,51z M15,29.102v-8  c0-1.787,0.236-4.34,0.747-6.143C15.902,14.971,16.054,15,16.211,15H44v2c0,2.971,2.164,5.433,5,5.91v6.192c0,9.374-7.626,17-17,17  S15,38.476,15,29.102z M25,51v-4.251c2.169,0.864,4.527,1.353,7,1.353s4.831-0.489,7-1.353V51l-7,5L25,51z" style="fill:#3A4249;"/><path d="M32,35c-2.762,0-5,2.239-5,5h10C37,37.239,34.762,35,32,35z" style="fill:#3A4249;"/><polygon points="51,9 51,19 59,8 56,8 58,2 47,2 48,9 " style="fill:#3A4249;"/><polygon points="22.447,22.105 21.553,23.895 25.764,26 21.553,28.105 22.447,29.895 30.236,26 " style="fill:#3A4249;"/><polygon points="42.447,28.105 38.236,26 42.447,23.895 41.553,22.105 33.764,26 41.553,29.895 " style="fill:#3A4249;"/></svg>