<?xml version="1.0" ?><svg id="_x31_-outline-expand" style="enable-background:new 0 0 64 64;" version="1.1" viewBox="0 0 64 64" xml:space="preserve" xmlns="http://www.w3.org/2000/svg" xmlns:xlink="http://www.w3.org/1999/xlink"><path d="M14,21l-2-1l-2,1l-7-1v5l1,2c0-1.104,1.343-2,3-2c1.657,0,3,0.896,3,2s-1.343,2-3,2l5,2l5-2  c-1.657,0-3-0.896-3-2s1.343-2,3-2c1.657,0,3,0.896,3,2l1-2v-5L14,21z" style="fill:#3A4249;"/><path d="M9,58.5c0-3.033,2.468-5.5,5.5-5.5c0.827,0,1.5-0.673,1.5-1.5V43h-6v8.5c0,1.933-1.567,3.5-3.5,3.5  C4.567,55,3,56.567,3,58.5V61h6V58.5z" style="fill:#3A4249;"/><path d="M21,61h5v-5C23.243,56,21,58.243,21,61z" style="fill:#3A4249;"/><path d="M18,43v8.5c0,1.933-1.567,3.5-3.5,3.5c-1.933,0-3.5,1.567-3.5,3.5V61h8c0-3.86,3.141-7,7-7V43H18z" style="fill:#3A4249;"/><path d="M10.849,38.069c-0.232-0.811-0.42-1.647-0.558-2.486l1.975-0.322  c0.124,0.762,0.294,1.521,0.505,2.257L10.849,38.069z" style="fill:#3A4249;"/><path d="M32.88,53.982l-0.076-1.999c0.668-0.025,1.344-0.086,2.01-0.18l0.279,1.98  C34.359,53.887,33.615,53.954,32.88,53.982z M30.66,53.96c-0.737-0.044-1.48-0.127-2.207-0.245l0.32-1.975  c0.661,0.107,1.337,0.183,2.008,0.223L30.66,53.96z" style="fill:#3A4249;"/><path d="M26.282,12.829l-0.57-1.917c0.737-0.219,1.495-0.402,2.254-0.543l0.365,1.967  C27.642,12.464,26.952,12.63,26.282,12.829z M36.704,12.556c-0.682-0.164-1.379-0.293-2.073-0.384l0.262-1.982  c0.762,0.1,1.529,0.242,2.278,0.422L36.704,12.556z M30.42,12.062l-0.156-1.994c0.768-0.06,1.549-0.081,2.317-0.06l-0.053,1.999  C31.821,11.989,31.114,12.007,30.42,12.062z" style="fill:#3A4249;"/><path d="M18,17H6c-1.657,0-3-1.343-3-3h18C21,15.657,19.657,17,18,17L18,17z" style="fill:#3A4249;"/><path d="M55,17h-2V9c0-3.313-2.687-6-6-6s-6,2.687-6,6v8h-2c-3.313,0-6,2.687-6,6v13l2,2h2V24h2v6h7V17h2v13  h7v-6h2v14h2l2-2V23C61,19.687,58.313,17,55,17z M50,14h-6V9c0-1.657,1.343-3,3-3s3,1.343,3,3V14z" style="fill:#3A4249;"/><rect height="4" style="fill:#3A4249;" width="7" x="39" y="32"/><rect height="4" style="fill:#3A4249;" width="7" x="48" y="32"/><path d="M13,4.061V2h-2v2.061C11.329,4.024,11.661,4,12,4S12.671,4.024,13,4.061z" style="fill:#3A4249;"/><path d="M13,4.061V5h-2V4.061C6.83,4.522,3.52,7.829,3.059,12h17.883C20.48,7.829,17.17,4.522,13,4.061z" style="fill:#3A4249;"/><polygon points="46,38 39,38 39,60 41,61 45,61 46,60.5 " style="fill:#3A4249;"/><polygon points="48,38 48,60.5 49,61 53,61 55,60 55,38 " style="fill:#3A4249;"/></svg>