<?xml version="1.0" ?><svg id="_x31_-outline-expand" style="enable-background:new 0 0 64 64;" version="1.1" viewBox="0 0 64 64" xml:space="preserve" xmlns="http://www.w3.org/2000/svg" xmlns:xlink="http://www.w3.org/1999/xlink"><path d="M32,1C14.879,1,1,14.879,1,32c0,17.121,13.879,31,31,31s31-13.879,31-31C63,14.879,49.121,1,32,1z   M32,59C17.088,59,5,46.912,5,32c0-6.736,2.472-12.891,6.552-17.62L49.62,52.448C44.89,56.527,38.736,59,32,59z M52.448,49.62  l-6.721-6.721c0.797-0.087,1.579-0.225,2.336-0.424C51.568,41.548,54,38.362,54,34.737v-1.119c-2.151,3.239-5.828,5.381-10,5.381  h-2.173l-2-2H44c5.522,0,10-4.478,10-10c0-5.522-4.478-10-10-10H22c-0.681,0-1.345,0.066-1.994,0.178l-5.626-5.626  C19.109,7.473,25.263,5,32,5c14.912,0,27,12.088,27,27C59,38.736,56.527,44.891,52.448,49.62z" style="fill:#3A4249;"/><path d="M26.5,42.999H22c-5.096,0-9.551-2.746-12-6.826v1.982c0,3.024,1.669,5.862,4.404,7.149  C16.712,46.391,19.284,47,22,47h4.5c3.273,0,6.408-1.486,8.485-4h2.358l-3.816-3.816c-0.559,0.194-1.065,0.533-1.426,1.015  C30.786,41.952,28.692,42.999,26.5,42.999z" style="fill:#3A4249;"/><path d="M22,41h4.5c1.574,0,3.056-0.741,4-2c0.413-0.551,0.933-0.995,1.514-1.329L14.218,19.875  C11.64,22.076,10,25.344,10,29C10,35.626,15.373,41,22,41z M19,27c1.104,0,2,0.896,2,2s-0.896,2-2,2s-2-0.896-2-2S17.896,27,19,27z" style="fill:#3A4249;"/></svg>