<?xml version="1.0" ?><svg id="_x31_-outline-expand" style="enable-background:new 0 0 64 64;" version="1.1" viewBox="0 0 64 64" xml:space="preserve" xmlns="http://www.w3.org/2000/svg" xmlns:xlink="http://www.w3.org/1999/xlink"><rect height="4" style="fill:#3A4249;" width="2" x="56" y="58"/><path d="M58,56h-2v-6c0-7.168-5.832-13-13-13h-1v-2h1c8.271,0,15,6.729,15,15V56z" style="fill:#3A4249;"/><rect height="7" style="fill:#3A4249;" width="2" x="52" y="55"/><path d="M54,53h-2v-3c0-4.962-4.038-9-9-9h-1v-2h1c6.065,0,11,4.935,11,11V53z" style="fill:#3A4249;"/><path d="M50,62h-2V50c0-2.757-2.243-5-5-5h-1v-2h1c3.86,0,7,3.14,7,7V62z" style="fill:#3A4249;"/><polygon points="36.707,20.707 35.293,19.293 33.5,21.086 31.707,19.293 30.293,20.707 32.086,22.5   30.293,24.293 31.707,25.707 33.5,23.914 35.293,25.707 36.707,24.293 34.914,22.5 " style="fill:#3A4249;"/><path d="M41,20c0-3.169-0.825-6.143-2.263-8.729C42.407,9.79,45,6.201,45,2H23C13.059,2,5,10.059,5,20v13  l2,14v15h19V49h14v-6h-4c-1.657,0-3-1.343-3-3s1.343-3,3-3h4v-4h6L41,20z M38,31v4h-2c-2.757,0-5,2.243-5,5s2.243,5,5,5h2v2H24v13H9  V46.858L7.02,32.999C11.429,32.988,15,29.411,15,25c-2.209,0-4-1.791-4-4s1.791-4,4-4v-5h20c0.594,0,1.172-0.062,1.737-0.161  C38.164,14.232,39,17.017,39,20v0.372L43.088,31H38z" style="fill:#3A4249;"/></svg>