<?xml version="1.0" ?><svg id="_x31_-outline-expand" style="enable-background:new 0 0 64 64;" version="1.1" viewBox="0 0 64 64" xml:space="preserve" xmlns="http://www.w3.org/2000/svg" xmlns:xlink="http://www.w3.org/1999/xlink"><path d="M1,11v42h62V11H1z M22.169,16.568L23,14.884l0.831,1.684l1.859,0.27l-1.345,1.311L24.663,20  L23,19.126L21.337,20l0.318-1.851l-1.345-1.311L22.169,16.568z M16.326,35L12,32.725L7.674,35L8.5,30.182L5,26.771l4.837-0.703  L12,21.685l2.163,4.383L19,26.771l-3.5,3.411L16.326,35z M24.663,43.116L23,42.242l-1.663,0.874l0.318-1.85l-1.345-1.312  l1.859-0.269L23,38l0.831,1.685l1.859,0.269l-1.345,1.312L24.663,43.116z M29.353,35.233l-1.663-0.874l-1.663,0.874l0.318-1.851  L25,32.071l1.859-0.27l0.831-1.685l0.832,1.685l1.858,0.27l-1.345,1.311L29.353,35.233z M29.035,25.266l0.318,1.85l-1.663-0.874  l-1.663,0.874l0.318-1.85L25,23.954l1.859-0.269L27.69,22l0.832,1.685l1.858,0.269L29.035,25.266z" style="fill:#3A4249;"/></svg>