<?xml version="1.0" ?><svg id="_x31_-outline-expand" style="enable-background:new 0 0 64 64;" version="1.1" viewBox="0 0 64 64" xml:space="preserve" xmlns="http://www.w3.org/2000/svg" xmlns:xlink="http://www.w3.org/1999/xlink"><path d="M20.152,41.47c0.068-0.108,0.639-1.006,1.646-2.271L17,38l-3-4v-2h3l2-3l1.634-4.085  c-2.03,0.505-3.213,0.993-3.241,1.004l-0.787-1.838c0.123-0.053,1.421-0.592,3.604-1.134L18,20l-2-6l-5,6H4l-1,2v4h4l4,13l5,5v11  l3-1l6-14l-1.043-0.261c-1.342,1.587-2.09,2.761-2.109,2.791L20.152,41.47z" style="fill:#3A4249;"/><path d="M61,24v-3l-10-5h-3l-4.067,2.218c3.567,3.637,5.305,8.249,5.841,9.897  c0.871,0.166,2.499,0.559,4.226,1.373V26L61,24z" style="fill:#3A4249;"/><path d="M48.755,29.97c-0.053-0.013-5.636-1.321-14.404,1.967c-2.627,0.985-4.917,2.548-6.803,4.173L32,37v4  l2,3h2l2-6v-4h3l2,3l3-3l1,2v3l8,2l-3-4l-1-3l2.514-2.514c-2.321-1.183-4.597-1.489-4.638-1.494L48.755,29.97z" style="fill:#3A4249;"/><path d="M46.84,26.143c-0.938-2.055-2.48-4.745-4.75-6.919L37,22l-3-2h-3v1.817  c0.999,0.026,2.028,0.081,3.1,0.188C40.07,22.602,44.298,24.565,46.84,26.143z" style="fill:#3A4249;"/><path d="M26,28l4,2l-5,3l1.122,1.683c2.056-1.784,4.585-3.516,7.527-4.619  c5.088-1.907,9.16-2.364,11.868-2.371c-2.373-1.421-6.255-3.161-11.616-3.697c-1.19-0.119-2.337-0.179-3.435-0.194L29,26L26,28z" style="fill:#3A4249;"/><path d="M55.218,46.377c0.013-0.017,0.421-0.539,0.937-1.377H53l-3,2v3l4-1l5,2v-3l-1.216-1.824  c-0.527,0.84-0.945,1.377-1.002,1.448L55.218,46.377z" style="fill:#3A4249;"/><path d="M24.196,14.98l-0.393-1.961c0.189-0.038,2.288-0.44,5.196-0.422V10h-6h-3v5l2,1l3,5l4-6v-0.385  C26.232,14.594,24.24,14.972,24.196,14.98z" style="fill:#3A4249;"/><path d="M53.514,31.486c1.859,0.947,3.746,2.455,4.537,4.83c1.05,3.151-0.713,6.761-1.897,8.684H57  l0.784,1.176c1.37-2.182,3.503-6.477,2.165-10.492c-1.065-3.196-3.599-5.088-5.949-6.195V31L53.514,31.486z" style="fill:#3A4249;"/><path d="M41.581,16.186C37.542,13.3,32.637,12.62,29,12.598v2.017c3.344,0.024,7.824,0.632,11.419,3.199  c0.602,0.43,1.149,0.911,1.671,1.41l1.844-1.006C43.222,17.493,42.444,16.802,41.581,16.186z" style="fill:#3A4249;"/><path d="M26.122,34.683c-1.849,1.604-3.311,3.246-4.324,4.517l2.159,0.54c0.924-1.093,2.136-2.377,3.591-3.63  L27,36L26.122,34.683z" style="fill:#3A4249;"/><path d="M20.634,24.915c2.306-0.573,5.709-1.168,9.832-1.114L31,23v-1.183  c-4.534-0.119-8.262,0.503-10.79,1.13L21,24L20.634,24.915z" style="fill:#3A4249;"/></svg>