<?xml version="1.0" ?><svg id="_x31_-outline-expand" style="enable-background:new 0 0 64 64;" version="1.1" viewBox="0 0 64 64" xml:space="preserve" xmlns="http://www.w3.org/2000/svg" xmlns:xlink="http://www.w3.org/1999/xlink"><path d="M24,29v-5h3v-7H9v7h3v5c-4.971,0-9,4.029-9,9v24h30V38C33,33.029,28.971,29,24,29z M24,46  c0,0.736-0.139,1.438-0.382,2.089l1.809,1.045l0.5-0.866l1.732,1l-2,3.464l-1.732-1l0.5-0.866l-1.805-1.042  c-0.899,1.085-2.174,1.842-3.623,2.086V54h1v2h-4v-2h1v-2.09c-1.449-0.244-2.724-1.001-3.623-2.086l-1.805,1.042l0.5,0.866l-1.732,1  l-2-3.464l1.732-1l0.5,0.866l1.809-1.045C12.139,47.438,12,46.736,12,46s0.139-1.438,0.382-2.089l-1.809-1.045l-0.5,0.866l-1.732-1  l2-3.464l1.732,1l-0.5,0.866l1.805,1.042c0.899-1.085,2.174-1.842,3.623-2.086V38h-1v-2h4v2h-1v2.09  c1.449,0.244,2.724,1.001,3.623,2.086l1.805-1.042l-0.5-0.866l1.732-1l2,3.464l-1.732,1l-0.5-0.866l-1.809,1.045  C23.861,44.562,24,45.264,24,46z" style="fill:#3A4249;"/><circle cx="18" cy="46" r="4" style="fill:#3A4249;"/><polygon points="58,60 58,54 60,54 60,50 55,50 55,48 60,48 60,46 57,46 57,44 60,44 60,42 57,42 57,40   60,40 60,38 55,38 55,36 60,36 60,34 57,34 57,32 60,32 60,30 57,30 57,28 60,28 60,23 57,23 57,15 56,15 56,2 54,2 54,15 53,15   53,23 50,23 50,54 52,54 52,60 48,60 48,62 62,62 62,60 " style="fill:#3A4249;"/><path d="M20.827,11.366L19.94,9.573c-0.646,0.32-1.287,0.672-1.906,1.048l1.039,1.709  C19.643,11.984,20.232,11.66,20.827,11.366z" style="fill:#3A4249;"/><path d="M41.028,9.093c-0.662-0.29-1.346-0.555-2.031-0.786l-0.639,1.896c0.63,0.212,1.258,0.456,1.867,0.723  L41.028,9.093z" style="fill:#3A4249;"/><path d="M51.116,17.156c-0.426-0.578-0.886-1.147-1.367-1.693l-1.5,1.324  c0.443,0.501,0.866,1.025,1.258,1.556L51.116,17.156z" style="fill:#3A4249;"/><path d="M24.555,9.916l-0.56-1.92c-0.693,0.202-1.387,0.437-2.062,0.7l0.725,1.864  C23.279,10.318,23.917,10.101,24.555,9.916z" style="fill:#3A4249;"/><path d="M36.905,7.702c-0.702-0.17-1.421-0.312-2.138-0.42L34.469,9.26c0.658,0.1,1.32,0.229,1.966,0.386  L36.905,7.702z" style="fill:#3A4249;"/><path d="M31,9c0.496,0,0.989,0.016,1.477,0.047l0.127-1.996c-0.716-0.045-1.449-0.061-2.173-0.044l0.043,2  L31,9z" style="fill:#3A4249;"/><path d="M28.476,9.137l-0.215-1.988c-0.719,0.078-1.443,0.189-2.152,0.33l0.389,1.962  C27.149,9.311,27.815,9.209,28.476,9.137z" style="fill:#3A4249;"/><path d="M48.241,13.896c-0.519-0.496-1.07-0.978-1.64-1.433l-1.248,1.562c0.523,0.418,1.03,0.861,1.507,1.316  L48.241,13.896z" style="fill:#3A4249;"/><path d="M17.408,13.443l-1.184-1.611c-0.585,0.429-1.155,0.888-1.696,1.362l1.318,1.504  C16.345,14.261,16.87,13.839,17.408,13.443z" style="fill:#3A4249;"/><path d="M44.845,11.18c-0.602-0.401-1.229-0.78-1.862-1.127l-0.959,1.755  c0.582,0.319,1.158,0.667,1.712,1.036L44.845,11.18z" style="fill:#3A4249;"/><path d="M42.265,52.058l0.98,1.743c0.618-0.348,1.23-0.727,1.818-1.128l-1.127-1.652  C43.396,51.39,42.834,51.738,42.265,52.058z" style="fill:#3A4249;"/><path d="M38.687,53.685l0.668,1.885c0.666-0.236,1.334-0.505,1.983-0.8l-0.828-1.821  C39.912,53.22,39.299,53.468,38.687,53.685z" style="fill:#3A4249;"/><path d="M46.985,48.537c-0.47,0.455-0.966,0.895-1.473,1.307l1.264,1.551c0.55-0.448,1.088-0.926,1.6-1.419  L46.985,48.537z" style="fill:#3A4249;"/><path d="M34.882,54.675l0.334,1.972c0.701-0.119,1.405-0.27,2.093-0.449l-0.504-1.936  C36.173,54.427,35.526,54.565,34.882,54.675z" style="fill:#3A4249;"/><path d="M40.507,18.813c-2.116-0.541-3.78-2.205-4.321-4.32c-0.05-0.201-0.322-0.201-0.373,0  c-0.541,2.115-2.205,3.779-4.32,4.32c-0.201,0.051-0.201,0.323,0,0.374c2.115,0.541,3.779,2.205,4.32,4.32  c0.051,0.201,0.323,0.201,0.373,0c0.541-2.115,2.205-3.779,4.321-4.32C40.708,19.136,40.708,18.864,40.507,18.813z" style="fill:#3A4249;"/></svg>