<?xml version="1.0" ?><svg id="_x31_-outline-expand" style="enable-background:new 0 0 64 64;" version="1.1" viewBox="0 0 64 64" xml:space="preserve" xmlns="http://www.w3.org/2000/svg" xmlns:xlink="http://www.w3.org/1999/xlink"><path d="M54,57.499v-2h-4.283c-0.041-0.073-0.087-0.145-0.136-0.217l2.616-0.554l-0.414-1.957l-4.238,0.897  c-0.403-0.204-0.853-0.391-1.336-0.562l0.827-0.525l-1.072-1.688l-2.389,1.517c-0.828-0.155-1.71-0.27-2.633-0.337L41,52.059l-4-12  l-10-2v-9.06h7l7-7l-2-2v-7.454L49,8L39,3.454V2.999h-2v17l-5,5h-9.983c0.754-0.003,1.468-0.171,2.104-0.469  C22.85,23.85,22,22.53,22,21h2c0,1.1,0.9,2,2,2c0.63-0.83,1-1.87,1-3c0-2.76-2.24-5-5-5s-5,2.24-5,5  c0,2.757,2.235,4.994,4.991,4.999H15l-5.331,6.138c-1.019,1.172-1.266,2.828-0.635,4.247L12,42.059l4-2l-3-6l4-4v11l-1,19.94h5  l2-17.94l11,2l2.643,7.047c-0.774,0.069-1.514,0.173-2.217,0.305l-2.39-1.517l-1.072,1.688l0.826,0.525  c-0.483,0.172-0.932,0.359-1.335,0.562l-4.238-0.897l-0.414,1.957l2.616,0.554c-0.049,0.072-0.096,0.144-0.136,0.217H24v2h4.282  c0.041,0.074,0.088,0.146,0.137,0.218l-2.616,0.553l0.414,1.957l4.239-0.896c0.403,0.203,0.852,0.39,1.334,0.561l-0.827,0.524  l1.072,1.689l2.392-1.518c1.106,0.207,2.306,0.344,3.573,0.39V62h2v-1.021c1.266-0.047,2.467-0.183,3.572-0.39l2.392,1.518  l1.072-1.689l-0.826-0.524c0.482-0.172,0.931-0.358,1.334-0.562l4.239,0.897l0.414-1.957l-2.616-0.553  c0.049-0.072,0.096-0.145,0.137-0.218H54z" style="fill:#3A4249;"/></svg>