<?xml version="1.0" ?><svg enable-background="new 0 0 512 512" id="Layer_2" version="1.1" viewBox="0 0 512 512" xml:space="preserve" xmlns="http://www.w3.org/2000/svg" xmlns:xlink="http://www.w3.org/1999/xlink"><g><g><path d="    M220.788,363.914c6.512,8.372,11.694,18.185,14.736,29.679" fill="none" stroke="#474747" stroke-linecap="round" stroke-linejoin="round" stroke-miterlimit="10" stroke-width="15"/><path d="    M128.525,487.593v-23.346c0-17.152-6.385-33.691-17.91-46.394l-17.196-18.952c-6.166-6.796-10.915-14.752-13.971-23.405    l-20.146-57.052c-2.058-5.321-2.271-11.179-0.605-16.636l25.212-68.304c1.908-6.25,7.109-10.938,13.523-12.189l86.263-16.832    l-1.386,16.847c-1.462,17.771-13.276,33.003-30.123,38.841l-20.508,7.107l-3.712,25.921c-1.782,12.442,6.095,24.253,18.286,27.314    c4.248,1.067,8.93,2.392,13.863,4.03" fill="none" stroke="#474747" stroke-linecap="round" stroke-linejoin="round" stroke-miterlimit="10" stroke-width="15"/><path d="    M120.959,192.052l16.655-62.531c1.919-7.204,5.338-13.921,10.034-19.712l55.08-80.254c6.641-8.436,18.426-10.801,27.807-5.578    l0.605,0.337c10.731,5.973,14.435,19.612,8.201,30.194l-46.754,79.357" fill="none" stroke="#474747" stroke-linecap="round" stroke-linejoin="round" stroke-miterlimit="10" stroke-width="15"/><path d="    M212.435,100.431l18.741-31.569c5.618-9.463,17.396-13.274,27.493-8.895l0,0c11.822,5.127,16.666,19.315,10.448,30.601    l-18.738,34.009" fill="none" stroke="#474747" stroke-linecap="round" stroke-linejoin="round" stroke-miterlimit="10" stroke-width="15"/><path d="    M243.525,136.593l24.203-43.009c5.16-9.524,16.517-13.832,26.695-10.127l0.889,0.324c12.499,4.55,18.071,19.116,11.799,30.846    l-18.123,33.896" fill="none" stroke="#474747" stroke-linecap="round" stroke-linejoin="round" stroke-miterlimit="10" stroke-width="15"/><path d="    M283.527,338.924c-10.37,15.127-28.032,24.771-47.715,24.038l-23.685-0.882c-30.526-1.137-54.351-26.805-53.215-57.331    l0.733-19.698" fill="none" stroke="#474747" stroke-linecap="round" stroke-linejoin="round" stroke-miterlimit="10" stroke-width="15"/><path d="    M162.524,207.753c1.137-30.526,26.805-54.351,57.331-53.215l23.685,0.882c30.526,1.137,54.351,26.805,53.215,57.331l-1.839,49.381    " fill="none" stroke="#474747" stroke-linecap="round" stroke-linejoin="round" stroke-miterlimit="10" stroke-width="15"/><path d="    M320.525,369.593l-3-45l-45.671-15.429c-17.012-5.747-28.62-21.512-29.058-39.464l-0.271-11.107l67.369,7.579    c8.277,0.931,16.165,4.013,22.882,8.938l33.206,24.351c10.561,7.745,17.475,19.491,19.12,32.484l5.131,40.532    c1.48,11.689-1.275,23.522-7.766,33.356l-14.785,22.402c-5.32,8.061-8.156,17.506-8.156,27.164v32.194" fill="none" stroke="#474747" stroke-linecap="round" stroke-linejoin="round" stroke-miterlimit="10" stroke-width="15"/><path d="    M294.52,138.175l2.099-3.645c5.808-10.085,19.11-12.851,28.456-5.916l0,0c7.732,5.736,10.106,16.265,5.585,24.764l-17.135,32.214" fill="none" stroke="#474747" stroke-linecap="round" stroke-linejoin="round" stroke-miterlimit="10" stroke-width="15"/><path d="    M283.525,371.593v32.556c0,9.865-4.032,19.301-11.16,26.119l-0.679,0.649c-7.129,6.819-11.161,16.255-11.161,26.119v30.556" fill="none" stroke="#474747" stroke-linecap="round" stroke-linejoin="round" stroke-miterlimit="10" stroke-width="15"/><polyline fill="none" points="    380.525,316.593 372.525,217.593 341.525,179.593   " stroke="#474747" stroke-linecap="round" stroke-linejoin="round" stroke-miterlimit="10" stroke-width="15"/><polyline fill="none" points="    320.525,221.593 329.525,233.593 332.525,273.593   " stroke="#474747" stroke-linecap="round" stroke-linejoin="round" stroke-miterlimit="10" stroke-width="15"/></g><path d="   M417.253,327.275c4.808-1.943,9.335-4.814,13.308-8.621c15.042-14.413,17.024-37.322,5.648-53.975   c0.645-0.563,1.283-1.139,1.908-1.738c21.933-21.015,22.677-55.831,1.662-77.764c-3.902-4.073-8.282-7.411-12.965-10.019   c18.779-21.213,18.452-53.634-1.497-74.455c-12.507-13.053-29.901-18.599-46.56-16.522c1.098-14.994-3.914-30.375-15.134-42.085   c-21.015-21.933-55.831-22.677-77.764-1.662" fill="none" stroke="#474747" stroke-linecap="round" stroke-linejoin="round" stroke-miterlimit="10" stroke-width="15"/><circle cx="455.118" cy="46.053" fill="none" r="24.407" stroke="#474747" stroke-linecap="round" stroke-linejoin="round" stroke-miterlimit="10" stroke-width="15"/><circle cx="56.118" cy="155.053" fill="none" r="24.407" stroke="#474747" stroke-linecap="round" stroke-linejoin="round" stroke-miterlimit="10" stroke-width="15"/><circle cx="87.118" cy="64.053" fill="none" r="13.407" stroke="#474747" stroke-linecap="round" stroke-linejoin="round" stroke-miterlimit="10" stroke-width="15"/><path d="   M369.303,107.285c0,0,8.003-10.438,9.719-24.547" fill="none" stroke="#474747" stroke-linecap="round" stroke-linejoin="round" stroke-miterlimit="10" stroke-width="15"/><path d="   M217.352,330.662L217.352,330.662c-15.843-0.079-28.456-13.291-27.801-29.12l1.974-36.949" fill="none" stroke="#474747" stroke-linecap="round" stroke-linejoin="round" stroke-miterlimit="10" stroke-width="15"/></g></svg>