<?xml version="1.0" ?><svg enable-background="new 0 0 512 512" id="Layer_2" version="1.1" viewBox="0 0 512 512" xml:space="preserve" xmlns="http://www.w3.org/2000/svg" xmlns:xlink="http://www.w3.org/1999/xlink"><g><g><path d="    M184.957,381.12l35.153,34.665c11.42,11.262,27.27,17.637,43.846,17.637h107.299c10.356,0,20.539-2.492,29.573-7.238    l21.944-11.527c6.556-3.444,13.946-5.252,21.462-5.252h52.067" fill="none" stroke="#474747" stroke-linecap="round" stroke-linejoin="round" stroke-miterlimit="10" stroke-width="15"/><path d="    M152.037,327.121l5.722,26.331c2.64,12.146,12.627,21.716,25.524,24.458l67.514,14.353" fill="none" stroke="#474747" stroke-linecap="round" stroke-linejoin="round" stroke-miterlimit="10" stroke-width="15"/><path d="    M275.487,358.835l-119.986-30.812c-8.417-2.161-15.059-8.223-17.59-16.051l-9.623-29.766c-2.814-8.705-0.089-18.152,7.022-24.342    l13.983-12.17" fill="none" stroke="#474747" stroke-linecap="round" stroke-linejoin="round" stroke-miterlimit="10" stroke-width="15"/><path d="    M265.428,308.264l-83.974-20.633c-6.445-1.584-11.749-5.867-14.374-11.607l-26.017-56.901l6.317-3.383    c11.299-6.052,25.555-4.016,34.418,4.915l30.592,30.182l132.595,11.143l-25.605-54.856l-20.943-33.906    c-10.398-16.834-3.271-38.403,15.458-46.782l5.484-2.453l39.826,50.55c2.699,3.426,5.884,6.492,9.466,9.113l34.281,25.081    c3.953,2.316,7.149,5.607,9.238,9.512l14.777,27.629c4.598,11.253,16.123,18.683,28.978,18.683h40.356" fill="none" stroke="#474747" stroke-linecap="round" stroke-linejoin="round" stroke-miterlimit="10" stroke-width="15"/><path d="    M300.477,232.837l-40.285-59.999l-56.57-33.428l0,0c-12.791,16.581-9.75,40.385,6.798,53.218l12.059,9.352l9.428,29.999" fill="none" stroke="#474747" stroke-linecap="round" stroke-linejoin="round" stroke-miterlimit="10" stroke-width="15"/><path d="    M142.802,322.967l-92.223,45.26c-12.694,6.248-27.527,2.083-33.131-9.303l0,0c-5.604-11.386,0.144-25.68,12.838-31.928    l95.516-47.029" fill="none" stroke="#474747" stroke-linecap="round" stroke-linejoin="round" stroke-miterlimit="10" stroke-width="15"/><path d="    M158.802,365.967l-71.8,35.552c-12.694,6.248-27.527,2.083-33.131-9.303l0,0c-5.604-11.386,0.144-25.68,12.838-31.928    l76.093-37.321" fill="none" stroke="#474747" stroke-linecap="round" stroke-linejoin="round" stroke-miterlimit="10" stroke-width="15"/><path d="    M198.802,397.967l-75.377,36.845c-12.694,6.248-27.527,2.083-33.131-9.303l0,0c-5.604-11.386,0.144-25.68,12.838-31.928    l55.67-27.613" fill="none" stroke="#474747" stroke-linecap="round" stroke-linejoin="round" stroke-miterlimit="10" stroke-width="15"/><path d="    M237.802,429.967l-69.89,34.168c-12.694,6.248-27.527,2.083-33.131-9.303l0,0c-5.604-11.386,0.144-25.68,12.838-31.928    l51.183-24.937" fill="none" stroke="#474747" stroke-linecap="round" stroke-linejoin="round" stroke-miterlimit="10" stroke-width="15"/></g><path d="   M275.255,112.821c-0.317-0.624-0.645-1.245-0.994-1.861c-12.244-21.596-39.676-29.177-61.272-16.933   c-4.01,2.274-7.535,5.073-10.541,8.259c-13.034-19.137-38.785-25.389-59.285-13.766c-12.852,7.287-20.739,19.954-22.439,33.568   c-11.658-3.881-24.85-2.999-36.38,3.538c-21.596,12.244-29.177,39.676-16.933,61.272" fill="none" stroke="#474747" stroke-linecap="round" stroke-linejoin="round" stroke-miterlimit="10" stroke-width="15"/><circle cx="381.563" cy="117.275" fill="none" r="22.066" stroke="#474747" stroke-linecap="round" stroke-linejoin="round" stroke-miterlimit="10" stroke-width="15"/><circle cx="444.837" cy="61.377" fill="none" r="15.528" stroke="#474747" stroke-linecap="round" stroke-linejoin="round" stroke-miterlimit="10" stroke-width="15"/><path d="   M66.14,275.39c-10.333-3.42-19.481-10.537-25.272-20.751c-12.394-21.86-4.72-49.628,17.14-62.022   c9.091-5.154,19.204-6.838,28.808-5.473" fill="none" stroke="#474747" stroke-linecap="round" stroke-linejoin="round" stroke-miterlimit="10" stroke-width="15"/></g></svg>