<?xml version="1.0" ?><svg enable-background="new 0 0 512 512" id="Layer_2" version="1.1" viewBox="0 0 512 512" xml:space="preserve" xmlns="http://www.w3.org/2000/svg" xmlns:xlink="http://www.w3.org/1999/xlink"><g><path d="   M16.219,293.144l69.342,46.247c0,0,50.749-19.571,71.493-19.42c2.211-0.275,4.464-0.18,6.661,0.317l79.176,17.885   c10.257,2.317,17.192,12.267,15.24,22.6c-2.048,10.848-12.656,17.746-23.333,15.335l-29.392-6.639l-32.438-7.429   c-6.005-1.371-11.984,2.377-13.359,8.38c-1.374,6.003,2.377,11.984,8.38,13.359l94.336,20.967c0.838,0.192,1.675,0.23,2.499,0.23   c0.002,0,0.005,0,0.007,0c0,0,1.787,0.083,3.292-0.42l88.698-33.636c8.561-3.182,18.109,1.341,21.014,10.088   c2.768,8.333-1.861,17.339-10.09,20.4l-91.05,43.605c-3.244,1.329-6.702,2.04-10.208,2.095   c-22.961,0.363-122.936,1.745-128.678,1.231c-6.696-0.605-121.592-53.99-121.592-53.99" fill="none" stroke="#474747" stroke-linecap="round" stroke-linejoin="round" stroke-miterlimit="10" stroke-width="15"/><path d="   M16.219,130.841l82.243,27.223c0,0,55.214,42.209,74.602,49.588c1.961,1.058,4.095,1.786,6.323,2.12l80.273,12.037   c10.4,1.559,20.469-5.199,22.397-15.537c2.024-10.852-5.361-21.127-16.186-22.751l-29.8-4.469l-32.924-4.836   c-6.094-0.899-10.307-6.56-9.412-12.654c0.895-6.093,6.56-10.307,12.654-9.412l98.047,14.66l80.866,45.777   c17.141,8.571,37.987,1.729,46.716-15.332l0,0c0.417-0.815,0.117-1.813-0.68-2.263l-123.696-77.94c0,0-91.115-30.783-96.652-32.386   c-6.46-1.863-77.666-10.923-77.666-10.923L16.219,15.45" fill="none" stroke="#474747" stroke-linecap="round" stroke-linejoin="round" stroke-miterlimit="10" stroke-width="15"/><path d="   M260.572,321.379c3.645-6.632,7.465-12.876,10.69-17.86c9.567,15.106,24.45,41.437,24.45,54.761c0,3.605-0.942,7.014-2.613,10.03" fill="none" stroke="#474747" stroke-linecap="round" stroke-linejoin="round" stroke-miterlimit="10" stroke-width="15"/><path d="   M285,248.449l9.1-12.522c7.232-9.951,20.896-16.116,35.721-16.116h120.593c17.732,0,34.503-6.198,45.581-16.846v0" fill="none" stroke="#474747" stroke-linecap="round" stroke-linejoin="round" stroke-miterlimit="10" stroke-width="15"/><line fill="none" stroke="#474747" stroke-linecap="round" stroke-linejoin="round" stroke-miterlimit="10" stroke-width="15" x1="404.395" x2="404.395" y1="222.033" y2="286.352"/><path d="   M331.116,349.977v-38.089c0-14.103,11.433-25.536,25.536-25.536h95.488c14.103,0,25.536,11.433,25.536,25.536v185.88" fill="none" stroke="#474747" stroke-linecap="round" stroke-linejoin="round" stroke-miterlimit="10" stroke-width="15"/><line fill="none" stroke="#474747" stroke-linecap="round" stroke-linejoin="round" stroke-miterlimit="10" stroke-width="15" x1="331.116" x2="331.116" y1="497.768" y2="449.7"/></g></svg>