<?xml version="1.0" ?><svg enable-background="new 0 0 512 512" id="Layer_2" version="1.1" viewBox="0 0 512 512" xml:space="preserve" xmlns="http://www.w3.org/2000/svg" xmlns:xlink="http://www.w3.org/1999/xlink"><g><g><path d="    M132.656,262.024V61.69c0-13.735,11.134-24.869,24.869-24.869h0c13.735,0,24.869,11.134,24.869,24.869v170.844" fill="none" stroke="#474747" stroke-linecap="round" stroke-linejoin="round" stroke-miterlimit="10" stroke-width="15"/><path d="    M232.132,232.534V61.69c0-13.735,11.134-24.869,24.869-24.869h0c13.735,0,24.869,11.134,24.869,24.869v145.844" fill="none" stroke="#474747" stroke-linecap="round" stroke-linejoin="round" stroke-miterlimit="10" stroke-width="15"/><line fill="none" stroke="#474747" stroke-linecap="round" stroke-linejoin="round" stroke-miterlimit="10" stroke-width="15" x1="310.152" x2="310.152" y1="463.646" y2="493.158"/><path d="    M281.869,202.534V88.997c0-13.735,11.134-24.869,24.869-24.869h0c13.735,0,24.869,11.134,24.869,24.869v130.649" fill="none" stroke="#474747" stroke-linecap="round" stroke-linejoin="round" stroke-miterlimit="10" stroke-width="15"/><path d="    M182.394,232.534V45.111c0-13.735,11.134-24.869,24.869-24.869h0c13.735,0,24.869,11.134,24.869,24.869v187.423" fill="none" stroke="#474747" stroke-linecap="round" stroke-linejoin="round" stroke-miterlimit="10" stroke-width="15"/><path d="    M246.76,343.945c0,0-6.827-72.168-114.104-72.168l-34.134-30.233l-12.349-49.002c-4.966-20.078-25.657-31.975-45.508-26.165    l-4.559,1.049l15.223,76.693c0.899,4.758,2.511,9.354,4.781,13.631l33.07,63.157c2.948,5.553,6.953,10.476,11.789,14.493    l41.299,33.489c6.266,5.204,9.892,12.927,9.892,21.073v103.196" fill="none" stroke="#474747" stroke-linecap="round" stroke-linejoin="round" stroke-miterlimit="10" stroke-width="15"/></g><path d="   M423.391,449.618l-43.784,35.027l-43.784-35.027c-33.952-27.161-53.716-68.283-53.716-111.763v-100.21l5.87,2.253   c28.059,10.77,59.139,10.608,87.084-0.453l4.546-1.8l7.088,2.644c28.201,10.518,59.326,10.043,87.192-1.33l3.219-1.314v100.21   C477.107,381.335,457.343,422.457,423.391,449.618z" fill="none" stroke="#474747" stroke-linecap="round" stroke-linejoin="round" stroke-miterlimit="10" stroke-width="15"/><polyline fill="none" points="   336.107,359.646 356.607,380.146 430.607,306.146  " stroke="#474747" stroke-linecap="round" stroke-linejoin="round" stroke-miterlimit="10" stroke-width="15"/></g></svg>