<?xml version="1.0" ?><svg enable-background="new 0 0 512 512" id="Layer_2" version="1.1" viewBox="0 0 512 512" xml:space="preserve" xmlns="http://www.w3.org/2000/svg" xmlns:xlink="http://www.w3.org/1999/xlink"><g><g><path d="    M79.415,496.239V475.39c0-15.318-5.702-30.088-15.995-41.432l-15.357-16.925c-5.506-6.069-9.748-13.175-12.476-20.902    L17.595,345.18c-1.838-4.752-2.028-9.984-0.54-14.857l22.516-60.999c1.704-5.582,6.348-9.768,12.076-10.886l77.038-15.032    l-1.238,15.045c-1.306,15.87-11.856,29.474-26.902,34.688l-18.315,6.347l1.42,44.724" fill="none" stroke="#474747" stroke-linecap="round" stroke-linejoin="round" stroke-miterlimit="10" stroke-width="15"/><path d="    M72.658,232.305l14.874-55.844c1.714-6.434,4.767-12.433,8.961-17.604l49.19-71.671c5.931-7.534,16.455-9.646,24.833-4.982    l0.54,0.301c9.583,5.335,12.891,17.515,7.324,26.965l-53.791,97.575" fill="none" stroke="#474747" stroke-linecap="round" stroke-linejoin="round" stroke-miterlimit="10" stroke-width="15"/><path d="    M228.235,445.045l-0.606,0.58c-6.366,6.089-9.967,14.516-9.967,23.326v27.288" fill="none" stroke="#474747" stroke-linecap="round" stroke-linejoin="round" stroke-miterlimit="10" stroke-width="15"/><path d="    M432.799,496.239V475.39c0-15.318,5.702-30.088,15.995-41.432l15.357-16.925c5.506-6.069,9.748-13.175,12.476-20.902    l17.991-50.951c1.838-4.752,2.028-9.984,0.54-14.857l-22.516-60.999c-1.704-5.582-6.348-9.768-12.076-10.886l-77.038-15.032    l1.238,15.045c1.306,15.87,11.856,29.474,26.902,34.688l18.315,6.347l3.315,23.149c1.591,11.111-4.761,21.841-15.647,24.575    c-0.938,0.235-5.906,1.278-5.906,1.278" fill="none" stroke="#474747" stroke-linecap="round" stroke-linejoin="round" stroke-miterlimit="10" stroke-width="15"/><path d="    M439.555,232.305l-14.874-55.844c-1.714-6.434-4.767-12.433-8.961-17.604l-49.19-71.671c-5.931-7.534-16.455-9.646-24.833-4.982    l-0.54,0.301c-9.583,5.335-12.891,17.515-7.324,26.965l51.408,87.393" fill="none" stroke="#474747" stroke-linecap="round" stroke-linejoin="round" stroke-miterlimit="10" stroke-width="15"/><path d="    M357.862,150.482l-16.737-28.193c-5.017-8.451-15.535-11.854-24.552-7.944l0,0c-10.557,4.579-14.883,17.25-9.33,27.329    l24.408,43.534" fill="none" stroke="#474747" stroke-linecap="round" stroke-linejoin="round" stroke-miterlimit="10" stroke-width="15"/><path d="    M283.979,445.045l0.606,0.58c6.366,6.089,9.967,14.516,9.967,23.326v27.288" fill="none" stroke="#474747" stroke-linecap="round" stroke-linejoin="round" stroke-miterlimit="10" stroke-width="15"/><line fill="none" stroke="#474747" stroke-linecap="round" stroke-linejoin="round" stroke-miterlimit="10" stroke-width="15" x1="292.588" x2="292.588" y1="16.645" y2="151.209"/><line fill="none" stroke="#474747" stroke-linecap="round" stroke-linejoin="round" stroke-miterlimit="10" stroke-width="15" x1="254.915" x2="254.915" y1="112.354" y2="139.209"/><line fill="none" stroke="#474747" stroke-linecap="round" stroke-linejoin="round" stroke-miterlimit="10" stroke-width="15" x1="254.915" x2="254.915" y1="84.863" y2="88.936"/><line fill="none" stroke="#474747" stroke-linecap="round" stroke-linejoin="round" stroke-miterlimit="10" stroke-width="15" x1="220.297" x2="220.297" y1="142.9" y2="177.518"/><line fill="none" stroke="#474747" stroke-linecap="round" stroke-linejoin="round" stroke-miterlimit="10" stroke-width="15" x1="182.625" x2="182.625" y1="61.226" y2="236.572"/><line fill="none" stroke="#474747" stroke-linecap="round" stroke-linejoin="round" stroke-miterlimit="10" stroke-width="15" x1="182.625" x2="182.625" y1="16.645" y2="24.625"/><path d="    M206.784,381.046l-35.122-56.094c-12.183-19.457-6.286-45.107,13.172-57.29l37.489-23.473    c19.457-12.183,45.107-6.286,57.29,13.172l50.968,81.401c12.183,19.457,6.286,45.107-13.172,57.29l-37.489,23.473    c-9.562,5.987-20.619,7.608-30.838,5.399" fill="none" stroke="#474747" stroke-linecap="round" stroke-linejoin="round" stroke-miterlimit="10" stroke-width="15"/></g><path d="   M338.92,405.97c3.277,0.81,6.703,1.239,10.23,1.239c23.472,0,42.5-19.028,42.5-42.5c0-19.955-13.756-36.69-32.301-41.26   c0.191-1.555,0.301-3.134,0.301-4.74c0-21.263-17.237-38.5-38.5-38.5" fill="none" stroke="#474747" stroke-linecap="round" stroke-linejoin="round" stroke-miterlimit="10" stroke-width="15"/><path d="   M184.525,266.891c-23.351-2.386-44.214,14.608-46.601,37.959c-0.53,5.185-0.1,10.246,1.139,15.011   c-17.172,4.018-30.703,18.532-32.597,37.06c-2.386,23.351,14.608,44.214,37.959,46.601c2.698,0.276,5.361,0.282,7.968,0.06   c4.928,15.725,18.814,27.807,36.246,29.589c23.351,2.386,44.214-14.608,46.601-37.959" fill="none" stroke="#474747" stroke-linecap="round" stroke-linejoin="round" stroke-miterlimit="10" stroke-width="15"/><circle cx="327.65" cy="230.209" fill="none" r="23" stroke="#474747" stroke-linecap="round" stroke-linejoin="round" stroke-miterlimit="10" stroke-width="15"/><circle cx="266.65" cy="190.209" fill="none" r="16" stroke="#474747" stroke-linecap="round" stroke-linejoin="round" stroke-miterlimit="10" stroke-width="15"/><path d="   M292.541,382.639L292.541,382.639c13.715-7.93,18.11-25.66,9.686-39.078l-20.049-31.1" fill="none" stroke="#474747" stroke-linecap="round" stroke-linejoin="round" stroke-miterlimit="10" stroke-width="15"/></g></svg>