<?xml version="1.0" ?><svg enable-background="new 0 0 512 512" id="Layer_2" version="1.1" viewBox="0 0 512 512" xml:space="preserve" xmlns="http://www.w3.org/2000/svg" xmlns:xlink="http://www.w3.org/1999/xlink"><g><g><g><path d="     M216.362,318.943l-25.532-88.32c-3.748-12.966,3.724-26.516,16.69-30.264l0,0c12.966-3.748,26.516,3.724,30.264,16.69     l10.817,37.42" fill="none" stroke="#474747" stroke-linecap="round" stroke-linejoin="round" stroke-miterlimit="10" stroke-width="15"/><path d="     M248.603,254.47l-10.817-37.42c-3.748-12.966,3.724-26.516,16.69-30.264l0,0c12.966-3.748,26.516,3.724,30.264,16.69     l10.817,37.42" fill="none" stroke="#474747" stroke-linecap="round" stroke-linejoin="round" stroke-miterlimit="10" stroke-width="15"/><path d="     M295.557,240.897l-10.817-37.42c-3.748-12.966,3.724-26.516,16.69-30.264l0,0c12.966-3.748,26.516,3.724,30.264,16.69     l10.817,37.42" fill="none" stroke="#474747" stroke-linecap="round" stroke-linejoin="round" stroke-miterlimit="10" stroke-width="15"/><path d="     M432.626,496.192l-21.416-71.767c-4.527-15.661-4.703-32.259-0.508-48.012l5.953-22.355c4.195-15.753,4.019-32.351-0.508-48.012     l-33.085-114.447c-3.748-12.966-17.298-20.439-30.264-16.69l0,0c-12.966,3.748-20.439,17.298-16.69,30.264l6.403,22.15" fill="none" stroke="#474747" stroke-linecap="round" stroke-linejoin="round" stroke-miterlimit="10" stroke-width="15"/><path d="     M195.126,245.482l-11.708,18.642c-8.891,14.157-11.32,31.434-6.678,47.493l30.346,81.803c5.711,7.322,12.565,13.767,20.363,19.06     l13.621,9.245c17.327,11.761,29.995,29.211,35.811,49.328l4.746,25.139" fill="none" stroke="#474747" stroke-linecap="round" stroke-linejoin="round" stroke-miterlimit="10" stroke-width="15"/></g><g><path d="     M132.705,257.295V57.938c0-13.668,11.08-24.747,24.747-24.747h0c13.668,0,24.747,11.08,24.747,24.747v74.609" fill="none" stroke="#474747" stroke-linecap="round" stroke-linejoin="round" stroke-miterlimit="10" stroke-width="15"/><path d="     M231.695,87.547V57.938c0-13.668,11.08-24.747,24.747-24.747h0c13.668,0,24.747,11.08,24.747,24.747v33.609" fill="none" stroke="#474747" stroke-linecap="round" stroke-linejoin="round" stroke-miterlimit="10" stroke-width="15"/><path d="     M281.19,91.547v-6.436c0-13.668,11.08-24.747,24.747-24.747h0c13.668,0,24.747,11.08,24.747,24.747v19.436" fill="none" stroke="#474747" stroke-linecap="round" stroke-linejoin="round" stroke-miterlimit="10" stroke-width="15"/><path d="     M182.2,129.547V41.44c0-13.668,11.08-24.747,24.747-24.747h0c13.668,0,24.747,11.08,24.747,24.747v41.108" fill="none" stroke="#474747" stroke-linecap="round" stroke-linejoin="round" stroke-miterlimit="10" stroke-width="15"/><line fill="none" stroke="#474747" stroke-linecap="round" stroke-linejoin="round" stroke-miterlimit="10" stroke-width="15" x1="152.115" x2="152.115" y1="474.547" y2="496.192"/><path d="     M155.147,268.159c-6.941-0.752-14.409-1.159-22.442-1.159l-33.967-30.085l-12.289-48.763     c-4.941-19.98-25.532-31.819-45.286-26.038l-4.536,1.044l15.149,76.319c0.894,4.735,2.499,9.308,4.758,13.565l32.909,62.849     c2.934,5.526,6.919,10.425,11.732,14.422" fill="none" stroke="#474747" stroke-linecap="round" stroke-linejoin="round" stroke-miterlimit="10" stroke-width="15"/></g></g><path d="   M455.672,238.858c1.572-3.936,2.437-8.231,2.437-12.728c0-17.026-12.399-31.149-28.658-33.851c0.032-0.699,0.053-1.402,0.053-2.109   c0-24.825-20.125-44.95-44.95-44.95c-4.61,0-9.056,0.697-13.243,1.986c-1.9-23.076-21.217-41.215-44.784-41.215   c-14.774,0-27.882,7.129-36.076,18.134c-8.227-9.126-20.138-14.865-33.393-14.865c-24.825,0-44.95,20.125-44.95,44.95" fill="none" stroke="#474747" stroke-linecap="round" stroke-linejoin="round" stroke-miterlimit="10" stroke-width="15"/><circle cx="435.783" cy="106.462" fill="none" r="22.066" stroke="#474747" stroke-linecap="round" stroke-linejoin="round" stroke-miterlimit="10" stroke-width="15"/><circle cx="388.584" cy="33.339" fill="none" r="15.528" stroke="#474747" stroke-linecap="round" stroke-linejoin="round" stroke-miterlimit="10" stroke-width="15"/><path d="   M298.74,142.768c0,0-1.635-10.625-8.99-19.615" fill="none" stroke="#474747" stroke-linecap="round" stroke-linejoin="round" stroke-miterlimit="10" stroke-width="15"/><path d="   M167.359,230.563c-7.302-8.071-11.75-18.774-11.75-30.516c0-25.129,20.371-45.5,45.5-45.5c10.451,0,20.078,3.523,27.76,9.447" fill="none" stroke="#474747" stroke-linecap="round" stroke-linejoin="round" stroke-miterlimit="10" stroke-width="15"/><path d="   M429.109,230.547c25.129,0,45.5,20.371,45.5,45.5c0,16.491-8.999,31.098-22.133,39.078c10.572,8.332,17.133,21.417,17.133,35.922   c0,21.865-15.422,40.127-35.982,44.503" fill="none" stroke="#474747" stroke-linecap="round" stroke-linejoin="round" stroke-miterlimit="10" stroke-width="15"/><path d="   M150.66,298.93c-15.887,6.637-27.051,22.323-27.051,40.617c0,12.725,5.408,24.181,14.044,32.215   c-8.66,8.445-14.044,20.234-14.044,33.285c0,25.681,20.819,46.5,46.5,46.5c7.677,0,14.913-1.872,21.295-5.167   c6.567,14.261,20.975,24.167,37.705,24.167c7.047,0,13.684-1.757,19.497-4.856" fill="none" stroke="#474747" stroke-linecap="round" stroke-linejoin="round" stroke-miterlimit="10" stroke-width="15"/></g></svg>