<?xml version="1.0" ?><svg enable-background="new 0 0 512 512" id="Layer_2" version="1.1" viewBox="0 0 512 512" xml:space="preserve" xmlns="http://www.w3.org/2000/svg" xmlns:xlink="http://www.w3.org/1999/xlink"><g><g><line clip-rule="evenodd" fill="none" fill-rule="evenodd" stroke="#474747" stroke-linecap="round" stroke-linejoin="round" stroke-miterlimit="10" stroke-width="15" x1="408.853" x2="408.849" y1="72.114" y2="73.561"/><line clip-rule="evenodd" fill="none" fill-rule="evenodd" stroke="#474747" stroke-linecap="round" stroke-linejoin="round" stroke-miterlimit="10" stroke-width="15" x1="408.755" x2="408.75" y1="106.892" y2="108.339"/><line clip-rule="evenodd" fill="none" fill-rule="evenodd" stroke="#474747" stroke-linecap="round" stroke-linejoin="round" stroke-miterlimit="10" stroke-width="15" x1="426.915" x2="425.467" y1="90.278" y2="90.274"/><line clip-rule="evenodd" fill="none" fill-rule="evenodd" stroke="#474747" stroke-linecap="round" stroke-linejoin="round" stroke-miterlimit="10" stroke-width="15" x1="392.137" x2="390.689" y1="90.179" y2="90.175"/></g><g><line clip-rule="evenodd" fill="none" fill-rule="evenodd" stroke="#474747" stroke-linecap="round" stroke-linejoin="round" stroke-miterlimit="10" stroke-width="15" x1="455.853" x2="455.849" y1="316.114" y2="317.561"/><line clip-rule="evenodd" fill="none" fill-rule="evenodd" stroke="#474747" stroke-linecap="round" stroke-linejoin="round" stroke-miterlimit="10" stroke-width="15" x1="455.755" x2="455.75" y1="350.892" y2="352.339"/><line clip-rule="evenodd" fill="none" fill-rule="evenodd" stroke="#474747" stroke-linecap="round" stroke-linejoin="round" stroke-miterlimit="10" stroke-width="15" x1="473.915" x2="472.467" y1="334.278" y2="334.274"/><line clip-rule="evenodd" fill="none" fill-rule="evenodd" stroke="#474747" stroke-linecap="round" stroke-linejoin="round" stroke-miterlimit="10" stroke-width="15" x1="439.137" x2="437.689" y1="334.179" y2="334.175"/></g><g><line clip-rule="evenodd" fill="none" fill-rule="evenodd" stroke="#474747" stroke-linecap="round" stroke-linejoin="round" stroke-miterlimit="10" stroke-width="15" x1="55.853" x2="55.849" y1="294.114" y2="295.561"/><line clip-rule="evenodd" fill="none" fill-rule="evenodd" stroke="#474747" stroke-linecap="round" stroke-linejoin="round" stroke-miterlimit="10" stroke-width="15" x1="55.755" x2="55.75" y1="328.892" y2="330.339"/><line clip-rule="evenodd" fill="none" fill-rule="evenodd" stroke="#474747" stroke-linecap="round" stroke-linejoin="round" stroke-miterlimit="10" stroke-width="15" x1="73.915" x2="72.467" y1="312.278" y2="312.274"/><line clip-rule="evenodd" fill="none" fill-rule="evenodd" stroke="#474747" stroke-linecap="round" stroke-linejoin="round" stroke-miterlimit="10" stroke-width="15" x1="39.137" x2="37.689" y1="312.179" y2="312.175"/></g><g><line clip-rule="evenodd" fill="none" fill-rule="evenodd" stroke="#474747" stroke-linecap="round" stroke-linejoin="round" stroke-miterlimit="10" stroke-width="15" x1="114.853" x2="114.849" y1="424.114" y2="425.561"/><line clip-rule="evenodd" fill="none" fill-rule="evenodd" stroke="#474747" stroke-linecap="round" stroke-linejoin="round" stroke-miterlimit="10" stroke-width="15" x1="114.755" x2="114.75" y1="458.892" y2="460.339"/><line clip-rule="evenodd" fill="none" fill-rule="evenodd" stroke="#474747" stroke-linecap="round" stroke-linejoin="round" stroke-miterlimit="10" stroke-width="15" x1="132.915" x2="131.467" y1="442.278" y2="442.274"/><line clip-rule="evenodd" fill="none" fill-rule="evenodd" stroke="#474747" stroke-linecap="round" stroke-linejoin="round" stroke-miterlimit="10" stroke-width="15" x1="98.137" x2="96.689" y1="442.179" y2="442.175"/></g><path d="   M177.802,314.818l3.445,15.531c2.595,11.7,11.732,20.837,23.432,23.432l15.531,3.445l-15.531,3.445   c-11.7,2.595-20.837,11.732-23.432,23.432l-3.445,15.531l-3.445-15.531c-2.595-11.7-11.732-20.837-23.432-23.432l-15.531-3.445   l15.531-3.445c11.7-2.595,20.837-11.732,23.432-23.432L177.802,314.818z" fill="none" stroke="#474747" stroke-linecap="round" stroke-linejoin="round" stroke-miterlimit="10" stroke-width="15"/><g><path d="    M205.989,277.131l-63.52-193.732c-3.912-13.034,3.484-26.772,16.518-30.684l0,0c13.034-3.912,26.772,3.484,30.684,16.518    l58.183,178.424" fill="none" stroke="#474747" stroke-linecap="round" stroke-linejoin="round" stroke-miterlimit="10" stroke-width="15"/><path d="    M295.056,233.491L236.874,55.067c-3.912-13.034,3.484-26.772,16.518-30.684l0,0c13.034-3.912,26.772,3.484,30.684,16.518    l58.183,178.424" fill="none" stroke="#474747" stroke-linecap="round" stroke-linejoin="round" stroke-miterlimit="10" stroke-width="15"/><path d="    M342.258,219.326L291.853,66.816c-3.912-13.034,3.484-26.772,16.518-30.684l0,0c13.034-3.912,26.772,3.484,30.684,16.518    l67.771,207.9c5.261,17.531,7.011,35.929,5.149,54.138v0c-1.862,18.209-0.112,36.606,5.149,54.138l37.134,122.623" fill="none" stroke="#474747" stroke-linecap="round" stroke-linejoin="round" stroke-miterlimit="10" stroke-width="15"/><path d="    M247.854,247.657L184.95,53.499c-3.912-13.034,3.484-26.772,16.518-30.684l0,0c13.034-3.912,26.772,3.484,30.684,16.518    l62.905,194.158" fill="none" stroke="#474747" stroke-linecap="round" stroke-linejoin="round" stroke-miterlimit="10" stroke-width="15"/><path d="    M245.548,375.809c7.429,3.154,13.069,9.451,15.389,17.182l29.391,97.936" fill="none" stroke="#474747" stroke-linecap="round" stroke-linejoin="round" stroke-miterlimit="10" stroke-width="15"/><path d="    M337.608,322.378c0,0-27.033-66.545-128.841-35.992l-41.004-18.97l-15.125-31.381c-10.431-17.64-33.456-23.038-50.64-11.871    l-4.027,2.294l25.739,56.841c2.208,4.26,5.047,8.162,8.42,11.575l17.177,17.261" fill="none" stroke="#474747" stroke-linecap="round" stroke-linejoin="round" stroke-miterlimit="10" stroke-width="15"/></g></g></svg>