<?xml version="1.0" ?><svg data-name="Слой 1" id="Слой_1" viewBox="0 0 128 128" xmlns="http://www.w3.org/2000/svg"><title/><path d="M106.4,118.79l-16.5-1-.66-1.48c17-9.8,26.33-25.53,26.33-44.52,0-21-14.8-37.87-28.16-46.43L89,22.52a2,2,0,0,0-.8-2.71l-5.56-3,4.55-8.3a2,2,0,0,0-.8-2.72l-10-5.5A2,2,0,0,0,73.6,1l-4.55,8.3L64.41,6.79a2,2,0,0,0-1.53-.16,2,2,0,0,0-1.19,1L42.13,43.65,21.25,48.51a2,2,0,0,0-1.28.94A2,2,0,0,0,19.78,51L23,62a2,2,0,0,0,2.33,1.4l10.4-2.22,4.45,2.43-6,11.05a2,2,0,0,0,.79,2.71L45,82.9a2,2,0,0,0,1,.24,1.85,1.85,0,0,0,.56-.08,2,2,0,0,0,1.19-1l6.05-11,5.1,2.8a2,2,0,0,0,1,.24,1.77,1.77,0,0,0,.56-.08,2.05,2.05,0,0,0,1.2-1L77.48,43.69C83,49.13,88.65,56.5,88.65,66.6c0,10.59-3.72,18.4-12,25.14a12.92,12.92,0,0,0-19.88,5.64,12.82,12.82,0,0,0-.54,1.8,42.12,42.12,0,0,1-8.31.85h-.34l3.76-7a2,2,0,0,0,.1-1.67,2,2,0,0,0-1.21-1.16L21.48,80.34a2,2,0,0,0-1.3,3.79L46.71,93.2l-3.37,6.28a24.1,24.1,0,0,1-3.12-.94,4.91,4.91,0,0,0-.17-.76c-1.45-4.67-8.6-6.47-16.27-4.09s-12.54,7.91-11.09,12.58c1,3.28,4.83,5.14,9.66,5.14a20,20,0,0,0,2.27-.15A15.79,15.79,0,0,0,26.24,114l-7.37-.44a2,2,0,0,0-1.49.54,2,2,0,0,0-.63,1.46V126a2,2,0,0,0,2,2h87.53a2,2,0,0,0,2-2v-5.21A2,2,0,0,0,106.4,118.79ZM76.14,4.71,82.69,8.3,79.1,14.84l-3.5-1.91-3-1.67ZM24.21,51.93l15.37-3.58-4.86,9-8.41,1.8Zm20.93,26.5L38.6,74.84l5.08-9.28L49,68.47l1.22.67ZM59,69.38,53.91,66.6h0l-7.14-3.9-8-4.4L45.3,46.34a2.5,2.5,0,0,0,.16-.43L64.25,11.27l4.62,2.53h0l10.06,5.5h0l5.56,3.05-1.4,2.57A.76.76,0,0,1,83,25c0,.1-.1.2-.14.3ZM92.65,66.6c0-12.08-6.84-20.5-13.19-26.56l6-11.14C97.92,37,111.57,52.51,111.57,71.81c0,17.61-8.28,31.66-23.95,40.82l-7-15.82a12.52,12.52,0,0,0-1.23-2.18C88.43,87.19,92.65,78.24,92.65,66.6ZM60.5,98.82A8.94,8.94,0,0,1,77,98.42l8.4,19.12-20.24-1.2-4.51-10.68A8.91,8.91,0,0,1,60.5,98.82Zm-44,6.27c-.66-2.13,2.81-5.82,8.46-7.57a18.35,18.35,0,0,1,5.49-.88c3.08,0,5.34.94,5.77,2.32.3,1-.27,2.29-1.56,3.63a16.91,16.91,0,0,1-6.9,4C22.13,108.29,17.17,107.22,16.51,105.09Zm15.11,9.08a18,18,0,0,1-2.94-3.74l.28-.07a20.71,20.71,0,0,0,8.58-5,11,11,0,0,0,2-2.81A26.08,26.08,0,0,0,47.92,104a46.47,46.47,0,0,0,8-.72,13,13,0,0,0,1,3.94l3.72,8.82L31.8,114.35C31.73,114.29,31.68,114.22,31.62,114.17ZM104.28,124H20.75v-6.3l67.7,4,.11,0h.06l15.66.93Z"/></svg>