<?xml version="1.0" ?><svg data-name="Слой 1" id="Слой_1" viewBox="0 0 128 128" xmlns="http://www.w3.org/2000/svg"><title/><path d="M126.85,38.1a6.65,6.65,0,0,0-2.49-1.85,8,8,0,0,0,.6-3.82,6.72,6.72,0,0,0-2.79-4.63,5.09,5.09,0,0,0-3.88-1,8.55,8.55,0,0,0-3.88,1.86,5.76,5.76,0,0,0-1.25-1.55c-3.31-2.92-6.7-.68-9.17,1l-.55.37c-2.15,1.41-13,12.22-13.81,13.11-.45.5-3.28,3.49-6,6.39-3.71,3.92-7.55,8-8.43,9C74,58.3,66.6,65.4,63.65,68.23l-1.49.89c.41-4.72.72-12.53-1-18-1.51-4.69-4.8-8-8.8-8.83-2.38-.49-4.59,0-5.78,1.38-2.49,2.82-1,7.41,0,10.44.19.58.45,1.36.51,1.66-.09.63-.7,2.81-1.24,4.74C44.2,66.29,41.76,75,42.06,80.05c.11,1.64.36,7.6.58,12.85.17,4.18.32,7.78.37,8.61s.08,2.44.1,4.16c0,2,0,4,.12,5.31-.53,1.73-5.93,8.39-10.72,13.68a2,2,0,0,0,3,2.68c7.93-8.76,11.88-14.29,11.75-16.44-.08-1.23-.1-3.38-.12-5.28s0-3.44-.1-4.35-.21-4.56-.38-8.54c-.22-5.27-.47-11.25-.57-12.93-.27-4.34,2.16-13,3.62-18.22,1.06-3.82,1.43-5.18,1.38-6a12.25,12.25,0,0,0-.71-2.71c-.58-1.77-1.79-5.44-.83-6.53a3.08,3.08,0,0,1,2.28,0c1.17.32,4,1.54,5.5,6.07,2,6.15.94,16.28.56,19.35-4.37,2.75-5.3,4.69-5.28,5.86a2,2,0,0,0,2,2h0a2,2,0,0,0,1.93-1.59c.15-.25,1-1.39,4.19-3.31l5.16-3.07a2.42,2.42,0,0,0,.36-.27c.42-.41,10.33-9.9,11.92-11.7.84-.95,4.83-5.16,8.34-8.87,3-3.19,5.63-5.94,6.12-6.49,1-1.17,11.45-11.4,13-12.42l.57-.37c2.78-1.85,3.46-2.05,4.31-1.3a2.13,2.13,0,0,1,.62,2L82.22,68.54a2,2,0,0,0,1.57,3.24A2,2,0,0,0,85.35,71l29.18-36.77s0,0,0,0l0,0c.75-1,2.79-3.19,4.31-3.41a1.08,1.08,0,0,1,.88.22A2.62,2.62,0,0,1,121,32.86a5.75,5.75,0,0,1-1.36,3.64l0,0-.08.09L91.91,75.87A2,2,0,0,0,93.54,79a2,2,0,0,0,1.64-.85l27-38.4a2.54,2.54,0,0,1,1.6.92c.28.36.51,2.48-1.24,6-1.88,3.82-5.93,10.29-6.1,10.56L97.56,86.48a2,2,0,0,0,.59,2.77,2,2,0,0,0,1.08.32,2,2,0,0,0,1.68-.92l18.79-29a1.08,1.08,0,0,1,1.37-.07c1.05.63.34,2.91-.39,4.28-.42.78-1.13,2.34-2,4.31-1.89,4.15-5,11.11-6.56,12.83-1.76,2-3.49,5.8-5.49,10.22-1,2.31-2.12,4.69-3.23,6.85-3.35,6.52-12,19.49-17.28,22.14-2.07,1-4.4,2.34-5.83,4.78a2,2,0,1,0,3.45,2c.79-1.34,2.18-2.23,4.17-3.22,7-3.48,16.4-18.73,19-23.89,1.15-2.25,2.25-4.68,3.31-7,1.72-3.78,3.49-7.69,4.84-9.22,1.78-2,4.32-7.45,7.21-13.83.83-1.83,1.55-3.41,1.91-4.08,2.18-4.1,1.77-7.87-1.07-9.58a5.42,5.42,0,0,0-1-.49c1.34-2.24,3-5.05,4-7.17C128.34,44,128.6,40.16,126.85,38.1Z"/><path d="M11.5,113a7.5,7.5,0,1,1,7.5-7.5A7.5,7.5,0,0,1,11.5,113Zm0-11a3.5,3.5,0,1,0,3.5,3.5A3.5,3.5,0,0,0,11.5,102Z"/><path d="M18,36a7,7,0,1,1,7-7A7,7,0,0,1,18,36Zm0-10a3,3,0,1,0,3,3A3,3,0,0,0,18,26Z"/><path d="M93.5,26a9.5,9.5,0,1,1,9.5-9.5A9.51,9.51,0,0,1,93.5,26Zm0-15A5.5,5.5,0,1,0,99,16.5,5.51,5.51,0,0,0,93.5,11Z"/><path d="M78.08,36.59a9.26,9.26,0,0,0-.49-4.35,8.35,8.35,0,0,1-.44-1.94c-.49-4.63-2.93-7.52-6.26-7.35a5.4,5.4,0,0,0-1.1.16c-.15-2.61-.38-5.85-.7-8.19-.68-4.91-2.64-8.28-5.24-9a6.75,6.75,0,0,0-3.1-.13,8,8,0,0,0-1.64-3.5A6.68,6.68,0,0,0,54.2,0a5.09,5.09,0,0,0-3.76,1.36,8.57,8.57,0,0,0-2.17,3.71,5.85,5.85,0,0,0-1.91-.58c-4.37-.57-5.92,3.19-7,5.93l-.26.61c-1,2.31-4.79,19-5,20.7a1.2,1.2,0,0,0,0,.19,13.43,13.43,0,0,0-4,9.57,13.66,13.66,0,0,0,.34,3,10.47,10.47,0,0,0-6.71,13.57,8.39,8.39,0,0,0-.94,1,42.39,42.39,0,0,0-6-5.58c-3.86-3-8.52-3.86-12.45-2.25C1.88,52.23.27,54,0,55.74c-.49,3.75,3.5,6.56,6.14,8.42.53.38,1.25.89,1.47,1.09.29.58,1,2.72,1.63,4.61,1.9,5.71,4.78,14.33,7.84,18.31.91,1.18,3.91,5.23,7,9.35a9.55,9.55,0,0,0,5.76,7.74,1.3,1.3,0,0,0,.1.15c.49.65,1.42,2,2.4,3.39,1.16,1.68,2.36,3.41,3.18,4.47s1.35,4.11,1.51,5.91A2,2,0,0,0,39,121h.18A2,2,0,0,0,41,118.82c-.09-.94-.6-5.74-2.33-8-.75-1-2-2.75-3.07-4.31l-.46-.67a9.45,9.45,0,0,0,4.64-2.23l.05,0A7.3,7.3,0,0,0,45,106a2,2,0,1,0,0-4c-1,0-1.46-.38-2.52-1.33a17.69,17.69,0,0,0-1.8-1.43,2,2,0,0,0-2.73.48A5.44,5.44,0,0,1,33.52,102,5.49,5.49,0,0,1,30,92.29a2,2,0,0,0,.72-1.6,2,2,0,0,0-.83-1.55A4.48,4.48,0,0,1,29.72,82a2,2,0,0,0-.53-3.43,6.48,6.48,0,0,1-3.1-9.62A2,2,0,0,0,26,66.56a4,4,0,0,1,1.16-6.07,2,2,0,0,0,.78-2.76A6.44,6.44,0,0,1,27,54.5,6.51,6.51,0,0,1,33.09,48a2,2,0,0,0,1.57-1,2,2,0,0,0,.13-1.84A9.41,9.41,0,0,1,34,41.5a9.52,9.52,0,0,1,9.5-9.5l.31,0h.22a2,2,0,0,0,2.08-1.65A6.49,6.49,0,0,1,59,31.5a6.27,6.27,0,0,1-.29,1.93,2,2,0,0,0,2,2.59L61,36a9,9,0,0,1,6.42,2.69,2,2,0,0,0,1.85.56A10.1,10.1,0,0,1,71.52,39,10.51,10.51,0,0,1,82,49.5a2,2,0,0,0,4,0A14.48,14.48,0,0,0,78.08,36.59ZM25.33,81A8.4,8.4,0,0,0,24,85.5a8.5,8.5,0,0,0,1.89,5.33,9.45,9.45,0,0,0-.83,1.32c-2.2-3-4.09-5.51-4.79-6.43-2.65-3.44-5.51-12-7.21-17.12-1.25-3.76-1.71-5.09-2.23-5.76A11.07,11.07,0,0,0,8.49,60.9c-1.39-1-4.66-3.29-4.49-4.61A3.63,3.63,0,0,1,6.2,54.8c1.2-.38,4.39-1,8,1.87,4.82,3.78,6.44,6.18,6.83,6.86,0,.15,0,.31,0,.47a8,8,0,0,0,1.05,4,10.46,10.46,0,0,0,3.26,13ZM42.62,28a13.47,13.47,0,0,0-3.92.87c1.18-5.31,3.48-15,4-16.31L43,12c1.26-3.07,1.71-3.63,2.84-3.48a2.16,2.16,0,0,1,1.64,1.32L47,22.55A10.46,10.46,0,0,0,42.62,28Zm8.47-6.93L51.5,9.55h0c0-1.26.51-4.19,1.65-5.24A1.07,1.07,0,0,1,54,4a2.57,2.57,0,0,1,2,.87A5.79,5.79,0,0,1,57,8.64s0,0,0,.07,0,.1,0,.16L57,22a10.38,10.38,0,0,0-4.49-1A11.32,11.32,0,0,0,51.09,21.1ZM61,25.36,61,9.89a2.62,2.62,0,0,1,1.81-.13c.44.15,1.82,1.78,2.36,5.71.58,4.22.85,11.88.86,12.17L66,33a13,13,0,0,0-3-.85c0-.21,0-.43,0-.65A10.39,10.39,0,0,0,61,25.36Zm9,9.73a.31.31,0,0,0,0-.1l0-7.16a1.12,1.12,0,0,1,1.1-.89h0c1.2,0,1.87,2.24,2,3.77a11.68,11.68,0,0,0,.63,2.78,5.4,5.4,0,0,1,.34,1.76A14.11,14.11,0,0,0,71.52,35C71,35,70.52,35,70,35.09Z"/></svg>