<?xml version="1.0" ?><svg data-name="Слой 1" id="Слой_1" viewBox="0 0 128 128" xmlns="http://www.w3.org/2000/svg"><title/><path d="M114.91,82.11A4.87,4.87,0,0,0,118.43,80c2.23-3.23,8.75-14.72,9.48-24.89.86-12.06-4.45-26.09-8.71-37.37C117.05,12.08,115,6.69,114.88,4c.64,0,1.32,0,2,0a2,2,0,0,0,0-4C104.08,0,99.64,4.45,97.5,6.59,90.83,13.25,89.91,20.82,89.91,28c0,7.8-1.3,18.59-7.5,25.68A68,68,0,0,1,72.84,62c-5.9,4.58-11.47,8.9-12.87,14.48-1.69,6.77,1.59,16.06,3.76,22.21.56,1.58,1,2.94,1.24,3.75A2,2,0,0,0,66.91,104a2.12,2.12,0,0,0,.49-.06,2,2,0,0,0,1.45-2.42c-.11-.47-.28-1-.49-1.64,1.88-1,7.7-2.21,13.21-1.64,4.18.43,8-2.5,9-7l2-6.38a2,2,0,0,0,.08-.35.87.87,0,0,1,.73-.77l3.55-.27V91h-1A2,2,0,0,0,94,92.3l-3,8s0,0,0,.08a2.68,2.68,0,0,0-.07.27,1.1,1.1,0,0,0,0,.18,1.31,1.31,0,0,0,0,.28,1.09,1.09,0,0,0,0,.18v.06l3,17a2,2,0,0,0,2,1.65h3v6a2,2,0,0,0,4,0v-6h4v6a2,2,0,0,0,4,0v-6h3a2,2,0,0,0,2-1.65l3-17a.13.13,0,0,1,0-.06,1.09,1.09,0,0,1,0-.18,2.61,2.61,0,0,0,0-.28l0-.18a2.68,2.68,0,0,0-.07-.27.24.24,0,0,0,0-.08l-3-8a2,2,0,0,0-1.87-1.3h-1V82.26ZM93,79.78a4.91,4.91,0,0,0-4.33,4.07l-1.94,6.3a.83.83,0,0,0,0,.15c-.49,2.16-2.28,4.22-4.72,4-4.42-.45-11.12.11-14.93,1.85-1.89-5.41-4.49-13.45-3.2-18.63,1.06-4.23,6.1-8.14,11.44-12.27a72.19,72.19,0,0,0,10.13-8.89c7-8,8.49-19.83,8.49-28.32,0-7.31,1.09-13.26,6.42-18.59,1.49-1.49,4-4,10.57-5,.24,3.35,2.11,8.3,4.56,14.77,4.12,10.91,9.26,24.48,8.46,35.67-.78,10.87-8.7,22.78-8.78,22.89a.89.89,0,0,1-.59.38ZM112.23,116H97.59L95.3,103h19.23ZM114,99H95.8l1.5-4h15.23Zm-5.12-8h-8V83.19l8-.62Z"/><path d="M108.84,50.61c-4.4-1.61-9.52,1.3-11.41,6.47s.15,10.71,4.55,12.31a7.36,7.36,0,0,0,2.52.45c3.68,0,7.36-2.71,8.9-6.92C115.29,57.74,113.24,52.21,108.84,50.61Zm.8,10.93c-1.14,3.11-4,4.95-6.29,4.1s-3.3-4.08-2.17-7.18c.95-2.6,3.07-4.3,5.1-4.3a3.5,3.5,0,0,1,1.19.2C109.8,55.21,110.77,58.44,109.64,61.54Z"/><path d="M32.34,86.34A13.26,13.26,0,0,1,20,77.9,17.37,17.37,0,0,1,4,50.77a21.56,21.56,0,0,1,8.86-32.26A17.39,17.39,0,0,1,40.5,3.37,13.2,13.2,0,0,1,61.37,17.25c0,.12-.07.23-.11.34A2,2,0,0,1,58.74,19a2,2,0,0,1-1.33-2.46l.07-.22A9.19,9.19,0,0,0,42,7.39a2,2,0,0,1-2.79.1,13.08,13.08,0,0,0-5.44-3A13.38,13.38,0,0,0,17,19.49a2,2,0,0,1-1.3,2.2A17.57,17.57,0,0,0,8.06,49.48a2,2,0,0,1,0,2.56,13.07,13.07,0,0,0-2.62,5A13.4,13.4,0,0,0,14.8,73.5a13.17,13.17,0,0,0,6.21.2,2,2,0,0,1,2.35,1.51,9.2,9.2,0,0,0,17.83.36l.06-.3a2,2,0,0,1,3.9.93c0,.2-.07.31-.1.43a13.24,13.24,0,0,1-12.71,9.71Z"/><path d="M74.79,48.31h0A20.25,20.25,0,0,1,67.18,47a16.15,16.15,0,0,0-6.29-1.09h0A16.23,16.23,0,0,0,54.58,47,20.39,20.39,0,0,1,47,48.3h0A20.46,20.46,0,0,1,39.36,47a16.22,16.22,0,0,0-6.3-1.1,2,2,0,0,1,0-4h0a20.25,20.25,0,0,1,7.61,1.32A16.41,16.41,0,0,0,47,44.3h0a16.42,16.42,0,0,0,6.29-1.09,19.59,19.59,0,0,1,7.61-1.31,20.39,20.39,0,0,1,7.6,1.31,16.22,16.22,0,0,0,6.3,1.1,2,2,0,0,1,0,4Z"/><path d="M83.91,34.27h0A20.67,20.67,0,0,1,76.3,33,16.12,16.12,0,0,0,70,31.85h0a16.42,16.42,0,0,0-6.29,1.09,20.23,20.23,0,0,1-7.6,1.31h0a20.5,20.5,0,0,1-7.61-1.31,16.22,16.22,0,0,0-6.3-1.1,2,2,0,0,1,0-4h0a20.25,20.25,0,0,1,7.61,1.32,16.44,16.44,0,0,0,6.3,1.09h0a16.25,16.25,0,0,0,6.3-1.09A20.37,20.37,0,0,1,70,27.85h0a20.15,20.15,0,0,1,7.6,1.32,16.41,16.41,0,0,0,6.3,1.1,2,2,0,0,1,0,4Z"/><path d="M65.62,62.16h0A20.15,20.15,0,0,1,58,60.84a16.44,16.44,0,0,0-6.3-1.09h0a16.25,16.25,0,0,0-6.3,1.09,20.37,20.37,0,0,1-7.59,1.31h0a20.25,20.25,0,0,1-7.61-1.32,16.37,16.37,0,0,0-6.3-1.1,2,2,0,0,1,0-4h0a20.62,20.62,0,0,1,7.61,1.32,16.22,16.22,0,0,0,6.3,1.1h0a16.42,16.42,0,0,0,6.29-1.09,20.23,20.23,0,0,1,7.6-1.31h0a20.5,20.5,0,0,1,7.61,1.31,16.12,16.12,0,0,0,6.29,1.1,2,2,0,0,1,0,4Z"/></svg>