<?xml version="1.0" ?><svg data-name="Слой 1" id="Слой_1" viewBox="0 0 128 128" xmlns="http://www.w3.org/2000/svg"><title/><path d="M38.34,58.34a8,8,0,1,0,11.32,0A8,8,0,0,0,38.34,58.34Zm8.49,8.49a4,4,0,1,1,0-5.66A4,4,0,0,1,46.83,66.83Z"/><path d="M58.34,38.34a8,8,0,1,0,11.32,0A8,8,0,0,0,58.34,38.34Zm8.49,8.49a4,4,0,1,1,0-5.66A4,4,0,0,1,66.83,46.83Z"/><path d="M78.34,58.34a8,8,0,1,0,11.32,0A8,8,0,0,0,78.34,58.34Zm8.49,8.49a4,4,0,1,1,0-5.66A4,4,0,0,1,86.83,66.83Z"/><path d="M58.34,78.34a8,8,0,1,0,11.32,0A8,8,0,0,0,58.34,78.34Zm8.49,8.49a4,4,0,1,1,0-5.66A4,4,0,0,1,66.83,86.83Z"/><path d="M126,54a2,2,0,0,0-2,2v6h-9.26a18.87,18.87,0,0,0-3-5.89,16.27,16.27,0,0,1-2.32-4.28,16.73,16.73,0,0,1-.15-5.07c.18-2.83.37-5.75-1.09-8.27s-4.12-3.85-6.68-5.11c-.94-.47-1.84-.92-2.64-1.41l9-9,4.24,4.24a2,2,0,0,0,1.42.59,2,2,0,0,0,1.41-3.42l-5.65-5.65h0l-5.65-5.65a2,2,0,0,0-2.83,2.83L105,20.16l-9,9c-.49-.8-.94-1.7-1.4-2.63-1.27-2.57-2.57-5.22-5.12-6.69s-5.44-1.27-8.27-1.09a16.75,16.75,0,0,1-5.07-.15,16.27,16.27,0,0,1-4.28-2.32,18.87,18.87,0,0,0-5.89-3V4h6a2,2,0,0,0,0-4H56a2,2,0,0,0,0,4h6v9.26a18.87,18.87,0,0,0-5.89,3,16.27,16.27,0,0,1-4.28,2.32,16.73,16.73,0,0,1-5.07.15c-2.83-.18-5.75-.37-8.27,1.09S34.64,24,33.38,26.51c-.47.94-.92,1.84-1.41,2.64l-9-9,4.24-4.24a2,2,0,0,0-2.83-2.83l-5.65,5.65h0L13.09,24.4a2,2,0,1,0,2.83,2.83L20.16,23l9,9c-.8.49-1.7.94-2.63,1.4-2.57,1.27-5.22,2.57-6.69,5.12s-1.27,5.44-1.09,8.27a16.74,16.74,0,0,1-.15,5.07,16.27,16.27,0,0,1-2.32,4.28,18.87,18.87,0,0,0-3,5.89H4V56a2,2,0,0,0-4,0V72a2,2,0,0,0,4,0V66h9.26a18.87,18.87,0,0,0,3,5.89,16.27,16.27,0,0,1,2.32,4.28,16.73,16.73,0,0,1,.15,5.07c-.18,2.83-.37,5.75,1.09,8.27s4.12,3.85,6.68,5.12c.94.46,1.84.91,2.64,1.4l-9,9-4.24-4.24a2,2,0,0,0-2.83,2.83l5.65,5.65h0l5.65,5.65a2,2,0,1,0,2.83-2.83L23,107.84l9-9c.49.8.94,1.7,1.4,2.63,1.27,2.57,2.57,5.22,5.12,6.69s5.44,1.27,8.27,1.09a16.73,16.73,0,0,1,5.07.15,16.27,16.27,0,0,1,4.28,2.32,18.87,18.87,0,0,0,5.89,3V124H56a2,2,0,0,0,0,4H72a2,2,0,0,0,0-4H66v-9.26a18.87,18.87,0,0,0,5.89-3,16.27,16.27,0,0,1,4.28-2.32,16.75,16.75,0,0,1,5.07-.15c2.83.18,5.75.37,8.27-1.09s3.85-4.12,5.12-6.68c.46-.94.91-1.84,1.4-2.64l9,9-4.24,4.24a2,2,0,1,0,2.83,2.83l5.65-5.65h0l5.65-5.65a2,2,0,0,0-2.83-2.83L107.84,105l-9-9c.8-.49,1.7-.94,2.63-1.4,2.57-1.27,5.22-2.57,6.69-5.12s1.27-5.44,1.09-8.27a16.74,16.74,0,0,1,.15-5.07,16.27,16.27,0,0,1,2.32-4.28,18.87,18.87,0,0,0,3-5.89H124v6a2,2,0,0,0,4,0V56A2,2,0,0,0,126,54ZM108.41,69.67a18.71,18.71,0,0,0-2.86,5.47,19.33,19.33,0,0,0-.28,6.35c.15,2.34.29,4.55-.56,6s-2.87,2.49-5,3.54a18.94,18.94,0,0,0-5.31,3.37A19.08,19.08,0,0,0,91,99.72c-1.05,2.12-2,4.12-3.54,5s-3.67.71-6,.56a19.32,19.32,0,0,0-6.35.28,18.71,18.71,0,0,0-5.47,2.86c-2,1.33-3.87,2.59-5.67,2.59s-3.68-1.26-5.67-2.59a18.71,18.71,0,0,0-5.47-2.86,13.17,13.17,0,0,0-3.49-.4c-1,0-1.92.06-2.86.12-2.34.15-4.55.29-6-.56s-2.49-2.87-3.54-5a18.94,18.94,0,0,0-3.37-5.31A19.08,19.08,0,0,0,28.28,91c-2.12-1.05-4.12-2-5-3.54s-.71-3.67-.56-6a19.33,19.33,0,0,0-.28-6.35,18.71,18.71,0,0,0-2.86-5.47C18.26,67.68,17,65.8,17,64s1.26-3.68,2.59-5.67a18.71,18.71,0,0,0,2.86-5.47,19.33,19.33,0,0,0,.28-6.35c-.15-2.34-.29-4.55.56-6s2.87-2.49,5-3.54a18.94,18.94,0,0,0,5.31-3.37A19.08,19.08,0,0,0,37,28.28c1-2.12,2-4.12,3.54-5s3.67-.71,6-.56a19.32,19.32,0,0,0,6.35-.28,18.71,18.71,0,0,0,5.47-2.86C60.32,18.26,62.2,17,64,17s3.68,1.26,5.67,2.59a18.71,18.71,0,0,0,5.47,2.86,19.33,19.33,0,0,0,6.35.28c2.34-.15,4.55-.29,6,.56s2.49,2.87,3.54,5a18.94,18.94,0,0,0,3.37,5.31A19.08,19.08,0,0,0,99.72,37c2.12,1,4.12,2,5,3.54s.71,3.67.56,6a19.33,19.33,0,0,0,.28,6.35,18.71,18.71,0,0,0,2.86,5.47c1.33,2,2.59,3.87,2.59,5.67S109.74,67.68,108.41,69.67Z"/></svg>