<?xml version="1.0" ?><svg data-name="Слой 1" id="Слой_1" viewBox="0 0 128 128" xmlns="http://www.w3.org/2000/svg"><title/><path d="M120.48,6.16c-9.16-8.54-24-8.11-33,1L34.15,60.49c-2.9,2.9-4.41,7.61-6.15,13.07-2.14,6.7-4.57,14.31-10.14,19.89L3.32,108a12.13,12.13,0,0,0,0,16.7A11.83,11.83,0,0,0,11.66,128h0A11.82,11.82,0,0,0,20,124.71l14.54-14.56c5.58-5.6,13.17-8,19.87-10.15,5.41-1.72,10.08-3.21,12.94-6.08L121.1,40.1a23.6,23.6,0,0,0-.62-33.94ZM17.17,121.88A7.8,7.8,0,0,1,11.66,124a7.8,7.8,0,0,1-5.51-2.14,8.24,8.24,0,0,1,0-11l10.6-10.62,11,11Zm101.1-84.61L64.53,91.1c-2.18,2.18-6.42,3.53-11.33,5.09C46.42,98.35,38,101,31.71,107.32l-1.11,1.11-11-11,1.11-1.11C27,90,29.65,81.56,31.81,74.77c1.59-5,2.95-9.23,5.17-11.45L90.26,10A20.33,20.33,0,0,1,104.63,4a19.12,19.12,0,0,1,13.12,5.08,19.59,19.59,0,0,1,.52,28.18Z"/><path d="M79.52,67a2,2,0,0,1-1.42-.59L61.48,49.81a2,2,0,0,1,0-2.83L94.72,13.69a2.06,2.06,0,0,1,2.83,0l16.62,16.65a2,2,0,0,1,0,2.83L80.93,66.45A2,2,0,0,1,79.52,67ZM65.73,48.4,79.52,62.21l30.41-30.46L96.14,17.94Z"/></svg>