<?xml version="1.0" ?><svg data-name="Слой 1" id="Слой_1" viewBox="0 0 128 128" xmlns="http://www.w3.org/2000/svg"><title/><path d="M117.05,69,120.39,65l2,1.61a2,2,0,0,0,1.27.45,2,2,0,0,0,1.27-3.54l-3.52-2.89h0l-3.59-2.94a2,2,0,0,0-2.53,3.1l2,1.67L114,66.5a33.76,33.76,0,0,0-18-6.44V54h6a2,2,0,0,0,0-4H86a2,2,0,0,0,0,4h6v6.06a34.05,34.05,0,1,0,25,9ZM94,124a30,30,0,1,1,30-30A30,30,0,0,1,94,124Z"/><path d="M103.9,72.22a2,2,0,1,0-1.66,3.64A19.94,19.94,0,1,1,81.51,78.5l-.28.93a2,2,0,0,0,1.32,2.5,2.06,2.06,0,0,0,.59.09,2,2,0,0,0,1.91-1.42l1.84-6a2,2,0,0,0-1.32-2.5l-6-1.84a2,2,0,1,0-1.17,3.82l1.66.51a23.9,23.9,0,1,0,23.85-2.37Z"/><path d="M92,99.41v.78a2,2,0,0,0,4,0v-.78a5.77,5.77,0,0,0,0-10.82V72.08a2,2,0,1,0-4,0V88.59a5.77,5.77,0,0,0,0,10.82Zm2-7.18A1.77,1.77,0,1,1,92.23,94,1.77,1.77,0,0,1,94,92.23Z"/><path d="M56,104H41V24H82v2a2,2,0,0,0,4,0V22a2,2,0,0,0-2-2H39.62L11.14.35A2,2,0,0,0,8,2V62H2a2,2,0,0,0-2,2V75a2,2,0,0,0,4,0V66H8v60a2,2,0,0,0,1.07,1.77,2,2,0,0,0,2.07-.12L39.62,108H56a2,2,0,0,0,0-4ZM12,5.81,37,23.05V105L12,122.19Z"/><path d="M101,22a5,5,0,0,1,0,10H66a2,2,0,0,0,0,4h35a9,9,0,0,0,0-18,2,2,0,0,0,0,4Z"/><path d="M118,26a2,2,0,0,0,0,4,6,6,0,0,1,0,12H55.14a2,2,0,0,0,0,4H118a10,10,0,0,0,0-20Z"/></svg>