<?xml version="1.0" ?><svg data-name="Слой 1" id="Слой_1" viewBox="0 0 128 128" xmlns="http://www.w3.org/2000/svg"><title/><path d="M64,0a64,64,0,1,0,64,64A64.07,64.07,0,0,0,64,0Zm0,4a59.79,59.79,0,0,1,41,16.21L20.21,105A60,60,0,0,1,64,4Zm0,120a59.79,59.79,0,0,1-41-16.21L107.79,23A60,60,0,0,1,64,124Z"/><path d="M105.39,29.74a8.23,8.23,0,0,0-7.14-1.46c-4.27,1.22-7,6-8.22,8.87l-.08,0c-2.33-.67-4.9-1.67-7.63-2.73C76.58,32.16,70.07,29.63,64,29.63c-6.71,0-14.43,3-20.63,5.47-2,.78-3.84,1.51-5.39,2-1.26-2.85-4-7.63-8.21-8.85a8.23,8.23,0,0,0-7.14,1.46C20.49,31.34,18,34.69,18,41.57,18,52,30.67,72,31.21,72.83l0,.06c1.83,5.34,3.78,9.92,4.82,11C42,89.84,55.5,94,64,94c.92,0,1.91,0,2.94-.14a2,2,0,1,0-.37-4C65.64,90,64.78,90,64,90c-8.36,0-20.53-4.34-25-8.91C37.5,79.37,31,61.58,31,54.93c0-5.58,4.12-12.64,8.17-14,1.66-.55,3.59-1.31,5.63-2.12C50.7,36.51,58,33.63,64,33.63c5.34,0,11.21,2.28,16.89,4.49,2.82,1.1,5.48,2.13,8,2.84a5.34,5.34,0,0,1,1.13.51,2,2,0,0,0,.32.18c3.35,2.17,6.54,8.22,6.77,13.33a2,2,0,1,0,4-.17c-.24-5.47-3.29-12.24-7.51-15.7,1-2.4,3.17-6.23,5.8-7a4.23,4.23,0,0,1,3.63.8c2,1.49,3.06,4.56,3.06,8.64,0,3.38-1.79,8.82-5.16,15.73A2,2,0,0,0,101.8,60a2.09,2.09,0,0,0,.88.2,2,2,0,0,0,1.8-1.12c3.69-7.57,5.56-13.45,5.56-17.49C110,34.69,107.51,31.34,105.39,29.74ZM27,54.93a20.2,20.2,0,0,0,.21,2.58C24.4,51.71,22,45.54,22,41.57s1.09-7.15,3.06-8.64a4.23,4.23,0,0,1,3.63-.8c2.65.76,4.76,4.54,5.81,7C30,42.68,27,49.56,27,54.93Z"/><path d="M48,64.87a141,141,0,0,0,15,2h.08a2,2,0,0,0,.07-4,143.61,143.61,0,0,1-14.42-1.9A2,2,0,1,0,48,64.87Z"/><path d="M48,51.8c.23,0,5.7,1,10.66,1.6h.23a2,2,0,0,0,.22-4c-4.82-.55-10.34-1.55-10.4-1.56A2,2,0,0,0,48,51.8Z"/><path d="M116.93,88.19a84.59,84.59,0,0,1-3.56-8.72c-.37-1-.72-2-1.07-2.88a34.46,34.46,0,0,0-3.17-5.91,35.8,35.8,0,0,1-2.73-4.91,22.5,22.5,0,0,1-1.31-5.13,14,14,0,0,0-1.53-5.08,5.2,5.2,0,0,0-5.09-2.3c-2.45.33-4.36,2.18-5.25,5.08A16.34,16.34,0,0,0,93.64,70c-2.66-1.9-4.93-3.56-5.59-4.16-1-.93-7.12-5.8-12.53-10-11.69-9.13-12.13-9.1-13.07-9.07a6.77,6.77,0,0,0-4.92,2.85,4.61,4.61,0,0,0-.09,4.45c.73,1.56,5.79,6.34,11.62,11.54a8.69,8.69,0,0,0-3.25,4,5.68,5.68,0,0,0,.45,4.72,8.49,8.49,0,0,0-2.37,6.56c.2,1.68,1.58,3.76,2.68,5.18a8.89,8.89,0,0,0-1.5,3.27c-.9,4,1.71,7,4.38,9.42,1,1,2.62,2.58,4.43,4.47,3.54,3.7,8,8.31,11.3,10.64a37.91,37.91,0,0,0,10.27,5A1.75,1.75,0,0,0,96,119a2,2,0,0,0,.55-3.92,34.67,34.67,0,0,1-9.09-4.48c-3-2.1-7.27-6.55-10.69-10.12-1.87-2-3.48-3.63-4.64-4.68-3.38-3.06-3.4-4.48-3.16-5.57a5.21,5.21,0,0,1,.32-.92,29.38,29.38,0,0,0,5.64,4.77,2,2,0,1,0,2.13-3.38A27.61,27.61,0,0,1,70.81,85l0,0,0-.06c-1.28-1.45-2.76-3.61-2.86-4.41A4.28,4.28,0,0,1,69,77.35c2.65,2.49,8.27,7.77,9.94,9.23a2,2,0,0,0,2.63-3C79.42,81.73,70.39,73.2,70.3,73.12h0S69.19,72,69.57,71a4.27,4.27,0,0,1,2.26-2.28,1.1,1.1,0,0,1,1,.24c5.47,4.8,11,9.44,13.72,11.77a2,2,0,0,0,1.29.46,2,2,0,0,0,1.29-3.53c-4.5-3.78-9.13-7.75-13.3-11.4h0l-.06,0c-7.79-6.82-14-12.53-14.7-13.81-.23-.47-.14-.63-.11-.68a2.62,2.62,0,0,1,1.3-.83c3.34,2.15,20.91,16,23.11,18,1.89,1.71,12.4,9,13.6,9.79a2,2,0,1,0,2.27-3.29l-2.29-1.59a11.55,11.55,0,0,0-1.5-5c-.76-1.44-1.82-4.56-.4-9.22.41-1.34,1.13-2.17,2-2.29a1.21,1.21,0,0,1,1.18.48,11.94,11.94,0,0,1,1,3.62,26,26,0,0,0,1.57,6,40.28,40.28,0,0,0,3,5.46A30.73,30.73,0,0,1,108.56,78c.34.9.69,1.86,1.06,2.84A84.61,84.61,0,0,0,113.38,90c1,1.85.32,6.15-.31,8.44a2,2,0,0,0,1.4,2.46,2,2,0,0,0,.53.07,2,2,0,0,0,1.93-1.46C117.14,98.78,118.93,92,116.93,88.19Z"/></svg>