<?xml version="1.0" ?><svg data-name="Слой 1" id="Слой_1" viewBox="0 0 128 128" xmlns="http://www.w3.org/2000/svg"><title/><path d="M125,41.91A9.37,9.37,0,0,0,116,33H67.91a11.27,11.27,0,0,0-22.19,0H35a8,8,0,0,0-7.33,4.16L11.5,66.67,8.16,69a7.42,7.42,0,0,0-3.07,4.76l-5,27.15a6.63,6.63,0,0,0,1.52,5.45A7.1,7.1,0,0,0,7,109H17.25a14.67,14.67,0,0,0,29,0h37a14.67,14.67,0,0,0,29,0H126a2,2,0,0,0,1.45-.62,2,2,0,0,0,.55-1.47ZM56.82,27.72a7.29,7.29,0,0,1,7,5.28h-14A7.3,7.3,0,0,1,56.82,27.72ZM25.19,50H47.56l-3.2,16H16.43Zm6.55,67.35a10.7,10.7,0,1,1,10.69-10.7A10.71,10.71,0,0,1,31.74,117.35Zm65.91,0a10.7,10.7,0,1,1,10.7-10.7A10.71,10.71,0,0,1,97.65,117.35ZM112.25,105a14.69,14.69,0,0,0-29.19,0H46.33a14.69,14.69,0,0,0-29.19,0H7a3.14,3.14,0,0,1-2.28-1.2A2.69,2.69,0,0,1,4,101.63L9,74.48a3.43,3.43,0,0,1,1.42-2.21L13.72,70H46a2,2,0,0,0,2-1.61l4-20a2,2,0,0,0-.41-1.66A2,2,0,0,0,50,46H27.38l3.79-6.92A4,4,0,0,1,35,37h81a5.41,5.41,0,0,1,5,5.09L123.91,105Z"/><path d="M105,56H96V47a4.09,4.09,0,0,0-4.25-4h-9.5A4.09,4.09,0,0,0,78,47v9H69a4.09,4.09,0,0,0-4,4.25v9.5A4.09,4.09,0,0,0,69,74h9v9a4.09,4.09,0,0,0,4.25,4h9.5A4.09,4.09,0,0,0,96,83V74h9a4.09,4.09,0,0,0,4-4.25v-9.5A4.09,4.09,0,0,0,105,56Zm0,13.75c0,.14,0,.24,0,.25H94a2,2,0,0,0-2,2l0,10.92a.48.48,0,0,1-.28.08h-9.5L82,83h0V72a2,2,0,0,0-2-2L69.08,70a.48.48,0,0,1-.08-.28v-9.5c0-.14,0-.24,0-.25H80a2,2,0,0,0,2-2l0-10.92a.48.48,0,0,1,.28-.08h9.5c.14,0,.24,0,.25,0V58a2,2,0,0,0,2,2h10.94a.48.48,0,0,1,.06.25Z"/><path d="M45.64,20.14a2,2,0,0,0,1.41.59,2,2,0,0,0,1.42-.59,2,2,0,0,0,0-2.82L44,12.89a2,2,0,1,0-2.83,2.83Z"/><path d="M66.58,20.73A2,2,0,0,0,68,20.14l4.43-4.42a2,2,0,0,0-2.82-2.83l-4.43,4.43a2,2,0,0,0,1.41,3.41Z"/><path d="M56.82,17.26a2,2,0,0,0,2-2V9a2,2,0,1,0-4,0v6.26A2,2,0,0,0,56.82,17.26Z"/></svg>