<?xml version="1.0" ?><svg data-name="Слой 1" id="Слой_1" viewBox="0 0 128 128" xmlns="http://www.w3.org/2000/svg"><title/><path d="M120.48,6.16c-9.16-8.54-24-8.11-33,1L34.15,60.49c-2.9,2.9-4.4,7.61-6.15,13.07-2.14,6.7-4.57,14.31-10.14,19.89L15.34,96h0l-12,12a12.13,12.13,0,0,0,0,16.7A11.78,11.78,0,0,0,11.66,128,11.8,11.8,0,0,0,20,124.71l14.54-14.56c5.58-5.6,13.17-8,19.87-10.15,5.41-1.72,10.08-3.21,12.94-6.08L121.09,40.1a23.59,23.59,0,0,0-.61-33.94ZM17.17,121.88A7.8,7.8,0,0,1,11.66,124a7.8,7.8,0,0,1-5.51-2.14,8.24,8.24,0,0,1,0-11l10.6-10.62,11,11Zm101.1-84.61L64.53,91.1c-2.18,2.18-6.42,3.53-11.33,5.09C46.42,98.35,38,101,31.71,107.32l-1.11,1.11-11-11,1.11-1.11C27,90,29.65,81.56,31.81,74.77c1.59-5,2.95-9.23,5.17-11.45L90.26,10A20.33,20.33,0,0,1,104.63,4a19.12,19.12,0,0,1,13.12,5.08,19.59,19.59,0,0,1,.52,28.18Z"/><path d="M97.55,13.69a2.06,2.06,0,0,0-2.83,0L61.48,47a2,2,0,0,0,0,2.83L78.1,66.45a2,2,0,0,0,1.42.59,2,2,0,0,0,1.41-.59l33.24-33.28a2,2,0,0,0,0-2.83Zm-18,48.52L65.73,48.4,96.14,17.94l13.79,13.81Z"/><path d="M126,128H70a2,2,0,0,1-1.73-3l28-48.37a2,2,0,0,1,3.46,0l28,48.37a2,2,0,0,1-1.73,3Zm-52.53-4h49.06L98,81.63Z"/><path d="M98,121a2,2,0,0,1-1.41-.59,1.42,1.42,0,0,1-.25-.3,2.27,2.27,0,0,1-.19-.34,1.82,1.82,0,0,1-.11-.38,1.72,1.72,0,0,1,0-.39,2,2,0,0,1,.59-1.42,2.07,2.07,0,0,1,2.82,0A2,2,0,0,1,100,119a1.72,1.72,0,0,1,0,.39,2.72,2.72,0,0,1-.11.38,2.27,2.27,0,0,1-.19.34,1.42,1.42,0,0,1-.25.3A2,2,0,0,1,98,121Z"/><path d="M98,113a2,2,0,0,1-2-2V99a2,2,0,0,1,4,0v12A2,2,0,0,1,98,113Z"/><path d="M30,39.2a2,2,0,0,0-2,2A7.64,7.64,0,0,1,20,49a7.64,7.64,0,0,1-8-7.8V20h6.8a2,2,0,0,0,0-4H12V2A2,2,0,0,0,8,2V16H2a2,2,0,0,0,0,4H8V41.2A11.64,11.64,0,0,0,20,53,11.64,11.64,0,0,0,32,41.2,2,2,0,0,0,30,39.2Z"/><path d="M39,0a8,8,0,1,0,8,8A8,8,0,0,0,39,0Zm0,12a4,4,0,1,1,4-4A4,4,0,0,1,39,12Z"/></svg>