<?xml version="1.0" ?><svg data-name="Слой 1" id="Слой_1" viewBox="0 0 128 128" xmlns="http://www.w3.org/2000/svg"><title/><path d="M58,128H10a2,2,0,0,1-2-1.87l-4-64A2,2,0,0,1,6,60H62a2,2,0,0,1,2,2.13l-4,64A2,2,0,0,1,58,128Zm-46.12-4H56.12l3.75-60H8.13Z"/><path d="M66,64H2a2,2,0,0,1,0-4H66a2,2,0,0,1,0,4Z"/><path d="M60,83.59a20.35,20.35,0,0,1-9.64-2.18,16.54,16.54,0,0,0-8-1.82,16.48,16.48,0,0,0-8,1.82,20.47,20.47,0,0,1-9.64,2.18,20.47,20.47,0,0,1-9.64-2.18,16.54,16.54,0,0,0-8-1.82,2,2,0,1,1,0-4,20.47,20.47,0,0,1,9.64,2.18,16.36,16.36,0,0,0,8,1.82,16.42,16.42,0,0,0,8-1.82,20.47,20.47,0,0,1,9.64-2.18A20.47,20.47,0,0,1,52,77.77a16.42,16.42,0,0,0,8,1.82,2,2,0,0,1,0,4Z"/><path d="M94,73H82a2,2,0,0,1-2-2V8A8,8,0,0,1,96,8V71A2,2,0,0,1,94,73ZM84,69h8V8a4,4,0,0,0-8,0Z"/><path d="M79,93a2,2,0,0,1-2-2V71a2,2,0,0,1,2-2H97a2,2,0,0,1,2,2V82a2,2,0,0,1-4,0V73H81V91A2,2,0,0,1,79,93Z"/><path d="M122.62,121.83h-.15c-.59,0-14.51-1.1-22.43-3.08-8.35-2.09-16.37-11-16.71-11.41a2,2,0,0,1,3-2.66c.08.09,7.54,8.4,14.69,10.19,7.59,1.89,21.62,3,21.76,3a2,2,0,0,1-.15,4Z"/><path d="M114.26,107a2,2,0,0,1-1-.29c-14.63-9-35.19-10.49-35.4-10.5A2,2,0,0,1,76,94.1a2,2,0,0,1,2.14-1.85c.88.06,21.76,1.61,37.21,11.08a2,2,0,0,1-1,3.7Z"/><path d="M120.47,114.94a2,2,0,0,1-1.66-.88c-.11-.17-11.39-16.74-22.89-20.88a89.71,89.71,0,0,0-13.81-3.3,2,2,0,1,1,.6-4,92.8,92.8,0,0,1,14.57,3.5C110,94,121.64,111.1,122.13,111.82a2,2,0,0,1-1.66,3.12Z"/><path d="M108.75,128c-10,0-21.44-1.94-28.77-9.27a22.13,22.13,0,0,1,0-31.28h0a22.15,22.15,0,0,1,31.28,0c6.32,6.32,8.53,14.9,10.49,22.47.17.65.33,1.31.5,1.95l5,4a2,2,0,0,1,.75,1.5,4.25,4.25,0,0,1-2.61,3.84,19.43,19.43,0,0,0,1.22,2.18,2,2,0,0,1-1.32,3A94.08,94.08,0,0,1,108.75,128ZM82.81,90.26a18.12,18.12,0,0,0,0,25.62c9.87,9.87,28.89,8.61,39,7.07-.37-.74-.71-1.54-1-2.39a2,2,0,0,1,.17-1.8,2,2,0,0,1,1.55-.92,5,5,0,0,0,.72-.11l-4-3.17a2,2,0,0,1-.68-1l-.69-2.62c-1.91-7.42-3.89-15.09-9.44-20.64a18.12,18.12,0,0,0-25.62,0ZM124,117.31Z"/><path d="M120.49,115h-.18a84.9,84.9,0,0,1-13.18-2.25c-5.33-1.57-7.83-3.86-8.09-4.12a2,2,0,1,1,2.77-2.88,17.24,17.24,0,0,0,6.45,3.16A83.39,83.39,0,0,0,120.67,111a2,2,0,0,1-.18,4Z"/></svg>