<?xml version="1.0" ?><svg data-name="Слой 1" id="Слой_1" viewBox="0 0 128 128" xmlns="http://www.w3.org/2000/svg"><title/><path d="M101.5,4A15.55,15.55,0,0,1,117,19.56V47h-2a2,2,0,0,0-2,2V61.58a2,2,0,0,0,2,2h2V78.72a2,2,0,0,0,4,0V63.58h2a2,2,0,0,0,2-2V49a2,2,0,0,0-2-2h-2V19.56a19.5,19.5,0,1,0-39,0V31H78a2,2,0,0,0-2,2V66a2,2,0,0,0,2,2h4v32.39a23.5,23.5,0,1,1-47,0V100h5a2,2,0,0,0,2-2V92.58c14-1.52,24-10.1,24-15.85V16.8A10.81,10.81,0,0,0,55.22,6H49.79c-4,0-7.15-1.8-9.87-3.39C37.61,1.27,35.43,0,33,0s-4.61,1.27-6.92,2.61C23.36,4.2,20.26,6,16.21,6H10.78A10.81,10.81,0,0,0,0,16.8V76.73C0,82.49,10.41,91,24,92.57V98a2,2,0,0,0,2,2h5v.39a27.5,27.5,0,1,0,55,0V68h4a2,2,0,0,0,2-2V33a2,2,0,0,0-2-2H86V19.56A15.55,15.55,0,0,1,101.5,4ZM121,59.58h-4V51h4ZM33,4c1.32,0,2.93.92,4.78,2H28.22C30.07,4.92,31.68,4,33,4ZM10.78,10H55.22A6.8,6.8,0,0,1,62,16.8V32.91a43.79,43.79,0,0,1-8-.93,48.63,48.63,0,0,0-10.72-1,48.45,48.45,0,0,0-10.71,1,45,45,0,0,1-9.95,1,45,45,0,0,1-10-1A46.92,46.92,0,0,0,4,31V16.8A6.8,6.8,0,0,1,10.78,10ZM4,76.73V35a43.79,43.79,0,0,1,8,.93,48.56,48.56,0,0,0,10.72,1,48.53,48.53,0,0,0,10.71-1,45,45,0,0,1,9.95-1,45,45,0,0,1,10,1,46.07,46.07,0,0,0,8.71,1V76.73c0,3.49-9.7,12.09-24.34,12.09H28.34C13.83,88.82,4,79.75,4,76.73ZM28,92.82H38V96H28ZM88,64H80V35h8Z"/><path d="M120.47,84.59a2,2,0,0,0-2.83,0c-.77.77-7.52,7.69-7.52,13.47a8.94,8.94,0,0,0,17.88,0C128,92.28,121.24,85.36,120.47,84.59ZM119.06,103a4.94,4.94,0,0,1-4.94-4.94c0-2.56,2.63-6.45,4.94-9.11,2.3,2.66,4.94,6.55,4.94,9.11A5,5,0,0,1,119.06,103Z"/></svg>