<?xml version="1.0" ?><svg data-name="Слой 1" id="Слой_1" viewBox="0 0 128 128" xmlns="http://www.w3.org/2000/svg"><title/><path d="M62.12,128H9.88A9.89,9.89,0,0,1,0,118.12V9.88A9.89,9.89,0,0,1,9.88,0H62.12A9.89,9.89,0,0,1,72,9.88V118.12A9.89,9.89,0,0,1,62.12,128ZM9.88,4A5.89,5.89,0,0,0,4,9.88V118.12A5.89,5.89,0,0,0,9.88,124H62.12A5.89,5.89,0,0,0,68,118.12V9.88A5.89,5.89,0,0,0,62.12,4Z"/><path d="M22.5,33A9.5,9.5,0,1,1,32,23.5,9.51,9.51,0,0,1,22.5,33Zm0-15A5.5,5.5,0,1,0,28,23.5,5.51,5.51,0,0,0,22.5,18Z"/><path d="M49.5,33A9.5,9.5,0,1,1,59,23.5,9.51,9.51,0,0,1,49.5,33Zm0-15A5.5,5.5,0,1,0,55,23.5,5.51,5.51,0,0,0,49.5,18Z"/><path d="M22.5,60A9.5,9.5,0,1,1,32,50.5,9.51,9.51,0,0,1,22.5,60Zm0-15A5.5,5.5,0,1,0,28,50.5,5.51,5.51,0,0,0,22.5,45Z"/><path d="M49.5,60A9.5,9.5,0,1,1,59,50.5,9.51,9.51,0,0,1,49.5,60Zm0-15A5.5,5.5,0,1,0,55,50.5,5.51,5.51,0,0,0,49.5,45Z"/><path d="M22.5,87A9.5,9.5,0,1,1,32,77.5,9.51,9.51,0,0,1,22.5,87Zm0-15A5.5,5.5,0,1,0,28,77.5,5.51,5.51,0,0,0,22.5,72Z"/><path d="M49.5,87A9.5,9.5,0,1,1,59,77.5,9.51,9.51,0,0,1,49.5,87Zm0-15A5.5,5.5,0,1,0,55,77.5,5.51,5.51,0,0,0,49.5,72Z"/><path d="M22.5,114a9.5,9.5,0,1,1,9.5-9.5A9.51,9.51,0,0,1,22.5,114Zm0-15a5.5,5.5,0,1,0,5.5,5.5A5.51,5.51,0,0,0,22.5,99Z"/><path d="M49.5,114a9.5,9.5,0,1,1,9.5-9.5A9.51,9.51,0,0,1,49.5,114Zm0-15a5.5,5.5,0,1,0,5.5,5.5A5.51,5.51,0,0,0,49.5,99Z"/><path d="M119.9,56.78A18.39,18.39,0,0,1,115.47,51H117a2,2,0,0,0,2-2V33a2,2,0,0,0-2-2H79a2,2,0,0,0-2,2V49a2,2,0,0,0,2,2h1.53a18.39,18.39,0,0,1-4.43,5.78,26.19,26.19,0,0,0-8.1,19V126a2,2,0,0,0,2,2h56a2,2,0,0,0,2-2V75.79A26.19,26.19,0,0,0,119.9,56.78ZM81,35h34V47H81Zm43,89H72V75.79a22.2,22.2,0,0,1,6.85-16.1c3.26-3.08,5.23-6,5.9-8.69h26.5c.67,2.7,2.64,5.61,5.9,8.69A22.2,22.2,0,0,1,124,75.79Z"/><path d="M110,100H86a10,10,0,0,0,0,20h24a10,10,0,0,0,0-20ZM80,110a6,6,0,0,1,6-6H96v12H86A6,6,0,0,1,80,110Zm30,6H100V104h10a6,6,0,0,1,0,12Z"/><path d="M87.51,95.48a10,10,0,0,0,7.08-2.92l17-17A10,10,0,0,0,97.41,61.44l-17,17a10,10,0,0,0,7.07,17.07Zm12.73-31.21a6,6,0,0,1,8.49,8.49l-7.07,7.07-8.49-8.49Zm-17,17,7.07-7.07,8.49,8.49-7.07,7.07a6,6,0,0,1-8.49-8.49Z"/></svg>