<?xml version="1.0" ?><svg data-name="Слой 1" id="Слой_1" viewBox="0 0 128 128" xmlns="http://www.w3.org/2000/svg"><title/><path d="M128,108c-.44-2.22-3.21-3.79-6.72-5.77-2.15-1.22-4.59-2.6-5.42-3.67-1.71-2.2-2.4-8.06-2.24-11.44.08-1.67,2.4-7.55,4.63-13.24,3.44-8.74,7.33-18.64,7.79-24.13,1-12.27-2.4-29-15.16-39.18C105,6,94.39.76,82,.07c-9.87-.54-24,1.72-35.54,15.63C40.93,22.34,38,27.51,37.85,31.06c0,.2-.91,20,.7,22.21.2.28.44.59.7.91a8.41,8.41,0,0,1,1.4,2.14c-.19.66-1.22,3.11-6.33,12.22l-.37.65a6.42,6.42,0,0,0,1.3,7.31A10.66,10.66,0,0,0,38.63,78c.58.19,1.44.47,2,.7a9.76,9.76,0,0,1-.71,2.93c-1.42,2.49,1.61,4.33,4.29,6l.54.33c-.26.42-.6.91-.84,1.27a12.24,12.24,0,0,0-1.85,3.33c-.42,1.56.86,2.44,1.7,3a8.58,8.58,0,0,1,1.33,1.06v0a4.07,4.07,0,0,1-.16.57,21,21,0,0,0-.86,4c-.54,4.22,4,7.36,7.09,8.44,1.55.53,8.88-.44,12.6-1.62A101.12,101.12,0,0,1,70,126.43,2,2,0,0,0,72,128a2.18,2.18,0,0,0,.43,0,2,2,0,0,0,1.52-2.38,107.17,107.17,0,0,0-4.07-13.38c-3-8-4-8.27-4.81-8.52a2.16,2.16,0,0,0-1.89.34,46.94,46.94,0,0,1-10.78,1.77c-2.22-.79-4.53-2.66-4.34-4.13a16.43,16.43,0,0,1,.71-3.27c.1-.34.21-.68.28-1l.54-.21a2,2,0,1,0-1.44-3.73l-.42.16a11.28,11.28,0,0,0-1.25-1l.75-1.11c1.34-2,2.85-4.17,1.19-5.83a11.67,11.67,0,0,0-2.12-1.45c-.62-.38-1.77-1.07-2.42-1.58.06-.16.11-.32.16-.49a1.11,1.11,0,0,0,.17,0l1.92-.43a2,2,0,1,0-.85-3.9l-.63.13a3.23,3.23,0,0,0,0-.47c-.29-1.77-2.15-2.37-4.72-3.21a20.43,20.43,0,0,1-2-.72,2.77,2.77,0,0,1-.37-2.3l.36-.64c6.33-11.28,6.85-13.1,6.85-14.09,0-1.86-1.26-3.44-2.28-4.72L42,51.14c-.48-2.21-.38-14.94-.11-19.86.14-2.56,2.94-7.31,7.66-13C68.7-4.94,98,5.44,108.35,13.74c14.87,11.87,14,31.83,13.67,35.71-.42,4.91-4.36,14.94-7.53,23-3.06,7.79-4.8,12.3-4.9,14.52-.13,2.65.17,10.36,3.07,14.08,1.32,1.7,3.89,3.16,6.61,4.7,1.63.92,4.33,2.45,4.79,3.19a2,2,0,0,0,3.9-.9Zm-62.19-1a2,2,0,0,1-.64.42A2.52,2.52,0,0,0,65.77,107Z"/><path d="M102.4,105.18c-.56-1.18-1.14-2.38-1.74-3.58a2,2,0,1,0-3.58,1.78c.58,1.18,1.16,2.36,1.71,3.52a2,2,0,0,0,1.8,1.14,2,2,0,0,0,.86-.2A2,2,0,0,0,102.4,105.18Z"/><path d="M107.26,116.07c-.48-1.15-1-2.37-1.56-3.65A2,2,0,1,0,102,114c.55,1.26,1.07,2.46,1.54,3.6a2,2,0,0,0,1.85,1.22,2.11,2.11,0,0,0,.77-.15A2,2,0,0,0,107.26,116.07Z"/><path d="M78.93,78.52c.23.11.46.23.68.36a2,2,0,1,0,2-3.44,9.29,9.29,0,0,0-1-.52,11.25,11.25,0,0,0-3.5-.94,2,2,0,0,0-.51,4A7.6,7.6,0,0,1,78.93,78.52Z"/><path d="M96.94,94.54c-.65-1.18-1.32-2.34-2-3.47a2,2,0,1,0-3.43,2.05c.66,1.1,1.3,2.22,1.94,3.36a2,2,0,1,0,3.49-1.94Z"/><path d="M87.28,86.68a2,2,0,1,0,3.23-2.36c-.85-1.16-1.7-2.25-2.52-3.21a2,2,0,0,0-3,2.59C85.7,84.59,86.49,85.59,87.28,86.68Z"/><path d="M71,75.8A2,2,0,0,0,68.89,74c-1.24.1-2.59.22-4,.39a2,2,0,0,0,.22,4h.23c1.36-.16,2.66-.28,3.84-.37A2,2,0,0,0,71,75.8Z"/><path d="M59.29,77.11A2,2,0,0,0,57,75.46c-1.36.22-2.68.45-3.92.68a2,2,0,0,0,.36,4,2.19,2.19,0,0,0,.36,0c1.23-.23,2.52-.45,3.85-.67A2,2,0,0,0,59.29,77.11Z"/><path d="M110.2,123.42a2,2,0,0,0-3.75,1.4c.39,1,.59,1.61.63,1.76A2,2,0,0,0,109,128a2,2,0,0,0,1.91-2.58C110.78,125,110.37,123.87,110.2,123.42Z"/><path d="M81.6,94.8a37.15,37.15,0,0,0-2.31-3.39,2,2,0,0,0-3.15,2.46c.63.82,1.32,1.83,2,3a2,2,0,0,0,1.7,1,2,2,0,0,0,1-.29A2,2,0,0,0,81.6,94.8Z"/><path d="M87,105.33c-.55-1.2-1.11-2.39-1.67-3.55a2,2,0,0,0-3.6,1.75c.55,1.13,1.09,2.29,1.63,3.45a2,2,0,0,0,1.82,1.18A2,2,0,0,0,87,105.33Z"/><path d="M67.35,91.7l.34,0a24.8,24.8,0,0,1,3.55-.38,2,2,0,1,0-.1-4,28.58,28.58,0,0,0-4.13.44,2,2,0,0,0,.34,4Z"/><path d="M56.14,94.67a2,2,0,0,0,.63-.1c1.16-.39,2.39-.77,3.63-1.13a2,2,0,0,0-1.13-3.84c-1.28.37-2.54.77-3.75,1.17a2,2,0,0,0,.62,3.9Z"/><path d="M91.56,116.14c-.45-1.16-.93-2.37-1.45-3.63a2,2,0,0,0-3.7,1.52c.51,1.23,1,2.43,1.42,3.56a2,2,0,0,0,3.73-1.45Z"/><path d="M94.27,123.44a2,2,0,0,0-3.78,1.31c.39,1.11.54,1.62.57,1.74A2,2,0,0,0,93,128a2.12,2.12,0,0,0,.49-.06,2,2,0,0,0,1.45-2.43C94.86,125.18,94.63,124.49,94.27,123.44Z"/><path d="M42.52,124.11c1.39-3.75,3.49-9.41,2.37-13.9-1-3.81-4.61-6.64-8.49-9.64a44,44,0,0,1-6-5.25C26.58,91,25.78,84.25,25.78,79.39s-.61-9.75-5.06-14.2c-1.43-1.43-4.42-4.42-12.91-4.42a2,2,0,0,0,0,4h.48A63,63,0,0,1,5.67,72.6C2.92,79.87-.5,88.91.06,96.78S6.19,113,6.24,113a3.81,3.81,0,0,0,2.4,1.55V126a2,2,0,0,0,4,0V115l3.77.28V126a2,2,0,0,0,4,0V115.55l2.21.17.06.22,1.25,4a6.17,6.17,0,0,0,6.53,5,20.1,20.1,0,0,1,7.33.69,2,2,0,0,0,1.48,2.27,2,2,0,0,0,.48.06,2,2,0,0,0,1.94-1.52c.07-.25.18-.6.32-1a1.11,1.11,0,0,0,.07-.16C42.21,124.94,42.35,124.54,42.52,124.11ZM30.05,121a2.25,2.25,0,0,1-2.23-2s0-.1-.05-.15l-1.22-4a3.88,3.88,0,0,0-3.45-3.15l-13.61-1c-1.11-1.64-5-8.41-5.44-14.21-.5-7,2.75-15.57,5.36-22.48a51.57,51.57,0,0,0,2.86-8.85A9.61,9.61,0,0,1,17.89,68c3.23,3.23,3.89,6.88,3.89,11.37,0,5.54,1,13.27,5.61,18.56A46.28,46.28,0,0,0,34,103.73c3.17,2.45,6.44,5,7.06,7.45.75,3-.8,7.61-1.94,10.72A24,24,0,0,0,30.05,121Z"/><path d="M20.93,97.72c-1.34-3.68-5-5.73-8.22-4.57S8,98.26,9.37,101.94a7.77,7.77,0,0,0,3.24,4,6.06,6.06,0,0,0,3.12.89,5.36,5.36,0,0,0,1.86-.33c3.19-1.16,4.69-5.11,3.34-8.79Zm-4.71,5a1.89,1.89,0,0,1-1.56-.23,3.84,3.84,0,0,1-1.53-2c-.58-1.58-.14-3.26,1-3.66a1.44,1.44,0,0,1,.51-.09,3.18,3.18,0,0,1,2.58,2.27C17.75,100.68,17.32,102.35,16.22,102.75Z"/><path d="M15.83,53.92h0a2,2,0,0,1-2-2,20.21,20.21,0,0,1,1.32-7.61A16.43,16.43,0,0,0,16.25,38a16.22,16.22,0,0,0-1.1-6.3,20.5,20.5,0,0,1-1.31-7.61,20.46,20.46,0,0,1,1.32-7.61,16.16,16.16,0,0,0,1.1-6.29,2,2,0,0,1,2-2h0a2,2,0,0,1,2,2,20.15,20.15,0,0,1-1.32,7.6,16.41,16.41,0,0,0-1.1,6.3,16.4,16.4,0,0,0,1.09,6.3A20.27,20.27,0,0,1,20.25,38a20.67,20.67,0,0,1-1.32,7.61,16.18,16.18,0,0,0-1.1,6.3A2,2,0,0,1,15.83,53.92Z"/><path d="M26.83,59.92h0a2,2,0,0,1-2-2,20.21,20.21,0,0,1,1.32-7.61A16.43,16.43,0,0,0,27.25,44a16.22,16.22,0,0,0-1.1-6.3,20.5,20.5,0,0,1-1.31-7.61,20.46,20.46,0,0,1,1.32-7.61,16.16,16.16,0,0,0,1.1-6.29,2,2,0,0,1,2-2h0a2,2,0,0,1,2,2,20.15,20.15,0,0,1-1.32,7.6,16.41,16.41,0,0,0-1.1,6.3,16.4,16.4,0,0,0,1.09,6.3A20.27,20.27,0,0,1,31.25,44a20.67,20.67,0,0,1-1.32,7.61,16.18,16.18,0,0,0-1.1,6.3A2,2,0,0,1,26.83,59.92Z"/></svg>