<?xml version="1.0" ?><svg data-name="Слой 1" id="Слой_1" viewBox="0 0 128 128" xmlns="http://www.w3.org/2000/svg"><title/><path d="M128,18.29c0-9.35-3.38-13.87-6.22-16A10.75,10.75,0,0,0,112.45.37c-6,1.71-9.77,9-11.34,12.7a7.63,7.63,0,0,0-.81-.26c-3.3-1-6.94-2.36-10.8-3.86C81.48,5.83,72.39,2.29,64,2.29c-9.3,0-20.08,4.24-28.74,7.65-2.81,1.11-5.47,2.15-7.69,2.89-.21.07-.43.18-.64.27C25.33,9.4,21.54,2.08,15.55.37A10.74,10.74,0,0,0,6.22,2.28C3.38,4.42,0,8.94,0,18.29,0,32.71,17.76,60.68,18.52,61.87l0,.05c2.53,7.47,5.25,13.88,6.7,15.35,6.5,6.6,19.56,11.35,29.62,13.14l.35,0a2,2,0,0,0,.35-4c-11.16-2-22.46-6.92-27.47-12-2-2.12-11.36-28-11.36-37.37,0-8.31,6-18.45,12.06-20.47,2.31-.77,5-1.84,7.89-3C45,10.38,55.43,6.29,64,6.29c7.67,0,16,3.25,24.08,6.38,4,1.54,7.67,3,11.16,4a8.29,8.29,0,0,1,1.86.85,1.35,1.35,0,0,0,.26.15c5.28,3.36,10.22,13.05,10,20.64-.07,3-1.25,8.43-3.28,15.12a1.42,1.42,0,0,0,0,.16c-.29,1-.61,2-.93,3a2,2,0,0,0,3.8,1.24c.28-.85.59-1.83.91-2.88C113.81,52.14,128,32.06,128,18.29ZM12.75,37.1a45.73,45.73,0,0,0,1.29,9C9.23,37,4,25.5,4,18.29c0-6,1.64-10.56,4.63-12.82a6.74,6.74,0,0,1,5.82-1.26c4.25,1.22,7.53,7.37,9,10.88C17.46,19.6,12.75,28.83,12.75,37.1Zm91.85-22c1.43-3.51,4.69-9.64,9-10.86a6.75,6.75,0,0,1,5.82,1.26c3,2.26,4.63,6.81,4.63,12.82,0,7.37-4.83,17.22-9.12,24.52a30.16,30.16,0,0,0,.5-4.43C115.55,30.56,110.91,19.94,104.6,15.07Z"/><path d="M85.64,41c-.15,0-15,2.72-21.64,2.72S42.51,41,42.36,41a2,2,0,1,0-.72,3.93C42.27,45,57,47.67,64,47.67S85.73,45,86.36,44.88A2,2,0,1,0,85.64,41Z"/><path d="M85.64,28c-.15,0-15,2.72-21.64,2.72S42.51,28,42.36,28a2,2,0,1,0-.72,3.93C42.27,32,57,34.67,64,34.67S85.73,32,86.36,31.88A2,2,0,1,0,85.64,28Z"/><path d="M117.05,69,120.39,65l2,1.61a2,2,0,0,0,1.27.45,2,2,0,0,0,1.27-3.54l-3.52-2.89h0l-3.59-2.94a2,2,0,0,0-2.53,3.1l2,1.67L114,66.5a33.76,33.76,0,0,0-18-6.44V54h6a2,2,0,0,0,0-4H86a2,2,0,0,0,0,4h6v6.06a34.05,34.05,0,1,0,25,9ZM94,124a30,30,0,1,1,30-30A30,30,0,0,1,94,124Z"/><path d="M103.9,72.22a2,2,0,1,0-1.66,3.64A19.94,19.94,0,1,1,81.51,78.5l-.28.93a2,2,0,0,0,1.32,2.5,2.06,2.06,0,0,0,.59.09,2,2,0,0,0,1.91-1.42l1.84-6a2,2,0,0,0-1.32-2.5l-6-1.84a2,2,0,1,0-1.17,3.82l1.66.51a23.9,23.9,0,1,0,23.85-2.37Z"/><path d="M92,99.41v.78a2,2,0,0,0,4,0v-.78a5.77,5.77,0,0,0,0-10.82V72.08a2,2,0,1,0-4,0V88.59a5.77,5.77,0,0,0,0,10.82Zm2-7.18A1.77,1.77,0,1,1,92.23,94,1.77,1.77,0,0,1,94,92.23Z"/></svg>