<?xml version="1.0" ?><svg data-name="Слой 1" id="Слой_1" viewBox="0 0 128 128" xmlns="http://www.w3.org/2000/svg"><title/><path d="M126,31H116a2,2,0,0,0-2,2V52H101.62A16.63,16.63,0,0,0,85.23,66H25a14.93,14.93,0,0,0-11,4.84V57a2,2,0,0,0-2-2H2a2,2,0,0,0-2,2v69a2,2,0,0,0,2,2H12a2,2,0,0,0,2-2V102H114v24a2,2,0,0,0,2,2h10a2,2,0,0,0,2-2V33A2,2,0,0,0,126,31ZM101.62,56H114V79H89V68.62A12.63,12.63,0,0,1,101.62,56ZM25,70H85v9H14.18A11,11,0,0,1,25,70ZM10,124H4V59h6v65Zm4-26V83H114V98Zm110,26h-6V35h6Z"/><path d="M68.75,44h-9.5A4.09,4.09,0,0,1,55,40V31H46a4.09,4.09,0,0,1-4-4.25v-9.5A4.09,4.09,0,0,1,46,13h9V4a4.09,4.09,0,0,1,4.25-4h9.5A4.09,4.09,0,0,1,73,4v9h9a4.09,4.09,0,0,1,4,4.25v9.5A4.09,4.09,0,0,1,82,31H73v9A4.09,4.09,0,0,1,68.75,44ZM59,40l.22,0h9.5a.48.48,0,0,0,.28-.08L69,29a2,2,0,0,1,2-2H82s0-.11,0-.25v-9.5a.48.48,0,0,0-.06-.25H71a2,2,0,0,1-2-2V4s-.11,0-.25,0h-9.5a.48.48,0,0,0-.28.08L59,15a2,2,0,0,1-2,2H46s0,.11,0,.25v9.5a.48.48,0,0,0,.08.28L57,27a2,2,0,0,1,2,2V40S59,40,59,40ZM82,17h0Z"/></svg>