<?xml version="1.0" ?><svg enable-background="new 0 0 512 512" id="Layer_2" version="1.1" viewBox="0 0 512 512" xml:space="preserve" xmlns="http://www.w3.org/2000/svg" xmlns:xlink="http://www.w3.org/1999/xlink"><g><g><path d="    M315.06,456.804l-0.652-0.078c-14.99-1.787-25.692-15.388-23.905-30.377l3.701-31.04c1.787-14.99,15.388-25.692,30.377-23.905    l0.652,0.078c14.99,1.787,25.692,15.388,23.905,30.377l-3.701,31.04C343.65,447.888,330.05,458.591,315.06,456.804z" fill="none" stroke="#474747" stroke-linecap="round" stroke-linejoin="round" stroke-miterlimit="10" stroke-width="15"/><path d="    M259.669,452.099l-0.652-0.078c-14.99-1.787-25.692-15.388-23.905-30.377l3.701-31.04c1.787-14.99,15.388-25.692,30.377-23.905    l0.652,0.078c14.99,1.787,25.692,15.388,23.905,30.377l-3.701,31.04C288.259,443.184,274.658,453.886,259.669,452.099z" fill="none" stroke="#474747" stroke-linecap="round" stroke-linejoin="round" stroke-miterlimit="10" stroke-width="15"/><path d="    M204.277,447.394l-0.652-0.078c-14.99-1.787-25.692-15.388-23.905-30.377l3.701-31.04c1.787-14.99,15.388-25.692,30.377-23.905    l0.652,0.078c14.99,1.787,25.692,15.388,23.905,30.377l-3.701,31.04C232.867,438.479,219.266,449.181,204.277,447.394z" fill="none" stroke="#474747" stroke-linecap="round" stroke-linejoin="round" stroke-miterlimit="10" stroke-width="15"/><g><path d="     M19.241,175.748h135.678c13.017,0,25.754-3.772,36.672-10.859l60.246-46.124c15.805-10.26,35.528-12.452,53.2-5.913     l115.936,42.896" fill="none" stroke="#474747" stroke-linecap="round" stroke-linejoin="round" stroke-miterlimit="10" stroke-width="15"/><path d="     M301.438,155.748h155.541c17.499,0,31.684,14.186,31.684,31.684v0c0,17.499-14.186,31.684-31.684,31.684h-36.005" fill="none" stroke="#474747" stroke-linecap="round" stroke-linejoin="round" stroke-miterlimit="10" stroke-width="15"/><path d="     M353.285,219.117h82.091c17.499,0,31.684,14.186,31.684,31.684v0c0,17.499-14.186,31.684-31.684,31.684h-48.967" fill="none" stroke="#474747" stroke-linecap="round" stroke-linejoin="round" stroke-miterlimit="10" stroke-width="15"/><path d="     M338.883,282.485h60.488c17.499,0,31.684,14.186,31.684,31.684v0c0,17.499-14.186,31.684-31.684,31.684h-74.89" fill="none" stroke="#474747" stroke-linecap="round" stroke-linejoin="round" stroke-miterlimit="10" stroke-width="15"/><line fill="none" stroke="#474747" stroke-linecap="round" stroke-linejoin="round" stroke-miterlimit="10" stroke-width="15" x1="58.241" x2="19.241" y1="357.375" y2="357.375"/><path d="     M324.481,345.854h47.526c17.499,0,31.684,14.186,31.684,31.684v0c0,17.499-14.186,31.684-31.684,31.684" fill="none" stroke="#474747" stroke-linecap="round" stroke-linejoin="round" stroke-miterlimit="10" stroke-width="15"/></g><path d="    M150.215,433.841l-0.652-0.078c-14.99-1.787-25.692-15.388-23.905-30.377l3.701-31.04c1.787-14.99,15.388-25.692,30.377-23.905    l0.652,0.078c14.99,1.787,25.692,15.388,23.905,30.377l-3.701,31.04C178.805,424.926,165.205,435.628,150.215,433.841z" fill="none" stroke="#474747" stroke-linecap="round" stroke-linejoin="round" stroke-miterlimit="10" stroke-width="15"/></g><path d="   M153.618,142.389c-0.001-5.186,0.964-10.459,3.005-15.57c7.724-19.348,28.22-29.772,47.923-25.467   c0.28-0.809,0.575-1.617,0.896-2.42c11.262-28.211,43.261-41.951,71.472-30.689c5.238,2.091,9.975,4.9,14.148,8.264   c12.628-25.361,42.808-37.21,69.588-26.52c16.789,6.702,28.451,20.75,32.769,36.973c13.489-6.638,29.628-7.756,44.69-1.744   c28.211,11.262,41.951,43.261,30.689,71.472" fill="none" stroke="#474747" stroke-linecap="round" stroke-linejoin="round" stroke-miterlimit="10" stroke-width="15"/><circle cx="83.741" cy="111.144" fill="none" r="29.5" stroke="#474747" stroke-linecap="round" stroke-linejoin="round" stroke-miterlimit="10" stroke-width="15"/><circle cx="141.241" cy="37.644" fill="none" r="17" stroke="#474747" stroke-linecap="round" stroke-linejoin="round" stroke-miterlimit="10" stroke-width="15"/><path d="   M375.542,104.386c0,0,6.677-11.332,19.114-18.211" fill="none" stroke="#474747" stroke-linecap="round" stroke-linejoin="round" stroke-miterlimit="10" stroke-width="15"/><path d="   M483.688,286.5c3.067,3.065,5.613,6.754,7.429,10.981c6.872,16.005,0.917,34.286-13.276,43.39c0.313,0.644,0.616,1.296,0.901,1.961   c10.021,23.337-0.775,50.379-24.112,60.399c-4.333,1.861-8.795,3.001-13.251,3.479c7.528,22.46-3.309,47.309-25.463,56.821   c-13.889,5.964-29.089,4.553-41.233-2.485c-4.05,11.899-12.931,22.103-25.391,27.452c-17.503,7.515-37.09,3.322-50.016-9.09" fill="none" stroke="#474747" stroke-linecap="round" stroke-linejoin="round" stroke-miterlimit="10" stroke-width="15"/><path d="   M374.949,440.174c0,0,2.752,10.647-0.534,22.068" fill="none" stroke="#474747" stroke-linecap="round" stroke-linejoin="round" stroke-miterlimit="10" stroke-width="15"/><path d="   M290.241,345.644c0-27.062-21.938-49-49-49c-3.929,0-7.744,0.475-11.406,1.349c-5.23-21.435-24.549-37.349-47.594-37.349   c-27.062,0-49,21.938-49,49c-27.062,0-49,21.938-49,49c0,13.311,5.307,25.382,13.921,34.213" fill="none" stroke="#474747" stroke-linecap="round" stroke-linejoin="round" stroke-miterlimit="10" stroke-width="15"/></g></svg>