<?xml version="1.0" ?><svg enable-background="new 0 0 512 512" id="Layer_2" version="1.1" viewBox="0 0 512 512" xml:space="preserve" xmlns="http://www.w3.org/2000/svg" xmlns:xlink="http://www.w3.org/1999/xlink"><g><path d="   M14.607,127.916l125.414,85.388c9.955,6.778,22.248,9.189,34.025,6.675l66.945-14.292c2.404-0.513,4.855-0.772,7.312-0.772h110.303   v5.559c0,21.23-17.211,38.441-38.441,38.441h-43.656c-7.568,0-14.77,3.25-19.777,8.925l0,0   c-11.282,12.786-7.648,32.757,7.415,40.749l13.807,7.326c3.715,1.971,7.847,3.025,12.052,3.075l78.601,0.925l70.465-9.977   c23.706-3.357,45.794,12.714,49.896,36.302l0.639,3.676l-142,23l-70-1" fill="none" stroke="#474747" stroke-linecap="round" stroke-linejoin="round" stroke-miterlimit="10" stroke-width="15"/><path d="   M418.682,351.434l17.225-2.797c21.485-3.489,41.842,10.764,45.913,32.146l0.787,4.133l-81,21" fill="none" stroke="#474747" stroke-linecap="round" stroke-linejoin="round" stroke-miterlimit="10" stroke-width="15"/><path d="   M408.607,447.916l63-17l-2.414-12.374c-3.032-15.541-18.505-25.337-33.85-21.431l-26.736,6.805" fill="none" stroke="#474747" stroke-linecap="round" stroke-linejoin="round" stroke-miterlimit="10" stroke-width="15"/><polyline fill="none" points="   14.607,295.916 100.607,350.916 157.607,408.916  " stroke="#474747" stroke-linecap="round" stroke-linejoin="round" stroke-miterlimit="10" stroke-width="15"/><path d="   M351.994,486.714L351.994,486.714c-13.669-1.63-23.428-14.032-21.798-27.7l3.265-27.381c1.63-13.669,14.032-23.428,27.7-21.798h0   c13.669,1.63,23.428,14.032,21.798,27.7l-3.265,27.381C378.065,478.585,365.663,488.344,351.994,486.714z" fill="none" stroke="#474747" stroke-linecap="round" stroke-linejoin="round" stroke-miterlimit="10" stroke-width="15"/><path d="   M302.084,482.475L302.084,482.475c-13.669-1.63-23.428-14.032-21.798-27.7l3.265-27.381c1.63-13.669,14.032-23.428,27.7-21.798h0   c13.669,1.63,23.428,14.032,21.798,27.7l-3.265,27.381C328.154,474.346,315.753,484.105,302.084,482.475z" fill="none" stroke="#474747" stroke-linecap="round" stroke-linejoin="round" stroke-miterlimit="10" stroke-width="15"/><path d="   M252.174,478.236L252.174,478.236c-13.669-1.63-23.428-14.032-21.798-27.7l3.265-27.381c1.63-13.669,14.032-23.428,27.7-21.798h0   c13.669,1.63,23.428,14.032,21.798,27.7l-3.265,27.381C278.244,470.106,265.842,479.866,252.174,478.236z" fill="none" stroke="#474747" stroke-linecap="round" stroke-linejoin="round" stroke-miterlimit="10" stroke-width="15"/><path d="   M203.462,466.024L203.462,466.024c-13.669-1.63-23.428-14.032-21.798-27.7l3.265-27.381c1.63-13.669,14.032-23.428,27.7-21.798h0   c13.669,1.63,23.428,14.032,21.798,27.7l-3.265,27.381C229.532,457.894,217.13,467.654,203.462,466.024z" fill="none" stroke="#474747" stroke-linecap="round" stroke-linejoin="round" stroke-miterlimit="10" stroke-width="15"/><line fill="none" stroke="#474747" stroke-linecap="round" stroke-linejoin="round" stroke-miterlimit="10" stroke-width="15" x1="65.607" x2="171.607" y1="59.916" y2="191.916"/><path d="   M495.625,287.49c1.924-4.816,2.982-10.071,2.982-15.574c0-20.833-15.171-38.113-35.065-41.42c0.04-0.856,0.065-1.715,0.065-2.58   c0-30.376-24.624-55-55-55c-5.64,0-11.081,0.852-16.204,2.43c-2.325-28.235-25.961-50.43-54.796-50.43   c-18.078,0-34.116,8.723-44.142,22.188c-10.066-11.166-24.641-18.188-40.858-18.188c-30.376,0-55,24.624-55,55" fill="none" stroke="#474747" stroke-linecap="round" stroke-linejoin="round" stroke-miterlimit="10" stroke-width="15"/><circle cx="456.607" cy="105.916" fill="none" r="27" stroke="#474747" stroke-linecap="round" stroke-linejoin="round" stroke-miterlimit="10" stroke-width="15"/><circle cx="375.607" cy="40.916" fill="none" r="19" stroke="#474747" stroke-linecap="round" stroke-linejoin="round" stroke-miterlimit="10" stroke-width="15"/><path d="   M303.607,169.916c0,0-2-13-11-24" fill="none" stroke="#474747" stroke-linecap="round" stroke-linejoin="round" stroke-miterlimit="10" stroke-width="15"/></g></svg>