<?xml version="1.0" ?><svg enable-background="new 0 0 512 512" id="Layer_2" version="1.1" viewBox="0 0 512 512" xml:space="preserve" xmlns="http://www.w3.org/2000/svg" xmlns:xlink="http://www.w3.org/1999/xlink"><g><path d="   M497.008,19.271l-19.57,78.034c-19.155,65.446-86.805,111.245-164.321,111.245h-117.95C117.649,208.55,50,162.752,30.845,97.305   L14.596,19.271" fill="none" stroke="#474747" stroke-linecap="round" stroke-linejoin="round" stroke-miterlimit="10" stroke-width="15"/><path d="   M437.253,343.591l-11.069-37.997l-47.976-87.636l-3.024,1.977c-16.517,10.798-22.321,32.26-13.496,49.91l15.998,35.399   l0.859,45.945c-39.138,21.271-37.61,56.32-37.61,56.32" fill="none" stroke="#474747" stroke-linecap="round" stroke-linejoin="round" stroke-miterlimit="10" stroke-width="15"/><path d="   M426.264,218.512l36.921,57.963c3.516,5.519,5.383,11.927,5.383,18.471v111.747c0,4.915-1.054,9.773-3.09,14.246l-33.322,73.191" fill="none" stroke="#474747" stroke-linecap="round" stroke-linejoin="round" stroke-miterlimit="10" stroke-width="15"/><line fill="none" stroke="#474747" stroke-linecap="round" stroke-linejoin="round" stroke-miterlimit="10" stroke-width="15" x1="426.184" x2="426.184" y1="174.994" y2="305.595"/><polyline fill="none" points="   87.574,174.994 87.574,309.278 348.781,309.278  " stroke="#474747" stroke-linecap="round" stroke-linejoin="round" stroke-miterlimit="10" stroke-width="15"/><path d="   M286.795,335.843c0,0-3.556,36.193,11.562,61.163c9.793,16.175,15.003,34.711,15.003,53.62v43.503" fill="none" stroke="#474747" stroke-linecap="round" stroke-linejoin="round" stroke-miterlimit="10" stroke-width="15"/><path d="   M375.59,19.271c0,61.58-53.499,111.5-119.494,111.5s-119.494-49.92-119.494-111.5" fill="none" stroke="#474747" stroke-linecap="round" stroke-linejoin="round" stroke-miterlimit="10" stroke-width="15"/></g></svg>