<?xml version="1.0" ?><svg enable-background="new 0 0 512 512" id="Layer_2" version="1.1" viewBox="0 0 512 512" xml:space="preserve" xmlns="http://www.w3.org/2000/svg" xmlns:xlink="http://www.w3.org/1999/xlink"><g><path d="   M361.602,403.136c-27.26,0.431-134.082,2.072-140.899,1.462c-7.95-0.719-90.636-21.343-90.636-21.343L18.782,340.499" fill="none" stroke="#474747" stroke-linecap="round" stroke-linejoin="round" stroke-miterlimit="10" stroke-width="15"/><path d="   M410.95,334.64l57.899-21.957c10.164-3.778,21.5,1.592,24.949,11.977c3.286,9.893-2.209,20.585-11.98,24.219l-47.798,22.891" fill="none" stroke="#474747" stroke-linecap="round" stroke-linejoin="round" stroke-miterlimit="10" stroke-width="15"/><path d="   M18.782,220.343l91.582,58.652c7.897,5.057,17.742,6.008,26.455,2.542c24.878-9.899,76.45-29.478,94.858-29.343   c2.626-0.326,5.3-0.213,7.908,0.376l94.001,21.233c12.178,2.751,20.411,14.564,18.094,26.832   c-2.432,12.879-15.025,21.068-27.702,18.207l-34.896-7.882l-38.511-8.82c-7.13-1.628-14.228,2.822-15.861,9.949   c-1.632,7.127,2.822,14.228,9.949,15.861l111.797,24.58" fill="none" stroke="#474747" stroke-linecap="round" stroke-linejoin="round" stroke-miterlimit="10" stroke-width="15"/><g><path d="    M488.216,81.871l-65.717-3.186v30.769h-76V67.203c0-20.154,15.29-37.02,35.347-38.992l106.37-10.34" fill="none" stroke="#474747" stroke-linecap="round" stroke-linejoin="round" stroke-miterlimit="10" stroke-width="15"/><line fill="none" stroke="#474747" stroke-linecap="round" stroke-linejoin="round" stroke-miterlimit="10" stroke-width="15" x1="385.999" x2="349.999" y1="78.454" y2="78.454"/></g><line fill="none" stroke="#474747" stroke-linecap="round" stroke-linejoin="round" stroke-miterlimit="10" stroke-width="15" x1="422.216" x2="422.216" y1="138.871" y2="298.871"/><line fill="none" stroke="#474747" stroke-linecap="round" stroke-linejoin="round" stroke-miterlimit="10" stroke-width="15" x1="391.216" x2="391.216" y1="200.871" y2="240.871"/><line fill="none" stroke="#474747" stroke-linecap="round" stroke-linejoin="round" stroke-miterlimit="10" stroke-width="15" x1="391.216" x2="391.216" y1="173.871" y2="177.871"/><line fill="none" stroke="#474747" stroke-linecap="round" stroke-linejoin="round" stroke-miterlimit="10" stroke-width="15" x1="346.216" x2="346.216" y1="138.871" y2="240.529"/><path d="   M31.456,150.529c1.581,0.791,63.812,54.728,89.789,77.268c6.989,6.064,16.584,8.136,25.454,5.501l76.124-22.611   c7.151-2.124,14.712-2.438,22.015-0.913c22.113,4.619,68.618,14.755,68.618,14.755" fill="none" stroke="#474747" stroke-linecap="round" stroke-linejoin="round" stroke-miterlimit="10" stroke-width="15"/><line fill="none" stroke="#474747" stroke-linecap="round" stroke-linejoin="round" stroke-miterlimit="10" stroke-width="15" x1="417.456" x2="417.456" y1="489.403" y2="495.529"/><path d="   M384.199,344.785l9.916,4.993c14.312,7.206,23.341,21.861,23.341,37.885v76.346" fill="none" stroke="#474747" stroke-linecap="round" stroke-linejoin="round" stroke-miterlimit="10" stroke-width="15"/><line fill="none" stroke="#474747" stroke-linecap="round" stroke-linejoin="round" stroke-miterlimit="10" stroke-width="15" x1="367.456" x2="367.456" y1="459.67" y2="495.529"/><path d="   M356.456,352.529L356.456,352.529c6.962,5.696,11,14.217,11,23.213v58.123" fill="none" stroke="#474747" stroke-linecap="round" stroke-linejoin="round" stroke-miterlimit="10" stroke-width="15"/><line fill="none" stroke="#474747" stroke-linecap="round" stroke-linejoin="round" stroke-miterlimit="10" stroke-width="15" x1="449.471" x2="468.471" y1="264.041" y2="229.041"/><line fill="none" stroke="#474747" stroke-linecap="round" stroke-linejoin="round" stroke-miterlimit="10" stroke-width="15" x1="464.471" x2="483.471" y1="282.041" y2="276.041"/><g><line fill="none" stroke="#474747" stroke-linecap="round" stroke-linejoin="round" stroke-miterlimit="10" stroke-width="15" x1="250.456" x2="250.456" y1="429.529" y2="493.529"/><line fill="none" stroke="#474747" stroke-linecap="round" stroke-linejoin="round" stroke-miterlimit="10" stroke-width="15" x1="304.456" x2="304.456" y1="485.529" y2="493.529"/><line fill="none" stroke="#474747" stroke-linecap="round" stroke-linejoin="round" stroke-miterlimit="10" stroke-width="15" x1="304.456" x2="304.456" y1="429.529" y2="461.529"/></g></g></svg>