<?xml version="1.0" ?><svg enable-background="new 0 0 512 512" id="Layer_2" version="1.1" viewBox="0 0 512 512" xml:space="preserve" xmlns="http://www.w3.org/2000/svg" xmlns:xlink="http://www.w3.org/1999/xlink"><g><g><circle cx="164.982" cy="354.993" fill="none" r="126" stroke="#474747" stroke-linecap="round" stroke-linejoin="round" stroke-miterlimit="10" stroke-width="15"/><g><circle cx="165.134" cy="355.47" fill="none" r="45" stroke="#474747" stroke-linecap="round" stroke-linejoin="round" stroke-miterlimit="10" stroke-width="15"/><line fill="none" stroke="#474747" stroke-linecap="round" stroke-linejoin="round" stroke-miterlimit="10" stroke-width="15" x1="151.178" x2="142.986" y1="311.638" y2="285.91"/><line fill="none" stroke="#474747" stroke-linecap="round" stroke-linejoin="round" stroke-miterlimit="10" stroke-width="15" x1="186.977" x2="178.786" y1="424.076" y2="398.349"/><line fill="none" stroke="#474747" stroke-linecap="round" stroke-linejoin="round" stroke-miterlimit="10" stroke-width="15" x1="121.626" x2="95.899" y1="368.797" y2="376.989"/><line fill="none" stroke="#474747" stroke-linecap="round" stroke-linejoin="round" stroke-miterlimit="10" stroke-width="15" x1="234.065" x2="208.337" y1="332.998" y2="341.189"/><line fill="none" stroke="#474747" stroke-linecap="round" stroke-linejoin="round" stroke-miterlimit="10" stroke-width="15" x1="185.878" x2="198.278" y1="314.575" y2="290.591"/><line fill="none" stroke="#474747" stroke-linecap="round" stroke-linejoin="round" stroke-miterlimit="10" stroke-width="15" x1="131.686" x2="144.086" y1="419.395" y2="395.411"/><line fill="none" stroke="#474747" stroke-linecap="round" stroke-linejoin="round" stroke-miterlimit="10" stroke-width="15" x1="124.564" x2="100.58" y1="334.097" y2="321.697"/><line fill="none" stroke="#474747" stroke-linecap="round" stroke-linejoin="round" stroke-miterlimit="10" stroke-width="15" x1="229.384" x2="205.4" y1="388.289" y2="375.889"/><circle cx="145.239" cy="341.602" fill="#474747" r="6.25"/><circle cx="176.294" cy="336.961" fill="#474747" r="6.25"/><circle cx="165.296" cy="355.155" fill="#474747" r="6.25"/><circle cx="186.609" cy="369.359" fill="#474747" r="6.25"/><circle cx="151.439" cy="374.26" fill="#474747" r="6.25"/></g></g><g><path d="    M383.505,237.682L290.202,34.004c-5.711-13.141-20.994-19.164-34.135-13.453l0,0c-13.141,5.711-19.164,20.994-13.453,34.135    l68.566,146.759" fill="none" stroke="#474747" stroke-linecap="round" stroke-linejoin="round" stroke-miterlimit="10" stroke-width="15"/><path d="    M263.59,222.127L195.024,75.368c-5.711-13.141-20.994-19.164-34.135-13.453l0,0c-13.141,5.711-19.164,20.994-13.453,34.135    l51.117,108.774" fill="none" stroke="#474747" stroke-linecap="round" stroke-linejoin="round" stroke-miterlimit="10" stroke-width="15"/><line fill="none" stroke="#474747" stroke-linecap="round" stroke-linejoin="round" stroke-miterlimit="10" stroke-width="15" x1="277.553" x2="292.553" y1="457.824" y2="494.824"/><path d="    M195.553,198.824l-36.762-76.647c-5.711-13.141-20.994-19.164-34.135-13.453l0,0c-13.141,5.711-19.164,20.994-13.453,34.135    l24.351,52.965" fill="none" stroke="#474747" stroke-linecap="round" stroke-linejoin="round" stroke-miterlimit="10" stroke-width="15"/><path d="    M311.179,201.445l-75.46-162.622c-5.711-13.141-20.994-19.164-34.135-13.453l0,0c-13.141,5.711-19.164,20.994-13.453,34.135    l75.46,162.622" fill="none" stroke="#474747" stroke-linecap="round" stroke-linejoin="round" stroke-miterlimit="10" stroke-width="15"/><path d="    M325.553,354.824c0,0-16-80,62.008-107.81l20.087-38.12l-8.56-48.02c-3.598-21.275,11.253-41.263,32.661-43.958l4.798-0.892    l17.325,75.709c1.119,4.927,1.487,9.994,1.093,15.031l-5.379,69.18c-0.511,6.539-2.296,12.915-5.253,18.769l-25.589,49.215    c-3.832,7.585-4.089,16.482-0.702,24.276l56.511,126.621" fill="none" stroke="#474747" stroke-linecap="round" stroke-linejoin="round" stroke-miterlimit="10" stroke-width="15"/></g></g></svg>