<?xml version="1.0" ?><svg enable-background="new 0 0 512 512" id="Layer_2" version="1.1" viewBox="0 0 512 512" xml:space="preserve" xmlns="http://www.w3.org/2000/svg" xmlns:xlink="http://www.w3.org/1999/xlink"><g><g><g><path d="     M145.3,260.379V60.044c0-13.735,11.134-24.869,24.869-24.869h0c13.735,0,24.869,11.134,24.869,24.869v170.844" fill="none" stroke="#474747" stroke-linecap="round" stroke-linejoin="round" stroke-miterlimit="10" stroke-width="15"/><path d="     M244.776,230.889V60.044c0-13.735,11.134-24.869,24.869-24.869h0c13.735,0,24.869,11.134,24.869,24.869v170.844" fill="none" stroke="#474747" stroke-linecap="round" stroke-linejoin="round" stroke-miterlimit="10" stroke-width="15"/><line fill="none" stroke="#474747" stroke-linecap="round" stroke-linejoin="round" stroke-miterlimit="10" stroke-width="15" x1="322.795" x2="322.795" y1="462" y2="491.512"/><path d="     M294.513,230.889V87.351c0-13.735,11.134-24.869,24.869-24.869h0c13.735,0,24.869,11.134,24.869,24.869V283" fill="none" stroke="#474747" stroke-linecap="round" stroke-linejoin="round" stroke-miterlimit="10" stroke-width="15"/><path d="     M195.038,230.889V43.465c0-13.735,11.134-24.869,24.869-24.869h0c13.735,0,24.869,11.134,24.869,24.869v187.423" fill="none" stroke="#474747" stroke-linecap="round" stroke-linejoin="round" stroke-miterlimit="10" stroke-width="15"/><path d="     M259.404,342.299c0,0-6.827-72.168-114.104-72.168l-34.134-30.233l-12.349-49.002c-4.966-20.078-25.657-31.975-45.508-26.166     l-4.559,1.049l15.223,76.693c0.899,4.758,2.511,9.354,4.781,13.631l33.07,63.157c2.948,5.553,6.953,10.476,11.789,14.493     l41.299,33.489c6.266,5.204,9.892,12.927,9.892,21.073v103.196" fill="none" stroke="#474747" stroke-linecap="round" stroke-linejoin="round" stroke-miterlimit="10" stroke-width="15"/></g></g><circle cx="369.751" cy="376.75" fill="none" r="69" stroke="#474747" stroke-linecap="round" stroke-linejoin="round" stroke-miterlimit="10" stroke-width="15"/><g><line fill="none" stroke="#474747" stroke-linecap="round" stroke-linejoin="round" stroke-miterlimit="10" stroke-width="15" x1="369.751" x2="369.751" y1="347.5" y2="406"/><line fill="none" stroke="#474747" stroke-linecap="round" stroke-linejoin="round" stroke-miterlimit="10" stroke-width="15" x1="340.501" x2="399.001" y1="376.75" y2="376.75"/></g><circle cx="436.336" cy="218.219" fill="none" r="45" stroke="#474747" stroke-linecap="round" stroke-linejoin="round" stroke-miterlimit="10" stroke-width="15"/><circle cx="86.751" cy="440" fill="none" r="25" stroke="#474747" stroke-linecap="round" stroke-linejoin="round" stroke-miterlimit="10" stroke-width="15"/><g><line fill="none" stroke="#474747" stroke-linecap="round" stroke-linejoin="round" stroke-miterlimit="10" stroke-width="15" x1="436.336" x2="436.336" y1="202.304" y2="234.134"/><line fill="none" stroke="#474747" stroke-linecap="round" stroke-linejoin="round" stroke-miterlimit="10" stroke-width="15" x1="420.421" x2="452.251" y1="218.219" y2="218.219"/></g><g><line clip-rule="evenodd" fill="none" fill-rule="evenodd" stroke="#474747" stroke-linecap="round" stroke-linejoin="round" stroke-miterlimit="10" stroke-width="15" x1="409.158" x2="409.154" y1="73.578" y2="75.026"/><line clip-rule="evenodd" fill="none" fill-rule="evenodd" stroke="#474747" stroke-linecap="round" stroke-linejoin="round" stroke-miterlimit="10" stroke-width="15" x1="409.059" x2="409.055" y1="108.356" y2="109.804"/><line clip-rule="evenodd" fill="none" fill-rule="evenodd" stroke="#474747" stroke-linecap="round" stroke-linejoin="round" stroke-miterlimit="10" stroke-width="15" x1="427.219" x2="425.772" y1="91.742" y2="91.738"/><line clip-rule="evenodd" fill="none" fill-rule="evenodd" stroke="#474747" stroke-linecap="round" stroke-linejoin="round" stroke-miterlimit="10" stroke-width="15" x1="392.441" x2="390.994" y1="91.644" y2="91.64"/></g><g><line clip-rule="evenodd" fill="none" fill-rule="evenodd" stroke="#474747" stroke-linecap="round" stroke-linejoin="round" stroke-miterlimit="10" stroke-width="15" x1="47.158" x2="47.154" y1="56.578" y2="58.026"/><line clip-rule="evenodd" fill="none" fill-rule="evenodd" stroke="#474747" stroke-linecap="round" stroke-linejoin="round" stroke-miterlimit="10" stroke-width="15" x1="47.059" x2="47.055" y1="91.356" y2="92.804"/><line clip-rule="evenodd" fill="none" fill-rule="evenodd" stroke="#474747" stroke-linecap="round" stroke-linejoin="round" stroke-miterlimit="10" stroke-width="15" x1="65.219" x2="63.772" y1="74.742" y2="74.738"/><line clip-rule="evenodd" fill="none" fill-rule="evenodd" stroke="#474747" stroke-linecap="round" stroke-linejoin="round" stroke-miterlimit="10" stroke-width="15" x1="30.441" x2="28.994" y1="74.644" y2="74.64"/></g><g><line clip-rule="evenodd" fill="none" fill-rule="evenodd" stroke="#474747" stroke-linecap="round" stroke-linejoin="round" stroke-miterlimit="10" stroke-width="15" x1="47.158" x2="47.154" y1="353.578" y2="355.026"/><line clip-rule="evenodd" fill="none" fill-rule="evenodd" stroke="#474747" stroke-linecap="round" stroke-linejoin="round" stroke-miterlimit="10" stroke-width="15" x1="47.059" x2="47.055" y1="388.356" y2="389.804"/><line clip-rule="evenodd" fill="none" fill-rule="evenodd" stroke="#474747" stroke-linecap="round" stroke-linejoin="round" stroke-miterlimit="10" stroke-width="15" x1="65.219" x2="63.772" y1="371.742" y2="371.738"/><line clip-rule="evenodd" fill="none" fill-rule="evenodd" stroke="#474747" stroke-linecap="round" stroke-linejoin="round" stroke-miterlimit="10" stroke-width="15" x1="30.441" x2="28.994" y1="371.644" y2="371.64"/></g><g><line clip-rule="evenodd" fill="none" fill-rule="evenodd" stroke="#474747" stroke-linecap="round" stroke-linejoin="round" stroke-miterlimit="10" stroke-width="15" x1="465.158" x2="465.154" y1="458.578" y2="460.026"/><line clip-rule="evenodd" fill="none" fill-rule="evenodd" stroke="#474747" stroke-linecap="round" stroke-linejoin="round" stroke-miterlimit="10" stroke-width="15" x1="465.059" x2="465.055" y1="493.356" y2="494.804"/><line clip-rule="evenodd" fill="none" fill-rule="evenodd" stroke="#474747" stroke-linecap="round" stroke-linejoin="round" stroke-miterlimit="10" stroke-width="15" x1="483.219" x2="481.772" y1="476.742" y2="476.738"/><line clip-rule="evenodd" fill="none" fill-rule="evenodd" stroke="#474747" stroke-linecap="round" stroke-linejoin="round" stroke-miterlimit="10" stroke-width="15" x1="448.441" x2="446.994" y1="476.644" y2="476.64"/></g></g></svg>