<?xml version="1.0" ?><svg enable-background="new 0 0 512 512" id="Layer_2" version="1.1" viewBox="0 0 512 512" xml:space="preserve" xmlns="http://www.w3.org/2000/svg" xmlns:xlink="http://www.w3.org/1999/xlink"><g><g><path d="    M182.8,493.282l-3.223-102.553c-1.458-5.954-5.012-11.184-10.012-14.732l-38.763-37.509c-6.609-4.691-11.625-11.292-14.373-18.916    l-13.011-84.289" fill="none" stroke="#474747" stroke-linecap="round" stroke-linejoin="round" stroke-miterlimit="10" stroke-width="15"/><path d="    M159.922,182.293L159.922,182.293c-14.452,2.331-28.057-7.494-30.388-21.945l-14.917-79.673    c-2.331-14.452,7.494-28.057,21.945-30.388l0,0c14.452-2.331,28.057,7.494,30.388,21.945l14.917,79.673    C184.198,166.356,174.373,179.962,159.922,182.293z" fill="none" stroke="#474747" stroke-linecap="round" stroke-linejoin="round" stroke-miterlimit="10" stroke-width="15"/><path d="    M250.173,160.456L250.173,160.456c-14.53-1.782-24.863-15.006-23.081-29.535l10.346-88.038    c1.782-14.529,15.006-24.863,29.535-23.081l0,0c14.529,1.782,24.863,15.006,23.081,29.535l-10.346,88.038    C277.926,151.904,264.703,162.238,250.173,160.456z" fill="none" stroke="#474747" stroke-linecap="round" stroke-linejoin="round" stroke-miterlimit="10" stroke-width="15"/><path d="    M350.538,194.273L350.538,194.273c-14.53-1.782-24.863-15.006-23.081-29.535L339.804,76.7    c1.782-14.529,15.006-24.863,29.535-23.081l0,0c14.529,1.782,24.863,15.006,23.081,29.535l-12.346,88.038    C378.291,185.721,365.068,196.055,350.538,194.273z" fill="none" stroke="#474747" stroke-linecap="round" stroke-linejoin="round" stroke-miterlimit="10" stroke-width="15"/><path d="    M430.717,243.271L430.717,243.271c-14.004-4.264-21.899-19.073-17.635-33.077l23.968-85.575    c4.264-14.004,19.073-21.899,33.077-17.635l0,0c14.004,4.264,21.899,19.073,17.635,33.077l-23.968,85.575    C459.53,239.64,444.721,247.535,430.717,243.271z" fill="none" stroke="#474747" stroke-linecap="round" stroke-linejoin="round" stroke-miterlimit="10" stroke-width="15"/><path d="    M180.87,145.722l-4-74.967c0-14.762,11.967-26.729,26.729-26.729h0c14.762,0,26.729,11.967,26.729,26.729v30.105" fill="none" stroke="#474747" stroke-linecap="round" stroke-linejoin="round" stroke-miterlimit="10" stroke-width="15"/><path d="    M288.808,61.301c2.317-14.579,16.014-24.519,30.593-22.201l0,0c14.579,2.317,24.519,16.014,22.201,30.593" fill="none" stroke="#474747" stroke-linecap="round" stroke-linejoin="round" stroke-miterlimit="10" stroke-width="15"/><path d="    M390.831,99.207c3.807-14.263,18.455-22.739,32.717-18.932l0,0c14.263,3.807,22.739,18.455,18.932,32.717" fill="none" stroke="#474747" stroke-linecap="round" stroke-linejoin="round" stroke-miterlimit="10" stroke-width="15"/><line fill="none" stroke="#474747" stroke-linecap="round" stroke-linejoin="round" stroke-miterlimit="10" stroke-width="15" x1="150.241" x2="155.418" y1="183.983" y2="246.282"/><path d="    M379.304,425.057v-13.944c0-12.75,6.524-24.612,17.291-31.44l0,0c12.984-8.234,22.426-31.019,26.476-45.851l16.32-89.418" fill="none" stroke="#474747" stroke-linecap="round" stroke-linejoin="round" stroke-miterlimit="10" stroke-width="15"/><line fill="none" stroke="#474747" stroke-linecap="round" stroke-linejoin="round" stroke-miterlimit="10" stroke-width="15" x1="379.304" x2="379.304" y1="493.282" y2="463.356"/><line fill="none" stroke="#474747" stroke-linecap="round" stroke-linejoin="round" stroke-miterlimit="10" stroke-width="15" x1="103.418" x2="86.418" y1="235.283" y2="264.282"/><path d="    M82.877,157.525l20.541-32.243l15.442,19.303c12.507,15.634,14.664,37.157,5.507,54.962l-3.83,6.534" fill="none" stroke="#474747" stroke-linecap="round" stroke-linejoin="round" stroke-miterlimit="10" stroke-width="15"/><path d="    M139.418,493.282v-60.48c0-9.689-4.866-18.731-12.953-24.069l-24.049-15.873c-8.461-5.584-15.006-23.629-18.752-33.05    l-39.93-100.413c-7.564-12.354-7.599-27.898-0.091-40.286l20.874-32.765" fill="none" stroke="#474747" stroke-linecap="round" stroke-linejoin="round" stroke-miterlimit="10" stroke-width="15"/></g><path d="   M451.862,369.488c-0.971-1.374-1.958-2.757-2.963-4.151" fill="none" stroke="#474747" stroke-linecap="round" stroke-linejoin="round" stroke-miterlimit="10" stroke-width="15"/><path d="   M261.856,340.498c107.605,90.39,202.573,142.617,223.431,119.902c9.311-10.14,2.485-33.724-16.751-65.581" fill="none" stroke="#474747" stroke-linecap="round" stroke-linejoin="round" stroke-miterlimit="10" stroke-width="15"/><path d="   M92.151,49.943C59.659,34.162,36.241,29.702,27.09,39.668C7.383,61.13,88.418,187.282,194.418,285.282" fill="none" stroke="#474747" stroke-linecap="round" stroke-linejoin="round" stroke-miterlimit="10" stroke-width="15"/></g></svg>