<?xml version="1.0" ?><svg enable-background="new 0 0 512 512" id="Layer_2" version="1.1" viewBox="0 0 512 512" xml:space="preserve" xmlns="http://www.w3.org/2000/svg" xmlns:xlink="http://www.w3.org/1999/xlink"><g><path d="   M21.607,180.441l125.414,85.388c9.955,6.778,22.248,9.189,34.025,6.675l66.945-14.292c2.404-0.513,4.855-0.772,7.312-0.772h110.303   V263c0,21.23-17.211,38.441-38.441,38.441h-43.656c-7.568,0-14.77,3.25-19.777,8.925l0,0c-11.282,12.786-7.648,32.757,7.415,40.749   l13.807,7.326c3.715,1.971,7.847,3.025,12.052,3.075l78.601,0.925l70.465-9.977c23.706-3.357,45.794,12.714,49.896,36.302   l0.639,3.676l-116.248,20.072l-95.752,1.928" fill="none" stroke="#474747" stroke-linecap="round" stroke-linejoin="round" stroke-miterlimit="10" stroke-width="15"/><path d="   M470.51,397.667c9.236,5.727,16.123,14.155,18.31,25.642l0.787,4.133l-101.248,23.072l-89,5" fill="none" stroke="#474747" stroke-linecap="round" stroke-linejoin="round" stroke-miterlimit="10" stroke-width="15"/><path d="   M463.884,434.059c6.165,3.903,10.792,10.238,12.308,18.008l2.414,12.374l-95.248,21.072l-86.627,2.762   c-4.863,0.157-9.706-0.693-14.225-2.496l-76.666-30.991c-15.512-6.126-29.708-15.164-41.824-26.625l-55.659-52.65l-92.752-46.072" fill="none" stroke="#474747" stroke-linecap="round" stroke-linejoin="round" stroke-miterlimit="10" stroke-width="15"/><g><path d="    M496.358,84.514l-65.717-3.186v30.769h-76V69.846c0-20.154,15.29-37.02,35.347-38.992l106.37-10.34" fill="none" stroke="#474747" stroke-linecap="round" stroke-linejoin="round" stroke-miterlimit="10" stroke-width="15"/><line fill="none" stroke="#474747" stroke-linecap="round" stroke-linejoin="round" stroke-miterlimit="10" stroke-width="15" x1="394.141" x2="358.141" y1="81.097" y2="81.097"/></g><path d="   M21.358,88.514l137.187,110.007c10.312,9.196,24.921,11.808,37.781,6.756l62.004-22.242c4.651-1.668,9.555-2.521,14.496-2.521   h71.533" fill="none" stroke="#474747" stroke-linecap="round" stroke-linejoin="round" stroke-miterlimit="10" stroke-width="15"/><line fill="none" stroke="#474747" stroke-linecap="round" stroke-linejoin="round" stroke-miterlimit="10" stroke-width="15" x1="430.358" x2="430.358" y1="141.514" y2="301.514"/><line fill="none" stroke="#474747" stroke-linecap="round" stroke-linejoin="round" stroke-miterlimit="10" stroke-width="15" x1="430.358" x2="430.358" y1="325.514" y2="328.514"/><line fill="none" stroke="#474747" stroke-linecap="round" stroke-linejoin="round" stroke-miterlimit="10" stroke-width="15" x1="399.358" x2="399.358" y1="203.514" y2="243.514"/><line fill="none" stroke="#474747" stroke-linecap="round" stroke-linejoin="round" stroke-miterlimit="10" stroke-width="15" x1="399.358" x2="399.358" y1="176.514" y2="180.514"/><line fill="none" stroke="#474747" stroke-linecap="round" stroke-linejoin="round" stroke-miterlimit="10" stroke-width="15" x1="354.358" x2="354.358" y1="141.514" y2="222.514"/><line fill="none" stroke="#474747" stroke-linecap="round" stroke-linejoin="round" stroke-miterlimit="10" stroke-width="15" x1="455.358" x2="474.358" y1="308.514" y2="273.514"/><line fill="none" stroke="#474747" stroke-linecap="round" stroke-linejoin="round" stroke-miterlimit="10" stroke-width="15" x1="470.358" x2="489.358" y1="326.514" y2="320.514"/></g></svg>