<?xml version="1.0" ?><svg enable-background="new 0 0 512 512" id="Layer_2" version="1.1" viewBox="0 0 512 512" xml:space="preserve" xmlns="http://www.w3.org/2000/svg" xmlns:xlink="http://www.w3.org/1999/xlink"><g><path d="   M18.517,294.019l104.271,66.779c0,0,83.995-35.108,108.623-34.928c2.626-0.326,5.3-0.213,7.908,0.376l94.001,21.233   c12.178,2.751,20.411,14.563,18.094,26.831c-2.432,12.879-15.025,21.068-27.702,18.207l-34.896-7.882l-38.511-8.82   c-7.13-1.628-14.228,2.822-15.861,9.949c-1.632,7.127,2.822,14.228,9.949,15.861l111.999,24.893   c0.994,0.228,1.989,0.273,2.967,0.273c0.003,0,0.006,0,0.009,0c0,0,2.121,0.099,3.909-0.498l105.306-39.934   c10.164-3.778,21.5,1.592,24.949,11.977c3.286,9.893-2.209,20.585-11.98,24.219l-108.098,51.77   c-3.852,1.578-7.957,2.422-12.119,2.487c-27.26,0.431-134.082,2.072-140.899,1.462c-7.95-0.719-90.636-21.343-90.636-21.343   L18.517,414.175" fill="none" stroke="#474747" stroke-linecap="round" stroke-linejoin="round" stroke-miterlimit="10" stroke-width="15"/><path d="   M354.313,327.542c4.327-7.873,8.862-15.287,12.692-21.204c11.359,17.934,29.027,49.196,29.027,65.014   c0,4.28-1.119,8.327-3.103,11.908" fill="none" stroke="#474747" stroke-linecap="round" stroke-linejoin="round" stroke-miterlimit="10" stroke-width="15"/><path d="   M495.017,30.4H305.689c-15.842,0-28.684,12.842-28.684,28.684V193.27c0,15.842,12.842,28.684,28.684,28.684h129.005l28.574-25.399   h31.749" fill="none" stroke="#474747" stroke-linecap="round" stroke-linejoin="round" stroke-miterlimit="10" stroke-width="15"/><polyline fill="none" points="   401.886,221.954 401.886,253.703 338.387,253.703 338.387,221.954  " stroke="#474747" stroke-linecap="round" stroke-linejoin="round" stroke-miterlimit="10" stroke-width="15"/></g></svg>