<?xml version="1.0" ?><svg enable-background="new 0 0 512 512" id="Layer_2" version="1.1" viewBox="0 0 512 512" xml:space="preserve" xmlns="http://www.w3.org/2000/svg" xmlns:xlink="http://www.w3.org/1999/xlink"><g><g><path d="    M234.295,321.11l-25.532-88.32c-3.748-12.966,3.724-26.516,16.69-30.264l0,0c12.966-3.748,26.516,3.724,30.264,16.69l10.817,37.42    " fill="none" stroke="#474747" stroke-linecap="round" stroke-linejoin="round" stroke-miterlimit="10" stroke-width="15"/><path d="    M266.536,256.637l-10.817-37.42c-3.748-12.966,3.724-26.516,16.69-30.264l0,0c12.966-3.748,26.516,3.724,30.264,16.69    l10.817,37.42" fill="none" stroke="#474747" stroke-linecap="round" stroke-linejoin="round" stroke-miterlimit="10" stroke-width="15"/><path d="    M313.491,243.063l-10.817-37.42c-3.748-12.966,3.724-26.516,16.69-30.264l0,0c12.966-3.748,26.516,3.724,30.264,16.69    l10.817,37.42" fill="none" stroke="#474747" stroke-linecap="round" stroke-linejoin="round" stroke-miterlimit="10" stroke-width="15"/><path d="    M417.407,250.53l16.675,57.682c4.527,15.661,4.703,32.259,0.508,48.012l-5.953,22.355c-4.195,15.753-4.019,32.351,0.508,48.012    l21.416,67.767" fill="none" stroke="#474747" stroke-linecap="round" stroke-linejoin="round" stroke-miterlimit="10" stroke-width="15"/><path d="    M360.445,229.49l-6.403-22.15c-3.748-12.966,3.724-26.516,16.69-30.264l0,0c12.966-3.748,26.516,3.724,30.264,16.69l6.733,23.291" fill="none" stroke="#474747" stroke-linecap="round" stroke-linejoin="round" stroke-miterlimit="10" stroke-width="15"/><path d="    M225.019,395.587c5.711,7.322,12.565,13.767,20.363,19.06l13.621,9.245c17.327,11.761,29.995,29.211,35.811,49.328l4.746,21.139" fill="none" stroke="#474747" stroke-linecap="round" stroke-linejoin="round" stroke-miterlimit="10" stroke-width="15"/><path d="    M213.059,247.649l-11.708,18.642c-8.891,14.157-11.32,31.434-6.678,47.493l14.898,51.535c0.295,1.021,0.608,2.035,0.938,3.042" fill="none" stroke="#474747" stroke-linecap="round" stroke-linejoin="round" stroke-miterlimit="10" stroke-width="15"/></g><g><path d="    M150.638,259.462V60.105c0-13.668,11.08-24.747,24.747-24.747h0c13.668,0,24.747,11.08,24.747,24.747v124.254" fill="none" stroke="#474747" stroke-linecap="round" stroke-linejoin="round" stroke-miterlimit="10" stroke-width="15"/><path d="    M249.628,174.359V60.105c0-13.668,11.08-24.747,24.747-24.747h0c13.668,0,24.747,11.08,24.747,24.747v91.254" fill="none" stroke="#474747" stroke-linecap="round" stroke-linejoin="round" stroke-miterlimit="10" stroke-width="15"/><path d="    M299.123,151.359v-64.08c0-13.668,11.08-24.747,24.747-24.747h0c13.668,0,24.747,11.08,24.747,24.747v60.08" fill="none" stroke="#474747" stroke-linecap="round" stroke-linejoin="round" stroke-miterlimit="10" stroke-width="15"/><path d="    M200.133,178.359V43.606c0-13.668,11.08-24.747,24.747-24.747h0c13.668,0,24.747,11.08,24.747,24.747v130.753" fill="none" stroke="#474747" stroke-linecap="round" stroke-linejoin="round" stroke-miterlimit="10" stroke-width="15"/><line fill="none" stroke="#474747" stroke-linecap="round" stroke-linejoin="round" stroke-miterlimit="10" stroke-width="15" x1="170.048" x2="170.048" y1="425.587" y2="494.359"/><path d="    M173.081,270.325c-6.941-0.752-14.409-1.159-22.442-1.159l-33.967-30.085l-12.289-48.763    c-4.941-19.98-25.532-31.819-45.286-26.038l-4.536,1.044l15.149,76.319c0.894,4.735,2.499,9.308,4.758,13.565l32.909,62.849    c2.934,5.526,6.919,10.425,11.732,14.422l41.097,33.325c6.236,5.179,9.843,12.864,9.843,20.97v4.517" fill="none" stroke="#474747" stroke-linecap="round" stroke-linejoin="round" stroke-miterlimit="10" stroke-width="15"/></g><path d="   M69.142,343.829c0.963-1.14,1.942-2.287,2.938-3.441" fill="none" stroke="#474747" stroke-linecap="round" stroke-linejoin="round" stroke-miterlimit="10" stroke-width="15"/><path d="   M245.963,347.691C142.209,415.519,51.986,449.308,33.842,424.372c-8.1-11.131-0.646-32.329,18.67-59.313" fill="none" stroke="#474747" stroke-linecap="round" stroke-linejoin="round" stroke-miterlimit="10" stroke-width="15"/><path d="   M384.117,112.852c47.793-20.367,82.724-25.727,93.276-11.225c17.143,23.56-35.389,92.214-122.595,165.383" fill="none" stroke="#474747" stroke-linecap="round" stroke-linejoin="round" stroke-miterlimit="10" stroke-width="15"/></g></svg>