<?xml version="1.0" ?><svg enable-background="new 0 0 512 512" id="Layer_2" version="1.1" viewBox="0 0 512 512" xml:space="preserve" xmlns="http://www.w3.org/2000/svg" xmlns:xlink="http://www.w3.org/1999/xlink"><g><g><path d="    M331.899,239.485l-32.796-96.664c-3.983-11.695,2.268-24.404,13.963-28.387l0,0c11.695-3.983,24.404,2.268,28.387,13.963    l27.445,81.089" fill="none" stroke="#474747" stroke-linecap="round" stroke-linejoin="round" stroke-miterlimit="10" stroke-width="15"/><path d="    M425.813,237.314l28.338,83.201c5.357,15.729,7.558,32.361,6.476,48.943v0c-1.082,16.581,1.118,33.213,6.476,48.943l24.604,59.294    " fill="none" stroke="#474747" stroke-linecap="round" stroke-linejoin="round" stroke-miterlimit="10" stroke-width="15"/><path d="    M368.899,209.485l-19.526-57.837c-3.983-11.695,2.268-24.404,13.963-28.387l0,0c11.695-3.983,24.404,2.268,28.387,13.963    l21.373,62.753" fill="none" stroke="#474747" stroke-linecap="round" stroke-linejoin="round" stroke-miterlimit="10" stroke-width="15"/><path d="    M297.598,277.171l-45.654-134.042c-3.983-11.695,2.268-24.404,13.963-28.387l0,0c11.695-3.983,24.404,2.268,28.387,13.963    l37.604,110.781" fill="none" stroke="#474747" stroke-linecap="round" stroke-linejoin="round" stroke-miterlimit="10" stroke-width="15"/><path d="    M190.899,351.485l-2.536-85.112l6.954,0.517c22.223,1.651,39.741,19.588,40.866,41.844l1.313,25.976l34.797,7.29L214.402,171.67    c-3.983-11.695,2.268-24.404,13.963-28.387h0c11.695-3.983,24.404,2.268,28.387,13.963l40.846,119.926" fill="none" stroke="#474747" stroke-linecap="round" stroke-linejoin="round" stroke-miterlimit="10" stroke-width="15"/><path d="    M343.899,497.485l-17.688-51.957c-2.362-6.936-7.689-12.461-14.534-15.075l-44.877-16.538c-5.283-2.018-10.121-5.048-14.241-8.922    l-41.66-33.509" fill="none" stroke="#474747" stroke-linecap="round" stroke-linejoin="round" stroke-miterlimit="10" stroke-width="15"/></g><g><g><path d="     M147.149,240.358l14.151-190.43c0.97-13.056,12.34-22.853,25.396-21.883l0,0c13.056,0.97,22.853,12.34,21.883,25.396" fill="none" stroke="#474747" stroke-linecap="round" stroke-linejoin="round" stroke-miterlimit="10" stroke-width="15"/><path d="     M249.899,140.485l5.959-83.531c0.97-13.056,12.34-22.853,25.396-21.883l0,0c13.056,0.97,22.853,12.34,21.883,25.396     l-5.238,66.018" fill="none" stroke="#474747" stroke-linecap="round" stroke-linejoin="round" stroke-miterlimit="10" stroke-width="15"/><path d="     M297.899,126.485l3.309-40.061c0.97-13.056,12.34-22.853,25.396-21.883h0c13.056,0.97,22.853,12.34,21.883,25.396l-3.588,42.548" fill="none" stroke="#474747" stroke-linecap="round" stroke-linejoin="round" stroke-miterlimit="10" stroke-width="15"/><path d="     M195.899,225.485l13.852-187.804c0.97-13.056,12.34-22.853,25.396-21.883l0,0c13.056,0.97,22.853,12.34,21.883,25.396     l-7.13,99.291" fill="none" stroke="#474747" stroke-linecap="round" stroke-linejoin="round" stroke-miterlimit="10" stroke-width="15"/><line fill="none" stroke="#474747" stroke-linecap="round" stroke-linejoin="round" stroke-miterlimit="10" stroke-width="15" x1="153.898" x2="149.016" y1="400.422" y2="466.114"/><path d="     M167.816,252.328c-6.577-1.211-13.681-2.13-21.355-2.7l-30.311-31.149l-8.278-47.452c-3.302-19.436-22.13-32.207-41.41-28.087     l-4.407,0.675l9.053,73.977c0.518,4.587,1.726,9.069,3.582,13.295l26.974,62.371c2.41,5.487,5.869,10.45,10.183,14.609     l36.891,34.751c5.589,5.39,8.489,12.987,7.914,20.73l-0.321,4.314" fill="none" stroke="#474747" stroke-linecap="round" stroke-linejoin="round" stroke-miterlimit="10" stroke-width="15"/></g><path d="    M63.314,315.163c1.001-1.021,2.018-2.047,3.051-3.079" fill="none" stroke="#474747" stroke-linecap="round" stroke-linejoin="round" stroke-miterlimit="10" stroke-width="15"/><path d="    M215.06,340.527c-96.499,50.976-176.471,72.802-191.183,49.066c-6.947-11.208,1.678-30.927,22.044-55.332" fill="none" stroke="#474747" stroke-linecap="round" stroke-linejoin="round" stroke-miterlimit="10" stroke-width="15"/><path d="    M380.581,116.886c47.099-16.062,80.846-18.703,89.896-4.101c14.703,23.722-40.35,85.573-128.845,149.276" fill="none" stroke="#474747" stroke-linecap="round" stroke-linejoin="round" stroke-miterlimit="10" stroke-width="15"/></g></g></svg>