<?xml version="1.0" ?><svg id="_x31_-outline-expand" style="enable-background:new 0 0 64 64;" version="1.1" viewBox="0 0 64 64" xml:space="preserve" xmlns="http://www.w3.org/2000/svg" xmlns:xlink="http://www.w3.org/1999/xlink"><path d="M36,32c0,2.208-1.791,4-4,4c-2.208,0-4-1.791-4-4c0-2.208,1.791-4,4-4C34.209,28,36,29.792,36,32  L36,32z" style="fill:#3A4249;"/><path d="M44.03,3c-4.501,0-8.818,1.788-12,4.971L20.708,19.293l4,4l-1.414,1.414l-4-4L7.971,32.029  C4.788,35.212,3,39.528,3,44.029C3,53.402,10.598,61,19.971,61c4.501,0,8.817-1.788,12-4.971l11.322-11.322l-4-4l1.414-1.414l4,4  L56.03,31.971c3.182-3.183,4.97-7.499,4.97-12C61,10.598,53.402,3,44.03,3z M34.151,10.092c1.003-1.003,2.142-1.844,3.382-2.498  l0.933,1.77c-1.063,0.561-2.039,1.281-2.901,2.143l-3.201,3.201l-1.414-1.414L34.151,10.092z M38,32  c0,0.736-0.139,1.437-0.381,2.089l1.81,1.045l0.5-0.866l1.732,1l-2,3.465l-1.732-1l0.5-0.866l-1.805-1.042  C35.725,36.909,34.45,37.666,33,37.91V40h1v2h-4v-2h1v-2.09c-1.449-0.244-2.724-1.001-3.623-2.086l-1.805,1.042l0.5,0.866l-1.732,1  l-2-3.465l1.732-1l0.5,0.866l1.81-1.045C26.139,33.437,26,32.736,26,32s0.139-1.437,0.381-2.089l-1.81-1.045l-0.5,0.866l-1.732-1  l2-3.465l1.732,1l-0.5,0.866l1.805,1.042c0.899-1.085,2.174-1.842,3.623-2.086V24h-1v-2h4v2h-1v2.09  c1.449,0.244,2.724,1.001,3.623,2.086l1.805-1.042l-0.5-0.866l1.732-1l2,3.465l-1.732,1l-0.5-0.866l-1.81,1.045  C37.861,30.563,38,31.264,38,32z M44.029,8c-0.947,0-1.888,0.109-2.797,0.326l-0.464-1.945C41.83,6.128,42.927,6,44.029,6V8z" style="fill:#3A4249;"/></svg>