<?xml version="1.0" ?><svg id="_x31_-outline-expand" style="enable-background:new 0 0 64 64;" version="1.1" viewBox="0 0 64 64" xml:space="preserve" xmlns="http://www.w3.org/2000/svg" xmlns:xlink="http://www.w3.org/1999/xlink"><path d="M54,10c0-3.87-3.13-7-7-7s-7,3.13-7,7c0,0.35,0.03,0.7,0.09,1.03c2.19-0.95,4.83-0.53,6.62,1.26  l-1.42,1.42c-1.25-1.25-3.13-1.5-4.62-0.74C41.77,15.35,44.19,17,47,17C50.87,17,54,13.87,54,10z" style="fill:#3A4249;"/><path d="M18.928,9.732l1.732-1l-2-3.464l-1.732,1l0.5,0.866l-1.805,1.042C14.724,7.091,13.449,6.334,12,6.09  V4h1V2H9v2h1v2.09C8.551,6.334,7.276,7.091,6.377,8.176L4.572,7.134l0.5-0.866l-1.732-1l-2,3.464l1.732,1l0.5-0.866l1.81,1.045  C5.139,10.563,5,11.264,5,12s0.139,1.437,0.381,2.089l-1.81,1.045l-0.5-0.866l-1.732,1l2,3.464l1.732-1l-0.5-0.866l1.805-1.042  C7.276,16.909,8.551,17.666,10,17.91V20H9v2h4v-2h-1v-2.09c1.449-0.244,2.724-1.001,3.623-2.086l1.805,1.042l-0.5,0.866l1.732,1  l2-3.464l-1.732-1l-0.5,0.866l-1.81-1.045C16.861,13.437,17,12.736,17,12s-0.139-1.437-0.381-2.089l1.81-1.045L18.928,9.732z M11,16  c-2.209,0-4-1.791-4-4s1.791-4,4-4s4,1.791,4,4S13.209,16,11,16z" style="fill:#3A4249;"/><polygon points="30.293,15.293 31.707,16.707 36.414,12 31.707,7.293 30.293,8.707 32.586,11 25,11 25,13   32.586,13 " style="fill:#3A4249;"/><rect height="2" style="fill:#3A4249;" width="2" x="21" y="11"/><path d="M56,17h-9h-7.521c-3.103,0-5.694,2.366-5.975,5.457L33,28l-8,6l4,5l10-7v-8h2v8h-2v6l-4,24h8l4-24v24  h8V38V24h2v14h5V23C62,19.687,59.313,17,56,17z M48,33h-2v-2h2V33z M48,29h-2v-8h2V29z" style="fill:#3A4249;"/></svg>