<?xml version="1.0" ?><svg id="_x31_-outline-expand" style="enable-background:new 0 0 64 64;" version="1.1" viewBox="0 0 64 64" xml:space="preserve" xmlns="http://www.w3.org/2000/svg" xmlns:xlink="http://www.w3.org/1999/xlink"><path d="M53.428,51.133l-1.81-1.045C51.861,49.437,52,48.735,52,48c0-0.736-0.139-1.438-0.382-2.089  l1.809-1.045l0.5,0.867l1.732-1l-2-3.465l-1.732,1l0.5,0.866l-1.805,1.042c-0.898-1.085-2.173-1.842-3.622-2.086v-2.091h1v-2h-4v2h1  v2.091c-1.449,0.244-2.724,1.001-3.623,2.086l-1.805-1.042l0.5-0.866l-1.732-1l-2,3.465l1.732,1l0.5-0.866l1.809,1.045  C40.139,46.562,40,47.264,40,48c0,0.736,0.139,1.437,0.381,2.089l-1.809,1.044l-0.5-0.866l-1.732,1l2,3.465l1.732-1l-0.5-0.866  l1.805-1.042c0.899,1.085,2.174,1.843,3.623,2.086v2.09h-1v2h4v-2h-1v-2.09c1.449-0.244,2.724-1.001,3.623-2.086l1.805,1.042  l-0.5,0.867l1.732,1l2-3.465l-1.732-1L53.428,51.133z M46,51.999c-2.208,0-4-1.791-4-3.999c0-2.208,1.791-4,4-4s4,1.791,4,4  C49.999,50.208,48.208,51.999,46,51.999z" style="fill:#3A4249;"/><path d="M24,9.999c-3.859,0-7,3.141-7,7v4h14v-4C31,13.14,27.859,9.999,24,9.999z M23,15.413l-1.293,1.293  l-1.414-1.414L21,14.585v-1.586h2V15.413z M26.293,16.706L25,15.413v-2.414h2v1.586l0.707,0.707L26.293,16.706z" style="fill:#3A4249;"/><path d="M49.508,34.46L53,17L46,2h-7.793l6.883,14.749l-3.601,18.007c-0.777,0.265-1.527,0.587-2.235,0.977  L43,17L36,2H12L5,17l9,45h20l1.057-5.283c0.509,0.639,1.076,1.227,1.688,1.767c0,0-0.001-0.001-0.001-0.001L36.04,62H44l0.031-0.154  c-0.006-0.001-0.011-0.002-0.017-0.003C44.664,61.935,45.324,62,46,62c7.732,0,14-6.268,14-14C60,41.481,55.539,36.019,49.508,34.46  z M18,57.999h-2v-2h2V57.999z M22,57.999h-2v-2h2V57.999z M26,57.999h-2v-2h2V57.999z M28,29.999h-8c-2.206,0-4-1.794-4-4h2  c0,1.103,0.897,2,2,2h8c1.103,0,2-0.897,2-2h2C32,28.205,30.206,29.999,28,29.999z M33,22.999h-2v2h-2v-2h-2v2h-2v-2h-2v2h-2v-2h-2  v2h-2v-2h-2v-6c0-4.963,4.037-9,9-9s9,4.037,9,9V22.999z M46,60c-6.627,0-12-5.373-12-12c0-6.627,5.373-12,12-12  c6.627,0,12,5.373,12,12C58,54.627,52.627,60,46,60z" style="fill:#3A4249;"/></svg>