<?xml version="1.0" ?><svg id="_x31_-outline-expand" style="enable-background:new 0 0 64 64;" version="1.1" viewBox="0 0 64 64" xml:space="preserve" xmlns="http://www.w3.org/2000/svg" xmlns:xlink="http://www.w3.org/1999/xlink"><path d="M15,3C7.82,3,2,8.82,2,16s5.82,13,13,13s13-5.82,13-13S22.18,3,15,3z M22.661,22.732l-1.732-1  l0.5-0.866l-1.805-1.042C18.725,20.909,17.45,21.666,16,21.91V24h1v2h-4v-2h1v-2.09c-1.449-0.244-2.724-1.001-3.623-2.086  l-1.805,1.042l0.5,0.866l-1.732,1l-2-3.465l1.732-1l0.5,0.866l1.81-1.045C9.139,17.437,9,16.736,9,16s0.139-1.437,0.381-2.089  l-1.81-1.045l-0.5,0.866l-1.732-1l2-3.465l1.732,1l-0.5,0.866l1.805,1.042c0.899-1.085,2.174-1.842,3.623-2.086V8h-1V6h4v2h-1v2.09  c1.449,0.244,2.724,1.001,3.623,2.086l1.805-1.042l-0.5-0.866l1.732-1l2,3.465l-1.732,1l-0.5-0.866l-1.81,1.045  C20.861,14.563,21,15.264,21,16s-0.139,1.437-0.381,2.089l1.81,1.045l0.5-0.866l1.732,1L22.661,22.732z" style="fill:#3A4249;"/><path d="M15,12c-2.208,0-4,1.791-4,4s1.791,4,4,4s4-1.791,4-4S17.209,12,15,12z" style="fill:#3A4249;"/><path d="M36,28h12v-6l7,7v2.809C55.884,31.298,56.906,31,58,31c0.702,0,1.374,0.127,2,0.349V28L50,18l5-5  l-1-1l3.293-3.293l2,2l1.414-1.414l-8-8l-1.414,1.414l2,2L50,8l-1-1L36,20V28z" style="fill:#3A4249;"/><polygon points="40,44 44,44 44,40 50,40 50,30 34,30 34,40 40,40 " style="fill:#3A4249;"/><path d="M55,42.191V46H32v2h23v8h-7v-4H36v4h-8c-1.104,0-2,0.896-2,2v4h30c2.209,0,4-1.791,4-4V42.651  C59.374,42.873,58.703,43,58,43C56.906,43,55.884,42.702,55,42.191z" style="fill:#3A4249;"/><path d="M58,33c-2.209,0-4,1.791-4,4s1.791,4,4,4c2.209,0,4-1.791,4-4S60.209,33,58,33z M58,39  c-1.104,0-2-0.895-2-2c0-1.104,0.895-2,2-2c1.104,0,2,0.895,2,2C60,38.104,59.105,39,58,39z" style="fill:#3A4249;"/><rect height="2" style="fill:#3A4249;" width="2" x="13" y="32"/><rect height="2" style="fill:#3A4249;" width="2" x="13" y="36"/><rect height="2" style="fill:#3A4249;" width="2" x="13" y="40"/><rect height="2" style="fill:#3A4249;" width="2" x="13" y="44"/><rect height="2" style="fill:#3A4249;" width="2" x="13" y="48"/><rect height="2" style="fill:#3A4249;" width="2" x="13" y="52"/><rect height="2" style="fill:#3A4249;" width="2" x="13" y="56"/><rect height="2" style="fill:#3A4249;" width="2" x="17" y="56"/><rect height="2" style="fill:#3A4249;" width="2" x="21" y="56"/><rect height="2" style="fill:#3A4249;" width="2" x="30" y="10"/><rect height="2" style="fill:#3A4249;" width="2" x="34" y="10"/><rect height="2" style="fill:#3A4249;" width="2" x="38" y="10"/></svg>