<?xml version="1.0" ?><svg id="_x31_-outline-expand" style="enable-background:new 0 0 64 64;" version="1.1" viewBox="0 0 64 64" xml:space="preserve" xmlns="http://www.w3.org/2000/svg" xmlns:xlink="http://www.w3.org/1999/xlink"><path d="M23.686,48.833L23,48.735V54c0,1.381,1.119,2.5,2.5,2.5S28,55.381,28,54v-2.982l-3.087-1.763  C24.533,49.036,24.121,48.895,23.686,48.833z" style="fill:#3A4249;"/><path d="M44.4,37.4l-2.084-2.083c-0.853-0.854-1.4-1.966-1.554-3.164L37.64,7.959C37.274,5.123,34.859,3,32,3  s-5.274,2.123-5.64,4.959l-3.122,24.194c-0.154,1.198-0.701,2.31-1.554,3.164L19.6,37.4c-1.025,1.024-1.6,2.414-1.6,3.863  c0,2.718,1.999,5.023,4.689,5.407l1.279,0.183c0.681,0.097,1.34,0.322,1.937,0.665l3.385,1.933c1.679,0.96,3.741,0.96,5.42,0  l3.385-1.933c0.597-0.343,1.256-0.568,1.937-0.665l1.279-0.183C44.001,46.286,46,43.981,46,41.263  C46,39.814,45.425,38.424,44.4,37.4z" style="fill:#3A4249;"/><path d="M39,51c0,0-3,4.239-3,7s1.343,4,3,4s3-1.239,3-4S39,51,39,51z" style="fill:#3A4249;"/></svg>