<?xml version="1.0" ?><svg id="_x31_-outline-expand" style="enable-background:new 0 0 64 64;" version="1.1" viewBox="0 0 64 64" xml:space="preserve" xmlns="http://www.w3.org/2000/svg" xmlns:xlink="http://www.w3.org/1999/xlink"><path d="M54,11H43V6c0-2.209-1.791-4-4-4H25c-2.209,0-4,1.791-4,4v5H10c-2.209,0-4,1.791-4,4v2h52v-2  C58,12.791,56.209,11,54,11z M25,11V6h14v5H25z" style="fill:#3A4249;"/><path d="M59.5,19h-55C3.119,19,2,20.119,2,21.5S3.119,24,4.5,24H6v34c0,2.209,1.791,4,4,4h6  c-2.761,0-5-1.134-5-5c0-3.866,5-9,5-9s5,5.134,5,9c0,3.866-2.239,5-5,5h16c-2.761,0-5-1.134-5-5c0-3.866,5-9,5-9s5,5.134,5,9  c0,3.866-2.239,5-5,5h16c-2.761,0-5-1.134-5-5c0-3.866,5-9,5-9s5,5.134,5,9c0,3.866-2.239,5-5,5h6c2.209,0,4-1.791,4-4V24h1.5  c1.381,0,2.5-1.119,2.5-2.5S60.881,19,59.5,19z M47,24h-2v-2h2V24z M51,24h-2v-2h2V24z M55,24h-2v-2h2V24z" style="fill:#3A4249;"/><path d="M16,54c0,0-3,2.934-3,5.143C13,61.352,14.343,62,16,62c1.657,0,3-0.648,3-2.857  C19,56.934,16,54,16,54z" style="fill:#3A4249;"/><path d="M32,54c0,0-3,2.934-3,5.143C29,61.352,30.343,62,32,62c1.657,0,3-0.648,3-2.857  C35,56.934,32,54,32,54z" style="fill:#3A4249;"/><path d="M48,54c0,0-3,2.934-3,5.143C45,61.352,46.343,62,48,62s3-0.648,3-2.857C51,56.934,48,54,48,54z" style="fill:#3A4249;"/></svg>