<?xml version="1.0" ?><svg id="_x31_-outline-expand" style="enable-background:new 0 0 64 64;" version="1.1" viewBox="0 0 64 64" xml:space="preserve" xmlns="http://www.w3.org/2000/svg" xmlns:xlink="http://www.w3.org/1999/xlink"><path d="M29,26.759c-1.869,0-3.627-0.729-4.949-2.052l1.414-1.414c0.945,0.945,2.201,1.466,3.535,1.466  s2.59-0.521,3.535-1.466l1.414,1.414C32.627,26.03,30.869,26.759,29,26.759z" style="fill:#3A4249;"/><polygon points="50.383,26 47.286,26 48,31 51.454,31 " style="fill:#3A4249;"/><polygon points="44,16 44,24 52,24 55,38 62,38 62,23 57,16 " style="fill:#3A4249;"/><rect height="2" style="fill:#3A4249;" transform="matrix(0.7071 -0.7071 0.7071 0.7071 7.5233 34.163)" width="5.657" x="42.172" y="7"/><rect height="2" style="fill:#3A4249;" transform="matrix(0.9286 -0.3711 0.3711 0.9286 -1.0617 18.4817)" width="5.385" x="44.807" y="11"/><path d="M54,48c-3.866,0-7,3.134-7,7c0,3.866,3.134,7,7,7s7-3.134,7-7C61,51.134,57.866,48,54,48z M53,58.414  l-2.707-2.707l1.414-1.414L53,55.586l4.293-4.293l1.414,1.414L53,58.414z" style="fill:#3A4249;"/><rect height="2" style="fill:#3A4249;" width="2" x="57" y="41"/><rect height="2" style="fill:#3A4249;" width="2" x="57" y="45"/><rect height="2" style="fill:#3A4249;" width="2" x="42" y="54"/><rect height="2" style="fill:#3A4249;" width="2" x="38" y="54"/><rect height="2" style="fill:#3A4249;" width="2" x="34" y="54"/><rect height="2" style="fill:#3A4249;" width="2" x="30" y="54"/><rect height="2" style="fill:#3A4249;" width="2" x="26" y="54"/><path d="M38,20c0-3.169-0.825-6.143-2.263-8.729C39.407,9.79,42,6.201,42,2H20C10.059,2,2,10.059,2,20v13  l2,14v15h19V49h14V33h6L38,20z M35,31v9h-3c-1.103,0-2-0.897-2-2h-2c0,2.206,1.794,4,4,4h3v5H21v13H6V46.858L4.02,32.999  C8.429,32.988,12,29.411,12,25c-2.209,0-4-1.791-4-4s1.791-4,4-4v-5h20c0.594,0,1.172-0.062,1.737-0.161  C35.164,14.232,36,17.017,36,20v0.372L40.088,31H35z" style="fill:#3A4249;"/></svg>