<?xml version="1.0" ?><svg id="_x31_-outline-expand" style="enable-background:new 0 0 64 64;" version="1.1" viewBox="0 0 64 64" xml:space="preserve" xmlns="http://www.w3.org/2000/svg" xmlns:xlink="http://www.w3.org/1999/xlink"><path d="M37,21c0-3.169-0.825-6.143-2.263-8.729C38.407,10.79,41,7.201,41,3H19C9.059,3,1,11.059,1,21v13  l2,14v14h19V50h14v-6h-4c-1.657,0-3-1.343-3-3s1.343-3,3-3h4v-4h6L37,21z M34,32v4h-2c-2.757,0-5,2.243-5,5s2.243,5,5,5h2v2H20v12H5  V47.858L3.02,33.999C7.429,33.988,11,30.411,11,26c-2.209,0-4-1.791-4-4s1.791-4,4-4v-5h20c0.594,0,1.172-0.062,1.737-0.161  C34.164,15.232,35,18.017,35,21v0.372L39.088,32H34z" style="fill:#3A4249;"/><path d="M57.081,24.007c-0.602-1.118-1.984-1.555-3.12-0.987c-1.104,0.551-1.592,1.864-1.118,3.004L57,36v8  c0-1.657-1.343-3-3-3s-3,1.343-3,3v8l4,4v6h8V35L57.081,24.007z" style="fill:#3A4249;"/><polygon points="25.317,19.895 29.528,22 25.317,24.105 26.211,25.895 34,22 26.211,18.105 " style="fill:#3A4249;"/><rect height="2" style="fill:#3A4249;" width="2" x="38" y="40"/><rect height="2" style="fill:#3A4249;" width="2" x="42" y="40"/><rect height="2" style="fill:#3A4249;" width="2" x="42" y="44"/><rect height="2" style="fill:#3A4249;" width="2" x="42" y="36"/><rect height="2" style="fill:#3A4249;" width="2" x="46" y="36"/><rect height="2" style="fill:#3A4249;" width="2" x="46" y="32"/><rect height="2" style="fill:#3A4249;" width="2" x="46" y="40"/><rect height="2" style="fill:#3A4249;" width="2" x="46" y="44"/><rect height="2" style="fill:#3A4249;" width="2" x="46" y="48"/></svg>