<?xml version="1.0" ?><svg id="_x31_-outline-expand" style="enable-background:new 0 0 64 64;" version="1.1" viewBox="0 0 64 64" xml:space="preserve" xmlns="http://www.w3.org/2000/svg" xmlns:xlink="http://www.w3.org/1999/xlink"><path d="M32,1C14.879,1,1,14.879,1,32c0,17.121,13.879,31,31,31c17.121,0,31-13.879,31-31  C63,14.879,49.121,1,32,1z M32,59C17.088,59,5,46.912,5,32c0-6.736,2.472-12.891,6.552-17.62L49.62,52.448  C44.89,56.527,38.736,59,32,59z M52.448,49.62l-9.87-9.87C42.721,39.826,42.861,39.907,43,40c0-3,2-6,5-7s7,0,7,0c0-12-7-16-7-16  s-0.148,4.766-5,8c-3,2-5,2-5,2V16c-2.209,0-4,1.791-4,4h-4c0-2.209-1.791-4-4-4v7.172l-11.62-11.62C19.109,7.473,25.263,5,32,5  c14.912,0,27,12.088,27,27C59,38.736,56.527,44.891,52.448,49.62z" style="fill:#3A4249;"/><path d="M16,33c3,1,5,4,5,7c3-2,7,0,8,1s3,3,3,7c0-4,2-6,3-7c0.051-0.051,0.115-0.106,0.181-0.162  L13.533,19.19C11.517,21.494,9,25.798,9,33C9,33,13,32,16,33z" style="fill:#3A4249;"/></svg>