<?xml version="1.0" ?><svg id="_x31_-outline-expand" style="enable-background:new 0 0 64 64;" version="1.1" viewBox="0 0 64 64" xml:space="preserve" xmlns="http://www.w3.org/2000/svg" xmlns:xlink="http://www.w3.org/1999/xlink"><circle cx="50" cy="9" r="6" style="fill:#3A4249;"/><path d="M44.911,40.719L43,49l-6,9l5,4l8-11l1.193-3.978l-6.093-6.094  C45.034,40.861,44.976,40.787,44.911,40.719z" style="fill:#3A4249;"/><path d="M48.464,32.468l-4.292-9.656L46,21.999L46,22l4,9l8,4l3-5l-4-2.286V19c0-2.209-1.791-4-4-4h-6  c-2.209,0-4,1.791-4,4v12.029c0,3.183,1.264,6.235,3.515,8.485L55,48v14h6V46l-3.632-9.08L48.464,32.468z" style="fill:#3A4249;"/><path d="M41,31.03v-5.17L37,31l0.56,0.56l-8.74,8.74l-6.36-6.36c-0.78-0.78-2.05-0.78-2.83,0L2.3,51.26  c-0.58,0.59-0.58,1.54,0,2.12c0.59,0.59,1.54,0.59,2.13,0l1.76-1.77l5.66,5.66l-1.77,1.77c-0.58,0.58-0.58,1.53,0,2.12  c0.59,0.59,1.54,0.59,2.12,0l17.33-17.32c0.52-0.53,0.68-1.26,0.51-1.93l8.93-8.94L41,35l0.43-0.56C41.16,33.34,41,32.2,41,31.03z   M15.71,49.71l-1.42-1.42l5-5l1.42,1.42L15.71,49.71z M22.71,42.71l-1.42-1.42l2-2l1.42,1.42L22.71,42.71z" style="fill:#3A4249;"/><polygon points="35.293,15.293 36.707,16.707 41.414,12 36.707,7.293 35.293,8.707 37.586,11 30,11 30,13   37.586,13 " style="fill:#3A4249;"/><rect height="2" style="fill:#3A4249;" width="2" x="26" y="11"/><rect height="2" style="fill:#3A4249;" width="2" x="22" y="11"/><path d="M4.072,14.268l-1.732,1l2,3.464l1.732-1l-0.5-0.866l1.805-1.042C8.276,16.909,9.551,17.666,11,17.91  V20h-1v2h4v-2h-1v-2.09c1.449-0.244,2.724-1.001,3.623-2.086l1.805,1.042l-0.5,0.866l1.732,1l2-3.464l-1.732-1l-0.5,0.866  l-1.81-1.045C17.861,13.437,18,12.736,18,12s-0.139-1.437-0.381-2.089l1.81-1.045l0.5,0.866l1.732-1l-2-3.464l-1.732,1l0.5,0.866  l-1.805,1.042C15.724,7.091,14.449,6.334,13,6.09V4h1V2h-4v2h1v2.09C9.551,6.334,8.276,7.091,7.377,8.176L5.572,7.134l0.5-0.866  l-1.732-1l-2,3.464l1.732,1l0.5-0.866l1.81,1.045C6.139,10.563,6,11.264,6,12s0.139,1.437,0.381,2.089l-1.81,1.045L4.072,14.268z   M12,8c2.209,0,4,1.791,4,4s-1.791,4-4,4s-4-1.791-4-4S9.791,8,12,8z" style="fill:#3A4249;"/></svg>