<?xml version="1.0" ?><svg id="_x31_-outline-expand" style="enable-background:new 0 0 64 64;" version="1.1" viewBox="0 0 64 64" xml:space="preserve" xmlns="http://www.w3.org/2000/svg" xmlns:xlink="http://www.w3.org/1999/xlink"><path d="M33,19v-2c1.7,0,3.2,0.85,4.11,2.14C37.68,18.23,38,17.15,38,16c0-3.31-2.69-6-6-6s-6,2.69-6,6  s2.69,6,6,6c1.4,0,2.68-0.48,3.7-1.28C35.23,19.7,34.19,19,33,19z" style="fill:#3A4249;"/><polygon points="5,42 17,42 17,20 3,20 3,24 5,24 " style="fill:#3A4249;"/><polygon points="53,14 51,14 51,16 48,16 48,19 45,19 45,22 43,22 43,24 47,24 47,21 50,21 50,18 53,18 " style="fill:#3A4249;"/><polygon points="60,17 60,19 57,19 57,22 54,22 54,25 52,25 52,27 56,27 56,24 59,24 59,21 62,21 62,17 " style="fill:#3A4249;"/><polygon points="46,9 49,9 49,6 52,6 52,2 50,2 50,4 47,4 47,7 44,7 44,10 42,10 42,12 46,12 " style="fill:#3A4249;"/><path d="M39,26c0-2.209-1.791-4-4-4h-3h-3c-2.209,0-4,1.791-4,4v14c0,2.209,1.791,4,4,4h-6V20  c0-1.104-0.896-2-2-2s-2,0.896-2,2v24H5v2c0,1.104,0.896,2,2,2h2c0,4.411,3.589,8,8,8v6h14l-3-8h2c5.523,0,10-4.477,10-10v18h6V41  c0-0.732-0.211-1.41-0.555-2H31V27h2v10h15v-6h-9V26z M17,54c-3.309,0-6-2.691-6-6h4c1.104,0,2,0.896,2,2V54z" style="fill:#3A4249;"/></svg>