<?xml version="1.0" ?><svg id="_x31_-outline-expand" style="enable-background:new 0 0 64 64;" version="1.1" viewBox="0 0 64 64" xml:space="preserve" xmlns="http://www.w3.org/2000/svg" xmlns:xlink="http://www.w3.org/1999/xlink"><path d="M19,31V2h12.586C32.491,2,33.36,2.359,34,3c0.64,0.641,1.509,1,2.414,1H45v27H19z" style="fill:#3A4249;"/><path d="M2,42v16c0,2.209,1.791,4,4,4h52c2.209,0,4-1.791,4-4V42H2z M32,56c-4.418,0-8-2.238-8-5  c0-2.762,3.582-5,8-5c4.418,0,8,2.238,8,5C40,53.762,36.418,56,32,56z M51,46h-2v-2h2V46z M55,46h-2v-2h2V46z M59,46h-2v-2h2V46z" style="fill:#3A4249;"/><path d="M52,21h-5v6c1.104,0,2,0.896,2,2v2c0,1.104-0.896,2-2,2H17c-1.104,0-2-0.896-2-2v-2  c0-1.104,0.896-2,2-2v-6h-5L2,40h60L52,21z" style="fill:#3A4249;"/></svg>