<?xml version="1.0" ?><svg viewBox="0 0 512 512" xmlns="http://www.w3.org/2000/svg"><g data-name="filled outline" id="filled_outline"><path d="M464,216H400a24,24,0,0,0-24,24,24,24,0,0,0-24-24H288a24,24,0,0,0-24,24v27.6A12.262,12.262,0,0,0,275.775,280,12,12,0,0,0,288,268v84h64V268a12,12,0,0,0,12.225,12A12.262,12.262,0,0,0,376,267.6,12.262,12.262,0,0,0,387.775,280,12,12,0,0,0,400,268v84h64V268a12,12,0,0,0,12.225,12A12.262,12.262,0,0,0,488,267.6V240A24,24,0,0,0,464,216Z" style="fill:#0082d8"/><circle cx="432" cy="184" r="32" style="fill:#0082d8"/><circle cx="320" cy="184" r="32" style="fill:#0082d8"/><path d="M464,352H400a24,24,0,0,0-24,24,24,24,0,0,0-24-24H288a24,24,0,0,0-24,24v27.6A12.262,12.262,0,0,0,275.775,416,12,12,0,0,0,288,404v84h64V404a12,12,0,0,0,12.225,12A12.262,12.262,0,0,0,376,403.6,12.262,12.262,0,0,0,387.775,416,12,12,0,0,0,400,404v84h64V404a12,12,0,0,0,12.225,12A12.262,12.262,0,0,0,488,403.6V376A24,24,0,0,0,464,352Z" style="fill:#0094f6"/><circle cx="432" cy="320" r="32" style="fill:#0094f6"/><circle cx="320" cy="320" r="32" style="fill:#0094f6"/><circle cx="192" cy="104" r="80" style="fill:#fbb540"/><path d="M192,96a8,8,0,0,1-8-8V64a8,8,0,0,1,16,0V88A8,8,0,0,1,192,96Z" style="fill:#c75b93"/><path d="M178.136,104a7.963,7.963,0,0,1-3.992-1.073l-20.785-12a8,8,0,0,1,8-13.856l20.785,12A8,8,0,0,1,178.136,104Z" style="fill:#c75b93"/><path d="M157.366,132a8,8,0,0,1-4.007-14.929l20.785-12a8,8,0,1,1,8,13.856l-20.785,12A7.967,7.967,0,0,1,157.366,132Z" style="fill:#c75b93"/><path d="M192,152a8,8,0,0,1-8-8V120a8,8,0,0,1,16,0v24A8,8,0,0,1,192,152Z" style="fill:#c75b93"/><path d="M226.634,132a7.967,7.967,0,0,1-3.993-1.073l-20.785-12a8,8,0,1,1,8-13.856l20.785,12A8,8,0,0,1,226.634,132Z" style="fill:#c75b93"/><path d="M205.864,104a8,8,0,0,1-4.008-14.929l20.785-12a8,8,0,1,1,8,13.856l-20.785,12A7.963,7.963,0,0,1,205.864,104Z" style="fill:#c75b93"/><circle cx="192" cy="104" r="16" style="fill:#e46ca5"/><circle cx="192" cy="56" r="13" style="fill:#e46ca5"/><circle cx="150.431" cy="80" r="16" style="fill:#e46ca5"/><circle cx="150.431" cy="128" r="13" style="fill:#e46ca5"/><circle cx="192" cy="152" r="16" style="fill:#e46ca5"/><circle cx="233.569" cy="128" r="13" style="fill:#e46ca5"/><circle cx="233.569" cy="80" r="16" style="fill:#e46ca5"/><polygon points="168 256 168 288 200 288 200 304 232 272 200 240 200 256 168 256" style="fill:#fbb540"/><path d="M112,240H48a24,24,0,0,0-24,24v27.6A12.262,12.262,0,0,0,35.775,304,12,12,0,0,0,48,292v84h64V292a12,12,0,0,0,12.225,12A12.262,12.262,0,0,0,136,291.6V264A24,24,0,0,0,112,240Z" style="fill:#0094f6"/><circle cx="80" cy="208" r="32" style="fill:#0094f6"/><rect height="64" style="fill:#0a71cd" width="16" x="72" y="312"/><path d="M48,264v28a11.985,11.985,0,0,1-8,11.31V264Z" style="fill:#0a71cd"/><path d="M120,264v39.31A11.985,11.985,0,0,1,112,292V264Z" style="fill:#0a71cd"/><path d="M400,240v28a11.985,11.985,0,0,1-8,11.31V240Z" style="fill:#0082d8"/><path d="M472,240v39.31A11.985,11.985,0,0,1,464,268V240Z" style="fill:#0082d8"/><rect height="64" style="fill:#0a71cd" width="16" x="424" y="424"/><path d="M400,240v28a11.985,11.985,0,0,1-8,11.31V240Z" style="fill:#0a71cd"/><path d="M472,240v39.31A11.985,11.985,0,0,1,464,268V240Z" style="fill:#0a71cd"/><path d="M400,376v28a11.985,11.985,0,0,1-8,11.31V376Z" style="fill:#0a71cd"/><path d="M472,376v39.31A11.985,11.985,0,0,1,464,404V376Z" style="fill:#0a71cd"/><path d="M288,240v28a11.985,11.985,0,0,1-8,11.31V240Z" style="fill:#0082d8"/><path d="M360,240v39.31A11.985,11.985,0,0,1,352,268V240Z" style="fill:#0082d8"/><rect height="64" style="fill:#0a71cd" width="16" x="312" y="424"/><path d="M288,240v28a11.985,11.985,0,0,1-8,11.31V240Z" style="fill:#0a71cd"/><path d="M360,240v39.31A11.985,11.985,0,0,1,352,268V240Z" style="fill:#0a71cd"/><path d="M288,376v28a11.985,11.985,0,0,1-8,11.31V376Z" style="fill:#0a71cd"/><path d="M360,376v39.31A11.985,11.985,0,0,1,352,404V376Z" style="fill:#0a71cd"/><path d="M240.069,116.742a12.963,12.963,0,0,0-11.362-.786l-13.115-7.572a23.757,23.757,0,0,0,0-8.768l9.989-5.767a16,16,0,1,0-8-13.856l-10,5.774A24.017,24.017,0,0,0,200,81.376V66.233a13,13,0,1,0-16,0V81.376a24.017,24.017,0,0,0-7.581,4.391l-10-5.774a16,16,0,1,0-8,13.856l9.989,5.767a23.757,23.757,0,0,0,0,8.768l-13.115,7.572a13,13,0,1,0,8,13.855l13.126-7.578A24.017,24.017,0,0,0,184,126.624v11.534a16,16,0,1,0,16,0V126.624a24.017,24.017,0,0,0,7.581-4.391l13.126,7.578a13,13,0,1,0,19.362-13.069ZM184,104a8,8,0,1,1,8,8A8.009,8.009,0,0,1,184,104Z"/><path d="M192,16a88,88,0,1,0,88,88A88.1,88.1,0,0,0,192,16Zm0,160a72,72,0,1,1,72-72A72.081,72.081,0,0,1,192,176Z"/><path d="M464,208h-.022a40,40,0,1,0-63.956,0H400a31.923,31.923,0,0,0-24,10.868A31.923,31.923,0,0,0,352,208h-.022a40,40,0,1,0-63.956,0H288a32.036,32.036,0,0,0-32,32v27.6A20.3,20.3,0,0,0,275.629,288,20.585,20.585,0,0,0,280,287.6v57.409A32.057,32.057,0,0,0,256,376v27.6a20.035,20.035,0,0,0,24,20V488a8,8,0,0,0,8,8h64a8,8,0,0,0,8-8V423.6a20.414,20.414,0,0,0,4.371.393A19.567,19.567,0,0,0,376,419.852,19.567,19.567,0,0,0,387.629,424,20.449,20.449,0,0,0,392,423.6V488a8,8,0,0,0,8,8h64a8,8,0,0,0,8-8V423.6a20.035,20.035,0,0,0,24-20V376a32.057,32.057,0,0,0-24-30.987V287.6a20.035,20.035,0,0,0,24-20V240A32.036,32.036,0,0,0,464,208Zm-56-24a24,24,0,1,1,24,24A24.028,24.028,0,0,1,408,184Zm24,160a24,24,0,1,1,24-24A24.028,24.028,0,0,1,432,344Zm-40,1.013a32.037,32.037,0,0,0-16,9.855,32.037,32.037,0,0,0-16-9.855V287.6a20.478,20.478,0,0,0,4.371.393A19.567,19.567,0,0,0,376,283.852,19.567,19.567,0,0,0,387.629,288,20.579,20.579,0,0,0,392,287.6ZM296,320a24,24,0,1,1,24,24A24.028,24.028,0,0,1,296,320Zm0-136a24,24,0,1,1,24,24A24.028,24.028,0,0,1,296,184Zm-17.2,86.854A3.981,3.981,0,0,1,276,272h-.078A4.288,4.288,0,0,1,272,267.6V240a16.019,16.019,0,0,1,16-16h64a16.019,16.019,0,0,1,16,16v27.6a4.288,4.288,0,0,1-3.922,4.4,4.026,4.026,0,0,1-2.88-1.145A3.976,3.976,0,0,1,360,268V240H344v48.022a39.912,39.912,0,0,0-48,0V240H280v28A3.976,3.976,0,0,1,278.8,270.854ZM364.078,408a3.825,3.825,0,0,1-2.88-1.145A3.976,3.976,0,0,1,360,404V376H344V480H328V424H312v56H296V376H280v28a3.976,3.976,0,0,1-1.2,2.854,3.933,3.933,0,0,1-2.88,1.145A4.288,4.288,0,0,1,272,403.6V376a16.019,16.019,0,0,1,16-16h64a16.019,16.019,0,0,1,16,16v27.6A4.288,4.288,0,0,1,364.078,408ZM480,376v27.6a4.288,4.288,0,0,1-3.922,4.4,3.83,3.83,0,0,1-2.88-1.145A3.976,3.976,0,0,1,472,404V376H456V480H440V424H424v56H408V376H392v28a4,4,0,0,1-4.078,4A4.288,4.288,0,0,1,384,403.6V376a16.019,16.019,0,0,1,16-16h64A16.019,16.019,0,0,1,480,376Zm0-108.4a4.288,4.288,0,0,1-3.922,4.4,4.032,4.032,0,0,1-2.88-1.145A3.976,3.976,0,0,1,472,268V240H456v48.022a39.912,39.912,0,0,0-48,0V240H392v28a4,4,0,0,1-4,4h-.078A4.288,4.288,0,0,1,384,267.6V240a16.019,16.019,0,0,1,16-16h64a16.019,16.019,0,0,1,16,16Z"/><path d="M112,232h-.022a40,40,0,1,0-63.956,0H48a32.036,32.036,0,0,0-32,32v27.6a20.035,20.035,0,0,0,24,20V376a8,8,0,0,0,8,8h64a8,8,0,0,0,8-8V311.6a19.959,19.959,0,0,0,4.371.393A20.3,20.3,0,0,0,144,291.6V264A32.036,32.036,0,0,0,112,232ZM56,208a24,24,0,1,1,24,24A24.028,24.028,0,0,1,56,208Zm72,83.6a4.288,4.288,0,0,1-3.922,4.4A4,4,0,0,1,120,292V264H104V368H88V304H72v64H56V264H40v28a3.976,3.976,0,0,1-1.2,2.854A3.906,3.906,0,0,1,35.922,296,4.288,4.288,0,0,1,32,291.6V264a16.019,16.019,0,0,1,16-16h64a16.019,16.019,0,0,1,16,16Z"/><path d="M205.657,234.343A8,8,0,0,0,192,240v8H168a8,8,0,0,0-8,8v32a8,8,0,0,0,8,8h24v8a8,8,0,0,0,13.657,5.657l32-32a8,8,0,0,0,0-11.314Zm1.837,50.849A8,8,0,0,0,200,280H176V264h24a8,8,0,0,0,7.494-5.192L220.686,272Z"/></g></svg>