<?xml version="1.0" ?><svg viewBox="0 0 512 512" xmlns="http://www.w3.org/2000/svg"><g data-name="filled outline" id="filled_outline"><circle cx="256" cy="256" r="232" style="fill:#f7ba61"/><path d="M168,352h32a0,0,0,0,1,0,0v96a0,0,0,0,1,0,0H168a48,48,0,0,1-48-48v0A48,48,0,0,1,168,352Z" style="fill:#e46ca5"/><path d="M200,408H168a8,8,0,0,1,0-16h32a8,8,0,0,1,0,16Z" style="fill:#d26398"/><path d="M144,288h56a0,0,0,0,1,0,0v64a0,0,0,0,1,0,0H144a32,32,0,0,1-32-32v0A32,32,0,0,1,144,288Z" style="fill:#8ed2ff"/><path d="M200,328H144a8,8,0,0,1,0-16h56a8,8,0,0,1,0,16Z" style="fill:#76afd4"/><rect height="192" style="fill:#e4e4e2" width="160" x="200" y="256"/><path d="M240,68v76l32,64v48H240V216l-32-64V68a12,12,0,0,1,12-12h8A12,12,0,0,1,240,68Z" style="fill:#029532"/><rect height="72" style="fill:#fbfbf9" transform="translate(528 216) rotate(-180)" width="48" x="240" y="72"/><rect height="16" style="fill:#e4e4e2" width="48" x="240" y="112"/><rect height="16" style="fill:#e4e4e2" width="48" x="240" y="88"/><path d="M248,296H232a8,8,0,0,1,0-16h16a8,8,0,0,1,0,16Z" style="fill:#fbfbf9"/><path d="M312,296H280a8,8,0,0,1,0-16h32a8,8,0,0,1,0,16Z" style="fill:#fbfbf9"/><path d="M376,272H360v32h16a32,32,0,0,1,32,32h0a32,32,0,0,1-32,32H360v32h16a64,64,0,0,0,64-64h0A64,64,0,0,0,376,272Z" style="fill:#0a71cd"/><rect height="48" style="fill:#fbfbf9" width="104" x="312" y="136"/><rect height="16" style="fill:#e4e4e2" width="104" x="312" y="152"/><polygon points="376 184 336 224 336 256 304 256 304 216 336 184 376 184" style="fill:#0094f6"/><path d="M248,280H232a8,8,0,0,0,0,16h16a8,8,0,0,0,0-16Z"/><path d="M425.73,425.679A240,240,0,0,0,86.321,86.27a.308.308,0,0,0-.051.051A240,240,0,0,0,425.679,425.73a.308.308,0,0,0,.027-.024ZM414.392,97.608a223.975,223.975,0,0,1,5.546,311.016L410.5,399.18A71.988,71.988,0,0,0,376,264h-8v-8a8,8,0,0,0-8-8H344V227.313L379.314,192H416a8,8,0,0,0,8-8V136a8,8,0,0,0-8-8H312a8,8,0,0,0-8,8v48a8,8,0,0,0,8,8h4.686l-18.343,18.343A8,8,0,0,0,296,216v32H280V208a7.994,7.994,0,0,0-.845-3.578L252.944,152H288a8,8,0,0,0,8-8V72a8,8,0,0,0-8-8H247.6A20.032,20.032,0,0,0,228,48h-8a20.023,20.023,0,0,0-20,20v84a7.994,7.994,0,0,0,.845,3.578L232,217.889v2.8L103.376,92.062a223.975,223.975,0,0,1,311.016,5.546ZM192,440H168a40,40,0,0,1,0-80h24v32H168a8,8,0,0,0,0,16h24Zm-48-96a24,24,0,0,1,0-48h48v16H144a8,8,0,0,0,0,16h48v16H144Zm64-80h44.686l20.249,20.25A8,8,0,0,0,280,296h4.686L352,363.314V440H208Zm39.155-51.578L216,150.111V68a4,4,0,0,1,4-4h8a4,4,0,0,1,4,4v76a7.994,7.994,0,0,0,.845,3.578L264,209.889V248h-4.686L248,236.686V216A7.994,7.994,0,0,0,247.155,212.422ZM280,80v8H248V80Zm0,32H248v-8h32Zm-32,16h32v8H248Zm160,24H320v-8h88Zm-88,16h88v8H320Zm36.687,24-26.344,26.343A8,8,0,0,0,328,224v24H312V219.313L339.313,192ZM352,264v76.686L307.314,296H312a8,8,0,0,0,0-16H291.314l-16-16Zm16,48h8a24,24,0,0,1,0,48h-4.686L368,356.686Zm0,67.314,12.49,12.49c-1.483.118-2.977.2-4.49.2h-8Zm18.038-4.591A40,40,0,0,0,376,296h-8V280h8a55.99,55.99,0,0,1,22.555,107.24ZM368,448V408h8a71.828,71.828,0,0,0,18.317-2.369l14.307,14.307a224.622,224.622,0,0,1-40.957,30.339A8,8,0,0,0,368,448ZM32,256A222.4,222.4,0,0,1,92.062,103.376L232,243.314V248H200a8,8,0,0,0-8,8v24H144a39.995,39.995,0,0,0-12.837,77.875,55.889,55.889,0,0,0-.365,83.935,226.4,226.4,0,0,1-33.19-27.418A222.535,222.535,0,0,1,32,256ZM147.685,452.17A55.687,55.687,0,0,0,168,456H357.113a224.841,224.841,0,0,1-209.428-3.83Z"/></g></svg>