<?xml version="1.0" ?><svg viewBox="0 0 512 512" xmlns="http://www.w3.org/2000/svg"><g data-name="filled outline" id="filled_outline"><rect height="432" style="fill:#e4e4e2" width="360" x="80" y="56"/><line style="fill:none;stroke:#000;stroke-linejoin:round;stroke-width:16px" x1="280" x2="280" y1="360" y2="448"/><rect height="304" style="fill:#ebebeb" width="96" x="32" y="184"/><rect height="16" style="fill:#a8d6da" width="16" x="56" y="216"/><rect height="16" style="fill:#a8d6da" width="16" x="56" y="248"/><rect height="16" style="fill:#a8d6da" width="16" x="56" y="280"/><rect height="16" style="fill:#a8d6da" width="16" x="56" y="312"/><rect height="16" style="fill:#a8d6da" width="16" x="88" y="216"/><rect height="16" style="fill:#a8d6da" width="16" x="88" y="248"/><rect height="16" style="fill:#a8d6da" width="16" x="88" y="280"/><rect height="16" style="fill:#a8d6da" width="16" x="88" y="312"/><rect height="136" style="fill:#029532" width="96" x="32" y="352"/><path d="M80,416h0a16,16,0,0,1,16,16v56a0,0,0,0,1,0,0H64a0,0,0,0,1,0,0V432A16,16,0,0,1,80,416Z" style="fill:#027226"/><rect height="16" style="fill:#027226" width="32" x="64" y="376"/><rect height="32" style="fill:#029532" width="376" x="72" y="24"/><rect height="16" style="fill:#a8d6da" width="16" x="352" y="80"/><rect height="16" style="fill:#a8d6da" width="32" x="384" y="80"/><rect height="16" style="fill:#a8d6da" width="16" x="352" y="112"/><rect height="16" style="fill:#a8d6da" width="32" x="384" y="112"/><rect height="16" style="fill:#a8d6da" width="16" x="352" y="144"/><rect height="16" style="fill:#a8d6da" width="32" x="384" y="144"/><rect height="16" style="fill:#a8d6da" width="16" x="352" y="176"/><rect height="16" style="fill:#a8d6da" width="16" x="152" y="80"/><rect height="16" style="fill:#a8d6da" width="32" x="104" y="80"/><rect height="16" style="fill:#a8d6da" width="16" x="152" y="112"/><rect height="16" style="fill:#a8d6da" width="32" x="104" y="112"/><rect height="16" style="fill:#a8d6da" width="16" x="152" y="144"/><rect height="16" style="fill:#a8d6da" width="32" x="104" y="144"/><rect height="16" style="fill:#a8d6da" width="16" x="152" y="176"/><rect height="232" style="fill:#027226" width="112" x="200" y="56"/><circle cx="256" cy="176" r="72" style="fill:#029532"/><polygon points="292 164 272 164 272 144 240 144 240 164 220 164 220 196 240 196 240 216 272 216 272 196 292 196 292 164" style="fill:#e4e4e2"/><rect height="168" style="fill:#e4e4e2" width="256" x="128" y="288"/><path d="M352,360v96H272V360a40.018,40.018,0,0,1,36-39.8c1.32-.13,2.65-.2,4-.2a40.015,40.015,0,0,1,40,40Z" style="fill:#029532"/><path d="M344,360v96H272V360a40.018,40.018,0,0,1,36-39.8A40.018,40.018,0,0,1,344,360Z" style="fill:#027226"/><path d="M240,360v96H160V360h0a40,40,0,0,1,40-40h0a40,40,0,0,1,40,40Z" style="fill:#027226"/><path d="M240,360v96H160V360a40.018,40.018,0,0,1,36-39.8c1.32-.13,2.65-.2,4-.2a40.015,40.015,0,0,1,40,40Z" style="fill:#029532"/><path d="M232,360v96H160V360a40.018,40.018,0,0,1,36-39.8A40.018,40.018,0,0,1,232,360Z" style="fill:#027226"/><rect height="16" style="fill:#cbcbcb" width="24" x="128" y="312"/><rect height="16" style="fill:#cbcbcb" width="24" x="360" y="312"/><rect height="80" style="fill:#007af6" width="120" x="160" y="360"/><polygon points="224 384 216 384 216 376 200 376 200 384 192 384 192 400 200 400 200 408 216 408 216 400 224 400 224 384" style="fill:#e4e4e2"/><polygon points="352 440 280 440 280 360 312 360 328 392 352 400 352 440" style="fill:#007af6"/><polygon points="328 392 280 392 280 360 312 360 328 392" style="fill:#a8d6da"/><rect height="80" style="fill:#0a71cd" width="11.598" x="267.765" y="360"/><circle cx="200" cy="440" r="16" style="fill:#c7463b"/><circle cx="200" cy="440" r="8" style="fill:#eaeae8"/><circle cx="312" cy="440" r="16" style="fill:#c7463b"/><circle cx="312" cy="440" r="8" style="fill:#eaeae8"/><rect height="16" style="fill:#cbcbcb" width="72" x="128" y="272"/><rect height="16" style="fill:#cbcbcb" width="72" x="312" y="272"/><rect height="16" style="fill:#025d1f" width="112" x="200" y="272"/><rect height="304" style="fill:#ebebeb" width="96" x="384" y="184"/><rect height="16" style="fill:#a8d6da" width="16" x="408" y="216"/><rect height="16" style="fill:#a8d6da" width="16" x="408" y="248"/><rect height="16" style="fill:#a8d6da" width="16" x="408" y="280"/><rect height="16" style="fill:#a8d6da" width="16" x="408" y="312"/><rect height="16" style="fill:#a8d6da" width="16" x="440" y="216"/><rect height="16" style="fill:#a8d6da" width="16" x="440" y="248"/><rect height="16" style="fill:#a8d6da" width="16" x="440" y="280"/><rect height="16" style="fill:#a8d6da" width="16" x="440" y="312"/><rect height="136" style="fill:#029532" width="96" x="384" y="352"/><path d="M432,416h0a16,16,0,0,1,16,16v56a0,0,0,0,1,0,0H416a0,0,0,0,1,0,0V432A16,16,0,0,1,432,416Z" style="fill:#027226"/><rect height="16" style="fill:#027226" width="32" x="416" y="376"/><polygon points="416 488 96 488 128 456 384 456 416 488" style="fill:#cbcbcb"/><rect height="8" style="fill:#cbcbcb" width="96" x="32" y="344"/><rect height="8" style="fill:#cbcbcb" width="120" x="80" y="56"/><rect height="8" style="fill:#cbcbcb" width="128" x="312" y="56"/><rect height="8" style="fill:#cbcbcb" width="96" x="384" y="344"/><polygon points="216 376 200 376 200 384 192 384 192 400 200 400 200 408 216 408 216 400 224 400 224 384 216 384 216 376"/><path d="M32,176a8,8,0,0,0-8,8V488a8,8,0,0,0,8,8H480a8,8,0,0,0,8-8V184a8,8,0,0,0-8-8H448V64a8,8,0,0,0,8-8V24a8,8,0,0,0-8-8H72a8,8,0,0,0-8,8V56a8,8,0,0,0,8,8V176Zm88,16V344H40V192Zm184-79.956a79.825,79.825,0,0,0-96,0V64h96ZM256,112a64,64,0,1,1-64,64A64.072,64.072,0,0,1,256,112ZM208,239.956a79.825,79.825,0,0,0,96,0V280H208ZM376,296v16H360v16h16V448H360V360a48,48,0,0,0-95.321-8H247.321A48,48,0,0,0,152,360v88H136V328h16V312H136V296ZM248,448v-8h16v8Zm64-32a23.941,23.941,0,0,0-17.869,8H288V400h38.7l17.3,5.766V424H329.869A23.941,23.941,0,0,0,312,416Zm3.056-32H288V368h19.056ZM344,388.9l-10.327-3.443-14.518-29.036A8,8,0,0,0,312,352H281.013A32,32,0,0,1,344,360ZM272,368v56H217.869a23.956,23.956,0,0,0-35.738,0H168V368ZM169.012,352a32.005,32.005,0,0,1,61.976,0ZM168,440h8a23.889,23.889,0,0,0,1.376,8H168Zm24,0a8,8,0,1,1,8,8A8.009,8.009,0,0,1,192,440Zm32,0h8v8h-9.376A23.889,23.889,0,0,0,224,440Zm56,0h8a23.889,23.889,0,0,0,1.376,8H280Zm24,0a8,8,0,1,1,8,8A8.009,8.009,0,0,1,304,440Zm32,0h8v8h-9.376A23.889,23.889,0,0,0,336,440ZM40,360h80v92.687l-16,16V432a24,24,0,0,0-48,0v48H40ZM88,480H72V432a8,8,0,0,1,16,0Zm27.314,0,16-16H380.686l16,16ZM440,480H424V432a8,8,0,0,1,16,0Zm-8-72a24.027,24.027,0,0,0-24,24v36.687l-16-16V360h80V480H456V432A24.027,24.027,0,0,0,432,408Zm40-64H392V192h80ZM432,176H384a8,8,0,0,0-8,8v96H320V224h-.044a79.825,79.825,0,0,0,0-96H320V64H432ZM80,32H440V48H80Zm8,32H192v64h.044a79.825,79.825,0,0,0,0,96H192v56H136V184a8,8,0,0,0-8-8H88Z"/><rect height="16" width="16" x="56" y="216"/><rect height="16" width="16" x="56" y="248"/><rect height="16" width="16" x="56" y="280"/><rect height="16" width="16" x="56" y="312"/><rect height="16" width="16" x="88" y="216"/><rect height="16" width="16" x="88" y="248"/><rect height="16" width="16" x="88" y="280"/><rect height="16" width="16" x="88" y="312"/><rect height="16" width="16" x="408" y="216"/><rect height="16" width="16" x="408" y="248"/><rect height="16" width="16" x="408" y="280"/><rect height="16" width="16" x="408" y="312"/><rect height="16" width="16" x="440" y="216"/><rect height="16" width="16" x="440" y="248"/><rect height="16" width="16" x="440" y="280"/><rect height="16" width="16" x="440" y="312"/><rect height="16" width="32" x="416" y="376"/><rect height="16" width="32" x="64" y="376"/><rect height="16" width="16" x="352" y="80"/><rect height="16" width="32" x="384" y="80"/><rect height="16" width="16" x="352" y="112"/><rect height="16" width="32" x="384" y="112"/><rect height="16" width="16" x="352" y="144"/><rect height="16" width="32" x="384" y="144"/><rect height="16" width="16" x="352" y="176"/><rect height="16" width="16" x="152" y="80"/><rect height="16" width="32" x="104" y="80"/><rect height="16" width="16" x="152" y="112"/><rect height="16" width="32" x="104" y="112"/><rect height="16" width="16" x="152" y="144"/><rect height="16" width="32" x="104" y="144"/><rect height="16" width="16" x="152" y="176"/><path d="M220,204h12v12a8,8,0,0,0,8,8h32a8,8,0,0,0,8-8V204h12a8,8,0,0,0,8-8V164a8,8,0,0,0-8-8H280V144a8,8,0,0,0-8-8H240a8,8,0,0,0-8,8v12H220a8,8,0,0,0-8,8v32A8,8,0,0,0,220,204Zm8-32h12a8,8,0,0,0,8-8V152h16v12a8,8,0,0,0,8,8h12v16H272a8,8,0,0,0-8,8v12H248V196a8,8,0,0,0-8-8H228Z"/></g></svg>