<?xml version="1.0" ?><svg viewBox="0 0 512 512" xmlns="http://www.w3.org/2000/svg"><g data-name="filled outline" id="filled_outline"><path d="M336,80H304a32,32,0,0,1,0-64h72a8,8,0,0,1,0,16H304a16,16,0,0,0,0,32h32a8,8,0,0,1,0,16Z" style="fill:#c7463b"/><path d="M394.051,196.242l-13.433-3.562,12.78-11.289A8,8,0,1,0,382.807,169.4l-12.781,11.289-1.877-13.769a8,8,0,1,0-15.853,2.162l3.9,28.58a8,8,0,0,0,5.876,6.651l27.881,7.395a8,8,0,0,0,4.1-15.465Z" style="fill:#05b093"/><path d="M319.351,278.822,256,248l62.951-54.218a32,32,0,0,1,45.169,2.8h0a32,32,0,0,1-2.8,45.168Z" style="fill:#fd9226"/><path d="M327.437,247.651a8,8,0,0,1-7.858-6.545l-8.494-45.868a8,8,0,0,1,15.732-2.913l8.5,45.868a8.007,8.007,0,0,1-7.875,9.458Z" style="fill:#e78244"/><path d="M56,452v36H88V456H424v32h32V452a28,28,0,0,0-28-28H84A28,28,0,0,0,56,452Z" style="fill:#c3c3c3"/><path d="M104,264H408a0,0,0,0,1,0,0V378a46,46,0,0,1-46,46H150a46,46,0,0,1-46-46V264A0,0,0,0,1,104,264Z" style="fill:#0c82ed"/><path d="M302.78,464.41a42.459,42.459,0,0,1-4.49,19.01L296,488H224l-9.58-33.52a42.544,42.544,0,0,1,9.11-39.95l43.52-48.96L272,360l6.19,49.52a42.525,42.525,0,0,0,12.13,24.8A42.524,42.524,0,0,1,302.78,464.41Z" style="fill:#fbb540"/><path d="M224,488H160l-1.26-5.04a91.525,91.525,0,0,1,33.88-95.42l7.85-5.89L208,376l-6.11,18.33A91.551,91.551,0,0,0,224,488Z" style="fill:#fbb540"/><path d="M360,488H296l8.97-10.77a69.785,69.785,0,0,0,6.98-79.31l-5-8.76L304,384l27.76,16.65A69.8,69.8,0,0,1,360,488Z" style="fill:#fbb540"/><path d="M297.13,464.42a42.449,42.449,0,0,1-4.49,19L290.35,488H224l-9.58-33.52a42.544,42.544,0,0,1,9.11-39.95l43.52-48.96,5.49,43.95a42.525,42.525,0,0,0,12.13,24.8A42.53,42.53,0,0,1,297.13,464.42Z" style="fill:#f55648"/><path d="M218.35,488H160l-1.26-5.04a91.525,91.525,0,0,1,33.88-95.42l7.85-5.89-4.23,12.68A91.509,91.509,0,0,0,218.35,488Z" style="fill:#f55648"/><path d="M354.35,488H296l8.97-10.77a69.785,69.785,0,0,0,6.98-79.31l-5-8.76,19.15,11.49A69.806,69.806,0,0,1,354.35,488Z" style="fill:#f55648"/><rect height="32" rx="16" style="fill:#c3c3c3" width="336" x="88" y="232"/><polygon points="104 320 80 320 72 296 40 296 40 264 104 264 104 320" style="fill:#c3c3c3"/><polygon points="408 320 432 320 440 296 472 296 472 264 408 264 408 320" style="fill:#c3c3c3"/><rect height="32" style="fill:#ffae96" width="32" x="240" y="136"/><rect height="32" rx="16" style="fill:#c36f53" width="64" x="224" y="104"/><path d="M328,64l17.591,29.319A22,22,0,0,0,364.456,104H400v32h44a20,20,0,0,0,20-20V84a20,20,0,0,0-20-20Z" style="fill:#dc4d41"/><path d="M464,88v28a19.967,19.967,0,0,1-10.44,17.56L424,104Z" style="fill:#dc4d41"/><polygon points="400 136 360 136 376 120 364.456 104 400 104 400 136" style="fill:#c7463b"/><rect height="40" style="fill:#c7463b" width="32" x="392" y="64"/><path d="M464,88v28a19.967,19.967,0,0,1-10.44,17.56L424,104Z" style="fill:#c7463b"/><circle cx="368" cy="80" r="6" style="fill:#c7463b"/><path d="M84.739,30.672h0a48,48,0,0,1,48,48v0a0,0,0,0,1,0,0h-96a0,0,0,0,1,0,0v0a48,48,0,0,1,48-48Z" style="fill:#dc4d41" transform="translate(-14.27 73.831) rotate(-43.781)"/><path d="M93.042,51.336h0a24,24,0,0,1,24,24v0a0,0,0,0,1,0,0h-48a0,0,0,0,1,0,0v0A24,24,0,0,1,93.042,51.336Z" style="fill:#f55648" transform="translate(-17.956 81.984) rotate(-43.781)"/><path d="M133.447,196.429l-7.925-2.919A57.887,57.887,0,0,1,88,145.583h0a57.89,57.89,0,0,1,59.647-12.127l7.925,2.92A57.887,57.887,0,0,1,193.094,184.3h0A57.885,57.885,0,0,1,133.447,196.429Z" style="fill:#05b093"/><path d="M188.354,174.03l-41.932-15.449-12.834-27.808a8,8,0,1,0-14.527,6.705l6.129,13.281L90.766,138.076a8,8,0,1,0-5.532,15.014l61.6,22.7L128.516,190.13a8,8,0,1,0,9.863,12.6l26.108-20.441,18.335,6.755a8,8,0,1,0,5.532-15.013Z" style="fill:#03816b"/><rect height="16" style="fill:#c1e3f7" width="16" x="216" y="184"/><rect height="16" style="fill:#569fe6" width="16" x="40" y="152"/><rect height="16" style="fill:#c1e3f7" width="16" x="72" y="192"/><rect height="16" style="fill:#569fe6" width="16" x="184" y="120"/><rect height="16" style="fill:#c1e3f7" width="16" x="128" y="88"/><rect height="16" style="fill:#c1e3f7" width="16" x="424" y="176"/><rect height="16" style="fill:#569fe6" width="16" x="320" y="136"/><rect height="16" style="fill:#c1e3f7" width="16" x="296" y="160"/><rect height="16" style="fill:#569fe6" width="16" x="248" y="192"/><rect height="16" style="fill:#009cf7" width="64" x="104" y="304"/><rect height="16" style="fill:#009cf7" width="48" x="184" y="304"/><rect height="16" style="fill:#009cf7" width="88" x="104" y="344"/><rect height="16" style="fill:#009cf7" width="24" x="208" y="344"/><rect height="56" style="fill:#a8a8a8" width="16" x="88" y="264"/><rect height="56" style="fill:#a8a8a8" width="16" x="408" y="264"/><rect height="16" style="fill:#0a71cd" width="304" x="104" y="264"/><path d="M40,304H66.234l6.176,18.53A8,8,0,0,0,80,328H96v50a53.823,53.823,0,0,0,15.676,38H84a36.04,36.04,0,0,0-36,36v36a8,8,0,0,0,8,8H88a8,8,0,0,0,8-8V464h52.055a99.924,99.924,0,0,0,2.924,20.9l1.26,5.041A8,8,0,0,0,160,496H360a8,8,0,0,0,7.354-4.849A77.092,77.092,0,0,0,373.52,464H416v24a8,8,0,0,0,8,8h32a8,8,0,0,0,8-8V452a36.04,36.04,0,0,0-36-36H400.324A53.823,53.823,0,0,0,416,378V328h16a8,8,0,0,0,7.59-5.47L445.766,304H472a8,8,0,0,0,8-8V264a8,8,0,0,0-8-8H430.624A23.992,23.992,0,0,0,408,224H379.646a39.963,39.963,0,0,0-.533-15.167l10.836,2.874a8,8,0,0,0,4.1-15.465l-13.433-3.562,12.78-11.289A8,8,0,1,0,382.807,169.4l-12.781,11.289-1.877-13.769a8,8,0,1,0-15.853,2.162l1.514,11.1a40.034,40.034,0,0,0-40.155,7.6l-41,36.214H104a23.992,23.992,0,0,0-22.624,32H40a8,8,0,0,0-8,8v32A8,8,0,0,0,40,304ZM88,448a8,8,0,0,0-8,8v24H64V452a20.023,20.023,0,0,1,20-20h68.224a99.319,99.319,0,0,0-3.424,16Zm78.252,32a83.372,83.372,0,0,1,4.5-52.186,8.113,8.113,0,0,0,.48-1.09,83.356,83.356,0,0,1,21.234-28.769A98.788,98.788,0,0,0,206.9,480Zm143.286-26.763A50.415,50.415,0,0,0,299.021,432h14.062A62.437,62.437,0,0,1,309.538,453.237Zm-24.874-13.26a34.5,34.5,0,0,1,6.47,39.868l-.077.155H230.034l-7.92-27.722a34.373,34.373,0,0,1,7.395-32.434l36.742-41.335,4,32A50.788,50.788,0,0,0,284.664,439.977Zm-78.955-6.859c-.043-.372-.086-.745-.125-1.118h.343C205.847,432.371,205.782,432.745,205.709,433.118ZM354.487,480H313a78.146,78.146,0,0,0,15.609-56.025,8.012,8.012,0,0,0-.2-1.751,77.589,77.589,0,0,0-4.126-16.724l3.356,2.014A62.056,62.056,0,0,1,354.487,480ZM448,452v28H432V456a8,8,0,0,0-8-8H372.531a78.737,78.737,0,0,0-4.416-16H428A20.023,20.023,0,0,1,448,452Zm-88.428-36a77.09,77.09,0,0,0-23.7-22.206L308.116,377.14a8,8,0,0,0-11.062,10.829l7.954,13.92A61.141,61.141,0,0,1,310.861,416H287.94a34.376,34.376,0,0,1-1.812-7.475l-6.19-49.517a8,8,0,0,0-13.917-4.323L217.55,409.214A51.041,51.041,0,0,0,212.484,416h-7a84.4,84.4,0,0,1,4-19.136l6.111-18.334a8,8,0,0,0-12.39-8.93l-15.381,11.536A99.486,99.486,0,0,0,158.614,416H150a38.043,38.043,0,0,1-38-38V360h80V344H112V320h56V304H112V272H400V378a38.043,38.043,0,0,1-38,38ZM464,288H440a8,8,0,0,0-7.59,5.47L426.234,312H416V272h48ZM358.117,201.869l.006.007.006.007A23.975,23.975,0,0,1,363.3,224h-30.62l-4.958-26.771A24.035,24.035,0,0,1,358.117,201.869Zm-44.459,7.263L316.411,224H296.825ZM96,248a8.009,8.009,0,0,1,8-8H408a8,8,0,0,1,0,16H104A8.009,8.009,0,0,1,96,248ZM48,272H96v40H85.766L79.59,293.47A8,8,0,0,0,72,288H48Z"/><path d="M232,142.624V168a8,8,0,0,0,8,8h32a8,8,0,0,0,8-8V142.624A24,24,0,0,0,272,96H240a24,24,0,0,0-8,46.624ZM264,160H248V144h16Zm-24-48h32a8,8,0,0,1,0,16H240a8,8,0,0,1,0-16Z"/><path d="M304,80h24.271l10.46,17.435a30.172,30.172,0,0,0,21.394,14.235l5.4,7.488-11.185,11.185A8,8,0,0,0,360,144h84a28.032,28.032,0,0,0,28-28V84a28.032,28.032,0,0,0-28-28H328a7.985,7.985,0,0,0-7.994,8H304a16,16,0,0,1,0-32h72a8,8,0,0,0,0-16H304a32,32,0,0,0,0,64Zm78.487,35.319L380.093,112H392v16H379.313l2.344-2.343A8,8,0,0,0,382.487,115.319ZM400,72h16V96H400Zm8,40h12.686l16,16H408Zm45.962,10.681c-.1-.113-.2-.229-.305-.338l-15.422-15.421L456,99.816V116A11.929,11.929,0,0,1,453.962,122.681Zm1.952-40.063L432,92.184V72h12A12.013,12.013,0,0,1,455.914,82.618ZM384,72V96H364.456a14.067,14.067,0,0,1-12-6.8l-8.843-14.738A8,8,0,0,0,344,72Z"/><circle cx="368" cy="80" r="6"/><path d="M66.69,113.211a7.972,7.972,0,0,0,5.535-2.224l69.31-66.423a8,8,0,0,0,.241-11.311,56,56,0,1,0-80.862,77.494A7.976,7.976,0,0,0,66.69,113.211ZM85.8,75.817a16.073,16.073,0,0,1-.45-4.157A16,16,0,0,1,101.335,56c.116,0,.233,0,.35,0a16.093,16.093,0,0,1,4.134.627l-10.01,9.593Zm-12.131-32.7A39.725,39.725,0,0,1,101.322,32c.29,0,.582,0,.873.009A39.722,39.722,0,0,1,124.114,39.1l-5.928,5.682A32.015,32.015,0,0,0,73.432,87.669L67.5,93.35a40.033,40.033,0,0,1,6.164-50.229Z"/><rect height="16" width="16" x="216" y="184"/><rect height="16" width="16" x="40" y="152"/><rect height="16" width="16" x="72" y="192"/><rect height="16" width="16" x="184" y="120"/><rect height="16" width="16" x="128" y="88"/><rect height="16" width="16" x="424" y="176"/><rect height="16" width="16" x="320" y="136"/><rect height="16" width="16" x="296" y="160"/><rect height="16" width="16" x="248" y="192"/><rect height="16" width="48" x="184" y="304"/><rect height="16" width="24" x="208" y="344"/><path d="M201.046,183.418a65.532,65.532,0,0,0-42.708-54.549l-7.925-2.92a65.531,65.531,0,0,0-67.891,13.8,8,8,0,0,0-2.473,6.714,65.528,65.528,0,0,0,42.708,54.551l7.925,2.92a66.219,66.219,0,0,0,22.915,4.111,65.551,65.551,0,0,0,44.975-17.915A8,8,0,0,0,201.046,183.418Zm-48.239-39.536a49.585,49.585,0,0,1,28.847,27.68l-35.232-12.981-9.108-19.734a50.687,50.687,0,0,1,7.568,2.115Zm-33.274-5.38,5.657,12.257-20.219-7.449A49.42,49.42,0,0,1,119.533,138.5ZM99.44,158.324l47.4,17.462-14.81,11.6L128.288,186A49.588,49.588,0,0,1,99.44,158.324Zm52.628,33.687,12.419-9.723,11.636,4.287A49.4,49.4,0,0,1,152.068,192.011Z"/></g></svg>