<?xml version="1.0" ?><svg viewBox="0 0 512 512" xmlns="http://www.w3.org/2000/svg"><g data-name="filled outline" id="filled_outline"><path d="M365.761,328H194.239A42.239,42.239,0,0,0,152,370.239V470a18,18,0,0,0,18,18H390a18,18,0,0,0,18-18V370.239A42.239,42.239,0,0,0,365.761,328Z" style="fill:#ea9d2d"/><path d="M256,270.729v42.542L224,328l18.6,12.015a64.347,64.347,0,0,0,74.8,0L336,328l-32-16V270.729Z" style="fill:#f5d3bd"/><path d="M304,270.73v28.61a64.133,64.133,0,0,1-48,0V270.73Z" style="fill:#f5d3bd"/><path d="M304,270.73v28.61a64.133,64.133,0,0,1-48,0V270.73Z" style="fill:#e8c8b3"/><path d="M368,200l-24,14.025H216L192,200V139.4a51.4,51.4,0,0,1,45.024-51h0a51.4,51.4,0,0,1,34.886,8.236L280,102.025l8.089-5.392A51.4,51.4,0,0,1,322.975,88.4h0A51.4,51.4,0,0,1,368,139.4Z" style="fill:#6e3f0d"/><path d="M352,488h38a18,18,0,0,0,18-18V400H352Z" style="fill:#f5d3bd"/><path d="M400,440l-6.61,39.64a9.988,9.988,0,0,1-9.86,8.36H352V424h24l8,16Z" style="fill:#f5d3bd"/><path d="M348,184h-4V168H216v16h-4a20,20,0,0,0-20,20h0a20,20,0,0,0,20,20h4v8a64,64,0,0,0,64,64h0a64,64,0,0,0,64-64v-8h4a20,20,0,0,0,20-20h0A20,20,0,0,0,348,184Z" style="fill:#f5d3bd"/><rect height="64" style="fill:#f5d3bd" width="48" x="152" y="400"/><path d="M280,240h-8a8,8,0,0,1-7.589-10.53l8-24a8,8,0,1,1,15.178,5.06l-4.672,14.018A8,8,0,0,1,280,240Z" style="fill:#6e3f0d"/><path d="M245.8,201.7h-4.687a8,8,0,1,1,0-16H245.8a19.189,19.189,0,0,0,13.657-5.657,8,8,0,0,1,11.313,11.314A35.082,35.082,0,0,1,245.8,201.7Z" style="fill:#6e3f0d"/><path d="M321.114,201.7h-4.686a35.082,35.082,0,0,1-24.97-10.343,8,8,0,1,1,11.313-11.314,19.189,19.189,0,0,0,13.657,5.657h4.686a8,8,0,0,1,0,16Z" style="fill:#6e3f0d"/><circle cx="253.114" cy="205.704" r="12" style="fill:#6e3f0d"/><circle cx="309.114" cy="205.704" r="12" style="fill:#6e3f0d"/><path d="M392,440l-6.61,39.64a9.988,9.988,0,0,1-9.86,8.36H344V424h24l8,16Z" style="fill:#e8c8b3"/><path d="M367.529,488H170a18,18,0,0,1-18-18V440H320l16-16h24l8,16h16l-6.607,39.644A10,10,0,0,1,367.529,488Z" style="fill:#f5d3bd"/><path d="M295.994,264a7.976,7.976,0,0,1-3.572-.847,27.917,27.917,0,0,0-24.844,0,8,8,0,0,1-7.156-14.31,43.991,43.991,0,0,1,39.156,0A8,8,0,0,1,295.994,264Z" style="fill:#6e3f0d"/><path d="M136,234.845V100a24,24,0,0,0-48,0V234.845a32,32,0,1,0,48,0Z" style="fill:#cbcbcb"/><path d="M120,242.158V160a8,8,0,0,0-16,0v82.158a16,16,0,1,0,16,0Z" style="fill:#f55648"/><rect height="16" style="fill:#f55648" width="24" x="88" y="104"/><rect height="16" style="fill:#f55648" width="24" x="88" y="128"/><path d="M64,96H40a8,8,0,0,1,0-16H64a8,8,0,0,1,0,16Z" style="fill:#f55648"/><path d="M72,64a7.971,7.971,0,0,1-5.818-2.509l-15.1-16A8,8,0,1,1,62.713,34.509l15.1,16A8,8,0,0,1,72,64Z" style="fill:#f55648"/><path d="M184,96H160a8,8,0,0,1,0-16h24a8,8,0,0,1,0,16Z" style="fill:#f55648"/><path d="M152,64a8,8,0,0,1-5.816-13.491l15.1-16a8,8,0,1,1,11.634,10.982l-15.1,16A7.975,7.975,0,0,1,152,64Z" style="fill:#f55648"/><path d="M112,48a8,8,0,0,1-8-8V24a8,8,0,0,1,16,0V40A8,8,0,0,1,112,48Z" style="fill:#f55648"/><rect height="48" rx="11" style="fill:#ebebeb" width="128" x="216" y="128"/><path d="M278,72a8,8,0,0,1-8-8,19.055,19.055,0,0,1,3.14-10.783,4.221,4.221,0,0,0,0-5.107A19.05,19.05,0,0,1,270,37.327a19.037,19.037,0,0,1,3.141-10.78A3.632,3.632,0,0,0,274,24a8,8,0,0,1,16,0,19.038,19.038,0,0,1-3.141,10.781A3.631,3.631,0,0,0,286,37.327a3.642,3.642,0,0,0,.86,2.553A19.059,19.059,0,0,1,290,50.664a19.055,19.055,0,0,1-3.14,10.783A3.642,3.642,0,0,0,286,64,8,8,0,0,1,278,72Z" style="fill:#fbedbf"/><path d="M308,72a8,8,0,0,1-8-8,19.055,19.055,0,0,1,3.14-10.783,4.221,4.221,0,0,0,0-5.107A19.05,19.05,0,0,1,300,37.327a19.037,19.037,0,0,1,3.141-10.78A3.632,3.632,0,0,0,304,24a8,8,0,0,1,16,0,19.038,19.038,0,0,1-3.141,10.781A3.631,3.631,0,0,0,316,37.327a3.642,3.642,0,0,0,.86,2.553A19.059,19.059,0,0,1,320,50.664a19.055,19.055,0,0,1-3.14,10.783A3.642,3.642,0,0,0,316,64,8,8,0,0,1,308,72Z" style="fill:#fbedbf"/><path d="M244,72a8,8,0,0,1-8-8,19.055,19.055,0,0,1,3.14-10.783,4.221,4.221,0,0,0,0-5.107A19.05,19.05,0,0,1,236,37.327a19.037,19.037,0,0,1,3.141-10.78A3.632,3.632,0,0,0,240,24a8,8,0,0,1,16,0,19.038,19.038,0,0,1-3.141,10.781A3.631,3.631,0,0,0,252,37.327a3.642,3.642,0,0,0,.86,2.553A19.059,19.059,0,0,1,256,50.664a19.055,19.055,0,0,1-3.14,10.783A3.642,3.642,0,0,0,252,64,8,8,0,0,1,244,72Z" style="fill:#fbedbf"/><path d="M240,176a8,8,0,0,1-5.657-13.657l16-16a8,8,0,1,1,11.314,11.314l-16,16A7.976,7.976,0,0,1,240,176Z" style="fill:#cbcbcb"/><path d="M272,176a8,8,0,0,1-5.657-13.657l16-16a8,8,0,0,1,11.314,11.314l-16,16A7.976,7.976,0,0,1,272,176Z" style="fill:#cbcbcb"/><path d="M304,176a8,8,0,0,1-5.657-13.657l16-16a8,8,0,0,1,11.314,11.314l-16,16A7.976,7.976,0,0,1,304,176Z" style="fill:#cbcbcb"/><rect height="40" style="fill:#e8c8b3" width="8" x="192" y="400"/><path d="M365.761,320H337.888L312,307.056V296.473A72.072,72.072,0,0,0,352,232v-.29A28.04,28.04,0,0,0,376,204V139.4a59.4,59.4,0,0,0-92.35-49.423L280,92.41l-3.651-2.433A59.4,59.4,0,0,0,184,139.4V204a28.04,28.04,0,0,0,24,27.71V232a72.072,72.072,0,0,0,40,64.473v10.583L222.112,320H194.239A50.3,50.3,0,0,0,144,370.239V470a26.029,26.029,0,0,0,26,26H390a26.029,26.029,0,0,0,26-26V370.239A50.3,50.3,0,0,0,365.761,320Zm-40.1-173.657a8,8,0,0,0-11.314,0l-16,16A7.976,7.976,0,0,0,296,168H283.314l10.343-10.343a8,8,0,0,0-11.314-11.314l-16,16A7.976,7.976,0,0,0,264,168H251.314l10.343-10.343a8,8,0,1,0-11.314-11.314l-16,16A7.976,7.976,0,0,0,232,168h-5a3,3,0,0,1-3-3V139a3,3,0,0,1,3-3H333a3,3,0,0,1,3,3v26a3,3,0,0,1-3,3H315.314l10.343-10.343A8,8,0,0,0,325.657,146.343ZM352,215.314V192.686a12,12,0,0,1,0,22.628ZM238.017,96.336a43.424,43.424,0,0,1,29.457,6.953l8.088,5.393a8,8,0,0,0,8.876,0l8.088-5.393A43.4,43.4,0,0,1,360,139.4v39.307a27.786,27.786,0,0,0-8-2.417V176a7.947,7.947,0,0,0-1.25-4.281A18.868,18.868,0,0,0,352,165V139a19.021,19.021,0,0,0-19-19H227a19.021,19.021,0,0,0-19,19v26a18.868,18.868,0,0,0,1.25,6.719A7.947,7.947,0,0,0,208,176v.29a27.786,27.786,0,0,0-8,2.417V139.4A43.468,43.468,0,0,1,238.017,96.336ZM200,204a12.02,12.02,0,0,1,8-11.314v22.628A12.02,12.02,0,0,1,200,204Zm24,28V184h29.711a19.241,19.241,0,0,1-7.91,1.7h-4.687a8,8,0,1,0,0,16h.7a12,12,0,1,0,20.263-3.962,35.4,35.4,0,0,0,8.7-6.381A7.988,7.988,0,0,0,272.925,184H289.3a7.984,7.984,0,0,0,2.154,7.361,35.366,35.366,0,0,0,8.7,6.381,12,12,0,1,0,20.263,3.962h.7a8,8,0,0,0,0-16h-4.686a19.241,19.241,0,0,1-7.91-1.7H336v48a56,56,0,0,1-112,0Zm35.578,87.155A8,8,0,0,0,264,312v-9.814a71.469,71.469,0,0,0,32,0V312a8,8,0,0,0,4.422,7.155l19.462,9.732L313.06,333.3c-.105.067-.208.138-.31.21a56.351,56.351,0,0,1-65.5,0c-.1-.072-.205-.143-.31-.21l-6.824-4.408ZM194.239,336h27.4l16.466,10.637a72.358,72.358,0,0,0,83.786,0L338.359,336h27.4A34.278,34.278,0,0,1,400,370.239V392H352a8,8,0,0,0-8,8v16h-8a8,8,0,0,0-5.657,2.343L316.687,432H208V400a8,8,0,0,0-8-8H160V370.239A34.278,34.278,0,0,1,194.239,336ZM170,480a10.011,10.011,0,0,1-10-10V408h32v32a8,8,0,0,0,8,8H320a8,8,0,0,0,5.657-2.343L339.313,432h15.743l5.789,11.578A8,8,0,0,0,368,448h6.556L369.5,478.329A1.993,1.993,0,0,1,367.529,480Zm230-10a10.011,10.011,0,0,1-10,10h-4.556l6.447-38.685A8,8,0,0,0,384,432H372.944l-5.789-11.578A8,8,0,0,0,360,416v-8h40Z"/><path d="M272,240h8a8,8,0,0,0,2.917-15.452l4.672-14.018a8,8,0,1,0-15.178-5.06l-8,24A8,8,0,0,0,272,240Z"/><path d="M292.422,263.155a8,8,0,1,0,7.156-14.31,43.991,43.991,0,0,0-39.156,0,8,8,0,0,0,7.156,14.31A27.917,27.917,0,0,1,292.422,263.155Z"/><path d="M144,232.011V100a32,32,0,0,0-64,0V232.011a40,40,0,1,0,64,0ZM112,280a23.991,23.991,0,0,1-18-39.861,8,8,0,0,0,2-5.293V144h16V128H96v-8h16V104H96v-4a16,16,0,0,1,32,0V234.846a8,8,0,0,0,2,5.292A23.991,23.991,0,0,1,112,280Z"/><path d="M120,242.158V160a8,8,0,0,0-16,0v82.158a16,16,0,1,0,16,0Z"/><path d="M64,80H40a8,8,0,0,0,0,16H64a8,8,0,0,0,0-16Z"/><path d="M72,64a8,8,0,0,0,5.816-13.491l-15.1-16A8,8,0,1,0,51.079,45.491l15.1,16A7.971,7.971,0,0,0,72,64Z"/><path d="M152,88a8,8,0,0,0,8,8h24a8,8,0,0,0,0-16H160A8,8,0,0,0,152,88Z"/><path d="M161.287,34.509l-15.1,16a8,8,0,1,0,11.634,10.982l15.1-16a8,8,0,1,0-11.634-10.982Z"/><path d="M120,40V24a8,8,0,0,0-16,0V40a8,8,0,0,0,16,0Z"/><path d="M270,64a8,8,0,0,0,16,0,3.642,3.642,0,0,1,.86-2.553A19.055,19.055,0,0,0,290,50.664a19.059,19.059,0,0,0-3.14-10.784,3.642,3.642,0,0,1-.86-2.553,3.631,3.631,0,0,1,.859-2.546A19.038,19.038,0,0,0,290,24a8,8,0,0,0-16,0,3.632,3.632,0,0,1-.859,2.547A19.037,19.037,0,0,0,270,37.327a19.05,19.05,0,0,0,3.14,10.783,4.221,4.221,0,0,1,0,5.107A19.055,19.055,0,0,0,270,64Z"/><path d="M300,64a8,8,0,0,0,16,0,3.642,3.642,0,0,1,.86-2.553A19.055,19.055,0,0,0,320,50.664a19.059,19.059,0,0,0-3.14-10.784,3.642,3.642,0,0,1-.86-2.553,3.631,3.631,0,0,1,.859-2.546A19.038,19.038,0,0,0,320,24a8,8,0,0,0-16,0,3.632,3.632,0,0,1-.859,2.547A19.037,19.037,0,0,0,300,37.327a19.05,19.05,0,0,0,3.14,10.783,4.221,4.221,0,0,1,0,5.107A19.055,19.055,0,0,0,300,64Z"/><path d="M236,64a8,8,0,0,0,16,0,3.642,3.642,0,0,1,.86-2.553A19.055,19.055,0,0,0,256,50.664a19.059,19.059,0,0,0-3.14-10.784,3.642,3.642,0,0,1-.86-2.553,3.631,3.631,0,0,1,.859-2.546A19.038,19.038,0,0,0,256,24a8,8,0,0,0-16,0,3.632,3.632,0,0,1-.859,2.547A19.037,19.037,0,0,0,236,37.327a19.05,19.05,0,0,0,3.14,10.783,4.221,4.221,0,0,1,0,5.107A19.055,19.055,0,0,0,236,64Z"/></g></svg>