<?xml version="1.0" ?><svg viewBox="0 0 512 512" xmlns="http://www.w3.org/2000/svg"><g data-name="filled outline" id="filled_outline"><path d="M184,328V168a88,88,0,0,1,88-88h0a88,88,0,0,1,88,88v82.745A109.256,109.256,0,0,1,328,328H184Z" style="fill:#744630"/><path d="M357.761,328H186.239A42.239,42.239,0,0,0,144,370.239V470a18,18,0,0,0,18,18H382a18,18,0,0,0,18-18V370.239A42.239,42.239,0,0,0,357.761,328Z" style="fill:#6fbbc6"/><path d="M328,488h54a18,18,0,0,0,18-18V400H328Z" style="fill:#e8c8b3"/><path d="M384,440l-6.61,39.64a9.988,9.988,0,0,1-9.86,8.36H328V432l8-8h24l8,16Z" style="fill:#e8c8b3"/><path d="M356,184h4a0,0,0,0,1,0,0v40a0,0,0,0,1,0,0h-4a20,20,0,0,1-20-20v0A20,20,0,0,1,356,184Z" style="fill:#e8c8b3" transform="translate(696 408) rotate(-180)"/><rect height="64" style="fill:#e8c8b3" width="48" x="144" y="400"/><polyline points="272 208 264 232 272 232" style="fill:none;stroke:#000;stroke-linecap:round;stroke-linejoin:round;stroke-width:16px"/><path d="M384,440l-6.61,39.64a9.988,9.988,0,0,1-9.86,8.36H328V432l8-8h24l8,16Z" style="fill:#c7ac9a"/><path d="M128,234.845V100a24,24,0,0,0-48,0V234.845a32,32,0,1,0,48,0Z" style="fill:#e4e4e2"/><path d="M112,242.158V216a8,8,0,0,0-16,0v26.158a16,16,0,1,0,16,0Z" style="fill:#e13029"/><rect height="16" style="fill:#f55648" width="24" x="80" y="104"/><rect height="16" style="fill:#f55648" width="24" x="80" y="136"/><rect height="16" style="fill:#f55648" width="24" x="80" y="168"/><path d="M56,96H32a8,8,0,0,1,0-16H56a8,8,0,0,1,0,16Z" style="fill:#f55648"/><path d="M64,64a7.976,7.976,0,0,1-5.818-2.508l-15.1-16A8,8,0,0,1,54.713,34.508l15.1,16A8,8,0,0,1,64,64Z" style="fill:#f55648"/><path d="M176,96H152a8,8,0,0,1,0-16h24a8,8,0,0,1,0,16Z" style="fill:#f55648"/><path d="M144,64a8,8,0,0,1-5.816-13.492l15.1-16a8,8,0,0,1,11.635,10.984l-15.1,16A7.977,7.977,0,0,1,144,64Z" style="fill:#f55648"/><path d="M104,48a8,8,0,0,1-8-8V24a8,8,0,0,1,16,0V40A8,8,0,0,1,104,48Z" style="fill:#f55648"/><path d="M431.992,400a8,8,0,0,1-6.648-12.439l8-12a13.6,13.6,0,0,0,0-15.124,29.556,29.556,0,0,1,0-32.876,13.6,13.6,0,0,0,0-15.124l-8-12a8,8,0,1,1,13.312-8.876l8,12a29.556,29.556,0,0,1,0,32.876,13.6,13.6,0,0,0,0,15.124,29.556,29.556,0,0,1,0,32.876l-8,12A7.992,7.992,0,0,1,431.992,400Z" style="fill:#f7ba61"/><path d="M468.358,448a8,8,0,0,1-6.648-12.439l8-12a13.6,13.6,0,0,0,0-15.124,29.558,29.558,0,0,1,0-32.875,13.6,13.6,0,0,0,0-15.125l-8-12a8,8,0,0,1,13.312-8.876l8,12a29.553,29.553,0,0,1,0,32.876,13.6,13.6,0,0,0,0,15.125,29.551,29.551,0,0,1,0,32.875l-8,12A7.992,7.992,0,0,1,468.358,448Z" style="fill:#fbb540"/><path d="M104.008,448a7.992,7.992,0,0,1-6.664-3.563l-8-12a29.556,29.556,0,0,1,0-32.876,13.6,13.6,0,0,0,0-15.124,29.556,29.556,0,0,1,0-32.876l8-12a8,8,0,1,1,13.312,8.876l-8,12a13.6,13.6,0,0,0,0,15.124,29.556,29.556,0,0,1,0,32.876,13.6,13.6,0,0,0,0,15.124l8,12A8,8,0,0,1,104.008,448Z" style="fill:#f7ba61"/><path d="M67.642,496a7.992,7.992,0,0,1-6.664-3.563l-8-12a29.553,29.553,0,0,1,0-32.876,13.6,13.6,0,0,0,0-15.125,29.551,29.551,0,0,1,0-32.875l8-12a8,8,0,0,1,13.312,8.876l-8,12a13.6,13.6,0,0,0,0,15.124,29.558,29.558,0,0,1,0,32.875,13.6,13.6,0,0,0,0,15.125l8,12A8,8,0,0,1,67.642,496Z" style="fill:#fbb540"/><path d="M352.886,396.4,340.649,376h-137.3l-12.237,20.4a44.634,44.634,0,0,0-2.728,40.6h0a44.637,44.637,0,0,0,41.005,27h85.218a44.637,44.637,0,0,0,41.005-27h0A44.634,44.634,0,0,0,352.886,396.4Z" style="fill:#6fbbc6"/><path d="M359.529,488H162a18,18,0,0,1-18-18V440H312l16-16h24l8,16h16l-6.607,39.644A10,10,0,0,1,359.529,488Z" style="fill:#e8c8b3"/><path d="M248,272v23.015a32,32,0,0,1-24.239,31.045L216,328l56,40,56-40-7.761-1.94A32,32,0,0,1,296,295.015V272Z" style="fill:#e8c8b3"/><path d="M296.28,299.23a64.179,64.179,0,0,1-48.56,0,30.9,30.9,0,0,0,.28-4.21V272h48v23.02A30.9,30.9,0,0,0,296.28,299.23Z" style="fill:#c7ac9a"/><path d="M272,296h0a64,64,0,0,1-64-64V176h0a92.21,92.21,0,0,0,60.987-42.979L272,128l3.013,5.021A92.21,92.21,0,0,0,336,176h0v56A64,64,0,0,1,272,296Z" style="fill:#e8c8b3"/><path d="M237.8,201.7h-4.687a8,8,0,1,1,0-16H237.8a19.183,19.183,0,0,0,13.656-5.657,8,8,0,1,1,11.314,11.314A35.078,35.078,0,0,1,237.8,201.7Z" style="fill:#744630"/><path d="M313.114,201.7h-4.686a35.081,35.081,0,0,1-24.971-10.343,8,8,0,0,1,11.314-11.314,19.187,19.187,0,0,0,13.657,5.657h4.686a8,8,0,0,1,0,16Z" style="fill:#744630"/><circle cx="245.114" cy="205.704" r="12" style="fill:#744630"/><circle cx="301.114" cy="205.704" r="12" style="fill:#744630"/><path d="M287.994,264a7.973,7.973,0,0,1-3.572-.847,27.917,27.917,0,0,0-24.844,0,8,8,0,0,1-7.156-14.31,43.984,43.984,0,0,1,39.156,0A8,8,0,0,1,287.994,264Z" style="fill:#744630"/><path d="M58.183,61.492A8,8,0,1,0,69.817,50.508l-15.1-16A8,8,0,0,0,43.078,45.492Z"/><path d="M144,64a7.977,7.977,0,0,0,5.818-2.508l15.1-16a8,8,0,0,0-11.635-10.984l-15.1,16A8,8,0,0,0,144,64Z"/><path d="M104,48a8,8,0,0,0,8-8V24a8,8,0,0,0-16,0V40A8,8,0,0,0,104,48Z"/><path d="M357.761,320H345.387A116.377,116.377,0,0,0,368,250.745V168a96,96,0,0,0-192,0V320a8.212,8.212,0,0,0,.074,1.035A50.325,50.325,0,0,0,136,370.239V470a26.029,26.029,0,0,0,26,26H382a26.029,26.029,0,0,0,26-26V370.239A50.3,50.3,0,0,0,357.761,320ZM352,250.745a100.525,100.525,0,0,1-26.569,68.366l-3.251-.813a23.948,23.948,0,0,1-18.12-21.857A72.068,72.068,0,0,0,344,232v-.29a27.786,27.786,0,0,0,8-2.417Zm-96.64,51.293a71.544,71.544,0,0,0,33.28,0,39.919,39.919,0,0,0,21.591,28.823L272,358.169l-38.231-27.308A39.921,39.921,0,0,0,255.36,302.038ZM216,232V182.335a100.492,100.492,0,0,0,56-39.273,100.492,100.492,0,0,0,56,39.273V232a56,56,0,0,1-112,0Zm128-16.686V192.686a12,12,0,0,1,0,22.628ZM192,168a80,80,0,0,1,160,0v10.707a27.786,27.786,0,0,0-8-2.417V176a8,8,0,0,0-6.431-7.845,84.381,84.381,0,0,1-55.7-39.25l-3.013-5.021a8,8,0,0,0-13.72,0l-3.013,5.021a84.381,84.381,0,0,1-55.7,39.25A8,8,0,0,0,200,176v56a72.068,72.068,0,0,0,39.94,64.441A23.948,23.948,0,0,1,221.82,318.3l-6.805,1.7H192ZM152,408h26.029a52.835,52.835,0,0,0,.286,24H152Zm209.5,70.329A1.994,1.994,0,0,1,359.528,480H162a10.011,10.011,0,0,1-10-10V448H312a8,8,0,0,0,5.657-2.343L331.313,432h15.743l5.789,11.578A8,8,0,0,0,360,448h6.557ZM392,470a10.011,10.011,0,0,1-10,10h-4.556l6.448-38.685A8,8,0,0,0,376,432H365.691a52.77,52.77,0,0,0,.284-24H392Zm0-78H359.578l-12.069-20.116a8,8,0,0,0-13.721,8.232l12.238,20.4A36.671,36.671,0,0,1,351.073,416H328a8,8,0,0,0-5.657,2.343L308.687,432H195.008a36.729,36.729,0,0,1,2.967-31.488l12.237-20.4a8,8,0,0,0-13.721-8.232L184.422,392H152V370.239A34.278,34.278,0,0,1,186.239,336h27.2l53.914,38.51a8,8,0,0,0,9.3,0L330.563,336h27.2A34.278,34.278,0,0,1,392,370.239Z"/><path d="M256.41,229.47A8,8,0,0,0,264,240h8a8,8,0,0,0,2.917-15.452l4.673-14.018a8,8,0,0,0-15.18-5.06Z"/><path d="M292.154,197.742a12,12,0,1,0,20.263,3.962h.7a8,8,0,0,0,0-16h-4.686a19.187,19.187,0,0,1-13.657-5.657,8,8,0,0,0-11.314,11.314A35.389,35.389,0,0,0,292.154,197.742Z"/><path d="M257.114,205.7a11.94,11.94,0,0,0-3.039-7.962,35.366,35.366,0,0,0,8.7-6.381,8,8,0,1,0-11.314-11.314A19.183,19.183,0,0,1,237.8,185.7h-4.687a8,8,0,1,0,0,16h.7a12,12,0,1,0,23.3,4Z"/><path d="M284.422,263.155a8,8,0,1,0,7.156-14.31,43.984,43.984,0,0,0-39.156,0,8,8,0,0,0,7.156,14.31A27.917,27.917,0,0,1,284.422,263.155Z"/><path d="M136,232.01V100a32,32,0,0,0-64,0V232.01a40,40,0,1,0,64,0ZM104,280a23.992,23.992,0,0,1-18-39.862,8,8,0,0,0,2-5.293V184h16V168H88V152h16V136H88V120h16V104H88v-4a16,16,0,0,1,32,0V234.845a8,8,0,0,0,2,5.293A23.992,23.992,0,0,1,104,280Z"/><path d="M112,242.158V216a8,8,0,0,0-16,0v26.158a16,16,0,1,0,16,0Z"/><path d="M64,88a8,8,0,0,0-8-8H32a8,8,0,0,0,0,16H56A8,8,0,0,0,64,88Z"/><path d="M144,88a8,8,0,0,0,8,8h24a8,8,0,0,0,0-16H152A8,8,0,0,0,144,88Z"/><path d="M446.656,303.562l-8-12a8,8,0,1,0-13.312,8.876l8,12a13.6,13.6,0,0,1,0,15.124,29.556,29.556,0,0,0,0,32.876,13.6,13.6,0,0,1,0,15.124l-8,12a8,8,0,1,0,13.312,8.876l8-12a29.556,29.556,0,0,0,0-32.876,13.6,13.6,0,0,1,0-15.124A29.556,29.556,0,0,0,446.656,303.562Z"/><path d="M483.022,384.438a29.553,29.553,0,0,0,0-32.876l-8-12a8,8,0,0,0-13.312,8.876l8,12a13.6,13.6,0,0,1,0,15.125,29.558,29.558,0,0,0,0,32.875,13.6,13.6,0,0,1,0,15.124l-8,12a8,8,0,1,0,13.312,8.876l8-12a29.551,29.551,0,0,0,0-32.875A13.6,13.6,0,0,1,483.022,384.438Z"/><path d="M110.656,348.438a8,8,0,1,0-13.312-8.876l-8,12a29.556,29.556,0,0,0,0,32.876,13.6,13.6,0,0,1,0,15.124,29.556,29.556,0,0,0,0,32.876l8,12a8,8,0,1,0,13.312-8.876l-8-12a13.6,13.6,0,0,1,0-15.124,29.556,29.556,0,0,0,0-32.876,13.6,13.6,0,0,1,0-15.124Z"/><path d="M74.29,396.438a8,8,0,0,0-13.312-8.876l-8,12a29.551,29.551,0,0,0,0,32.875,13.6,13.6,0,0,1,0,15.125,29.553,29.553,0,0,0,0,32.876l8,12a8,8,0,0,0,13.312-8.876l-8-12a13.6,13.6,0,0,1,0-15.125,29.558,29.558,0,0,0,0-32.875,13.6,13.6,0,0,1,0-15.124Z"/></g></svg>