<?xml version="1.0" ?><svg viewBox="0 0 512 512" xmlns="http://www.w3.org/2000/svg"><g data-name="filled outline" id="filled_outline"><polygon points="153.01 151.33 146.46 276.38 118.63 260.59 118.61 260.42 104.3 123.7 153.01 151.33" style="fill:#c72a24"/><path d="M441.985,409.752,224,437l-24-29V119.508a16,16,0,0,1,15.5-15.992l224-7A16,16,0,0,1,456,112.508V393.875A16,16,0,0,1,441.985,409.752Z" style="fill:#007af6"/><circle cx="312" cy="256" r="64" style="fill:#f55648"/><path d="M200,128H408a16,16,0,0,1,16,16V424a16,16,0,0,1-16,16H216a16,16,0,0,1-16-16V128A0,0,0,0,1,200,128Z" style="fill:#009cf7"/><path d="M312,184a72,72,0,1,0,72,72A72.081,72.081,0,0,0,312,184Zm31.257,56h22.4a55.848,55.848,0,0,1,0,32h-22.4c.491-5.262.743-10.635.743-16S343.748,245.262,343.257,240Zm14.66-16h-17c-1.671-8.188-4.02-14.636-7.025-19.54A56.334,56.334,0,0,1,357.917,224Zm-58.493,64h25.152c-3.729,15.732-9.564,24-12.576,24S303.153,303.732,299.424,288Zm27.793-16H296.783a163.865,163.865,0,0,1,0-32h30.434a163.865,163.865,0,0,1,0,32Zm-2.641-48H299.424c3.729-15.732,9.564-24,12.576-24S320.847,208.268,324.576,224Zm-34.469-19.54c-3.005,4.9-5.354,11.352-7.025,19.54h-17A56.334,56.334,0,0,1,290.107,204.46ZM280.743,272h-22.4a55.848,55.848,0,0,1,0-32h22.4c-.491,5.262-.743,10.635-.743,16S280.252,266.738,280.743,272Zm-14.66,16h17c1.671,8.188,4.02,14.636,7.025,19.54A56.334,56.334,0,0,1,266.083,288Zm67.81,19.54c3.005-4.9,5.354-11.352,7.025-19.54h17A56.334,56.334,0,0,1,333.893,307.54Z" style="fill:#007af6"/><path d="M352,368H258.667a8,8,0,1,1,0-16H352a8,8,0,0,1,0,16Z" style="fill:#007af6"/><path d="M334.667,400h-48a8,8,0,1,1,0-16h48a8,8,0,0,1,0,16Z" style="fill:#007af6"/><path d="M410.51,330.979a82.511,82.511,0,1,0,82.511,82.511A82.6,82.6,0,0,0,410.51,330.979Zm0,16a66.159,66.159,0,0,1,41,14.2L358.2,454.489a66.455,66.455,0,0,1,52.312-107.51Zm0,133.021a66.164,66.164,0,0,1-41-14.2l93.312-93.311A66.455,66.455,0,0,1,410.51,480Z" style="fill:#e13029"/><polygon points="145.57 147.11 139.03 272 118.61 260.42 104.3 123.7 145.57 147.11" style="fill:#e13029"/><polygon points="280.67 39.79 176.7 109.58 127.99 81.95 128.89 81.53 252.83 24 273.93 35.97 280.67 39.79" style="fill:#c72a24"/><polygon points="273.93 35.97 170.71 105.25 128.89 81.53 252.83 24 273.93 35.97" style="fill:#e13029"/><path d="M349.517,161.622l-20.875-11.841-47.57,19L89.521,60.127a117.667,117.667,0,0,0-51.9-15.159h0a12.947,12.947,0,0,0-11.937,6.54h0a12.944,12.944,0,0,0,.512,13.6h0a117.656,117.656,0,0,0,39.641,36.768L257.389,210.535l8.1,50.581,20.875,11.841,15.789-27.834-5.087-39.675,36.664-15.992Z" style="fill:#ebebeb"/><path d="M207.993,280a7.966,7.966,0,0,1-4.288-1.251l-16-10.182a8,8,0,1,1,8.59-13.5l16,10.181a8,8,0,0,1-4.3,14.751Z" style="fill:#cbcbcb"/><path d="M167.993,254.546a7.966,7.966,0,0,1-4.288-1.251l-32-20.364a8,8,0,1,1,8.59-13.5l32,20.364a8,8,0,0,1-4.3,14.75Z" style="fill:#cbcbcb"/><path d="M223.992,240a7.965,7.965,0,0,1-4.287-1.251l-25.143-16a8,8,0,0,1,8.59-13.5l25.143,16a8,8,0,0,1-4.3,14.751Z" style="fill:#cbcbcb"/><path d="M173.707,208a7.966,7.966,0,0,1-4.288-1.251l-37.714-24a8,8,0,0,1,8.59-13.5l37.714,24a8,8,0,0,1-4.3,14.751Z" style="fill:#cbcbcb"/><path d="M271.993,126.771a7.973,7.973,0,0,1-3.786-.958l-72-38.769a8,8,0,0,1,7.586-14.088l72,38.769a8,8,0,0,1-3.8,15.046Z" style="fill:#cbcbcb"/><path d="M311.993,112a7.972,7.972,0,0,1-3.786-.957l-44.571-24a8,8,0,0,1,7.586-14.088l44.571,24a8,8,0,0,1-3.8,15.045Z" style="fill:#cbcbcb"/><path d="M239.993,73.232a7.972,7.972,0,0,1-3.786-.957l-32-17.231a8,8,0,0,1,7.586-14.088l32,17.231a8,8,0,0,1-3.8,15.045Z" style="fill:#cbcbcb"/><polygon points="349.52 161.62 333.73 189.46 297.06 205.45 294.55 199.7 281.07 168.78 328.64 149.78 344.7 158.89 349.52 161.62" style="fill:#c72a24"/><polygon points="344.7 158.89 330.43 184.04 294.55 199.7 281.07 168.78 328.64 149.78 344.7 158.89" style="fill:#e13029"/><polygon points="302.15 245.12 286.36 272.96 281.82 270.38 265.49 261.12 257.39 210.53 291.16 206.21 297.06 205.45 302.15 245.12" style="fill:#c72a24"/><polygon points="296.15 245.12 281.82 270.38 265.49 261.12 257.39 210.53 291.16 206.21 296.15 245.12" style="fill:#e13029"/><path d="M55.034,87a8,8,0,0,1-7.162-4.424l-.039-.079A19.011,19.011,0,0,1,63.4,55.019a8,8,0,1,1,1.2,15.955,3.012,3.012,0,0,0-2.465,4.355l.047.093A8,8,0,0,1,55.034,87Z" style="fill:#cbcbcb"/><path d="M61.891,108.836l34.884,19.788L110.67,261.419a8,8,0,0,0,4.01,6.126l27.834,15.789a8,8,0,0,0,11.936-6.54l1.49-28.44,7.765,4.941a8,8,0,1,0,8.59-13.5L156.9,230l1.582-30.209,10.935,6.959a8,8,0,1,0,8.59-13.5l-18.563-11.813.878-16.765L192,182.641v29.253a7.989,7.989,0,0,0,0,8.214v33.717a7.995,7.995,0,0,0-4.295,14.743L192,271.3V424a24.027,24.027,0,0,0,24,24H335.592a82.832,82.832,0,0,0,15.949,23.121,8.177,8.177,0,0,0,.626.712,8.033,8.033,0,0,0,.712.626,82.454,82.454,0,0,0,116.6-116.6,7.306,7.306,0,0,0-1.338-1.338q-2.005-1.961-4.142-3.779V112.508A24,24,0,0,0,439.25,88.52L307.756,92.629,271.222,72.956a8,8,0,0,0-7.586,14.088l12.223,6.581-31.832,1L227,85.449l58.129-39.018a8,8,0,0,0-.512-13.6L256.778,17.042a8,8,0,0,0-7.315-.3L128.353,72.957,93.468,53.168A126.321,126.321,0,0,0,38.04,36.979,20.945,20.945,0,0,0,19.554,69.567,126.317,126.317,0,0,0,61.891,108.836Zm82.05,62.735-3.646-2.321a8,8,0,0,0-8.59,13.5l11.274,7.174L141.4,220.133l-1.1-.7a8,8,0,1,0-8.59,13.5l8.73,5.556-1.286,24.543-12.994-7.371L113.877,138.326l30.888,17.52ZM216,432a8.009,8.009,0,0,1-8-8V280A8,8,0,0,0,212.3,265.25L208,262.517V231.3l11.705,7.449a8,8,0,1,0,8.59-13.5L208,212.336V191.717L250.1,215.6l.459,2.869A71.99,71.99,0,0,0,311.211,327.98c.267.012.531.02.789.02a72,72,0,0,0,30.24-137.336l14.236-25.095a8,8,0,0,0-3.012-10.9l-20.875-11.842a8,8,0,0,0-6.915-.47l-44,17.577L239.491,136H408a8.009,8.009,0,0,1,8,8V331.182c-1.817-.12-3.643-.2-5.49-.2a82.189,82.189,0,0,0-55.577,21.583A7.986,7.986,0,0,0,352,352H258.667a8,8,0,1,0,0,16h83.052a82.333,82.333,0,0,0-8.25,16h-46.8a8,8,0,1,0,0,16h42.454a81.809,81.809,0,0,0,1,32Zm41.587-169.62a8,8,0,0,0,3.953,5.694L268.46,272H258.341A55.823,55.823,0,0,1,256,256c0-1,.036-1.994.088-2.987Zm48.175-52,11.741-5.121c2.626,4.193,5.157,10.576,7.076,18.739H307.508ZM368,256a55.823,55.823,0,0,1-2.341,16h-22.4c.491-5.262.743-10.635.743-16,0-5.474-.252-10.832-.729-16H365.64A55.577,55.577,0,0,1,368,256Zm-40,0a158.855,158.855,0,0,1-.783,16H296.8c-.027-.257-.056-.511-.081-.769-.008-.085-.026-.168-.037-.253l12.427-21.907a8,8,0,0,0,.977-4.965L309.56,240h17.647A158.1,158.1,0,0,1,328,256Zm-44.968,32a100.086,100.086,0,0,0,5.635,18.888A56.336,56.336,0,0,1,266.083,288ZM304.4,302.906A74.615,74.615,0,0,1,299.417,288h25.159c-3.729,15.732-9.564,24-12.576,24C310.691,312,307.588,309.578,304.4,302.906ZM340.918,288h17a56.358,56.358,0,0,1-22.67,18.927A100.771,100.771,0,0,0,340.918,288Zm.028-64a101.374,101.374,0,0,0-5.649-18.929A56.209,56.209,0,0,1,357.9,224Zm-12.861-40.811-6.146,2.681c-.1.041-.2.087-.3.132L301.2,194.917l-9.493-21.766,36.334-14.515,10.572,6Zm-37.932,31.265,3.723,29.042-10.525,18.555-10.573-6-6.151-38.424ZM240.227,110.747,257.411,120H211.429c-.045,0-.088.006-.132.007l-3.183-1.806a7.951,7.951,0,0,1,7.636-6.689Zm-46.346-.619-1.979-1.123,4-2.686A23.819,23.819,0,0,0,193.881,110.128ZM448,364.687l-16,16V350.562a66.343,66.343,0,0,1,16,8.026Zm0,22.626v6.562a8.032,8.032,0,0,1-7.077,7.948l-8.581,1.148Zm-32,9.374L380.687,432H346.641a66.47,66.47,0,0,1,63.869-85.021c1.85,0,3.678.1,5.49.245Zm0,22.626V424a8.009,8.009,0,0,1-8,8h-4.687ZM364.687,448l-6.489,6.489A66.852,66.852,0,0,1,353.674,448Zm45.823,32a66.164,66.164,0,0,1-41-14.2l17.8-17.8H408a24.027,24.027,0,0,0,24-24v-4.841l10.977-1.469A24.038,24.038,0,0,0,464,393.875V374.016A66.469,66.469,0,0,1,410.51,480ZM303.957,108.755l4.25,2.289a7.97,7.97,0,0,0,10.521-2.75l121.022-3.782a8,8,0,0,1,8.25,8V340.026a81.92,81.92,0,0,0-16-6.19V144a24.027,24.027,0,0,0-24-24H279.9a8,8,0,0,0-4.105-8.275l-3.668-1.975ZM212.426,95.777q-.552.081-1.095.186l.641-.43ZM252.465,32.99l12.994,7.37L241.078,56.725l-18.4-9.909ZM204.551,55.229l21.505,11.58L211.065,76.872l-7.272-3.916a8,8,0,0,0-7.742,13.993l-19.709,13.23L145.455,82.658Zm70.254,119.2L285.5,198.938l-26.121,3.526L69.785,94.919a109.128,109.128,0,0,1-12.466-8.267,7.938,7.938,0,0,0,4.864-11.23l-.047-.093A3.012,3.012,0,0,1,64.6,70.974a7.968,7.968,0,0,0,6.963-10.556,109.272,109.272,0,0,1,14.01,6.667ZM32.644,55.455a4.92,4.92,0,0,1,4.559-2.5A109.488,109.488,0,0,1,58.238,56.15,18.995,18.995,0,0,0,46.013,76.7,109.539,109.539,0,0,1,32.839,60.65,4.918,4.918,0,0,1,32.644,55.455Z"/></g></svg>