<?xml version="1.0" ?><svg viewBox="0 0 512 512" xmlns="http://www.w3.org/2000/svg"><g data-name="filled outline" id="filled_outline"><polygon points="216 48 192 48 192 24 160 24 160 48 136 48 136 80 160 80 160 104 192 104 192 80 216 80 216 48" style="fill:#02a437"/><path d="M112,120H96V64a8,8,0,0,1,8-8h16V72h-8Z" style="fill:#b9b9b9"/><path d="M256,120H240V72h-8V56h16a8,8,0,0,1,8,8Z" style="fill:#b9b9b9"/><path d="M232,112v32a56,56,0,0,1-56,56h0a56,56,0,0,1-56-56V120H88v24a88.024,88.024,0,0,0,72,86.545V264h32V230.545A88.024,88.024,0,0,0,264,144V112Z" style="fill:#0094f6"/><path d="M136,376a56,56,0,0,0,0,112h6a50,50,0,0,0,50-50V408H304V376Zm24,55a25,25,0,0,1-25,25h1a24,24,0,0,1,0-48h24Z" style="fill:#0a71cd"/><rect height="32" style="fill:#b9b9b9" width="40" x="272" y="376"/><rect height="144" style="fill:#0a71cd" width="32" x="160" y="264"/><rect height="32" style="fill:#0045c7" width="24" x="136" y="376"/><circle cx="368" cy="392" r="64" style="fill:#e4e4e2"/><path d="M395.112,407.733,368,424l-27.112-16.267A26.545,26.545,0,0,1,328,384.971h0A16.971,16.971,0,0,1,344.971,368h0a16.972,16.972,0,0,1,12,4.971L368,384l11.029-11.029a16.972,16.972,0,0,1,12-4.971h0A16.971,16.971,0,0,1,408,384.971h0A26.545,26.545,0,0,1,395.112,407.733Z" style="fill:#f55648"/><rect height="8" style="fill:#a8a8a8" width="16" x="96" y="112"/><rect height="8" style="fill:#a8a8a8" width="16" x="240" y="104"/><path d="M192,16H160a8,8,0,0,0-8,8V40H136a8,8,0,0,0-8,8V80a8,8,0,0,0,8,8h16v16a8,8,0,0,0,8,8h32a8,8,0,0,0,8-8V88h16a8,8,0,0,0,8-8V48a8,8,0,0,0-8-8H200V24A8,8,0,0,0,192,16Zm16,40V72H192a8,8,0,0,0-8,8V96H168V80a8,8,0,0,0-8-8H144V56h16a8,8,0,0,0,8-8V32h16V48a8,8,0,0,0,8,8Z"/><path d="M336.771,414.593l27.113,16.267a8,8,0,0,0,8.232,0l27.113-16.267A34.721,34.721,0,0,0,416,384.971a24.971,24.971,0,0,0-42.628-17.658L368,372.687l-5.372-5.374A24.971,24.971,0,0,0,320,384.971,34.721,34.721,0,0,0,336.771,414.593Zm8.2-38.593a8.911,8.911,0,0,1,6.342,2.628l11.03,11.029a8,8,0,0,0,11.314,0l11.03-11.029A8.97,8.97,0,0,1,400,384.971a18.637,18.637,0,0,1-9,15.9l-23,13.8-23-13.8a18.637,18.637,0,0,1-9-15.9A8.981,8.981,0,0,1,344.971,376Z"/><path d="M152,368H136a64,64,0,0,0,0,128h6a58.066,58.066,0,0,0,58-58V416H300.128a72,72,0,1,0,0-48H200V236.973A95.946,95.946,0,0,0,272,144V112a8,8,0,0,0-8-8h-8V64a8,8,0,0,0-8-8H232V72h8v32h-8a8,8,0,0,0-8,8v32a48,48,0,0,1-96,0V120a8,8,0,0,0-8-8h-8V72h8V56H104a8,8,0,0,0-8,8v48H88a8,8,0,0,0-8,8v24a95.946,95.946,0,0,0,72,92.973Zm32,70a42.047,42.047,0,0,1-42,42h-6a48,48,0,0,1,0-96h16v16H136a32,32,0,0,0-2,63.938,8.018,8.018,0,0,0,1,.062h1a8.159,8.159,0,0,0,.969-.058A33.043,33.043,0,0,0,168,431V272h16Zm-32-22v15a17.02,17.02,0,0,1-16.492,16.992A16,16,0,0,1,136,416Zm216-80a56,56,0,1,1-56,56A56.063,56.063,0,0,1,368,336Zm-72,48v16H280V384Zm-32,0v16H200V384ZM96,144V128h16v16a64,64,0,0,0,128,0V120h16v24a79.935,79.935,0,0,1-65.445,78.677A8,8,0,0,0,184,230.545V256H168V230.545a8,8,0,0,0-6.555-7.868A79.935,79.935,0,0,1,96,144Z"/></g></svg>