<?xml version="1.0" ?><svg viewBox="0 0 512 512" xmlns="http://www.w3.org/2000/svg"><g data-name="filled outline" id="filled_outline"><rect height="48" style="fill:#e4e4e2" width="64" x="400" y="192"/><path d="M432,248a8,8,0,0,1-8-8V192a8,8,0,0,1,16,0v48A8,8,0,0,1,432,248Z" style="fill:#c3c3c3"/><rect height="16" style="fill:#8ed2ff" width="16" x="344" y="136"/><rect height="16" style="fill:#8ed2ff" width="16" x="312" y="136"/><rect height="16" style="fill:#8ed2ff" width="16" x="280" y="136"/><rect height="16" style="fill:#8ed2ff" width="16" x="248" y="136"/><rect height="16" style="fill:#8ed2ff" transform="translate(-38.439 120.503) rotate(-18.438)" width="16.866" x="343.567" y="170.667"/><rect height="16" style="fill:#8ed2ff" transform="translate(-43.456 110.93) rotate(-18.438)" width="16.866" x="311.567" y="181.333"/><rect height="16.866" style="fill:#8ed2ff" transform="translate(136.962 408.694) rotate(-71.565)" width="16" x="344" y="100.9"/><rect height="16.866" style="fill:#8ed2ff" transform="translate(125.201 371.042) rotate(-71.565)" width="16" x="312" y="90.234"/><rect height="16.866" style="fill:#8ed2ff" transform="translate(115.97 331.568) rotate(-71.565)" width="16" x="280" y="76.9"/><rect height="16.866" style="fill:#8ed2ff" transform="translate(104.209 293.917) rotate(-71.565)" width="16" x="248" y="66.234"/><rect height="200" style="fill:#02a437" width="112" x="376" y="240"/><rect height="72" style="fill:#e4e4e2" width="48" x="408" y="120"/><rect height="104" style="fill:#e4e4e2" width="64" x="376" y="288"/><rect height="24" style="fill:#c3c3c3" width="24" x="384" y="128"/><rect height="16" style="fill:#c3c3c3" width="40" x="376" y="312"/><rect height="16" style="fill:#c3c3c3" width="16" x="400" y="344"/><polygon points="24 180.297 24 140.297 160 196.297 112 204.297 24 180.297" style="fill:#e8c8b3"/><path d="M24,180.3l80,16,13.1-15.723a136.362,136.362,0,0,1,67.3-43.819h0a19.55,19.55,0,0,1,22.858,10.055h0a19.551,19.551,0,0,1-8.743,26.231h0a48.674,48.674,0,0,0-21.769,21.769L176,196.3h24v128H121.4A42,42,0,0,1,91.7,312L72,292.3l-48-16Z" style="fill:#f5d3bd"/><path d="M280,228.3H200v-32h80a16,16,0,0,1,16,16h0A16,16,0,0,1,280,228.3Z" style="fill:#f5d3bd"/><path d="M293.86,220.3a16.152,16.152,0,0,1-2.54,3.32A15.987,15.987,0,0,1,280,228.3H216v-8Z" style="fill:#f5d3bd"/><path d="M296,260.3H200v-32h96a16,16,0,0,1,16,16h0A16,16,0,0,1,296,260.3Z" style="fill:#f5d3bd"/><path d="M280,292.3H200v-32h80a16,16,0,0,1,16,16h0A16,16,0,0,1,280,292.3Z" style="fill:#f5d3bd"/><path d="M264,324.3H200v-32h64a16,16,0,0,1,16,16h0A16,16,0,0,1,264,324.3Z" style="fill:#f5d3bd"/><path d="M232,268.3a16,16,0,0,0-16,16,16,16,0,0,0-32,0v8a16,16,0,0,0-32,0v8a16,16,0,0,0-32,0v40a16,16,0,0,0,32,0v-8a16,16,0,0,0,32,0v-8a16,16,0,0,0,32,0v-8a16,16,0,0,0,32,0v-32A16,16,0,0,0,232,268.3Z" style="fill:#e8c8b3"/><path d="M293.86,220.3a16.152,16.152,0,0,1-2.54,3.32A15.987,15.987,0,0,1,280,228.3H220a4,4,0,0,1-4-4h0a4,4,0,0,1,4-4Z" style="fill:#e8c8b3"/><path d="M309.86,252.3a16.152,16.152,0,0,1-2.54,3.32A15.987,15.987,0,0,1,296,260.3H220a4,4,0,0,1-4-4h0a4,4,0,0,1,4-4Z" style="fill:#e8c8b3"/><path d="M293.86,284.3a16.152,16.152,0,0,1-2.54,3.32A15.987,15.987,0,0,1,280,292.3H200v-8Z" style="fill:#e8c8b3"/><path d="M277.86,316.3a16.152,16.152,0,0,1-2.54,3.32A15.987,15.987,0,0,1,264,324.3H184v-8Z" style="fill:#e8c8b3"/><path d="M232,276.3a16,16,0,0,0-16,16,16,16,0,0,0-32,0v8a16,16,0,0,0-32,0v8a16,16,0,0,0-32,0v40a16,16,0,0,0,32,0v-8a16,16,0,0,0,32,0v-8a16,16,0,0,0,32,0v-8a16,16,0,0,0,32,0v-32A16,16,0,0,0,232,276.3Z" style="fill:#f5d3bd"/><rect height="16" style="fill:#cbcbcb" width="48" x="408" y="176"/><rect height="16" style="fill:#029532" width="112" x="376" y="424"/><rect height="16" width="16" x="344" y="136"/><rect height="16" width="16" x="312" y="136"/><rect height="16" width="16" x="280" y="136"/><rect height="16" width="16" x="248" y="136"/><rect height="16" transform="translate(-38.436 120.484) rotate(-18.435)" width="16.866" x="343.567" y="170.667"/><rect height="16" transform="translate(-43.452 110.912) rotate(-18.435)" width="16.866" x="311.567" y="181.333"/><rect height="16.866" transform="translate(136.962 408.694) rotate(-71.565)" width="16" x="344" y="100.9"/><rect height="16.866" transform="translate(125.188 371.033) rotate(-71.562)" width="16" x="312" y="90.234"/><rect height="16.866" transform="translate(115.958 331.559) rotate(-71.562)" width="16" x="280" y="76.9"/><rect height="16.866" transform="translate(104.198 293.909) rotate(-71.562)" width="16" x="248" y="66.234"/><path d="M488,232H472V192a8,8,0,0,0-8-8V120a8,8,0,0,0-8-8H408a8,8,0,0,0-8,8H384a8,8,0,0,0-8,8v24a8,8,0,0,0,8,8h16v24a8,8,0,0,0-8,8v40H376a8,8,0,0,0-8,8V440a8,8,0,0,0,8,8H488a8,8,0,0,0,8-8V240A8,8,0,0,0,488,232Zm-32-32v32H440V200Zm-64-56v-8h8v8Zm24,8V128h32v56H416Zm-8,48h16v32H408ZM384,328h32V312H384V296h48v88H384Zm96,104H384V400h56a8,8,0,0,0,8-8V288a8,8,0,0,0-8-8H384V248h96Z"/><rect height="16" width="16" x="400" y="344"/><path d="M21.47,283.887l46.209,15.4,18.362,18.362A49.952,49.952,0,0,0,110.21,331.03a8.02,8.02,0,0,0,1.79.2V348.3a23.99,23.99,0,0,0,44.223,12.9,23.955,23.955,0,0,0,32-8,23.955,23.955,0,0,0,32-8,23.975,23.975,0,0,0,34.4-12.9H264a24,24,0,0,0,22.312-32.842,24,24,0,0,0,16-32,24,24,0,0,0,0-46.315A24,24,0,0,0,280,188.3H191.064a40.762,40.762,0,0,1,11.026-8.1A27.551,27.551,0,0,0,182.2,129.062a143.724,143.724,0,0,0-63.333,37.661l-92.1-33.932A8,8,0,0,0,16,140.3v136A8,8,0,0,0,21.47,283.887ZM144,348.3a8,8,0,0,1-16,0v-40a8,8,0,0,1,16,0v40Zm32-8a8,8,0,0,1-16,0v-40a8,8,0,0,1,16,0v40Zm32-8a8,8,0,0,1-16,0v-40a8,8,0,0,1,16,0v40Zm24,0a8.009,8.009,0,0,1-8-8v-32a8,8,0,0,1,16,0v32A8.009,8.009,0,0,1,232,332.3Zm32-16h-8v-16h8a8,8,0,0,1,0,16Zm-77.4-171.85a11.551,11.551,0,0,1,8.338,21.438A57.023,57.023,0,0,0,169.59,191.23l-.744,1.488A8,8,0,0,0,176,204.3H280a8,8,0,0,1,0,16H224a8,8,0,0,0,0,16h72a8,8,0,0,1,0,16H224a8,8,0,1,0,0,16h56a8,8,0,0,1,0,16H254.624A23.977,23.977,0,0,0,216,274.428a23.959,23.959,0,0,0-36.223,4.97,23.952,23.952,0,0,0-32,8A23.982,23.982,0,0,0,112,308.3v6.661a33.951,33.951,0,0,1-14.645-8.619l-19.7-19.7a8,8,0,0,0-3.127-1.933L32,270.531V190.056l70.431,14.086a7.99,7.99,0,0,0,7.715-2.723l13.1-15.724A127.869,127.869,0,0,1,186.6,144.447ZM107.509,179.59l-6.608,7.929L32,173.739V151.771Z"/></g></svg>