<?xml version="1.0" ?><svg viewBox="0 0 512 512" xmlns="http://www.w3.org/2000/svg"><g data-name="filled outline" id="filled_outline"><rect height="320" style="fill:#c1e3f7" width="368" x="72" y="144"/><path d="M288,312H224a24,24,0,0,0-24,24v27.6A12.262,12.262,0,0,0,211.775,376,12,12,0,0,0,224,364V464h64V364a12,12,0,0,0,12.225,12A12.262,12.262,0,0,0,312,363.6V336A24,24,0,0,0,288,312Z" style="fill:#0094f6"/><circle cx="256" cy="280" r="32" style="fill:#0094f6"/><path d="M224,336v28a11.985,11.985,0,0,1-8,11.31V336Z" style="fill:#0a71cd"/><path d="M296,336v39.31A11.985,11.985,0,0,1,288,364V336Z" style="fill:#0a71cd"/><rect height="72" style="fill:#0a71cd" width="16" x="248" y="384"/><path d="M64,120a16,16,0,0,0-16,16V456H80V152H432V456h32V136a16,16,0,0,0-16-16Z" style="fill:#cbcbcb"/><rect height="16" style="fill:#8ed2ff" width="16" x="104" y="272"/><rect height="16" style="fill:#8ed2ff" width="16" x="136" y="272"/><rect height="16" style="fill:#8ed2ff" transform="translate(-74.375 48.429) rotate(-18.438)" width="16.866" x="103.567" y="245.333"/><rect height="16" style="fill:#8ed2ff" transform="translate(-69.359 58.002) rotate(-18.438)" width="16.866" x="135.567" y="234.667"/><rect height="16.866" style="fill:#8ed2ff" transform="translate(-214.347 315.94) rotate(-71.565)" width="16" x="104" y="298.234"/><rect height="16.866" style="fill:#8ed2ff" transform="translate(-202.586 353.591) rotate(-71.565)" width="16" x="136" y="308.9"/><rect height="16" style="fill:#8ed2ff" width="16" x="104" y="392"/><rect height="16" style="fill:#8ed2ff" width="16" x="136" y="392"/><rect height="16" style="fill:#8ed2ff" transform="translate(-112.329 54.589) rotate(-18.438)" width="16.866" x="103.567" y="365.333"/><rect height="16" style="fill:#8ed2ff" transform="translate(-107.313 64.162) rotate(-18.438)" width="16.866" x="135.567" y="354.667"/><rect height="16.866" style="fill:#8ed2ff" transform="translate(-328.189 397.991) rotate(-71.565)" width="16" x="104" y="418.234"/><rect height="16.866" style="fill:#8ed2ff" transform="translate(-316.428 435.643) rotate(-71.565)" width="16" x="136" y="428.9"/><rect height="16" style="fill:#8ed2ff" width="16" x="392" y="384"/><rect height="16" style="fill:#8ed2ff" width="16" x="360" y="384"/><rect height="16" style="fill:#8ed2ff" transform="translate(-111.883 148.005) rotate(-18.438)" width="16.866" x="391.567" y="410.667"/><rect height="16" style="fill:#8ed2ff" transform="translate(-116.899 138.432) rotate(-18.438)" width="16.866" x="359.567" y="421.333"/><rect height="16.866" style="fill:#8ed2ff" transform="translate(-73.079 629.274) rotate(-71.565)" width="16" x="392" y="356.9"/><rect height="16.866" style="fill:#8ed2ff" transform="translate(-84.84 591.623) rotate(-71.565)" width="16" x="360" y="346.234"/><rect height="16" style="fill:#8ed2ff" width="16" x="392" y="264"/><rect height="16" style="fill:#8ed2ff" width="16" x="360" y="264"/><rect height="16" style="fill:#8ed2ff" transform="translate(-73.929 141.845) rotate(-18.438)" width="16.866" x="391.567" y="290.667"/><rect height="16" style="fill:#8ed2ff" transform="translate(-78.945 132.272) rotate(-18.438)" width="16.866" x="359.567" y="301.333"/><rect height="16.866" style="fill:#8ed2ff" transform="translate(40.763 547.222) rotate(-71.565)" width="16" x="392" y="236.9"/><rect height="16.866" style="fill:#8ed2ff" transform="translate(29.001 509.571) rotate(-71.565)" width="16" x="360" y="226.234"/><rect height="16" style="fill:#8ed2ff" width="16" x="248" y="176"/><rect height="16" style="fill:#8ed2ff" width="16" x="248" y="208"/><rect height="16.865" style="fill:#8ed2ff" transform="translate(-43.679 98.823) rotate(-18.434)" width="16.001" x="274.666" y="175.567"/><rect height="16.865" style="fill:#8ed2ff" transform="translate(-53.25 103.838) rotate(-18.434)" width="16.001" x="285.333" y="207.567"/><rect height="16.001" style="fill:#8ed2ff" transform="translate(-17.743 343.384) rotate(-71.566)" width="16.865" x="220.901" y="176"/><rect height="16.001" style="fill:#8ed2ff" transform="translate(-55.395 355.145) rotate(-71.566)" width="16.865" x="210.234" y="208"/><rect height="32" style="fill:#b9b9b9" width="464" x="24" y="456"/><circle cx="256" cy="90.849" r="66.849" style="fill:#02a437"/><polygon points="288 72 272 72 272 56 240 56 240 72 224 72 224 104 240 104 240 120 272 120 272 104 288 104 288 72" style="fill:#027226"/><rect height="16" width="16" x="104" y="272"/><rect height="16" width="16" x="136" y="272"/><rect height="16" transform="translate(-74.375 48.429) rotate(-18.438)" width="16.866" x="103.567" y="245.333"/><rect height="16" transform="translate(-69.359 58.002) rotate(-18.438)" width="16.866" x="135.567" y="234.667"/><rect height="16.866" transform="translate(-214.347 315.94) rotate(-71.565)" width="16" x="104" y="298.234"/><rect height="16.866" transform="translate(-202.586 353.591) rotate(-71.565)" width="16" x="136" y="308.9"/><rect height="16" width="16" x="104" y="392"/><rect height="16" width="16" x="136" y="392"/><rect height="16" transform="translate(-112.329 54.589) rotate(-18.438)" width="16.866" x="103.567" y="365.333"/><rect height="16" transform="translate(-107.313 64.162) rotate(-18.438)" width="16.866" x="135.567" y="354.667"/><rect height="16.866" transform="translate(-328.189 397.991) rotate(-71.565)" width="16" x="104" y="418.234"/><rect height="16.866" transform="translate(-316.428 435.643) rotate(-71.565)" width="16" x="136" y="428.9"/><rect height="16" width="16" x="392" y="384"/><rect height="16" width="16" x="360" y="384"/><rect height="16" transform="translate(-111.883 148.005) rotate(-18.438)" width="16.866" x="391.567" y="410.667"/><rect height="16" transform="translate(-116.899 138.432) rotate(-18.438)" width="16.866" x="359.567" y="421.333"/><rect height="16.866" transform="translate(-73.079 629.274) rotate(-71.565)" width="16" x="392" y="356.9"/><rect height="16.866" transform="translate(-84.84 591.623) rotate(-71.565)" width="16" x="360" y="346.234"/><rect height="16" width="16" x="392" y="264"/><rect height="16" width="16" x="360" y="264"/><rect height="16" transform="translate(-73.929 141.845) rotate(-18.438)" width="16.866" x="391.567" y="290.667"/><rect height="16" transform="translate(-78.945 132.272) rotate(-18.438)" width="16.866" x="359.567" y="301.333"/><rect height="16.866" transform="translate(40.763 547.222) rotate(-71.565)" width="16" x="392" y="236.9"/><rect height="16.866" transform="translate(29.001 509.571) rotate(-71.565)" width="16" x="360" y="226.234"/><rect height="16" width="16" x="248" y="176"/><rect height="16" width="16" x="248" y="208"/><rect height="16.865" transform="translate(-43.679 98.823) rotate(-18.434)" width="16.001" x="274.666" y="175.567"/><rect height="16.865" transform="translate(-53.25 103.838) rotate(-18.434)" width="16.001" x="285.333" y="207.567"/><rect height="16.001" transform="translate(-17.743 343.384) rotate(-71.566)" width="16.865" x="220.901" y="176"/><rect height="16.001" transform="translate(-55.395 355.145) rotate(-71.566)" width="16.865" x="210.234" y="208"/><path d="M488,448H472V136a24.028,24.028,0,0,0-24-24H327.786a74.849,74.849,0,1,0-143.572,0H64a24.028,24.028,0,0,0-24,24V448H24a8,8,0,0,0-8,8v32a8,8,0,0,0,8,8H488a8,8,0,0,0,8-8V456A8,8,0,0,0,488,448ZM448,128a8.009,8.009,0,0,1,8,8V448H440V152a8,8,0,0,0-8-8H308.639a75.274,75.274,0,0,0,12.3-16ZM296,448V391.6a20.035,20.035,0,0,0,24-20V336a32.036,32.036,0,0,0-32-32h-.022a40,40,0,1,0-63.956,0H224a32.036,32.036,0,0,0-32,32v35.6A20.3,20.3,0,0,0,211.629,392,19.981,19.981,0,0,0,216,391.6V448H88V160H227.384a74.705,74.705,0,0,0,57.232,0H424V448Zm-48-64v64H232V336H216v36a3.983,3.983,0,0,1-1.2,2.855,3.882,3.882,0,0,1-2.88,1.145A4.29,4.29,0,0,1,208,371.6V336a16.019,16.019,0,0,1,16-16h64a16.019,16.019,0,0,1,16,16v35.6a4.29,4.29,0,0,1-3.922,4.4,4.1,4.1,0,0,1-2.88-1.145A3.983,3.983,0,0,1,296,372V336H280V448H264V384ZM232,280a24,24,0,1,1,24,24A24.028,24.028,0,0,1,232,280ZM256,32a58.849,58.849,0,1,1-58.849,58.849A58.916,58.916,0,0,1,256,32ZM56,136a8.009,8.009,0,0,1,8-8H191.064a75.274,75.274,0,0,0,12.3,16H80a8,8,0,0,0-8,8V448H56ZM480,480H32V464H480Z"/><path d="M224,112h8v8a8,8,0,0,0,8,8h32a8,8,0,0,0,8-8v-8h8a8,8,0,0,0,8-8V72a8,8,0,0,0-8-8h-8V56a8,8,0,0,0-8-8H240a8,8,0,0,0-8,8v8h-8a8,8,0,0,0-8,8v32A8,8,0,0,0,224,112Zm8-32h8a8,8,0,0,0,8-8V64h16v8a8,8,0,0,0,8,8h8V96h-8a8,8,0,0,0-8,8v8H248v-8a8,8,0,0,0-8-8h-8Z"/></g></svg>