<?xml version="1.0" ?><svg viewBox="0 0 512 512" xmlns="http://www.w3.org/2000/svg"><g data-name="filled outline" id="filled_outline"><path d="M400,294V256h72V488H234a18,18,0,0,1-18-18V364a60,60,0,0,1,60-60H390A10,10,0,0,0,400,294Z" style="fill:#dc4d41"/><path d="M392,304a55.974,55.974,0,0,1-96,0h24V262.73h48V304Z" style="fill:#f5d3bd"/><path d="M368,262.73v28.61a64.133,64.133,0,0,1-48,0V262.73Z" style="fill:#e8c8b3"/><path d="M432,200l-176-4V160a88,88,0,0,1,88-88h0a88,88,0,0,1,88,88Z" style="fill:#6e3f0d"/><path d="M180.384,145.536A79.959,79.959,0,1,0,142.659,177.9L192,192Z" style="fill:#0094f6"/><rect height="64" style="fill:#f5d3bd" width="64" x="216" y="392"/><path d="M344,232h-8a8,8,0,0,1-7.59-10.53l8-24a8,8,0,0,1,15.18,5.06l-4.673,14.018A8,8,0,0,1,344,232Z" style="fill:#6e3f0d"/><path d="M280,144v32h-4a20,20,0,0,0-20,20h0a20,20,0,0,0,20,20h4v8a64,64,0,0,0,64,64h0a64,64,0,0,0,64-64V144Z" style="fill:#f5d3bd"/><path d="M309.8,193.7h-4.687a8,8,0,0,1,0-16H309.8a19.183,19.183,0,0,0,13.656-5.657,8,8,0,1,1,11.314,11.314A35.08,35.08,0,0,1,309.8,193.7Z" style="fill:#6e3f0d"/><path d="M385.114,193.7h-4.686a35.082,35.082,0,0,1-24.971-10.343,8,8,0,0,1,11.314-11.314,19.187,19.187,0,0,0,13.657,5.657h4.686a8,8,0,0,1,0,16Z" style="fill:#6e3f0d"/><circle cx="317.114" cy="197.704" r="12" style="fill:#6e3f0d"/><circle cx="373.114" cy="197.704" r="12" style="fill:#6e3f0d"/><path d="M431.529,488H234a18,18,0,0,1-18-18V440H384l16-16h24l8,16h16l-6.607,39.644A10,10,0,0,1,431.529,488Z" style="fill:#f5d3bd"/><path d="M359.994,256a7.973,7.973,0,0,1-3.572-.847,27.917,27.917,0,0,0-24.844,0,8,8,0,0,1-7.156-14.31,43.991,43.991,0,0,1,39.156,0A8,8,0,0,1,359.994,256Z" style="fill:#6e3f0d"/><path d="M232.471,112H440.339A31.661,31.661,0,0,1,472,143.661V160H280l-16,16H240l-8-16H216l6.607-39.644A10,10,0,0,1,232.471,112Z" style="fill:#f5d3bd"/><rect height="96" style="fill:#f5d3bd" width="64" x="408" y="160"/><polygon points="104 64 144 64 120 96 152 96 96 152 104 112 80 112 104 64" style="fill:#f7ba61"/><path d="M255.992,72a7.969,7.969,0,0,1-4.43-1.345l-24-16a8,8,0,0,1,8.876-13.312l24,16A8,8,0,0,1,255.992,72Z" style="fill:#f7ba61"/><path d="M280.008,56a7.992,7.992,0,0,1-6.664-3.563l-16-24a8,8,0,1,1,13.312-8.876l16,24A8,8,0,0,1,280.008,56Z" style="fill:#f7ba61"/><path d="M399.992,56a8,8,0,0,1-6.648-12.439l16-24a8,8,0,0,1,13.312,8.876l-16,24A7.992,7.992,0,0,1,399.992,56Z" style="fill:#f7ba61"/><path d="M424.008,72a8,8,0,0,1-4.446-14.657l24-16a8,8,0,0,1,8.876,13.312l-24,16A7.967,7.967,0,0,1,424.008,72Z" style="fill:#f7ba61"/><path d="M400,160H280v8H400v87.01A63.672,63.672,0,0,0,408,224V160Z" style="fill:#e8c8b3"/><rect height="48" style="fill:#e8c8b3" width="16" x="264" y="392"/><path d="M152,88H136l14.4-19.2A8,8,0,0,0,144,56H104a8,8,0,0,0-7.155,4.422l-24,48A8,8,0,0,0,80,120H94.241l-6.086,30.431a8,8,0,0,0,13.5,7.226l56-56A8,8,0,0,0,152,88Zm-42.974,39.66,2.819-14.091A8,8,0,0,0,104,104H92.944l16-32H128L113.6,91.2A8,8,0,0,0,120,104h12.687Z"/><path d="M112,16a88,88,0,1,0,31.077,170.342l46.725,13.35a8,8,0,0,0,9.959-9.632l-10.827-43.311A88.022,88.022,0,0,0,112,16Zm60.623,131.477,8.256,33.026L144.857,170.21a7.992,7.992,0,0,0-5.267.3,71.981,71.981,0,1,1,33.96-29.139A8,8,0,0,0,172.623,147.477Z"/><path d="M225.344,43.562a8,8,0,0,0,2.218,11.094l24,16a8,8,0,1,0,8.876-13.312l-24-16A8,8,0,0,0,225.344,43.562Z"/><path d="M280.008,56a8,8,0,0,0,6.648-12.439l-16-24a8,8,0,1,0-13.312,8.876l16,24A7.992,7.992,0,0,0,280.008,56Z"/><path d="M420.438,17.344a8,8,0,0,0-11.094,2.218l-16,24a8,8,0,1,0,13.312,8.876l16-24A8,8,0,0,0,420.438,17.344Z"/><path d="M417.344,68.438a8,8,0,0,0,11.094,2.218l24-16a8,8,0,0,0-8.876-13.312l-24,16A8,8,0,0,0,417.344,68.438Z"/><path d="M328.41,221.47A8,8,0,0,0,336,232h8a8,8,0,0,0,2.917-15.452l4.673-14.018a8,8,0,0,0-15.18-5.06Z"/><path d="M364.154,189.742a12,12,0,1,0,20.263,3.962h.7a8,8,0,0,0,0-16h-4.686a19.187,19.187,0,0,1-13.657-5.657,8,8,0,0,0-11.314,11.314A35.389,35.389,0,0,0,364.154,189.742Z"/><path d="M329.114,197.7a11.94,11.94,0,0,0-3.039-7.962,35.366,35.366,0,0,0,8.7-6.381,8,8,0,1,0-11.314-11.314A19.183,19.183,0,0,1,309.8,177.7h-4.687a8,8,0,0,0,0,16h.7a12,12,0,1,0,23.3,4Z"/><path d="M356.422,255.155a8,8,0,1,0,7.156-14.31,43.991,43.991,0,0,0-39.156,0,8,8,0,0,0,7.156,14.31A27.917,27.917,0,0,1,356.422,255.155Z"/><path d="M440.34,104H421.971a95.992,95.992,0,0,0-155.941,0H232.471a17.944,17.944,0,0,0-17.755,15.04l-6.608,39.645A8,8,0,0,0,216,168h11.056l5.789,11.578A8,8,0,0,0,240,184h10.707A27.987,27.987,0,0,0,272,223.71V224a72.072,72.072,0,0,0,40,64.473V296H276a68.077,68.077,0,0,0-68,68V470a26.029,26.029,0,0,0,26,26H472a8,8,0,0,0,8-8V143.66A39.7,39.7,0,0,0,440.34,104ZM344,80a80.149,80.149,0,0,1,57.113,24H286.86A79.739,79.739,0,0,1,344,80ZM239.155,156.422A8,8,0,0,0,232,152h-6.557l5.055-30.329A1.994,1.994,0,0,1,232.471,120H440.34A23.687,23.687,0,0,1,464,143.66V248H416V160a8,8,0,0,0-8-8H280a8,8,0,0,0-5.657,2.343L260.687,168H244.944ZM376,288.473a72.32,72.32,0,0,0,16-10.865V294a2,2,0,0,1-2,2H376ZM264,196a12.02,12.02,0,0,1,8-11.314v22.628A12.02,12.02,0,0,1,264,196Zm24,28V168H400v56a56,56,0,0,1-112,0Zm56,72a71.947,71.947,0,0,0,16-1.814V304a8,8,0,0,0,8,8h6.852a48.166,48.166,0,0,1-61.7,0H320a8,8,0,0,0,8-8v-9.814A71.947,71.947,0,0,0,344,296ZM234,480a10.011,10.011,0,0,1-10-10V400h48v40a8,8,0,0,0,8,8H384a8,8,0,0,0,5.657-2.343L403.313,432h15.743l5.789,11.578A8,8,0,0,0,432,448h6.557L433.5,478.329A1.993,1.993,0,0,1,431.529,480Zm230,0H449.444l6.448-38.685A8,8,0,0,0,448,432H436.944l-5.789-11.578A8,8,0,0,0,424,416H400a8,8,0,0,0-5.657,2.343L380.687,432H288V368a8,8,0,0,0-16,0v16H224V364a52.059,52.059,0,0,1,52-52h15.666a63.971,63.971,0,0,0,105.77-1.627A18.013,18.013,0,0,0,408,294V264h56Z"/></g></svg>