<?xml version="1.0" ?><svg viewBox="0 0 512 512" xmlns="http://www.w3.org/2000/svg"><g data-name="filled outline" id="filled_outline"><path d="M123.279,368a7.985,7.985,0,0,1-3.186-.665L64.838,343.313A82.236,82.236,0,0,1,64.206,193.3c.144-.066.29-.126.437-.183L137.5,165.074a8,8,0,1,1,5.747,14.932L70.618,207.962a66.235,66.235,0,0,0,.666,120.707l55.189,23.994A8,8,0,0,1,123.279,368Z" style="fill:#ea9d2d"/><path d="M388.721,368a8,8,0,0,1-3.194-15.339l55.255-24.023a66.236,66.236,0,0,0,.6-120.678l-72.633-27.956a8,8,0,1,1,5.747-14.932l72.861,28.043c.147.057.293.117.437.183a82.236,82.236,0,0,1-.567,149.984l-55.32,24.053A7.985,7.985,0,0,1,388.721,368Z" style="fill:#ea9d2d"/><path d="M148.35,391.114a170,170,0,0,0,215.3,0l29.913-24.474a131.956,131.956,0,0,0,46.6-80.436h0q.238-1.424.444-2.85c5.831-40.417-10.913-80.807-42.918-106.168L376,160h0a103.7,103.7,0,0,0-47.693-46.352L298.75,99.563a98.815,98.815,0,0,0-85.5,0l-29.557,14.085A103.7,103.7,0,0,0,136,160h0l-21.69,17.186c-32,25.361-48.749,65.751-42.918,106.168q.207,1.427.444,2.85h0a131.956,131.956,0,0,0,46.6,80.436Z" style="fill:#e4e4e2"/><path d="M256,303.851a211.792,211.792,0,0,1-58.2-8.159,8,8,0,0,1,4.4-15.384,195.673,195.673,0,0,0,107.6,0,8,8,0,0,1,4.4,15.384A211.792,211.792,0,0,1,256,303.851Z" style="fill:#cbcbcb"/><path d="M192,343.191c13.255,0,24-21.49,24-48s-10.745-48-24-48H160v96Z" style="fill:#ea9d2d"/><path d="M184,303.19h31.66a82.221,82.221,0,0,1-2.88,16H184a8,8,0,0,1,0-16Z" style="fill:#ea9d2d"/><path d="M176,279.19a8,8,0,0,1,8-8h28.78a82.221,82.221,0,0,1,2.88,16H184A8,8,0,0,1,176,279.19Z" style="fill:#ea9d2d"/><path d="M247.056,128.609,174.5,164.888a14.31,14.31,0,0,0-5.508,20.738h0a14.313,14.313,0,0,0,18.308,4.862l64.228-32.115a10,10,0,0,1,8.944,0L324.7,190.488a14.313,14.313,0,0,0,18.308-4.862h0a14.31,14.31,0,0,0-5.508-20.738l-72.556-36.279A20,20,0,0,0,247.056,128.609Z" style="fill:#b9b9b9"/><path d="M311.994,232a7.955,7.955,0,0,1-3.647-.885,114.88,114.88,0,0,0-104.694,0,8,8,0,1,1-7.306-14.234,130.916,130.916,0,0,1,119.306,0A8,8,0,0,1,311.994,232Z" style="fill:#cbcbcb"/><path d="M256,381.5a130.621,130.621,0,0,1-59.653-14.381,8,8,0,1,1,7.306-14.234,114.88,114.88,0,0,0,104.694,0,8,8,0,0,1,7.306,14.234A130.621,130.621,0,0,1,256,381.5Z" style="fill:#cbcbcb"/><path d="M215.66,287.19H184a8,8,0,0,1,0-16h28.78A82.221,82.221,0,0,1,215.66,287.19Z" style="fill:#d18d28"/><path d="M215.66,303.19a82.221,82.221,0,0,1-2.88,16H184a8,8,0,0,1,0-16Z" style="fill:#d18d28"/><ellipse cx="160" cy="295.191" rx="24" ry="48" style="fill:#f7ba61"/><path d="M341.078,157.732l-72.556-36.278a28.124,28.124,0,0,0-25.044,0l-72.556,36.278a22.311,22.311,0,0,0,19.955,39.911L255.1,165.529a2.014,2.014,0,0,1,1.791,0l64.228,32.115a22.311,22.311,0,0,0,19.955-39.911Zm-4.726,23.456a6.323,6.323,0,0,1-8.074,2.144l-64.229-32.115a18.091,18.091,0,0,0-16.1,0l-64.228,32.114a6.324,6.324,0,0,1-8.074-2.144,6.311,6.311,0,0,1,2.429-9.145l72.556-36.278h0a12.058,12.058,0,0,1,10.733,0l72.556,36.278a6.311,6.311,0,0,1,2.429,9.145Z"/><path d="M203.653,231.117a114.88,114.88,0,0,1,104.694,0,8,8,0,0,0,7.306-14.234,130.916,130.916,0,0,0-119.306,0,8,8,0,1,0,7.306,14.234Z"/><path d="M308.347,352.883a114.88,114.88,0,0,1-104.694,0,8,8,0,1,0-7.306,14.234,130.912,130.912,0,0,0,119.306,0,8,8,0,0,0-7.306-14.234Z"/><path d="M309.8,280.308a196.762,196.762,0,0,1-86.283,4.818c-2.56-26.783-15.251-45.935-31.519-45.935H160c-18.243,0-32,24.076-32,56s13.757,56,32,56h32c17.045,0,30.17-21.019,31.821-49.818a212.648,212.648,0,0,0,90.377-5.681,8,8,0,0,0-4.4-15.384ZM191.7,287.191h15.946c.228,2.547.357,5.213.357,8s-.129,5.454-.357,8H191.7c.195-2.6.3-5.271.3-8S191.892,289.8,191.7,287.191Zm12.756-16H189.12a64.843,64.843,0,0,0-6.3-16H192C196,255.191,201.1,261.047,204.453,271.191Zm-44.453-16c6.524,0,16,15.582,16,40s-9.476,40-16,40-16-15.582-16-40S153.476,255.191,160,255.191Zm32,80h-9.176a64.843,64.843,0,0,0,6.3-16h15.333C201.1,329.336,196,335.191,192,335.191Z"/><path d="M447.794,193.3c-.144-.066-.29-.126-.437-.183L412.65,179.759a124.532,124.532,0,0,0-9.992-8.843L382.3,154.787a112.331,112.331,0,0,0-50.553-48.36L302.192,92.342a106.816,106.816,0,0,0-92.383,0l-29.558,14.085a112.331,112.331,0,0,0-50.553,48.36l-20.356,16.129a124.532,124.532,0,0,0-9.992,8.843L64.643,193.117c-.147.057-.293.117-.437.183a82.236,82.236,0,0,0,.567,149.984l33.105,14.747a140.024,140.024,0,0,0,15.493,14.8l29.913,24.474a178,178,0,0,0,225.432,0l29.913-24.474a139.956,139.956,0,0,0,16.019-15.382l32.579-14.165a82.236,82.236,0,0,0,.567-149.984ZM71.284,328.669a66.235,66.235,0,0,1-.666-120.707l9.307-3.583A121.871,121.871,0,0,0,63.475,284.5q.217,1.514.469,3.024a139.916,139.916,0,0,0,15.649,44.85ZM388.5,360.448l-29.914,24.474a162,162,0,0,1-205.168,0L123.5,360.448a123.911,123.911,0,0,1-43.775-75.559q-.224-1.338-.416-2.678c-5.359-37.134,9.956-74.974,39.967-98.754l21.69-17.186a8.008,8.008,0,0,0,2.153-2.625,96.22,96.22,0,0,1,44.013-42.776l29.558-14.085a90.824,90.824,0,0,1,78.617,0l29.557,14.085a96.22,96.22,0,0,1,44.013,42.776,8.008,8.008,0,0,0,2.153,2.625l21.69,17.186c30.011,23.78,45.326,61.62,39.967,98.754q-.192,1.339-.416,2.678a123.9,123.9,0,0,1-27.355,59.343l-.108.047.024.055A124.052,124.052,0,0,1,388.5,360.448Zm52.284-31.808-8.308,3.611a139.916,139.916,0,0,0,15.582-44.731q.252-1.51.469-3.024a121.871,121.871,0,0,0-16.451-80.117l9.308,3.582a66.236,66.236,0,0,1-.6,120.679Z"/></g></svg>