<?xml version="1.0" ?><svg viewBox="0 0 512 512" xmlns="http://www.w3.org/2000/svg"><g data-name="filled outline" id="filled_outline"><path d="M411.417,119.6A114.531,114.531,0,0,1,344,108.664h0A377.855,377.855,0,0,0,163.241,89.458L24,108.664v304l139.241-19.206A377.855,377.855,0,0,1,344,412.664h0l.448.179a156,156,0,0,0,81.656,9.343l61.9-9.522v-304Z" style="fill:#a83b32"/><path d="M352,151.039a7.959,7.959,0,0,1-3.017-.594c-2.747-1.12-5.482-2.352-8.137-3.667a371.173,371.173,0,0,0-38.73-11.677,8,8,0,0,1,3.774-15.549A387.385,387.385,0,0,1,346.734,131.9a8.171,8.171,0,0,1,.845.363c2.421,1.212,4.924,2.346,7.441,3.371A8,8,0,0,1,352,151.039Z" style="fill:#c7463b"/><path d="M399.994,159.405a8,8,0,0,1-.328-15.993,106.306,106.306,0,0,0,10.619-.978l11.832-1.69a8,8,0,0,1,2.261,15.84l-11.83,1.689a122.352,122.352,0,0,1-12.214,1.125C400.22,159.4,400.107,159.405,399.994,159.405Z" style="fill:#c7463b"/><path d="M183.991,365.927a8,8,0,0,1-.645-15.974c10.816-.887,21.822-1.3,32.677-1.288a8,8,0,0,1-.046,16c-10.41-.022-20.956.385-31.323,1.235C184.432,365.918,184.21,365.927,183.991,365.927Z" style="fill:#c7463b"/><path d="M111.99,375.276a8,8,0,0,1-1.083-15.925l32-4.414a8,8,0,1,1,2.186,15.849l-32,4.414A7.937,7.937,0,0,1,111.99,375.276Z" style="fill:#c7463b"/><polygon points="125.8 150.33 138.5 189.418 179.6 189.418 146.35 213.576 159.05 252.664 125.8 228.506 92.55 252.664 105.25 213.576 72 189.418 113.099 189.418 125.8 150.33" style="fill:#fbb540"/><path d="M203.687,125.126l6.559,7.028a1.439,1.439,0,0,0,1.662.323l8.712-4.066a1.44,1.44,0,0,1,1.869,2l-4.657,8.41a1.44,1.44,0,0,0,.207,1.681l6.559,7.028a1.441,1.441,0,0,1-1.327,2.4l-9.438-1.831a1.442,1.442,0,0,0-1.535.717l-4.657,8.41a1.441,1.441,0,0,1-2.69-.522l-1.175-9.542a1.442,1.442,0,0,0-1.156-1.238l-9.438-1.831a1.44,1.44,0,0,1-.335-2.719l8.712-4.066a1.44,1.44,0,0,0,.82-1.482l-1.175-9.541A1.441,1.441,0,0,1,203.687,125.126Z" style="fill:#fbb540"/><path d="M235.848,159.888l5.267,8.042a1.441,1.441,0,0,0,1.584.6l9.276-2.525a1.441,1.441,0,0,1,1.5,2.292l-6.021,7.5a1.441,1.441,0,0,0-.082,1.692l5.268,8.042a1.441,1.441,0,0,1-1.716,2.136l-8.989-3.41a1.44,1.44,0,0,0-1.634.444l-6.021,7.5a1.44,1.44,0,0,1-2.561-.972l.465-9.6a1.442,1.442,0,0,0-.928-1.417l-8.988-3.41a1.441,1.441,0,0,1,.132-2.737l9.277-2.524a1.44,1.44,0,0,0,1.06-1.32l.466-9.6A1.441,1.441,0,0,1,235.848,159.888Z" style="fill:#fbb540"/><path d="M203.687,272.937l6.559-7.028a1.441,1.441,0,0,1,1.662-.323l8.712,4.067a1.44,1.44,0,0,0,1.869-2l-4.657-8.411a1.438,1.438,0,0,1,.207-1.68l6.559-7.029a1.441,1.441,0,0,0-1.327-2.4l-9.438,1.831a1.441,1.441,0,0,1-1.535-.716l-4.657-8.41a1.44,1.44,0,0,0-2.69.521l-1.175,9.542a1.442,1.442,0,0,1-1.156,1.238l-9.438,1.831a1.44,1.44,0,0,0-.335,2.719l8.712,4.066a1.44,1.44,0,0,1,.82,1.482l-1.175,9.542A1.44,1.44,0,0,0,203.687,272.937Z" style="fill:#fbb540"/><path d="M235.848,238.175l5.267-8.042a1.443,1.443,0,0,1,1.584-.6l9.276,2.525a1.44,1.44,0,0,0,1.5-2.292l-6.021-7.495a1.439,1.439,0,0,1-.082-1.691l5.268-8.043a1.441,1.441,0,0,0-1.716-2.136l-8.989,3.411a1.442,1.442,0,0,1-1.634-.445l-6.021-7.5a1.44,1.44,0,0,0-2.561.972l.465,9.6a1.44,1.44,0,0,1-.928,1.417l-8.988,3.41a1.441,1.441,0,0,0,.132,2.737l9.277,2.524a1.44,1.44,0,0,1,1.06,1.32l.466,9.6A1.44,1.44,0,0,0,235.848,238.175Z" style="fill:#fbb540"/><path d="M493.242,102.62a8.008,8.008,0,0,0-6.373-1.876l-76.583,10.941a106.048,106.048,0,0,1-62.708-10.176,7.856,7.856,0,0,0-.844-.363A387.3,387.3,0,0,0,162.147,81.533L22.907,100.739A8,8,0,0,0,16,108.664v304a8,8,0,0,0,9.093,7.925l139.241-19.206A371.244,371.244,0,0,1,341.149,420.14l.328.131a164.1,164.1,0,0,0,85.843,9.822l61.9-9.522A8,8,0,0,0,496,412.664v-304A8,8,0,0,0,493.242,102.62ZM480,405.8l-55.113,8.477a148.1,148.1,0,0,1-77.474-8.865l-.448-.179c-.076-.031-.153-.06-.231-.088a386.994,386.994,0,0,0-184.587-19.613L32,403.485V115.637L164.334,97.383a371.269,371.269,0,0,1,176.509,18.646,122.022,122.022,0,0,0,71.706,11.5L480,117.888Z"/><path d="M355.02,135.629c-2.517-1.025-5.02-2.159-7.441-3.371a8.171,8.171,0,0,0-.845-.363,387.385,387.385,0,0,0-40.847-12.343,8,8,0,0,0-3.774,15.549,371.173,371.173,0,0,1,38.73,11.677c2.655,1.315,5.39,2.547,8.137,3.667a8,8,0,1,0,6.04-14.816Z"/><path d="M399.666,143.412a8,8,0,0,0,.328,15.993c.113,0,.226,0,.34-.007a122.352,122.352,0,0,0,12.214-1.125l11.83-1.689a8,8,0,0,0-2.261-15.84l-11.832,1.69A106.306,106.306,0,0,1,399.666,143.412Z"/><path d="M216.023,348.665c-10.855-.01-21.861.4-32.677,1.288a8,8,0,0,0,.645,15.974c.219,0,.441-.009.663-.027,10.367-.85,20.913-1.257,31.323-1.235a8,8,0,0,0,.046-16Z"/><path d="M142.907,354.937l-32,4.414a8,8,0,1,0,2.186,15.849l32-4.414a8,8,0,1,0-2.186-15.849Z"/><path d="M155.754,216.632,184.3,195.89a8,8,0,0,0-4.7-14.472H144.313l-10.9-33.561a8,8,0,0,0-15.217,0l-10.9,33.56H72a8,8,0,0,0-4.7,14.472l28.548,20.742-10.9,33.56a8,8,0,0,0,12.311,8.944L125.8,238.4l28.548,20.741a8,8,0,0,0,12.31-8.944ZM141.647,207.1a8,8,0,0,0-2.906,8.944l5.092,15.672L130.5,222.034a8,8,0,0,0-9.4,0l-13.331,9.686,5.091-15.672a8,8,0,0,0-2.906-8.944l-13.331-9.686H113.1a8,8,0,0,0,7.608-5.528l5.092-15.671,5.092,15.672a8,8,0,0,0,7.608,5.527h16.479Z"/><path d="M193.182,144.094l9.438,1.83a1.442,1.442,0,0,1,1.156,1.238l1.175,9.542a1.441,1.441,0,0,0,2.69.522l4.657-8.411a1.442,1.442,0,0,1,1.535-.716l9.438,1.831a1.441,1.441,0,0,0,1.327-2.4l-6.559-7.028a1.44,1.44,0,0,1-.207-1.681l4.657-8.41a1.44,1.44,0,0,0-1.869-2l-8.712,4.066a1.439,1.439,0,0,1-1.662-.323l-6.559-7.028a1.441,1.441,0,0,0-2.483,1.159l1.175,9.541a1.44,1.44,0,0,1-.82,1.482l-8.712,4.066A1.441,1.441,0,0,0,193.182,144.094Z"/><path d="M251.975,166.006l-9.276,2.525a1.441,1.441,0,0,1-1.584-.6l-5.267-8.042a1.441,1.441,0,0,0-2.644.719l-.466,9.6a1.44,1.44,0,0,1-1.06,1.32l-9.277,2.524a1.441,1.441,0,0,0-.132,2.737l8.988,3.41a1.442,1.442,0,0,1,.928,1.417l-.465,9.6a1.44,1.44,0,0,0,2.561.972l6.021-7.5a1.44,1.44,0,0,1,1.634-.444l8.989,3.41a1.441,1.441,0,0,0,1.716-2.136l-5.268-8.042a1.441,1.441,0,0,1,.082-1.692l6.021-7.5A1.44,1.44,0,0,0,251.975,166.006Z"/><path d="M223.271,248.133l-9.438,1.831a1.441,1.441,0,0,1-1.535-.716l-4.657-8.41a1.44,1.44,0,0,0-2.69.521l-1.175,9.542a1.441,1.441,0,0,1-1.156,1.238l-9.438,1.831a1.44,1.44,0,0,0-.335,2.719l8.712,4.066a1.441,1.441,0,0,1,.82,1.482l-1.175,9.542a1.441,1.441,0,0,0,2.483,1.159l6.559-7.029a1.441,1.441,0,0,1,1.662-.323l8.712,4.067a1.441,1.441,0,0,0,1.869-2l-4.657-8.41a1.438,1.438,0,0,1,.207-1.68l6.559-7.029A1.441,1.441,0,0,0,223.271,248.133Z"/><path d="M247.455,222.27a1.44,1.44,0,0,1-.082-1.691l5.268-8.043a1.441,1.441,0,0,0-1.716-2.136l-8.989,3.411a1.442,1.442,0,0,1-1.634-.445l-6.021-7.5a1.44,1.44,0,0,0-2.561.972l.465,9.6a1.44,1.44,0,0,1-.928,1.417l-8.988,3.41a1.441,1.441,0,0,0,.132,2.737l9.277,2.524a1.44,1.44,0,0,1,1.06,1.321l.466,9.6a1.44,1.44,0,0,0,2.644.719l5.267-8.042a1.443,1.443,0,0,1,1.584-.6l9.276,2.525a1.44,1.44,0,0,0,1.5-2.292Z"/></g></svg>