<?xml version="1.0" ?><svg viewBox="0 0 512 512" xmlns="http://www.w3.org/2000/svg"><g data-name="filled outline" id="filled_outline"><rect height="79.101" style="fill:#0a71cd" transform="translate(-124.468 218.313) rotate(-33.388)" width="32" x="285.736" y="277.119"/><rect height="25.815" style="fill:#0045c7" transform="matrix(0.835, -0.55, 0.55, 0.835, -114.646, 206.573)" width="32" x="271.074" y="281.516"/><path d="M341.82,329.9h48a0,0,0,0,1,0,0v144a24,24,0,0,1-24,24h0a24,24,0,0,1-24-24v-144A0,0,0,0,1,341.82,329.9Z" style="fill:#6e3f0d" transform="translate(-167.399 269.626) rotate(-33.388)"/><rect height="32" style="fill:#e4e4e2" transform="translate(-142.33 239.662) rotate(-33.388)" width="48" x="304.399" y="341.123"/><circle cx="205.129" cy="170.092" r="144.729" style="fill:#0094f6"/><circle cx="205.129" cy="170.092" r="112" style="fill:#8ed2ff"/><circle cx="205.129" cy="170.092" r="98.092" style="fill:#c1e3f7"/><path d="M192.6,157.614a7.994,7.994,0,0,1-6.688-3.6L172.7,133.976a8,8,0,0,1,13.36-8.8l13.207,20.039a8,8,0,0,1-6.672,12.4Z" style="fill:#c75b93"/><path d="M182.3,172.822a8.013,8.013,0,0,1-1.618-.165l-23.509-4.83a8,8,0,1,1,3.221-15.673l23.508,4.83a8,8,0,0,1-1.6,15.838Z" style="fill:#c75b93"/><path d="M165.727,204.067a8,8,0,0,1-4.411-14.68l20.039-13.208a8,8,0,1,1,8.805,13.36l-20.039,13.207A7.957,7.957,0,0,1,165.727,204.067Z" style="fill:#c75b93"/><path d="M196.144,224.671a8.088,8.088,0,0,1-1.619-.165,8,8,0,0,1-6.225-9.446l4.83-23.509a8,8,0,1,1,15.672,3.22l-4.83,23.508A8,8,0,0,1,196.144,224.671Z" style="fill:#c75b93"/><path d="M232.22,217.73a7.993,7.993,0,0,1-6.688-3.6l-13.208-20.039a8,8,0,0,1,13.36-8.8l13.208,20.039a8,8,0,0,1-6.672,12.4Z" style="fill:#c75b93"/><path d="M252.822,187.314a8.013,8.013,0,0,1-1.618-.165l-23.509-4.83a8,8,0,0,1,3.221-15.673l23.509,4.831a8,8,0,0,1-1.6,15.837Z" style="fill:#c75b93"/><path d="M210.636,154.144a8.081,8.081,0,0,1-1.619-.165,8,8,0,0,1-6.226-9.447l4.831-23.509a8,8,0,1,1,15.672,3.221l-4.831,23.509A8,8,0,0,1,210.636,154.144Z" style="fill:#c75b93"/><circle cx="174.979" cy="122.894" r="16" style="fill:#f388a2"/><circle cx="150.943" cy="158.38" r="16" style="fill:#f388a2"/><circle cx="159.039" cy="200.469" r="16" style="fill:#f388a2"/><circle cx="194.525" cy="224.506" r="16" style="fill:#f388a2"/><circle cx="236.614" cy="216.409" r="16" style="fill:#f388a2"/><circle cx="260.651" cy="180.923" r="16" style="fill:#f388a2"/><path d="M225.844,164.445a8,8,0,0,1-4.41-14.68l20.039-13.208a8,8,0,1,1,8.8,13.36l-20.039,13.207A7.957,7.957,0,0,1,225.844,164.445Z" style="fill:#c75b93"/><circle cx="252.554" cy="138.834" r="16" style="fill:#f388a2"/><circle cx="217.068" cy="114.798" r="16" style="fill:#f388a2"/><circle cx="205.797" cy="169.652" r="24" style="fill:#f388a2"/><path d="M263.871,165.25A15.982,15.982,0,0,0,248.7,170.3l-10.936-2.248a31.6,31.6,0,0,0-1.688-8.778l9.322-6.144a16,16,0,1,0-8.806-13.359l-9.327,6.148a31.817,31.817,0,0,0-7.4-4.993l2.252-10.96a16,16,0,1,0-15.672-3.221l-2.252,10.961a31.825,31.825,0,0,0-8.77,1.669l-6.148-9.327a16,16,0,1,0-13.359,8.805l6.144,9.322a31.562,31.562,0,0,0-5.013,7.4l-10.937-2.247A16,16,0,1,0,162.891,169l10.936,2.248a31.56,31.56,0,0,0,1.689,8.778l-9.322,6.144A16,16,0,1,0,175,199.531l9.322-6.144a31.623,31.623,0,0,0,7.4,5.014l-2.247,10.935a16,16,0,1,0,15.671,3.221l2.25-10.951a31.585,31.585,0,0,0,8.766-1.688l6.154,9.336a16,16,0,1,0,13.36-8.8l-6.145-9.322a31.562,31.562,0,0,0,5.013-7.4l10.937,2.248a15.995,15.995,0,1,0,18.389-20.724Zm-61.295,20.074a15.892,15.892,0,0,1-10.138-6.867h0a16,16,0,1,1,10.138,6.868Z"/><path d="M322.673,194.245a119.912,119.912,0,1,0-51.507,76.042A119.212,119.212,0,0,0,322.673,194.245Zm-60.312,62.683A104,104,0,1,1,307,191.025,104.119,104.119,0,0,1,262.361,256.928Z"/><path d="M354.732,200.833A152.729,152.729,0,0,0,121.08,42.569C50.764,88.914,31.262,183.825,77.606,254.141A151.733,151.733,0,0,0,174.388,319.7a154.19,154.19,0,0,0,31.052,3.175A151,151,0,0,0,268.1,309.248l26.969,40.919-.463.305a8,8,0,0,0-2.2,11.2l18.105,26.464,61.608,93.474A31.788,31.788,0,0,0,392.4,495.342a32.251,32.251,0,0,0,6.506.665,32.008,32.008,0,0,0,26.655-49.619L346.312,326.153a8.666,8.666,0,0,0-11.148-2.378l-26.979-40.933A151.592,151.592,0,0,0,354.732,200.833Zm-263.766,44.5c-41.489-62.95-24.03-147.918,38.919-189.407A136.729,136.729,0,1,1,280.372,284.255C217.424,325.745,132.455,308.287,90.966,245.336ZM310.637,359.248l26.372-17.381,9.035,13.207-26.6,17.534Zm103.874,107.97a16,16,0,0,1-29.032,5.585l-57.232-86.836,26.718-17.611L412.2,455.192A15.9,15.9,0,0,1,414.511,467.218ZM321.79,332.557l-13.36,8.805-26.059-39.537c2.293-1.348,4.568-2.736,6.806-4.211s4.423-3,6.565-4.577Z"/></g></svg>