<?xml version="1.0" ?><svg viewBox="0 0 512 512" xmlns="http://www.w3.org/2000/svg"><g data-name="filled outline" id="filled_outline"><path d="M362.25,262.813A83.286,83.286,0,0,1,344,210.785V152a88,88,0,0,0-88-88h0a88,88,0,0,0-88,88v58.785a83.286,83.286,0,0,1-18.25,52.028A62.744,62.744,0,0,0,136,302.01h0a62.747,62.747,0,0,0,18.378,44.368l3.244,3.244A62.747,62.747,0,0,0,201.99,368H310.01a62.747,62.747,0,0,0,44.368-18.378l3.244-3.244A62.747,62.747,0,0,0,376,302.01h0A62.744,62.744,0,0,0,362.25,262.813Z" style="fill:#5b3726"/><path d="M341.761,328H170.239A42.239,42.239,0,0,0,128,370.239V464H384V370.239A42.239,42.239,0,0,0,341.761,328Z" style="fill:#d970a2"/><path d="M232,272v23.015a32,32,0,0,1-24.239,31.045L200,328h0c23.073,46.147,88.927,46.147,112,0h0l-7.761-1.94A32,32,0,0,1,280,295.015V272Z" style="fill:#e8c8b3"/><path d="M282.11,306.45a64.192,64.192,0,0,1-52.22,0A31.858,31.858,0,0,0,232,295.02V272h48v23.02A31.858,31.858,0,0,0,282.11,306.45Z" style="fill:#e8c8b3"/><rect height="64" style="fill:#e8c8b3" width="64" x="320" y="400"/><path d="M282.11,306.45a64.192,64.192,0,0,1-52.22,0A31.858,31.858,0,0,0,232,295.02V272h48v23.02A31.858,31.858,0,0,0,282.11,306.45Z" style="fill:#c7ac9a"/><rect height="64" style="fill:#e8c8b3" width="64" x="128" y="400"/><path d="M256,296h0a64,64,0,0,1-64-64V160h2.334A86.833,86.833,0,0,0,272,112h0l11.058,18.43a68,68,0,0,0,36.806,29.525L320,160v72A64,64,0,0,1,256,296Z" style="fill:#e8c8b3"/><circle cx="228" cy="180" r="12" style="fill:#5b3726"/><circle cx="284" cy="180" r="12" style="fill:#5b3726"/><path d="M312,168h12a20,20,0,0,1,20,20h0a20,20,0,0,1-20,20H312Z" style="fill:#e8c8b3"/><path d="M200,168H188a20,20,0,0,0-20,20h0a20,20,0,0,0,20,20h12Z" style="fill:#e8c8b3"/><path d="M220.808,224a8,8,0,0,1-6.868-3.885l-28.8-48a8,8,0,0,1,13.72-8.232l28.8,48A8,8,0,0,1,220.808,224Z" style="fill:#eaeae8"/><path d="M292.248,222.242a8,8,0,0,1-6.852-12.117l27.744-46.241a8,8,0,0,1,13.72,8.232l-27.745,46.241A8,8,0,0,1,292.248,222.242Z" style="fill:#eaeae8"/><path d="M320,262.222h0a71.113,71.113,0,0,1-56.889,28.445H248.889A71.113,71.113,0,0,1,192,262.222h0V233.778h0a71.113,71.113,0,0,1,56.889-28.445h14.222A71.113,71.113,0,0,1,320,233.778h0Z" style="fill:#85bc94"/><path d="M288,248H224a8,8,0,0,1,0-16h64a8,8,0,0,1,0,16Z" style="fill:#5e8569"/><path d="M288,272H224a8,8,0,0,1,0-16h64a8,8,0,0,1,0,16Z" style="fill:#5e8569"/><rect height="16" style="fill:#c7ac9a" width="48" x="128" y="400"/><rect height="16" style="fill:#c7ac9a" width="48" x="336" y="400"/><path d="M335.87,398.961,324.649,384h-137.3L176.13,398.961a40.651,40.651,0,0,0-6.044,37.244l9.265,27.8h153.3l9.265-27.8A40.651,40.651,0,0,0,335.87,398.961Z" style="fill:#d970a2"/><path d="M224,248h64a8,8,0,0,0,0-16H224a8,8,0,0,0,0,16Z"/><path d="M224,272h64a8,8,0,0,0,0-16H224a8,8,0,0,0,0,16Z"/><circle cx="228" cy="180" r="12"/><circle cx="284" cy="180" r="12"/><path d="M128,472H384a8,8,0,0,0,8-8V370.239A50.085,50.085,0,0,0,376.4,333.9a70.713,70.713,0,0,0-7.9-76.084,75.554,75.554,0,0,1-16.5-47.03V152a96,96,0,0,0-192,0v58.785a75.554,75.554,0,0,1-16.5,47.03,70.728,70.728,0,0,0-7.9,76.087A50.085,50.085,0,0,0,120,370.239V464A8,8,0,0,0,128,472Zm8-16V408h26.506a48.9,48.9,0,0,0-.009,30.735L168.252,456Zm49.117,0-7.441-22.325a32.812,32.812,0,0,1,4.067-28.818,8,8,0,0,0,1.392-5.037l-.021-.324a8,8,0,0,0-7.984-7.5H136V370.239A34.278,34.278,0,0,1,170.239,336h25.013a70.618,70.618,0,0,0,121.5,0h25.013A34.278,34.278,0,0,1,376,370.239V392H336.624a8,8,0,0,0-6.548,12.6,32.774,32.774,0,0,1,4.248,29.079L326.883,456ZM184,199.314a12,12,0,0,1,0-22.628Zm144,0V176.686a12,12,0,0,1,0,22.628Zm-16,14.971a79.742,79.742,0,0,0-7.365-5.127L312,196.883Zm0-48.5-21.82,36.367a78.827,78.827,0,0,0-27.069-4.818H248.889a78.827,78.827,0,0,0-27.069,4.818l-20.641-34.4a94.128,94.128,0,0,0,70.844-40.161l4.175,6.957a76.056,76.056,0,0,0,35.8,31Zm-112,31.1,7.365,12.275A79.742,79.742,0,0,0,200,214.285Zm0,39.652a63.44,63.44,0,0,1,48.889-23.2h14.222A63.44,63.44,0,0,1,312,236.535v22.93a63.44,63.44,0,0,1-48.889,23.2H248.889A63.44,63.44,0,0,1,200,259.465Zm39.877,61.606a78.076,78.076,0,0,0,9.012.526h14.222a78.076,78.076,0,0,0,9.012-.526,39.932,39.932,0,0,0,27.432,34.89,54.745,54.745,0,0,1-87.11,0A39.932,39.932,0,0,0,239.877,298.141ZM376,456H343.748l5.755-17.265A48.819,48.819,0,0,0,349.5,408H376ZM356,267.811a54.711,54.711,0,0,1,7.044,56.935A49.936,49.936,0,0,0,341.761,320H312.985l-6.806-1.7A23.965,23.965,0,0,1,288,295.015c0-.134-.014-.265-.02-.4a79.429,79.429,0,0,0,38.42-27.6,8,8,0,0,0,1.6-4.8V215.71a27.8,27.8,0,0,0,8.053-2.441A91.635,91.635,0,0,0,356,267.811ZM256,72a80.091,80.091,0,0,1,80,80v10.707a27.786,27.786,0,0,0-8-2.417V160a8,8,0,0,0-5.47-7.589l-.136-.046a60.034,60.034,0,0,1-32.476-26.052L278.86,107.884a8,8,0,0,0-14.015.538A78.4,78.4,0,0,1,194.334,152H192a8,8,0,0,0-8,8v.29a27.786,27.786,0,0,0-8,2.417V152A80.091,80.091,0,0,1,256,72ZM144,302.01a54.935,54.935,0,0,1,12-34.2,91.635,91.635,0,0,0,19.95-54.542A27.8,27.8,0,0,0,184,215.71v46.512a8,8,0,0,0,1.6,4.8,79.429,79.429,0,0,0,38.42,27.6c-.006.132-.02.263-.02.4A23.965,23.965,0,0,1,205.821,318.3l-6.806,1.7H170.239a49.923,49.923,0,0,0-21.293,4.75A54.647,54.647,0,0,1,144,302.01Z"/></g></svg>