<?xml version="1.0" ?><svg viewBox="0 0 512 512" xmlns="http://www.w3.org/2000/svg"><g data-name="filled outline" id="filled_outline"><polygon points="400.905 256 352.905 256 352.905 120 344.905 104 344.905 88 408.905 88 408.905 104 400.905 120 400.905 256" style="fill:#e4e4e2"/><rect height="96" style="fill:#029532" width="48" x="352.905" y="160"/><path d="M416,296h0a16,16,0,0,0-16-16H352a16,16,0,0,0-16,16h0a16,16,0,0,0,16,16v16l-10.142,10.142A20,20,0,0,0,336,352.284V376l8,40-8,40v19a13,13,0,0,0,13,13h54a13,13,0,0,0,13-13V456l-8-40,8-40V352.284a20,20,0,0,0-5.858-14.142L400,328V312A16,16,0,0,0,416,296Z" style="fill:#744630"/><rect height="10.547" style="fill:#5b3726" width="47.095" x="352.905" y="311.598"/><path d="M320,256.1l-28.057-28.845a104,104,0,1,0,0,57.69Z" style="fill:#fbb540"/><path d="M192.8,240a8,8,0,0,1-8-8V208a8,8,0,0,1,16,0v24A8,8,0,0,1,192.8,240Z" style="fill:#c75b93"/><path d="M175.83,247.029a7.97,7.97,0,0,1-5.657-2.343L153.2,227.716A8,8,0,1,1,164.516,216.4l16.97,16.971a8,8,0,0,1-5.656,13.656Z" style="fill:#c75b93"/><path d="M168.8,264h-24a8,8,0,0,1,0-16h24a8,8,0,0,1,0,16Z" style="fill:#c75b93"/><path d="M158.859,297.941a8,8,0,0,1-5.657-13.657l16.971-16.97a8,8,0,0,1,11.313,11.313L164.516,295.6A7.976,7.976,0,0,1,158.859,297.941Z" style="fill:#c75b93"/><path d="M192.8,312a8,8,0,0,1-8-8V280a8,8,0,0,1,16,0v24A8,8,0,0,1,192.8,312Z" style="fill:#c75b93"/><path d="M226.741,297.941a7.976,7.976,0,0,1-5.657-2.343l-16.97-16.971a8,8,0,0,1,11.313-11.313l16.971,16.97a8,8,0,0,1-5.657,13.657Z" style="fill:#c75b93"/><path d="M240.8,264h-24a8,8,0,0,1,0-16h24a8,8,0,0,1,0,16Z" style="fill:#c75b93"/><path d="M209.771,247.029a8,8,0,0,1-5.657-13.656l16.97-16.971A8,8,0,0,1,232.4,227.716l-16.971,16.97A7.975,7.975,0,0,1,209.771,247.029Z" style="fill:#c75b93"/><circle cx="192.8" cy="256" r="24" style="fill:#e46ca5"/><circle cx="192.8" cy="200" r="16" style="fill:#e46ca5"/><circle cx="153.202" cy="216.402" r="16" style="fill:#e46ca5"/><circle cx="136.8" cy="256" r="16" style="fill:#e46ca5"/><circle cx="153.202" cy="295.598" r="16" style="fill:#e46ca5"/><circle cx="192.8" cy="312" r="16" style="fill:#e46ca5"/><circle cx="232.398" cy="295.598" r="16" style="fill:#e46ca5"/><circle cx="248.8" cy="256" r="16" style="fill:#e46ca5"/><circle cx="232.398" cy="216.402" r="16" style="fill:#e46ca5"/><path d="M344,24h64a0,0,0,0,1,0,0V48a8,8,0,0,1-8,8H352a8,8,0,0,1-8-8V24A0,0,0,0,1,344,24Z" style="fill:#cbcbcb"/><path d="M384.9,56v80a8,8,0,0,1-16,0V56a8,8,0,0,1,16,0Z" style="fill:#cbcbcb"/><rect height="16" style="fill:#027226" width="24" x="352.905" y="184"/><rect height="16" style="fill:#027226" width="24" x="352.905" y="216"/><path d="M384.9,280v96a8,8,0,0,1-16,0V280a8,8,0,0,1,16,0Z" style="fill:#a8a8a8"/><path d="M325.735,250.524l-26.688-27.437a112.88,112.88,0,0,0-39.123-56.042A110.977,110.977,0,0,0,192,144.1a112,112,0,0,0,0,224,110.977,110.977,0,0,0,67.924-22.943,112.88,112.88,0,0,0,39.123-56.042l26.688-27.437A8,8,0,0,0,325.735,250.524ZM96,256.1a95.574,95.574,0,0,1,22.838-62.081L257.912,325.776A95.907,95.907,0,0,1,96,256.1Zm190.208,23.267a8.008,8.008,0,0,0-1.952,3.363,95,95,0,0,1-15.636,31.147L130.176,182.723a95.954,95.954,0,0,1,154.08,46.749,8.008,8.008,0,0,0,1.952,3.363L308.84,256.1Z" style="fill:#c7463b"/><rect height="80" style="fill:#e4e4e2" width="80" x="336" y="376"/><polygon points="392 408 384 408 384 400 368 400 368 408 360 408 360 424 368 424 368 432 384 432 384 424 392 424 392 408" style="fill:#029532"/><path d="M360.9,256h32a0,0,0,0,1,0,0v16a8,8,0,0,1-8,8h-16a8,8,0,0,1-8-8V256A0,0,0,0,1,360.9,256Z" style="fill:#8ed2ff"/><rect height="24" style="fill:#fbb540" width="48" x="352.905" y="136"/><rect height="8" style="fill:#ea9d2d" width="48" x="352.905" y="152"/><rect height="16" style="fill:#a8a8a8" width="16" x="368.9" y="56"/><rect height="16" style="fill:#878787" width="16" x="368.9" y="280"/><polygon points="368 400 368 408 360 408 360 424 368 424 368 432 384 432 384 424 392 424 392 408 384 408 384 400 368 400"/><path d="M336.2,332.485a27.82,27.82,0,0,0-8.2,19.8V475a21.023,21.023,0,0,0,21,21h54a21.023,21.023,0,0,0,21-21V352.284a27.82,27.82,0,0,0-8.2-19.8l-7.8-7.8v-6.062a23.994,23.994,0,0,0-7.1-46.6V264a8,8,0,0,0,8-8V121.889l7.155-14.311a7.994,7.994,0,0,0,.845-3.578V88a8,8,0,0,0-8-8h-24V64H400a16.019,16.019,0,0,0,16-16V24a8,8,0,0,0-8-8H344a8,8,0,0,0-8,8V48a16.019,16.019,0,0,0,16,16h16.9V80h-24a8,8,0,0,0-8,8v16a7.994,7.994,0,0,0,.845,3.578l7.155,14.311V256a8,8,0,0,0,8,8v8H352a24,24,0,0,0-8,46.624v6.062ZM352,32h48l.007,16H352Zm-4.485,311.8,10.142-10.142A8,8,0,0,0,360,328v-8h8.9v48H344V352.284A11.919,11.919,0,0,1,347.515,343.8Zm46.828-10.142L404.485,343.8A11.919,11.919,0,0,1,408,352.284V368h-23.1V320H392v8A8,8,0,0,0,394.343,333.657ZM408,448H344V384h64Zm-5,32H349a5.006,5.006,0,0,1-5-5V464h64v11A5.006,5.006,0,0,1,403,480Zm5-184a8.009,8.009,0,0,1-8,8h-15.1V288H400A8.009,8.009,0,0,1,408,296Zm-47.1-64h16V216h-16V200h16V184h-16V168h32v80h-32Zm0-88h32v8h-32Zm40-48v6.111l-7.155,14.311a7.994,7.994,0,0,0-.845,3.578v8h-8V96Zm-48,0h16v32h-8v-8a7.994,7.994,0,0,0-.845-3.578l-7.155-14.311Zm16,168H384.91l0,8h-16.01ZM352,288h16.9v16H352a8,8,0,0,1,0-16Z"/><path d="M192,368a110.977,110.977,0,0,0,67.924-22.943,112.88,112.88,0,0,0,39.123-56.042l26.688-27.437a8,8,0,0,0,0-11.156l-26.688-27.437a112.88,112.88,0,0,0-39.123-56.042A110.977,110.977,0,0,0,192,144a112,112,0,0,0,0,224Zm92.256-138.63a8.008,8.008,0,0,0,1.952,3.363L308.84,256l-22.632,23.267a8.008,8.008,0,0,0-1.952,3.363,94.982,94.982,0,0,1-15.637,31.147l-20.27-19.2a15.956,15.956,0,0,0-15.8-14.969l-10.722-10.158a31.749,31.749,0,0,0,1.96-5.447h11.171a16,16,0,1,0,0-16H223.787a31.779,31.779,0,0,0-3.432-8.242l7.912-7.911a16,16,0,1,0-11.314-11.314l-7.911,7.911a31.811,31.811,0,0,0-8.242-3.431V213.842a16,16,0,1,0-16,0v11.171a31.766,31.766,0,0,0-7,2.729l-8.877-8.41a15.977,15.977,0,0,0-19.49-18.464l-19.261-18.247a95.954,95.954,0,0,1,154.08,46.749ZM192.8,272a15.983,15.983,0,0,1-14.808-22.04l21.63,20.491A15.873,15.873,0,0,1,192.8,272Zm16-16c0,.356-.031.7-.054,1.055l-17.869-16.928A15.915,15.915,0,0,1,208.8,256Zm-89.962-62.081,19,18a15.987,15.987,0,0,0,19.491,19.924l7.911,7.911A31.834,31.834,0,0,0,161.812,248h-11.17a16,16,0,1,0,0,16h11.17a31.834,31.834,0,0,0,3.432,8.242l-7.911,7.911a16,16,0,1,0,11.314,11.314l7.911-7.911a31.8,31.8,0,0,0,8.242,3.431v11.171a16,16,0,1,0,16,0V286.987a31.811,31.811,0,0,0,8.242-3.431l7.911,7.911A15.977,15.977,0,0,0,240.629,309.3l17.283,16.374A95.927,95.927,0,0,1,118.838,193.919Z"/></g></svg>