<?xml version="1.0" ?><svg viewBox="0 0 512 512" xmlns="http://www.w3.org/2000/svg"><g data-name="filled outline" id="filled_outline"><path d="M312,168H152l-7.6,11.4a50,50,0,0,0-8.4,27.735V464a24,24,0,0,0,24,24H304a24,24,0,0,0,24-24V207.139a50,50,0,0,0-8.4-27.735Z" style="fill:#029532"/><circle cx="232" cy="312" r="64" style="fill:#e4e4e2"/><path d="M344,424v40a24,24,0,0,1-24,24h0a24,24,0,0,1-24-24V424Z" style="fill:#007af6"/><rect height="112" rx="24" style="fill:#e4e4e2" transform="translate(-200 728) rotate(-90)" width="48" x="240" y="408"/><path d="M264,488V440h32a24,24,0,0,1,24,24h0a24,24,0,0,1-24,24Z" style="fill:#f55648"/><path d="M384,488a40,40,0,0,1,0-80h24v80Z" style="fill:#d26398"/><circle cx="408" cy="448" r="40" style="fill:#e46ca5"/><path d="M441.37,470.06a40.074,40.074,0,0,1-11.31,11.31l-55.43-55.43a40.074,40.074,0,0,1,11.31-11.31Z" style="fill:#d26398"/><rect height="64" style="fill:#e4e4e2" width="192" x="136" y="104"/><rect height="64" style="fill:#cbcbcb" width="16" x="224" y="104"/><rect height="64" style="fill:#cbcbcb" width="16" x="192" y="104"/><rect height="64" style="fill:#cbcbcb" width="16" x="160" y="104"/><rect height="64" style="fill:#cbcbcb" width="16" x="256" y="104"/><rect height="64" style="fill:#cbcbcb" width="16" x="288" y="104"/><polygon points="264 296 248 296 248 280 216 280 216 296 200 296 200 328 216 328 216 344 248 344 248 328 264 328 264 296" style="fill:#027e2a"/><path d="M176,208H144a8,8,0,0,1,0-16h32a8,8,0,0,1,0,16Z" style="fill:#02a437"/><path d="M224,208H208a8,8,0,0,1,0-16h16a8,8,0,0,1,0,16Z" style="fill:#02a437"/><rect height="16" style="fill:#027e2a" width="16" x="200" y="400"/><rect height="16" style="fill:#027e2a" width="40" x="232" y="400"/><rect height="16" style="fill:#0094f6" width="16" x="72" y="88"/><rect height="16" style="fill:#8ed2ff" width="16" x="96" y="64"/><rect height="16" style="fill:#8ed2ff" width="16" x="96" y="112"/><rect height="16" style="fill:#8ed2ff" width="16" x="368" y="328"/><rect height="16" style="fill:#8ed2ff" width="16" x="416" y="328"/><rect height="16" style="fill:#8ed2ff" width="16" x="392" y="304"/><rect height="16" style="fill:#0094f6" width="16" x="392" y="352"/><rect height="16" style="fill:#0094f6" width="16" x="288" y="48"/><rect height="16" style="fill:#8ed2ff" width="16" x="272" y="32"/><rect height="16" style="fill:#8ed2ff" width="16" x="288" y="16"/><rect height="16" style="fill:#0094f6" width="16" x="304" y="32"/><path d="M344,432H296V400a24,24,0,0,1,24-24h0a24,24,0,0,1,24,24Z" style="fill:#e4e4e2"/><path d="M416,400H384a47.806,47.806,0,0,0-32,12.261V400a32.012,32.012,0,0,0-16-27.695V207.139A57.8,57.8,0,0,0,326.921,176H328a8,8,0,0,0,8-8V104a8,8,0,0,0-8-8H136a8,8,0,0,0-8,8v64a8,8,0,0,0,8,8h1.078A57.81,57.81,0,0,0,128,207.139V464a32.036,32.036,0,0,0,32,32H304a32.007,32.007,0,0,0,8-1.011,32.007,32.007,0,0,0,35.921-15.382A47.887,47.887,0,0,0,384,496h32a48,48,0,0,0,0-96Zm32,48a31.8,31.8,0,0,1-4.444,16.242l-43.8-43.8A31.979,31.979,0,0,1,448,448Zm-32,32a31.979,31.979,0,0,1-27.556-48.242l43.8,43.8A31.8,31.8,0,0,1,416,480Zm-80-80v24H304V400a16,16,0,0,1,32,0ZM320,160H304V112h16Zm-48,0V112h16v48Zm-32,0V112h16v48Zm-32,0V112h16v48Zm-32,0V112h16v48Zm-32-48h16v48H144Zm0,352V208h32a8,8,0,0,0,0-16H146.819a42.042,42.042,0,0,1,4.235-8.159L156.281,176H307.719l5.227,7.841a41.868,41.868,0,0,1,7.054,23.3V368a32.036,32.036,0,0,0-32,32v32H232a31.976,31.976,0,0,0-27.695,48H160A16.019,16.019,0,0,1,144,464Zm72,0a16.019,16.019,0,0,1,16-16h24v32H232A16.019,16.019,0,0,1,216,464Zm56,16V448h24a16,16,0,0,1,0,32Zm64-16a16.014,16.014,0,0,1-12,15.474A31.928,31.928,0,0,0,317.132,440H336Zm16-16a32.041,32.041,0,0,1,28.042-31.746,47.867,47.867,0,0,0,0,63.492A32.041,32.041,0,0,1,352,448Z"/><path d="M256,344v-8h8a8,8,0,0,0,8-8V296a8,8,0,0,0-8-8h-8v-8a8,8,0,0,0-8-8H216a8,8,0,0,0-8,8v8h-8a8,8,0,0,0-8,8v32a8,8,0,0,0,8,8h8v8a8,8,0,0,0,8,8h32A8,8,0,0,0,256,344Zm-16-16v8H224v-8a8,8,0,0,0-8-8h-8V304h8a8,8,0,0,0,8-8v-8h16v8a8,8,0,0,0,8,8h8v16h-8A8,8,0,0,0,240,328Z"/><path d="M304,312a72,72,0,1,0-72,72A72.081,72.081,0,0,0,304,312Zm-128,0a56,56,0,1,1,56,56A56.063,56.063,0,0,1,176,312Z"/><path d="M208,208h16a8,8,0,0,0,0-16H208a8,8,0,0,0,0,16Z"/><rect height="16" width="16" x="200" y="400"/><rect height="16" width="40" x="232" y="400"/><rect height="16" width="16" x="72" y="88"/><rect height="16" width="16" x="96" y="64"/><rect height="16" width="16" x="96" y="112"/><rect height="16" width="16" x="368" y="328"/><rect height="16" width="16" x="416" y="328"/><rect height="16" width="16" x="392" y="304"/><rect height="16" width="16" x="392" y="352"/><rect height="16" width="16" x="288" y="48"/><rect height="16" width="16" x="272" y="32"/><rect height="16" width="16" x="288" y="16"/><rect height="16" width="16" x="304" y="32"/></g></svg>