<?xml version="1.0" ?><svg viewBox="0 0 512 512" xmlns="http://www.w3.org/2000/svg"><g data-name="filled outline" id="filled_outline"><path d="M462,136H322a10,10,0,0,0-10,10V254a10,10,0,0,0,10,10h88v32l46-32h6a10,10,0,0,0,10-10V146A10,10,0,0,0,462,136Z" style="fill:#ea9d2d"/><path d="M285.761,336H82.239A42.239,42.239,0,0,0,40,378.239V472H328V378.239A42.239,42.239,0,0,0,285.761,336Z" style="fill:#029532"/><polygon points="152 280 144 328 128 336 184 384 240 336 224 328 216 280 152 280" style="fill:#f5d3bd"/><path d="M272,192V160a88,88,0,0,0-88-88h0a88,88,0,0,0-88,88v32" style="fill:#6e3f0d"/><rect height="48" style="fill:#f5d3bd" width="56" x="272" y="424"/><path d="M184,304h0a64,64,0,0,1-64-64V168h0a66.6,66.6,0,0,0,63.179-45.537L184,120l36.686,36.686A38.628,38.628,0,0,0,248,168h0v72A64,64,0,0,1,184,304Z" style="fill:#f5d3bd"/><circle cx="156" cy="188" r="12" style="fill:#6e3f0d"/><circle cx="212" cy="188" r="12" style="fill:#6e3f0d"/><path d="M268,176h4a0,0,0,0,1,0,0v40a0,0,0,0,1,0,0h-4a20,20,0,0,1-20-20v0A20,20,0,0,1,268,176Z" style="fill:#f5d3bd" transform="translate(520 392) rotate(180)"/><path d="M116,176h4a0,0,0,0,1,0,0v40a0,0,0,0,1,0,0h-4a20,20,0,0,1-20-20v0A20,20,0,0,1,116,176Z" style="fill:#f5d3bd"/><rect height="48" style="fill:#f5d3bd" width="56" x="40" y="424"/><path d="M157.629,237.629a7.976,7.976,0,0,1-5.657-2.343l-37.629-37.629a8,8,0,0,1,11.314-11.314l37.629,37.629a8,8,0,0,1-5.657,13.657Z" style="fill:#fbb540"/><path d="M208,240a8,8,0,0,1-5.657-13.657l40-40a8,8,0,0,1,11.314,11.314l-40,40A7.976,7.976,0,0,1,208,240Z" style="fill:#fbb540"/><path d="M200,408h72a0,0,0,0,1,0,0v28a36,36,0,0,1-36,36h0a36,36,0,0,1-36-36V408A0,0,0,0,1,200,408Z" style="fill:#027226"/><rect height="32" style="fill:#027226" width="56" x="40" y="392"/><rect height="32" style="fill:#027226" width="56" x="272" y="392"/><path d="M162,48h44a74,74,0,0,1,74,74v22a0,0,0,0,1,0,0H88a0,0,0,0,1,0,0V122A74,74,0,0,1,162,48Z" style="fill:#029532"/><path d="M128,408a8,8,0,0,1-8-8V336a8,8,0,0,1,16,0v64A8,8,0,0,1,128,408Z" style="fill:#cbcbcb"/><circle cx="128" cy="424" r="24" style="fill:#e4e4e2"/><circle cx="128" cy="424" r="8" style="fill:#cbcbcb"/><path d="M248,270.222l-.142.225A72,72,0,0,1,186.983,304h-5.966a72,72,0,0,1-60.875-33.553l-.142-.225V241.778h0a71.113,71.113,0,0,1,56.889-28.445h14.222A71.113,71.113,0,0,1,248,241.778h0Z" style="fill:#aae5c8"/><path d="M215.994,256a7.976,7.976,0,0,1-3.572-.847,63.86,63.86,0,0,0-56.844,0,8,8,0,0,1-7.156-14.31,79.935,79.935,0,0,1,71.156,0A8,8,0,0,1,215.994,256Z" style="fill:#8dc79d"/><path d="M184,287.51a79.588,79.588,0,0,1-35.578-8.355,8,8,0,1,1,7.156-14.31,63.86,63.86,0,0,0,56.844,0,8,8,0,1,1,7.156,14.31A79.588,79.588,0,0,1,184,287.51Z" style="fill:#8dc79d"/><path d="M272,120H152a8,8,0,0,1,0-16H272a8,8,0,0,1,0,16Z" style="fill:#027226"/><polygon points="448 232 440 232 440 224 424 224 424 232 416 232 416 248 424 248 424 256 440 256 440 248 448 248 448 232" style="fill:#029532"/><path d="M120,120H96a8,8,0,0,1,0-16h24a8,8,0,0,1,0,16Z" style="fill:#027226"/><rect height="16" style="fill:#c38325" width="32" x="336" y="160"/><rect height="16" style="fill:#c38325" width="64" x="384" y="160"/><rect height="16" style="fill:#c38325" width="72" x="336" y="192"/><rect height="24.001" style="fill:#c38325" transform="translate(232.436 634.2) rotate(-89.517)" width="16" x="428" y="187.899"/><rect height="16" style="fill:#c38325" width="40" x="336" y="224"/><path d="M126.112,328H82.239A50.3,50.3,0,0,0,32,378.239V472a8,8,0,0,0,8,8H328a8,8,0,0,0,8-8V378.239A50.3,50.3,0,0,0,285.761,328H241.888l-10.666-5.333-3.615-21.686a79.961,79.961,0,0,0,27.016-26.263l.142-.225A8,8,0,0,0,256,270.222V241.778A6.058,6.058,0,0,1,256,240V223.71A28.04,28.04,0,0,0,280,196c0-.885-.046-1.758-.127-2.622A8.025,8.025,0,0,0,280,192V160c0-2.67-.125-5.341-.345-8H280a8,8,0,0,0,8-8V122a82.093,82.093,0,0,0-82-82H162a82.093,82.093,0,0,0-82,82v22a8,8,0,0,0,8,8h.314c-.444,4.347-.7,8.581-.7,11.831,0,.037,0,.073,0,.11L88,192.11a8.042,8.042,0,0,0,.126,1.261c-.081.866-.127,1.742-.127,2.629a28.04,28.04,0,0,0,24,27.71V240a6.058,6.058,0,0,1,0,1.778v28.444a8,8,0,0,0,1.235,4.271l.143.226a79.936,79.936,0,0,0,27.015,26.262l-3.615,21.686ZM128,408a16,16,0,1,1-16,16A16.019,16.019,0,0,1,128,408ZM82.239,344H120v49.013a32.037,32.037,0,0,0-16,9.855V392a8,8,0,0,0-8-8H48v-5.761A34.278,34.278,0,0,1,82.239,344ZM48,400H88v16H48Zm0,64V432H88v32Zm160-28V416h56v20a28,28,0,0,1-56,0Zm112-20H280V400h40Zm0,48H280V432h40ZM242.96,344h42.8A34.278,34.278,0,0,1,320,378.239V384H272a8,8,0,0,0-8,8v8H200a8,8,0,0,0-8,8v28a43.8,43.8,0,0,0,10.084,28H104V445.132a31.991,31.991,0,1,0,32-52.119V353.394l42.793,36.68a8,8,0,0,0,10.414,0ZM128,216v-4.687l6.433,6.434q-3.321,2.109-6.433,4.538Zm21.562-5.751L128,188.687V175.574A74.35,74.35,0,0,0,174.814,152h29.873l10.343,10.343A46.281,46.281,0,0,0,240,175.321v13.366l-21.562,21.562a78.848,78.848,0,0,0-27.327-4.916H176.889A78.848,78.848,0,0,0,149.562,210.249ZM240,211.313v10.972q-3.1-2.433-6.433-4.538Zm16-4V184.686a12,12,0,0,1,0,22.628ZM264,160v10.707a27.786,27.786,0,0,0-8-2.417V168a8,8,0,0,0-8-8,30.406,30.406,0,0,1-20.638-8h36.23C263.855,154.654,264,157.327,264,160ZM162,56h44a66.1,66.1,0,0,1,63.484,48H152a8,8,0,0,0,0,16H271.949c.02.666.051,1.329.051,2v14H96V122c0-.671.031-1.334.051-2H120a8,8,0,0,0,0-16H98.516A66.1,66.1,0,0,1,162,56Zm-12.452,96A58.469,58.469,0,0,1,120,160a8,8,0,0,0-8,8v.29a27.782,27.782,0,0,0-8.289,2.558l-.1-7.07A114.4,114.4,0,0,1,104.406,152ZM104,196a12.02,12.02,0,0,1,8-11.314v22.628A12.02,12.02,0,0,1,104,196Zm24,71.851V244.535a63.44,63.44,0,0,1,48.889-23.2h14.222A63.44,63.44,0,0,1,240,244.535V267.85A63.654,63.654,0,0,1,186.982,296h-5.964A63.651,63.651,0,0,1,128,267.851ZM181.018,312h5.964a80.378,80.378,0,0,0,25.55-4.15l3.577,21.465a8,8,0,0,0,4.313,5.84l5.224,2.612L184,373.463l-41.646-35.7,5.224-2.612a8,8,0,0,0,4.313-5.84l3.578-21.465A80.367,80.367,0,0,0,181.018,312Z"/><path d="M155.578,255.155a63.86,63.86,0,0,1,56.844,0,8,8,0,0,0,7.156-14.31,79.935,79.935,0,0,0-71.156,0,8,8,0,0,0,7.156,14.31Z"/><path d="M219.578,279.155a8,8,0,1,0-7.156-14.31,63.86,63.86,0,0,1-56.844,0,8,8,0,1,0-7.156,14.31,79.928,79.928,0,0,0,71.156,0Z"/><polygon points="440 224 424 224 424 232 416 232 416 248 424 248 424 256 440 256 440 248 448 248 448 232 440 232 440 224"/><rect height="16" width="32" x="336" y="160"/><rect height="16" width="64" x="384" y="160"/><rect height="16" width="72" x="336" y="192"/><rect height="24.001" transform="translate(232.436 634.2) rotate(-89.517)" width="16" x="428" y="187.899"/><rect height="16" width="40" x="336" y="224"/><path d="M480,146a18.021,18.021,0,0,0-18-18H322a18.021,18.021,0,0,0-18,18V254a18.021,18.021,0,0,0,18,18h80v24a8,8,0,0,0,12.568,6.567L458.509,272H462a18.021,18.021,0,0,0,18-18ZM464,254a2,2,0,0,1-2,2h-6a8,8,0,0,0-4.568,1.433L418,280.689V264a8,8,0,0,0-8-8H322a2,2,0,0,1-2-2V146a2,2,0,0,1,2-2H462a2,2,0,0,1,2,2Z"/><circle cx="156" cy="188" r="12"/><circle cx="212" cy="188" r="12"/></g></svg>