<?xml version="1.0" ?><svg viewBox="0 0 512 512" xmlns="http://www.w3.org/2000/svg"><g data-name="filled outline" id="filled_outline"><circle cx="256" cy="256" r="232" style="fill:#fbb540"/><path d="M72,112h99.842l42.933-21.466A23.991,23.991,0,0,1,225.508,88h36.4a20,20,0,0,1,10.9,3.232L353.976,144a18.4,18.4,0,0,1,.634,26.631h0a18.4,18.4,0,0,1-22.768,2.593l-56-29.224-40,16h-72v24H40Z" style="fill:#f5d3bd"/><path d="M275.84,144l-40,16h-72V136h48l16,16L264,136C264.62,136,275.84,144,275.84,144Z" style="fill:#f5d3bd"/><path d="M288,480V408a24,24,0,0,0-24-24H241a18,18,0,0,1-14.4-7.2L208,352H192a8,8,0,0,1-8-8V294a22,22,0,0,1,22-22h43a30,30,0,0,0,24-12l21-28a60,60,0,0,1,48-24h74a20,20,0,0,1,15.617,7.506L488,288,448,392l-80,72-80,16" style="fill:#cd9c7a"/><path d="M268.44,342.66a102.942,102.942,0,0,1-54.47,17.3L208,352H192a8,8,0,0,1-8-8h27.16a86.967,86.967,0,0,0,48.4-14.66,8,8,0,1,1,8.88,13.32Z" style="fill:#dbdbdb"/><path d="M224,272v28a12,12,0,0,1-12,12H184V294a22,22,0,0,1,22-22Z" style="fill:#6e3f0d"/><path d="M268.44,342.66a102.942,102.942,0,0,1-54.47,17.3L208,352H192a8,8,0,0,1-8-8h27.16a86.967,86.967,0,0,0,48.4-14.66,8,8,0,1,1,8.88,13.32Z" style="fill:#6e3f0d"/><circle cx="328" cy="272" r="16" style="fill:#6e3f0d"/><path d="M251.842,192h-72l-16-8V144h48l16,16h24a16,16,0,0,1,16,16h0A16,16,0,0,1,251.842,192Z" style="fill:#f5d3bd"/><path d="M425.706,86.294A240,240,0,0,0,86.294,425.706,240,240,0,0,0,425.706,86.294Zm-328.1,328.1a223.977,223.977,0,0,1-5.547-311.017L408.625,419.938a223.976,223.976,0,0,1-311.017-5.546Zm322.33-5.767L103.375,92.061A223.986,223.986,0,0,1,419.938,408.625Z" style="fill:#f55648"/><path d="M256,16A240,240,0,0,0,86.294,425.706,240,240,0,0,0,425.706,86.294,238.432,238.432,0,0,0,256,16Zm23.922,121.1L256.28,121.344a8,8,0,1,0-8.875,13.312l11.346,7.564L231.156,152,217.5,138.343a8,8,0,0,0-5.234-2.332l-18.921-1a8,8,0,0,0-.845,15.978l15.856.838,13.831,13.83A8,8,0,0,0,227.842,168h24a8,8,0,0,1,0,16H195.313l-64-64h40.529a7.994,7.994,0,0,0,3.578-.845l42.932-21.466A16.091,16.091,0,0,1,225.508,96h36.405a11.978,11.978,0,0,1,6.54,1.939L349,150.305a10.4,10.4,0,0,1-12.915,16.134q-.264-.163-.54-.308ZM164.739,176.052a8.118,8.118,0,0,0-.9-.052H46.653a221.985,221.985,0,0,1,31.329-56h30.705ZM91.481,104q.29-.314.58-.625l.626.625Zm6.127,310.392A222.533,222.533,0,0,1,32,256a224.867,224.867,0,0,1,9.24-64H161.954l14.311,7.155c1.11.556,12.422.845,12.422.845l63.722,63.722C251.287,263.9,206,264,206,264a30.034,30.034,0,0,0-30,30v50a16.005,16.005,0,0,0,15.181,15.958A7.906,7.906,0,0,0,192,360h12l16.2,21.6A26.125,26.125,0,0,0,241,392h23a16.019,16.019,0,0,1,16,16v70.723A227.99,227.99,0,0,1,256,480,222.533,222.533,0,0,1,97.608,414.392Zm311.017,5.546A222.083,222.083,0,0,1,296,476.448V408a32.036,32.036,0,0,0-32-32H241a10.046,10.046,0,0,1-8-4l-9.555-12.74a102.9,102.9,0,0,0,44.993-16.6,8,8,0,0,0-8.876-13.312A86.991,86.991,0,0,1,211.156,344H192V320h20a20.023,20.023,0,0,0,20-20V280h17a37.967,37.967,0,0,0,16.077-3.609ZM192,304V294a14.015,14.015,0,0,1,14-14h10v20a4,4,0,0,1-4,4ZM419.938,408.625l-142-142c.5-.592.994-1.2,1.463-1.824l21-28A52.248,52.248,0,0,1,342,216h74a11.943,11.943,0,0,1,9.34,4.465l52.414,67.392a221.554,221.554,0,0,1-27.815,80.389A8,8,0,0,0,448,368H424a40,40,0,0,1-40-40V256a8,8,0,0,0-16,0v72a56,56,0,0,0,56,56h15.887A225.86,225.86,0,0,1,419.938,408.625Zm59.889-144.164-41.895-53.867c-.022-.029-.045-.057-.068-.086A27.864,27.864,0,0,0,416,200H342a68.324,68.324,0,0,0-54.4,27.2l-21,28c-.012.017-.026.032-.038.048L211.313,200h40.529a23.989,23.989,0,0,0,14.083-43.417l9.475-3.79,52.49,27.392a26.4,26.4,0,0,0,31.467-42.1,7.945,7.945,0,0,0-1.02-.788L277.174,84.525A27.936,27.936,0,0,0,261.913,80h-36.4A32.17,32.17,0,0,0,211.2,83.378L169.954,104H115.313L103.375,92.061A223.991,223.991,0,0,1,480,256C480,258.83,479.931,261.648,479.827,264.461Z"/><circle cx="328" cy="272" r="16"/></g></svg>