<?xml version="1.0" ?><svg viewBox="0 0 512 512" xmlns="http://www.w3.org/2000/svg"><g data-name="filled outline" id="filled_outline"><path d="M190.24,301.4,168,277.25l13.84-10.957a16.4,16.4,0,0,0,4.686-19.787h0a16.4,16.4,0,0,0-22.507-7.584L152,245.25v-24L128,224l16-48L120,88H240v69.25l32,32L304,192v21.25l8,56,32.576,18.688L256,360l-57.576-57.576h0A6.385,6.385,0,0,1,190.24,301.4Z" style="fill:#f5d3bd"/><path d="M240,141.25l-40-48h0a70.292,70.292,0,0,1-46.7,52.9l-9.3,3.1-64,8V131.169a78.893,78.893,0,0,1,29.609-61.606l5.344-4.275A78.9,78.9,0,0,1,208,61.25h0l42.422-4.713A69.861,69.861,0,0,1,302.862,72.3h0A69.866,69.866,0,0,1,328,125.972h0a166.382,166.382,0,0,1-17.566,74.409L304,213.25H294l-22-24-32-31Z" style="fill:#6e3f0d"/><path d="M208,197.252a8.015,8.015,0,0,1-2.531-.412l-24-8a8,8,0,0,1-1.908-14.246l24-16a8,8,0,0,1,8.876,13.312l-10.39,6.927,8.482,2.827A8,8,0,0,1,208,197.252Z" style="fill:#6e3f0d"/><path d="M413.241,315.172,376,304l-32-16-88,72-57.576-57.576L160,328l-37.241,11.172C97.38,346.786,80,362.145,80,388.642V456h80s216,0,216-.314V456h80V372.642A60,60,0,0,0,413.241,315.172Z" style="fill:#0094f6"/><rect height="48" style="fill:#f5d3bd" width="80" x="80" y="408"/><rect height="47.686" style="fill:#f5d3bd" width="80" x="376" y="408"/><path d="M61.673,280.177a8,8,0,0,1-.458-15.987l23.959-1.4a8,8,0,1,1,.931,15.973l-23.959,1.4C61.988,280.173,61.83,280.177,61.673,280.177Z" style="fill:#8ed2ff"/><path d="M71.075,311.92a8,8,0,0,1-3.914-14.982l15.983-8.945a8,8,0,0,1,7.814,13.962L74.976,310.9A7.958,7.958,0,0,1,71.075,311.92Z" style="fill:#8ed2ff"/><path d="M84.252,255.057a7.964,7.964,0,0,1-3.151-.651l-16.439-7.054a8,8,0,0,1,6.311-14.7L87.411,239.7a8,8,0,0,1-3.159,15.354Z" style="fill:#8ed2ff"/><rect height="16" style="fill:#fbb540" width="16" x="112" y="264"/><rect height="16" style="fill:#fbb540" width="16" x="136" y="288"/><rect height="16" style="fill:#fbb540" width="16" x="104" y="304"/><path d="M272,165.25h8a24,24,0,0,1,24,24v0a24,24,0,0,1-24,24h-8a0,0,0,0,1,0,0v-48A0,0,0,0,1,272,165.25Z" style="fill:#f5d3bd"/><polygon points="256 232 256 256 198.424 302.424 208 312 268 264 268 232 256 232" style="fill:#e8c8b3"/><rect height="47.686" style="fill:#e8c8b3" width="16" x="144" y="408.157"/><rect height="47.686" style="fill:#e8c8b3" width="16" x="376" y="408"/><path d="M208,197.252a8,8,0,0,0,2.529-15.592l-8.482-2.827,10.39-6.927a8,8,0,0,0-8.876-13.312l-24,16a8,8,0,0,0,1.908,14.246l24,8A8.015,8.015,0,0,0,208,197.252Z"/><path d="M80,464H456a8,8,0,0,0,8-8V372.642a68,68,0,0,0-48.46-65.133l-36.452-10.935-59.737-32.436-7.078-49.546,5.317-10.632A175.274,175.274,0,0,0,336,125.973a77.863,77.863,0,0,0-86.462-77.387l-39.6,4.4a86.579,86.579,0,0,0-99.98,6.056l-5.345,4.274A86.475,86.475,0,0,0,72,131.169V157.25a8,8,0,0,0,8.992,7.938l50.06-6.257,4.593,16.838-15.235,45.7a8,8,0,0,0,8.5,10.478L144,230.219V245.25a8,8,0,0,0,11.314,7.281l12.972-5.905a7.59,7.59,0,0,1,8.143,12.62l-13.7,11.983a8,8,0,0,0-.617,11.44l19.295,21.424-24.855,16.588-36.1,10.829C88.757,341.021,72,360.777,72,388.642V456A8,8,0,0,0,80,464Zm8-48h64v32H88Zm360,31.687H384V416h64ZM88,131.169A70.551,70.551,0,0,1,114.606,75.81l5.345-4.275a70.647,70.647,0,0,1,83.611-3.629,8.025,8.025,0,0,0,5.322,1.295l42.422-4.713A61.862,61.862,0,0,1,320,125.973a159.228,159.228,0,0,1-9.432,53.8A32.057,32.057,0,0,0,280,157.25h-8a8,8,0,0,0-8,8v4.687l-16-16V141.25a8,8,0,0,0-1.854-5.121l-40-48a8,8,0,0,0-13.991,3.552,62.43,62.43,0,0,1-41.384,46.879l-8.549,2.849L88,148.188ZM180.548,276.9l6.417-5.614a23.59,23.59,0,0,0-25.309-39.223l-1.656.754V221.25a8,8,0,0,0-8.911-7.948l-11.53,1.321L151.59,178.53a8,8,0,0,0,.128-4.635l-4.7-17.219,8.81-2.936a78.5,78.5,0,0,0,47.455-44.05L232,144.146v13.1a8,8,0,0,0,2.343,5.657l32,32A8,8,0,0,0,280,189.25v-16a16,16,0,0,1,10.665,27.928,7.771,7.771,0,0,0-.6.6l-.778.862a7.995,7.995,0,0,0,7.017,13.281l7.78,54.461a8,8,0,0,0,4.1,5.9l22.546,12.242-74.192,60.7L209.614,302.3l55.528-35.225A31.844,31.844,0,0,0,280,240.054a8,8,0,1,0-16,0,15.922,15.922,0,0,1-7.429,13.51L195,293Zm-55.49,69.934,37.206-11.162c.018,0,35.1-22.993,35.1-22.993l52.977,52.977a8,8,0,0,0,10.722.534l84.851-69.423,26.249,14.253c.277.151,38.777,11.813,38.777,11.813A51.682,51.682,0,0,1,448,372.642V400H376a8,8,0,0,0-8,8v40H168V408a8,8,0,0,0-8-8H88V388.642C88,367.991,100.122,354.315,125.058,346.835Z"/><path d="M53.694,272.643a8,8,0,0,0,7.979,7.534c.157,0,.315,0,.473-.014l23.959-1.4a8,8,0,1,0-.931-15.973l-23.959,1.4A8,8,0,0,0,53.694,272.643Z"/><path d="M71.075,311.92a7.958,7.958,0,0,0,3.9-1.021l15.982-8.944a8,8,0,0,0-7.814-13.962l-15.983,8.945a8,8,0,0,0,3.914,14.982Z"/><path d="M64.662,247.352,81.1,254.406a8,8,0,0,0,6.31-14.7l-16.438-7.055a8,8,0,0,0-6.311,14.7Z"/><rect height="16" width="16" x="112" y="264"/><rect height="16" width="16" x="136" y="288"/><rect height="16" width="16" x="104" y="304"/></g></svg>