<?xml version="1.0" ?><svg viewBox="0 0 512 512" xmlns="http://www.w3.org/2000/svg"><g data-name="filled outline" id="filled_outline"><path d="M360,280l32,24,8.477,2.826A128,128,0,0,1,488,428.257V488H24V428.257a128,128,0,0,1,87.523-121.431L120,304l32-24Z" style="fill:#e4e4e2"/><polygon points="392 336 344 376 168 376 120 336 120 80 392 80 392 336" style="fill:#aae5c8"/><polygon points="392 304 392 336 344 376 168 376 120 336 120 304 152 280 360 280 392 304" style="fill:#b9b9b9"/><polygon points="392 304 392 336 344 376 168 376 120 336 120 304 152 280 360 280 392 304" style="fill:#85bc94"/><path d="M184,168H328a0,0,0,0,1,0,0v64a72,72,0,0,1-72,72h0a72,72,0,0,1-72-72V168A0,0,0,0,1,184,168Z" style="fill:#6ae4ff"/><path d="M248,104h16a64,64,0,0,1,64,64v0a0,0,0,0,1,0,0H184a0,0,0,0,1,0,0v0A64,64,0,0,1,248,104Z" style="fill:#0a71cd"/><path d="M184,240l-7.029-2.343A43.183,43.183,0,0,1,152,216h0V192h0a43.183,43.183,0,0,1,24.971-21.657L184,168Z" style="fill:#0a71cd"/><path d="M328,240l7.029-2.343A43.183,43.183,0,0,0,360,216h0V192h0a43.183,43.183,0,0,0-24.971-21.657L328,168Z" style="fill:#0a71cd"/><circle cx="219" cy="197" r="13" style="fill:#0091c9"/><circle cx="293" cy="195" r="13" style="fill:#0091c9"/><polygon points="224 304 224 240 240 216 272 216 288 240 288 304 224 304" style="fill:#0a71cd"/><rect height="32" style="fill:#0045c7" width="40" x="184" y="248"/><rect height="80" rx="8" style="fill:#0a71cd" transform="translate(-116.133 129.303) rotate(-30)" width="48" x="159.215" y="241.359"/><rect height="32" style="fill:#0045c7" transform="translate(616 528) rotate(-180)" width="40" x="288" y="248"/><rect height="80" rx="8" style="fill:#0a71cd" transform="translate(472.841 689.415) rotate(-150)" width="48" x="304.785" y="241.359"/><path d="M264,256H248a8,8,0,0,1,0-16h16a8,8,0,0,1,0,16Z" style="fill:#0045c7"/><path d="M264,280H248a8,8,0,0,1,0-16h16a8,8,0,0,1,0,16Z" style="fill:#0045c7"/><path d="M392,120l-28.146-11.258A289.993,289.993,0,0,0,256.151,88h-.3a289.993,289.993,0,0,0-107.7,20.742L120,120V64l68.281-31.037A100,100,0,0,1,229.661,24h52.678a100,100,0,0,1,41.38,8.963L392,64Z" style="fill:#e4e4e2"/><path d="M96,488V442.216l22.86-38.1a8,8,0,1,0-13.72-8.232L96,411.116V384a8,8,0,0,0-16,0V488Z" style="fill:#cbcbcb"/><path d="M432,488V384a8,8,0,0,0-16,0v27.116l-9.14-15.232a8,8,0,1,0-13.72,8.232l22.86,38.1V488Z" style="fill:#cbcbcb"/><rect height="55" style="fill:#cbcbcb" width="16" x="248" y="433"/><rect height="16" style="fill:#cbcbcb" width="16" x="288" y="448"/><rect height="8" style="fill:#0091c9" width="144" x="184" y="168"/><path d="M137.391,385.391,120,368V336l48,40H344l48-40v32L362.2,393.547a163,163,0,0,1-59.241,32.367l-20.079,6.023a97.99,97.99,0,0,1-53.945.68l-19.168-5.227A163,163,0,0,1,137.391,385.391Z" style="fill:#cbcbcb"/><circle cx="219" cy="197" r="13"/><circle cx="293" cy="195" r="13"/><path d="M264,240H248a8,8,0,0,0,0,16h16a8,8,0,0,0,0-16Z"/><path d="M264,264H248a8,8,0,0,0,0,16h16a8,8,0,0,0,0-16Z"/><rect height="16" width="16" x="288" y="448"/><path d="M403.007,299.236l-3.007-1V64a8,8,0,0,0-4.689-7.283L327.03,25.681A107.275,107.275,0,0,0,282.339,16H229.661a107.275,107.275,0,0,0-44.691,9.681L116.689,56.717A8,8,0,0,0,112,64V298.234l-3.008,1A135.828,135.828,0,0,0,16,428.257V488a8,8,0,0,0,8,8H488a8,8,0,0,0,8-8V428.257A135.828,135.828,0,0,0,403.007,299.236ZM384,353.081V364.32l-27.011,23.153a154.042,154.042,0,0,1-56.334,30.778l-20.079,6.024a89.9,89.9,0,0,1-49.542.624l-19.168-5.228a155.239,155.239,0,0,1-68.817-39.936L128,364.687V353.081l34.879,29.065A8,8,0,0,0,168,384H344a8,8,0,0,0,5.121-1.854ZM128,125.416l23.116-9.247a280.618,280.618,0,0,1,88.838-19.708,72.106,72.106,0,0,0-63.7,65.687l-1.818.606a50.851,50.851,0,0,0-29.595,25.668A7.994,7.994,0,0,0,144,192v24a7.994,7.994,0,0,0,.845,3.578,50.906,50.906,0,0,0,16.4,19.041l-15.883,9.171a16,16,0,0,0-5.856,21.856l3.919,6.788L128,288ZM384,288l-15.421-11.566,3.919-6.788a16,16,0,0,0-5.857-21.856l-15.884-9.171a50.9,50.9,0,0,0,16.4-19.041A7.994,7.994,0,0,0,368,216V192a7.994,7.994,0,0,0-.845-3.578,50.851,50.851,0,0,0-29.595-25.668l-1.818-.606a72.1,72.1,0,0,0-63.7-65.687,280.624,280.624,0,0,1,88.838,19.708L384,125.416ZM128,308l23.479-17.61L171.5,325.072a16.011,16.011,0,0,0,21.857,5.856l27.713-16A15.922,15.922,0,0,0,224.754,312h62.492a15.922,15.922,0,0,0,3.682,2.928l27.714,16a16.01,16.01,0,0,0,21.855-5.857l20.024-34.682L384,308v24.253L341.1,368H170.9L128,332.253Zm198.641,9.072-27.713-16,32-55.426,27.714,16ZM297.237,272H296V256h10.475ZM320,233.964A57.879,57.879,0,0,0,315.713,240H296a8,8,0,0,0-1.344-4.438l-16-24A8,8,0,0,0,272,208H240a8,8,0,0,0-6.656,3.562l-16,24A8,8,0,0,0,216,240H196.453c-.054,0-.107.007-.161.008A57.953,57.953,0,0,0,192,233.963V176H320ZM216,256v16h-1.238l-9.237-16Zm16-13.578L244.281,224h23.438L280,242.422V296H232Zm104-13.729V179.307a34.867,34.867,0,0,1,16,14.682v20.022A34.867,34.867,0,0,1,336,228.693ZM192.569,160A56.089,56.089,0,0,1,248,112h16a56.089,56.089,0,0,1,55.431,48ZM176,228.693a34.867,34.867,0,0,1-16-14.682V193.989a34.867,34.867,0,0,1,16-14.682Zm5.072,16.953,22,38.093c.057.107.12.209.181.313l9.827,17.014-.009.006-27.714,16-32-55.426ZM128,69.151l63.591-28.9A91.385,91.385,0,0,1,229.661,32h52.678a91.385,91.385,0,0,1,38.07,8.246L384,69.151v39.033l-17.175-6.87A296.7,296.7,0,0,0,256.151,80h-.3a296.7,296.7,0,0,0-110.674,21.314L128,108.184ZM32,428.257a119.827,119.827,0,0,1,80-113.112V368a8,8,0,0,0,2.343,5.657l17.391,17.391a171.278,171.278,0,0,0,75.923,44.06l19.167,5.227A106.111,106.111,0,0,0,248,443.857V480H96V442.216l22.86-38.1a8,8,0,1,0-13.72-8.232L96,411.116V384a8,8,0,0,0-16,0v96H32ZM480,480H432V384a8,8,0,0,0-16,0v27.116l-9.14-15.232a8,8,0,1,0-13.72,8.232l22.86,38.1V480H264V443.649a106.067,106.067,0,0,0,21.174-4.049l20.079-6.023A169.953,169.953,0,0,0,367.4,399.621l29.805-25.547A8,8,0,0,0,400,368V315.145a119.827,119.827,0,0,1,80,113.112Z"/></g></svg>