<?xml version="1.0" ?><svg viewBox="0 0 512 512" xmlns="http://www.w3.org/2000/svg"><g data-name="filled outline" id="filled_outline"><rect height="48" style="fill:#c75b93" width="16" x="248" y="64"/><rect height="56" style="fill:#c75b93" transform="translate(-22.679 80.168) rotate(-22.5)" width="16" x="182.178" y="69.093"/><rect height="56" style="fill:#c75b93" transform="translate(-115.765 207.103) rotate(-67.5)" width="16" x="89.093" y="162.178"/><rect height="16" style="fill:#c75b93" transform="translate(-115.766 61.654) rotate(-22.5)" width="56" x="69.093" y="313.821"/><rect height="16" style="fill:#c75b93" transform="translate(-265.924 431.83) rotate(-67.5)" width="56" x="162.178" y="406.907"/><rect height="56" style="fill:#c75b93" transform="translate(-134.28 154.738) rotate(-22.5)" width="16" x="313.821" y="386.907"/><rect height="56" style="fill:#c75b93" transform="translate(-41.195 581.991) rotate(-67.5)" width="16" x="406.907" y="293.822"/><rect height="16" style="fill:#c75b93" transform="translate(-41.195 173.256) rotate(-22.5)" width="56" x="386.907" y="182.178"/><rect height="16" style="fill:#c75b93" transform="translate(108.963 357.261) rotate(-67.5)" width="56" x="293.822" y="89.093"/><rect height="48" style="fill:#c75b93" transform="translate(-56.833 137.206) rotate(-45)" width="16" x="129.206" y="113.206"/><rect height="16" style="fill:#c75b93" width="48" x="64" y="248"/><rect height="16" style="fill:#c75b93" transform="translate(-224.833 206.794) rotate(-45)" width="48" x="113.206" y="366.794"/><rect height="48" style="fill:#c75b93" width="16" x="248" y="400"/><rect height="48" style="fill:#c75b93" transform="translate(-155.245 374.794) rotate(-45)" width="16" x="366.794" y="350.794"/><rect height="16" style="fill:#c75b93" width="48" x="400" y="248"/><rect height="16" style="fill:#c75b93" transform="translate(12.755 305.206) rotate(-45)" width="48" x="350.794" y="129.206"/><circle cx="256" cy="256" r="152" style="fill:#d26398"/><circle cx="256" cy="256" r="112" style="fill:#e46ca5"/><circle cx="288" cy="224" r="24" style="fill:#007af6"/><circle cx="200" cy="256" r="16" style="fill:#007af6"/><circle cx="272" cy="320" r="16" style="fill:#007af6"/><circle cx="256" cy="48" r="24" style="fill:#007af6"/><circle cx="175.996" cy="64.004" r="16" style="fill:#007af6"/><circle cx="63.833" cy="176.402" r="16" style="fill:#007af6"/><circle cx="63.833" cy="335.598" r="16" style="fill:#007af6"/><circle cx="176.402" cy="448.167" r="16" style="fill:#007af6"/><circle cx="335.598" cy="448.167" r="16" style="fill:#007af6"/><circle cx="448.167" cy="335.598" r="16" style="fill:#007af6"/><circle cx="448.167" cy="176.402" r="16" style="fill:#007af6"/><circle cx="335.598" cy="63.833" r="16" style="fill:#007af6"/><circle cx="256" cy="48" r="8" style="fill:#0094f6"/><circle cx="108.922" cy="108.922" r="24" style="fill:#007af6"/><circle cx="108.922" cy="108.922" r="8" style="fill:#0094f6"/><circle cx="224" cy="200" r="8" style="fill:#0094f6"/><circle cx="312" cy="280" r="8" style="fill:#0094f6"/><circle cx="216" cy="296" r="8" style="fill:#0094f6"/><circle cx="48" cy="256" r="24" style="fill:#007af6"/><circle cx="48" cy="256" r="8" style="fill:#0094f6"/><circle cx="108.922" cy="403.078" r="24" style="fill:#007af6"/><circle cx="108.922" cy="403.078" r="8" style="fill:#0094f6"/><circle cx="256" cy="464" r="24" style="fill:#007af6"/><circle cx="256" cy="464" r="8" style="fill:#0094f6"/><circle cx="403.078" cy="403.078" r="24" style="fill:#007af6"/><circle cx="403.078" cy="403.078" r="8" style="fill:#0094f6"/><circle cx="464" cy="256" r="24" style="fill:#007af6"/><circle cx="464" cy="256" r="8" style="fill:#0094f6"/><circle cx="403.078" cy="108.922" r="24" style="fill:#007af6"/><circle cx="403.078" cy="108.922" r="8" style="fill:#0094f6"/><path d="M256,136A120,120,0,1,0,376,256,120.136,120.136,0,0,0,256,136Zm0,224A104,104,0,1,1,360,256,104.118,104.118,0,0,1,256,360Z"/><path d="M288,192a32,32,0,1,0,32,32A32.036,32.036,0,0,0,288,192Zm0,48a16,16,0,1,1,16-16A16.019,16.019,0,0,1,288,240Z"/><path d="M200,232a24,24,0,1,0,24,24A24.027,24.027,0,0,0,200,232Zm0,32a8,8,0,1,1,8-8A8.009,8.009,0,0,1,200,264Z"/><path d="M272,296a24,24,0,1,0,24,24A24.027,24.027,0,0,0,272,296Zm0,32a8,8,0,1,1,8-8A8.009,8.009,0,0,1,272,328Z"/><circle cx="256" cy="48" r="8"/><circle cx="108.922" cy="108.922" r="8"/><circle cx="224" cy="200" r="8"/><circle cx="312" cy="280" r="8"/><circle cx="216" cy="296" r="8"/><circle cx="48" cy="256" r="8"/><circle cx="108.922" cy="403.078" r="8"/><circle cx="256" cy="464" r="8"/><circle cx="403.078" cy="403.078" r="8"/><path d="M464,224a32.056,32.056,0,0,0-30.987,24H407.79a151.043,151.043,0,0,0-8.494-42.7l31.042-12.858A24.117,24.117,0,0,0,448.2,200.4a24,24,0,1,0-9.216-46.173h0a24.037,24.037,0,0,0-14.778,23.44L393.16,190.527a152.565,152.565,0,0,0-24.226-36.148l17.889-17.889a32,32,0,1,0-6.372-50.2h0a32.059,32.059,0,0,0-4.941,38.883l-17.889,17.889a152.565,152.565,0,0,0-36.148-24.226L334.33,87.8c.413.021.825.034,1.236.034a24,24,0,1,0-22.141-33.185h0a24.038,24.038,0,0,0,6.124,27.024L306.7,112.7A151.043,151.043,0,0,0,264,104.21V78.987a32,32,0,1,0-16,0V104.21a151.043,151.043,0,0,0-42.7,8.494L192.451,81.673a24,24,0,1,0-38.222-8.656h0a24.037,24.037,0,0,0,22.2,14.815c.411,0,.823-.013,1.236-.034l12.857,31.041a152.565,152.565,0,0,0-36.148,24.226L136.49,125.177a32,32,0,1,0-50.2,6.372h0a32.069,32.069,0,0,0,38.883,4.941l17.889,17.889a152.565,152.565,0,0,0-24.226,36.148L87.8,177.669a24,24,0,1,0-33.148,20.906h0A23.868,23.868,0,0,0,63.8,200.4a24.121,24.121,0,0,0,17.861-7.956L112.7,205.3A151.043,151.043,0,0,0,104.21,248H78.987a32,32,0,1,0,0,16H104.21a151.043,151.043,0,0,0,8.494,42.7L81.673,319.549a24,24,0,1,0-8.656,38.222h0A24.037,24.037,0,0,0,87.8,334.332l31.044-12.859a152.565,152.565,0,0,0,24.226,36.148l-17.89,17.889a31.989,31.989,0,1,0,6.373,50.2h0a32.059,32.059,0,0,0,4.941-38.883l17.889-17.889a152.565,152.565,0,0,0,36.148,24.226L177.668,424.2a24,24,0,1,0,20.907,33.148h0a24.038,24.038,0,0,0-6.124-27.024L205.3,399.3A151.043,151.043,0,0,0,248,407.79v25.223a32,32,0,1,0,16,0V407.79a151.043,151.043,0,0,0,42.7-8.494l12.853,31.031a24,24,0,1,0,38.222,8.656h0A24.036,24.036,0,0,0,334.332,424.2L321.473,393.16a152.565,152.565,0,0,0,36.148-24.226l17.889,17.889a32,32,0,1,0,50.2-6.372h0a32.059,32.059,0,0,0-38.882-4.941l-17.89-17.889a152.565,152.565,0,0,0,24.226-36.148L424.2,334.332a24,24,0,1,0,33.148-20.907h0a24.042,24.042,0,0,0-27.024,6.124L399.3,306.7A151.043,151.043,0,0,0,407.79,264h25.223A32,32,0,1,0,464,224Zm-18.895-54.989a8,8,0,1,1-4.328,10.456l0-.007A8.008,8.008,0,0,1,445.105,169.011Zm-116.9-108.24a8,8,0,1,1,4.33,10.453A8.007,8.007,0,0,1,328.207,60.771ZM169.011,66.9a8,8,0,1,1,10.456,4.328l-.007,0A8.008,8.008,0,0,1,169.011,66.9Zm-108.24,116.9a8,8,0,1,1,10.453-4.33A8.01,8.01,0,0,1,60.771,183.793Zm6.124,159.2a8,8,0,1,1,4.328-10.455l0,.006A8.008,8.008,0,0,1,66.9,342.989Zm116.9,108.24a8,8,0,1,1-4.33-10.453A8.008,8.008,0,0,1,183.793,451.229Zm159.2-6.124a8,8,0,1,1-10.456-4.328l.007,0a8,8,0,0,1,10.449,4.33ZM448.178,327.6a8,8,0,1,1-7.4,4.939A7.965,7.965,0,0,1,448.178,327.6ZM391.764,97.608h0a16,16,0,1,1,.006,22.632l-.01-.009A16.019,16.019,0,0,1,391.764,97.608ZM240,48a16,16,0,1,1,16,16A16.019,16.019,0,0,1,240,48ZM97.608,120.236h0a16,16,0,1,1,22.632-.006l-.009.01A16.02,16.02,0,0,1,97.608,120.236ZM48,272a16,16,0,1,1,16-16A16.019,16.019,0,0,1,48,272Zm72.236,142.392h0a15.994,15.994,0,1,1-.006-22.632l.01.009A16.019,16.019,0,0,1,120.236,414.392ZM272,464a16,16,0,1,1-16-16A16.019,16.019,0,0,1,272,464Zm-16-72c-74.991,0-136-61.009-136-136s61.009-136,136-136,136,61.009,136,136S330.991,392,256,392Zm158.392-.236h0a16,16,0,1,1-22.632.006l.009-.01a16.017,16.017,0,0,1,22.623,0ZM464,272a16,16,0,1,1,16-16A16.019,16.019,0,0,1,464,272Z"/><circle cx="464" cy="256" r="8"/><circle cx="403.078" cy="108.922" r="8"/></g></svg>