<?xml version="1.0" ?><svg viewBox="0 0 512 512" xmlns="http://www.w3.org/2000/svg"><g data-name="filled outline" id="filled_outline"><path d="M70,152H216a0,0,0,0,1,0,0V376a0,0,0,0,1,0,0H24a0,0,0,0,1,0,0V198A46,46,0,0,1,70,152Z" style="fill:#dbdbdb"/><path d="M424.59,272,367.362,165.677A26,26,0,0,0,344.467,152H70a46,46,0,0,0-46,46V376H488V300.464a16,16,0,0,0-12.085-15.513Z" style="fill:#dbdbdb"/><polygon points="424.59 272 328 272 328 200 385.83 200 424.59 272" style="fill:#dbdbdb"/><rect height="224" style="fill:#ebebeb" width="112" x="216" y="152"/><rect height="128" style="fill:#e4e4e2" width="112" x="216" y="152"/><circle cx="120" cy="248" r="64" style="fill:#c7463b"/><polygon points="152 232 136 232 136 216 104 216 104 232 88 232 88 264 104 264 104 280 136 280 136 264 152 264 152 232" style="fill:#e4e4e2"/><rect height="64" rx="8" style="fill:#c1e3f7" width="48" x="248" y="184"/><rect height="64" rx="8" style="fill:#8ed2ff" width="40" x="248" y="184"/><polygon points="424.59 272 328 272 328 200 385.83 200 424.59 272" style="fill:#c1e3f7"/><polygon points="408 272 328 272 328 200 368 200 408 272" style="fill:#8ed2ff"/><rect height="16" style="fill:#cbcbcb" width="32" x="360" y="296"/><polygon points="488 376 416 376 440 344 488 344 488 376" style="fill:#ebebeb"/><rect height="16" style="fill:#f7ba61" width="24" x="464" y="304"/><rect height="24" style="fill:#c7463b" width="192" x="24" y="320"/><rect height="24" style="fill:#c7463b" width="112" x="216" y="280"/><rect height="32" style="fill:#f7ba61" width="48" x="248" y="120"/><path d="M272,88h0a16,16,0,0,1,16,16v16a0,0,0,0,1,0,0H256a0,0,0,0,1,0,0V104A16,16,0,0,1,272,88Z" style="fill:#c7463b"/><path d="M272,64a8,8,0,0,1-8-8V40a8,8,0,0,1,16,0V56A8,8,0,0,1,272,64Z" style="fill:#f7ba61"/><path d="M230.423,88a7.961,7.961,0,0,1-3.992-1.073l-13.857-8a8,8,0,1,1,8-13.856l13.857,8A8,8,0,0,1,230.423,88Z" style="fill:#f7ba61"/><path d="M313.577,88a8,8,0,0,1-4.008-14.929l13.857-8a8,8,0,1,1,8,13.856l-13.857,8A7.963,7.963,0,0,1,313.577,88Z" style="fill:#f7ba61"/><rect height="168" style="fill:#cbcbcb" width="8" x="208" y="152"/><rect height="32" style="fill:#cbcbcb" width="8" x="208" y="344"/><rect height="48" style="fill:#cbcbcb" width="8" x="328" y="152"/><rect height="104" style="fill:#cbcbcb" width="8" x="328" y="272"/><rect height="24" style="fill:#a83b32" width="8" x="208" y="320"/><rect height="72" style="fill:#41b2ff" width="8" x="328" y="200"/><circle cx="120.846" cy="377.117" r="32" style="fill:#ebebeb"/><circle cx="120" cy="376" r="10" style="fill:#cbcbcb"/><path d="M120.07,416.017a40.245,40.245,0,0,1-9.9-1.244,40,40,0,0,1-28.943-48.6h0a39.984,39.984,0,1,1,38.843,49.847Zm-.113-64.027A24.029,24.029,0,0,0,96.736,370.1h0A24,24,0,1,0,125.9,352.736,24.157,24.157,0,0,0,119.957,351.99ZM88.981,368.136h0Z" style="fill:#cbcbcb"/><circle cx="400.829" cy="377.117" r="32" style="fill:#ebebeb"/><circle cx="399.983" cy="376" r="10" style="fill:#cbcbcb"/><path d="M400.054,416.017a40.259,40.259,0,0,1-9.9-1.244,40,40,0,0,1-28.943-48.6h0a39.984,39.984,0,1,1,38.844,49.847Zm-.114-64.027A24.027,24.027,0,0,0,376.72,370.1h0a24,24,0,1,0,29.162-17.366A24.171,24.171,0,0,0,399.94,351.99Zm-30.975,16.146h0Z" style="fill:#cbcbcb"/><path d="M477.871,277.193l-47.907-12.088L374.406,161.886A33.955,33.955,0,0,0,344.468,144H304V120a8,8,0,0,0-8-8v-8a24,24,0,0,0-48,0v8a8,8,0,0,0-8,8v24H70a54.062,54.062,0,0,0-54,54V376a8,8,0,0,0,8,8H80.805a40,40,0,0,0,78.39,0h201.61a40,40,0,0,0,78.39,0H488a8,8,0,0,0,8-8V300.464A23.975,23.975,0,0,0,477.871,277.193ZM480,300.464V304H464v16h16v16H440a8,8,0,0,0-6.4,3.2l-5.952,7.935A39.967,39.967,0,0,0,360.805,368H336V280h87.6l50.361,12.707A7.991,7.991,0,0,1,480,300.464ZM32,336V320H208v16Zm32-88a56,56,0,1,1,56,56A56.063,56.063,0,0,1,64,248Zm87.978,104H208v16H159.2A39.841,39.841,0,0,0,151.978,352ZM224,288h96v16H224Zm186.4-24H336V208h43.293Zm-50.087-94.531L372.445,192H336V160h8.468A17.974,17.974,0,0,1,360.317,169.469ZM320,272H224V160h96ZM264,104a8,8,0,0,1,16,0v8H264Zm-8,24h32v16H256ZM70,160H208V304H165.185a72,72,0,1,0-90.37,0H32V198A38.043,38.043,0,0,1,70,160ZM32,352H88.022a39.841,39.841,0,0,0-7.217,16H32Zm88,48a24,24,0,1,1,24-24A24.028,24.028,0,0,1,120,400Zm104-32V320h96v48Zm176,32a24,24,0,1,1,24-24A24.028,24.028,0,0,1,400,400Zm80-32H439.2a39.638,39.638,0,0,0-2.062-6.843L444,352h36Z"/><path d="M160,232a8,8,0,0,0-8-8h-8v-8a8,8,0,0,0-8-8H104a8,8,0,0,0-8,8v8H88a8,8,0,0,0-8,8v32a8,8,0,0,0,8,8h8v8a8,8,0,0,0,8,8h32a8,8,0,0,0,8-8v-8h8a8,8,0,0,0,8-8Zm-16,24h-8a8,8,0,0,0-8,8v8H112v-8a8,8,0,0,0-8-8H96V240h8a8,8,0,0,0,8-8v-8h16v8a8,8,0,0,0,8,8h8Z"/><path d="M256,176a16.019,16.019,0,0,0-16,16v48a16.019,16.019,0,0,0,16,16h32a16.019,16.019,0,0,0,16-16V192a16.019,16.019,0,0,0-16-16Zm32,64H256V192h32l.01,48Z"/><rect height="16" width="32" x="360" y="296"/><circle cx="400" cy="376" r="10"/><path d="M280,56V40a8,8,0,0,0-16,0V56a8,8,0,0,0,16,0Z"/><path d="M226.431,86.928a8,8,0,0,0,8-13.856l-13.857-8a8,8,0,1,0-8,13.856Z"/><path d="M313.577,88a7.963,7.963,0,0,0,3.992-1.073l13.857-8a8,8,0,1,0-8-13.856l-13.857,8A8,8,0,0,0,313.577,88Z"/><circle cx="120" cy="376" r="10"/></g></svg>