<?xml version="1.0" ?><svg viewBox="0 0 512 512" xmlns="http://www.w3.org/2000/svg"><g data-name="filled outline" id="filled_outline"><path d="M376,40a95.994,95.994,0,0,0-72,159.49L296,240l40.484-16.484A96.01,96.01,0,1,0,376,40Z" style="fill:#fbb540"/><path d="M256,239.018V192a88,88,0,0,0-88-88h0a88,88,0,0,0-88,88v58.785l-6.375,48.779a60.6,60.6,0,0,0,1.82,24.5h0A60.586,60.586,0,0,0,133.7,368H208.03A60.585,60.585,0,0,0,266.3,324.02l.843-2.959a60.587,60.587,0,0,0-.246-34.05l-7.5-24.958A79.984,79.984,0,0,1,256,239.018Z" style="fill:#ea9d2d"/><path d="M253.761,352H82.239A42.239,42.239,0,0,0,40,394.239V488H296V394.239A42.239,42.239,0,0,0,253.761,352Z" style="fill:#009cf7"/><polygon points="96 488 40 488 40 424 96 440 96 488" style="fill:#e8c8b3"/><polygon points="224 488 296 488 296 424 224 440 224 488" style="fill:#e8c8b3"/><polygon points="256 488 224 488 224 440 240.79 436.27 256 488" style="fill:#c7ac9a"/><path d="M248.886,420.4,236.649,400H99.351L87.114,420.4A44.634,44.634,0,0,0,84.386,461h0a44.637,44.637,0,0,0,41.005,27h85.218a44.637,44.637,0,0,0,41.005-27h0A44.634,44.634,0,0,0,248.886,420.4Z" style="fill:#009cf7"/><path d="M144,296v23.015a32,32,0,0,1-24.239,31.045L112,352l56,80,56-80-7.761-1.94A32,32,0,0,1,192,319.015V296Z" style="fill:#e8c8b3"/><polygon points="207.1 376.14 172.89 425.02 160 352 200 352 207.1 376.14" style="fill:#e8c8b3"/><path d="M168,320h0a64,64,0,0,1-64-64V200l32-48,52.29,29.05a242.635,242.635,0,0,0,41.1,18.08L232,200v56A64,64,0,0,1,168,320Z" style="fill:#e8c8b3"/><path d="M252,208h4a0,0,0,0,1,0,0v40a0,0,0,0,1,0,0h-4a20,20,0,0,1-20-20v0a20,20,0,0,1,20-20Z" style="fill:#e8c8b3" transform="translate(488 456) rotate(-180)"/><path d="M168,272a7.976,7.976,0,0,1-5.657-2.343l-8-8a8,8,0,0,1-1.932-8.187l8-24a8,8,0,1,1,15.178,5.06l-6.436,19.309,4.5,4.5A8,8,0,0,1,168,272Z" style="fill:#5b3726"/><polygon points="207.1 376.14 172.89 425.02 160 352 200 352 207.1 376.14" style="fill:#c7ac9a"/><path d="M360,65.373h0a57.936,57.936,0,0,1-16.971,40.97l-2.343,2.343A16,16,0,0,0,336,120v1.373a16,16,0,0,0,16,16h0a22.628,22.628,0,0,0,32,0h0a16,16,0,0,0,16-16V120a16,16,0,0,0-4.686-11.314L392,105.373V87.652a22.659,22.659,0,0,0-23.631-22.638Z" style="fill:#e8c8b3"/><path d="M368,151.986a30.55,30.55,0,0,1-19.314-6.841A24.038,24.038,0,0,1,328,121.373V120a23.844,23.844,0,0,1,7.03-16.971l2.342-2.342A49.616,49.616,0,0,0,352,65.373a8,8,0,1,1,16,0A65.509,65.509,0,0,1,348.686,112l-2.342,2.343A7.944,7.944,0,0,0,344,120v1.373a8.009,8.009,0,0,0,8,8,8,8,0,0,1,5.657,2.343,14.644,14.644,0,0,0,20.686,0A8,8,0,0,1,384,129.373a8.009,8.009,0,0,0,8-8V120a7.944,7.944,0,0,0-2.343-5.656l-3.314-3.315a8,8,0,1,1,11.314-11.313l3.314,3.314A23.843,23.843,0,0,1,408,120v1.373a24.038,24.038,0,0,1-20.686,23.772A30.55,30.55,0,0,1,368,151.986Z" style="fill:#5b3726"/><path d="M394.687,162.687,383.61,179.3a13.313,13.313,0,0,0,0,14.769h0a13.313,13.313,0,0,0,22.154,0h0a13.313,13.313,0,0,0,0-14.769Z" style="fill:#009cf7"/><path d="M133.8,225.7h-4.687a8,8,0,1,1,0-16H133.8a19.183,19.183,0,0,0,13.656-5.657,8,8,0,0,1,11.314,11.314A35.078,35.078,0,0,1,133.8,225.7Z" style="fill:#5b3726"/><path d="M209.114,225.7h-4.686a35.08,35.08,0,0,1-24.97-10.343,8,8,0,0,1,11.313-11.314,19.187,19.187,0,0,0,13.657,5.657h4.686a8,8,0,0,1,0,16Z" style="fill:#5b3726"/><circle cx="141.114" cy="229.704" r="12" style="fill:#5b3726"/><circle cx="197.114" cy="229.704" r="12" style="fill:#5b3726"/><path d="M256,488H224v-2.06a44.6,44.6,0,0,0,25.38-20.46Z" style="fill:#c7ac9a"/><polygon points="168 352 192 488 248 488 208 352 168 352" style="fill:#e8c8b3"/><path d="M216,368H196l4,16H136l4-16H120l13.546-72.094A34.556,34.556,0,0,1,168,264h0a34.556,34.556,0,0,1,34.454,31.906Z" style="fill:#e4e4e2"/><path d="M128,383.843a8.024,8.024,0,0,1,.239-1.783l16-64a8,8,0,0,1,15.522,3.88L144.246,384Z" style="fill:#cbcbcb"/><path d="M191.754,384l-15.515-62.06a8,8,0,1,1,15.522-3.88l16,64a8.024,8.024,0,0,1,.239,1.783Z" style="fill:#cbcbcb"/><path d="M348.686,145.145a30.685,30.685,0,0,0,38.628,0A24.038,24.038,0,0,0,408,121.373V120a23.843,23.843,0,0,0-7.029-16.97l-3.314-3.314a8,8,0,1,0-11.314,11.313l3.314,3.315A7.944,7.944,0,0,1,392,120v1.373a8.009,8.009,0,0,1-8,8,8,8,0,0,0-5.657,2.343,14.644,14.644,0,0,1-20.686,0A8,8,0,0,0,352,129.373a8.009,8.009,0,0,1-8-8V120a7.944,7.944,0,0,1,2.344-5.657L348.686,112A65.509,65.509,0,0,0,368,65.373a8,8,0,1,0-16,0,49.616,49.616,0,0,1-14.628,35.314l-2.342,2.342A23.844,23.844,0,0,0,328,120v1.373A24.038,24.038,0,0,0,348.686,145.145Z"/><path d="M394.687,154.687a8,8,0,0,0-6.657,3.563l-11.076,16.615a21.313,21.313,0,1,0,35.466,0L401.343,158.25A8,8,0,0,0,394.687,154.687Zm4.421,34.947a5.313,5.313,0,1,1-8.841-5.894l4.42-6.631,4.42,6.631A5.3,5.3,0,0,1,399.108,189.634Z"/><path d="M288.151,238.45a8,8,0,0,0,10.866,8.959l37.376-15.218A104.106,104.106,0,1,0,295.4,201.724ZM288,136a87.926,87.926,0,1,1,51.781,80.227,8,8,0,0,0-6.314-.121L306.723,227l5.126-25.956A8,8,0,0,0,310,194.2,87.888,87.888,0,0,1,288,136Z"/><path d="M147.457,204.047A19.183,19.183,0,0,1,133.8,209.7h-4.687a8,8,0,1,0,0,16h.7a12,12,0,1,0,20.263-3.962,35.366,35.366,0,0,0,8.7-6.381,8,8,0,0,0-11.314-11.314Z"/><path d="M179.458,215.361a35.391,35.391,0,0,0,8.7,6.381,12,12,0,1,0,20.263,3.962h.7a8,8,0,0,0,0-16h-4.686a19.187,19.187,0,0,1-13.657-5.657,8,8,0,0,0-11.313,11.314Z"/><path d="M40,496H296a8,8,0,0,0,8-8V394.239a50.314,50.314,0,0,0-38.823-48.911,68.76,68.76,0,0,0,8.811-19.115l.844-2.96a68.455,68.455,0,0,0-.279-38.545l-7.5-24.958A71.968,71.968,0,0,1,264,239.019V192a96,96,0,0,0-192,0v58.265l-6.308,48.263a68.463,68.463,0,0,0,10.267,45.877A50.3,50.3,0,0,0,32,394.239V488A8,8,0,0,0,40,496Zm8-62.027,24.918,5.537A52.555,52.555,0,0,0,87.588,480H48ZM251.727,264.356l7.5,24.959a52.5,52.5,0,0,1,.214,29.552l-.844,2.96a52.717,52.717,0,0,1-12.827,22.2l-26.123.085-6.082-32.372A71.681,71.681,0,0,0,240,256v-.29a27.765,27.765,0,0,0,9.088-2.968A87.928,87.928,0,0,0,251.727,264.356ZM240,239.314V216.686a12,12,0,0,1,0,22.628ZM224,208v48a55.706,55.706,0,0,1-13.83,36.845,42.8,42.8,0,0,0-38.7-36.692l-2.313-2.314,6.436-19.309a8,8,0,1,0-15.178-5.06l-8,24a7.989,7.989,0,0,0,.151,5.466,42.832,42.832,0,0,0-26.732,33.91A55.711,55.711,0,0,1,112,256V202.422l26.564-39.846,45.841,25.467a251.334,251.334,0,0,0,39.6,17.7Zm-82.592,89.383a7.857,7.857,0,0,0,.114-.864,26.556,26.556,0,0,1,52.956,0,7.857,7.857,0,0,0,.114.864L206.357,360h-4.111l-10.485-41.94a8,8,0,1,0-15.522,3.88L189.754,376H146.246l13.515-54.06a8,8,0,0,0-15.522-3.88L133.754,360h-4.111ZM166.935,392l3.886,22.02-2.579,3.684L151.515,392Zm31.777,88-15.53-88H200a8,8,0,0,0,7.761-9.94L206.246,376h.474l30.588,104Zm47.277-27.189-12.516-42.556,8.553,14.257A36.73,36.73,0,0,1,245.989,452.811ZM288,480H253.986l-1.428-4.853a52.411,52.411,0,0,0,10.524-35.637L288,433.973Zm0-85.761v23.344l-28.5,6.333a52.34,52.34,0,0,0-3.753-7.636l-12.237-20.4a8,8,0,0,0-14.07.656l-7-23.809a7.989,7.989,0,0,0,1.426-6.208l-1.206-6.422,31.1-.1A34.278,34.278,0,0,1,288,394.239ZM81.558,300.6l6.375-48.779A7.99,7.99,0,0,0,88,250.785V192a80,80,0,0,1,160,0v10.707a27.786,27.786,0,0,0-8-2.417V200a8,8,0,0,0-5.47-7.589l-2.61-.87a235.255,235.255,0,0,1-39.745-17.484l-52.29-29.05a8,8,0,0,0-10.541,2.555l-32,48A7.993,7.993,0,0,0,96,200v56a71.687,71.687,0,0,0,26.431,55.739l-5.725,30.468L95.3,343.314A52.512,52.512,0,0,1,81.558,300.6Zm.681,59.4c.138,0,.276,0,.413-.011l31.015-1.6-1.529,8.138A8,8,0,0,0,120,376h9.754s-1.577,5.628-1.624,6.633a7.927,7.927,0,0,0,3.4,7.992l29.764,45.738a8,8,0,0,0,6.57,3.636H168a8,8,0,0,0,6.554-3.412l.2-.285,7.711,43.7H125.391a36.637,36.637,0,0,1-31.417-55.488l12.237-20.4a8,8,0,0,0-13.72-8.232l-12.237,20.4a52.29,52.29,0,0,0-3.753,7.636L48,417.583V394.239A34.278,34.278,0,0,1,82.239,360Z"/></g></svg>