<?xml version="1.0" ?><svg viewBox="0 0 512 512" xmlns="http://www.w3.org/2000/svg"><g data-name="filled outline" id="filled_outline"><path d="M52,24H460a28,28,0,0,1,28,28V376a0,0,0,0,1,0,0H24a0,0,0,0,1,0,0V52A28,28,0,0,1,52,24Z" style="fill:#0094f6"/><path d="M364,344H142l3-224h31V56H400V308A36,36,0,0,1,364,344Z" style="fill:#dbdbdb"/><rect height="160" style="fill:#fbb540" width="160" x="208" y="88"/><path d="M321.062,196a7.976,7.976,0,0,1-3.993-1.072l-20.785-12a8,8,0,0,1,8-13.858l20.785,12A8,8,0,0,1,321.062,196Z" style="fill:#c75b93"/><path d="M300.292,168a8,8,0,0,1-4.008-14.93l20.785-12a8,8,0,1,1,8,13.858l-20.785,12A7.978,7.978,0,0,1,300.292,168Z" style="fill:#c75b93"/><path d="M286.428,160a8,8,0,0,1-8-8V128a8,8,0,0,1,16,0v24A8,8,0,0,1,286.428,160Z" style="fill:#c75b93"/><circle cx="286.428" cy="120" r="13" style="fill:#e46ca5"/><path d="M272.563,168a7.966,7.966,0,0,1-3.992-1.073l-20.784-12a8,8,0,1,1,8-13.856l20.784,12A8,8,0,0,1,272.563,168Z" style="fill:#c75b93"/><circle cx="244.859" cy="144" r="16" style="fill:#e46ca5"/><path d="M251.8,196a8,8,0,0,1-4.008-14.929l20.784-12a8,8,0,1,1,8,13.856l-20.784,12A7.969,7.969,0,0,1,251.8,196Z" style="fill:#c75b93"/><circle cx="244.859" cy="192" r="13" style="fill:#e46ca5"/><path d="M286.428,216a8,8,0,0,1-8-8V184a8,8,0,0,1,16,0v24A8,8,0,0,1,286.428,216Z" style="fill:#c75b93"/><circle cx="286.428" cy="216" r="16" style="fill:#e46ca5"/><circle cx="327.997" cy="192" r="13" style="fill:#e46ca5"/><circle cx="327.997" cy="144" r="16" style="fill:#e46ca5"/><rect height="16" style="fill:#c3c3c3" width="64" x="200" y="272"/><rect height="16" style="fill:#c3c3c3" width="16" x="280" y="272"/><rect height="16" style="fill:#c3c3c3" width="56" x="312" y="272"/><rect height="16" style="fill:#c3c3c3" width="32" x="200" y="304"/><rect height="16" style="fill:#c3c3c3" width="88" x="248" y="304"/><path d="M144,344h0a32,32,0,0,1-32-32V120h32V88h32V312A32,32,0,0,1,144,344Z" style="fill:#c3c3c3"/><path d="M152,88V312a8,8,0,0,1-16,0V88Z" style="fill:#a8a8a8"/><path d="M24,376H488a0,0,0,0,1,0,0v20a28,28,0,0,1-28,28H52a28,28,0,0,1-28-28V376A0,0,0,0,1,24,376Z" style="fill:#e4e4e2"/><path d="M160,456H352a16,16,0,0,1,16,16v16a0,0,0,0,1,0,0H144a0,0,0,0,1,0,0V472A16,16,0,0,1,160,456Z" style="fill:#e4e4e2"/><path d="M312,424H280a24,24,0,0,1-48,0H200l-8,32H320Z" style="fill:#b9b9b9"/><polygon points="232 424 232 424 280 424 232 424" style="fill:#b9b9b9"/><rect height="16" style="fill:#02a437" width="16" x="432" y="392"/><rect height="16" style="fill:#f55648" width="16" x="400" y="392"/><path d="M64,64H56a8,8,0,0,1,0-16h8a8,8,0,0,1,0,16Z" style="fill:#8ed2ff"/><path d="M128,64H96a8,8,0,0,1,0-16h32a8,8,0,0,1,0,16Z" style="fill:#8ed2ff"/><circle cx="286.428" cy="168" r="16" style="fill:#e46ca5"/><path d="M460,16H52A36.04,36.04,0,0,0,16,52V396a36.04,36.04,0,0,0,36,36H189.754l-4,16H160a24.028,24.028,0,0,0-24,24v16a8,8,0,0,0,8,8H368a8,8,0,0,0,8-8V472a24.028,24.028,0,0,0-24-24H326.246l-4-16H460a36.04,36.04,0,0,0,36-36V52A36.04,36.04,0,0,0,460,16ZM32,52A20.023,20.023,0,0,1,52,32H460a20.023,20.023,0,0,1,20,20V368H32ZM206.246,432h18.767a32.044,32.044,0,0,0,9.842,16H202.246ZM256,440a16,16,0,0,1-13.835-8h27.67A16,16,0,0,1,256,440Zm104,32v8H152v-8a8.009,8.009,0,0,1,8-8H352A8.009,8.009,0,0,1,360,472Zm-50.246-24H277.145a32.044,32.044,0,0,0,9.842-16h18.767ZM480,396a20.023,20.023,0,0,1-20,20H52a20.023,20.023,0,0,1-20-20V384H480Z"/><rect height="16" width="16" x="432" y="392"/><rect height="16" width="16" x="400" y="392"/><path d="M64,48H56a8,8,0,0,0,0,16h8a8,8,0,0,0,0-16Z"/><path d="M136,56a8,8,0,0,0-8-8H96a8,8,0,0,0,0,16h32A8,8,0,0,0,136,56Z"/><path d="M336,157.856a16,16,0,1,0-23.987-13.864l-10,5.775a24.023,24.023,0,0,0-7.58-4.391V130.233a13,13,0,1,0-16,0v15.144a24.006,24.006,0,0,0-7.581,4.391l-10-5.774a16,16,0,1,0-8,13.856l9.989,5.767a23.757,23.757,0,0,0,0,8.768l-13.115,7.572a13,13,0,1,0,8,13.855l13.126-7.578a24.006,24.006,0,0,0,7.581,4.391v11.534a16,16,0,1,0,16,0V190.624a24.023,24.023,0,0,0,7.58-4.391l13.128,7.579a13,13,0,1,0,8-13.857l-13.116-7.572a23.747,23.747,0,0,0,0-8.766l9.99-5.767A15.98,15.98,0,0,0,336,157.856ZM278.428,168a8,8,0,1,1,8,8A8.009,8.009,0,0,1,278.428,168Z"/><path d="M208,256H368a8,8,0,0,0,8-8V88a8,8,0,0,0-8-8H208a8,8,0,0,0-8,8V248A8,8,0,0,0,208,256Zm8-160H360V240H216Z"/><rect height="16" width="64" x="200" y="272"/><rect height="16" width="16" x="280" y="272"/><rect height="16" width="56" x="312" y="272"/><rect height="16" width="32" x="200" y="304"/><rect height="16" width="88" x="248" y="304"/><path d="M400,48H176a8,8,0,0,0-8,8V80H144a8,8,0,0,0-8,8v24H112a8,8,0,0,0-8,8V312a40.045,40.045,0,0,0,40,40H364a44.049,44.049,0,0,0,44-44V56A8,8,0,0,0,400,48ZM168,312a24,24,0,0,1-48,0V128h16V312a8,8,0,0,0,16,0V96h16Zm224-4a28.032,28.032,0,0,1-28,28H175.981A39.792,39.792,0,0,0,184,312V64H392Z"/></g></svg>