<?xml version="1.0" ?><svg viewBox="0 0 512 512" xmlns="http://www.w3.org/2000/svg"><g data-name="filled outline" id="filled_outline"><rect height="464" rx="24" style="fill:#e4e4e2" width="272" x="120" y="24"/><rect height="384" style="fill:#41b2ff" width="272" x="120" y="56"/><path d="M260,312H208V288l-32,24H164a12,12,0,0,0-12,12v72a12,12,0,0,0,12,12h96a12,12,0,0,0,12-12V324A12,12,0,0,0,260,312Z" style="fill:#fbb540"/><path d="M341.657,300.269l-11.314-11.314L344,275.3V232h16v46.612a8,8,0,0,1-2.343,5.657Z" style="fill:#0094f6"/><path d="M184,246.612H164a12,12,0,0,1-12-12v-24a12,12,0,0,1,12-12h20Z" style="fill:#0a71cd"/><path d="M328,246.612h20a12,12,0,0,0,12-12v-24a12,12,0,0,0-12-12H328Z" style="fill:#0a71cd"/><path d="M352,240H336V178.612a84,84,0,1,0-168,0V232H152V178.612a100,100,0,1,1,200,0Z" style="fill:#0a71cd"/><rect height="48" rx="16" style="fill:#0a71cd" transform="translate(381.792 -133.352) rotate(54.083)" width="32" x="305.52" y="283.306"/><rect height="16" style="fill:#ea9d2d" width="16" x="176" y="336"/><rect height="16" style="fill:#ea9d2d" width="40" x="208" y="336"/><rect height="16" style="fill:#ea9d2d" width="24" x="176" y="368"/><path d="M272,472H240a8,8,0,0,1,0-16h32a8,8,0,0,1,0,16Z" style="fill:#c3c3c3"/><rect height="16" style="fill:#ea9d2d" width="16" x="216" y="368"/><rect height="80" rx="24" style="fill:#0094f6" width="48" x="176" y="182.612"/><rect height="80" rx="24" style="fill:#0094f6" transform="translate(624 445.224) rotate(180)" width="48" x="288" y="182.612"/><path d="M144,496H368a32.036,32.036,0,0,0,32-32V48a32.036,32.036,0,0,0-32-32H144a32.036,32.036,0,0,0-32,32V464A32.036,32.036,0,0,0,144,496Zm224-16H144a16.019,16.019,0,0,1-16-16V448H384v16A16.019,16.019,0,0,1,368,480ZM128,64H384V432H128Zm16-32H368a16.019,16.019,0,0,1,16,16H128A16.019,16.019,0,0,1,144,32Z"/><path d="M352,191.015v-12.4a100,100,0,1,0-200,0V194.65a19.96,19.96,0,0,0-8,15.962v24a20.023,20.023,0,0,0,20,20h8.305a31.989,31.989,0,0,0,59.695-16v-32a31.989,31.989,0,0,0-59.695-16H168v-12a84,84,0,1,1,168,0v6.868a31.979,31.979,0,0,0-56,21.132v32a31.989,31.989,0,0,0,59.695,16H344V275.3l-5.656,5.657a24.078,24.078,0,0,0-6.556-2.041,23.826,23.826,0,0,0-17.867,4.262l-12.959,9.386a24.029,24.029,0,0,0-5.358,33.516h0a24.023,24.023,0,0,0,33.515,5.358l12.959-9.386a24.037,24.037,0,0,0,7.575-29.777l8-8A8,8,0,0,0,360,278.612V250.574a19.96,19.96,0,0,0,8-15.962v-24A20.033,20.033,0,0,0,352,191.015Zm-152-.4a16.019,16.019,0,0,1,16,16v32a16,16,0,0,1-32,0v-32A16.019,16.019,0,0,1,200,190.612Zm-32,48h-4a4,4,0,0,1-4-4v-24a4,4,0,0,1,4-4h4Zm144,16a16.019,16.019,0,0,1-16-16v-32a16,16,0,1,1,32,0v32A16.019,16.019,0,0,1,312,254.612Zm32-48h4a4,4,0,0,1,4,4v24a4,4,0,0,1-4,4h-4Zm-11.308,102.48-12.958,9.386a8.009,8.009,0,0,1-11.172-1.786h0a8.009,8.009,0,0,1,1.786-11.172l12.959-9.386a8,8,0,1,1,9.385,12.958Z"/><rect height="16" width="16" x="176" y="336"/><rect height="16" width="40" x="208" y="336"/><rect height="16" width="24" x="176" y="368"/><path d="M260,304H216V288a8,8,0,0,0-12.8-6.4L173.333,304H164a20.023,20.023,0,0,0-20,20v72a20.023,20.023,0,0,0,20,20h96a20.023,20.023,0,0,0,20-20V324A20.023,20.023,0,0,0,260,304Zm4,92a4,4,0,0,1-4,4H164a4,4,0,0,1-4-4V324a4,4,0,0,1,4-4h12a8,8,0,0,0,4.8-1.6L200,304v8a8,8,0,0,0,8,8h52a4,4,0,0,1,4,4Z"/><path d="M272,456H240a8,8,0,0,0,0,16h32a8,8,0,0,0,0-16Z"/><rect height="16" width="16" x="216" y="368"/></g></svg>