<?xml version="1.0" ?><svg viewBox="0 0 512 512" xmlns="http://www.w3.org/2000/svg"><g data-name="filled outline" id="filled_outline"><path d="M182.719,169.534a8,8,0,0,0-11.178,1.754,144.6,144.6,0,0,0-10.6,16.882,8,8,0,1,0,14.11,7.547,128.065,128.065,0,0,1,9.418-15.005A8,8,0,0,0,182.719,169.534Z" style="fill:#bce1ff"/><path d="M160.327,208.353a8,8,0,0,0-10,5.3,143.857,143.857,0,0,0-4.095,16.948,8,8,0,1,0,15.752,2.8,127.562,127.562,0,0,1,3.638-15.052A8,8,0,0,0,160.327,208.353Z" style="fill:#bce1ff"/><path d="M444.438,217.344a8,8,0,0,0-11.094,2.218L428.9,226.23A144.551,144.551,0,0,0,389.647,154a8,8,0,0,0-11.294,11.334,128.448,128.448,0,0,1,35.288,66.144l-9.2-6.135a8,8,0,1,0-8.876,13.312l24,16a8,8,0,0,0,11.094-2.218l16-24A8,8,0,0,0,444.438,217.344Z" style="fill:#bce1ff"/><path d="M269.3,319.706A53.629,53.629,0,0,0,216,272h0a92.889,92.889,0,0,1-56.871,53.624L152,328l-7.129-2.376A92.889,92.889,0,0,1,88,272h0a53.629,53.629,0,0,0-53.3,47.706L32,344h0a40.793,40.793,0,0,1,48,32h0l15.608-3.9a40.793,40.793,0,0,1,30.881,4.595L152,392l25.511-15.307a40.793,40.793,0,0,1,30.881-4.595L224,376h0a40.793,40.793,0,0,1,48-32h0Z" style="fill:#007af6"/><path d="M104.91,299.31,45.84,343.62h-.01a39.763,39.763,0,0,0-5.79-.42A40.969,40.969,0,0,0,32,344l1.21-10.91,62.13-46.6A91.135,91.135,0,0,0,104.91,299.31Z" style="fill:#007af6"/><path d="M120.37,313.16,90.23,373.44,80,376a40.512,40.512,0,0,0-3.67-10.56l31.51-63A91.515,91.515,0,0,0,120.37,313.16Z" style="fill:#007af6"/><path d="M227.67,365.44A40.512,40.512,0,0,0,224,376l-10.23-2.56-30.14-60.28a90.789,90.789,0,0,0,9.85-8.08c.91-.86,1.81-1.74,2.68-2.64Z" style="fill:#007af6"/><path d="M272,344a40.969,40.969,0,0,0-8.04-.8,39.763,39.763,0,0,0-5.79.42l-59.08-44.31a91.135,91.135,0,0,0,9.57-12.82l62.13,46.6Z" style="fill:#007af6"/><circle cx="288.945" cy="120" r="96" style="fill:#f7ba61"/><path d="M289.745,104a8,8,0,0,1-8-8V72a8,8,0,0,1,16,0V96A8,8,0,0,1,289.745,104Z" style="fill:#c75b93"/><path d="M272.774,111.029a7.981,7.981,0,0,1-5.657-2.342L250.146,91.716A8,8,0,1,1,261.461,80.4l16.971,16.971a8,8,0,0,1-5.658,13.657Z" style="fill:#c75b93"/><path d="M265.745,128h-24a8,8,0,0,1,0-16h24a8,8,0,0,1,0,16Z" style="fill:#c75b93"/><path d="M255.8,161.941a8,8,0,0,1-5.658-13.657l16.971-16.971a8,8,0,0,1,11.315,11.315L261.461,159.6A7.979,7.979,0,0,1,255.8,161.941Z" style="fill:#c75b93"/><path d="M289.745,176a8,8,0,0,1-8-8V144a8,8,0,0,1,16,0v24A8,8,0,0,1,289.745,176Z" style="fill:#c75b93"/><path d="M323.686,161.941a7.981,7.981,0,0,1-5.658-2.342l-16.97-16.971a8,8,0,0,1,11.314-11.315l16.971,16.971a8,8,0,0,1-5.657,13.657Z" style="fill:#c75b93"/><path d="M337.745,128h-24a8,8,0,0,1,0-16h24a8,8,0,0,1,0,16Z" style="fill:#c75b93"/><path d="M306.715,111.029a8,8,0,0,1-5.657-13.657L318.028,80.4a8,8,0,1,1,11.315,11.315l-16.971,16.971A7.977,7.977,0,0,1,306.715,111.029Z" style="fill:#c75b93"/><circle cx="289.745" cy="120" r="24" style="fill:#f388a2"/><circle cx="289.745" cy="64" r="16" style="fill:#f388a2"/><circle cx="250.147" cy="80.402" r="16" style="fill:#f388a2"/><circle cx="233.745" cy="120" r="16" style="fill:#f388a2"/><circle cx="250.147" cy="159.598" r="16" style="fill:#f388a2"/><circle cx="289.745" cy="176" r="16" style="fill:#f388a2"/><circle cx="329.343" cy="159.598" r="16" style="fill:#f388a2"/><circle cx="345.745" cy="120" r="16" style="fill:#f388a2"/><circle cx="329.343" cy="80.402" r="16" style="fill:#f388a2"/><path d="M152,312h0a24,24,0,0,1-24-24V264l24,16,24-16v24A24,24,0,0,1,152,312Z" style="fill:#0860ae"/><path d="M153.373,390.627,152,392l-1.373-1.373A77.254,77.254,0,0,1,128,336h0a24,24,0,0,1,24-24h0a24,24,0,0,1,24,24h0A77.254,77.254,0,0,1,153.373,390.627Z" style="fill:#0860ae"/><path d="M104.91,299.31,45.84,343.62h-.01a39.763,39.763,0,0,0-5.79-.42A40.969,40.969,0,0,0,32,344l1.21-10.91,62.13-46.6A91.135,91.135,0,0,0,104.91,299.31Z" style="fill:#0860ae"/><path d="M120.37,313.16,90.23,373.44,80,376a40.512,40.512,0,0,0-3.67-10.56l31.51-63A91.515,91.515,0,0,0,120.37,313.16Z" style="fill:#0860ae"/><path d="M272,344a40.969,40.969,0,0,0-8.04-.8,39.763,39.763,0,0,0-5.79.42l-59.08-44.31a91.135,91.135,0,0,0,9.57-12.82l62.13,46.6Z" style="fill:#0860ae"/><path d="M227.67,365.44A40.512,40.512,0,0,0,224,376l-10.23-2.56-30.14-60.28a90.789,90.789,0,0,0,9.85-8.08c.91-.86,1.81-1.74,2.68-2.64Z" style="fill:#0860ae"/><path d="M456,344H392a24,24,0,0,0-24,24v27.6A12.262,12.262,0,0,0,379.775,408,12,12,0,0,0,392,396v84h64V396a12,12,0,0,0,12.225,12A12.262,12.262,0,0,0,480,395.6V368A24,24,0,0,0,456,344Z" style="fill:#0094f6"/><circle cx="424" cy="312" r="32" style="fill:#0094f6"/><rect height="64" style="fill:#0a71cd" width="16" x="416" y="416"/><path d="M392,368v28a11.985,11.985,0,0,1-8,11.31V368Z" style="fill:#0a71cd"/><path d="M464,368v39.31A11.985,11.985,0,0,1,456,396V368Z" style="fill:#0a71cd"/><path d="M424,272a39.978,39.978,0,0,0-31.978,64H392a32.036,32.036,0,0,0-32,32v35.6a20.035,20.035,0,0,0,24,20V488a8,8,0,0,0,8,8h64a8,8,0,0,0,8-8V423.6a20.035,20.035,0,0,0,24-20V368a32.036,32.036,0,0,0-32-32h-.022A39.978,39.978,0,0,0,424,272Zm-24,40a24,24,0,1,1,24,24A24.028,24.028,0,0,1,400,312Zm72,56v35.6a4.288,4.288,0,0,1-3.922,4.4,3.858,3.858,0,0,1-2.88-1.145A3.98,3.98,0,0,1,464,404V368H448V480H432V416H416v64H400V368H384v36a4,4,0,0,1-4,4h-.078A4.288,4.288,0,0,1,376,403.6V368a16.019,16.019,0,0,1,16-16h64A16.019,16.019,0,0,1,472,368Z"/><path d="M345.745,104a15.982,15.982,0,0,0-13.843,8h-11.17a31.811,31.811,0,0,0-3.431-8.242l7.911-7.911A16,16,0,1,0,313.9,84.532l-7.912,7.912a31.784,31.784,0,0,0-8.241-3.431V77.842a16,16,0,1,0-16,0V89.013a31.8,31.8,0,0,0-8.241,3.431l-7.912-7.912a16,16,0,1,0-11.315,11.315l7.912,7.912A31.8,31.8,0,0,0,258.758,112H247.587a16,16,0,1,0,0,16h11.171a31.8,31.8,0,0,0,3.431,8.241l-7.912,7.912a16,16,0,1,0,11.315,11.315l7.912-7.912a31.8,31.8,0,0,0,8.241,3.431v11.171a16,16,0,1,0,16,0V150.987a31.784,31.784,0,0,0,8.241-3.431l7.912,7.912a16,16,0,1,0,11.314-11.315l-7.911-7.911A31.811,31.811,0,0,0,320.732,128H331.9a16,16,0,1,0,13.843-24Zm-56,32a16,16,0,1,1,16-16A16.019,16.019,0,0,1,289.745,136Z"/><path d="M175.055,195.717a128.065,128.065,0,0,1,9.418-15.005,8,8,0,1,0-12.932-9.424,144.6,144.6,0,0,0-10.6,16.882,8,8,0,1,0,14.11,7.547Z"/><path d="M160.327,208.353a8,8,0,0,0-10,5.3,143.857,143.857,0,0,0-4.095,16.948,8,8,0,1,0,15.752,2.8,127.562,127.562,0,0,1,3.638-15.052A8,8,0,0,0,160.327,208.353Z"/><path d="M444.438,217.344a8,8,0,0,0-11.094,2.218L428.9,226.23A144.551,144.551,0,0,0,389.647,154a7.954,7.954,0,0,0-1.935-1.422,104.214,104.214,0,1,0-6.616,15.586,128.475,128.475,0,0,1,32.545,63.314l-9.2-6.135a8,8,0,1,0-8.876,13.312l24,16a8,8,0,0,0,11.094-2.218l16-24A8,8,0,0,0,444.438,217.344ZM288.944,208a88,88,0,1,1,88-88A88.1,88.1,0,0,1,288.944,208Z"/><path d="M279.951,343.116l-2.7-24.294A61.565,61.565,0,0,0,216,264a8,8,0,0,0-7.428,5.028A84.9,84.9,0,0,1,176.9,308.073,31.845,31.845,0,0,0,184,288V264a8,8,0,0,0-12.438-6.656L152,270.385l-19.562-13.041A8,8,0,0,0,120,264v24a31.84,31.84,0,0,0,7.105,20.074,84.89,84.89,0,0,1-31.677-39.046A8,8,0,0,0,88,264a61.565,61.565,0,0,0-61.252,54.822l-2.7,24.294a8,8,0,0,0,9.519,8.729,32.791,32.791,0,0,1,38.587,25.723,8,8,0,0,0,9.785,6.193l15.607-3.9a32.571,32.571,0,0,1,24.825,3.695l25.512,15.306a8,8,0,0,0,8.232,0l25.512-15.307a32.586,32.586,0,0,1,24.824-3.695l15.608,3.9a8,8,0,0,0,9.785-6.193,32.791,32.791,0,0,1,38.587-25.723,8,8,0,0,0,9.519-8.729Zm-58.828-62.832A45.582,45.582,0,0,1,261.35,320.59l.657,5.915-46.919-35.189A100.721,100.721,0,0,0,221.123,280.284ZM168,336a68.736,68.736,0,0,1-16,44.284A68.736,68.736,0,0,1,136,336a16,16,0,0,1,32,0Zm-32-57.052,11.562,7.708a8,8,0,0,0,8.876,0L168,278.948V288a16,16,0,0,1-32,0Zm-53.123,1.336a100.721,100.721,0,0,0,6.035,11.032L41.993,326.505l.657-5.915A45.582,45.582,0,0,1,82.877,280.284ZM54.214,337.34,98.5,304.129q2.667,3.033,5.574,5.844L80.59,356.932A49.086,49.086,0,0,0,54.214,337.34Zm40.7,26.717,21.832-43.664c1.82,1.262,3.691,2.457,5.6,3.6A31.809,31.809,0,0,0,120,336a70.882,70.882,0,0,0,7.175,31.97A48.358,48.358,0,0,0,94.916,364.057Zm81.91,3.912A70.887,70.887,0,0,0,184,336a31.818,31.818,0,0,0-2.346-12.007c1.907-1.144,3.778-2.339,5.6-3.6l21.833,43.664A48.393,48.393,0,0,0,176.826,367.969Zm46.584-11.037-23.479-46.959q2.9-2.811,5.573-5.845l44.283,33.213A49.1,49.1,0,0,0,223.41,356.932Z"/></g></svg>