<?xml version="1.0" ?><svg viewBox="0 0 512 512" xmlns="http://www.w3.org/2000/svg"><g data-name="filled outline" id="filled_outline"><polygon points="24 304 24 264 160 320 112 328 24 304" style="fill:#e8c8b3"/><path d="M280,259.7a47.98,47.98,0,0,0-42,24.769,32,32,0,1,0,0,46.461A48,48,0,1,0,280,259.7Z" style="fill:#63d5ee"/><path d="M24,304l80,16,13.1-15.723a136.362,136.362,0,0,1,67.3-43.819h0a19.55,19.55,0,0,1,22.858,10.055h0a19.551,19.551,0,0,1-8.743,26.231h0a48.669,48.669,0,0,0-21.769,21.769L176,320h24V448H121.4a42,42,0,0,1-29.7-12.3L72,416,24,400Z" style="fill:#f5d3bd"/><path d="M280,352H200V320h80a16,16,0,0,1,16,16h0A16,16,0,0,1,280,352Z" style="fill:#f5d3bd"/><path d="M293.86,344a16.152,16.152,0,0,1-2.54,3.32A15.987,15.987,0,0,1,280,352H216v-8Z" style="fill:#f5d3bd"/><path d="M296,384H200V352h96a16,16,0,0,1,16,16h0A16,16,0,0,1,296,384Z" style="fill:#f5d3bd"/><path d="M280,416H200V384h80a16,16,0,0,1,16,16h0A16,16,0,0,1,280,416Z" style="fill:#f5d3bd"/><path d="M264,448H200V416h64a16,16,0,0,1,16,16h0A16,16,0,0,1,264,448Z" style="fill:#f5d3bd"/><path d="M232,392a16,16,0,0,0-16,16,16,16,0,0,0-32,0v8a16,16,0,0,0-32,0v8a16,16,0,0,0-32,0v40a16,16,0,0,0,32,0v-8a16,16,0,0,0,32,0v-8a16,16,0,0,0,32,0v-8a16,16,0,0,0,32,0V408A16,16,0,0,0,232,392Z" style="fill:#e8c8b3"/><path d="M456,80H392V38a14,14,0,0,1,14-14h36a14,14,0,0,1,14,14Z" style="fill:#e4e4e2"/><polygon points="392 40 320 40 320 40.165 277.634 88 304 106.133 336 72 392 72 392 40" style="fill:#e4e4e2"/><rect height="64" style="fill:#c3c3c3" width="32" x="408" y="80"/><rect height="16" style="fill:#a8a8a8" width="32" x="408" y="80"/><rect height="32" style="fill:#e4e4e2" width="80" x="384" y="144"/><path d="M384,176h80a24,24,0,0,1,24,24V416a0,0,0,0,1,0,0H360a0,0,0,0,1,0,0V200A24,24,0,0,1,384,176Z" style="fill:#0c82ed"/><path d="M270.125,177.416h0a17.8,17.8,0,0,0,19.75,0h0a17.8,17.8,0,0,0,5.391-23.972L280,128l-15.266,25.444A17.8,17.8,0,0,0,270.125,177.416Z" style="fill:#009cf7"/><circle cx="216" cy="216" r="16" style="fill:#63d5ee"/><circle cx="144" cy="168" r="24" style="fill:#63d5ee"/><circle cx="352" cy="424" r="24" style="fill:#63d5ee"/><circle cx="352" cy="424" r="16" style="fill:#6ae4ff"/><circle cx="144" cy="168" r="16" style="fill:#6ae4ff"/><circle cx="216" cy="216" r="8" style="fill:#6ae4ff"/><path d="M302.635,307.705a8,8,0,0,1-7.543-5.336,16.007,16.007,0,0,0-25.756-6.594,8,8,0,1,1-10.672-11.921,32.007,32.007,0,0,1,51.514,13.183,8.007,8.007,0,0,1-7.543,10.668Z" style="fill:#6ae4ff"/><rect height="112" style="fill:#009cf7" width="88" x="400" y="240"/><path d="M400,216h-8a8,8,0,0,1,0-16h8a8,8,0,0,1,0,16Z" style="fill:#009cf7"/><path d="M456,216H432a8,8,0,0,1,0-16h24a8,8,0,0,1,0,16Z" style="fill:#009cf7"/><path d="M488,392H416a8,8,0,0,1,0-16h72a8,8,0,0,1,0,16Z" style="fill:#009cf7"/><path d="M384,392H360a8,8,0,0,1,0-16h24a8,8,0,0,1,0,16Z" style="fill:#009cf7"/><rect height="32" style="fill:#c3c3c3" width="16" x="376" y="40"/><path d="M293.86,344a16.152,16.152,0,0,1-2.54,3.32A15.987,15.987,0,0,1,280,352H220a4,4,0,0,1-4-4h0a4,4,0,0,1,4-4Z" style="fill:#e8c8b3"/><path d="M309.86,376a16.152,16.152,0,0,1-2.54,3.32A15.987,15.987,0,0,1,296,384H220a4,4,0,0,1-4-4h0a4,4,0,0,1,4-4Z" style="fill:#e8c8b3"/><path d="M293.86,408a16.152,16.152,0,0,1-2.54,3.32A15.987,15.987,0,0,1,280,416H200v-8Z" style="fill:#e8c8b3"/><path d="M277.86,440a16.152,16.152,0,0,1-2.54,3.32A15.987,15.987,0,0,1,264,448H184v-8Z" style="fill:#e8c8b3"/><path d="M232,400a16,16,0,0,0-16,16,16,16,0,0,0-32,0v8a16,16,0,0,0-32,0v8a16,16,0,0,0-32,0v40a16,16,0,0,0,32,0v-8a16,16,0,0,0,32,0v-8a16,16,0,0,0,32,0v-8a16,16,0,0,0,32,0V416A16,16,0,0,0,232,400Z" style="fill:#f5d3bd"/><path d="M21.47,407.589l46.209,15.4,18.362,18.363a49.943,49.943,0,0,0,24.169,13.378,7.962,7.962,0,0,0,1.79.2V472a23.99,23.99,0,0,0,44.223,12.9,23.952,23.952,0,0,0,32-8,23.952,23.952,0,0,0,32-8,23.973,23.973,0,0,0,34.4-12.9H264a24,24,0,0,0,22.312-32.842,24,24,0,0,0,16-32,23.969,23.969,0,0,0,11.72-38.958,56.008,56.008,0,1,0-78.027-79.138,39.81,39.81,0,0,0-20-5.359,7.931,7.931,0,0,0-1.182.1c-.133-.29-.264-.579-.407-.865a27.562,27.562,0,0,0-32.21-14.17,143.715,143.715,0,0,0-63.333,37.661l-92.1-33.933A8,8,0,0,0,16,264V400A8,8,0,0,0,21.47,407.589ZM144,472a8,8,0,0,1-16,0V432a8,8,0,0,1,16,0v40Zm32-8a8,8,0,0,1-16,0V424a8,8,0,0,1,16,0v40Zm32-8a8,8,0,0,1-16,0V416a8,8,0,0,1,16,0v40Zm24,0a8.009,8.009,0,0,1-8-8V416a8,8,0,0,1,16,0v32A8.009,8.009,0,0,1,232,456Zm32-16h-8V424h8a8,8,0,0,1,0,16ZM215.907,287.969a27.926,27.926,0,0,0,1.047-4.221,23.875,23.875,0,0,1,15.54,6.533,8,8,0,0,0,12.5-1.93,40,40,0,1,1,58.659,51.613A23.894,23.894,0,0,0,280,312H191.064a40.752,40.752,0,0,1,11.027-8.1A27.372,27.372,0,0,0,215.907,287.969ZM186.6,268.15a11.551,11.551,0,0,1,8.34,21.438,57.025,57.025,0,0,0-25.346,25.345l-.744,1.487A8,8,0,0,0,176,328H280a8,8,0,0,1,0,16H224a8,8,0,0,0,0,16h72a8,8,0,0,1,0,16H224a8,8,0,0,0,0,16h56a8,8,0,0,1,0,16H254.624A23.977,23.977,0,0,0,216,398.131a23.959,23.959,0,0,0-36.223,4.97,23.952,23.952,0,0,0-32,8A23.982,23.982,0,0,0,112,432v6.661a33.961,33.961,0,0,1-14.645-8.619l-19.7-19.7a8,8,0,0,0-3.127-1.932L32,394.234V313.758l70.431,14.087a8,8,0,0,0,7.715-2.723l13.1-15.724A127.867,127.867,0,0,1,186.6,268.15Zm-79.087,35.142-6.608,7.93L32,297.441V275.473Z"/><path d="M472,169.013V144a8,8,0,0,0-8-8H448V88h8a8,8,0,0,0,8-8V38a22.025,22.025,0,0,0-22-22H406a22.036,22.036,0,0,0-21.162,16H320a7.994,7.994,0,0,0-6.786,3.762L271.645,82.7a8,8,0,0,0,1.456,11.9l26.366,18.133a8,8,0,0,0,10.369-1.12L339.466,80H384a8,8,0,0,0,8,8h8v48H384a8,8,0,0,0-8,8v25.013A32.056,32.056,0,0,0,352,200V392a32,32,0,1,0,32,32H488a8,8,0,0,0,8-8V200A32.056,32.056,0,0,0,472,169.013ZM480,344H408V248h72ZM400,38a6.006,6.006,0,0,1,6-6h36a6.006,6.006,0,0,1,6,6V72H400ZM336,64a8,8,0,0,0-5.836,2.528l-27.3,29.117-13.248-9.111L323.748,48H384V64Zm80,24h16v48H416Zm-24,64h64v16H392ZM352,440a16,16,0,1,1,16-16A16.019,16.019,0,0,1,352,440ZM379.7,408A32.238,32.238,0,0,0,368,396.305V392h16a8,8,0,0,0,0-16H368V200a16.019,16.019,0,0,1,16-16h80a16.019,16.019,0,0,1,16,16v32H400a8,8,0,0,0-8,8V352a8,8,0,0,0,8,8h80v16H416a8,8,0,0,0,0,16h64v16Z"/><path d="M265.688,184.073a25.8,25.8,0,0,0,36.439-34.746L286.86,123.884a8,8,0,0,0-13.72,0l-15.267,25.444A25.773,25.773,0,0,0,265.688,184.073Zm5.906-26.513L280,143.549l8.406,14.01a9.8,9.8,0,1,1-16.812,0Z"/><path d="M216,240a24,24,0,1,0-24-24A24.027,24.027,0,0,0,216,240Zm0-32a8,8,0,1,1-8,8A8.009,8.009,0,0,1,216,208Z"/><path d="M144,200a32,32,0,1,0-32-32A32.036,32.036,0,0,0,144,200Zm0-48a16,16,0,1,1-16,16A16.019,16.019,0,0,1,144,152Z"/><path d="M269.336,295.775a16.007,16.007,0,0,1,25.756,6.594,8,8,0,0,0,15.086-5.332,32.007,32.007,0,0,0-51.514-13.183,8,8,0,1,0,10.672,11.921Z"/><path d="M400,216a8,8,0,0,0,0-16h-8a8,8,0,0,0,0,16Z"/><path d="M432,216h24a8,8,0,0,0,0-16H432a8,8,0,0,0,0,16Z"/></g></svg>