<?xml version="1.0" ?><svg viewBox="0 0 512 512" xmlns="http://www.w3.org/2000/svg"><g data-name="filled outline" id="filled_outline"><path d="M328,472H480V384a24,24,0,0,0-24-24H400V331.887a72,72,0,1,0-48,0V360H296a24,24,0,0,0-24,24v88h56" style="fill:#0094f6"/><path d="M248,112a80,80,0,1,0-97.258,78.113L168,216l17.258-25.887A80.015,80.015,0,0,0,248,112Z" style="fill:#f7ba61"/><rect height="80" style="fill:#007af6" width="32" x="224" y="240"/><path d="M216,344H168l8-32h40a16,16,0,0,1,16,16h0A16,16,0,0,1,216,344Z" style="fill:#e8c8b3"/><path d="M106.063,352.906,80,392H24v72H128V344h-5.3A20,20,0,0,0,106.063,352.906Z" style="fill:#f5d3bd"/><path d="M128,248v64l-8,152h48l6.951-133.109A20,20,0,0,1,194.92,312H224V248Z" style="fill:#e4e4e2"/><path d="M173.43,360l-1.67,32H168l-.71,2.12A31.984,31.984,0,0,1,136.94,416H122.53l2.94-56Z" style="fill:#e4e4e2"/><rect height="64" style="fill:#007af6" width="32" x="96" y="248"/><path d="M176,122.158V80a8,8,0,0,0-16,0v42.158a16,16,0,1,0,16,0Z" style="fill:#dc4d41"/><rect height="16" style="fill:#dc4d41" width="16" x="128" y="96"/><rect height="16" style="fill:#dc4d41" width="16" x="128" y="72"/><path d="M312,472V408a8,8,0,0,1,16,0v64Z" style="fill:#0a71cd"/><path d="M424,472V408a8,8,0,0,1,16,0v64Z" style="fill:#0a71cd"/><circle cx="349" cy="251" r="13" style="fill:#0a71cd"/><circle cx="405" cy="251" r="13" style="fill:#0a71cd"/><path d="M392,304H360a8,8,0,0,1,0-16h32a8,8,0,0,1,0,16Z" style="fill:#0a71cd"/><path d="M173.43,360l-1.67,32H168l-.71,2.12A31.984,31.984,0,0,1,136.94,416H122.53l2.94-56Z" style="fill:#cbcbcb"/><path d="M120,400h16.936a32,32,0,0,0,30.358-21.881L168,376h24a16,16,0,0,0,16-16h0a16,16,0,0,0-16-16H120Z" style="fill:#f5d3bd"/><rect height="32" rx="16" style="fill:#f5d3bd" width="40" x="160" y="376"/><path d="M197.86,384H162.14a16.152,16.152,0,0,1,2.54-3.32A15.987,15.987,0,0,1,176,376h8A15.994,15.994,0,0,1,197.86,384Z" style="fill:#f5d3bd"/><path d="M197.86,384H162.14a16.152,16.152,0,0,1,2.54-3.32A15.987,15.987,0,0,1,176,376h8A15.994,15.994,0,0,1,197.86,384Z" style="fill:#e8c8b3"/><rect height="32" rx="16" style="fill:#f5d3bd" width="40" x="160" y="408"/><path d="M197.86,416H162.14a16.152,16.152,0,0,1,2.54-3.32A15.987,15.987,0,0,1,176,408h8A15.994,15.994,0,0,1,197.86,416Z" style="fill:#e8c8b3"/><rect height="32" rx="16" style="fill:#f5d3bd" width="40" x="160" y="440"/><path d="M197.86,448H162.14a16.152,16.152,0,0,1,2.54-3.32A15.987,15.987,0,0,1,176,440h8A15.994,15.994,0,0,1,197.86,448Z" style="fill:#e8c8b3"/><rect height="64" style="fill:#cbcbcb" width="8" x="216" y="248"/><rect height="64" style="fill:#0a71cd" width="8" x="120" y="248"/><path d="M24,472H158.131A23.943,23.943,0,0,0,176,480h8a23.984,23.984,0,0,0,17.869-40,23.943,23.943,0,0,0,0-32,23.931,23.931,0,0,0,3.03-27.777A23.964,23.964,0,0,0,214.624,352H216a24.028,24.028,0,0,0,24-24h16a8,8,0,0,0,8-8V240a8,8,0,0,0-8-8H224a8,8,0,0,0-8,8H96a8,8,0,0,0-8,8v64a8,8,0,0,0,8,8h23.568l-.858,16.3a27.932,27.932,0,0,0-19.3,12.174L75.719,384H24a8,8,0,0,0-8,8v72A8,8,0,0,0,24,472Zm104.432-16,2.526-48h5.978a39.929,39.929,0,0,0,18.1-4.343,24.136,24.136,0,0,0,3.1,4.343,23.943,23.943,0,0,0,0,32A23.9,23.9,0,0,0,152,456ZM173.6,384H184a8,8,0,0,1,0,16h-8a8.007,8.007,0,0,1-7.919-6.923A39.905,39.905,0,0,0,173.6,384ZM192,424a8.009,8.009,0,0,1-8,8h-8a8,8,0,0,1,0-16h8A8.009,8.009,0,0,1,192,424Zm-8,40h-8a8,8,0,0,1,0-16h8a8,8,0,0,1,0,16Zm32-128H182.694l.244-4.666A12,12,0,0,1,194.92,320h23.641a7.972,7.972,0,0,0,1.433,1.065A8,8,0,0,1,216,336Zm32-88v64H233.868A23.958,23.958,0,0,0,232,310.124V248Zm-32,56H194.92a28.016,28.016,0,0,0-27.959,26.474L166.672,336H134.748l1.241-23.579c.007-.141.011-.28.011-.421V256h80ZM104,256h16v48H104ZM32,400H80a8,8,0,0,0,6.656-3.562l26.063-39.094A11.978,11.978,0,0,1,122.7,352H192a8,8,0,0,1,0,16H168a8,8,0,0,0-7.59,5.472l-.7,2.117A23.972,23.972,0,0,1,136.936,392H123.368a8,8,0,0,0-7.989,7.579L112.41,456H32Z"/><path d="M176,113.376V80a8,8,0,0,0-16,0v33.376a24,24,0,1,0,16,0ZM168,144a8,8,0,1,1,8-8A8.009,8.009,0,0,1,168,144Z"/><rect height="16" width="16" x="128" y="96"/><rect height="16" width="16" x="128" y="72"/><path d="M456,264a80,80,0,1,0-112,73.325V352H296a32.036,32.036,0,0,0-32,32v88a8,8,0,0,0,8,8H480a8,8,0,0,0,8-8V384a32.036,32.036,0,0,0-32-32H408V337.325A80.151,80.151,0,0,0,456,264ZM400,368h56a16.019,16.019,0,0,1,16,16v80H440V408a8,8,0,0,0-16,0v56H328V408a8,8,0,0,0-16,0v56H280V384a16.019,16.019,0,0,1,16-16h56a8,8,0,0,0,8-8V331.887a8,8,0,0,0-5.333-7.542,64,64,0,1,1,42.666,0A8,8,0,0,0,392,331.887V360A8,8,0,0,0,400,368Z"/><circle cx="349" cy="251" r="13"/><circle cx="405" cy="251" r="13"/><path d="M400,296a8,8,0,0,0-8-8H360a8,8,0,0,0,0,16h32A8,8,0,0,0,400,296Z"/><path d="M168,24a88,88,0,0,0-22.176,173.157l15.52,23.281a8,8,0,0,0,13.312,0l15.52-23.281A88,88,0,0,0,168,24Zm55.881,133.392A72.279,72.279,0,0,1,183.539,182.3a7.994,7.994,0,0,0-4.937,3.376l-10.6,15.9-10.6-15.9a7.994,7.994,0,0,0-4.937-3.376,72.006,72.006,0,1,1,71.42-24.907Z"/></g></svg>